<?xml version="1.0" standalone="no"?>
<!DOCTYPE svg PUBLIC "-//W3C//DTD SVG 1.1//EN" "http://www.w3.org/Graphics/SVG/1.1/DTD/svg11.dtd" >
<svg xmlns="http://www.w3.org/2000/svg">
<metadata>
Created by FontPrep 20130207 at Wed Mar  5 16:52:23 2014
 By Drew Rios
Copyright (c) 2013 by Avondale Type Co. All rights reserved.
</metadata>
<defs>
<font id="7130e03fd8429a57e39f025e2742457d" >
  <font-face 
    font-family="ATCOverlook-Thin"
    font-weight="250"
    font-stretch="normal"
    units-per-em="2048"
    panose-1="0 0 3 0 0 0 0 0 0 0"
    ascent="1638"
    descent="-410"
    x-height="1024"
    cap-height="1434"
    bbox="-152 -606 2460 1864"
    underline-thickness="102"
    underline-position="-102"
    unicode-range="U+0020-25CA"
  />
<missing-glyph horiz-adv-x="1228" 
 />
    <glyph glyph-name="f_f" unicode="ff" horiz-adv-x="1196" 
d="M793 1051v-27h405v-59h-405v-965h-62v965h-405v-965h-62v965h-184v59h184v18q-4 306 81 392t345 26v-59q-127 25 -187 27t-107 -32q-46 -36 -58 -114t-12 -231v-27h405v18q-4 322 86 410t381 29v-60q-96 17 -150 23q-136 16 -188 -34t-62 -183q-5 -68 -5 -176z" />
    <glyph glyph-name="f_f_i" unicode="ffi" horiz-adv-x="1449" 
d="M793 1051v-27h464v-1024h-61v965h-403v-965h-62v965h-405v-965h-62v965h-184v59h184v18q-4 306 81 392t345 26v-59q-127 25 -187 27t-107 -32q-46 -36 -58 -114t-12 -231v-27h405v18q-4 250 53 360q30 60 92 82t152 22t229 -25v-60q-115 17 -177 23t-122 -1t-87 -29
q-25 -22 -47 -71t-26 -115t-5 -177z" />
    <glyph glyph-name=".notdef" horiz-adv-x="1228" 
 />
    <glyph glyph-name=".null" horiz-adv-x="0" 
 />
    <glyph glyph-name="nonmarkingreturn" horiz-adv-x="681" 
 />
    <glyph glyph-name="space" unicode=" " horiz-adv-x="589" 
 />
    <glyph glyph-name="exclam" unicode="!" horiz-adv-x="448" 
d="M225 82q23 0 37 -14t14 -36t-15 -36q-15 -16 -35 -16t-37 15q-15 15 -15 37t14 36t37 14zM256 334h-61v1141h61v-1141z" />
    <glyph glyph-name="quotedbl" unicode="&#x22;" horiz-adv-x="616" 
d="M498 1239h-62v399h62v-399zM190 1239h-61v399h61v-399z" />
    <glyph glyph-name="numbersign" unicode="#" horiz-adv-x="1359" 
d="M942 985h-432l-76 -530h432zM1192 455v-60h-268l-58 -395h-65l57 395h-432l-55 -395h-64l55 395h-260v60h269l75 528h-278v61h289l53 390h65l-57 -390h432l56 390h65l-57 -390h243v-61h-251l-74 -528h260z" />
    <glyph glyph-name="dollar" unicode="$" horiz-adv-x="1247" 
d="M649 -205h-59v170q-142 6 -274 51t-185 107l33 57q61 -57 169 -98q224 -85 453 -33q106 25 178 110q71 85 70 218q0 70 -28 127q-29 57 -63 90q-33 34 -105 66t-110 43t-199 57t-228 82q-141 92 -147 252q0 186 120 276q121 90 316 94v174h59v-176q198 -8 391 -90
l-24 -63q-154 86 -392 95q-239 9 -346 -118q-62 -74 -63 -192q1 -70 23 -102t37 -49t60 -42q59 -33 151 -57q324 -86 434 -151q91 -57 129 -124q45 -84 46 -181q2 -262 -189 -359q-99 -53 -257 -64v-170z" />
    <glyph glyph-name="percent" unicode="%" horiz-adv-x="1613" 
d="M1442 350q0 147 -70 227t-191 80q-120 0 -192 -83q-71 -84 -71 -230t70 -222t191 -77q123 0 193 79t70 226zM856 351q0 167 84 267t244 99q160 1 240 -99t79 -267q0 -167 -84 -267q-85 -100 -241 -100t-239 100t-83 267zM435 1415q-119 0 -191 -83q-72 -84 -72 -230
t70 -224t192 -77q122 0 192 80q71 80 70 227q0 147 -70 227q-71 80 -191 80zM305 0h-74l1053 1434h72zM111 1109q-1 167 83 267t244 99q160 1 240 -99t80 -267t-84 -267t-241 -100t-239 100t-83 267z" />
    <glyph glyph-name="ampersand" unicode="&#x26;" horiz-adv-x="1417" 
d="M582 18q236 0 424 215l-506 504q-86 -31 -142 -59t-102 -70q-92 -84 -90 -250q0 -99 68 -189t196 -129q70 -22 152 -22zM643 1415q-123 -1 -213 -69t-90 -182t44 -187q44 -74 140 -174q233 67 324 147q92 81 95 202q3 122 -87 192t-213 71zM582 -41q-201 0 -339 118
t-139 281q0 217 161 329q75 52 192 95q-92 102 -135 184t-43 183q0 135 102 230t264 95t264 -96q102 -98 99 -229q-7 -232 -308 -340q-55 -20 -139 -47l483 -481q96 113 161 268t79 280h62q-14 -145 -84 -306t-175 -285l240 -242l-43 -45l-237 239q-217 -231 -465 -231z" />
    <glyph glyph-name="quotesingle" unicode="'" horiz-adv-x="311" 
d="M190 1137h-61v399h61v-399z" />
    <glyph glyph-name="parenleft" unicode="(" horiz-adv-x="806" 
d="M142 568q0 612 526 907l26 -56q-492 -281 -492 -852t492 -852l-26 -55q-526 296 -526 908z" />
    <glyph glyph-name="parenright" unicode=")" horiz-adv-x="808" 
d="M607 568q0 574 -492 851l26 56q527 -295 527 -907t-527 -908l-28 55q494 279 494 853z" />
    <glyph glyph-name="asterisk" unicode="*" horiz-adv-x="894" 
d="M473 1167l232 146l30 -53l-243 -130l243 -129l-30 -57l-232 148l6 -275h-61l14 275l-239 -146l-33 53l252 131l-248 130l31 53l237 -146l-14 277h61z" />
    <glyph glyph-name="plus" unicode="+" horiz-adv-x="1310" 
d="M1167 604h-481v-481h-61v481h-482v62h482v481h61v-481h481v-62z" />
    <glyph glyph-name="comma" unicode="," horiz-adv-x="372" 
d="M113 56q0 22 17 39t40 17t40 -16q17 -18 17 -34t-75 -197h-25l33 135q-18 2 -33 18q-14 16 -14 38z" />
    <glyph glyph-name="hyphen" unicode="-" horiz-adv-x="798" 
d="M655 453h-512v59h512v-59z" />
    <glyph glyph-name="period" unicode="." horiz-adv-x="393" 
d="M197 90q51 0 51 -49q0 -19 -16 -35t-35 -16q-20 0 -36 16q-15 16 -16 35q1 49 52 49z" />
    <glyph glyph-name="slash" unicode="/" horiz-adv-x="886" 
d="M25 -348h-62l868 1982h62z" />
    <glyph glyph-name="zero" unicode="0" horiz-adv-x="1454" 
d="M726 1403q-245 0 -386 -179t-141 -507t141 -507t385 -179t387 180t143 507t-142 506t-387 179zM725 1464q157 0 275 -62q211 -110 284 -407q33 -129 33 -278q0 -348 -156 -548t-436 -200q-127 0 -229 43t-168 115q-188 205 -191 590q-1 347 153 547t435 200z" />
    <glyph glyph-name="one" unicode="1" horiz-adv-x="770" 
d="M535 0h-62v1384l-387 -112l-20 59l469 133v-1464z" />
    <glyph glyph-name="two" unicode="2" horiz-adv-x="1148" 
d="M1032 1074q0 -58 -3 -86t-21 -84q-37 -115 -143 -219q-63 -61 -119 -91t-169 -81q-202 -91 -304 -192t-128 -262h861v-59h-918q0 171 69 269q26 38 47 65q74 90 285 196q29 14 87 43t88 43q168 86 256 230q41 68 49 160q20 225 -134 335q-89 63 -229 64
q-225 -1 -418 -107l-26 54q229 113 444 112q98 0 178 -31q160 -63 218 -221q30 -80 30 -138z" />
    <glyph glyph-name="three" unicode="3" horiz-adv-x="1210" 
d="M582 1464q220 0 341 -110q122 -110 121 -281q0 -106 -60 -191t-150 -110q110 -31 184 -129t74 -227q0 -215 -138 -331t-376 -116q-160 0 -302 50t-219 114l29 47q221 -152 492 -151q190 0 311 79q141 90 141 308q0 152 -98 240t-258 87h-230v60h234q154 0 230 80t75 190
q0 176 -112 254t-291 78q-118 1 -234 -25t-188 -63l-23 55q227 92 447 92z" />
    <glyph glyph-name="four" unicode="4" horiz-adv-x="1140" 
d="M1057 369h-201v-369h-61v369h-713q328 360 328 823h61q0 -158 -42 -312q-74 -271 -224 -452h590v1026h61v-1026h201v-59z" />
    <glyph glyph-name="five" unicode="5" horiz-adv-x="1257" 
d="M287 1374v-489q134 36 269 48t218 -7q145 -32 227 -100q135 -113 138 -337q0 -129 -48 -231q-87 -185 -309 -257q-98 -32 -202 -32q-266 0 -465 133l28 62q178 -135 416 -135t378 125t140 331q0 123 -49 209t-124 122q-127 61 -228 63q-240 0 -451 -72v627h877v-60h-815z
" />
    <glyph glyph-name="six" unicode="6" horiz-adv-x="1273" 
d="M638 29q208 0 329 126t120 316q0 190 -110 305q-111 115 -285 115q-113 0 -205 -38t-147 -98q-110 -120 -131 -263q23 -233 122 -348t307 -115zM690 1407q-285 0 -407 -256q-84 -188 -84 -434v-72q65 153 199 229t294 76q211 0 334 -136t123 -350t-150 -354t-356 -141
q-274 -1 -389 181t-115 548q-1 366 145 568q146 200 410 200t445 -209l-41 -49q-66 94 -174 146t-234 53z" />
    <glyph glyph-name="seven" unicode="7" horiz-adv-x="1114" 
d="M119 1434h917q-12 -305 -217 -568q-49 -61 -167 -197t-177 -257q-84 -178 -84 -412h-61q0 382 248 669q122 145 139 162q229 260 252 543h-850v60z" />
    <glyph glyph-name="eight" unicode="8" horiz-adv-x="1314" 
d="M1137 408q0 334 -480 335q-253 0 -367 -89q-114 -88 -114 -248t118 -266t363 -111q242 4 361 110q119 105 119 269zM225 1081q-1 -160 99 -219t336 -59q236 -1 331 67q96 68 96 203q0 168 -121 249q-122 81 -308 83t-309 -81q-124 -83 -124 -243zM1198 416
q0 -223 -150 -335t-373 -112q-224 0 -381 87q-83 46 -131 138t-48 229q0 136 93 236t230 113q-130 10 -202 94t-72 198q0 295 319 379q84 22 174 21q209 0 351 -100t141 -291q0 -123 -72 -207t-203 -94q136 -12 230 -112t94 -244z" />
    <glyph glyph-name="nine" unicode="9" horiz-adv-x="1271" 
d="M636 1407q-208 0 -329 -126t-121 -316q0 -189 111 -305t285 -115q112 0 204 38q157 65 236 225q33 67 43 136q-23 233 -122 348t-307 115zM584 29q285 0 407 256q84 188 84 434v72q-65 -152 -199 -229t-294 -77q-211 1 -334 137t-123 350t149 354q150 140 357 140
q274 0 389 -181t115 -547q1 -366 -145 -568q-146 -201 -410 -201t-445 209l41 49q66 -94 174 -146t234 -52z" />
    <glyph glyph-name="colon" unicode=":" horiz-adv-x="419" 
d="M209 100q51 0 51 -49q0 -19 -15 -35t-35 -16t-37 15q-15 15 -15 36q0 49 51 49zM209 1024q23 0 40 -17t17 -40t-17 -39t-40 -16t-40 16t-17 39t17 40t40 17z" />
    <glyph glyph-name="semicolon" unicode=";" horiz-adv-x="387" 
d="M119 56q0 22 17 39t40 17t40 -16q17 -18 17 -34t-75 -197h-25l33 135q-18 2 -33 18q-14 16 -14 38zM176 1024q23 0 40 -17t17 -40t-17 -39t-40 -16t-40 16t-17 39t17 40t40 17z" />
    <glyph glyph-name="less" unicode="&#x3c;" horiz-adv-x="1386" 
d="M285 637l923 -424v-68l-1087 492l1087 469v-70z" />
    <glyph glyph-name="equal" unicode="=" horiz-adv-x="1388" 
d="M1206 420h-1024v61h1024v-61zM1206 829h-1024v62h1024v-62z" />
    <glyph glyph-name="greater" unicode="&#x3e;" horiz-adv-x="1386" 
d="M1266 637l-1088 -492v68l932 424l-930 401v68z" />
    <glyph glyph-name="question" unicode="?" horiz-adv-x="1048" 
d="M443 113q28 1 44 -15q17 -16 17 -40t-18 -41t-40 -17q-23 0 -39 17q-33 33 -5 76q13 20 41 20zM942 1096q0 -241 -202 -330q-113 -51 -259 -51v-383h-61v436q461 0 461 311q-1 158 -103 239t-284 89q-178 -6 -416 -88l-21 57q244 84 437 90q143 0 245 -50
q103 -50 153 -137t50 -183z" />
    <glyph glyph-name="at" unicode="@" horiz-adv-x="2035" 
d="M1094 1001q-199 1 -321 -123q-121 -124 -151 -308t45 -297q75 -114 259 -113q88 0 165 28t119 61q42 34 70 70q2 44 10 95l76 438q-37 66 -109 108t-163 41zM1522 147q162 -1 246 143t83 378q0 303 -242 527q-243 224 -592 224q-349 1 -591 -241t-242 -597t243 -594
t609 -239q272 0 508 146l35 -52q-252 -154 -543 -153q-389 0 -651 261t-262 631q0 369 261 633t634 264t634 -242q261 -243 261 -568q-1 -264 -105 -422t-288 -158q-211 0 -236 160q-49 -60 -151 -104t-226 -44t-218 69q-176 130 -130 398q37 209 178 351t342 143
q201 0 301 -133l17 94h61q-16 -86 -43 -234q-83 -408 -69 -524t176 -117z" />
    <glyph glyph-name="A" unicode="A" horiz-adv-x="1495" 
d="M1116 502l-368 833l-369 -833h737zM1143 442h-791l-194 -442h-76l666 1475l665 -1475h-74z" />
    <glyph glyph-name="B" unicode="B" horiz-adv-x="1239" 
d="M274 59h289q246 0 363 83t116 264q0 147 -103 224t-372 77h-293v-648zM274 766h293q170 0 282 71t112 232q0 305 -449 305h-238v-608zM213 1434h332q223 0 350 -96t127 -269q0 -256 -229 -319q311 -53 311 -344q0 -202 -132 -304t-372 -102h-387v1434z" />
    <glyph glyph-name="C" unicode="C" horiz-adv-x="1513" 
d="M843 -31q-175 -1 -313 61t-218 168q-164 216 -162 519q0 350 190 549t506 198q176 0 332 -74t256 -214l-45 -35q-87 119 -229 191t-314 73q-299 0 -467 -183q-168 -182 -168 -498t170 -506t465 -189q164 1 308 77t230 197l50 -41q-102 -141 -259 -217t-332 -76z" />
    <glyph glyph-name="D" unicode="D" horiz-adv-x="1447" 
d="M274 59h285q303 0 491 170q187 169 187 473t-177 488t-501 184h-285v-1315zM213 1434h346q355 0 547 -201t192 -533t-205 -517q-206 -183 -534 -183h-346v1434z" />
    <glyph glyph-name="E" unicode="E" horiz-adv-x="1144" 
d="M274 1374v-606h684v-59h-684v-650h742v-59h-803v1434h803v-60h-742z" />
    <glyph glyph-name="F" unicode="F" horiz-adv-x="1101" 
d="M274 1374v-606h678v-61h-678v-707h-61v1434h797v-60h-736z" />
    <glyph glyph-name="G" unicode="G" horiz-adv-x="1611" 
d="M885 748h549v-486q-213 -293 -590 -293q-219 0 -380 108q-161 109 -238 275t-76 365q0 342 201 545q202 203 493 202q383 0 590 -288l-50 -37q-80 121 -220 193t-320 73q-274 0 -454 -185q-180 -184 -179 -500q0 -316 183 -504t450 -187q344 0 528 254v405h-487v60z" />
    <glyph glyph-name="H" unicode="H" horiz-adv-x="1470" 
d="M1257 1434v-1434h-61v686h-922v-686h-61v1434h61v-686h922v686h61z" />
    <glyph glyph-name="I" unicode="I" horiz-adv-x="516" 
d="M289 0h-62v1434h62v-1434z" />
    <glyph glyph-name="J" unicode="J" horiz-adv-x="1071" 
d="M879 1434v-1026q0 -438 -457 -439q-242 0 -381 166l41 53q51 -72 139 -116t201 -43q395 0 395 381v1024h62z" />
    <glyph glyph-name="K" unicode="K" horiz-adv-x="1288" 
d="M274 0h-61v1434h61v-887l754 887h78l-571 -664l665 -770h-80l-624 725l-222 -258v-467z" />
    <glyph glyph-name="L" unicode="L" horiz-adv-x="1087" 
d="M1010 59v-59h-797v1434h61v-1375h736z" />
    <glyph glyph-name="M" unicode="M" horiz-adv-x="1716" 
d="M1503 0h-61v1296l-584 -729l-584 729v-1296h-61v1475l645 -813l645 813v-1475z" />
    <glyph glyph-name="N" unicode="N" horiz-adv-x="1511" 
d="M274 0h-61v1475l1024 -1334v1293h61v-1475l-1024 1333v-1292z" />
    <glyph glyph-name="O" unicode="O" horiz-adv-x="1728" 
d="M864 1405q-293 0 -473 -188q-180 -187 -180 -499t185 -500t468 -189q283 0 468 188q186 187 186 499t-180 500t-474 189zM864 1464q227 0 392 -105t244 -273t79 -369q0 -348 -205 -548t-512 -200t-510 201t-202 547q0 203 78 369t244 272q165 106 392 106z" />
    <glyph glyph-name="P" unicode="P" horiz-adv-x="1122" 
d="M272 602h224q246 0 354 92t108 284t-131 294t-454 102h-101v-772zM211 1434h205q604 0 604 -461q0 -430 -514 -430h-234v-543h-61v1434z" />
    <glyph glyph-name="Q" unicode="Q" horiz-adv-x="1716" 
d="M1518 717q0 311 -180 499t-474 189q-193 0 -341 -85t-230 -242t-82 -361q0 -311 185 -499t468 -189q186 0 336 86l19 14l2 -2q139 86 218 239t79 351zM856 -31q-192 0 -354 86q-160 86 -256 258t-96 404q0 306 179 522q87 105 225 165t310 60t310 -60q259 -112 359 -404
q46 -134 46 -283q0 -221 -87 -386t-241 -259l113 -193l-51 -31l-111 197q-154 -76 -346 -76z" />
    <glyph glyph-name="R" unicode="R" horiz-adv-x="1159" 
d="M274 561h121q420 -6 526 205q40 80 40 197q-1 223 -147 318t-419 91h-121v-811zM213 1434h225q584 0 584 -471q0 -348 -320 -435l310 -528h-74l-295 516q-80 -14 -176 -14h-193v-502h-61v1434z" />
    <glyph glyph-name="S" unicode="S" horiz-adv-x="1222" 
d="M205 1094q0 -70 35 -121q16 -27 64 -57q72 -46 155 -68q311 -81 432 -145q71 -37 107 -77q89 -99 88 -255t-86 -256q-86 -100 -210 -127t-260 -18q-136 10 -250 54q-112 44 -159 99l33 57q61 -57 169 -98q224 -85 453 -33q106 25 177 110t71 218q0 70 -29 127t-62 90
q-34 34 -106 66q-71 32 -109 43t-199 57t-228 82q-141 92 -148 252q0 154 86 244q157 166 508 115q152 -22 293 -81l-24 -63q-154 86 -392 95t-347 -118q-62 -74 -62 -192z" />
    <glyph glyph-name="T" unicode="T" horiz-adv-x="1241" 
d="M1165 1374h-512v-1374h-61v1374h-514v60h1087v-60z" />
    <glyph glyph-name="U" unicode="U" horiz-adv-x="1548" 
d="M1358 1434v-813q0 -313 -146 -483t-439 -169q-292 0 -437 168t-146 481v816h62v-799q0 -291 130 -449t392 -158t392 158q130 156 130 449v799h62z" />
    <glyph glyph-name="V" unicode="V" horiz-adv-x="1454" 
d="M1372 1434l-645 -1495l-645 1495h74l571 -1328l571 1328h74z" />
    <glyph glyph-name="W" unicode="W" horiz-adv-x="2119" 
d="M1503 -61l-442 1323l-445 -1323l-522 1495h70l450 -1301l447 1321l444 -1319l451 1299h69z" />
    <glyph glyph-name="X" unicode="X" horiz-adv-x="1372" 
d="M1204 0l-518 698l-516 -698h-82l559 748l-508 686h82l467 -635l465 635h82l-510 -684l559 -750h-80z" />
    <glyph glyph-name="Y" unicode="Y" horiz-adv-x="1232" 
d="M647 0h-61v606l-533 828h76l487 -754l488 754h76l-533 -828v-606z" />
    <glyph glyph-name="Z" unicode="Z" horiz-adv-x="1466" 
d="M1321 59v-59h-1184l1063 1374h-981v60h1102l-1063 -1375h1063z" />
    <glyph glyph-name="bracketleft" unicode="[" horiz-adv-x="770" 
d="M662 1415h-400v-1704h400v-59h-461v1823h461v-60z" />
    <glyph glyph-name="backslash" unicode="\" horiz-adv-x="894" 
d="M932 -348h-72l-868 1982h71z" />
    <glyph glyph-name="bracketright" unicode="]" horiz-adv-x="749" 
d="M549 -348h-440v59h378v1704h-378v60h440v-1823z" />
    <glyph glyph-name="asciicircum" unicode="^" horiz-adv-x="1048" 
d="M807 1010l-283 370l-282 -370h-76l358 469l359 -469h-76z" />
    <glyph glyph-name="underscore" unicode="_" horiz-adv-x="1302" 
d="M1307 -287h-1311v60h1311v-60z" />
    <glyph glyph-name="grave" unicode="`" horiz-adv-x="296" 
d="M195 1341h-72l-225 297h71z" />
    <glyph glyph-name="a" unicode="a" 
d="M490 616q-170 0 -247 -78t-77 -214q0 -86 38 -155t106 -107t136 -38q237 2 379 169v364q-165 59 -335 59zM606 1051q170 0 224 -84t55 -248v-719h-60v117q-55 -59 -157 -105t-201 -47q-174 1 -268 105q-95 104 -95 248t83 251t271 107q189 0 367 -58v123q0 131 -45 191
t-159 59q-191 0 -392 -84l-20 58q227 86 397 86z" />
    <glyph glyph-name="b" unicode="b" horiz-adv-x="1150" 
d="M580 23q176 0 281 127t106 356q-1 229 -105 355t-282 126q-100 0 -188 -53t-140 -131v-596q47 -74 139 -129t189 -55zM252 1475v-584q141 156 343 156q201 0 317 -150q116 -151 116 -393t-115 -392t-317 -149q-202 0 -344 150v-113h-62v1475h62z" />
    <glyph glyph-name="c" unicode="c" horiz-adv-x="1101" 
d="M641 -37q-260 1 -391 145t-131 406t131 406t391 145q96 0 205 -37t166 -94l-27 -55q-147 127 -354 127t-329 -123t-122 -369t122 -369t329 -123t354 128l27 -56q-57 -57 -166 -94t-205 -37z" />
    <glyph glyph-name="d" unicode="d" horiz-adv-x="1150" 
d="M571 987q-178 0 -282 -126q-105 -126 -105 -355t106 -356t281 -127q97 0 189 55t139 129v596q-51 78 -139 131t-189 53zM961 1475v-1475h-62v113q-141 -150 -344 -150t-317 150q-114 151 -115 393q0 242 116 392t317 149q201 0 343 -156v584h62z" />
    <glyph glyph-name="e" unicode="e" horiz-adv-x="1183" 
d="M1006 512q-9 475 -406 475q-129 0 -225 -59q-97 -59 -147 -167t-48 -249h826zM1075 453h-893q14 -191 130 -311t321 -119q168 0 323 110l29 -59q-70 -49 -166 -80t-186 -31q-256 0 -385 159q-129 160 -129 396t135 382t346 147q475 0 475 -594z" />
    <glyph glyph-name="f" unicode="f" horiz-adv-x="729" 
d="M326 1051v-27h405v-59h-405v-965h-62v965h-184v59h184v18q-4 322 86 410t381 29v-60q-96 17 -150 23q-136 16 -188 -34t-62 -183q-5 -68 -5 -176z" />
    <glyph glyph-name="g" unicode="g" horiz-adv-x="1150" 
d="M571 37q101 0 189 53t139 131v596q-68 104 -196 157q-67 28 -132 27q-176 0 -281 -128q-106 -128 -106 -356t104 -354t283 -126zM961 1024v-950q0 -317 -57 -410t-160 -116q-60 -13 -160 -13t-223 38q-122 38 -181 93l31 58q163 -130 371 -130t262 88t55 318v133
q-141 -156 -343 -156t-318 150q-116 151 -115 393q0 242 115 392t317 149q202 0 344 -150v113h62z" />
    <glyph glyph-name="h" unicode="h" horiz-adv-x="1138" 
d="M252 1475v-584q66 70 165 115t201 45q170 1 260 -103t91 -270v-678h-62v678q0 112 -47 188q-86 139 -282 123q-86 -6 -174 -50t-152 -114v-825h-62v1475h62z" />
    <glyph glyph-name="i" unicode="i" horiz-adv-x="487" 
d="M274 0h-61v1024h61v-1024zM244 1434q20 0 36 -16t15 -36q0 -20 -15 -35t-37 -15t-36 14t-14 35t15 37q16 16 36 16z" />
    <glyph glyph-name="j" unicode="j" horiz-adv-x="665" 
d="M451 1024v-1024q0 -247 -28 -327q-27 -80 -57 -110t-86 -42t-124 -5t-172 27v62q98 -23 161 -31t111 5t74 37q25 24 44 99t19 285v1024h58zM422 1434q20 0 36 -16t15 -36q0 -20 -15 -34q-16 -14 -36 -14t-34 14t-15 34q0 20 14 36q15 16 35 16z" />
    <glyph glyph-name="k" unicode="k" horiz-adv-x="1019" 
d="M252 0h-62v1475h62v-1117l543 666h82l-373 -457l444 -567h-86l-401 514l-209 -256v-258z" />
    <glyph glyph-name="l" unicode="l" horiz-adv-x="464" 
d="M262 0h-59v1475h59v-1475z" />
    <glyph glyph-name="m" unicode="m" horiz-adv-x="1683" 
d="M252 1024v-133q152 160 330 160q209 0 270 -158q139 158 348 158q305 0 305 -373v-678h-61v680q0 311 -246 311q-103 0 -186 -41t-127 -96v-854h-62v680q0 156 -53 234t-201 77q-86 0 -176 -51t-141 -121v-819h-62v1024h62z" />
    <glyph glyph-name="n" unicode="n" horiz-adv-x="1138" 
d="M252 1024v-133q66 70 165 115t201 45q170 1 260 -103t91 -270v-678h-62v678q0 112 -47 188q-86 139 -282 123q-86 -6 -174 -50t-152 -114v-825h-62v1024h62z" />
    <glyph glyph-name="o" unicode="o" horiz-adv-x="1234" 
d="M617 987q-207 0 -323 -130t-116 -351t116 -352t324 -131t323 131q116 131 116 351t-116 351t-324 131zM117 511q0 251 137 393q136 142 370 143t364 -147t130 -394t-130 -394t-371 -148t-371 148t-129 399z" />
    <glyph glyph-name="p" unicode="p" horiz-adv-x="1153" 
d="M582 33q178 0 282 126t105 355t-105 355t-282 128q-66 1 -132 -27q-127 -52 -196 -157v-596q49 -80 138 -132t190 -52zM254 1024v-115q141 152 328 152q216 -2 332 -153q116 -152 116 -394t-116 -392t-317 -149q-201 0 -345 156v-543h-59v1438h61z" />
    <glyph glyph-name="q" unicode="q" horiz-adv-x="1150" 
d="M571 35q101 0 189 53t139 133v596q-68 104 -196 157q-67 28 -132 27q-176 0 -281 -128q-106 -128 -106 -357t104 -355t283 -126zM961 1024v-1436h-62v543q-141 -156 -328 -156q-219 0 -335 150q-116 151 -114 393q1 242 117 392t317 151q201 0 343 -152v115h62z" />
    <glyph glyph-name="r" unicode="r" horiz-adv-x="686" 
d="M252 1024v-104q211 199 389 77l-20 -61q-81 60 -181 36t-188 -132v-840h-62v1024h62z" />
    <glyph glyph-name="s" unicode="s" horiz-adv-x="962" 
d="M470 31q85 0 144 19q58 18 108 80t50 157q0 195 -307 248q-217 35 -273 89q-57 54 -58 166q-1 111 90 185q92 74 268 74t337 -97l-26 -57q-63 39 -161 67t-156 28q-196 -2 -262 -101q-30 -45 -30 -95t9 -76q8 -27 61 -70q14 -11 50 -20t69 -17t109 -19q342 -63 342 -305
q0 -160 -96 -238t-240 -78q-146 -1 -248 45t-156 109l37 55q59 -74 157 -112t182 -37z" />
    <glyph glyph-name="t" unicode="t" horiz-adv-x="839" 
d="M334 963v-537q0 -217 37 -303t127 -91t241 23v-61q-197 -40 -290 -18q-55 13 -88 43q-69 64 -81 220q-7 75 -8 187v537h-184v61h184v451h62v-451h405v-61h-405z" />
    <glyph glyph-name="u" unicode="u" horiz-adv-x="1136" 
d="M944 1024v-1024h-61v135q-63 -70 -163 -116t-206 -48q-168 3 -258 105t-86 268v680h61v-680q1 -112 47 -188q85 -139 283 -123q86 6 173 50t149 118q0 6 -2 10v813h63z" />
    <glyph glyph-name="v" unicode="v" horiz-adv-x="1130" 
d="M1047 1024l-461 -1085l-502 1085h76l422 -926l389 926h76z" />
    <glyph glyph-name="w" unicode="w" horiz-adv-x="1751" 
d="M1241 -61l-367 938l-366 -938l-410 1085h76l336 -911l364 931l365 -931l336 911h76z" />
    <glyph glyph-name="x" unicode="x" horiz-adv-x="997" 
d="M838 0l-338 467l-340 -467h-82l381 524l-365 500h82l322 -446l323 446h82l-362 -502l379 -522h-82z" />
    <glyph glyph-name="y" unicode="y" horiz-adv-x="1107" 
d="M1024 1024l-473 -1120q-55 -135 -91 -203t-89 -113t-119 -41t-168 43l27 68q101 -45 140 -40t61 9t48 35t39 50q14 18 40 76t39 93t46 119l-387 1024h76l348 -938l387 938h76z" />
    <glyph glyph-name="z" unicode="z" horiz-adv-x="964" 
d="M854 59v-59h-762l672 965h-629v59h739l-667 -965h647z" />
    <glyph glyph-name="braceleft" unicode="{" horiz-adv-x="960" 
d="M438 1030q0 -293 -89 -391q-40 -45 -101 -61q53 -14 90 -52q89 -90 98 -286q2 -45 2 -115q0 -197 80 -277t316 -129l-11 -59q-347 66 -414 232q-32 81 -32 148v169q1 139 -57 238t-185 100h-33v61h33q127 0 184 100t57 265q0 166 11 217q31 160 205 237q92 41 231 68
l11 -59q-232 -49 -314 -129t-82 -277z" />
    <glyph glyph-name="bar" unicode="|" horiz-adv-x="552" 
d="M307 -348h-61v1986h61v-1986z" />
    <glyph glyph-name="braceright" unicode="}" horiz-adv-x="964" 
d="M588 946q0 -139 57 -238t184 -100h33v-61h-33q-127 1 -184 -99t-57 -239v-53q6 -194 -36 -276t-140 -135q-98 -52 -271 -85l-14 59q177 44 248 83q71 38 96 78q57 90 57 245q0 227 43 325q17 40 55 76t91 52q-125 33 -159 174q-28 116 -29 234t-12 188t-80 142
q-50 50 -178 86q-46 13 -130 36l12 57q308 -59 395 -193q59 -100 54 -287q-2 -53 -2 -69z" />
    <glyph glyph-name="asciitilde" unicode="~" horiz-adv-x="1413" 
d="M1192 860l51 -31q-52 -86 -122 -151q-34 -33 -101 -41t-139 15q-161 53 -201 71q-153 54 -217 63q-65 10 -99 -5q-79 -35 -147 -138l-47 29q61 92 138 148q43 31 145 35q53 2 164 -39q28 -10 148 -56q229 -89 304 -40q39 26 78 79t45 61z" />
    <glyph glyph-name="exclamdown" unicode="&#xa1;" horiz-adv-x="448" 
d="M254 -410h-61v1102h61v-1102zM224 1024q22 0 37 -14t15 -37t-15 -37t-37 -14t-36 14t-14 36t14 37t36 15z" />
    <glyph glyph-name="cent" unicode="&#xa2;" horiz-adv-x="1112" 
d="M664 -205h-62v170q-233 13 -350 157t-117 392t117 391t350 158v172h62v-170q96 -2 201 -38t163 -93l-27 -55q-147 127 -354 127t-329 -123t-122 -369t122 -369t329 -123t354 128l27 -56q-56 -57 -162 -93t-202 -38v-168z" />
    <glyph glyph-name="sterling" unicode="&#xa3;" horiz-adv-x="1212" 
d="M446 274q0 -157 -96 -215h762v-59h-975v59q131 0 190 51q58 51 58 164v433h-248v59h248v309q0 217 121 310q121 94 280 94q158 0 285 -56l-20 -61q-82 55 -271 55q-133 0 -227 -72q-47 -36 -77 -105t-30 -165v-309h338v-59h-338v-433z" />
    <glyph glyph-name="yen" unicode="&#xa5;" horiz-adv-x="1253" 
d="M1008 668v-60h-351v-227h351v-59h-351v-322h-61v322h-358v59h358v227h-358v60h358l-543 766h72l502 -709l501 709h72l-543 -766h351z" />
    <glyph glyph-name="brokenbar" unicode="&#xa6;" horiz-adv-x="552" 
d="M307 -348h-61v676h61v-676zM307 963h-61v675h61v-675z" />
    <glyph glyph-name="section" unicode="&#xa7;" horiz-adv-x="1249" 
d="M205 575q0 -139 338 -237q150 -44 328 6q75 20 125 66t50 97q1 90 -106 142t-313 86q-105 10 -199 5t-158 -48t-65 -117zM227 1142q0 -222 283 -309q49 -15 75 -21l66 -17q7 -2 57 -12q234 -47 306 -103q94 -74 94 -171t-95 -161t-237 -78q143 -53 226 -146t83 -220
t-87 -214q-163 -163 -506 -134q-156 12 -293 67l20 62q149 -70 391 -66t351 119q63 68 63 170q0 62 -34 118q-99 162 -399 241q-300 78 -394 179q-53 57 -54 129q0 188 258 220q-236 100 -235 329q0 131 87 218q162 162 507 135q156 -13 293 -68l-21 -61q-106 54 -301 67
t-342 -52q-72 -32 -117 -93t-45 -128z" />
    <glyph glyph-name="dieresis" unicode="&#xa8;" horiz-adv-x="430" 
d="M379 1485q19 1 35 -15t16 -36t-14 -36t-37 -16t-37 16t-14 36t16 36t35 15zM51 1485q19 1 35 -15t16 -36t-14 -36t-37 -16t-37 16t-14 36t16 36t35 15z" />
    <glyph glyph-name="copyright" unicode="&#xa9;" horiz-adv-x="1699" 
d="M492 716q0 184 92 288q92 102 272 102q74 0 152 -27t118 -67l-32 -56q-92 88 -238 88q-303 0 -303 -327q0 -160 77 -244q76 -84 228 -84t240 84l28 -51q-40 -41 -118 -68t-152 -26q-180 0 -272 102t-92 286zM1530 718q0 284 -196 482t-483 197q-289 0 -485 -199
q-196 -198 -196 -482t196 -482t484 -198t484 200q196 198 196 482zM853 1458q310 0 524 -216t214 -522t-217 -525t-527 -219t-524 215q-214 217 -214 523t217 525t527 219z" />
    <glyph glyph-name="guillemotleft" unicode="&#xab;" horiz-adv-x="1005" 
d="M881 944l-271 -434l271 -440l-56 -27l-297 467l297 461zM449 944l-271 -434l271 -438l-56 -29l-297 467l297 461z" />
    <glyph glyph-name="registered" unicode="&#xae;" horiz-adv-x="851" 
d="M365 1094h34q74 0 108 18t34 70q0 88 -142 88h-34v-176zM324 1311h88q170 0 170 -129q0 -80 -72 -113l82 -143h-47l-74 131q-25 -4 -51 -4h-55v-127h-41v385zM426 797q133 0 224 94t91 226t-91 225q-91 94 -224 94t-224 -94t-91 -225q0 -132 91 -226t224 -94zM428 1475
q148 -1 251 -105t103 -252t-104 -254t-253 -106t-252 105t-103 253t104 253q106 106 254 106z" />
    <glyph glyph-name="macron" unicode="&#xaf;" horiz-adv-x="743" 
d="M743 1405h-743v59h743v-59z" />
    <glyph glyph-name="degree" unicode="&#xb0;" horiz-adv-x="815" 
d="M410 1612q-82 0 -138 -56t-57 -141q0 -84 56 -140q57 -56 139 -56t138 56t56 140q0 85 -56 141t-138 56zM411 1677q101 0 178 -78t77 -184t-77 -184t-181 -78t-182 78q-76 78 -76 183t79 184q81 79 182 79z" />
    <glyph glyph-name="plusminus" unicode="&#xb1;" horiz-adv-x="1327" 
d="M152 61h1024v-61h-1024v61zM1176 809v-61h-482v-420h-61v420h-481v61h481v420h61v-420h482z" />
    <glyph glyph-name="acute" unicode="&#xb4;" horiz-adv-x="321" 
d="M174 1341h-72l246 297h76z" />
    <glyph glyph-name="paragraph" unicode="&#xb6;" horiz-adv-x="1120" 
d="M915 1434v-1434h-61v481h-188q-262 0 -411 119t-149 335t154 357t406 142h249z" />
    <glyph glyph-name="periodcentered" unicode="&#xb7;" horiz-adv-x="393" 
d="M197 709q20 -1 35 -15q16 -14 16 -37t-16 -37q-37 -32 -71 1q-15 15 -15 37t15 36q16 14 36 15z" />
    <glyph glyph-name="cedilla" unicode="&#xb8;" horiz-adv-x="419" 
d="M420 -256q0 -72 -56 -125t-172 -53t-192 61l23 60q76 -59 164 -59q171 -1 171 122q0 39 -19 69q-19 29 -59 29t-87 -36l-62 16l70 172h61l-47 -113q27 21 80 21t89 -46t36 -118z" />
    <glyph glyph-name="guillemotright" unicode="&#xbb;" horiz-adv-x="1005" 
d="M909 510l-297 -467l-55 27l270 440l-270 434l55 27zM477 510l-297 -467l-55 27l270 440l-270 434l55 27z" />
    <glyph glyph-name="questiondown" unicode="&#xbf;" horiz-adv-x="1048" 
d="M106 47q0 271 293 343q78 19 168 22v383h62v-437q-461 0 -461 -311q0 -159 102 -239t285 -89q178 6 416 88l20 -57q-244 -84 -436 -90q-213 0 -331 108t-118 279zM602 1014q-25 0 -41 15t-16 39t17 41t40 17t40 -17t17 -41t-16 -39t-41 -15z" />
    <glyph glyph-name="Agrave" unicode="&#xc0;" horiz-adv-x="1495" 
d="M1116 502l-368 833l-369 -833h737zM1143 442h-791l-194 -442h-76l666 1475l665 -1475h-74zM727 1546l-225 297h71l226 -297h-72z" />
    <glyph glyph-name="Aacute" unicode="&#xc1;" horiz-adv-x="1495" 
d="M748 1335l-369 -833h737zM352 442l-194 -442h-76l666 1475l665 -1475h-74l-196 442h-791zM766 1546h-72l246 297h76z" />
    <glyph glyph-name="Acircumflex" unicode="&#xc2;" horiz-adv-x="1495" 
d="M748 1335l-369 -833h737zM352 442l-194 -442h-76l666 1475l665 -1475h-74l-196 442h-791zM1061 1546h-76l-237 240l-240 -240h-76l287 297h55z" />
    <glyph glyph-name="Atilde" unicode="&#xc3;" horiz-adv-x="1495" 
d="M748 1335l-369 -833h737zM352 442l-194 -442h-76l666 1475l665 -1475h-74l-196 442h-791zM1087 1761l43 -28q-47 -96 -74 -117q-28 -22 -42 -36t-44 -15q-30 -2 -46 -6t-61 11q-45 14 -73 24t-35 12t-18 6q-139 59 -202 49t-117 -105l-45 29q66 129 165 139t199 -45
q48 -16 94 -34q45 -17 83 -22t48 -2t38 25q26 22 39 43t48 72z" />
    <glyph glyph-name="Adieresis" unicode="&#xc4;" horiz-adv-x="1495" 
d="M748 1335l-369 -833h737zM352 442l-194 -442h-76l666 1475l665 -1475h-74l-196 442h-791zM918 1690q20 0 35 -16t15 -36t-14 -35q-16 -15 -36 -15t-36 14q-16 16 -16 36t16 36t36 16zM590 1690q20 0 36 -16t15 -36q0 -20 -15 -35q-16 -15 -36 -15t-36 14q-16 16 -15 36
q0 20 15 36q16 16 36 16z" />
    <glyph glyph-name="Aring" unicode="&#xc5;" horiz-adv-x="1495" 
d="M1116 502l-368 833l-369 -833h737zM612 1661q0 -57 41 -98t99 -41t97 41q40 41 40 98t-40 98t-97 41q-56 0 -98 -41t-42 -98zM549 1664q0 81 60 140q61 60 143 60t140 -60t58 -143q0 -84 -57 -142t-137 -61l657 -1458h-74l-196 442h-791l-194 -442h-76l657 1458
q-78 4 -134 64t-56 142z" />
    <glyph glyph-name="AE" unicode="&#xc6;" horiz-adv-x="1785" 
d="M911 502v829l-528 -829h528zM973 1374v-608h678v-59h-678v-648h735v-59h-797v442h-565l-283 -442h-73l921 1434h797v-60h-735z" />
    <glyph glyph-name="Ccedilla" unicode="&#xc7;" horiz-adv-x="1513" 
d="M846 1405q-299 0 -467 -183q-168 -182 -168 -498t170 -506t465 -189q164 1 308 77t230 197l50 -41q-98 -135 -244 -210t-311 -83l-39 -92q28 21 80 21t88 -46t36 -118t-56 -125t-172 -53t-191 61l22 59q76 -59 164 -59q172 0 172 123q0 39 -19 69q-20 29 -60 29t-87 -37
l-61 17l61 151q-170 5 -302 69t-210 170q-157 212 -155 509q0 350 190 549t506 198q176 0 332 -74t256 -214l-45 -35q-87 119 -229 191t-314 73z" />
    <glyph glyph-name="Egrave" unicode="&#xc8;" horiz-adv-x="1144" 
d="M274 768h684v-59h-684v-650h742v-59h-803v1434h803v-60h-742v-606zM659 1546h-71l-226 297h72z" />
    <glyph glyph-name="Eacute" unicode="&#xc9;" horiz-adv-x="1144" 
d="M274 1374v-606h684v-59h-684v-650h742v-59h-803v1434h803v-60h-742zM627 1546h-72l246 297h76z" />
    <glyph glyph-name="Ecircumflex" unicode="&#xca;" horiz-adv-x="1144" 
d="M274 768h684v-59h-684v-650h742v-59h-803v1434h803v-60h-742v-606zM922 1546h-76l-238 240l-239 -240h-76l287 297h55z" />
    <glyph glyph-name="Edieresis" unicode="&#xcb;" horiz-adv-x="1144" 
d="M274 768h684v-59h-684v-650h742v-59h-803v1434h803v-60h-742v-606zM778 1690q20 0 36 -16t15 -36q0 -20 -15 -35q-16 -15 -36 -15t-36 14q-16 16 -15 36q0 20 15 36q16 16 36 16zM451 1690q20 0 35 -16q16 -16 16 -36t-16 -35t-35 -15t-35 14q-16 16 -17 36q0 20 16 36
t36 16z" />
    <glyph glyph-name="Igrave" unicode="&#xcc;" horiz-adv-x="516" 
d="M227 0v1434h62v-1434h-62zM311 1546h-71l-226 297h72z" />
    <glyph glyph-name="Iacute" unicode="&#xcd;" horiz-adv-x="516" 
d="M289 0h-62v1434h62v-1434zM279 1546h-72l246 297h75z" />
    <glyph glyph-name="Icircumflex" unicode="&#xce;" horiz-adv-x="516" 
d="M227 0v1434h62v-1434h-62zM573 1546h-75l-238 240l-240 -240h-75l286 297h56z" />
    <glyph glyph-name="Idieresis" unicode="&#xcf;" horiz-adv-x="516" 
d="M227 0v1434h62v-1434h-62zM430 1690q20 0 36 -16t15 -36q0 -20 -15 -35q-16 -15 -36 -15t-36 14q-16 16 -15 36q0 20 15 36q16 16 36 16zM102 1690q20 0 36 -16t16 -36t-16 -35t-36 -15t-35 14q-15 16 -16 36t15 36t36 16z" />
    <glyph glyph-name="Eth" unicode="&#xd0;" horiz-adv-x="1447" 
d="M274 59h285q303 0 491 170q187 169 187 473t-177 488t-501 184h-285v-626h453v-60h-453v-629zM213 1434h346q355 0 547 -201t192 -533t-205 -517q-206 -183 -534 -183h-346v1434z" />
    <glyph glyph-name="Ntilde" unicode="&#xd1;" horiz-adv-x="1511" 
d="M274 0h-61v1475l1024 -1334v1293h61v-1475l-1024 1333v-1292zM1106 1761l43 -28q-46 -94 -75 -117q-28 -22 -42 -36t-44 -15q-30 -2 -41 -5t-50 7t-50 14q-55 19 -69 23t-22 8q-138 59 -202 49t-118 -105l-45 29q66 129 165 139t200 -45q40 -13 90 -32q49 -19 87 -24
t48 -2t37 25t40 43t48 72z" />
    <glyph glyph-name="Ograve" unicode="&#xd2;" horiz-adv-x="1728" 
d="M864 1405q-293 0 -473 -188q-180 -187 -180 -499t185 -500t468 -189q283 0 468 188q186 187 186 499t-180 500t-474 189zM864 1464q227 0 392 -105t244 -273t79 -369q0 -348 -205 -548t-512 -200t-510 201t-202 547q0 203 78 369t244 272q165 106 392 106zM915 1546h-71
l-226 297h72z" />
    <glyph glyph-name="Oacute" unicode="&#xd3;" horiz-adv-x="1728" 
d="M864 1405q-293 0 -473 -188q-180 -187 -180 -499t185 -500t468 -189q283 0 468 188q186 187 186 499t-180 500t-474 189zM864 1464q227 0 392 -105t244 -273t79 -369q0 -348 -205 -548t-512 -200t-510 201t-202 547q0 203 78 369t244 272q165 106 392 106zM883 1546h-72
l246 297h76z" />
    <glyph glyph-name="Ocircumflex" unicode="&#xd4;" horiz-adv-x="1728" 
d="M864 1405q-293 0 -473 -188q-180 -187 -180 -499t185 -500t468 -189q283 0 468 188q186 187 186 499t-180 500t-474 189zM864 1464q227 0 392 -105t244 -273t79 -369q0 -348 -205 -548t-512 -200t-510 201t-202 547q0 203 78 369t244 272q165 106 392 106zM1178 1546h-76
l-238 240l-239 -240h-76l287 297h55z" />
    <glyph glyph-name="Otilde" unicode="&#xd5;" horiz-adv-x="1728" 
d="M864 1405q-293 0 -473 -188q-180 -187 -180 -499t185 -500t468 -189q283 0 468 188q186 187 186 499t-180 500t-474 189zM864 1464q227 0 392 -105t244 -273t79 -369q0 -348 -205 -548t-512 -200t-510 201t-202 547q0 203 78 369t244 272q165 106 392 106zM1204 1761
l43 -28q-46 -94 -75 -117q-28 -22 -42 -36t-44 -15q-30 -2 -40 -5t-50 7t-75 23t-47 15q-11 2 -20 7q-138 59 -202 49t-117 -105l-46 29q66 129 165 139t200 -45q23 -8 82 -29q58 -22 96 -27t47 -2q10 3 37 25t40 43t48 72z" />
    <glyph glyph-name="Odieresis" unicode="&#xd6;" horiz-adv-x="1728" 
d="M864 1405q-293 0 -473 -188q-180 -187 -180 -499t185 -500t468 -189q283 0 468 188q186 187 186 499t-180 500t-474 189zM864 1464q227 0 392 -105t244 -273t79 -369q0 -348 -205 -548t-512 -200t-510 201t-202 547q0 203 78 369t244 272q165 106 392 106zM1034 1690
q20 0 36 -16t15 -36q0 -20 -14 -35t-37 -15t-37 14q-14 16 -14 36t15 36q16 16 36 16zM707 1690q20 0 35 -16q16 -16 16 -36t-14 -35t-38 -15q-22 0 -36 14q-14 16 -15 36q0 20 16 36t36 16z" />
    <glyph glyph-name="multiply" unicode="&#xd7;" horiz-adv-x="1298" 
d="M193 209l870 870l43 -43l-870 -870z" />
    <glyph glyph-name="Oslash" unicode="&#xd8;" horiz-adv-x="1675" 
d="M864 29q283 0 468 188t186 500q0 245 -118 422q-56 84 -136 143l-799 -1124q168 -129 399 -129zM866 1405q-196 0 -343 -85q-148 -85 -230 -242t-82 -361q0 -327 209 -522l794 1120q-152 90 -348 90zM1579 724q0 -180 -56 -324q-106 -271 -382 -381q-129 -50 -277 -50
q-254 0 -438 135l-190 -268h-72l217 305q-231 207 -231 576q0 203 78 369t244 272q165 106 389 106t388 -100l193 270h71l-215 -303q137 -100 209 -263t72 -344z" />
    <glyph glyph-name="Ugrave" unicode="&#xd9;" horiz-adv-x="1548" 
d="M1358 1434v-813q0 -313 -146 -483t-439 -169q-292 0 -437 168t-146 481v816h62v-799q0 -291 130 -449t392 -158t392 158q130 156 130 449v799h62zM825 1546h-71l-226 297h72z" />
    <glyph glyph-name="Uacute" unicode="&#xda;" horiz-adv-x="1548" 
d="M1358 1434v-813q0 -313 -146 -483t-439 -169q-292 0 -437 168t-146 481v816h62v-799q0 -291 130 -449t392 -158t392 158q130 156 130 449v799h62zM793 1546h-72l246 297h75z" />
    <glyph glyph-name="Ucircumflex" unicode="&#xdb;" horiz-adv-x="1548" 
d="M1358 1434v-813q0 -313 -146 -483t-439 -169q-292 0 -437 168t-146 481v816h62v-799q0 -291 130 -449t392 -158t392 158q130 156 130 449v799h62zM1087 1546h-75l-238 240l-239 -240h-76l286 297h56z" />
    <glyph glyph-name="Udieresis" unicode="&#xdc;" horiz-adv-x="1548" 
d="M1358 1434v-813q0 -313 -146 -483t-439 -169q-292 0 -437 168t-146 481v816h62v-799q0 -291 130 -449t392 -158t392 158q130 156 130 449v799h62zM944 1690q20 0 36 -16t15 -36q0 -20 -14 -35t-37 -15t-37 14q-14 16 -14 36t15 36q16 16 36 16zM616 1690q20 0 36 -16
t16 -36t-14 -35t-38 -15q-22 0 -36 14q-14 16 -15 36t15 36t36 16z" />
    <glyph glyph-name="Yacute" unicode="&#xdd;" horiz-adv-x="1232" 
d="M647 0h-61v606l-533 828h76l487 -754l488 754h76l-533 -828v-606zM635 1546h-72l246 297h76z" />
    <glyph glyph-name="Thorn" unicode="&#xde;" 
d="M184 301h224q463 0 462 401q0 209 -137 321t-448 112h-101v-834zM184 1194h144q307 0 455 -131q149 -131 149 -361t-138 -346q-138 -115 -376 -114h-234v-242h-61v1434h61v-240z" />
    <glyph glyph-name="germandbls" unicode="&#xdf;" horiz-adv-x="1206" 
d="M190 0v1020q0 161 68 288q37 70 113 108t182 38q180 0 272 -93q93 -93 93 -235t-62 -219q-62 -78 -137 -102q93 -8 216 -82q65 -39 107 -112t41 -158q0 -168 -113 -300q-58 -69 -169 -111t-258 -42v59q247 0 363 115t116 272q0 115 -85 192q-150 135 -394 126v55
q44 1 102 19q59 18 100 46t76 88t35 142q2 135 -78 208t-225 73q-301 0 -301 -377v-1018h-62z" />
    <glyph glyph-name="agrave" unicode="&#xe0;" 
d="M490 616q-170 0 -247 -78t-77 -214q0 -86 38 -155t106 -107t136 -38q237 2 379 169v364q-165 59 -335 59zM606 1051q170 0 224 -84t55 -248v-719h-60v117q-55 -59 -157 -105t-201 -47q-174 1 -268 105q-95 104 -95 248t83 251t271 107q189 0 367 -58v123q0 131 -45 191
t-159 59q-191 0 -392 -84l-20 58q227 86 397 86zM598 1341h-72l-225 297h72z" />
    <glyph glyph-name="aacute" unicode="&#xe1;" 
d="M490 616q-170 0 -247 -78t-77 -214q0 -86 38 -155t106 -107t136 -38q237 2 379 169v364q-165 59 -335 59zM606 1051q170 0 224 -84t55 -248v-719h-60v117q-55 -59 -157 -105t-201 -47q-174 1 -268 105q-95 104 -95 248t83 251t271 107q189 0 367 -58v123q0 131 -45 191
t-159 59q-191 0 -392 -84l-20 58q227 86 397 86zM565 1341h-71l245 297h76z" />
    <glyph glyph-name="acircumflex" unicode="&#xe2;" 
d="M490 616q-170 0 -247 -78t-77 -214q0 -86 38 -155t106 -107t136 -38q237 2 379 169v364q-165 59 -335 59zM606 1051q170 0 224 -84t55 -248v-719h-60v117q-55 -59 -157 -105t-201 -47q-174 1 -268 105q-95 104 -95 248t83 251t271 107q189 0 367 -58v123q0 131 -45 191
t-159 59q-191 0 -392 -84l-20 58q227 86 397 86zM307 1341h-76l287 297h55l287 -297h-76l-237 240z" />
    <glyph glyph-name="atilde" unicode="&#xe3;" 
d="M490 616q-170 0 -247 -78t-77 -214q0 -86 38 -155t106 -107t136 -38q237 2 379 169v364q-165 59 -335 59zM606 1051q170 0 224 -84t55 -248v-719h-60v117q-55 -59 -157 -105t-201 -47q-174 1 -268 105q-95 104 -95 248t83 251t271 107q189 0 367 -58v123q0 131 -45 191
t-159 59q-191 0 -392 -84l-20 58q227 86 397 86zM887 1556l43 -28q-46 -94 -75 -117q-28 -21 -42 -35t-44 -16t-41 -5t-50 7t-50 14q-55 20 -69 23q-14 4 -22 8q-139 59 -203 49t-117 -104l-45 28q66 129 163 139t220 -51q171 -63 207 -52q10 3 37 25t40 43t48 72z" />
    <glyph glyph-name="adieresis" unicode="&#xe4;" 
d="M490 616q-170 0 -247 -78t-77 -214q0 -86 38 -155t106 -107t136 -38q237 2 379 169v364q-165 59 -335 59zM606 1051q170 0 224 -84t55 -248v-719h-60v117q-55 -59 -157 -105t-201 -47q-174 1 -268 105q-95 104 -95 248t83 251t271 107q189 0 367 -58v123q0 131 -45 191
t-159 59q-191 0 -392 -84l-20 58q227 86 397 86zM717 1485q19 1 35 -15t16 -36t-15 -36t-35 -16t-36 16t-16 36t16 36t35 15zM389 1485q19 1 35 -15t16 -36t-15 -36t-35 -16t-36 16t-16 36t16 36t35 15z" />
    <glyph glyph-name="aring" unicode="&#xe5;" 
d="M490 616q-170 0 -247 -78t-77 -214q0 -86 38 -155t106 -107t136 -38q237 2 379 169v364q-165 59 -335 59zM606 1051q170 0 224 -84t55 -248v-719h-60v117q-55 -59 -157 -105t-201 -47q-174 1 -268 105q-95 104 -95 248t83 251t271 107q189 0 367 -58v123q0 131 -45 191
t-159 59q-191 0 -392 -84l-20 58q227 86 397 86zM551 1595q-57 0 -98 -41t-41 -98t41 -98t98 -41t97 41t40 98t-40 98t-97 41zM551 1659q82 1 140 -59q59 -60 59 -144t-58 -143t-141 -59q-82 0 -142 60q-61 60 -61 143t60 143t143 59z" />
    <glyph glyph-name="ae" unicode="&#xe6;" horiz-adv-x="1923" 
d="M844 506v49q-184 61 -372 61t-255 -137q-33 -65 -33 -153t38 -157t107 -107t169 -38t208 54q108 53 185 176q-47 115 -47 252zM1325 987q-123 0 -219 -58t-150 -167t-51 -250h834q-1 215 -107 345t-307 130zM1800 453h-893q14 -191 131 -311t320 -119q70 0 165 29t158 81
l29 -59q-70 -49 -166 -80t-186 -31q-301 0 -436 232q-102 -129 -208 -179t-229 -51q-174 1 -268 105t-94 249t83 251t271 106t367 -55q-7 281 -86 340q-41 31 -119 30q-190 0 -391 -84l-21 58q227 86 414 86q131 0 189 -71t69 -200q61 127 173 197t253 70q475 0 475 -594z
" />
    <glyph glyph-name="ccedilla" unicode="&#xe7;" horiz-adv-x="1101" 
d="M721 -260q0 98 -84 98q-35 0 -82 -37l-61 17l61 149q-217 25 -327 167t-110 392t132 394q131 144 391 145q96 0 205 -37t166 -94l-27 -55q-147 127 -354 127t-329 -123t-122 -369t122 -369t329 -123t354 128l27 -56q-57 -57 -166 -94t-205 -37h-27l-36 -86q28 21 80 21
t88 -46t36 -118t-56 -125t-172 -53t-192 61l23 59q76 -59 164 -59q172 0 172 123z" />
    <glyph glyph-name="egrave" unicode="&#xe8;" horiz-adv-x="1183" 
d="M1006 512q-9 475 -406 475q-129 0 -225 -59q-97 -59 -147 -167t-48 -249h826zM1075 453h-893q14 -191 130 -311t321 -119q168 0 323 110l29 -59q-70 -49 -166 -80t-186 -31q-256 0 -385 159q-129 160 -129 396t135 382t346 147q475 0 475 -594zM651 1341h-71l-226 297h72
z" />
    <glyph glyph-name="eacute" unicode="&#xe9;" horiz-adv-x="1183" 
d="M1006 512q-9 475 -406 475q-129 0 -225 -59q-97 -59 -147 -167t-48 -249h826zM1075 453h-893q14 -191 130 -311t321 -119q168 0 323 110l29 -59q-70 -49 -166 -80t-186 -31q-256 0 -385 159q-129 160 -129 396t135 382t346 147q475 0 475 -594zM618 1341h-71l246 297h75z
" />
    <glyph glyph-name="ecircumflex" unicode="&#xea;" horiz-adv-x="1183" 
d="M1006 512q-9 475 -406 475q-129 0 -225 -59q-97 -59 -147 -167t-48 -249h826zM1075 453h-893q14 -191 130 -311t321 -119q168 0 323 110l29 -59q-70 -49 -166 -80t-186 -31q-256 0 -385 159q-129 160 -129 396t135 382t346 147q475 0 475 -594zM913 1341h-75l-238 240
l-240 -240h-75l286 297h56z" />
    <glyph glyph-name="edieresis" unicode="&#xeb;" horiz-adv-x="1183" 
d="M1006 512q-9 475 -406 475q-129 0 -225 -59q-97 -59 -147 -167t-48 -249h826zM1075 453h-893q14 -191 130 -311t321 -119q168 0 323 110l29 -59q-70 -49 -166 -80t-186 -31q-256 0 -385 159q-129 160 -129 396t135 382t346 147q475 0 475 -594zM770 1485q20 1 36 -15
t15 -36q0 -20 -15 -36q-16 -16 -36 -16t-36 16t-15 36q-1 20 15 36t36 15zM442 1485q20 1 36 -15t16 -36t-16 -36t-36 -16t-35 16t-15 36t14 36q16 16 36 15z" />
    <glyph glyph-name="igrave" unicode="&#xec;" horiz-adv-x="446" 
d="M193 0v1024h61v-1024h-61zM274 1341h-71l-226 297h72z" />
    <glyph glyph-name="iacute" unicode="&#xed;" horiz-adv-x="446" 
d="M193 0v1024h61v-1024h-61zM242 1341h-72l246 297h76z" />
    <glyph glyph-name="icircumflex" unicode="&#xee;" horiz-adv-x="446" 
d="M193 0v1024h61v-1024h-61zM537 1341h-76l-238 240l-239 -240h-76l287 297h55z" />
    <glyph glyph-name="idieresis" unicode="&#xef;" horiz-adv-x="446" 
d="M193 0v1024h61v-1024h-61zM393 1485q19 1 35 -15t16 -36t-15 -36t-35 -16t-36 16t-16 36t16 36t35 15zM66 1485q20 1 35 -15t15 -36t-14 -36q-16 -16 -36 -16t-36 16t-16 36t16 36t36 15z" />
    <glyph glyph-name="eth" unicode="&#xf0;" horiz-adv-x="1228" 
d="M590 23q204 0 324 131t120 368q0 117 -41 209q-74 166 -247 228q-75 28 -152 28q-199 0 -320 -129q-120 -129 -120 -350t116 -353t320 -132zM593 -37q-241 1 -371 149t-130 394q0 328 227 471q113 70 275 70q211 0 367 -148q-57 182 -193 340l-334 -90l-14 59l303 82
q-88 88 -180 144l32 53q117 -66 218 -178l192 51l14 -60l-163 -43q118 -153 188 -347t72 -388q0 -260 -131 -410t-372 -149z" />
    <glyph glyph-name="ntilde" unicode="&#xf1;" horiz-adv-x="1138" 
d="M252 1024v-133q66 70 165 115t201 45q170 1 260 -103t91 -270v-678h-62v678q0 112 -47 188q-86 139 -282 123q-86 -6 -174 -50t-152 -114v-825h-62v1024h62zM899 1556l43 -28q-46 -94 -75 -117q-28 -21 -42 -35t-44 -16t-41 -5q-24 -7 -92 18t-79 27t-20 7
q-139 59 -203 49t-117 -104l-45 28q66 129 163 139t220 -51q171 -63 207 -52q10 3 37 25t40 43t48 72z" />
    <glyph glyph-name="ograve" unicode="&#xf2;" horiz-adv-x="1234" 
d="M617 987q-207 0 -323 -130t-116 -351t116 -352t324 -131t323 131q116 131 116 351t-116 351t-324 131zM117 511q0 251 137 393q136 142 370 143t364 -147t130 -394t-130 -394t-371 -148t-371 148t-129 399zM670 1341h-72l-225 297h71z" />
    <glyph glyph-name="oacute" unicode="&#xf3;" horiz-adv-x="1234" 
d="M617 987q-207 0 -323 -130t-116 -351t116 -352t324 -131t323 131q116 131 116 351t-116 351t-324 131zM117 511q0 251 137 393q136 142 370 143t364 -147t130 -394t-130 -394t-371 -148t-371 148t-129 399zM637 1341h-72l246 297h76z" />
    <glyph glyph-name="ocircumflex" unicode="&#xf4;" horiz-adv-x="1234" 
d="M617 987q-207 0 -323 -130t-116 -351t116 -352t324 -131t323 131q116 131 116 351t-116 351t-324 131zM117 511q0 251 137 393q136 142 370 143t364 -147t130 -394t-130 -394t-371 -148t-371 148t-129 399zM932 1341h-76l-238 240l-239 -240h-76l287 297h55z" />
    <glyph glyph-name="otilde" unicode="&#xf5;" horiz-adv-x="1234" 
d="M617 987q-207 0 -323 -130t-116 -351t116 -352t324 -131t323 131q116 131 116 351t-116 351t-324 131zM117 511q0 251 137 393q136 142 370 143t364 -147t130 -394t-130 -394t-371 -148t-371 148t-129 399zM958 1556l43 -28q-47 -96 -74 -117q-28 -21 -42 -35t-44 -16
t-46 -6t-61 11q-46 15 -74 25t-36 11q-9 2 -16 6q-139 59 -202 49t-117 -104l-45 28q66 130 165 140t199 -45q12 -4 74 -27t102 -29t50 -3t36 25t40 43q13 21 48 72z" />
    <glyph glyph-name="odieresis" unicode="&#xf6;" horiz-adv-x="1234" 
d="M617 987q-207 0 -323 -130t-116 -351t116 -352t324 -131t323 131q116 131 116 351t-116 351t-324 131zM117 511q0 251 137 393q136 142 370 143t364 -147t130 -394t-130 -394t-371 -148t-371 148t-129 399zM788 1485q20 1 36 -15t16 -36t-14 -36t-38 -16q-22 0 -36 16
t-14 36t14 36q16 16 36 15zM461 1485q19 1 35 -15t16 -36t-14 -36t-37 -16t-37 16t-14 36t16 36t35 15z" />
    <glyph glyph-name="divide" unicode="&#xf7;" horiz-adv-x="1310" 
d="M657 254q23 0 40 -17t17 -40t-16 -40q-18 -17 -41 -17t-40 16q-17 18 -17 41t17 40t40 17zM1167 604h-1024v60h1024v-60zM657 1133q23 1 40 -17t17 -41t-16 -40q-18 -17 -41 -17t-40 17t-17 40t17 41t40 17z" />
    <glyph glyph-name="oslash" unicode="&#xf8;" horiz-adv-x="1228" 
d="M1053 506q0 278 -176 405l-451 -854q84 -35 188 -34q207 0 323 131t116 352zM614 987q-208 0 -324 -130t-116 -351q0 -145 52 -254t147 -168l454 856q-92 47 -213 47zM113 506q0 256 137 398t364 143q137 0 242 -52l96 181h66l-111 -209q133 -88 184 -272q24 -87 23 -189
q0 -246 -130 -394t-370 -149q-121 0 -219 41l-94 -180h-65l108 205q-113 65 -172 189t-59 288z" />
    <glyph glyph-name="ugrave" unicode="&#xf9;" horiz-adv-x="1136" 
d="M944 1024v-1024h-61v135q-63 -70 -163 -116t-206 -48q-168 3 -258 105t-86 268v680h61v-680q1 -112 47 -188q85 -139 283 -123q86 6 173 50t149 118q0 6 -2 10v813h63zM549 1341l-225 297h71l226 -297h-72z" />
    <glyph glyph-name="uacute" unicode="&#xfa;" horiz-adv-x="1136" 
d="M944 0h-61v135q-63 -70 -163 -116t-206 -48q-168 3 -258 105t-86 268v680h61v-680q1 -112 47 -188q85 -139 283 -123q86 6 173 50t149 118q0 6 -2 10v813h63v-1024zM588 1341h-72l246 297h76z" />
    <glyph glyph-name="ucircumflex" unicode="&#xfb;" horiz-adv-x="1136" 
d="M944 0h-61v135q-63 -70 -163 -116t-206 -48q-168 3 -258 105t-86 268v680h61v-680q1 -112 47 -188q85 -139 283 -123q86 6 173 50t149 118q0 6 -2 10v813h63v-1024zM883 1341h-76l-238 240l-239 -240h-76l287 297h55z" />
    <glyph glyph-name="udieresis" unicode="&#xfc;" horiz-adv-x="1136" 
d="M944 1024v-1024h-61v135q-63 -70 -163 -116t-206 -48q-168 3 -258 105t-86 268v680h61v-680q1 -112 47 -188q85 -139 283 -123q86 6 173 50t149 118q0 6 -2 10v813h63zM739 1382q-23 0 -37 16t-14 36t15 35t35 15t36 -14q16 -16 16 -36t-14 -36t-37 -16zM412 1382
q-23 0 -37 16q-15 16 -15 36t16 35t36 15t35 -14q15 -16 15 -36t-13 -36q-14 -16 -37 -16z" />
    <glyph glyph-name="yacute" unicode="&#xfd;" horiz-adv-x="1107" 
d="M1024 1024l-473 -1120q-55 -135 -91 -203t-89 -113t-119 -41t-168 43l27 68q101 -45 140 -40t61 9t48 35t39 50q14 18 40 76t39 93t46 119l-387 1024h76l348 -938l387 938h76zM604 1341h-72l246 297h76z" />
    <glyph glyph-name="thorn" unicode="&#xfe;" horiz-adv-x="1150" 
d="M580 37q174 0 280 122q106 121 106 359t-107 361q-108 123 -266 123t-260 -90q-50 -44 -81 -105v-571q49 -88 137 -144t191 -55zM252 1495v-584q141 150 344 150q204 0 318 -150q114 -151 114 -393t-116 -392t-317 -149q-201 0 -343 156v-543h-62v1905h62z" />
    <glyph glyph-name="ydieresis" unicode="&#xff;" horiz-adv-x="1107" 
d="M1024 1024l-473 -1120q-55 -135 -91 -203t-89 -113t-119 -41t-168 43l27 68q101 -45 140 -40t61 9t48 35t39 50q14 18 40 76t39 93t46 119l-387 1024h76l348 -938l387 938h76zM756 1485q20 1 36 -15t15 -36q0 -20 -14 -36t-37 -16t-37 16t-14 36q-1 20 15 36t36 15z
M428 1485q20 1 36 -15t15 -36q0 -20 -14 -36t-37 -16t-37 16t-14 36q-1 20 15 36t36 15z" />
    <glyph glyph-name="Amacron" unicode="&#x100;" horiz-adv-x="1495" 
d="M1116 502l-368 833l-369 -833h737zM1143 442h-791l-194 -442h-76l666 1475l665 -1475h-74zM1116 1610h-743v59h743v-59z" />
    <glyph glyph-name="amacron" unicode="&#x101;" 
d="M490 616q-170 0 -247 -78t-77 -214q0 -86 38 -155t106 -107t136 -38q237 2 379 169v364q-165 59 -335 59zM606 1051q170 0 224 -84t55 -248v-719h-60v117q-55 -59 -157 -105t-201 -47q-174 1 -268 105q-95 104 -95 248t83 251t271 107q189 0 367 -58v123q0 131 -45 191
t-159 59q-191 0 -392 -84l-20 58q227 86 397 86zM915 1405h-743v59h743v-59z" />
    <glyph glyph-name="Abreve" unicode="&#x102;" horiz-adv-x="1495" 
d="M748 1335l-369 -833h737zM352 442l-194 -442h-76l666 1475l665 -1475h-74l-196 442h-791zM928 1843h61q0 -111 -61 -179t-179 -69q-118 0 -179 70q-60 70 -60 178h61q0 -86 45 -137q46 -51 132 -51t133 51t47 137z" />
    <glyph glyph-name="abreve" unicode="&#x103;" 
d="M490 616q-170 0 -247 -78t-77 -214q0 -86 38 -155t106 -107t136 -38q237 2 379 169v364q-165 59 -335 59zM606 1051q170 0 224 -84t55 -248v-719h-60v117q-55 -59 -157 -105t-201 -47q-174 1 -268 105q-95 104 -95 248t83 251t271 107q189 0 367 -58v123q0 131 -45 191
t-159 59q-191 0 -392 -84l-20 58q227 86 397 86zM727 1638h61q0 -112 -61 -180t-179 -68t-178 70t-61 178h62q0 -86 45 -137t131 -51t133 51t47 137z" />
    <glyph glyph-name="Aogonek" unicode="&#x104;" horiz-adv-x="1495" 
d="M1116 502l-368 833l-369 -833h737zM1407 -430q-82 0 -133 47t-51 133t59 165q20 28 70 85h-13l-196 442h-791l-194 -442h-76l666 1475l665 -1475q-43 -51 -65 -81q-64 -90 -64 -160t38 -100t87 -30t86 32t51 73l41 -41q-51 -123 -180 -123z" />
    <glyph glyph-name="aogonek" unicode="&#x105;" 
d="M490 616q-170 0 -247 -78t-77 -214q0 -86 38 -155t106 -107t136 -38q237 2 379 169v364q-165 59 -335 59zM879 -430q-82 0 -134 47q-51 47 -51 131q0 47 20 93q19 46 40 74q20 28 69 85h2v117q-55 -59 -157 -105t-201 -47q-174 1 -268 105q-95 104 -95 248t83 251
t271 107q189 0 367 -58v123q0 131 -45 191t-159 59q-190 0 -392 -84l-20 58q227 86 397 86t224 -84t55 -248v-719q-43 -51 -65 -81q-66 -90 -65 -160t39 -100t87 -30t86 32t51 73l41 -41q-51 -123 -180 -123z" />
    <glyph glyph-name="Cacute" unicode="&#x106;" horiz-adv-x="1513" 
d="M843 -31q-175 -1 -313 61t-218 168q-164 216 -162 519q0 350 190 549t506 198q176 0 332 -74t256 -214l-45 -35q-87 119 -229 191t-314 73q-299 0 -467 -183q-168 -182 -168 -498t170 -506t465 -189q164 1 308 77t230 197l50 -41q-102 -141 -259 -217t-332 -76zM864 1546
h-71l245 297h76z" />
    <glyph glyph-name="cacute" unicode="&#x107;" horiz-adv-x="1101" 
d="M641 -37q-260 1 -391 145t-131 406t131 406t391 145q96 0 205 -37t166 -94l-27 -55q-147 127 -354 127t-329 -123t-122 -369t122 -369t329 -123t354 128l27 -56q-57 -57 -166 -94t-205 -37zM604 1341h-72l246 297h76z" />
    <glyph glyph-name="Cdotaccent" unicode="&#x10a;" horiz-adv-x="1513" 
d="M843 -31q-175 -1 -313 61t-218 168q-164 216 -162 519q0 350 190 549t506 198q176 0 332 -74t256 -214l-45 -35q-87 119 -229 191t-314 73q-299 0 -467 -183q-168 -182 -168 -498t170 -506t465 -189q164 1 308 77t230 197l50 -41q-102 -141 -259 -217t-332 -76zM848 1690
q20 0 36 -16t15 -36q0 -20 -15 -35q-16 -15 -36 -15t-36 14q-16 16 -15 36q0 20 15 36q16 16 36 16z" />
    <glyph glyph-name="cdotaccent" unicode="&#x10b;" horiz-adv-x="1101" 
d="M641 -37q-260 1 -391 145t-131 406t131 406t391 145q96 0 205 -37t166 -94l-27 -55q-147 127 -354 127t-329 -123t-122 -369t122 -369t329 -123t354 128l27 -56q-57 -57 -166 -94t-205 -37zM588 1485q20 1 36 -15t15 -36q0 -20 -14 -36t-37 -16t-37 16t-14 36
q-1 20 15 36t36 15z" />
    <glyph glyph-name="Ccaron" unicode="&#x10c;" horiz-adv-x="1513" 
d="M843 -31q-175 -1 -313 61t-218 168q-164 216 -162 519q0 350 190 549t506 198q176 0 332 -74t256 -214l-45 -35q-87 119 -229 191t-314 73q-299 0 -467 -183q-168 -182 -168 -498t170 -506t465 -189q164 1 308 77t230 197l50 -41q-102 -141 -259 -217t-332 -76zM879 1546
h-56l-286 297h75l240 -239l238 239h75z" />
    <glyph glyph-name="ccaron" unicode="&#x10d;" horiz-adv-x="1101" 
d="M641 -37q-260 1 -391 145t-131 406t131 406t391 145q96 0 205 -37t166 -94l-27 -55q-147 127 -354 127t-329 -123t-122 -369t122 -369t329 -123t354 128l27 -56q-57 -57 -166 -94t-205 -37zM618 1341h-55l-287 297h76l240 -239l237 239h76z" />
    <glyph glyph-name="Dcaron" unicode="&#x10e;" horiz-adv-x="1447" 
d="M274 59h285q303 0 491 170q187 169 187 473t-177 488t-501 184h-285v-1315zM213 1434h346q355 0 547 -201t192 -533t-205 -517q-206 -183 -534 -183h-346v1434zM651 1546l-286 297h75l240 -239l238 239h75l-286 -297h-56z" />
    <glyph glyph-name="dcaron" unicode="&#x10f;" horiz-adv-x="1339" 
d="M571 987q-178 0 -282 -126q-105 -126 -105 -355t106 -356t281 -127q97 0 189 55t139 129v596q-51 78 -139 131t-189 53zM1094 1377q0 22 17 39q17 18 41 18t40 -18t16 -44q0 -27 -78 -196h-26l37 145q-18 2 -33 18q-14 16 -14 38zM961 0h-62v113q-141 -150 -344 -150
t-317 150q-114 151 -115 393q0 242 116 392t317 149q201 0 343 -156v584h62v-1475z" />
    <glyph glyph-name="Dcroat" unicode="&#x110;" horiz-adv-x="1447" 
d="M274 59h285q303 0 491 170q187 169 187 473t-177 488t-501 184h-285v-612h388v-60h-388v-643zM213 1434h346q355 0 547 -201t192 -533t-205 -517q-206 -183 -534 -183h-346v702h-295v60h295v672z" />
    <glyph glyph-name="dcroat" unicode="&#x111;" horiz-adv-x="1150" 
d="M571 987q-178 0 -282 -126q-105 -126 -105 -355t106 -356t281 -127q97 0 189 55t139 129v596q-51 78 -139 131t-189 53zM1217 1192h-256v-1192h-62v113q-141 -150 -344 -150t-317 150q-114 151 -115 393q0 242 116 392t317 149q201 0 343 -156v301h-426v59h426v224h62
v-224h256v-59z" />
    <glyph glyph-name="Emacron" unicode="&#x112;" horiz-adv-x="1144" 
d="M274 768h684v-59h-684v-650h742v-59h-803v1434h803v-60h-742v-606zM977 1610h-744v59h744v-59z" />
    <glyph glyph-name="emacron" unicode="&#x113;" horiz-adv-x="1183" 
d="M1006 512q-9 475 -406 475q-129 0 -225 -59q-97 -59 -147 -167t-48 -249h826zM1075 453h-893q14 -191 130 -311t321 -119q168 0 323 110l29 -59q-70 -49 -166 -80t-186 -31q-256 0 -385 159q-129 160 -129 396t135 382t346 147q475 0 475 -594zM969 1405h-744v59h744v-59
z" />
    <glyph glyph-name="Edotaccent" unicode="&#x116;" horiz-adv-x="1144" 
d="M274 768h684v-59h-684v-650h742v-59h-803v1434h803v-60h-742v-606zM610 1690q20 0 36 -16t16 -36t-16 -35t-36 -15t-36 14q-16 16 -15 36q0 20 15 36q16 16 36 16z" />
    <glyph glyph-name="edotaccent" unicode="&#x117;" horiz-adv-x="1183" 
d="M1006 512q-9 475 -406 475q-129 0 -225 -59q-97 -59 -147 -167t-48 -249h826zM1075 453h-893q14 -191 130 -311t321 -119q168 0 323 110l29 -59q-70 -49 -166 -80t-186 -31q-256 0 -385 159q-129 160 -129 396t135 382t346 147q475 0 475 -594zM602 1485q20 1 36 -15
t15 -36q0 -20 -15 -36q-16 -16 -36 -16t-36 16t-15 36q-1 20 15 36t36 15z" />
    <glyph glyph-name="Eogonek" unicode="&#x118;" horiz-adv-x="1144" 
d="M1010 -430q-82 0 -133 47t-51 113q-1 105 59 185q20 28 69 85h-741v1434h803v-60h-742v-606h684v-59h-684v-650h742v-59q-43 -51 -65 -81q-66 -90 -65 -160t39 -100t87 -30t86 32t51 73l41 -41q-51 -123 -180 -123z" />
    <glyph glyph-name="eogonek" unicode="&#x119;" horiz-adv-x="1183" 
d="M605 987q-201 0 -315 -131t-110 -344h826q-2 221 -100 348t-301 127zM979 -356q-82 0 -133 47t-51 134t79 189q-125 -51 -241 -51q-256 0 -385 159q-129 160 -129 396t135 382t346 147q475 0 475 -594h-893q14 -191 130 -311t321 -119q168 0 323 110l29 -59
q-43 -51 -65 -81q-64 -90 -64 -160t38 -100t87 -30q49 -1 86 31t51 73l41 -40q-53 -123 -180 -123z" />
    <glyph glyph-name="Ecaron" unicode="&#x11a;" horiz-adv-x="1144" 
d="M274 768h684v-59h-684v-650h742v-59h-803v1434h803v-60h-742v-606zM641 1546h-55l-287 297h76l239 -239l238 239h76z" />
    <glyph glyph-name="ecaron" unicode="&#x11b;" horiz-adv-x="1183" 
d="M1006 512q-9 475 -406 475q-129 0 -225 -59q-97 -59 -147 -167t-48 -249h826zM1075 453h-893q14 -191 130 -311t321 -119q168 0 323 110l29 -59q-70 -49 -166 -80t-186 -31q-256 0 -385 159q-129 160 -129 396t135 382t346 147q475 0 475 -594zM633 1341h-55l-287 297h76
l239 -239l238 239h76z" />
    <glyph glyph-name="Gbreve" unicode="&#x11e;" horiz-adv-x="1611" 
d="M1434 748v-486q-213 -293 -590 -293q-219 0 -380 108q-161 109 -238 275t-76 365q0 342 201 545q202 203 493 202q383 0 590 -288l-50 -37q-80 121 -220 193t-320 73q-274 0 -454 -185q-180 -184 -179 -500q0 -316 183 -504t450 -187q344 0 528 254v405h-487v60h549z
M1024 1843h61q0 -111 -61 -179t-179 -69q-118 0 -178 70t-61 178h62q0 -86 45 -137t131 -51t133 51t47 137z" />
    <glyph glyph-name="gbreve" unicode="&#x11f;" horiz-adv-x="1150" 
d="M571 37q101 0 189 53t139 131v596q-68 104 -196 157q-67 28 -132 27q-176 0 -281 -128q-106 -128 -106 -356t104 -354t283 -126zM961 1024v-950q0 -317 -57 -410t-160 -116q-60 -13 -160 -13t-223 38q-122 38 -181 93l31 58q163 -130 371 -130t262 88t55 318v133
q-141 -156 -343 -156t-318 150q-116 151 -115 393q0 242 115 392t317 149q202 0 344 -150v113h62zM752 1638h61q0 -112 -61 -180q-62 -68 -180 -68t-178 70t-60 178h61q0 -86 45 -137t131 -51t134 51q47 51 47 137z" />
    <glyph glyph-name="Gdotaccent" unicode="&#x120;" horiz-adv-x="1611" 
d="M1434 748v-486q-213 -293 -590 -293q-219 0 -380 108q-161 109 -238 275t-76 365q0 342 201 545q202 203 493 202q383 0 590 -288l-50 -37q-80 121 -220 193t-320 73q-274 0 -454 -185q-180 -184 -179 -500q0 -316 183 -504t450 -187q344 0 528 254v405h-487v60h549z
M846 1690q20 0 36 -16t15 -36q0 -20 -14 -35t-37 -15t-37 14q-14 16 -14 36t15 36q16 16 36 16z" />
    <glyph glyph-name="gdotaccent" unicode="&#x121;" horiz-adv-x="1150" 
d="M571 37q101 0 189 53t139 131v596q-68 104 -196 157q-67 28 -132 27q-176 0 -281 -128q-106 -128 -106 -356t104 -354t283 -126zM961 1024v-950q0 -317 -57 -410t-160 -116q-60 -13 -160 -13t-223 38q-122 38 -181 93l31 58q163 -130 371 -130t262 88t55 318v133
q-141 -156 -343 -156t-318 150q-116 151 -115 393q0 242 115 392t317 149q202 0 344 -150v113h62zM573 1485q19 1 35 -15t16 -36t-14 -36q-16 -16 -36 -16t-36 16t-16 36t16 36t35 15z" />
    <glyph glyph-name="Gcommaaccent" unicode="&#x122;" horiz-adv-x="1611" 
d="M850 -410q0 -63 -80 -196h-27l39 139q-18 5 -32 21t-14 38t16 38q18 18 41 18t40 -18t17 -40zM885 748h549v-486q-213 -293 -590 -293q-219 0 -380 108q-161 109 -238 275t-76 365q0 342 201 545q202 203 493 202q383 0 590 -288l-50 -37q-80 121 -220 193t-320 73
q-274 0 -454 -185q-180 -184 -179 -500q0 -316 183 -504t450 -187q344 0 528 254v405h-487v60z" />
    <glyph glyph-name="gcommaaccent" unicode="&#x123;" horiz-adv-x="1150" 
d="M571 37q101 0 189 53t139 131v596q-68 104 -196 157q-67 28 -132 27q-176 0 -281 -128q-106 -128 -106 -356t104 -354t283 -126zM961 1024v-950q0 -317 -57 -410t-160 -116q-60 -13 -160 -13t-223 38q-122 38 -181 93l31 58q163 -130 371 -130t262 88t55 318v133
q-141 -156 -343 -156t-318 150q-116 151 -115 393q0 242 115 392t317 149q202 0 344 -150v113h62zM633 1378q1 -23 -17 -40t-41 -17t-39 17q-36 37 -4 77q14 16 33 21l-39 139h27q80 -133 80 -197z" />
    <glyph glyph-name="Hbar" unicode="&#x126;" horiz-adv-x="1470" 
d="M1196 1026h-922v-278h922v278zM1475 1026h-218v-1026h-61v686h-922v-686h-61v1026h-197v59h197v349h61v-349h922v349h61v-349h218v-59z" />
    <glyph glyph-name="hbar" unicode="&#x127;" horiz-adv-x="1138" 
d="M252 1196v-305q66 70 165 115t201 45q170 1 260 -103t91 -270v-678h-62v678q0 112 -47 188q-86 139 -282 123q-86 -6 -174 -50t-152 -114v-825h-62v1196h-276v59h276v220h62v-220h405v-59h-405z" />
    <glyph glyph-name="Imacron" unicode="&#x12a;" horiz-adv-x="516" 
d="M227 0v1434h62v-1434h-62zM629 1610h-744v59h744v-59z" />
    <glyph glyph-name="imacron" unicode="&#x12b;" horiz-adv-x="446" 
d="M193 0v1024h61v-1024h-61zM592 1405h-744v59h744v-59z" />
    <glyph glyph-name="Iogonek" unicode="&#x12e;" horiz-adv-x="516" 
d="M283 -430q-82 0 -133 47q-52 47 -52 113q-1 105 60 185q20 28 69 85v1434h62v-1434q-43 -51 -65 -81q-66 -90 -65 -160t39 -100t87 -30t86 32t51 73l41 -41q-53 -123 -180 -123z" />
    <glyph glyph-name="iogonek" unicode="&#x12f;" horiz-adv-x="446" 
d="M248 -430q-82 0 -133 47t-51 113q-1 105 59 185q20 28 70 85v1024h61v-1024q-43 -51 -65 -81q-66 -90 -65 -160t39 -100t87 -30t86 32t51 73l41 -41q-51 -123 -180 -123zM225 1382q-19 0 -35 16t-16 36t15 35t35 15t36 -14q16 -16 16 -36t-16 -36t-35 -16z" />
    <glyph glyph-name="Idotaccent" unicode="&#x130;" horiz-adv-x="516" 
d="M227 0v1434h62v-1434h-62zM262 1690q20 0 36 -16t15 -36q0 -20 -15 -35q-16 -15 -36 -15t-36 14q-16 16 -15 36q0 20 15 36q16 16 36 16z" />
    <glyph glyph-name="dotlessi" unicode="&#x131;" horiz-adv-x="446" 
d="M254 0h-61v1024h61v-1024z" />
    <glyph glyph-name="IJ" unicode="&#x132;" horiz-adv-x="854" 
d="M264 0v1434h62v-1434h-62zM731 1434v-1434q0 -438 -457 -438q-82 0 -151 18l10 62q72 -20 141 -21q395 0 396 381v1432h61z" />
    <glyph glyph-name="ij" unicode="&#x133;" horiz-adv-x="989" 
d="M774 1024v-1024q0 -125 -6 -205q-12 -163 -77 -229q-64 -66 -212 -50q-68 7 -172 27v62q97 -23 161 -31q127 -16 180 36t65 213q4 65 4 177v1024h57zM213 0v1024h61v-1024h-61zM745 1434q19 0 35 -16t16 -36t-14 -34q-16 -14 -36 -14t-35 14q-14 14 -15 34q0 20 14 36
t35 16zM244 1434q20 0 36 -16t15 -36q0 -20 -15 -35t-37 -15t-36 14t-14 35t15 37q16 16 36 16z" />
    <glyph glyph-name="Kcommaaccent" unicode="&#x136;" horiz-adv-x="1288" 
d="M455 -408q0 22 17 38q17 18 40 18t40 -18t17 -40q0 -63 -80 -196h-26l39 139q-18 5 -32 21t-15 38zM274 0h-61v1434h61v-887l754 887h78l-571 -664l665 -770h-80l-624 725l-222 -258v-467z" />
    <glyph glyph-name="kcommaaccent" unicode="&#x137;" horiz-adv-x="1019" 
d="M512 -410q0 -63 -80 -196h-26l38 139q-18 5 -32 21t-14 38t16 38q18 18 41 18t40 -18t17 -40zM252 0h-62v1475h62v-1117l543 666h82l-373 -457l444 -567h-86l-401 514l-209 -256v-258z" />
    <glyph glyph-name="Lacute" unicode="&#x139;" horiz-adv-x="1087" 
d="M1010 0h-797v1434h61v-1375h736v-59zM203 1546h-72l246 297h76z" />
    <glyph glyph-name="lacute" unicode="&#x13a;" horiz-adv-x="464" 
d="M203 0v1475h59v-1475h-59zM252 1546h-72l246 297h76z" />
    <glyph glyph-name="Lcommaaccent" unicode="&#x13b;" horiz-adv-x="1087" 
d="M557 -410q0 -63 -80 -196h-26l38 139q-18 5 -32 21q-15 16 -15 38t18 38q18 18 40 18q23 0 40 -18t17 -40zM1010 0h-797v1434h61v-1375h736v-59z" />
    <glyph glyph-name="lcommaaccent" unicode="&#x13c;" horiz-adv-x="464" 
d="M176 -408q0 22 18 38q18 18 40 18t39 -18t18 -40q0 -63 -80 -196h-27l39 139q-19 5 -33 21t-14 38zM262 0h-59v1475h59v-1475z" />
    <glyph glyph-name="Lcaron" unicode="&#x13d;" horiz-adv-x="1087" 
d="M496 1351q0 22 17 39t40 17t40 -17t17 -40q0 -63 -80 -197h-26l39 139q-19 4 -33 20t-14 39zM1010 0h-797v1434h61v-1375h736v-59z" />
    <glyph glyph-name="lcaron" unicode="&#x13e;" horiz-adv-x="542" 
d="M379 1418q0 22 17 39t41 17t40 -16q17 -18 17 -45t-78 -196h-27l37 145q-18 2 -33 18q-14 16 -14 38zM203 0v1475h59v-1475h-59z" />
    <glyph glyph-name="Ldot" unicode="&#x13f;" horiz-adv-x="1087" 
d="M553 709q19 -1 35 -15t16 -37t-15 -37t-35 -14t-36 14t-16 38q0 22 16 36t35 15zM1010 0h-797v1434h61v-1375h736v-59z" />
    <glyph glyph-name="ldot" unicode="&#x140;" horiz-adv-x="589" 
d="M438 709q20 -1 36 -15t15 -37q0 -23 -15 -37q-16 -14 -36 -14t-36 14t-15 38q-1 22 15 36t36 15zM262 0h-59v1475h59v-1475z" />
    <glyph glyph-name="Lslash" unicode="&#x141;" horiz-adv-x="1200" 
d="M1122 59v-59h-796v629l-140 -62v62l140 61v744h61v-717l356 157v-61l-356 -158v-596h735z" />
    <glyph glyph-name="lslash" unicode="&#x142;" horiz-adv-x="591" 
d="M332 0h-60v725l-231 -102v59l231 102v691h60v-664l219 98v-61l-219 -96v-752z" />
    <glyph glyph-name="Nacute" unicode="&#x143;" horiz-adv-x="1511" 
d="M274 0h-61v1475l1024 -1334v1293h61v-1475l-1024 1333v-1292zM784 1546h-71l245 297h76z" />
    <glyph glyph-name="nacute" unicode="&#x144;" horiz-adv-x="1138" 
d="M252 1024v-133q66 70 165 115t201 45q170 1 260 -103t91 -270v-678h-62v678q0 112 -47 188q-86 139 -282 123q-86 -6 -174 -50t-152 -114v-825h-62v1024h62zM578 1341h-72l246 297h75z" />
    <glyph glyph-name="Ncommaaccent" unicode="&#x145;" horiz-adv-x="1511" 
d="M582 -408q0 22 17 38q17 18 40 18t40 -18t17 -40q0 -63 -80 -196h-26l39 139q-19 5 -33 21t-14 38zM274 0h-61v1475l1024 -1334v1293h61v-1475l-1024 1333v-1292z" />
    <glyph glyph-name="ncommaaccent" unicode="&#x146;" horiz-adv-x="1138" 
d="M502 -408q0 22 17 38q17 18 40 18t40 -18t17 -40q0 -63 -79 -196h-27l39 139q-19 5 -33 21t-14 38zM252 1024v-133q66 70 165 115t201 45q170 1 260 -103t91 -270v-678h-62v678q0 112 -47 188q-86 139 -282 123q-86 -6 -174 -50t-152 -114v-825h-62v1024h62z" />
    <glyph glyph-name="Ncaron" unicode="&#x147;" horiz-adv-x="1511" 
d="M274 0h-61v1475l1024 -1334v1293h61v-1475l-1024 1333v-1292zM799 1546h-56l-286 297h75l240 -239l238 239h75z" />
    <glyph glyph-name="ncaron" unicode="&#x148;" horiz-adv-x="1138" 
d="M252 1024v-133q66 70 165 115t201 45q170 1 260 -103t91 -270v-678h-62v678q0 112 -47 188q-86 139 -282 123q-86 -6 -174 -50t-152 -114v-825h-62v1024h62zM592 1341h-55l-287 297h76l239 -239l238 239h76z" />
    <glyph glyph-name="Eng" unicode="&#x14a;" horiz-adv-x="1511" 
d="M1298 1434v-1475q0 -213 -27 -288q-27 -76 -59 -105t-87 -41q-96 -21 -296 18v60q97 -19 157 -27q131 -17 184 34q52 51 63 205q4 69 4 185v39l-963 1253v-1292h-61v1475l1024 -1334v1293h61z" />
    <glyph glyph-name="eng" unicode="&#x14b;" horiz-adv-x="1138" 
d="M252 1024v-133q66 70 165 115t201 45q170 1 260 -103t91 -270v-678q0 -360 -46 -437t-280 -20v64q190 -57 227 -5t37 320v756q0 112 -47 188q-86 139 -282 123q-86 -6 -174 -50t-152 -114v-825h-62v1024h62z" />
    <glyph glyph-name="Omacron" unicode="&#x14c;" horiz-adv-x="1728" 
d="M864 1405q-293 0 -473 -188q-180 -187 -180 -499t185 -500t468 -189q283 0 468 188q186 187 186 499t-180 500t-474 189zM864 1464q227 0 392 -105t244 -273t79 -369q0 -348 -205 -548t-512 -200t-510 201t-202 547q0 203 78 369t244 272q165 106 392 106zM1233 1610
h-744v59h744v-59z" />
    <glyph glyph-name="omacron" unicode="&#x14d;" horiz-adv-x="1234" 
d="M617 987q-207 0 -323 -130t-116 -351t116 -352t324 -131t323 131q116 131 116 351t-116 351t-324 131zM117 511q0 251 137 393q136 142 370 143t364 -147t130 -394t-130 -394t-371 -148t-371 148t-129 399zM987 1405h-743v59h743v-59z" />
    <glyph glyph-name="Ohungarumlaut" unicode="&#x150;" horiz-adv-x="1728" 
d="M864 1405q-293 0 -473 -188q-180 -187 -180 -499t185 -500t468 -189q283 0 468 188q186 187 186 499t-180 500t-474 189zM864 1464q227 0 392 -105t244 -273t79 -369q0 -348 -205 -548t-512 -200t-510 201t-202 547q0 203 78 369t244 272q165 106 392 106zM1016 1546h-70
l246 297h70zM709 1546h-70l246 297h69z" />
    <glyph glyph-name="ohungarumlaut" unicode="&#x151;" horiz-adv-x="1234" 
d="M617 987q-207 0 -323 -130t-116 -351t116 -352t324 -131t323 131q116 131 116 351t-116 351t-324 131zM117 511q0 251 137 393q136 142 370 143t364 -147t130 -394t-130 -394t-371 -148t-371 148t-129 399zM770 1341h-70l246 297h70zM463 1341h-70l246 297h70z" />
    <glyph glyph-name="OE" unicode="&#x152;" horiz-adv-x="1959" 
d="M1042 1374h-204q-306 0 -480 -186t-174 -487t184 -471t470 -171h204v1315zM1102 766h678v-59h-678v-648h735v-59h-999q-313 0 -514 186t-201 514t187 531t528 203h999v-60h-735v-608z" />
    <glyph glyph-name="oe" unicode="&#x153;" horiz-adv-x="2125" 
d="M1948 512q-9 475 -406 475q-196 0 -310 -131t-110 -344h826zM178 506q0 -221 116 -352t323 -131q208 0 324 131t116 351t-116 351t-324 131q-207 0 -323 -130t-116 -351zM2017 453h-893q14 -191 130 -311t321 -119q168 0 323 110l29 -59q-70 -49 -166 -80t-186 -31
q-193 0 -315 93t-168 247q-47 -160 -168 -250t-306 -90q-242 1 -372 149t-129 399q0 251 137 393t364 143q184 1 306 -89t166 -247q60 190 221 278q98 56 231 58q475 0 475 -594z" />
    <glyph glyph-name="Racute" unicode="&#x154;" horiz-adv-x="1159" 
d="M274 561h121q420 -6 526 205q40 80 40 197q-1 223 -147 318t-419 91h-121v-811zM213 1434h225q584 0 584 -471q0 -348 -320 -435l310 -528h-74l-295 516q-80 -14 -176 -14h-193v-502h-61v1434zM555 1546h-72l246 297h76z" />
    <glyph glyph-name="racute" unicode="&#x155;" horiz-adv-x="686" 
d="M252 1024v-104q211 199 389 77l-20 -61q-81 60 -181 36t-188 -132v-840h-62v1024h62zM399 1341h-71l245 297h76z" />
    <glyph glyph-name="Rcommaaccent" unicode="&#x156;" horiz-adv-x="1159" 
d="M500 -414q0 27 17 44q17 18 40 18t40 -18t17 -40q0 -63 -79 -196h-27l39 139q-11 2 -29 14t-18 39zM274 561h121q420 -6 526 205q40 80 40 197q-1 223 -147 318t-419 91h-121v-811zM213 1434h225q584 0 584 -471q0 -348 -320 -435l310 -528h-74l-295 516
q-80 -14 -176 -14h-193v-502h-61v1434z" />
    <glyph glyph-name="rcommaaccent" unicode="&#x157;" horiz-adv-x="686" 
d="M258 -408q0 22 17 38q17 18 40 18t40 -18t18 -40q0 -63 -80 -196h-27l39 139q-19 5 -33 21t-14 38zM252 1024v-104q211 199 389 77l-20 -61q-81 60 -181 36t-188 -132v-840h-62v1024h62z" />
    <glyph glyph-name="Rcaron" unicode="&#x158;" horiz-adv-x="1159" 
d="M274 561h121q420 -6 526 205q40 80 40 197q-1 223 -147 318t-419 91h-121v-811zM213 1434h225q584 0 584 -471q0 -348 -320 -435l310 -528h-74l-295 516q-80 -14 -176 -14h-193v-502h-61v1434zM569 1546h-55l-287 297h76l240 -239l237 239h76z" />
    <glyph glyph-name="rcaron" unicode="&#x159;" horiz-adv-x="686" 
d="M252 1024v-104q211 199 389 77l-20 -61q-81 60 -181 36t-188 -132v-840h-62v1024h62zM414 1341h-56l-286 297h75l240 -239l238 239h75z" />
    <glyph glyph-name="Sacute" unicode="&#x15a;" horiz-adv-x="1222" 
d="M205 1094q0 -70 35 -121q16 -27 64 -57q72 -46 155 -68q311 -81 432 -145q71 -37 107 -77q89 -99 88 -255t-86 -256q-86 -100 -210 -127t-260 -18q-136 10 -250 54q-112 44 -159 99l33 57q61 -57 169 -98q224 -85 453 -33q106 25 177 110t71 218q0 70 -29 127t-62 90
q-34 34 -106 66q-71 32 -109 43t-199 57t-228 82q-141 92 -148 252q0 154 86 244q157 166 508 115q152 -22 293 -81l-24 -63q-154 86 -392 95t-347 -118q-62 -74 -62 -192zM641 1546h-72l246 297h76z" />
    <glyph glyph-name="sacute" unicode="&#x15b;" horiz-adv-x="962" 
d="M470 31q85 0 144 19q58 18 108 80t50 157q0 195 -307 248q-217 35 -273 89q-57 54 -58 166q-1 111 90 185q92 74 268 74t337 -97l-26 -57q-63 39 -161 67t-156 28q-196 -2 -262 -101q-30 -45 -30 -95t9 -76q8 -27 61 -70q14 -11 50 -20t69 -17t109 -19q342 -63 342 -305
q0 -160 -96 -238t-240 -78q-146 -1 -248 45t-156 109l37 55q59 -74 157 -112t182 -37zM485 1341h-71l245 297h76z" />
    <glyph glyph-name="Scedilla" unicode="&#x15e;" horiz-adv-x="1222" 
d="M694 -250q0 98 -83 98q-35 0 -83 -36l-61 16l57 141q-132 11 -244 55t-159 99l33 57q61 -57 169 -98q224 -85 453 -33q106 25 177 110t71 218q0 70 -29 127t-62 90q-34 34 -106 66q-71 32 -109 43t-199 57t-228 82q-141 92 -148 252q0 154 86 244q157 166 508 115
q152 -22 293 -81l-24 -63q-154 86 -392 95t-347 -118q-62 -74 -62 -192q0 -70 35 -121q16 -27 64 -57q72 -46 155 -68q311 -81 432 -145q71 -37 107 -77q89 -99 87 -249q0 -115 -42 -200q-41 -85 -115 -130q-137 -84 -344 -82l-33 -78q27 21 80 21t89 -46t36 -118t-56 -125
t-172 -53t-192 61l22 60q76 -59 164 -59q172 0 172 122z" />
    <glyph glyph-name="scedilla" unicode="&#x15f;" horiz-adv-x="962" 
d="M616 -250q0 98 -83 98q-35 0 -82 -36l-62 16l60 145q-123 7 -213 51t-142 101l37 55q59 -74 157 -112t182 -37q85 0 144 19q58 18 108 80t50 157q0 195 -307 248q-217 35 -273 89q-57 54 -58 166q-1 111 90 185t243 74q200 -1 362 -97l-26 -57q-63 39 -161 67t-156 28
q-196 -2 -262 -101q-45 -68 -25 -155q20 -88 151 -117q27 -5 44 -9t49 -8t49 -8q342 -62 342 -295q0 -114 -44 -186q-80 -132 -282 -140l-35 -84q27 21 80 21t89 -46t36 -118t-56 -125t-172 -53t-192 61l23 60q76 -59 164 -59q171 0 171 122z" />
    <glyph glyph-name="Scaron" unicode="&#x160;" horiz-adv-x="1222" 
d="M205 1094q0 -70 35 -121q16 -27 64 -57q72 -46 155 -68q311 -81 432 -145q71 -37 107 -77q89 -99 88 -255t-86 -256q-86 -100 -210 -127t-260 -18q-136 10 -250 54q-112 44 -159 99l33 57q61 -57 169 -98q224 -85 453 -33q106 25 177 110t71 218q0 70 -29 127t-62 90
q-34 34 -106 66q-71 32 -109 43t-199 57t-228 82q-141 92 -148 252q0 154 86 244q157 166 508 115q152 -22 293 -81l-24 -63q-154 86 -392 95t-347 -118q-62 -74 -62 -192zM655 1546h-55l-287 297h76l240 -239l237 239h76z" />
    <glyph glyph-name="scaron" unicode="&#x161;" horiz-adv-x="962" 
d="M470 31q85 0 144 19q58 18 108 80t50 157q0 195 -307 248q-217 35 -273 89q-57 54 -58 166q-1 111 90 185q92 74 268 74t337 -97l-26 -57q-63 39 -161 67t-156 28q-196 -2 -262 -101q-30 -45 -30 -95t9 -76q8 -27 61 -70q14 -11 50 -20t69 -17t109 -19q342 -63 342 -305
q0 -160 -96 -238t-240 -78q-146 -1 -248 45t-156 109l37 55q59 -74 157 -112t182 -37zM500 1341h-56l-286 297h75l240 -239l238 239h75z" />
    <glyph glyph-name="Tcedilla" unicode="&#x162;" horiz-adv-x="1241" 
d="M811 -256q0 -72 -56 -125t-172 -53t-192 61l23 60q76 -59 164 -59q172 -1 172 122q0 39 -20 69q-20 29 -59 29q-40 0 -87 -36l-62 16l70 172v1374h-514v60h1087v-60h-512v-1374l-47 -113q27 21 80 21t89 -46t36 -118z" />
    <glyph glyph-name="tcedilla" unicode="&#x163;" horiz-adv-x="839" 
d="M897 -262q0 -72 -56 -125t-172 -53t-192 61l23 60q76 -59 164 -59q172 -1 172 122q0 39 -20 69q-20 29 -59 29q-40 0 -87 -37l-62 17l66 160q-242 -40 -321 46q-78 87 -81 398v537h-184v61h184v451h62v-451h405v-61h-405v-537q0 -217 37 -303t127 -91t241 23v-61
l-47 -113q27 21 80 21t89 -46t36 -118z" />
    <glyph glyph-name="Tcaron" unicode="&#x164;" horiz-adv-x="1241" 
d="M653 1374v-1374h-61v1374h-514v60h1087v-60h-512zM657 1546h-55l-287 297h76l240 -239l237 239h76z" />
    <glyph glyph-name="tcaron" unicode="&#x165;" horiz-adv-x="839" 
d="M334 963v-537q0 -217 37 -303t127 -91t241 23v-61q-197 -40 -290 -18q-55 13 -88 43q-69 64 -81 220q-7 75 -8 187v537h-184v61h184v451h62v-451h405v-61h-405zM584 1420q0 22 17 39t41 17t40 -16q16 -18 16 -45t-77 -196h-27l37 145q-18 2 -33 18q-14 16 -14 38z" />
    <glyph glyph-name="Tbar" unicode="&#x166;" horiz-adv-x="1241" 
d="M653 1374v-350h344v-59h-344v-965h-61v965h-338v59h338v350h-514v60h1087v-60h-512z" />
    <glyph glyph-name="tbar" unicode="&#x167;" horiz-adv-x="839" 
d="M334 1208v-184h405v-61h-405v-537q0 -217 37 -303t127 -91t241 23v-61q-197 -40 -290 -18q-55 13 -88 43q-69 64 -81 220q-7 75 -8 187v537h-184v61h184v184h-245v60h245v207h62v-207h436v-60h-436z" />
    <glyph glyph-name="Umacron" unicode="&#x16a;" horiz-adv-x="1548" 
d="M1358 1434v-813q0 -313 -146 -483t-439 -169q-292 0 -437 168t-146 481v816h62v-799q0 -291 130 -449t392 -158t392 158q130 156 130 449v799h62zM1143 1610h-744v59h744v-59z" />
    <glyph glyph-name="umacron" unicode="&#x16b;" horiz-adv-x="1136" 
d="M944 0h-61v135q-63 -70 -163 -116t-206 -48q-168 3 -258 105t-86 268v680h61v-680q1 -112 47 -188q85 -139 283 -123q86 6 173 50t149 118q0 6 -2 10v813h63v-1024zM938 1405h-743v59h743v-59z" />
    <glyph glyph-name="Uring" unicode="&#x16e;" horiz-adv-x="1548" 
d="M1358 1434v-813q0 -313 -146 -483t-439 -169q-292 0 -437 168t-146 481v816h62v-799q0 -291 130 -449t392 -158t392 158q130 156 130 449v799h62zM778 1800q-57 0 -98 -41t-41 -98t41 -98t98 -41t98 41q40 41 39 98q0 57 -39 98q-41 41 -98 41zM778 1864q82 0 140 -60
t59 -143q0 -84 -58 -143q-59 -60 -141 -60t-142 60t-60 144q0 82 60 142t142 60z" />
    <glyph glyph-name="uring" unicode="&#x16f;" horiz-adv-x="1136" 
d="M944 0h-61v135q-63 -70 -163 -116t-206 -48q-168 3 -258 105t-86 268v680h61v-680q1 -112 47 -188q85 -139 283 -123q86 6 173 50t149 118q0 6 -2 10v813h63v-1024zM573 1595q-57 0 -98 -41t-41 -98t41 -98t98 -41t98 41q40 41 40 98t-40 98q-41 41 -98 41zM573 1659
q83 1 141 -59t58 -144t-58 -143t-140 -59t-143 60q-60 60 -60 143t60 143t142 59z" />
    <glyph glyph-name="Uhungarumlaut" unicode="&#x170;" horiz-adv-x="1548" 
d="M1358 1434v-813q0 -313 -146 -483t-439 -169q-292 0 -437 168t-146 481v816h62v-799q0 -291 130 -449t392 -158t392 158q130 156 130 449v799h62zM926 1546h-70l246 297h69zM618 1546h-69l246 297h69z" />
    <glyph glyph-name="uhungarumlaut" unicode="&#x171;" horiz-adv-x="1136" 
d="M944 0h-61v135q-63 -70 -163 -116t-206 -48q-168 3 -258 105t-86 268v680h61v-680q1 -112 47 -188q85 -139 283 -123q86 6 173 50t149 118q0 6 -2 10v813h63v-1024zM721 1341h-70l246 297h70zM414 1341h-70l246 297h69z" />
    <glyph glyph-name="Uogonek" unicode="&#x172;" horiz-adv-x="1548" 
d="M1358 1434v-813q0 -285 -122 -452t-364 -194q-108 -127 -108 -227q0 -41 19 -69q32 -48 94 -49q61 -1 98 31t51 73l41 -41q-53 -123 -180 -123q-82 0 -133 47q-52 47 -52 119t26 122q26 48 79 111h-35q-291 0 -436 168t-146 481v816h62v-799q0 -291 130 -449t392 -158
t392 158q130 156 130 449v799h62z" />
    <glyph glyph-name="uogonek" unicode="&#x173;" horiz-adv-x="1136" 
d="M938 -430q-82 0 -133 47t-51 133t59 165q20 28 70 85v135q-63 -70 -163 -116t-206 -48q-168 3 -258 105t-86 268v680h61v-680q1 -112 47 -188q85 -139 283 -123q86 6 173 50t149 118q0 6 -2 10v813h63v-1024q-42 -51 -64 -81q-64 -90 -65 -160q0 -70 38 -100t87 -30
t86 32t51 73l41 -41q-51 -123 -180 -123z" />
    <glyph glyph-name="Wcircumflex" unicode="&#x174;" horiz-adv-x="2119" 
d="M1061 1262l-445 -1323l-522 1495h70l450 -1301l447 1321l444 -1319l451 1299h69l-522 -1495zM1376 1546h-76l-237 240l-240 -240h-75l286 297h56z" />
    <glyph glyph-name="wcircumflex" unicode="&#x175;" horiz-adv-x="1751" 
d="M874 877l-366 -938l-410 1085h76l336 -911l364 931l365 -931l336 911h76l-410 -1085zM1188 1341h-76l-238 240l-239 -240h-76l287 297h55z" />
    <glyph glyph-name="Ycircumflex" unicode="&#x176;" horiz-adv-x="1232" 
d="M647 0h-61v606l-533 828h76l487 -754l488 754h76l-533 -828v-606zM930 1546h-76l-238 240l-239 -240h-76l287 297h55z" />
    <glyph glyph-name="ycircumflex" unicode="&#x177;" horiz-adv-x="1107" 
d="M1024 1024l-473 -1120q-55 -135 -91 -203t-89 -113t-119 -41t-168 43l27 68q101 -45 140 -40t61 9t48 35t39 50q14 18 40 76t39 93t46 119l-387 1024h76l348 -938l387 938h76zM899 1341h-76l-237 240l-240 -240h-76l287 297h55z" />
    <glyph glyph-name="Ydieresis" unicode="&#x178;" horiz-adv-x="1232" 
d="M647 0h-61v606l-533 828h76l487 -754l488 754h76l-533 -828v-606zM786 1690q20 0 36 -16t16 -36t-16 -35t-36 -15t-35 14q-15 16 -16 36t15 36t36 16zM459 1690q19 0 35 -16t16 -36t-15 -35t-35 -15t-36 14q-16 16 -16 36t15 36q16 16 36 16z" />
    <glyph glyph-name="Zacute" unicode="&#x179;" horiz-adv-x="1466" 
d="M1321 59v-59h-1184l1063 1374h-981v60h1102l-1063 -1375h1063zM784 1546h-71l245 297h76z" />
    <glyph glyph-name="zacute" unicode="&#x17a;" horiz-adv-x="964" 
d="M854 59v-59h-762l672 965h-629v59h739l-667 -965h647zM502 1341h-72l246 297h76z" />
    <glyph glyph-name="Zdotaccent" unicode="&#x17b;" horiz-adv-x="1466" 
d="M1321 59v-59h-1184l1063 1374h-981v60h1102l-1063 -1375h1063zM768 1690q20 0 36 -16t15 -36q0 -20 -14 -35t-37 -15t-37 14q-14 16 -14 36t15 36q16 16 36 16z" />
    <glyph glyph-name="zdotaccent" unicode="&#x17c;" horiz-adv-x="964" 
d="M854 59v-59h-762l672 965h-629v59h739l-667 -965h647zM485 1485q19 1 35 -15t16 -36t-14 -36t-37 -16t-37 16t-14 36t16 36t35 15z" />
    <glyph glyph-name="Zcaron" unicode="&#x17d;" horiz-adv-x="1466" 
d="M1321 59v-59h-1184l1063 1374h-981v60h1102l-1063 -1375h1063zM799 1546h-56l-286 297h75l240 -239l238 239h75z" />
    <glyph glyph-name="zcaron" unicode="&#x17e;" horiz-adv-x="964" 
d="M854 59v-59h-762l672 965h-629v59h739l-667 -965h647zM516 1341h-55l-287 297h76l239 -239l238 239h76z" />
    <glyph glyph-name="Scommaaccent" unicode="&#x218;" horiz-adv-x="1222" 
d="M639 -410q0 -63 -80 -196h-27l39 139q-18 5 -32 21q-15 16 -15 38t18 38q18 18 40 18q23 0 40 -18t17 -40zM205 1094q0 -70 35 -121q16 -27 64 -57q72 -46 155 -68q311 -81 432 -145q71 -37 107 -77q89 -99 88 -255t-86 -256q-86 -100 -210 -127t-260 -18
q-136 10 -250 54q-112 44 -159 99l33 57q61 -57 169 -98q224 -85 453 -33q106 25 177 110t71 218q0 70 -29 127t-62 90q-34 34 -106 66q-71 32 -109 43t-199 57t-228 82q-141 92 -148 252q0 154 86 244q157 166 508 115q152 -22 293 -81l-24 -63q-154 86 -392 95t-347 -118
q-62 -74 -62 -192z" />
    <glyph glyph-name="scommaaccent" unicode="&#x219;" horiz-adv-x="962" 
d="M426 -408q0 22 17 38q17 18 40 18t40 -18t18 -40q0 -63 -80 -196h-27l39 139q-19 5 -33 21t-14 38zM470 31q85 0 144 19q58 18 108 80t50 157q0 195 -307 248q-217 35 -273 89q-57 54 -58 166q-1 111 90 185q92 74 268 74t337 -97l-26 -57q-63 39 -161 67t-156 28
q-196 -2 -262 -101q-30 -45 -30 -95t9 -76q8 -27 61 -70q14 -11 50 -20t69 -17t109 -19q342 -63 342 -305q0 -160 -96 -238t-240 -78q-146 -1 -248 45t-156 109l37 55q59 -74 157 -112t182 -37z" />
    <glyph glyph-name="uni021A" unicode="&#x21a;" horiz-adv-x="1241" 
d="M535 -408q0 22 17 38q17 18 40 18t40 -18t17 -40q0 -63 -80 -196h-26l39 139q-18 5 -32 21t-15 38zM1165 1374h-512v-1374h-61v1374h-514v60h1087v-60z" />
    <glyph glyph-name="uni021B" unicode="&#x21b;" horiz-adv-x="839" 
d="M375 -408q0 22 17 38q17 18 40 18t40 -18t17 -40q0 -63 -79 -196h-27l39 139q-18 5 -32 21t-15 38zM334 963v-537q0 -217 37 -303t127 -91t241 23v-61q-197 -40 -290 -18q-55 13 -88 43q-69 64 -81 220q-7 75 -8 187v537h-184v61h184v451h62v-451h405v-61h-405z" />
    <glyph glyph-name="dotlessj" unicode="&#x237;" horiz-adv-x="643" 
d="M451 1024v-1024q0 -247 -28 -327q-27 -80 -57 -110t-86 -42t-124 -5t-172 27v62q98 -23 161 -31t111 5t74 37q25 24 44 99t19 285v1024h58z" />
    <glyph glyph-name="circumflex" unicode="&#x2c6;" horiz-adv-x="628" 
d="M629 1341h-76l-238 240l-239 -240h-76l287 297h55z" />
    <glyph glyph-name="caron" unicode="&#x2c7;" horiz-adv-x="628" 
d="M342 1341h-55l-287 297h76l239 -239l238 239h76z" />
    <glyph glyph-name="breve" unicode="&#x2d8;" horiz-adv-x="479" 
d="M418 1638h61q0 -112 -61 -180t-179 -68t-179 70q-60 70 -60 178h61q0 -86 45 -137q46 -51 132 -51t133 51t47 137z" />
    <glyph glyph-name="dotaccent" unicode="&#x2d9;" horiz-adv-x="102" 
d="M51 1485q19 1 35 -15t16 -36t-14 -36t-37 -16t-37 16t-14 36t16 36t35 15z" />
    <glyph glyph-name="ring" unicode="&#x2da;" horiz-adv-x="401" 
d="M203 1595q-57 0 -99 -41t-41 -98q0 -57 41 -98q40 -41 98 -41t98 41t40 98t-40 98t-97 41zM203 1659q82 1 140 -59t58 -144t-58 -143t-140 -59q-83 0 -143 60t-60 143t60 143t143 59z" />
    <glyph glyph-name="ogonek" unicode="&#x2db;" horiz-adv-x="364" 
d="M61 -259q0 -52 38 -82t87 -30t86 32t52 73l41 -41q-53 -123 -181 -123q-82 0 -133 47t-51 133t59 165q21 28 70 85h61q-43 -51 -64 -81q-65 -89 -65 -178z" />
    <glyph glyph-name="tilde" unicode="&#x2dc;" horiz-adv-x="757" 
d="M715 1556l43 -28q-46 -94 -75 -117q-28 -21 -42 -35t-44 -16t-41 -5t-50 7t-50 14t-46 16t-45 15q-139 59 -203 49t-117 -104l-45 28q66 129 163 139t220 -51q171 -63 207 -52q10 3 37 25t40 43t48 72z" />
    <glyph glyph-name="hungarumlaut" unicode="&#x2dd;" horiz-adv-x="622" 
d="M377 1341h-70l246 297h70zM70 1341h-70l246 297h69z" />
    <glyph glyph-name="commaaccentcomb" unicode="&#x326;" horiz-adv-x="0" 
d="M0 -408q0 22 17 38q17 18 40 18t40 -18t18 -40q0 -63 -80 -196h-27l39 139q-19 5 -33 21t-14 38z" />
    <glyph glyph-name="Wgrave" unicode="&#x1e80;" horiz-adv-x="2119" 
d="M1503 -61l-442 1323l-445 -1323l-522 1495h70l450 -1301l447 1321l444 -1319l451 1299h69zM1042 1546l-225 297h72l225 -297h-72z" />
    <glyph glyph-name="wgrave" unicode="&#x1e81;" horiz-adv-x="1751" 
d="M1241 -61l-367 938l-366 -938l-410 1085h76l336 -911l364 931l365 -931l336 911h76zM854 1341l-225 297h71l226 -297h-72z" />
    <glyph glyph-name="Wacute" unicode="&#x1e82;" horiz-adv-x="2119" 
d="M1061 1262l-445 -1323l-522 1495h70l450 -1301l447 1321l444 -1319l451 1299h69l-522 -1495zM1081 1546h-71l245 297h76z" />
    <glyph glyph-name="wacute" unicode="&#x1e83;" horiz-adv-x="1751" 
d="M874 877l-366 -938l-410 1085h76l336 -911l364 931l365 -931l336 911h76l-410 -1085zM893 1341h-72l246 297h76z" />
    <glyph glyph-name="Wdieresis" unicode="&#x1e84;" horiz-adv-x="2119" 
d="M1503 -61l-442 1323l-445 -1323l-522 1495h70l450 -1301l447 1321l444 -1319l451 1299h69zM1233 1587q-19 -1 -35 15t-16 36t15 36t35 16t36 -16t16 -36t-16 -36t-35 -15zM905 1587q-19 -1 -35 15t-16 36t15 36t35 16t36 -16t16 -36t-16 -36t-35 -15z" />
    <glyph glyph-name="wdieresis" unicode="&#x1e85;" horiz-adv-x="1751" 
d="M1241 -61l-367 938l-366 -938l-410 1085h76l336 -911l364 931l365 -931l336 911h76zM1044 1382q-20 0 -35 16t-15 36t14 35q16 15 36 15t36 -14q16 -16 16 -36t-16 -36t-36 -16zM717 1382q-19 0 -35 16t-16 36t15 35t35 15t36 -14q16 -16 16 -36t-16 -36t-35 -16z" />
    <glyph glyph-name="Ygrave" unicode="&#x1ef2;" horiz-adv-x="1232" 
d="M647 0h-61v606l-533 828h76l487 -754l488 754h76l-533 -828v-606zM668 1546h-72l-225 297h71z" />
    <glyph glyph-name="ygrave" unicode="&#x1ef3;" horiz-adv-x="1107" 
d="M1024 1024l-473 -1120q-55 -135 -91 -203t-89 -113t-119 -41t-168 43l27 68q101 -45 140 -40t61 9t48 35t39 50q14 18 40 76t39 93t46 119l-387 1024h76l348 -938l387 938h76zM637 1341h-72l-225 297h72z" />
    <glyph glyph-name="endash" unicode="&#x2013;" horiz-adv-x="1208" 
d="M1065 453h-922v59h922v-59z" />
    <glyph glyph-name="emdash" unicode="&#x2014;" horiz-adv-x="1744" 
d="M1602 453h-1459v59h1459v-59z" />
    <glyph glyph-name="quoteleft" unicode="&#x2018;" horiz-adv-x="370" 
d="M256 1234q0 -22 -17 -39t-41 -17t-40 17t-16 45t77 194h27l-37 -144q19 -2 33 -18t14 -38z" />
    <glyph glyph-name="quoteright" unicode="&#x2019;" horiz-adv-x="370" 
d="M115 1377q0 22 17 39q17 18 41 18t40 -18t16 -44q0 -27 -77 -196h-27l37 145q-18 2 -33 18q-14 16 -14 38z" />
    <glyph glyph-name="quotedblleft" unicode="&#x201c;" horiz-adv-x="593" 
d="M479 1234q0 -22 -17 -39t-41 -17t-40 17t-16 38q-1 21 29 91t44 110h27l-33 -144q18 -2 32 -18t15 -38zM256 1234q0 -22 -17 -39t-41 -17t-45 22t-8 58t35 86t35 90h27l-33 -144q19 -2 33 -18t14 -38z" />
    <glyph glyph-name="quotedblright" unicode="&#x201d;" horiz-adv-x="598" 
d="M342 1377q0 22 17 39q17 18 41 18t40 -18t16 -34t-77 -204h-27l37 143q-18 2 -33 18q-14 16 -14 38zM115 1377q0 22 17 39q17 18 40 18t40 -18t17 -36t-79 -202h-27l39 143q-18 2 -33 18q-14 16 -14 38z" />
    <glyph glyph-name="dagger" unicode="&#x2020;" horiz-adv-x="911" 
d="M483 1067l299 12v-71l-301 14l11 -633h-72l10 633l-301 -14v71l299 -12l-16 367h88z" />
    <glyph glyph-name="daggerdbl" unicode="&#x2021;" horiz-adv-x="894" 
d="M766 1020l-301 14l10 -317l-10 -305l301 14v-72l-299 13l16 -367h-71l16 367l-299 -13v72l301 -14l-10 305l10 317l-301 -14v72l299 -13l-16 355h71l-16 -355l299 13v-72z" />
    <glyph glyph-name="bullet" unicode="&#x2022;" horiz-adv-x="741" 
d="M373 803q61 0 103 -42q42 -41 42 -103t-42 -105t-103 -43t-105 43q-43 43 -43 104t43 104q44 42 105 42z" />
    <glyph glyph-name="ellipsis" unicode="&#x2026;" horiz-adv-x="1210" 
d="M1014 102q23 0 37 -14t14 -36t-15 -36q-16 -16 -36 -16t-36 15q-15 15 -15 37t14 36t37 14zM606 102q23 0 37 -14t14 -36t-15 -36q-16 -16 -36 -16t-36 15q-15 15 -15 37t14 36t37 14zM197 102q49 0 51 -51q0 -19 -16 -35t-35 -16q-20 0 -36 15q-15 15 -15 37t14 36
t37 14z" />
    <glyph glyph-name="guilsinglleft" unicode="&#x2039;" horiz-adv-x="573" 
d="M449 942l-271 -432l271 -440l-56 -27l-297 467l297 461z" />
    <glyph glyph-name="guilsinglright" unicode="&#x203a;" horiz-adv-x="573" 
d="M477 510l-297 -467l-55 29l270 438l-268 434l53 27z" />
    <glyph glyph-name="fraction" unicode="&#x2044;" horiz-adv-x="1226" 
d="M31 -348h-72l1237 1986h72z" />
    <glyph glyph-name="Euro" unicode="&#x20ac;" horiz-adv-x="1280" 
d="M90 553v59h168q-4 50 -4 104t4 103h-168v60h176q35 244 187 394q207 204 525 191q97 -4 191 -30l-10 -62q-171 53 -347 20t-310 -163q-135 -131 -172 -350h614l-8 -60h-614q-13 -108 0 -207h579l-8 -59h-563q51 -307 314 -447q151 -78 339 -72q90 3 176 27l10 -61
q-184 -54 -377 -18t-341 180q-148 145 -185 391h-176z" />
    <glyph glyph-name="trademark" unicode="&#x2122;" horiz-adv-x="692" 
d="M43 1434h215v-19h-98v-268h-17v268h-100v19zM596 1147h-18v250l-121 -123l-123 121v-248h-19v295l142 -144l139 144v-295z" />
    <glyph glyph-name="minus" unicode="&#x2212;" horiz-adv-x="1310" 
d="M1167 606h-1024v60h1024v-60z" />
    <glyph glyph-name="approxequal" unicode="&#x2248;" horiz-adv-x="1437" 
d="M1251 668l52 -31q-45 -75 -122 -152q-26 -25 -64 -33q-39 -8 -63 -10q-24 -4 -96 15t-135 42t-117 43q-215 77 -289 44q-73 -32 -141 -135l-47 28q60 91 139 149q37 27 144 35q64 2 248 -69q184 -72 257 -82t111 16t78 78q39 54 45 62zM1251 1067l52 -31
q-48 -80 -122 -151q-34 -32 -126 -44q-60 -7 -258 68q-37 12 -91 32t-98 33q-129 39 -196 9q-68 -30 -136 -133l-47 29q62 94 139 148q43 31 119 34t147 -22q70 -25 190 -71q231 -90 304 -41q39 26 78 79t45 61z" />
    <glyph glyph-name="notequal" unicode="&#x2260;" horiz-adv-x="1593" 
d="M1411 543v-60h-641l-184 -426l-51 23l176 403h-529v60h553l99 225h-652v59h676l197 451l51 -23l-186 -428h491v-59h-516l-98 -225h614z" />
    <glyph glyph-name="lessequal" unicode="&#x2264;" horiz-adv-x="1390" 
d="M184 61h1024v-61h-1024v61zM1208 340v-68l-1087 426l1085 404v-68l-895 -336z" />
    <glyph glyph-name="greaterequal" unicode="&#x2265;" horiz-adv-x="1386" 
d="M178 61h1024v-61h-1024v61zM1266 698l-1088 -426v68l920 358l-918 336v68z" />
    <glyph glyph-name="lozenge" unicode="&#x25ca;" horiz-adv-x="1361" 
d="M199 621l483 -484l481 484l-481 481zM1239 621l-557 -560l-559 560l559 557z" />
    <glyph glyph-name="O_O" horiz-adv-x="2609" 
d="M1518 721q0 336 -213 526q-213 -190 -213 -526t213 -531q213 195 213 531zM1745 29q283 0 468 188q185 187 185 499t-180 500t-473 189q-229 0 -393 -119q111 -102 169 -250t58 -319q0 -360 -225 -567q168 -121 391 -121zM864 29q223 0 389 121q-223 207 -223 567
q0 224 103 408q51 91 124 161q-166 119 -376 119t-358 -85t-230 -242t-82 -361q0 -311 185 -499t468 -189zM1745 1464q172 0 310 -60q257 -112 359 -404q46 -134 46 -296t-56 -304q-107 -273 -383 -381q-129 -50 -276 -50q-256 0 -440 140q-186 -139 -441 -140
q-309 0 -512 201t-202 547q0 203 78 369t244 272q164 106 408 106t425 -137q180 137 440 137z" />
    <glyph glyph-name="c_t" horiz-adv-x="1820" 
d="M641 -37q-174 0 -292 68q-230 133 -230 483q0 226 92 356t229 171q136 41 244 20q-59 49 -88 108t-29 155t46 182q46 85 132 135q86 51 203 51t200 -46q159 -88 167 -327v-295h405v-61h-405v-537q0 -217 37 -303t127 -91t241 23v-61q-200 -40 -292 -18q-54 13 -86 43
q-69 64 -81 220q-7 75 -8 187v897q-2 151 -84 229t-226 78t-229 -85t-85 -220t98 -213q64 -50 160 -96t125 -62l-27 -63q-6 2 -83 43q-118 62 -261 72q-215 8 -338 -118t-123 -373t122 -370t329 -123t354 128l27 -56q-57 -57 -166 -94t-205 -37z" />
    <glyph glyph-name="f_i" horiz-adv-x="987" 
d="M326 1051v-27h467v-1024h-62v965h-405v-965h-62v965h-184v59h184v18q-6 332 86 408q76 63 241 47q83 -8 204 -33v-59q-72 12 -117 20q-103 18 -176 16q-73 -3 -95 -21q-46 -39 -57 -82q-10 -42 -17 -92t-7 -195z" />
    <glyph glyph-name="f_l" horiz-adv-x="991" 
d="M264 1024v18q0 217 24 299q24 81 56 109q76 66 238 55q84 -6 206 -30v-1475h-59v1421q-170 29 -240 23t-102 -38q-31 -32 -39 -71q-22 -107 -22 -284v-27h303v-59h-303v-965h-62v965h-184v59h184z" />
    <glyph glyph-name="s_t" horiz-adv-x="1720" 
d="M460 31q74 0 120 12q192 49 192 244t-307 248q-191 32 -250 71q-58 38 -70 83q-12 43 -12 101t28 111t72 82q101 65 219 65q58 -1 113 -8q-98 96 -98 247t103 259q102 108 278 107t268 -99t98 -276v-254h406v-61h-406v-537q0 -217 37 -303t127 -91t242 23v-61
q-197 -40 -291 -18q-55 13 -87 43q-89 83 -89 407v537h-184v61h184v258q0 100 -39 171q-77 140 -272 138q-146 0 -230 -85t-84 -226q0 -100 60 -169t135 -103q74 -34 106 -56l-26 -57q-63 39 -161 67t-156 28q-196 -2 -262 -101q-30 -45 -30 -95t9 -76q8 -27 61 -70
q14 -11 50 -20t69 -17t109 -19q342 -63 342 -305q0 -160 -96 -238t-240 -78q-146 -1 -248 45t-156 109l37 55q59 -74 157 -112t172 -37z" />
    <glyph glyph-name="zero.tosf" horiz-adv-x="1372" 
d="M688 995q-225 0 -357 -131t-132 -356t132 -352t353 -127t355 122q135 122 135 347t-130 361t-356 136zM696 1055q258 0 398 -158q140 -159 141 -403q0 -244 -152 -384q-153 -140 -409 -140t-396 151t-140 397t150 392t408 145z" />
    <glyph glyph-name="one.tosf" horiz-adv-x="770" 
d="M535 0h-62v981l-389 -111l-18 52l469 133v-1055z" />
    <glyph glyph-name="two.tosf" horiz-adv-x="1185" 
d="M629 1055q207 0 323 -83t117 -253q0 -84 -47 -156q-26 -41 -100 -84t-141 -61q-183 -49 -206 -56q-295 -80 -372 -190q-33 -47 -45 -113h909v-59h-979q0 148 88 232q133 124 402 191q268 68 344 128q33 27 59 71q27 44 27 97q0 123 -90 200t-289 76q-291 0 -455 -168
l-33 54q180 174 488 174z" />
    <glyph glyph-name="three.tosf" horiz-adv-x="1210" 
d="M582 1061q220 0 341 -111q122 -111 121 -280q0 -106 -60 -192t-150 -109q110 -31 184 -129t74 -228q0 -214 -138 -330t-376 -116q-160 0 -302 50t-219 114l29 47q221 -152 492 -152q187 0 311 79q66 42 103 121q38 79 38 187q0 152 -98 240t-258 88h-230v59h234
q154 0 230 80t75 191q0 176 -112 254t-291 77q-118 1 -234 -25t-188 -63l-23 56q227 92 447 92z" />
    <glyph glyph-name="four.tosf" horiz-adv-x="1140" 
d="M856 -41v-369h-61v369h-713q328 360 328 823h61q0 -158 -42 -312q-73 -268 -224 -452h590v1026h61v-1026h201v-59h-201z" />
    <glyph glyph-name="five.tosf" horiz-adv-x="1257" 
d="M287 965v-490q199 55 389 51t327 -108q136 -104 136 -338q0 -130 -48 -232q-86 -183 -309 -257q-98 -32 -202 -31q-266 0 -465 133l28 61q178 -135 416 -135t378 125t140 332q0 123 -49 209t-124 122q-129 62 -228 62q-240 0 -451 -72v627h877v-59h-815z" />
    <glyph glyph-name="six.tosf" horiz-adv-x="1273" 
d="M638 29q208 0 329 126t120 316q0 190 -110 305q-111 115 -285 115q-113 0 -205 -38t-147 -98q-110 -120 -131 -263q23 -233 122 -348t307 -115zM690 1407q-285 0 -407 -256q-84 -188 -84 -434v-72q65 153 199 229t294 76q211 0 334 -136t123 -350t-150 -354t-356 -141
q-274 -1 -389 181t-115 548q-1 366 145 568q146 200 410 200t445 -209l-41 -49q-66 94 -174 146t-234 53z" />
    <glyph glyph-name="seven.tosf" horiz-adv-x="1114" 
d="M119 1022h917q-12 -305 -217 -567q-49 -61 -167 -198t-177 -257q-84 -178 -84 -412h-61q0 382 248 669q116 137 139 163q229 260 252 543h-850v59z" />
    <glyph glyph-name="eight.tosf" horiz-adv-x="1314" 
d="M1116 -1q0 335 -479 335q-252 0 -367 -89q-114 -89 -114 -249t118 -266t363 -111q243 5 361 111t118 269zM1067 664q0 168 -122 248t-307 83q-185 1 -309 -81t-124 -242t99 -219t335 -59t332 67q96 68 96 203zM94 13q0 137 93 237t231 112q-88 6 -152 50
q-124 85 -123 252q0 104 44 182q77 137 276 187q84 22 174 22q209 -1 350 -101t141 -290q0 -124 -72 -208t-202 -94q137 -12 230 -112t94 -244q0 -223 -150 -335q-150 -111 -376 -111t-379 87q-83 46 -131 138t-48 228z" />
    <glyph glyph-name="nine.tosf" horiz-adv-x="1271" 
d="M609 1006q-209 0 -329 -126t-120 -316t110 -306q110 -115 285 -115q113 0 205 38q92 39 147 99q110 121 131 263q-23 233 -122 348t-307 115zM557 -373q285 0 408 256q84 188 84 434v72q-66 -153 -200 -229t-294 -76q-211 0 -334 136t-123 350t150 354t356 141
q274 0 389 -181t115 -548q0 -368 -145 -568t-409 -200t-445 209l41 49q66 -94 174 -146t233 -53z" />
    <glyph glyph-name="zero.osf" horiz-adv-x="1372" 
d="M688 995q-225 0 -357 -131t-132 -356t132 -352t353 -127t355 122q135 122 135 347t-130 361t-356 136zM696 1055q258 0 398 -158q140 -159 141 -403q0 -244 -152 -384q-153 -140 -409 -140t-396 151t-140 397t150 392t408 145z" />
    <glyph glyph-name="one.osf" horiz-adv-x="770" 
d="M535 0h-62v981l-389 -111l-18 52l469 133v-1055z" />
    <glyph glyph-name="two.osf" horiz-adv-x="1185" 
d="M629 1055q207 0 323 -83t117 -253q0 -84 -47 -156q-26 -41 -100 -84t-141 -61q-183 -49 -206 -56q-295 -80 -372 -190q-33 -47 -45 -113h909v-59h-979q0 148 88 232q133 124 402 191q268 68 344 128q33 27 59 71q27 44 27 97q0 123 -90 200t-289 76q-291 0 -455 -168
l-33 54q180 174 488 174z" />
    <glyph glyph-name="three.osf" horiz-adv-x="1210" 
d="M582 1061q220 0 341 -111q122 -111 121 -280q0 -106 -60 -192t-150 -109q110 -31 184 -129t74 -228q0 -214 -138 -330t-376 -116q-160 0 -302 50t-219 114l29 47q221 -152 492 -152q187 0 311 79q66 42 103 121q38 79 38 187q0 152 -98 240t-258 88h-230v59h234
q154 0 230 80t75 191q0 176 -112 254t-291 77q-118 1 -234 -25t-188 -63l-23 56q227 92 447 92z" />
    <glyph glyph-name="four.osf" horiz-adv-x="1140" 
d="M856 -410h-61v369h-713q328 360 328 823h61q0 -158 -42 -312q-73 -268 -224 -452h590v1026h61v-1026h201v-59h-201v-369z" />
    <glyph glyph-name="five.osf" horiz-adv-x="1257" 
d="M287 965v-490q199 55 389 51t327 -108q136 -104 136 -338q0 -130 -48 -232q-86 -183 -309 -257q-98 -32 -202 -31q-266 0 -465 133l28 61q178 -135 416 -135t378 125t140 332q0 123 -49 209t-124 122q-129 62 -228 62q-240 0 -451 -72v627h877v-59h-815z" />
    <glyph glyph-name="six.osf" horiz-adv-x="1273" 
d="M638 29q208 0 329 126t120 316q0 190 -110 305q-111 115 -285 115q-113 0 -205 -38t-147 -98q-110 -120 -131 -263q23 -233 122 -348t307 -115zM690 1407q-285 0 -407 -256q-84 -188 -84 -434v-72q65 153 199 229t294 76q211 0 334 -136t123 -350t-150 -354t-356 -141
q-274 -1 -389 181t-115 548q-1 366 145 568q146 200 410 200t445 -209l-41 -49q-66 94 -174 146t-234 53z" />
    <glyph glyph-name="seven.osf" horiz-adv-x="1114" 
d="M119 1022h917q-12 -305 -217 -567q-49 -61 -167 -198t-177 -257q-84 -178 -84 -412h-61q0 382 248 669q116 137 139 163q229 260 252 543h-850v59z" />
    <glyph glyph-name="eight.osf" horiz-adv-x="1314" 
d="M1116 -1q0 335 -479 335q-252 0 -367 -89q-114 -89 -114 -249t118 -266t363 -111q243 5 361 111t118 269zM1067 664q0 168 -122 248t-307 83q-185 1 -309 -81t-124 -242t99 -219t335 -59t332 67q96 68 96 203zM94 13q0 137 93 237t231 112q-88 6 -152 50
q-124 85 -123 252q0 104 44 182q77 137 276 187q84 22 174 22q209 -1 350 -101t141 -290q0 -124 -72 -208t-202 -94q137 -12 230 -112t94 -244q0 -223 -150 -335q-150 -111 -376 -111t-379 87q-83 46 -131 138t-48 228z" />
    <glyph glyph-name="nine.osf" horiz-adv-x="1271" 
d="M609 1006q-209 0 -329 -126t-120 -316t110 -306q110 -115 285 -115q113 0 205 38q92 39 147 99q110 121 131 263q-23 233 -122 348t-307 115zM557 -373q285 0 408 256q84 188 84 434v72q-66 -153 -200 -229t-294 -76q-211 0 -334 136t-123 350t150 354t356 141
q274 0 389 -181t115 -548q0 -368 -145 -568t-409 -200t-445 209l41 49q66 -94 174 -146t233 -53z" />
    <glyph glyph-name="zero.lf" horiz-adv-x="1454" 
d="M726 1403q-245 0 -386 -179t-141 -507t141 -507t385 -179t387 180t143 507t-142 506t-387 179zM725 1464q157 0 275 -62q211 -110 284 -407q33 -129 33 -278q0 -348 -156 -548t-436 -200q-127 0 -229 43t-168 115q-188 205 -191 590q-1 347 153 547t435 200z" />
    <glyph glyph-name="one.lf" horiz-adv-x="770" 
d="M535 0h-62v1384l-387 -112l-20 59l469 133v-1464z" />
    <glyph glyph-name="two.lf" horiz-adv-x="1148" 
d="M1032 1074q0 -58 -3 -86t-21 -84q-37 -115 -143 -219q-63 -61 -119 -91t-169 -81q-202 -91 -304 -192t-128 -262h861v-59h-918q0 171 69 269q26 38 47 65q74 90 285 196q29 14 87 43t88 43q168 86 256 230q41 68 49 160q20 225 -134 335q-89 63 -229 64
q-225 -1 -418 -107l-26 54q229 113 444 112q98 0 178 -31q160 -63 218 -221q30 -80 30 -138z" />
    <glyph glyph-name="three.lf" horiz-adv-x="1210" 
d="M582 1464q220 0 341 -110q122 -110 121 -281q0 -106 -60 -191t-150 -110q110 -31 184 -129t74 -227q0 -215 -138 -331t-376 -116q-160 0 -302 50t-219 114l29 47q221 -152 492 -151q190 0 311 79q141 90 141 308q0 152 -98 240t-258 87h-230v60h234q154 0 230 80t75 190
q0 176 -112 254t-291 78q-118 1 -234 -25t-188 -63l-23 55q227 92 447 92z" />
    <glyph glyph-name="four.lf" horiz-adv-x="1140" 
d="M856 369v-369h-61v369h-713q328 360 328 823h61q0 -158 -42 -312q-74 -271 -224 -452h590v1026h61v-1026h201v-59h-201z" />
    <glyph glyph-name="five.lf" horiz-adv-x="1257" 
d="M287 1374v-489q134 36 269 48t218 -7q145 -32 227 -100q135 -113 138 -337q0 -129 -48 -231q-87 -185 -309 -257q-98 -32 -202 -32q-266 0 -465 133l28 62q178 -135 416 -135t378 125t140 331q0 123 -49 209t-124 122q-127 61 -228 63q-240 0 -451 -72v627h877v-60h-815z
" />
    <glyph glyph-name="six.lf" horiz-adv-x="1273" 
d="M638 29q208 0 329 126t120 316q0 190 -110 305q-111 115 -285 115q-113 0 -205 -38t-147 -98q-110 -120 -131 -263q23 -233 122 -348t307 -115zM690 1407q-285 0 -407 -256q-84 -188 -84 -434v-72q65 153 199 229t294 76q211 0 334 -136t123 -350t-150 -354t-356 -141
q-274 -1 -389 181t-115 548q-1 366 145 568q146 200 410 200t445 -209l-41 -49q-66 94 -174 146t-234 53z" />
    <glyph glyph-name="seven.lf" horiz-adv-x="1114" 
d="M119 1434h917q-12 -305 -217 -568q-49 -61 -167 -197t-177 -257q-84 -178 -84 -412h-61q0 382 248 669q122 145 139 162q229 260 252 543h-850v60z" />
    <glyph glyph-name="eight.lf" horiz-adv-x="1314" 
d="M1137 408q0 334 -480 335q-253 0 -367 -89q-114 -88 -114 -248t118 -266t363 -111q242 4 361 110q119 105 119 269zM225 1081q-1 -160 99 -219t336 -59q236 -1 331 67q96 68 96 203q0 168 -121 249q-122 81 -308 83t-309 -81q-124 -83 -124 -243zM1198 416
q0 -223 -150 -335t-373 -112q-224 0 -381 87q-83 46 -131 138t-48 229q0 136 93 236t230 113q-130 10 -202 94t-72 198q0 295 319 379q84 22 174 21q209 0 351 -100t141 -291q0 -123 -72 -207t-203 -94q136 -12 230 -112t94 -244z" />
    <glyph glyph-name="nine.lf" horiz-adv-x="1271" 
d="M605 1407q-208 0 -329 -126q-120 -126 -120 -316t110 -306q111 -115 285 -114q113 0 205 38t147 98q110 120 131 263q-23 233 -122 348t-307 115zM553 29q285 0 408 256q84 188 83 434v72q-66 -152 -200 -229t-293 -77q-211 1 -334 137t-123 350t150 354t356 140
q274 0 389 -181t115 -547t-146 -568q-146 -201 -408 -201q-264 0 -446 209l41 49q65 -94 173 -146t235 -52z" />
    <glyph glyph-name="zero.tf" horiz-adv-x="1454" 
d="M726 1403q-245 0 -386 -179t-141 -507t141 -507t385 -179t387 180t143 507t-142 506t-387 179zM725 1464q157 0 275 -62q211 -110 284 -407q33 -129 33 -278q0 -348 -156 -548t-436 -200q-127 0 -229 43t-168 115q-188 205 -191 590q-1 347 153 547t435 200z" />
    <glyph glyph-name="one.tf" horiz-adv-x="770" 
d="M535 0h-62v1384l-387 -112l-20 59l469 133v-1464z" />
    <glyph glyph-name="two.tf" horiz-adv-x="1148" 
d="M1032 1074q0 -58 -3 -86t-21 -84q-37 -115 -143 -219q-63 -61 -119 -91t-169 -81q-202 -91 -304 -192t-128 -262h861v-59h-918q0 171 69 269q26 38 47 65q74 90 285 196q29 14 87 43t88 43q168 86 256 230q41 68 49 160q20 225 -134 335q-89 63 -229 64
q-225 -1 -418 -107l-26 54q229 113 444 112q98 0 178 -31q160 -63 218 -221q30 -80 30 -138z" />
    <glyph glyph-name="three.tf" horiz-adv-x="1210" 
d="M582 1464q220 0 341 -110q122 -110 121 -281q0 -106 -60 -191t-150 -110q110 -31 184 -129t74 -227q0 -215 -138 -331t-376 -116q-160 0 -302 50t-219 114l29 47q221 -152 492 -151q190 0 311 79q141 90 141 308q0 152 -98 240t-258 87h-230v60h234q154 0 230 80t75 190
q0 176 -112 254t-291 78q-118 1 -234 -25t-188 -63l-23 55q227 92 447 92z" />
    <glyph glyph-name="four.tf" horiz-adv-x="1140" 
d="M856 369v-369h-61v369h-713q328 360 328 823h61q0 -158 -42 -312q-74 -271 -224 -452h590v1026h61v-1026h201v-59h-201z" />
    <glyph glyph-name="five.tf" horiz-adv-x="1257" 
d="M287 1374v-489q134 36 269 48t218 -7q145 -32 227 -100q135 -113 138 -337q0 -129 -48 -231q-87 -185 -309 -257q-98 -32 -202 -32q-266 0 -465 133l28 62q178 -135 416 -135t378 125t140 331q0 123 -49 209t-124 122q-127 61 -228 63q-240 0 -451 -72v627h877v-60h-815z
" />
    <glyph glyph-name="six.tf" horiz-adv-x="1273" 
d="M638 29q208 0 329 126t120 316q0 190 -110 305q-111 115 -285 115q-113 0 -205 -38t-147 -98q-110 -120 -131 -263q23 -233 122 -348t307 -115zM690 1407q-285 0 -407 -256q-84 -188 -84 -434v-72q65 153 199 229t294 76q211 0 334 -136t123 -350t-150 -354t-356 -141
q-274 -1 -389 181t-115 548q-1 366 145 568q146 200 410 200t445 -209l-41 -49q-66 94 -174 146t-234 53z" />
    <glyph glyph-name="seven.tf" horiz-adv-x="1114" 
d="M119 1434h917q-12 -305 -217 -568q-49 -61 -167 -197t-177 -257q-84 -178 -84 -412h-61q0 382 248 669q122 145 139 162q229 260 252 543h-850v60z" />
    <glyph glyph-name="eight.tf" horiz-adv-x="1314" 
d="M1137 408q0 334 -480 335q-253 0 -367 -89q-114 -88 -114 -248t118 -266t363 -111q242 4 361 110q119 105 119 269zM225 1081q-1 -160 99 -219t336 -59q236 -1 331 67q96 68 96 203q0 168 -121 249q-122 81 -308 83t-309 -81q-124 -83 -124 -243zM1198 416
q0 -223 -150 -335t-373 -112q-224 0 -381 87q-83 46 -131 138t-48 229q0 136 93 236t230 113q-130 10 -202 94t-72 198q0 295 319 379q84 22 174 21q209 0 351 -100t141 -291q0 -123 -72 -207t-203 -94q136 -12 230 -112t94 -244z" />
    <glyph glyph-name="nine.tf" horiz-adv-x="1271" 
d="M605 1407q-208 0 -329 -126q-120 -126 -120 -316t110 -306q111 -115 285 -114q113 0 205 38t147 98q110 120 131 263q-23 233 -122 348t-307 115zM553 29q285 0 408 256q84 188 83 434v72q-66 -152 -200 -229t-293 -77q-211 1 -334 137t-123 350t150 354t356 140
q274 0 389 -181t115 -547t-146 -568q-146 -201 -408 -201q-264 0 -446 209l41 49q65 -94 173 -146t235 -52z" />
    </font>
</defs>
</svg>
