<?xml version="1.0" standalone="no"?>
<!DOCTYPE svg PUBLIC "-//W3C//DTD SVG 1.1//EN" "http://www.w3.org/Graphics/SVG/1.1/DTD/svg11.dtd" >
<svg xmlns="http://www.w3.org/2000/svg">
<metadata>
Created by FontPrep 20130207 at Wed Mar  5 16:52:13 2014
 By Drew Rios
Copyright (c) 2013 by Avondale Type Co. All rights reserved.
</metadata>
<defs>
<font id="423868989f09b0dfeaca00b1df9b89fc" >
  <font-face 
    font-family="ATCOverlook-Bold"
    font-weight="700"
    font-stretch="normal"
    units-per-em="2048"
    panose-1="0 0 8 0 0 0 0 0 0 0"
    ascent="1638"
    descent="-410"
    x-height="1024"
    cap-height="1434"
    bbox="-121 -692 2224 1876"
    underline-thickness="102"
    underline-position="-102"
    unicode-range="U+0020-25CA"
  />
<missing-glyph horiz-adv-x="1148" 
 />
    <glyph glyph-name="f_f" unicode="ff" horiz-adv-x="1370" 
d="M1290 1024v-227h-225v-797h-281v797h-303v-797h-278v797h-148v227h148v18q-2 160 21 254q50 197 235 205q96 4 239 -20v-262q-131 35 -167 21t-39 -42q-2 -18 -8 -42t-2 -58q3 -34 -1 -74h303v18q-4 247 62 358q65 111 240 106q83 0 204 -25v-262q-137 35 -173 24
t-41 -35t-10 -49t-2 -59t1 -76h225z" />
    <glyph glyph-name="f_f_i" unicode="ffi" horiz-adv-x="1695" 
d="M1099 1216q-30 -35 -32 -87t-2 -105h502v-1024h-281v797h-221v-797h-281v797h-303v-797h-278v797h-148v227h148v18q-2 160 21 254q50 197 235 205q96 4 239 -20v-262q-131 35 -167 21t-39 -42q-2 -18 -8 -42t-2 -58q3 -34 -1 -74h303v18q0 223 53 324q32 61 85 92
q166 97 645 4v-260q-228 43 -285 46t-105 3t-78 -35z" />
    <glyph glyph-name=".notdef" horiz-adv-x="1148" 
 />
    <glyph glyph-name=".null" horiz-adv-x="0" 
 />
    <glyph glyph-name="nonmarkingreturn" horiz-adv-x="681" 
 />
    <glyph glyph-name="space" unicode=" " horiz-adv-x="585" 
 />
    <glyph glyph-name="exclam" unicode="!" horiz-adv-x="557" 
d="M280 274q62 0 104 -42t42 -104t-43 -105t-104 -43t-105 43q-43 43 -43 105t43 104q44 42 106 42zM406 473h-252v1002h252v-1002z" />
    <glyph glyph-name="quotedbl" unicode="&#x22;" horiz-adv-x="774" 
d="M678 1239h-180l-35 399h250zM305 1239h-180l-35 399h250z" />
    <glyph glyph-name="numbersign" unicode="#" horiz-adv-x="1318" 
d="M553 881l-45 -320h254l45 320h-254zM1184 563v-221h-205l-49 -342h-248l47 342h-252l-49 -342h-248l47 342h-157v221h188l45 316h-168v221h201l47 334h250l-49 -334h256l47 334h248l-48 -334h162v-221h-194l-43 -316h172z" />
    <glyph glyph-name="dollar" unicode="$" horiz-adv-x="1177" 
d="M387 1078q0 -68 59 -108t173 -75q365 -112 441 -296q32 -75 32 -171q0 -198 -110 -308t-288 -140v-185h-241v176q-127 13 -233 51t-148 89l131 227q113 -80 252 -104t238 24t100 156q0 80 -68 131q-67 51 -169 86q-262 90 -348 164q-86 73 -107 154q-13 50 -13 112
q0 168 99 264t266 127v186h241v-178q178 -16 336 -82l-94 -235q-82 39 -176 60q-218 51 -318 -18q-56 -38 -55 -107z" />
    <glyph glyph-name="percent" unicode="%" horiz-adv-x="1744" 
d="M1335 543q-141 0 -141 -193t145 -192q143 0 143 192t-147 193zM1342 717q106 0 180 -48q139 -90 139 -319q0 -166 -83 -266t-240 -100q-156 0 -240 100t-84 266q0 111 37 193q79 174 291 174zM410 915q143 1 143 193t-145 192q-146 0 -146 -192t148 -193zM463 0h-258
l1052 1434h256zM84 1109q0 167 84 267t243 99q159 1 239 -99t81 -267q0 -167 -84 -267q-85 -100 -241 -100t-239 100t-83 267z" />
    <glyph glyph-name="ampersand" unicode="&#x26;" horiz-adv-x="1439" 
d="M365 418q0 -76 54 -130t180 -54t235 92l-299 295q-170 -72 -170 -203zM666 1241q-64 0 -102 -44t-38 -95t20 -89t77 -102q90 37 132 81t45 104t-33 103q-37 42 -101 42zM561 -41q-219 0 -360 121t-142 303q0 141 75 254t222 180q-118 149 -118 293t112 254t326 111
q133 1 226 -53q175 -101 171 -318q-6 -244 -272 -371l194 -192q47 104 62 219h280q-12 -98 -51 -211t-92 -203l201 -199l-189 -196l-182 184q-188 -176 -463 -176z" />
    <glyph glyph-name="quotesingle" unicode="'" horiz-adv-x="403" 
d="M305 1137h-180l-35 399h250z" />
    <glyph glyph-name="parenleft" unicode="(" horiz-adv-x="864" 
d="M379 568q0 -230 99 -398t308 -303l-110 -207q-371 205 -502 542q-66 169 -65 365q0 588 567 908l110 -209q-209 -135 -308 -302q-99 -166 -99 -396z" />
    <glyph glyph-name="parenright" unicode=")" horiz-adv-x="864" 
d="M756 567q0 -295 -146 -523t-422 -384l-110 207q209 135 308 303t99 397t-99 397t-308 302l110 209q369 -205 501 -542q67 -169 67 -366z" />
    <glyph glyph-name="asterisk" unicode="*" horiz-adv-x="776" 
d="M442 1217l183 126l71 -122l-209 -97l209 -92l-71 -129l-183 131l19 -221h-144l19 221l-182 -131l-72 129l209 92l-209 97l72 122l182 -126l-19 221h144z" />
    <glyph glyph-name="plus" unicode="+" horiz-adv-x="1277" 
d="M1151 518h-395v-395h-234v395h-395v234h395v395h234v-395h395v-234z" />
    <glyph glyph-name="comma" unicode="," horiz-adv-x="454" 
d="M51 129q0 59 43 101q44 42 96 42q96 0 137 -70q19 -34 19 -75q0 -80 -123 -283h-82l43 138q-57 4 -95 46t-38 101z" />
    <glyph glyph-name="hyphen" unicode="-" horiz-adv-x="700" 
d="M606 387h-512v234h512v-234z" />
    <glyph glyph-name="period" unicode="." horiz-adv-x="505" 
d="M254 276q63 0 105 -40t42 -104q0 -62 -44 -107t-104 -45t-103 45q-44 45 -44 107t42 104q43 40 106 40z" />
    <glyph glyph-name="slash" unicode="/" horiz-adv-x="1019" 
d="M190 -348h-258l869 1982h258z" />
    <glyph glyph-name="zero" unicode="0" horiz-adv-x="1370" 
d="M975 718q1 230 -65 347t-227 117t-224 -117t-63 -372t89 -361q68 -80 197 -80q162 0 228 118t65 348zM1274 717q0 -348 -156 -548t-436 -200q-127 0 -229 43t-168 115q-188 205 -191 590q0 347 154 547t424 200q269 0 427 -175q87 -97 131 -246q44 -148 44 -326z" />
    <glyph glyph-name="one" unicode="1" horiz-adv-x="763" 
d="M604 0h-301v1122l-197 -57l-75 235l573 164v-1464z" />
    <glyph glyph-name="two" unicode="2" horiz-adv-x="1204" 
d="M612 1464q213 0 351 -115q137 -116 149 -298q12 -152 -58 -273t-167 -194q-68 -46 -174 -100t-177 -101t-110 -111h659v-272h-1003q0 260 123 428q77 103 154 158q77 56 185 116q109 60 157 95q106 77 115 192t-90 176q-52 33 -131 33t-175 -36t-187 -111l-120 239
q139 96 244 135t255 39z" />
    <glyph glyph-name="three" unicode="3" horiz-adv-x="1179" 
d="M178 365q160 -119 375 -119q109 0 177 46t58 163q-20 193 -280 192h-174v240h176q221 0 235 164q12 172 -243 152q-125 -10 -262 -73l-109 242q227 92 446 92t342 -110q122 -111 121 -281q0 -104 -57 -190t-139 -111q102 -31 173 -130t70 -226q0 -215 -138 -331
t-376 -116q-100 0 -212 26q-227 53 -308 138z" />
    <glyph glyph-name="four" unicode="4" horiz-adv-x="1284" 
d="M1208 344h-155v-344h-293v344h-715q141 184 216 418t75 430h266q0 -147 -33 -308t-90 -294h281v864h293v-864h155v-246z" />
    <glyph glyph-name="five" unicode="5" horiz-adv-x="1208" 
d="M434 1174v-240q135 28 298 0t273 -138q109 -109 109 -307q0 -129 -50 -231q-90 -184 -318 -257q-99 -32 -203 -32q-281 0 -477 133l100 254q139 -98 308 -112t253 52t84 202q0 233 -332 233q-150 0 -332 -53v756h918v-260h-631z" />
    <glyph glyph-name="six" unicode="6" horiz-adv-x="1284" 
d="M676 229q86 8 146 74q60 67 60 187t-56 186t-162 66t-178 -51q-72 -50 -103 -134q14 -172 91 -255t202 -73zM718 950q210 0 337 -136t127 -343q0 -147 -74 -263t-192 -177t-278 -61t-287 81q-251 163 -253 625q0 370 171 580t438 210q137 0 241 -49t201 -160l-166 -192
q-111 150 -272 149q-197 0 -283 -210q-29 -70 -41 -173q121 119 331 119z" />
    <glyph glyph-name="seven" unicode="7" horiz-adv-x="1210" 
d="M113 1434h1022q-18 -303 -179 -541q-42 -59 -106 -135t-108 -128q-116 -137 -164 -319q-35 -129 -35 -311h-299q0 471 338 848q166 186 209 326h-678v260z" />
    <glyph glyph-name="eight" unicode="8" horiz-adv-x="1230" 
d="M864 430q0 98 -62 150t-186 53t-186 -57q-61 -58 -61 -146q-1 -193 247 -201q248 8 248 201zM403 1049q0 -164 232 -164q88 0 141 47t53 117q0 159 -213 163q-213 -4 -213 -163zM1157 416q0 -223 -148 -335t-393 -112q-397 0 -508 262q-34 80 -34 197t77 215t193 129
q-96 25 -159 110q-62 85 -62 190q0 286 319 371q84 21 196 21t222 -41q108 -41 178 -132t70 -207t-62 -202q-62 -85 -157 -110q117 -31 193 -129t75 -227z" />
    <glyph glyph-name="nine" unicode="9" horiz-adv-x="1284" 
d="M365 946q0 -122 56 -186q57 -64 163 -64t178 49t102 134q-12 173 -90 255t-201 72q-88 -8 -148 -74t-60 -186zM537 221q197 0 282 211q29 70 41 172q-120 -119 -330 -119q-210 1 -337 137t-127 343q0 147 73 263q74 116 192 177t253 61q279 0 422 -181t143 -537
t-170 -568q-170 -211 -438 -211q-137 0 -241 49t-200 160l164 193q111 -150 273 -150z" />
    <glyph glyph-name="colon" unicode=":" horiz-adv-x="532" 
d="M267 274q63 0 105 -42t42 -104t-42 -105t-104 -43t-106 43q-43 43 -43 105t43 104t105 42zM267 1044q63 0 105 -42t42 -104t-42 -105t-94 -43q-99 0 -140 73q-19 35 -19 86t43 93t105 42z" />
    <glyph glyph-name="semicolon" unicode=";" horiz-adv-x="475" 
d="M61 129q0 59 43 101q44 42 96 42t85 -18q71 -39 71 -123t-123 -287h-81l43 138q-57 4 -96 46q-38 42 -38 101zM200 1044q52 0 85 -18t52 -52t19 -75t-19 -76q-40 -73 -120 -73q-81 0 -126 61q-28 39 -29 94t42 97q44 42 96 42z" />
    <glyph glyph-name="less" unicode="&#x3c;" horiz-adv-x="1390" 
d="M639 643l580 -244v-254l-1088 492l1088 469v-225z" />
    <glyph glyph-name="equal" unicode="=" horiz-adv-x="1294" 
d="M1159 334h-1024v233h1024v-233zM1159 743h-1024v234h1024v-234z" />
    <glyph glyph-name="greater" unicode="&#x3e;" horiz-adv-x="1390" 
d="M1260 637l-1088 -492v254l580 244l-578 238v225z" />
    <glyph glyph-name="question" unicode="?" horiz-adv-x="976" 
d="M421 274q62 0 104 -42t42 -104t-42 -105t-104 -43t-106 43q-43 43 -43 105t43 104q44 42 106 42zM565 471h-280v363q213 0 304 91q48 48 48 117q0 178 -207 179q-166 0 -303 -82l-96 233q219 90 434 92t332 -110t117 -302q0 -188 -152 -307q-85 -66 -197 -79v-195z" />
    <glyph glyph-name="at" unicode="@" horiz-adv-x="1982" 
d="M979 846q-103 0 -165 -77t-83 -189q-8 -70 -2 -129t46 -99t108 -39q149 0 264 125l45 254q-58 154 -213 154zM1774 664q0 133 -61 261q-125 267 -410 385q-147 60 -310 60q-219 0 -400 -106t-283 -288t-101 -368q0 -358 223 -582q104 -104 255 -166t307 -62t268 32
q113 33 233 100l57 -88q-252 -154 -542 -153q-193 1 -364 71q-338 139 -480 476q-70 164 -70 346q0 242 119 448t326 327q207 122 452 122q184 0 350 -67q166 -66 285 -178t189 -260t69 -306q0 -272 -118 -426t-357 -154q-100 0 -171 35t-99 92q-157 -115 -313 -115t-247 70
q-177 136 -128 410q35 201 176 341t356 140q152 0 254 -96l10 57h240q-90 -520 -96 -596q-12 -156 47 -190q29 -16 86 -17q112 0 180 120t68 325z" />
    <glyph glyph-name="A" unicode="A" horiz-adv-x="1486" 
d="M924 483l-181 400l-178 -400h359zM1028 248h-569l-111 -248h-315l710 1475l711 -1475h-315z" />
    <glyph glyph-name="B" unicode="B" horiz-adv-x="1347" 
d="M444 256h201q155 0 219 22q111 37 111 145t-92 149q-92 40 -301 40h-138v-356zM444 862h111q253 0 314 76q28 35 28 90t-40 90t-102 47t-157 13h-154v-316zM150 1434h565q223 0 350 -96t127 -269q0 -256 -229 -319q311 -53 311 -344q0 -202 -132 -304t-372 -102h-620
v1434z" />
    <glyph glyph-name="C" unicode="C" horiz-adv-x="1439" 
d="M819 -31q-264 0 -426 109q-293 196 -297 639q0 350 190 549t507 198q175 0 331 -74t256 -214l-221 -179q-55 81 -157 137t-220 56t-210 -60q-176 -114 -177 -413q0 -360 256 -451q173 -60 348 34q105 56 160 136l221 -174q-102 -141 -259 -217t-302 -76z" />
    <glyph glyph-name="D" unicode="D" horiz-adv-x="1476" 
d="M641 274q443 0 440 441q0 258 -133 356q-118 88 -307 88h-197v-885h197zM150 1434h491q181 0 323 -56q270 -105 369 -381q47 -129 47 -293t-56 -304q-56 -138 -158 -224q-208 -176 -525 -176h-491v1434z" />
    <glyph glyph-name="E" unicode="E" horiz-adv-x="1273" 
d="M442 1161v-301h684v-258h-684v-330h742v-272h-1034v1434h1034v-273h-742z" />
    <glyph glyph-name="F" unicode="F" horiz-adv-x="1247" 
d="M442 1161v-301h678v-258h-678v-602h-292v1434h1028v-273h-736z" />
    <glyph glyph-name="G" unicode="G" horiz-adv-x="1507" 
d="M844 809h549v-547q-213 -293 -602 -293q-167 -1 -301 61t-219 168q-175 217 -175 519q0 172 57 315q107 274 372 381q126 51 266 51q395 0 602 -288l-203 -162q-66 86 -167 139t-220 53q-190 0 -300 -135t-110 -353t109 -353t294 -135t304 106v237h-256v236z" />
    <glyph glyph-name="H" unicode="H" horiz-adv-x="1523" 
d="M1376 1434v-1434h-293v594h-643v-594h-293v1434h293v-582h643v582h293z" />
    <glyph glyph-name="I" unicode="I" horiz-adv-x="612" 
d="M453 0h-293v1434h293v-1434z" />
    <glyph glyph-name="J" unicode="J" horiz-adv-x="1021" 
d="M891 1434v-1026q6 -438 -457 -439q-287 0 -426 166l150 215q94 -115 241 -114q104 0 152 50q47 50 47 199v949h293z" />
    <glyph glyph-name="K" unicode="K" horiz-adv-x="1384" 
d="M442 0h-292v1434h292v-656l516 656h328l-563 -682l657 -752h-360l-467 543l-111 -133v-410z" />
    <glyph glyph-name="L" unicode="L" horiz-adv-x="1236" 
d="M1178 260v-260h-1028v1434h292v-1174h736z" />
    <glyph glyph-name="M" unicode="M" horiz-adv-x="1730" 
d="M1585 0h-293v838l-426 -412l-426 412v-838h-293v1487l719 -699l719 699v-1487z" />
    <glyph glyph-name="N" unicode="N" horiz-adv-x="1484" 
d="M440 0h-293v1487l900 -875v822h292v-1487l-899 870v-817z" />
    <glyph glyph-name="O" unicode="O" horiz-adv-x="1632" 
d="M817 1192q-203 0 -311 -124t-109 -351q0 -227 109 -351q108 -124 310 -124t310 124t109 351q0 304 -191 419q-94 56 -227 56zM816 1464q171 0 310 -60q260 -112 364 -404q48 -134 48 -296t-58 -304q-110 -273 -385 -381q-130 -50 -280 -50q-305 0 -509 196
q-97 93 -154 235q-58 142 -58 304q-1 316 185 535q88 105 227 165t310 60z" />
    <glyph glyph-name="P" unicode="P" horiz-adv-x="1239" 
d="M440 690h224q119 0 175 53t56 183t-80 194q-80 66 -274 66h-101v-496zM147 1434h437q304 0 454 -140t150 -371t-140 -355t-374 -124h-234v-444h-293v1434z" />
    <glyph glyph-name="Q" unicode="Q" horiz-adv-x="1634" 
d="M399 717q0 -227 109 -351q108 -124 310 -124t310 124t107 351q0 303 -189 419q-93 56 -229 56q-201 0 -309 -124t-109 -351zM817 -31q-201 0 -363 86t-260 258q-97 172 -98 404q0 307 184 522q89 105 228 165t310 60t310 -60q262 -113 363 -404q47 -134 47 -308t-71 -326
t-197 -249l129 -226l-219 -122l-131 233q-111 -33 -232 -33z" />
    <glyph glyph-name="R" unicode="R" horiz-adv-x="1275" 
d="M440 662h121q213 0 273 65q61 65 61 195q0 162 -107 219q-85 45 -227 45h-121v-524zM440 416v-416h-293v1434h457q276 0 430 -136t154 -378q0 -307 -240 -435l281 -485h-326l-239 416h-224z" />
    <glyph glyph-name="S" unicode="S" horiz-adv-x="1165" 
d="M377 1078q0 -68 59 -108t173 -75q362 -111 441 -296q32 -75 32 -185t-49 -205q-48 -94 -127 -143q-237 -147 -573 -78q-201 39 -272 123l132 227q113 -80 251 -104t238 24t100 156q0 80 -67 131q-68 51 -218 103q-263 92 -342 184t-78 225t63 223t164 131q208 84 478 37
q127 -23 238 -70l-94 -235q-175 83 -355 81q-84 -1 -139 -39t-55 -107z" />
    <glyph glyph-name="T" unicode="T" 
d="M1174 1174h-410v-1174h-293v1174h-410v260h1113v-260z" />
    <glyph glyph-name="U" unicode="U" horiz-adv-x="1454" 
d="M1323 1434v-813q0 -311 -153 -481q-152 -170 -444 -171q-292 0 -444 169t-151 480v816h293v-775q0 -223 68 -324t236 -101t235 100q68 102 67 325v775h293z" />
    <glyph glyph-name="V" unicode="V" horiz-adv-x="1462" 
d="M1430 1434l-699 -1508l-698 1508h315l383 -881l383 881h316z" />
    <glyph glyph-name="W" unicode="W" horiz-adv-x="2134" 
d="M1470 -74l-403 934l-403 -934l-629 1508h307l338 -836l387 868l387 -868l338 836h307z" />
    <glyph glyph-name="X" unicode="X" horiz-adv-x="1536" 
d="M1157 0l-389 530l-391 -530h-336l549 735l-518 699h336l360 -492l358 492h336l-520 -697l551 -737h-336z" />
    <glyph glyph-name="Y" unicode="Y" horiz-adv-x="1396" 
d="M846 0h-293v606l-541 828h320l366 -570l367 570h319l-538 -828v-606z" />
    <glyph glyph-name="Z" unicode="Z" horiz-adv-x="1523" 
d="M1399 272v-272h-1309l838 1176h-719v258h1227l-828 -1162h791z" />
    <glyph glyph-name="bracketleft" unicode="[" horiz-adv-x="866" 
d="M778 1239h-362v-1352h362v-235h-631v1823h631v-236z" />
    <glyph glyph-name="backslash" unicode="\" horiz-adv-x="1058" 
d="M1104 -348h-270l-869 1982h271z" />
    <glyph glyph-name="bracketright" unicode="]" horiz-adv-x="866" 
d="M721 -348h-631v235h361v1352h-361v236h631v-1823z" />
    <glyph glyph-name="asciicircum" unicode="^" horiz-adv-x="958" 
d="M618 1010l-141 186l-164 -186h-213l379 469l379 -469h-240z" />
    <glyph glyph-name="underscore" unicode="_" horiz-adv-x="1302" 
d="M1307 -332h-1311v205h1311v-205z" />
    <glyph glyph-name="grave" unicode="`" horiz-adv-x="501" 
d="M502 1341h-207l-295 297h256z" />
    <glyph glyph-name="a" unicode="a" horiz-adv-x="1122" 
d="M344 344q0 -166 154 -166q56 0 122 28t115 79v161q-125 55 -237 56q-68 0 -111 -42t-43 -116zM621 1051q201 1 293 -97t94 -256v-698h-244q-23 53 -29 102q-47 -59 -125 -98t-172 -39q-174 -1 -274 105t-100 249t89 250q90 107 285 107q143 0 297 -55v20q0 111 -45 154
t-129 43q-163 -1 -319 -97l-99 189q82 49 213 85t265 36z" />
    <glyph glyph-name="b" unicode="b" horiz-adv-x="1257" 
d="M680 809q-191 0 -277 -160v-287q88 -159 265 -159q108 0 160 83t53 220q-1 137 -53 220t-148 83zM403 1475v-584q141 156 328 156q221 0 335 -151t114 -393q0 -241 -115 -391t-334 -149q-186 0 -328 150q-4 -53 -26 -113h-254v1475h280z" />
    <glyph glyph-name="c" unicode="c" horiz-adv-x="1019" 
d="M360 514q0 -160 66 -244t180 -84q78 0 153 30t122 67l92 -189q-57 -57 -166 -94t-205 -37q-174 0 -294 68q-234 133 -234 483q0 260 134 406t394 145q141 0 267 -61q65 -31 104 -70l-92 -189q-127 94 -275 97q-114 0 -180 -84t-66 -244z" />
    <glyph glyph-name="d" unicode="d" horiz-adv-x="1257" 
d="M592 809q-104 0 -160 -81t-55 -222q0 -141 55 -222q54 -81 148 -81q188 0 274 159v287q-57 103 -159 142q-50 18 -103 18zM1135 1475v-1475h-254q-20 59 -25 115q-141 -152 -344 -152q-202 0 -318 150q-116 151 -116 393t116 392t318 149q202 0 342 -156v584h281z" />
    <glyph glyph-name="e" unicode="e" horiz-adv-x="1128" 
d="M352 567h447q-5 127 -55 194t-171 66q-205 0 -221 -260zM940 74q-160 -111 -374 -111q-110 0 -212 46q-181 81 -251 296q-30 94 -29 201q0 248 137 394t356 147q273 0 381 -176q107 -176 107 -484h-695q20 -127 110 -180q46 -27 108 -27q125 0 266 80z" />
    <glyph glyph-name="f" unicode="f" horiz-adv-x="724" 
d="M707 1024v-227h-226v-797h-278v797h-148v227h148v18q-4 249 61 358q65 110 239 106q83 0 204 -25v-262q-139 35 -175 24q-36 -12 -40 -42q-2 -17 -8 -42t-2 -59q3 -34 -1 -76h226z" />
    <glyph glyph-name="g" unicode="g" horiz-adv-x="1257" 
d="M377 518q0 -141 55 -222t165 -81t189 74q41 37 68 86v287q-86 159 -274 159q-92 0 -148 -81t-55 -222zM1135 1024v-950q-1 -264 -143 -402t-396 -137q-179 0 -341 64q-81 31 -120 67l92 207q59 -47 155 -77t209 -30q115 0 189 64q74 63 74 182v121q-139 -156 -328 -156
q-145 0 -247 72q-201 142 -201 469q0 244 116 394t317 149q201 0 345 -150q2 53 25 113h254z" />
    <glyph glyph-name="h" unicode="h" 
d="M403 1475v-584q66 70 166 115t201 45q170 1 260 -103t90 -270v-678h-280v594q0 135 -69 184q-69 50 -168 18t-200 -122v-674h-280v1475h280z" />
    <glyph glyph-name="i" unicode="i" horiz-adv-x="581" 
d="M430 0h-280v1024h280v-1024zM291 1526q68 0 114 -45t47 -115t-46 -117t-115 -47t-115 47t-47 115t47 115t115 47z" />
    <glyph glyph-name="j" unicode="j" horiz-adv-x="604" 
d="M451 1024v-1024q1 -225 -53 -337q-54 -111 -175 -137t-317 17v262q97 -26 129 -29q31 -3 46 -5t33 6t24 12t20 41t14 101v1093h279zM313 1526q68 0 115 -46t47 -102q0 -108 -80 -154q-37 -22 -93 -22t-104 47q-46 47 -46 115t46 115t115 47z" />
    <glyph glyph-name="k" unicode="k" horiz-adv-x="1105" 
d="M403 0h-280v1475h280v-897l351 446h299l-387 -473l434 -551h-328l-266 358l-103 -125v-233z" />
    <glyph glyph-name="l" unicode="l" horiz-adv-x="544" 
d="M412 0h-279v1475h279v-1475z" />
    <glyph glyph-name="m" unicode="m" horiz-adv-x="1730" 
d="M123 1024h250q16 -31 24 -115q145 141 312 142q197 0 264 -150q147 150 338 150q305 0 305 -373v-678h-279v645q0 61 -12 98t-51 50q-45 23 -125 0t-135 -76v-717h-281v645q0 130 -61 148q-47 25 -129 -2t-140 -86v-705h-280v1024z" />
    <glyph glyph-name="n" unicode="n" 
d="M123 1024h250q18 -37 26 -137q66 72 167 118t204 46q170 1 260 -103t90 -270v-678h-280v594q0 135 -69 184q-69 50 -168 18t-200 -122v-674h-280v1024z" />
    <glyph glyph-name="o" unicode="o" horiz-adv-x="1173" 
d="M587 819q-114 0 -172 -87q-59 -87 -59 -227q0 -141 58 -229t173 -88q114 0 172 88t58 228t-58 228q-58 87 -172 87zM588 -37q-242 1 -378 149t-136 399t142 393t378 143q236 -1 371 -149t135 -392q0 -334 -236 -474q-117 -70 -276 -69z" />
    <glyph glyph-name="p" unicode="p" horiz-adv-x="1257" 
d="M682 821q-146 0 -229 -92q-30 -30 -50 -67v-287q20 -37 50 -68q86 -92 220 -92q99 0 152 80q54 80 55 197q2 216 -95 291q-48 38 -103 38zM123 1024h254q23 -59 26 -115q141 152 344 152t318 -150q115 -151 115 -393t-115 -392t-334 -149q-186 0 -328 156v-543h-280v1434
z" />
    <glyph glyph-name="q" unicode="q" horiz-adv-x="1257" 
d="M377 518q0 -141 55 -222t165 -81t189 74q41 37 68 86v287q-86 159 -274 159q-92 0 -148 -81t-55 -222zM1135 1024v-1434h-281v543q-139 -156 -342 -156q-202 0 -318 150q-116 151 -116 393t116 392t318 149q202 0 344 -152q4 55 25 115h254z" />
    <glyph glyph-name="r" unicode="r" horiz-adv-x="837" 
d="M123 1024h250q14 -33 22 -113q215 209 398 86l-76 -229q-68 51 -153 37t-161 -98v-707h-280v1024z" />
    <glyph glyph-name="s" unicode="s" horiz-adv-x="923" 
d="M567 311q0 93 -145 133t-196 63q-52 23 -93 55q-80 61 -81 194q0 133 106 213t264 80q94 0 200 -27t177 -70l-80 -188q-135 82 -262 82t-127 -80q0 -46 46 -68t111 -41q187 -49 275 -125t88 -202t-62 -206q-118 -152 -346 -153q-134 1 -242 47t-163 107l119 180
q46 -51 114 -82t135 -31t115 30t47 89z" />
    <glyph glyph-name="t" unicode="t" horiz-adv-x="780" 
d="M481 797v-381q1 -96 11 -130q10 -36 17 -40t20 -14t29 -8q16 1 41 2q26 1 106 22v-254q-143 -27 -239 -26q-190 2 -241 198q-25 96 -24 260v371h-148v227h148v451h280v-451h224v-227h-224z" />
    <glyph glyph-name="u" unicode="u" 
d="M1112 1024v-1024h-250q-18 37 -26 137q-66 -72 -167 -118t-210 -46q-109 -1 -189 49q-155 96 -155 324v678h280v-594q0 -135 69 -184q69 -50 168 -18t199 122v674h281z" />
    <glyph glyph-name="v" unicode="v" horiz-adv-x="1118" 
d="M1085 1024l-522 -1098l-530 1098h305l227 -555l228 555h292z" />
    <glyph glyph-name="w" unicode="w" horiz-adv-x="1693" 
d="M1145 -74l-297 600l-297 -600l-510 1098h293l237 -541l277 574l276 -574l236 541h295z" />
    <glyph glyph-name="x" unicode="x" horiz-adv-x="1107" 
d="M702 514l371 -512h-297l-223 305l-223 -305h-297l370 512l-370 512h297l223 -309l223 309h297z" />
    <glyph glyph-name="y" unicode="y" horiz-adv-x="1181" 
d="M1145 1024l-473 -1120q-145 -353 -371 -361q-111 -4 -246 47l74 217q129 -57 190 -18t125 211l-407 1024h303l250 -678l278 678h277z" />
    <glyph glyph-name="z" unicode="z" horiz-adv-x="1044" 
d="M930 225v-225h-879l508 799h-424v225h856l-504 -799h443z" />
    <glyph glyph-name="braceleft" unicode="{" horiz-adv-x="929" 
d="M600 1031v-52q0 -254 -61 -318t-129 -83q95 -28 135 -96q40 -67 47 -131q8 -64 8 -116v-111q0 -114 46 -152q46 -37 87 -53q41 -17 119 -38l-53 -221q-309 59 -395 196q-63 107 -55 279q3 56 3 74q0 125 -54 187t-187 63h-33v237h33q133 0 187 62t54 188v51q0 39 -1 93
t15 121q26 106 123 175t310 109l53 -221q-138 -34 -178 -69q-18 -15 -32 -25t-28 -48q-14 -39 -14 -101z" />
    <glyph glyph-name="bar" unicode="|" horiz-adv-x="686" 
d="M463 -348h-240v1986h240v-1986z" />
    <glyph glyph-name="braceright" unicode="}" horiz-adv-x="929" 
d="M578 946q0 -125 55 -187t186 -63h33v-237h-33q-131 -1 -186 -63t-55 -187v-55q0 -37 1 -72q6 -212 -129 -306q-77 -55 -160 -78t-159 -38l-53 221q136 32 178 69q18 15 32 25q13 10 26 43q16 44 16 106v73q0 148 11 184q28 92 53 118q55 55 126 79q-75 21 -103 55
q-27 33 -41 53q-36 56 -42 169l-3 60q-1 21 -1 61v55q0 114 -46 152q-75 61 -206 91l53 221q282 -52 374 -166q75 -92 73 -241v-89v-53z" />
    <glyph glyph-name="asciitilde" unicode="~" horiz-adv-x="1429" 
d="M1206 844l119 -90q-45 -82 -86 -136q-62 -82 -176 -123q-79 -28 -338 46q-8 4 -19 6t-67 20t-95 28q-38 9 -79 19t-57 8q-75 -7 -95 -21q-59 -42 -88 -81l-121 90q106 190 241 221q95 24 178 10q84 -13 192 -46t159 -49q52 -16 106 -23q54 -8 77 -5t53 20t48 39
q17 22 48 67z" />
    <glyph glyph-name="exclamdown" unicode="&#xa1;" horiz-adv-x="534" 
d="M391 -410h-252v963h252v-963zM119 898q0 62 43 106q42 44 106 43q64 0 105 -41q41 -42 41 -106t-43 -106t-105 -42t-104 42q-43 42 -43 104z" />
    <glyph glyph-name="cent" unicode="&#xa2;" horiz-adv-x="1038" 
d="M614 186q78 0 153 30t122 67l92 -189q-47 -45 -127 -79t-164 -46v-174h-244v185q-180 43 -272 181t-92 353t92 353t272 182v186h244v-176q184 -27 291 -125l-92 -189q-127 94 -275 97q-114 0 -180 -84t-66 -244t66 -244t180 -84z" />
    <glyph glyph-name="sterling" unicode="&#xa3;" horiz-adv-x="1155" 
d="M563 1012v-146h191v-258h-191v-145q0 -119 -78 -203h596v-260h-975v260q68 0 122 60t55 153v135h-177v258h177v209q0 127 56 217t142 130q176 82 390 48q95 -14 169 -47l-71 -239q-82 42 -164 42t-130 -20q-48 -18 -80 -67t-32 -127z" />
    <glyph glyph-name="yen" unicode="&#xa5;" horiz-adv-x="1316" 
d="M1040 668v-181h-235v-118h235v-183h-235v-186h-293v186h-242v183h242v118h-242v181h242l-492 766h308l331 -521l330 521h307l-491 -766h235z" />
    <glyph glyph-name="brokenbar" unicode="&#xa6;" horiz-adv-x="686" 
d="M463 -348h-240v676h240v-676zM463 963h-240v675h240v-675z" />
    <glyph glyph-name="section" unicode="&#xa7;" horiz-adv-x="1216" 
d="M387 544q0 -60 43 -98t119 -65q121 -37 202 -2t80 133q0 61 -48 99t-132 69q-160 31 -226 -37q-38 -39 -38 -99zM420 1108q0 -46 30 -70t48 -36t49 -25q31 -11 49 -19t133 -44t174 -71q116 -68 165 -143q48 -75 48 -182q0 -203 -201 -287q166 -109 166 -282
q0 -123 -58 -207q-57 -84 -153 -120q-197 -74 -454 -25q-121 23 -234 67l92 217q140 -78 324 -85q84 -3 141 35t57 110t-78 112q-76 38 -236 87t-268 140q-109 91 -112 255q0 109 50 179t161 113q-176 121 -176 277q1 123 59 207t152 120q195 75 455 25q120 -22 233 -67
l-94 -224q-139 81 -321 88q-84 4 -143 -32q-58 -37 -58 -113z" />
    <glyph glyph-name="dieresis" unicode="&#xa8;" horiz-adv-x="770" 
d="M623 1671q61 0 104 -42t43 -104q0 -63 -43 -105t-104 -42t-106 43q-44 43 -44 105t44 103q45 42 106 42zM151 1671q62 0 104 -42t42 -104q0 -63 -42 -105t-104 -42t-107 43q-44 43 -44 105t44 103q45 42 107 42z" />
    <glyph glyph-name="copyright" unicode="&#xa9;" horiz-adv-x="1691" 
d="M852 1106q74 0 153 -27t117 -67l-59 -152q-38 29 -105 51q-67 21 -100 21q-164 0 -164 -215t164 -215q64 0 125 28q62 28 80 43l59 -151q-40 -41 -118 -68t-152 -26q-180 0 -272 102t-92 286t92 288q92 102 272 102zM848 1346q-266 0 -446 -184t-181 -445
q0 -261 179 -445q178 -184 444 -184t446 183t180 448q0 170 -80 313q-80 142 -224 228t-318 86zM849 1458q204 0 374 -99t267 -269t97 -370t-98 -371t-269 -272t-375 -101t-375 98q-171 100 -268 270q-98 170 -98 370t98 370t271 272q172 102 376 102z" />
    <glyph glyph-name="guillemotleft" unicode="&#xab;" horiz-adv-x="1157" 
d="M1077 850l-229 -340l229 -346l-184 -121l-338 467l338 461zM594 850l-229 -340l229 -346l-182 -121l-338 467l338 461z" />
    <glyph glyph-name="registered" unicode="&#xae;" horiz-adv-x="763" 
d="M340 1126h22q62 0 78 10t16 44q0 35 -20 46t-74 11h-22v-111zM375 1311q170 -1 170 -137q0 -70 -68 -103l84 -145h-92l-72 127h-57v-127h-86v385h121zM381 811q127 0 215 90t88 216t-87 215t-214 89t-214 -89t-87 -215t86 -216t213 -90zM383 1475q150 -1 253 -105
t103 -252t-104 -254t-253 -106t-252 105t-103 253t103 253q103 106 253 106z" />
    <glyph glyph-name="macron" unicode="&#xaf;" horiz-adv-x="743" 
d="M743 1462h-743v176h743v-176z" />
    <glyph glyph-name="degree" unicode="&#xb0;" horiz-adv-x="739" 
d="M372 1544q-54 0 -90 -37t-36 -92t36 -92t77 -37q99 0 131 81t-27 140q-37 37 -91 37zM373 1677q100 0 178 -78t78 -184t-78 -184t-181 -78t-181 78q-77 78 -77 183t81 184q80 79 180 79z" />
    <glyph glyph-name="plusminus" unicode="&#xb1;" horiz-adv-x="1277" 
d="M127 236h1024v-236h-1024v236zM1151 942v-235h-395v-314h-234v314h-395v235h395v311h234v-311h395z" />
    <glyph glyph-name="acute" unicode="&#xb4;" horiz-adv-x="516" 
d="M209 1341h-209l246 297h270z" />
    <glyph glyph-name="paragraph" unicode="&#xb6;" horiz-adv-x="1204" 
d="M1077 1434v-1434h-291v481h-145q-262 0 -411 119q-148 119 -148 335t154 357t405 142h436z" />
    <glyph glyph-name="periodcentered" unicode="&#xb7;" horiz-adv-x="505" 
d="M253 803q62 0 104 -42q42 -41 42 -93q0 -95 -71 -139q-33 -19 -84 -19t-94 43t-44 104q0 61 42 104q43 42 105 42z" />
    <glyph glyph-name="cedilla" unicode="&#xb8;" horiz-adv-x="450" 
d="M451 -256q-1 -72 -61 -125t-171 -53q-55 0 -122 18t-97 43l51 129q82 -66 183 -72t102 68q0 59 -62 60q-43 0 -69 -31l-107 47l64 172h131l-47 -113q27 21 81 21t89 -46t35 -118z" />
    <glyph glyph-name="guillemotright" unicode="&#xbb;" horiz-adv-x="1157" 
d="M1085 510l-337 -467l-185 121l230 346l-230 340l185 121zM602 510l-338 -467l-182 121l229 346l-229 340l182 121z" />
    <glyph glyph-name="questiondown" unicode="&#xbf;" horiz-adv-x="976" 
d="M412 655h280v-362q-154 0 -253 -53t-99 -156q0 -178 207 -178q166 0 303 82l94 -234q-217 -90 -432 -92t-333 111t-119 285q0 172 106 280q106 106 246 123v194zM410 998q0 62 42 106t104 43q62 0 106 -43q44 -42 43 -94q0 -52 -21 -85q-43 -73 -139 -73q-51 0 -93 42
t-42 104z" />
    <glyph glyph-name="Agrave" unicode="&#xc0;" horiz-adv-x="1486" 
d="M924 483l-181 400l-178 -400h359zM1028 248h-569l-111 -248h-315l710 1475l711 -1475h-315zM662 1546l-295 297h256l245 -297h-206z" />
    <glyph glyph-name="Aacute" unicode="&#xc1;" horiz-adv-x="1486" 
d="M743 883l-178 -400h359zM459 248l-111 -248h-315l710 1475l711 -1475h-315l-111 248h-569zM815 1546h-209l246 297h270z" />
    <glyph glyph-name="Acircumflex" unicode="&#xc2;" horiz-adv-x="1486" 
d="M743 883l-178 -400h359zM459 248l-111 -248h-315l710 1475l711 -1475h-315l-111 248h-569zM1110 1546h-195l-165 185l-166 -185h-197l240 297h243z" />
    <glyph glyph-name="Atilde" unicode="&#xc3;" horiz-adv-x="1486" 
d="M743 883l-178 -400h359zM459 248l-111 -248h-315l710 1475l711 -1475h-315l-111 248h-569zM1049 1849l77 -51q-79 -179 -140 -205q-62 -26 -118 -17t-105 25q-48 17 -83 27t-48 14q-99 30 -131 -4t-55 -71l-77 49q73 174 168 196q95 21 198 -18t146 -51t77 -1
q34 12 48 32t43 75z" />
    <glyph glyph-name="Adieresis" unicode="&#xc4;" horiz-adv-x="1486" 
d="M743 883l-178 -400h359zM459 248l-111 -248h-315l710 1475l711 -1475h-315l-111 248h-569zM1122 1730q0 -62 -42 -104t-103 -43q-61 0 -106 43q-44 42 -44 94t20 85q40 71 140 71q51 0 93 -42t42 -104zM515 1876q52 0 94 -42t42 -104t-42 -104t-104 -43q-62 0 -107 43
q-44 42 -44 94t20 84q41 72 141 72z" />
    <glyph glyph-name="Aring" unicode="&#xc5;" horiz-adv-x="1486" 
d="M924 483l-181 400l-178 -400h359zM662 1661q0 -37 26 -62t61 -25t59 26q24 24 23 61q1 37 -23 61t-60 25q-36 -1 -60 -25q-26 -24 -26 -61zM545 1650q0 129 102 187q47 27 115 27t126 -60t58 -143q0 -84 -57 -142t-137 -61l702 -1458h-315l-111 248h-569l-111 -248h-315
l702 1458q-78 6 -134 66t-56 126z" />
    <glyph glyph-name="AE" unicode="&#xc6;" horiz-adv-x="2076" 
d="M1055 502v471l-346 -471h346zM1348 1161v-301h589v-258h-589v-330h647v-272h-940v254h-529l-186 -254h-338l1053 1434h940v-273h-647z" />
    <glyph glyph-name="Ccedilla" unicode="&#xc7;" horiz-adv-x="1439" 
d="M514 -260q0 -72 -60 -125t-171 -53q-55 0 -122 18t-98 43l52 129q81 -66 183 -72t101 68q0 59 -61 59q-43 0 -70 -30l-108 47l63 172h133l-47 -113q27 21 80 21t89 -46t36 -118zM819 -31q-264 0 -426 109q-293 196 -297 639q0 350 190 549t507 198q175 0 331 -74
t256 -214l-221 -179q-55 81 -157 137t-220 56t-210 -60q-176 -114 -177 -413q0 -360 256 -451q173 -60 348 34q105 56 160 136l221 -174q-102 -141 -259 -217t-302 -76z" />
    <glyph glyph-name="Egrave" unicode="&#xc8;" horiz-adv-x="1273" 
d="M442 860h684v-258h-684v-330h742v-272h-1034v1434h1034v-273h-742v-301zM883 1546h-207l-295 297h256z" />
    <glyph glyph-name="Eacute" unicode="&#xc9;" horiz-adv-x="1273" 
d="M442 1161v-301h684v-258h-684v-330h742v-272h-1034v1434h1034v-273h-742zM713 1546h-207l246 297h268z" />
    <glyph glyph-name="Ecircumflex" unicode="&#xca;" horiz-adv-x="1273" 
d="M442 860h684v-258h-684v-330h742v-272h-1034v1434h1034v-273h-742v-301zM1055 1546h-195l-166 185l-166 -185h-196l239 297h244z" />
    <glyph glyph-name="Edieresis" unicode="&#xcb;" horiz-adv-x="1273" 
d="M442 860h684v-260h-684v-328h742v-272h-1034v1434h1034v-273h-742v-301zM921 1876q62 0 104 -42t42 -104t-42 -104t-103 -43q-61 0 -106 43q-44 42 -44 104t43 104q44 42 106 42zM450 1876q62 0 104 -42t42 -104t-42 -104t-104 -43q-62 0 -107 43q-44 42 -44 104t44 104
q45 42 107 42z" />
    <glyph glyph-name="Igrave" unicode="&#xcc;" horiz-adv-x="612" 
d="M160 0v1434h293v-1434h-293zM416 1546h-209l-295 297h258z" />
    <glyph glyph-name="Iacute" unicode="&#xcd;" horiz-adv-x="612" 
d="M453 0h-293v1434h293v-1434zM365 1546h-209l245 297h271z" />
    <glyph glyph-name="Icircumflex" unicode="&#xce;" horiz-adv-x="612" 
d="M160 0v1434h293v-1434h-293zM676 1546h-197l-166 185l-166 -185h-196l239 297h246z" />
    <glyph glyph-name="Idieresis" unicode="&#xcf;" horiz-adv-x="612" 
d="M160 0v1434h293v-1434h-293zM542 1876q62 0 104 -42t42 -104t-43 -104t-104 -43q-61 0 -106 43q-44 42 -44 104t44 104q45 42 107 42zM69 1876q62 0 104 -42t42 -104t-42 -104t-104 -43q-62 0 -107 43q-44 42 -44 104t44 104q45 42 107 42z" />
    <glyph glyph-name="Eth" unicode="&#xd0;" horiz-adv-x="1476" 
d="M641 274q443 0 440 441q0 258 -133 356q-118 88 -307 88h-197v-336h291v-233h-291v-316h197zM150 1434h491q181 0 323 -56q270 -105 369 -381q47 -129 47 -293t-56 -304q-56 -138 -158 -224q-208 -176 -525 -176h-491v1434z" />
    <glyph glyph-name="Ntilde" unicode="&#xd1;" horiz-adv-x="1484" 
d="M440 0h-293v1487l900 -875v822h292v-1487l-899 870v-817zM1049 1849l77 -51q-78 -178 -141 -205q-63 -26 -118 -17q-56 9 -105 25q-171 58 -209 55t-52 -18q-41 -43 -55 -71l-77 49q73 174 168 196q95 21 198 -18t146 -51t77 -1q34 12 48 32t43 75z" />
    <glyph glyph-name="Ograve" unicode="&#xd2;" horiz-adv-x="1632" 
d="M817 1192q-203 0 -311 -124t-109 -351q0 -227 109 -351q108 -124 310 -124t310 124t109 351q0 304 -191 419q-94 56 -227 56zM816 1464q171 0 310 -60q260 -112 364 -404q48 -134 48 -296t-58 -304q-110 -273 -385 -381q-129 -50 -305 -50t-338 86t-259 258
q-98 172 -99 404q0 304 185 522q88 105 227 165t310 60zM942 1546h-209l-295 297h258z" />
    <glyph glyph-name="Oacute" unicode="&#xd3;" horiz-adv-x="1632" 
d="M817 1192q-203 0 -311 -124t-109 -351q0 -227 109 -351q108 -124 310 -124t310 124t109 351q0 304 -191 419q-94 56 -227 56zM816 1464q171 0 310 -60q260 -112 364 -404q48 -134 48 -296t-58 -304q-110 -273 -385 -381q-130 -50 -280 -50q-305 0 -509 196
q-97 93 -154 235q-58 142 -58 304q-1 316 185 535q88 105 227 165t310 60zM874 1546h-208l245 297h271z" />
    <glyph glyph-name="Ocircumflex" unicode="&#xd4;" horiz-adv-x="1632" 
d="M817 1192q-203 0 -311 -124t-109 -351q0 -227 109 -351q108 -124 310 -124t310 124t109 351q0 304 -191 419q-94 56 -227 56zM816 1464q171 0 310 -60q260 -112 364 -404q48 -134 48 -296t-58 -304q-110 -273 -385 -381q-130 -50 -280 -50q-305 0 -509 196
q-97 93 -154 235q-58 142 -58 304q-1 316 185 535q88 105 227 165t310 60zM1184 1546h-197l-166 185l-166 -185h-194l237 297h246z" />
    <glyph glyph-name="Otilde" unicode="&#xd5;" horiz-adv-x="1632" 
d="M817 1192q-203 0 -311 -124t-109 -351q0 -227 109 -351q108 -124 310 -124t310 124t109 351q0 304 -191 419q-94 56 -227 56zM816 1464q171 0 310 -60q260 -112 364 -404q48 -134 48 -296t-58 -304q-110 -273 -385 -381q-130 -50 -280 -50q-305 0 -509 196
q-97 93 -154 235q-58 142 -58 304q-1 316 185 535q88 105 227 165t310 60zM1122 1849l78 -51q-78 -178 -141 -205q-63 -26 -121 -17q-59 9 -104 26q-45 16 -72 24t-40 12q-87 27 -122 12t-52 -38q-17 -24 -28 -45l-78 49q73 174 169 196t198 -18q102 -39 145 -51t76 -1
q33 12 48 32t44 75z" />
    <glyph glyph-name="Odieresis" unicode="&#xd6;" horiz-adv-x="1632" 
d="M817 1192q-203 0 -311 -124t-109 -351q0 -227 109 -351q108 -124 310 -124t310 124t109 351q0 304 -191 419q-94 56 -227 56zM816 1464q171 0 310 -60q260 -112 364 -404q48 -134 48 -296t-58 -304q-110 -273 -385 -381q-130 -50 -280 -50q-305 0 -509 196
q-97 93 -154 235q-58 142 -58 304q-1 316 185 535q88 105 227 165t310 60zM1050 1876q62 0 104 -42t42 -104t-42 -104t-104 -43q-62 0 -107 43q-44 42 -44 104t44 104q45 42 107 42zM577 1876q62 0 104 -42t42 -104t-42 -104t-104 -43q-62 0 -107 43q-44 42 -44 104t44 104
q45 42 107 42z" />
    <glyph glyph-name="multiply" unicode="&#xd7;" horiz-adv-x="1302" 
d="M1001 1141l166 -168l-868 -869l-166 168z" />
    <glyph glyph-name="Oslash" unicode="&#xd8;" horiz-adv-x="1685" 
d="M1235 717q0 178 -68 295l-510 -746q72 -25 160 -24q201 0 309 124t109 351zM817 1192q-203 0 -311 -124t-109 -336q0 -212 82 -331l518 758q-80 33 -180 33zM1538 717q0 -173 -58 -317q-110 -273 -385 -381q-130 -50 -290 -50t-305 66l-135 -199h-271l219 322
q-219 207 -219 559q0 304 185 522q88 105 227 165t319 60t330 -73l166 243h270l-256 -374q203 -215 203 -543z" />
    <glyph glyph-name="Ugrave" unicode="&#xd9;" horiz-adv-x="1454" 
d="M1323 1434v-813q0 -311 -153 -481q-152 -170 -444 -171q-292 0 -444 169t-151 480v816h293v-775q0 -223 68 -324t236 -101t235 100q68 102 67 325v775h293zM842 1546h-209l-295 297h258z" />
    <glyph glyph-name="Uacute" unicode="&#xda;" horiz-adv-x="1454" 
d="M1323 1434v-813q0 -311 -153 -481q-152 -170 -444 -171q-292 0 -444 169t-151 480v816h293v-775q0 -223 68 -324t236 -101t235 100q68 102 67 325v775h293zM774 1546h-207l246 297h268z" />
    <glyph glyph-name="Ucircumflex" unicode="&#xdb;" horiz-adv-x="1454" 
d="M1323 1434v-813q0 -311 -153 -481q-152 -170 -444 -171q-292 0 -444 169t-151 480v816h293v-775q0 -223 68 -324t236 -101t235 100q68 102 67 325v775h293zM1102 1546h-197l-166 185l-166 -185h-196l239 297h246z" />
    <glyph glyph-name="Udieresis" unicode="&#xdc;" horiz-adv-x="1454" 
d="M1323 1434v-813q0 -311 -153 -481q-152 -170 -444 -171q-292 0 -444 169t-151 480v816h293v-775q0 -223 68 -324t236 -101t235 100q68 102 67 325v775h293zM967 1876q61 0 104 -42t43 -104t-43 -104t-104 -43q-61 0 -106 43q-44 42 -44 104t44 104q45 42 106 42z
M495 1876q62 0 104 -42t42 -104t-42 -104t-104 -43q-62 0 -107 43q-44 42 -44 104t44 104q45 42 107 42z" />
    <glyph glyph-name="Yacute" unicode="&#xdd;" horiz-adv-x="1396" 
d="M846 0h-293v606l-541 828h320l366 -570l367 570h319l-538 -828v-606zM766 1546h-207l246 297h268z" />
    <glyph glyph-name="Thorn" unicode="&#xde;" horiz-adv-x="1214" 
d="M420 500h186q133 0 182 51t50 158q0 167 -157 210q-67 17 -167 17h-94v-436zM420 1194h106q308 0 456 -131t148 -361t-138 -346q-138 -115 -376 -114h-196v-242h-293v1434h293v-240z" />
    <glyph glyph-name="germandbls" unicode="&#xdf;" horiz-adv-x="1310" 
d="M127 0v1020q0 158 101 289q52 65 148 105t227 40t235 -44t157 -121t53 -163t-33 -152q-65 -125 -165 -157q147 -18 263 -128q42 -40 72 -103q55 -116 12 -264q-17 -60 -63 -120q-96 -126 -298 -174q-113 -28 -256 -28v260q200 0 285 70q49 37 51 126t-92 145t-244 56v228
q20 0 58 13q130 45 130 163q0 93 -63 119q-48 20 -93 20q-193 0 -192 -233v-967h-293z" />
    <glyph glyph-name="agrave" unicode="&#xe0;" horiz-adv-x="1122" 
d="M344 344q0 -166 154 -166q56 0 122 28t115 79v161q-125 55 -237 56q-68 0 -111 -42t-43 -116zM621 1051q201 1 293 -97t94 -256v-698h-244q-23 53 -29 102q-47 -59 -125 -98t-172 -39q-174 -1 -274 105t-100 249t89 250q90 107 285 107q143 0 297 -55v20q0 111 -45 154
t-129 43q-163 -1 -319 -97l-99 189q82 49 213 85t265 36zM735 1341h-207l-295 297h256z" />
    <glyph glyph-name="aacute" unicode="&#xe1;" horiz-adv-x="1122" 
d="M344 344q0 -166 154 -166q56 0 122 28t115 79v161q-125 55 -237 56q-68 0 -111 -42t-43 -116zM621 1051q201 1 293 -97t94 -256v-698h-244q-23 53 -29 102q-47 -59 -125 -98t-172 -39q-174 -1 -274 105t-100 249t89 250q90 107 285 107q143 0 297 -55v20q0 111 -45 154
t-129 43q-163 -1 -319 -97l-99 189q82 49 213 85t265 36zM666 1341h-207l246 297h268z" />
    <glyph glyph-name="acircumflex" unicode="&#xe2;" horiz-adv-x="1122" 
d="M344 344q0 -166 154 -166q56 0 122 28t115 79v161q-125 55 -237 56q-68 0 -111 -42t-43 -116zM621 1051q201 1 293 -97t94 -256v-698h-244q-23 53 -29 102q-47 -59 -125 -98t-172 -39q-174 -1 -274 105t-100 249t89 250q90 107 285 107q143 0 297 -55v20q0 111 -45 154
t-129 43q-163 -1 -319 -97l-99 189q82 49 213 85t265 36zM408 1341h-197l240 297h245l240 -297h-197l-166 185z" />
    <glyph glyph-name="atilde" unicode="&#xe3;" horiz-adv-x="1122" 
d="M344 344q0 -166 154 -166q56 0 122 28t115 79v161q-125 55 -237 56q-68 0 -111 -42t-43 -116zM621 1051q201 1 293 -97t94 -256v-698h-244q-23 53 -29 102q-47 -59 -125 -98t-172 -39q-174 -1 -274 105t-100 249t89 250q90 107 285 107q143 0 297 -55v20q0 111 -45 154
t-129 43q-163 -1 -319 -97l-99 189q82 49 213 85t265 36zM872 1645l78 -52q-79 -179 -140 -205t-119 -17t-105 26q-47 16 -82 26q-35 11 -48 15q-94 33 -128 -2q-34 -34 -58 -74l-77 49q73 174 170 196t199 -18q100 -39 144 -51t76 -1t47 32q14 21 43 76z" />
    <glyph glyph-name="adieresis" unicode="&#xe4;" horiz-adv-x="1122" 
d="M344 344q0 -166 154 -166q56 0 122 28t115 79v161q-125 55 -237 56q-68 0 -111 -42t-43 -116zM621 1051q201 1 293 -97t94 -256v-698h-244q-23 53 -29 102q-47 -59 -125 -98t-172 -39q-174 -1 -274 105t-100 249t89 250q90 107 285 107q143 0 297 -55v20q0 111 -45 154
t-129 43q-163 -1 -319 -97l-99 189q82 49 213 85t265 36zM801 1671q61 0 104 -42t43 -104q0 -63 -43 -105t-104 -42t-106 43q-44 43 -44 105t44 103q45 42 106 42zM329 1671q62 0 104 -42t42 -104q0 -63 -42 -105t-104 -42t-107 43q-44 43 -44 105t44 103q45 42 107 42z" />
    <glyph glyph-name="aring" unicode="&#xe5;" horiz-adv-x="1122" 
d="M344 344q0 -166 154 -166q56 0 122 28t115 79v161q-125 55 -237 56q-68 0 -111 -42t-43 -116zM621 1051q201 1 293 -97t94 -256v-698h-244q-23 53 -29 102q-47 -59 -125 -98t-172 -39q-174 -1 -274 105t-100 249t89 250q90 107 285 107q143 0 297 -55v20q0 111 -45 154
t-129 43q-163 -1 -319 -97l-99 189q82 49 213 85t265 36zM572 1542q-36 0 -62 -24t-25 -62q0 -38 26 -62q25 -24 61 -24t61 25t25 61t-25 62q-25 24 -61 24zM586 1659q68 1 126 -59t58 -130q0 -130 -98 -190q-45 -27 -113 -27q-68 1 -129 61t-61 128t28 117q62 100 189 100z
" />
    <glyph glyph-name="ae" unicode="&#xe6;" horiz-adv-x="1804" 
d="M514 178q90 0 177 58q48 31 81 71q-23 68 -29 144q-121 51 -209 51t-131 -42t-43 -116q0 -166 154 -166zM1010 567h463q-9 125 -63 193t-166 68q-212 0 -234 -261zM1722 387h-706q20 -94 78 -150q58 -57 141 -57q82 0 158 27t120 53l107 -186q-70 -47 -167 -79t-185 -32
q-272 0 -416 189q-172 -186 -397 -187q-175 -1 -275 105t-100 251t83 250t279 105q147 0 308 -58l2 7q-4 125 -48 170t-126 45q-164 0 -320 -99l-98 189q82 49 213 84t264 35q201 0 303 -103q133 102 307 103q314 0 416 -269q59 -154 59 -393z" />
    <glyph glyph-name="ccedilla" unicode="&#xe7;" horiz-adv-x="1019" 
d="M483 -29q-409 66 -409 559q0 244 134 390t394 145q141 0 267 -61q65 -31 104 -70l-92 -189q-127 94 -275 97q-114 0 -180 -84t-66 -244t66 -244t180 -84q78 0 153 30t122 67l92 -189q-57 -57 -163 -93t-200 -38l-37 -86q27 21 80 21t89 -46t36 -118t-60 -125t-171 -53
q-55 0 -122 18t-97 43l51 129q82 -66 183 -72t102 68q0 59 -62 59q-43 0 -70 -30l-106 47z" />
    <glyph glyph-name="egrave" unicode="&#xe8;" horiz-adv-x="1128" 
d="M352 567h447q-5 127 -55 194t-171 66q-205 0 -221 -260zM940 74q-160 -111 -374 -111q-110 0 -212 46q-181 81 -251 296q-30 94 -29 201q0 248 137 394t356 147q273 0 381 -176q107 -176 107 -484h-695q20 -127 110 -180q46 -27 108 -27q125 0 266 80zM725 1341h-207
l-295 297h256z" />
    <glyph glyph-name="eacute" unicode="&#xe9;" horiz-adv-x="1128" 
d="M352 567h447q-5 127 -55 194t-171 66q-205 0 -221 -260zM940 74q-160 -111 -374 -111q-110 0 -212 46q-181 81 -251 296q-30 94 -29 201q0 248 137 394t356 147q273 0 381 -176q107 -176 107 -484h-695q20 -127 110 -180q46 -27 108 -27q125 0 266 80zM643 1341h-207
l246 297h268z" />
    <glyph glyph-name="ecircumflex" unicode="&#xea;" horiz-adv-x="1128" 
d="M352 567h447q-5 127 -55 194t-171 66q-205 0 -221 -260zM940 74q-160 -111 -374 -111q-110 0 -212 46q-181 81 -251 296q-30 94 -29 201q0 248 137 394t356 147q273 0 381 -176q107 -176 107 -484h-695q20 -127 110 -180q46 -27 108 -27q125 0 266 80zM934 1341h-195
l-168 185l-165 -185h-195l240 297h243z" />
    <glyph glyph-name="edieresis" unicode="&#xeb;" horiz-adv-x="1128" 
d="M352 567h447q-5 127 -55 194t-171 66q-205 0 -221 -260zM940 74q-160 -111 -374 -111q-110 0 -212 46q-181 81 -251 296q-30 94 -29 201q0 248 137 394t356 147q273 0 381 -176q107 -176 107 -484h-695q20 -127 110 -180q46 -27 108 -27q125 0 266 80zM800 1671
q62 0 104 -42t42 -104q0 -63 -42 -105t-104 -42t-107 43q-44 43 -44 105t44 103q45 42 107 42zM327 1671q62 0 104 -42t42 -88q0 -117 -87 -151q-71 -28 -138 10q-67 37 -69 112q-1 75 42 117q44 42 106 42z" />
    <glyph glyph-name="igrave" unicode="&#xec;" horiz-adv-x="557" 
d="M139 0v1024h281v-1024h-281zM383 1341h-209l-295 297h258z" />
    <glyph glyph-name="iacute" unicode="&#xed;" horiz-adv-x="557" 
d="M139 0v1024h281v-1024h-281zM334 1341h-209l246 297h270z" />
    <glyph glyph-name="icircumflex" unicode="&#xee;" horiz-adv-x="557" 
d="M139 0v1024h281v-1024h-281zM645 1341h-194l-166 185l-166 -185h-197l240 297h244z" />
    <glyph glyph-name="idieresis" unicode="&#xef;" horiz-adv-x="557" 
d="M139 0v1024h281v-1024h-281zM511 1671q62 0 104 -42t42 -104q0 -63 -42 -105t-103 -42t-105 43q-45 43 -45 105t44 103q44 42 105 42zM40 1671q62 0 104 -42t42 -104q0 -63 -42 -105t-104 -42t-107 43q-44 43 -44 105t44 103q45 42 107 42z" />
    <glyph glyph-name="eth" unicode="&#xf0;" horiz-adv-x="1214" 
d="M593 215q208 0 208 288t-208 288t-208 -288t208 -288zM593 -37q-241 1 -371 149t-130 394q0 156 58 278q125 262 444 263q55 0 102 -9q-27 59 -73 121l-291 -72l-51 183l184 43q-66 51 -129 73l252 101q78 -43 147 -109l215 54l51 -181l-129 -32q104 -147 162 -329
t62 -368q0 -260 -131 -410t-372 -149z" />
    <glyph glyph-name="ntilde" unicode="&#xf1;" 
d="M123 1024h250q18 -37 26 -137q66 72 167 118t204 46q170 1 260 -103t90 -270v-678h-280v594q0 135 -69 184q-69 50 -168 18t-200 -122v-674h-280v1024zM922 1645l77 -52q-51 -114 -79 -146t-46 -49q-27 -25 -84 -31t-184 40q-20 6 -54 16q-34 11 -48 15q-95 31 -131 -6
q-36 -36 -54 -70l-77 49q73 174 168 196q95 21 198 -18t146 -51q44 -12 76 -1t48 32q15 21 44 76z" />
    <glyph glyph-name="ograve" unicode="&#xf2;" horiz-adv-x="1173" 
d="M587 819q-114 0 -172 -87q-59 -87 -59 -227q0 -141 58 -229t173 -88q114 0 172 88t58 228t-58 228q-58 87 -172 87zM588 -37q-242 1 -378 149t-136 399t142 393t378 143q236 -1 371 -149t135 -392q0 -334 -236 -474q-117 -70 -276 -69zM715 1341h-207l-295 297h256z" />
    <glyph glyph-name="oacute" unicode="&#xf3;" horiz-adv-x="1173" 
d="M587 819q-114 0 -172 -87q-59 -87 -59 -227q0 -141 58 -229t173 -88q114 0 172 88t58 228t-58 228q-58 87 -172 87zM588 -37q-242 1 -378 149t-136 399t142 393t378 143q236 -1 371 -149t135 -392q0 -334 -236 -474q-117 -70 -276 -69zM666 1341h-209l245 297h271z" />
    <glyph glyph-name="ocircumflex" unicode="&#xf4;" horiz-adv-x="1173" 
d="M587 819q-114 0 -172 -87q-59 -87 -59 -227q0 -141 58 -229t173 -88q114 0 172 88t58 228t-58 228q-58 87 -172 87zM588 -37q-242 1 -378 149t-136 399t142 393t378 143q236 -1 371 -149t135 -392q0 -334 -236 -474q-117 -70 -276 -69zM954 1341h-194l-168 185l-166 -185
h-195l240 297h244z" />
    <glyph glyph-name="otilde" unicode="&#xf5;" horiz-adv-x="1173" 
d="M587 819q-114 0 -172 -87q-59 -87 -59 -227q0 -141 58 -229t173 -88q114 0 172 88t58 228t-58 228q-58 87 -172 87zM588 -37q-242 1 -378 149t-136 399t142 393t378 143q236 -1 371 -149t135 -392q0 -334 -236 -474q-117 -70 -276 -69zM893 1645l78 -52
q-78 -178 -140 -205t-120 -17t-106 26q-47 16 -81 26q-34 11 -49 15q-93 30 -130 -6q-37 -35 -54 -70l-78 49q73 174 168 196q95 21 198 -18t146 -51t77 -1t48 32t43 76z" />
    <glyph glyph-name="odieresis" unicode="&#xf6;" horiz-adv-x="1173" 
d="M587 819q-114 0 -172 -87q-59 -87 -59 -227q0 -141 58 -229t173 -88q114 0 172 88t58 228t-58 228q-58 87 -172 87zM588 -37q-242 1 -378 149t-136 399t142 393t378 143q236 -1 371 -149t135 -392q0 -334 -236 -474q-117 -70 -276 -69zM820 1671q62 0 104 -42t43 -104
q0 -63 -42 -105q-43 -42 -105 -42t-106 43t-44 105t44 103q44 42 106 42zM455 1422q-39 -42 -94 -43q-54 -1 -89 19t-54 53q-19 34 -19 75t19 73q41 72 140 72q52 0 94 -42t42 -104q0 -61 -39 -103z" />
    <glyph glyph-name="divide" unicode="&#xf7;" horiz-adv-x="1277" 
d="M786 207q0 -51 -18 -85q-37 -71 -113 -72q-75 -1 -118 42q-43 42 -43 94t19 85q40 71 138 71q51 0 93 -42t42 -93zM1151 518h-1024v234h1024v-234zM494 1075q0 87 72 127q34 18 85 19q51 0 93 -42q42 -41 42 -103t-42 -105t-103 -43t-104 43t-43 104z" />
    <glyph glyph-name="oslash" unicode="&#xf8;" horiz-adv-x="1249" 
d="M852 492q0 128 -39 208l-242 -507q25 -4 52 -5q113 0 171 88t58 216zM623 819q-117 0 -175 -87t-59 -219q0 -132 45 -214l244 514q-27 6 -55 6zM623 -37q-82 0 -152 19l-74 -158h-188l108 225q-102 70 -156 188t-55 269q0 256 144 398t373 143q84 0 157 -21l72 150h186
l-104 -220q199 -149 201 -450q0 -334 -236 -474q-117 -70 -276 -69z" />
    <glyph glyph-name="ugrave" unicode="&#xf9;" 
d="M1112 1024v-1024h-250q-18 37 -26 137q-66 -72 -167 -118t-210 -46q-109 -1 -189 49q-155 96 -155 324v678h280v-594q0 -135 69 -184q69 -50 168 -18t199 122v674h281zM537 1341l-295 297h256l245 -297h-206z" />
    <glyph glyph-name="uacute" unicode="&#xfa;" 
d="M1112 0h-250q-18 37 -26 137q-66 -72 -167 -118t-210 -46q-109 -1 -189 49q-155 96 -155 324v678h280v-594q0 -135 69 -184q69 -50 168 -18t199 122v674h281v-1024zM676 1341h-209l246 297h270z" />
    <glyph glyph-name="ucircumflex" unicode="&#xfb;" 
d="M1112 0h-250q-18 37 -26 137q-66 -72 -167 -118t-210 -46q-109 -1 -189 49q-155 96 -155 324v678h280v-594q0 -135 69 -184q69 -50 168 -18t199 122v674h281v-1024zM981 1341h-195l-168 185l-165 -185h-195l240 297h243z" />
    <glyph glyph-name="udieresis" unicode="&#xfc;" 
d="M1112 1024v-1024h-250q-18 37 -26 137q-66 -72 -167 -118t-210 -46q-109 -1 -189 49q-155 96 -155 324v678h280v-594q0 -135 69 -184q69 -50 168 -18t199 122v674h281zM993 1525q0 -63 -42 -105t-104 -42t-107 43q-44 43 -44 105t44 103q44 42 106 42t105 -42
q42 -42 42 -104zM520 1525q0 -63 -42 -105t-104 -42t-106 43q-43 43 -43 105t43 103q44 42 106 42t104 -42t42 -104z" />
    <glyph glyph-name="yacute" unicode="&#xfd;" horiz-adv-x="1181" 
d="M1145 1024l-473 -1120q-145 -353 -371 -361q-111 -4 -246 47l74 217q129 -57 190 -18t125 211l-407 1024h303l250 -678l278 678h277zM713 1341h-207l246 297h268z" />
    <glyph glyph-name="thorn" unicode="&#xfe;" horiz-adv-x="1232" 
d="M799 494q0 116 -19 183q-18 67 -63 107t-119 41t-136 -43t-97 -120v-287q76 -164 249 -164q90 0 138 83q47 84 47 200zM365 1495v-543q125 109 284 109q217 0 333 -150q116 -151 116 -393t-116 -392t-333 -149q-160 0 -284 113v-500h-293v1905h293z" />
    <glyph glyph-name="ydieresis" unicode="&#xff;" horiz-adv-x="1181" 
d="M1145 1024l-473 -1120q-145 -353 -371 -361q-111 -4 -246 47l74 217q129 -57 190 -18t125 211l-407 1024h303l250 -678l278 678h277zM840 1671q61 0 104 -42t43 -104q0 -63 -43 -105t-104 -42t-106 43q-44 43 -44 105t44 103q45 42 106 42zM378 1671q52 0 94 -42t42 -88
q0 -115 -88 -151q-71 -29 -139 10t-70 126q0 41 21 73q44 72 140 72z" />
    <glyph glyph-name="Amacron" unicode="&#x100;" horiz-adv-x="1486" 
d="M924 483l-181 400l-178 -400h359zM1028 248h-569l-111 -248h-315l710 1475l711 -1475h-315zM1112 1667h-743v176h743v-176z" />
    <glyph glyph-name="amacron" unicode="&#x101;" horiz-adv-x="1122" 
d="M344 344q0 -166 154 -166q56 0 122 28t115 79v161q-125 55 -237 56q-68 0 -111 -42t-43 -116zM621 1051q201 1 293 -97t94 -256v-698h-244q-23 53 -29 102q-47 -59 -125 -98t-172 -39q-174 -1 -274 105t-100 249t89 250q90 107 285 107q143 0 297 -55v20q0 111 -45 154
t-129 43q-163 -1 -319 -97l-99 189q82 49 213 85t265 36zM936 1462h-743v176h743v-176z" />
    <glyph glyph-name="Abreve" unicode="&#x102;" horiz-adv-x="1486" 
d="M743 883l-178 -400h359zM459 248l-111 -248h-315l710 1475l711 -1475h-315l-111 248h-569zM864 1843h156q0 -113 -71 -189t-205 -77q-134 0 -204 77t-69 189h156q-1 -77 27 -105t80 -28t78 11q52 22 52 122z" />
    <glyph glyph-name="abreve" unicode="&#x103;" horiz-adv-x="1122" 
d="M344 344q0 -166 154 -166q56 0 122 28t115 79v161q-125 55 -237 56q-68 0 -111 -42t-43 -116zM621 1051q201 1 293 -97t94 -256v-698h-244q-23 53 -29 102q-47 -59 -125 -98t-172 -39q-174 -1 -274 105t-100 249t89 250q90 107 285 107q143 0 297 -55v20q0 111 -45 154
t-129 43q-163 -1 -319 -97l-99 189q82 49 213 85t265 36zM688 1638h158q0 -114 -71 -190t-208 -76q-90 0 -153 39q-119 74 -119 227h158q1 -76 27 -104t90 -29q64 1 90 29q28 28 28 104z" />
    <glyph glyph-name="Aogonek" unicode="&#x104;" horiz-adv-x="1486" 
d="M924 481l-181 400l-178 -400h359zM1278 -211q0 -76 61 -78q31 -1 55 17t31 43l93 -90q-72 -111 -189 -111t-168 80q-27 42 -27 106t34 122t104 122h-133l-111 248h-569l-111 -248h-315l710 1475l711 -1475h-8q-70 -34 -119 -102t-49 -109z" />
    <glyph glyph-name="aogonek" unicode="&#x105;" horiz-adv-x="1122" 
d="M344 344q0 -168 154 -168q56 0 122 28t115 79v161q-125 55 -237 56q-68 0 -111 -41t-43 -115zM889 -430q-82 0 -136 47q-55 47 -55 125t33 136t103 122h-70q-23 53 -29 102q-47 -59 -125 -98t-172 -39q-174 -1 -274 105t-100 249t89 250q90 107 285 107q143 0 297 -55v20
q0 111 -45 154t-129 43q-164 0 -319 -97l-99 189q82 49 213 85t265 36q201 1 293 -97t94 -256v-698q-70 -34 -119 -102t-49 -109t18 -59t46 -18t52 16q24 18 31 43l92 -90q-72 -111 -190 -111z" />
    <glyph glyph-name="Cacute" unicode="&#x106;" horiz-adv-x="1439" 
d="M819 -31q-264 0 -426 109q-293 196 -297 639q0 350 190 549t507 198q175 0 331 -74t256 -214l-221 -179q-55 81 -157 137t-220 56t-210 -60q-176 -114 -177 -413q0 -360 256 -451q173 -60 348 34q105 56 160 136l221 -174q-102 -141 -259 -217t-302 -76zM844 1546h-209
l246 297h270z" />
    <glyph glyph-name="cacute" unicode="&#x107;" horiz-adv-x="1019" 
d="M360 514q0 -160 66 -244t180 -84q78 0 153 30t122 67l92 -189q-57 -57 -166 -94t-205 -37q-174 0 -294 68q-234 133 -234 483q0 260 134 406t394 145q141 0 267 -61q65 -31 104 -70l-92 -189q-127 94 -275 97q-114 0 -180 -84t-66 -244zM643 1341h-207l246 297h268z" />
    <glyph glyph-name="Cdotaccent" unicode="&#x10a;" horiz-adv-x="1439" 
d="M819 -31q-264 0 -426 109q-293 196 -297 639q0 350 190 549t507 198q239 0 425 -129q95 -66 162 -159l-221 -179q-55 81 -157 137t-220 56t-210 -60q-176 -114 -177 -413q0 -360 256 -451q173 -60 348 34q105 56 160 136l221 -174q-102 -141 -259 -217t-302 -76z
M793 1876q47 0 89 -42t42 -104t-42 -104t-104 -43q-62 0 -106 43q-43 44 -43 90t12 72q39 88 152 88z" />
    <glyph glyph-name="cdotaccent" unicode="&#x10b;" horiz-adv-x="1019" 
d="M360 514q0 -160 66 -244t180 -84q78 0 153 30t122 67l92 -189q-57 -57 -166 -94t-205 -37q-174 0 -294 68q-234 133 -234 483q0 260 134 406t394 145q141 0 267 -61q65 -31 104 -70l-92 -189q-127 94 -275 97q-114 0 -180 -84t-66 -244zM558 1671q62 0 104 -42t43 -104
q0 -63 -42 -105q-41 -42 -103 -42t-105 43t-43 105t42 103q42 42 104 42z" />
    <glyph glyph-name="Ccaron" unicode="&#x10c;" horiz-adv-x="1439" 
d="M819 -31q-264 0 -426 109q-293 196 -297 639q0 350 190 549t507 198q175 0 331 -74t256 -214l-221 -179q-55 81 -157 137t-220 56t-210 -60q-176 -114 -177 -413q0 -360 256 -451q173 -60 348 34q105 56 160 136l221 -174q-102 -141 -259 -217t-302 -76zM903 1546h-246
l-239 297h196l168 -184l164 184h197z" />
    <glyph glyph-name="ccaron" unicode="&#x10d;" horiz-adv-x="1019" 
d="M360 514q0 -160 66 -244t180 -84q78 0 153 30t122 67l92 -189q-57 -57 -166 -94t-205 -37q-174 0 -294 68q-234 133 -234 483q0 260 134 406t394 145q141 0 267 -61q65 -31 104 -70l-92 -189q-127 94 -275 97q-114 0 -180 -84t-66 -244zM684 1341h-244l-239 297h194
l168 -184l166 184h195z" />
    <glyph glyph-name="Dcaron" unicode="&#x10e;" horiz-adv-x="1476" 
d="M641 274q443 0 440 441q0 258 -133 356q-118 88 -307 88h-197v-885h197zM150 1434h491q181 0 323 -56q270 -105 369 -381q47 -129 47 -293t-56 -304q-56 -138 -158 -224q-208 -176 -525 -176h-491v1434zM559 1546l-240 297h195l168 -184l166 184h194l-239 -297h-244z" />
    <glyph glyph-name="dcaron" unicode="&#x10f;" horiz-adv-x="1658" 
d="M592 809q-104 0 -158 -81t-55 -222q0 -141 54 -222q55 -81 149 -81q189 0 274 159v287q-56 102 -160 142q-49 18 -104 18zM1137 0h-254q-23 59 -27 115q-141 -152 -344 -152q-204 0 -318 150q-114 151 -114 393t115 392t333 149q186 0 328 -156v584h281v-1475zM1288 1342
q0 60 43 102t105 43q62 0 105 -42q42 -42 42 -112t-135 -274h-84l57 137q-57 4 -95 45t-38 101z" />
    <glyph glyph-name="Dcroat" unicode="&#x110;" horiz-adv-x="1476" 
d="M641 274q443 0 440 441q0 258 -133 356q-118 88 -307 88h-197v-344h279v-178h-279v-363h197zM150 1434h491q181 0 323 -56q270 -105 369 -381q47 -129 47 -293t-56 -304q-56 -138 -158 -224q-208 -176 -525 -176h-491v637h-170v178h170v619z" />
    <glyph glyph-name="dcroat" unicode="&#x111;" horiz-adv-x="1257" 
d="M377 506q0 -141 55 -222q54 -81 148 -81q188 0 274 159v287q-86 160 -274 160q-92 0 -148 -81t-55 -222zM1346 1137h-211v-1137h-254q-20 59 -25 115q-141 -152 -344 -152q-202 0 -318 150q-116 151 -116 393t116 392t318 149q202 0 342 -156v246h-252v176h252v162h281
v-162h211v-176z" />
    <glyph glyph-name="Emacron" unicode="&#x112;" horiz-adv-x="1273" 
d="M442 860h684v-258h-684v-330h742v-272h-1034v1434h1034v-273h-742v-301zM1057 1667h-744v176h744v-176z" />
    <glyph glyph-name="emacron" unicode="&#x113;" horiz-adv-x="1128" 
d="M352 567h447q-5 127 -55 194t-171 66q-205 0 -221 -260zM940 74q-160 -111 -374 -111q-110 0 -212 46q-181 81 -251 296q-30 94 -29 201q0 248 137 394t356 147q273 0 381 -176q107 -176 107 -484h-695q20 -127 110 -180q46 -27 108 -27q125 0 266 80zM936 1462h-743v176
h743v-176z" />
    <glyph glyph-name="Edotaccent" unicode="&#x116;" horiz-adv-x="1273" 
d="M442 860h684v-260h-684v-328h742v-272h-1034v1434h1034v-273h-742v-301zM705 1876q47 0 89 -42t42 -104t-42 -104t-104 -43q-62 0 -104 43q-43 44 -43 90t11 72q36 88 151 88z" />
    <glyph glyph-name="edotaccent" unicode="&#x117;" horiz-adv-x="1128" 
d="M352 567h447q-5 127 -55 194t-171 66q-205 0 -221 -260zM940 74q-160 -111 -374 -111q-110 0 -212 46q-181 81 -251 296q-30 94 -29 201q0 248 137 394t356 147q273 0 381 -176q107 -176 107 -484h-695q20 -127 110 -180q46 -27 108 -27q125 0 266 80zM569 1671
q61 0 103 -42t43 -104q0 -63 -42 -105q-41 -42 -103 -42t-105 43t-43 105t43 103q43 42 104 42z" />
    <glyph glyph-name="Eogonek" unicode="&#x118;" horiz-adv-x="1273" 
d="M442 1161v-301h684v-260h-684v-328h742v-272h-76q-70 -36 -119 -104t-49 -109q0 -74 61 -76q31 -1 54 17t32 43l93 -90q-72 -111 -191 -111q-82 0 -137 47t-55 125t33 136q34 58 104 122h-784v1434h1034v-273h-742z" />
    <glyph glyph-name="eogonek" unicode="&#x119;" horiz-adv-x="1128" 
d="M352 567h447q-5 125 -55 193t-171 67q-205 0 -221 -260zM772 -134q0 -80 62 -81q28 0 52 17t34 42l92 -90q-72 -111 -191 -110q-82 0 -137 47t-55 129t45 151q-45 -8 -86 -8q-132 0 -234 46q-181 81 -251 296q-30 94 -29 201q0 248 137 394t356 147q273 0 381 -176
q107 -176 107 -484h-695q20 -127 110 -180q46 -27 108 -27q125 0 266 80l96 -186q-20 -14 -59 -41t-74 -83t-35 -84z" />
    <glyph glyph-name="Ecaron" unicode="&#x11a;" horiz-adv-x="1273" 
d="M442 860h684v-258h-684v-330h742v-272h-1034v1434h1034v-273h-742v-301zM815 1546h-244l-239 297h196l166 -184l166 184h195z" />
    <glyph glyph-name="ecaron" unicode="&#x11b;" horiz-adv-x="1128" 
d="M352 567h447q-5 127 -55 194t-171 66q-205 0 -221 -260zM940 74q-160 -111 -374 -111q-110 0 -212 46q-181 81 -251 296q-30 94 -29 201q0 248 137 394t356 147q273 0 381 -176q107 -176 107 -484h-695q20 -127 110 -180q46 -27 108 -27q125 0 266 80zM694 1341h-243
l-240 297h195l167 -184l166 184h195z" />
    <glyph glyph-name="Gbreve" unicode="&#x11e;" horiz-adv-x="1507" 
d="M1393 809v-547q-213 -293 -602 -293q-167 -1 -301 61t-219 168q-175 217 -175 519q0 172 57 315q107 274 372 381q126 51 266 51q395 0 602 -288l-203 -162q-66 86 -167 139t-220 53q-190 0 -300 -135t-110 -353t109 -353t294 -135t304 106v237h-256v236h549zM899 1843
h156q0 -113 -71 -189t-206 -77q-90 0 -153 39q-119 74 -119 227h156q0 -77 28 -105t79 -28q52 0 77 11q53 23 53 122z" />
    <glyph glyph-name="gbreve" unicode="&#x11f;" horiz-adv-x="1257" 
d="M377 518q0 -141 55 -222t165 -81t189 74q41 37 68 86v287q-86 159 -274 159q-92 0 -148 -81t-55 -222zM1135 1024v-950q-1 -264 -143 -402t-396 -137q-179 0 -341 64q-81 31 -120 67l92 207q59 -47 155 -77t209 -30q115 0 189 64q74 63 74 182v121q-139 -156 -328 -156
q-145 0 -247 72q-201 142 -201 469q0 244 116 394t317 149q201 0 345 -150q2 53 25 113h254zM762 1638h156q0 -114 -71 -190t-206 -76q-90 0 -154 39q-120 74 -118 227h155q0 -98 51 -121q25 -11 77 -11t81 28t29 104z" />
    <glyph glyph-name="Gdotaccent" unicode="&#x120;" horiz-adv-x="1507" 
d="M1393 809v-547q-213 -293 -602 -293q-167 -1 -301 61t-219 168q-175 217 -175 519q0 172 57 315q107 274 372 381q126 51 266 51q395 0 602 -288l-203 -162q-66 86 -167 139t-220 53q-190 0 -300 -135t-110 -353t109 -353t294 -135t304 106v237h-256v236h549zM795 1876
q47 0 89 -42t42 -104t-42 -104t-104 -43q-62 0 -104 43q-43 44 -43 90t11 72q36 88 151 88z" />
    <glyph glyph-name="gdotaccent" unicode="&#x121;" horiz-adv-x="1257" 
d="M377 518q0 -141 55 -222t165 -81t189 74q41 37 68 86v287q-86 159 -274 159q-92 0 -148 -81t-55 -222zM1135 1024v-950q-1 -264 -143 -402t-396 -137q-179 0 -341 64q-81 31 -120 67l92 207q59 -47 155 -77t209 -30q115 0 189 64q74 63 74 182v121q-139 -156 -328 -156
q-145 0 -247 72q-201 142 -201 469q0 244 116 394t317 149q201 0 345 -150q2 53 25 113h254zM653 1671q51 0 93 -42t42 -104q0 -63 -42 -105t-115 -42t-116 72q-19 34 -19 75q0 42 19 74q41 72 138 72z" />
    <glyph glyph-name="Gcommaaccent" unicode="&#x122;" horiz-adv-x="1507" 
d="M643 -408q0 60 43 102q44 42 106 42t104 -42t42 -113t-123 -273h-84l43 137q-55 4 -93 46t-38 101zM844 809h549v-547q-213 -293 -602 -293q-167 -1 -301 61t-219 168q-175 217 -175 519q0 172 57 315q107 274 372 381q126 51 266 51q395 0 602 -288l-203 -162
q-66 86 -167 139t-220 53q-190 0 -300 -135t-110 -353t109 -353t294 -135t304 106v237h-256v236z" />
    <glyph glyph-name="gcommaaccent" unicode="&#x123;" horiz-adv-x="1257" 
d="M377 518q0 -141 55 -222q54 -81 148 -81q187 0 274 160v287q-88 159 -262 159q-104 0 -160 -81t-55 -222zM1135 1024v-950q-1 -264 -143 -402t-396 -137q-123 0 -262 38t-199 93l92 207q59 -47 155 -77t209 -30q115 0 189 64q74 63 74 182v121q-139 -156 -328 -156
q-145 0 -247 72q-201 142 -201 469q0 244 116 394t317 149q201 0 345 -150q2 53 25 113h254zM807 1428q0 -70 -42 -112q-43 -42 -105 -42t-105 42t-43 102t38 102t95 47l-43 137h82q123 -206 123 -276z" />
    <glyph glyph-name="Hbar" unicode="&#x126;" horiz-adv-x="1523" 
d="M1083 1026h-643v-174h643v174zM1489 1026h-113v-1026h-293v594h-643v-594h-293v1026h-116v234h116v174h293v-174h643v174h293v-174h113v-234z" />
    <glyph glyph-name="hbar" unicode="&#x127;" 
d="M403 1130v-239q66 70 166 115t201 45q170 1 260 -103t90 -270v-678h-280v594q0 135 -69 184q-69 50 -168 18t-200 -122v-674h-280v1130h-197v177h197v168h280v-168h267v-177h-267z" />
    <glyph glyph-name="Imacron" unicode="&#x12a;" horiz-adv-x="612" 
d="M160 0v1434h293v-1434h-293zM676 1667h-744v176h744v-176z" />
    <glyph glyph-name="imacron" unicode="&#x12b;" horiz-adv-x="557" 
d="M139 0v1024h281v-1024h-281zM647 1462h-743v176h743v-176z" />
    <glyph glyph-name="Iogonek" unicode="&#x12e;" horiz-adv-x="612" 
d="M326 -430q-82 0 -138 47q-55 47 -55 125t34 136t103 122h-110v1434h293v-1434h-9q-70 -34 -118 -102t-50 -109q-1 -76 62 -78q28 -1 52 17t34 43l92 -90q-72 -111 -190 -111z" />
    <glyph glyph-name="iogonek" unicode="&#x12f;" horiz-adv-x="557" 
d="M262 -430q-82 0 -137 47t-55 125t33 136q34 58 104 122h-68v1024h281v-1024h-39q-70 -34 -119 -102t-49 -109q0 -76 61 -78q30 -1 54 17t32 43l93 -90q-72 -111 -191 -111zM281 1378q-61 0 -105 43q-43 43 -43 105t43 103q42 42 104 42t104 -42t42 -104q0 -63 -42 -105
t-103 -42z" />
    <glyph glyph-name="Idotaccent" unicode="&#x130;" horiz-adv-x="612" 
d="M160 0v1434h293v-1434h-293zM310 1876q62 0 104 -42t43 -104q0 -62 -42 -104q-43 -42 -105 -43q-62 0 -105 43q-43 42 -43 104t43 104t105 42z" />
    <glyph glyph-name="dotlessi" unicode="&#x131;" horiz-adv-x="557" 
d="M420 0h-281v1024h281v-1024z" />
    <glyph glyph-name="IJ" unicode="&#x132;" horiz-adv-x="1083" 
d="M956 1434v-1457q0 -380 -279 -476q-110 -38 -254 -38t-222 25l57 264q53 -16 170 -16t176 53t60 191v1454h292zM141 0v1434h293v-1434h-293z" />
    <glyph glyph-name="ij" unicode="&#x133;" horiz-adv-x="1122" 
d="M969 1024v-1024q0 -327 -124 -428q-65 -51 -169 -54t-252 25v262q95 -25 128 -29q32 -3 47 -5t33 6t24 12t20 41t14 101v1093h279zM150 0v1024h280v-1024h-280zM831 1526q68 0 115 -46t47 -102q0 -108 -80 -154q-37 -22 -93 -22t-104 47q-46 47 -46 115t46 115t115 47z
M291 1526q68 0 114 -45t47 -115t-46 -117t-115 -47t-115 47t-47 115t47 115t115 47z" />
    <glyph glyph-name="Kcommaaccent" unicode="&#x136;" horiz-adv-x="1384" 
d="M500 -408q0 60 43 102t104 42t103 -42t43 -113q0 -71 -123 -273h-82l43 137q-55 4 -93 46t-38 101zM442 0h-292v1434h292v-656l516 656h328l-563 -682l657 -752h-360l-467 543l-111 -133v-410z" />
    <glyph glyph-name="kcommaaccent" unicode="&#x137;" horiz-adv-x="1105" 
d="M700 -419q0 -71 -122 -273h-82l43 137q-57 4 -96 46q-37 42 -37 91t20 83q40 69 115 70t117 -41t42 -113zM403 0h-280v1475h280v-897l351 446h299l-387 -473l434 -551h-328l-266 358l-103 -125v-233z" />
    <glyph glyph-name="Lacute" unicode="&#x139;" horiz-adv-x="1236" 
d="M1178 0h-1028v1434h292v-1174h736v-260zM373 1546h-209l246 297h270z" />
    <glyph glyph-name="lacute" unicode="&#x13a;" horiz-adv-x="544" 
d="M133 0v1475h279v-1475h-279zM328 1546h-207l246 297h268z" />
    <glyph glyph-name="Lcommaaccent" unicode="&#x13b;" horiz-adv-x="1236" 
d="M436 -418q0 49 20 83q39 69 114 70t117 -41t42 -113t-123 -273h-82l43 137q-57 4 -94 46t-37 91zM1178 0h-1028v1434h292v-1174h736v-260z" />
    <glyph glyph-name="lcommaaccent" unicode="&#x13c;" horiz-adv-x="544" 
d="M127 -408q0 60 43 102t105 42q63 0 105 -42t42 -113t-123 -273h-82l43 137q-57 4 -95 46t-38 101zM412 0h-279v1475h279v-1475z" />
    <glyph glyph-name="Lcaron" unicode="&#x13d;" horiz-adv-x="1236" 
d="M1178 0h-1028v1434h292v-1174h736v-260zM864 1470q51 0 93 -42t42 -112t-122 -276h-82l43 138q-57 6 -96 47q-38 41 -38 91t21 83q20 33 54 52t85 19z" />
    <glyph glyph-name="lcaron" unicode="&#x13e;" horiz-adv-x="892" 
d="M133 0v1475h279v-1475h-279zM551 1326q0 95 73 135q34 19 84 19t94 -41q42 -42 42 -113t-135 -273h-82l55 135q-55 6 -93 47t-38 91z" />
    <glyph glyph-name="Ldot" unicode="&#x13f;" horiz-adv-x="1236" 
d="M824 803q62 0 104 -42q42 -41 43 -103q0 -62 -42 -105q-41 -43 -103 -43t-105 43t-43 104t42 103t104 43zM1178 0h-1028v1434h292v-1174h736v-260z" />
    <glyph glyph-name="ldot" unicode="&#x140;" horiz-adv-x="907" 
d="M740 803q62 0 104 -42q42 -41 43 -103q0 -62 -42 -105q-43 -43 -105 -43t-105 43t-43 104t43 103t105 43zM412 0h-279v1475h279v-1475z" />
    <glyph glyph-name="Lslash" unicode="&#x141;" horiz-adv-x="1329" 
d="M1270 260v-260h-1028v492l-201 -89v259l201 90v682h293v-553l428 190v-258l-428 -190v-363h735z" />
    <glyph glyph-name="lslash" unicode="&#x142;" horiz-adv-x="831" 
d="M545 0h-279v573l-213 -96v258l213 96v644h279v-521l233 105v-260l-233 -103v-696z" />
    <glyph glyph-name="Nacute" unicode="&#x143;" horiz-adv-x="1484" 
d="M440 0h-293v1487l900 -875v822h292v-1487l-899 870v-817zM791 1546h-209l245 297h271z" />
    <glyph glyph-name="nacute" unicode="&#x144;" 
d="M123 1024h250q18 -37 26 -137q66 72 167 118t204 46q170 1 260 -103t90 -270v-678h-280v594q0 135 -69 184q-69 50 -168 18t-200 -122v-674h-280v1024zM641 1341h-209l246 297h270z" />
    <glyph glyph-name="Ncommaaccent" unicode="&#x145;" horiz-adv-x="1484" 
d="M569 -408q0 60 43 102q42 42 104 42t104 -42t42 -113t-123 -273h-82l43 137q-57 4 -94 46t-37 101zM440 0h-293v1487l900 -875v822h292v-1487l-899 870v-817z" />
    <glyph glyph-name="ncommaaccent" unicode="&#x146;" 
d="M469 -418q0 96 75 135q34 19 84 19t94 -42q42 -42 42 -113t-123 -273h-82l43 137q-57 4 -95 46t-38 91zM123 1024h250q18 -37 26 -137q66 72 167 118t204 46q170 1 260 -103t90 -270v-678h-280v594q0 135 -69 184q-69 50 -168 18t-200 -122v-674h-280v1024z" />
    <glyph glyph-name="Ncaron" unicode="&#x147;" horiz-adv-x="1484" 
d="M440 0h-293v1487l900 -875v822h292v-1487l-899 870v-817zM870 1546h-243l-240 297h195l168 -184l163 184h197z" />
    <glyph glyph-name="ncaron" unicode="&#x148;" 
d="M123 1024h250q18 -37 26 -137q66 72 167 118t204 46q170 1 260 -103t90 -270v-678h-280v594q0 135 -69 184q-69 50 -168 18t-200 -122v-674h-280v1024zM743 1341h-245l-238 297h195l168 -184l163 184h197z" />
    <glyph glyph-name="Eng" unicode="&#x14a;" horiz-adv-x="1484" 
d="M1339 1434v-1487q-2 -201 -59 -301t-181 -122t-319 19v262q95 -25 128 -29q32 -3 48 -5t57 18q7 4 16 27t12 41q6 45 6 173v199l-607 588v-817h-293v1487l900 -875v822h292z" />
    <glyph glyph-name="eng" unicode="&#x14b;" horiz-adv-x="1261" 
d="M135 1024h250q18 -37 27 -137q62 72 164 118t206 46q170 1 260 -103t91 -270v-678q1 -225 -53 -337q-54 -111 -176 -137t-316 17v250q121 -31 199 -36q15 -1 31 13t24 33q10 18 10 69v722q0 135 -70 184q-70 50 -168 18t-198 -122v-674h-281v1024z" />
    <glyph glyph-name="Omacron" unicode="&#x14c;" horiz-adv-x="1632" 
d="M817 1192q-203 0 -311 -124t-109 -351q0 -227 109 -351q108 -124 310 -124t310 124t109 351q0 304 -191 419q-94 56 -227 56zM816 1464q171 0 310 -60q260 -112 364 -404q48 -134 48 -296t-58 -304q-110 -273 -385 -381q-130 -50 -280 -50q-305 0 -509 196
q-97 93 -154 235q-58 142 -58 304q-1 316 185 535q88 105 227 165t310 60zM1186 1667h-744v176h744v-176z" />
    <glyph glyph-name="omacron" unicode="&#x14d;" horiz-adv-x="1173" 
d="M587 819q-114 0 -172 -87q-59 -87 -59 -227q0 -141 58 -229t173 -88q114 0 172 88t58 228t-58 228q-58 87 -172 87zM588 -37q-242 1 -378 149t-136 399t142 393t378 143q236 -1 371 -149t135 -392q0 -334 -236 -474q-117 -70 -276 -69zM956 1462h-743v176h743v-176z" />
    <glyph glyph-name="Ohungarumlaut" unicode="&#x150;" horiz-adv-x="1632" 
d="M817 1192q-203 0 -311 -124t-109 -351q0 -227 109 -351q108 -124 310 -124t310 124t109 351q0 304 -191 419q-94 56 -227 56zM816 1464q171 0 310 -60q260 -112 364 -404q48 -134 48 -296t-58 -304q-110 -273 -385 -381q-130 -50 -280 -50q-305 0 -509 196
q-97 93 -154 235q-58 142 -58 304q-1 316 185 535q88 105 227 165t310 60zM1061 1546h-197l221 297h244zM672 1546h-197l209 297h244z" />
    <glyph glyph-name="ohungarumlaut" unicode="&#x151;" horiz-adv-x="1173" 
d="M587 819q-114 0 -172 -87q-59 -87 -59 -227q0 -141 58 -229t173 -88q114 0 172 88t58 228t-58 228q-58 87 -172 87zM588 -37q-242 1 -378 149t-136 399t142 393t378 143q236 -1 371 -149t135 -392q0 -334 -236 -474q-117 -70 -276 -69zM807 1341h-197l221 297h244z
M418 1341h-197l209 297h244z" />
    <glyph glyph-name="OE" unicode="&#x152;" horiz-adv-x="2082" 
d="M1008 1174h-168q-211 0 -322 -114q-110 -114 -110 -342t110 -343t322 -115h168v914zM1296 860h629v-258h-629v-330h686v-272h-1163q-305 0 -507 179q-97 87 -152 225q-56 138 -56 285q-1 405 258 605q178 140 457 140h1163v-273h-686v-301z" />
    <glyph glyph-name="oe" unicode="&#x153;" horiz-adv-x="1945" 
d="M338 505q0 -141 58 -229t172 -88t172 88t58 228t-58 228q-58 87 -172 87t-172 -87t-58 -227zM1335 827q-205 0 -221 -260h447q-6 194 -120 242q-44 18 -106 18zM1817 387h-695q34 -207 232 -207q108 0 252 80l96 -186q-70 -49 -167 -80t-185 -31q-252 0 -392 164
q-137 -164 -385 -164q-248 1 -383 149t-135 399q1 251 143 393t382 142t378 -161q137 162 371 162q273 0 381 -176q107 -176 107 -484z" />
    <glyph glyph-name="Racute" unicode="&#x154;" horiz-adv-x="1275" 
d="M440 662h121q213 0 273 65q61 65 61 195q0 162 -107 219q-85 45 -227 45h-121v-524zM440 416v-416h-293v1434h457q276 0 430 -136t154 -378q0 -307 -240 -435l281 -485h-326l-239 416h-224zM672 1546h-207l246 297h268z" />
    <glyph glyph-name="racute" unicode="&#x155;" horiz-adv-x="837" 
d="M123 1024h250q14 -33 22 -113q215 209 398 86l-76 -229q-68 51 -153 37t-161 -98v-707h-280v1024zM449 1341h-209l245 297h271z" />
    <glyph glyph-name="Rcommaaccent" unicode="&#x156;" horiz-adv-x="1275" 
d="M748 -419q0 -71 -123 -273h-82l43 137q-57 4 -96 46q-38 42 -38 91t21 83q20 34 54 52q34 19 85 19q52 0 94 -42t42 -113zM440 662h121q213 0 273 65q61 65 61 195q0 162 -107 219q-85 45 -227 45h-121v-524zM440 416v-416h-293v1434h457q276 0 430 -136t154 -378
q0 -307 -240 -435l281 -485h-326l-239 416h-224z" />
    <glyph glyph-name="rcommaaccent" unicode="&#x157;" horiz-adv-x="837" 
d="M248 -418q0 96 75 135q35 19 85 19t92 -42t43 -113q0 -71 -123 -273h-82l43 137q-57 4 -95 46t-38 91zM123 1024h250q14 -33 22 -113q215 209 398 86l-76 -229q-68 51 -153 37t-161 -98v-707h-280v1024z" />
    <glyph glyph-name="Rcaron" unicode="&#x158;" horiz-adv-x="1275" 
d="M440 662h121q213 0 273 65q61 65 61 195q0 162 -107 219q-85 45 -227 45h-121v-524zM440 416v-416h-293v1434h457q276 0 430 -136t154 -378q0 -307 -240 -435l281 -485h-326l-239 416h-224zM782 1546h-243l-240 297h195l168 -184l165 184h195z" />
    <glyph glyph-name="rcaron" unicode="&#x159;" horiz-adv-x="837" 
d="M123 1024h250q14 -33 22 -113q215 209 398 86l-76 -229q-68 51 -153 37t-161 -98v-707h-280v1024zM551 1341h-244l-239 297h194l168 -184l164 184h197z" />
    <glyph glyph-name="Sacute" unicode="&#x15a;" horiz-adv-x="1165" 
d="M377 1078q0 -68 59 -108t173 -75q362 -111 441 -296q32 -75 32 -185t-49 -205q-48 -94 -127 -143q-237 -147 -573 -78q-201 39 -272 123l132 227q113 -80 251 -104t238 24t100 156q0 80 -67 131q-68 51 -218 103q-263 92 -342 184t-78 225t63 223t164 131q208 84 478 37
q127 -23 238 -70l-94 -235q-175 83 -355 81q-84 -1 -139 -39t-55 -107zM637 1546h-207l246 297h268z" />
    <glyph glyph-name="sacute" unicode="&#x15b;" horiz-adv-x="923" 
d="M567 311q0 93 -145 133t-196 63q-52 23 -93 55q-80 61 -81 194q0 133 106 213t264 80q94 0 200 -27t177 -70l-80 -188q-135 82 -262 82t-127 -80q0 -46 46 -68t111 -41q187 -49 275 -125t88 -202t-62 -206q-118 -152 -346 -153q-134 1 -242 47t-163 107l119 180
q46 -51 114 -82t135 -31t115 30t47 89zM520 1341h-207l246 297h268z" />
    <glyph glyph-name="Scedilla" unicode="&#x15e;" horiz-adv-x="1165" 
d="M377 1078q0 -68 59 -108t173 -75q362 -111 441 -296q32 -75 32 -177t-36 -188q-36 -85 -98 -137q-125 -104 -307 -124l-37 -86q27 21 80 21t89 -46t36 -118t-60 -125t-171 -53q-55 0 -122 18t-98 43l52 129q82 -66 183 -72t101 68q0 59 -61 60q-43 0 -70 -31l-106 47
l51 139q-145 4 -271 45t-176 99l132 227q113 -80 251 -104t238 24t100 156q0 80 -67 131q-68 51 -218 103q-263 92 -342 184t-78 225t63 223t164 131q208 84 478 37q127 -23 238 -70l-94 -235q-175 83 -355 81q-84 -1 -139 -39t-55 -107z" />
    <glyph glyph-name="scedilla" unicode="&#x15f;" horiz-adv-x="923" 
d="M457 846q-127 0 -127 -80q0 -46 46 -68t111 -41q187 -49 275 -125t88 -215q0 -98 -49 -174q-87 -135 -285 -168l-37 -88q27 21 80 21t89 -46t36 -118t-61 -125t-170 -53q-55 0 -122 18t-100 43l54 129q81 -66 183 -72t101 68q0 59 -63 60q-43 0 -68 -31l-108 47l55 145
q-117 9 -208 53t-140 99l119 180q46 -51 114 -82t135 -31t115 30t47 94q0 64 -70 98q-47 24 -173 58q-125 34 -199 96t-74 192q1 130 107 209q106 80 264 80q94 0 200 -27t177 -70l-80 -188q-135 82 -262 82z" />
    <glyph glyph-name="Scaron" unicode="&#x160;" horiz-adv-x="1165" 
d="M377 1078q0 -68 59 -108t173 -75q362 -111 441 -296q32 -75 32 -185t-49 -205q-48 -94 -127 -143q-237 -147 -573 -78q-201 39 -272 123l132 227q113 -80 251 -104t238 24t100 156q0 80 -67 131q-68 51 -218 103q-263 92 -342 184t-78 225t63 223t164 131q208 84 478 37
q127 -23 238 -70l-94 -235q-175 83 -355 81q-84 -1 -139 -39t-55 -107zM682 1546h-244l-239 297h194l168 -184l164 184h197z" />
    <glyph glyph-name="scaron" unicode="&#x161;" horiz-adv-x="923" 
d="M51 760q1 130 107 209q106 80 264 80q94 0 200 -27t177 -70l-80 -188q-135 82 -262 82t-127 -80q0 -61 97 -90q19 -6 29 -9q222 -63 308 -137t86 -200t-62 -206q-118 -152 -346 -153q-134 1 -242 47t-163 107l119 180q46 -51 114 -82t135 -31t115 30t47 94q0 64 -70 98
q-47 24 -173 58q-125 34 -199 96t-74 192zM588 1341h-246l-240 297h197l166 -184l166 184h196z" />
    <glyph glyph-name="Tcedilla" unicode="&#x162;" 
d="M924 -256q0 -72 -62 -125t-172 -53q-55 0 -121 18t-98 43l51 129q82 -66 184 -72t103 68q0 59 -64 60q-43 0 -67 -31l-109 47l64 172h-162v1174h-410v260h1113v-260h-410l2 -1174l-47 -113q25 21 79 21t90 -46t36 -118z" />
    <glyph glyph-name="tcedilla" unicode="&#x163;" horiz-adv-x="780" 
d="M862 -262q0 -72 -60 -125t-171 -53q-55 0 -122 18t-97 43l51 129q82 -66 183 -72t102 68q0 59 -62 59q-43 0 -70 -30l-106 47l55 149q-205 -20 -285 78t-79 377v371h-148v227h148v451h280v-451h224v-227h-224v-381q1 -96 11 -130q10 -36 17 -40t20 -14t29 -8q16 1 41 2
q26 1 106 22v-254l-48 -113q27 21 81 21t90 -46q34 -46 34 -118z" />
    <glyph glyph-name="Tcaron" unicode="&#x164;" 
d="M764 1174v-1174h-293v1174h-410v260h1113v-260h-410zM743 1546h-243l-240 297h197l166 -184l165 184h195z" />
    <glyph glyph-name="tcaron" unicode="&#x165;" horiz-adv-x="780" 
d="M481 797v-381q1 -96 11 -130q10 -36 17 -40t20 -14t29 -8q16 1 41 2q26 1 106 22v-254q-143 -27 -239 -26q-190 2 -241 198q-25 96 -24 260v371h-148v227h148v451h280v-451h224v-227h-224zM670 1327q0 111 89 149q27 11 73 11t88 -42t43 -112q0 -70 -136 -274h-82l56 137
q-57 4 -94 45t-37 86z" />
    <glyph glyph-name="Tbar" unicode="&#x166;" 
d="M764 1174v-297h237v-177h-237v-700h-293v700h-213v177h213v297h-410v260h1113v-260h-410z" />
    <glyph glyph-name="tbar" unicode="&#x167;" horiz-adv-x="780" 
d="M481 1171v-147h224v-227h-224v-381q1 -96 11 -130q10 -36 17 -40t20 -14t29 -8q16 1 41 2q26 1 106 22v-254q-143 -27 -239 -26q-190 2 -241 198q-25 96 -24 260v371h-148v227h148v147h-185v177h185v127h280v-127h279v-177h-279z" />
    <glyph glyph-name="Umacron" unicode="&#x16a;" horiz-adv-x="1454" 
d="M1323 1434v-813q0 -311 -153 -481q-152 -170 -444 -171q-292 0 -444 169t-151 480v816h293v-775q0 -223 68 -324t236 -101t235 100q68 102 67 325v775h293zM1102 1667h-744v176h744v-176z" />
    <glyph glyph-name="umacron" unicode="&#x16b;" 
d="M1112 0h-250q-18 37 -26 137q-66 -72 -167 -118t-210 -46q-109 -1 -189 49q-155 96 -155 324v678h280v-594q0 -135 69 -184q69 -50 168 -18t199 122v674h281v-1024zM983 1462h-743v176h743v-176z" />
    <glyph glyph-name="Uring" unicode="&#x16e;" horiz-adv-x="1454" 
d="M1323 1434v-813q0 -311 -153 -481q-152 -170 -444 -171q-292 0 -444 169t-151 480v816h293v-775q0 -223 68 -324t236 -101t235 100q68 102 67 325v775h293zM738 1747q-36 0 -62 -25q-26 -26 -25 -62q0 -36 26 -61q25 -25 61 -25t61 26q25 24 24 61t-25 61t-60 25z
M752 1864q68 0 126 -60t58 -128q0 -130 -98 -191q-45 -27 -113 -27t-129 60t-61 130q0 68 28 115q63 101 189 101z" />
    <glyph glyph-name="uring" unicode="&#x16f;" 
d="M1112 0h-250q-18 37 -26 137q-66 -72 -167 -118t-210 -46q-109 -1 -189 49q-155 96 -155 324v678h280v-594q0 -135 69 -184q69 -50 168 -18t199 122v674h281v-1024zM617 1542q-37 0 -61 -24t-24 -62t25 -62t61 -24t60 25t24 61t-24 62q-25 24 -61 24zM632 1659
q68 1 126 -59t59 -130q-1 -70 -27 -116q-26 -47 -72 -74t-114 -27q-68 1 -128 61t-60 128t27 117q59 100 189 100z" />
    <glyph glyph-name="Uhungarumlaut" unicode="&#x170;" horiz-adv-x="1454" 
d="M1323 1434v-813q0 -311 -153 -481q-152 -170 -444 -171q-292 0 -444 169t-151 480v816h293v-775q0 -223 68 -324t236 -101t235 100q68 102 67 325v775h293zM963 1546h-195l221 297h244zM573 1546h-194l209 297h243z" />
    <glyph glyph-name="uhungarumlaut" unicode="&#x171;" 
d="M1112 0h-250q-18 37 -26 137q-66 -72 -167 -118t-210 -46q-109 -1 -189 49q-155 96 -155 324v678h280v-594q0 -135 69 -184q69 -50 168 -18t199 122v674h281v-1024zM834 1341h-197l221 297h244zM444 1341h-196l209 297h243z" />
    <glyph glyph-name="Uogonek" unicode="&#x172;" horiz-adv-x="1454" 
d="M760 -212q0 -77 63 -77q27 -1 51 17t33 43l92 -90q-72 -111 -190 -111q-82 0 -137 47q-56 47 -56 147t105 205q-289 2 -439 171t-151 478v816h293v-775q0 -223 68 -324t236 -101t235 100q68 102 67 325v775h293v-813q0 -258 -105 -421t-309 -212q-89 -52 -131 -141
q-18 -38 -18 -59z" />
    <glyph glyph-name="uogonek" unicode="&#x173;" 
d="M993 -430q-82 0 -137 47t-55 125t34 136t103 122h-76q-18 37 -26 137q-66 -72 -167 -118t-210 -46q-109 -1 -189 49q-155 96 -155 324v678h280v-594q0 -135 69 -184q69 -50 168 -18t199 122v674h281v-1024q-70 -34 -119 -102t-49 -109q0 -76 62 -78q28 -1 52 17t34 43
l92 -90q-72 -111 -191 -111z" />
    <glyph glyph-name="Wcircumflex" unicode="&#x174;" horiz-adv-x="2134" 
d="M1067 860l-403 -934l-629 1508h307l338 -836l387 868l387 -868l338 836h307l-629 -1508zM1436 1546h-197l-166 185l-166 -185h-196l239 297h246z" />
    <glyph glyph-name="wcircumflex" unicode="&#x175;" horiz-adv-x="1693" 
d="M848 526l-297 -600l-510 1098h293l237 -541l277 574l276 -574l238 541h293l-510 -1098zM1214 1341h-194l-168 185l-166 -185h-194l239 297h244z" />
    <glyph glyph-name="Ycircumflex" unicode="&#x176;" horiz-adv-x="1396" 
d="M846 0h-293v606l-541 828h320l366 -570l367 570h319l-538 -828v-606zM1065 1546h-195l-165 185l-168 -185h-195l240 297h243z" />
    <glyph glyph-name="ycircumflex" unicode="&#x177;" horiz-adv-x="1181" 
d="M1145 1024l-473 -1120q-145 -353 -371 -361q-111 -4 -246 47l74 217q129 -57 190 -18t125 211l-407 1024h303l250 -678l278 678h277zM975 1341h-197l-166 185l-166 -185h-196l239 297h246z" />
    <glyph glyph-name="Ydieresis" unicode="&#x178;" horiz-adv-x="1396" 
d="M846 0h-293v606l-541 828h320l366 -570l367 570h319l-538 -828v-606zM931 1876q62 0 104 -42t42 -104t-42 -104t-104 -43q-62 0 -106 43q-43 42 -43 104t43 104q44 42 106 42zM470 1876q52 0 94 -42t42 -104t-42 -104t-104 -43q-62 0 -107 43q-44 42 -44 94t20 84
q41 72 141 72z" />
    <glyph glyph-name="Zacute" unicode="&#x179;" horiz-adv-x="1523" 
d="M1399 272v-272h-1309l838 1176h-719v258h1227l-828 -1162h791zM829 1546h-208l245 297h271z" />
    <glyph glyph-name="zacute" unicode="&#x17a;" horiz-adv-x="1044" 
d="M930 225v-225h-879l508 799h-424v225h856l-504 -799h443zM584 1341h-207l246 297h268z" />
    <glyph glyph-name="Zdotaccent" unicode="&#x17b;" horiz-adv-x="1523" 
d="M1399 272v-272h-1309l838 1176h-719v258h1227l-828 -1162h791zM816 1876q62 0 104 -42t43 -104q0 -62 -42 -104q-43 -42 -105 -43q-62 0 -105 43q-43 42 -43 104t43 104t105 42z" />
    <glyph glyph-name="zdotaccent" unicode="&#x17c;" horiz-adv-x="1044" 
d="M930 225v-225h-879l508 799h-424v225h856l-504 -799h443zM542 1671q62 0 104 -42t42 -104q0 -63 -42 -105t-103 -42t-105 43q-43 43 -43 105t42 103q43 42 105 42z" />
    <glyph glyph-name="Zcaron" unicode="&#x17d;" horiz-adv-x="1523" 
d="M1399 272v-272h-1309l838 1176h-719v258h1227l-828 -1162h791zM942 1546h-246l-237 297h194l168 -184l164 184h197z" />
    <glyph glyph-name="zcaron" unicode="&#x17e;" horiz-adv-x="1044" 
d="M930 225v-225h-879l508 799h-424v225h856l-504 -799h443zM668 1341h-244l-240 297h195l168 -184l166 184h194z" />
    <glyph glyph-name="Scommaaccent" unicode="&#x218;" horiz-adv-x="1165" 
d="M594 -264q62 0 105 -42q42 -42 42 -113t-123 -273h-81l43 137q-37 4 -68 24q-66 41 -66 133q0 50 43 92t105 42zM377 1078q0 -68 59 -108t173 -75q362 -111 441 -296q32 -75 32 -185t-49 -205q-48 -94 -127 -143q-237 -147 -573 -78q-201 39 -272 123l132 227
q113 -80 251 -104t238 24t100 156q0 80 -67 131q-68 51 -218 103q-263 92 -342 184t-78 225t63 223t164 131q208 84 478 37q127 -23 238 -70l-94 -235q-175 83 -355 81q-84 -1 -139 -39t-55 -107z" />
    <glyph glyph-name="scommaaccent" unicode="&#x219;" horiz-adv-x="923" 
d="M354 -418q0 49 20 83q39 69 115 70t118 -41t42 -113t-123 -273h-84l43 137q-55 4 -93 46t-38 91zM567 311q0 93 -145 133t-196 63q-52 23 -93 55q-80 61 -81 194q0 133 106 213t264 80q94 0 200 -27t177 -70l-80 -188q-135 82 -262 82t-127 -80q0 -46 46 -68t111 -41
q187 -49 275 -125t88 -202t-62 -206q-118 -152 -346 -153q-134 1 -242 47t-163 107l119 180q46 -51 114 -82t135 -31t115 30t47 89z" />
    <glyph glyph-name="uni021A" unicode="&#x21a;" 
d="M469 -418q0 97 73 135q34 19 86 19t94 -42t42 -113t-123 -273h-84l43 137q-55 4 -93 46t-38 91zM1174 1174h-410v-1174h-293v1174h-410v260h1113v-260z" />
    <glyph glyph-name="uni021B" unicode="&#x21b;" horiz-adv-x="780" 
d="M301 -408q0 60 43 102q44 42 106 42t104 -42t42 -113t-123 -273h-84l43 137q-55 4 -93 46t-38 101zM481 797v-381q1 -96 11 -130q10 -36 17 -40t20 -14t29 -8q16 1 41 2q26 1 106 22v-254q-143 -27 -239 -26q-190 2 -241 198q-25 96 -24 260v371h-148v227h148v451h280
v-451h224v-227h-224z" />
    <glyph glyph-name="dotlessj" unicode="&#x237;" horiz-adv-x="589" 
d="M434 1024v-1024q0 -225 -54 -337q-54 -111 -175 -137t-318 17v262q95 -25 128 -29q32 -3 49 -5t58 18q8 4 20 40t12 100v1095h280z" />
    <glyph glyph-name="circumflex" unicode="&#x2c6;" horiz-adv-x="722" 
d="M723 1341h-195l-168 185l-165 -185h-195l240 297h243z" />
    <glyph glyph-name="caron" unicode="&#x2c7;" horiz-adv-x="722" 
d="M483 1341h-243l-240 297h195l167 -184l166 184h195z" />
    <glyph glyph-name="breve" unicode="&#x2d8;" horiz-adv-x="548" 
d="M393 1638h156q0 -114 -71 -190t-206 -76q-90 0 -153 39q-119 74 -119 227h156q0 -76 28 -104t89 -29q62 1 91 29t29 104z" />
    <glyph glyph-name="dotaccent" unicode="&#x2d9;" horiz-adv-x="294" 
d="M148 1671q62 0 104 -42t43 -104q0 -63 -43 -105q-42 -42 -104 -42t-105 43t-43 105t43 103q43 42 105 42z" />
    <glyph glyph-name="ring" unicode="&#x2da;" horiz-adv-x="401" 
d="M203 1542q-37 0 -62 -24t-25 -62t26 -62q24 -24 61 -24t61 25t23 61q1 36 -23 62q-24 24 -61 24zM203 1659q82 1 140 -59t58 -144t-58 -143t-140 -59q-83 0 -143 60t-60 143t60 143t143 59z" />
    <glyph glyph-name="ogonek" unicode="&#x2db;" horiz-adv-x="382" 
d="M0 -252q0 129 137 252h174q-71 -36 -119 -104t-48 -109q-1 -74 61 -76q29 -1 53 17t33 43l92 -90q-72 -111 -190 -111q-82 0 -138 47q-55 47 -55 131z" />
    <glyph glyph-name="tilde" unicode="&#x2dc;" horiz-adv-x="757" 
d="M680 1645l78 -52q-78 -178 -140 -205t-120 -17t-106 26t-82 26q-34 11 -47 15q-92 32 -127 -2q-35 -33 -58 -74l-78 49q73 174 168 196q95 21 212 -23q116 -44 166 -48t74 16q23 21 60 93z" />
    <glyph glyph-name="hungarumlaut" unicode="&#x2dd;" horiz-adv-x="854" 
d="M584 1341h-195l221 297h244zM195 1341h-195l209 297h244z" />
    <glyph glyph-name="commaaccentcomb" unicode="&#x326;" horiz-adv-x="0" 
d="M0 -408q0 60 43 102t105 42t104 -42t43 -113q0 -71 -123 -273h-84l43 137q-55 4 -93 46t-38 101z" />
    <glyph glyph-name="Wgrave" unicode="&#x1e80;" horiz-adv-x="2134" 
d="M1470 -74l-403 934l-403 -934l-629 1508h307l338 -836l387 868l387 -868l338 836h307zM967 1546l-295 297h258l246 -297h-209z" />
    <glyph glyph-name="wgrave" unicode="&#x1e81;" horiz-adv-x="1693" 
d="M1145 -74l-297 600l-297 -600l-510 1098h293l237 -541l277 574l276 -574l238 541h293zM786 1341l-294 297h256l245 -297h-207z" />
    <glyph glyph-name="Wacute" unicode="&#x1e82;" horiz-adv-x="2134" 
d="M1067 860l-403 -934l-629 1508h307l338 -836l387 868l387 -868l338 836h307l-629 -1508zM1122 1546h-209l246 297h271z" />
    <glyph glyph-name="wacute" unicode="&#x1e83;" horiz-adv-x="1693" 
d="M1145 -74l-297 600l-297 -600l-510 1098h293l237 -541l277 574l276 -574l236 541h295zM942 1341h-209l246 297h270z" />
    <glyph glyph-name="Wdieresis" unicode="&#x1e84;" horiz-adv-x="2134" 
d="M1470 -74l-403 934l-403 -934l-629 1508h307l338 -836l387 868l387 -868l338 836h307zM1300 1583q-61 0 -105 43q-44 42 -44 104t44 104t106 42q63 0 105 -42t42 -104t-43 -105q-44 -42 -105 -42zM828 1583q-62 0 -106 43q-44 42 -44 104t44 104t106 42t104 -42t43 -104
q0 -62 -42 -105q-43 -42 -105 -42z" />
    <glyph glyph-name="wdieresis" unicode="&#x1e85;" horiz-adv-x="1693" 
d="M1145 -74l-297 600l-297 -600l-510 1098h293l237 -541l277 574l276 -574l236 541h295zM1080 1378q-62 0 -106 43t-44 105t44 103q44 42 106 42t104 -42t43 -104q0 -62 -42 -105q-43 -42 -105 -42zM607 1378q-62 0 -105 43t-43 105t43 103q43 42 105 42q63 0 105 -42
t42 -104t-42 -105q-43 -42 -105 -42z" />
    <glyph glyph-name="Ygrave" unicode="&#x1ef2;" horiz-adv-x="1396" 
d="M846 0h-293v606l-541 828h320l366 -570l367 570h319l-538 -828v-606zM821 1546h-209l-295 297h258z" />
    <glyph glyph-name="ygrave" unicode="&#x1ef3;" horiz-adv-x="1181" 
d="M1145 1024l-473 -1120q-145 -353 -371 -361q-111 -4 -246 47l74 217q129 -57 190 -18t125 211l-407 1024h303l250 -678l278 678h277zM735 1341h-209l-295 297h258z" />
    <glyph glyph-name="endash" unicode="&#x2013;" horiz-adv-x="1110" 
d="M1016 387h-922v234h922v-234z" />
    <glyph glyph-name="emdash" unicode="&#x2014;" horiz-adv-x="1646" 
d="M1552 387h-1458v234h1458v-234z" />
    <glyph glyph-name="quoteleft" unicode="&#x2018;" horiz-adv-x="458" 
d="M395 1225q0 -49 -19 -83q-38 -69 -114 -70q-75 -1 -118 41q-42 42 -42 112t136 274h81l-55 -137q55 -4 93 -46t38 -91z" />
    <glyph glyph-name="quoteright" unicode="&#x2019;" horiz-adv-x="458" 
d="M63 1356q0 60 43 101q42 42 104 42t104 -42q42 -41 42 -111t-135 -275h-82l56 137q-55 4 -94 46q-38 42 -38 102z" />
    <glyph glyph-name="quotedblleft" unicode="&#x201c;" horiz-adv-x="827" 
d="M764 1215q0 -59 -43 -101t-105 -43q-62 0 -105 42q-42 42 -42 104q0 88 137 282h82l-55 -137q55 -4 93 -46t38 -101zM395 1225q0 -49 -19 -83q-38 -69 -114 -70q-75 -1 -118 41q-42 42 -42 104q0 88 136 282h81l-55 -137q55 -4 93 -46t38 -91z" />
    <glyph glyph-name="quotedblright" unicode="&#x201d;" horiz-adv-x="827" 
d="M578 1503q62 0 105 -42q42 -41 42 -111t-135 -275h-82l55 137q-81 9 -114 75q-17 32 -17 82t42 92t104 42zM63 1360q0 60 43 101q42 42 104 42t104 -42q42 -41 42 -111t-135 -275h-82l56 137q-55 4 -94 46q-38 42 -38 102z" />
    <glyph glyph-name="dagger" unicode="&#x2020;" horiz-adv-x="937" 
d="M557 1139l281 18v-215l-283 21l16 -574h-204l16 574l-283 -21v215l281 -18l-23 295h222z" />
    <glyph glyph-name="daggerdbl" unicode="&#x2021;" horiz-adv-x="937" 
d="M838 942l-283 21l16 -246l-16 -246l283 21v-216l-281 19l23 -295h-222l23 295l-281 -19v216l283 -21l-16 246l16 246l-283 -21v215l281 -18l-23 295h222l-23 -295l281 18v-215z" />
    <glyph glyph-name="bullet" unicode="&#x2022;" horiz-adv-x="948" 
d="M475 946q119 0 204 -85t85 -202t-85 -206q-86 -88 -204 -87q-119 1 -205 87q-86 87 -86 205t86 203t205 85z" />
    <glyph glyph-name="ellipsis" unicode="&#x2026;" horiz-adv-x="1382" 
d="M1125 274q61 0 105 -42t44 -104t-43 -105t-105 -43t-106 43q-43 43 -43 105t43 104t105 42zM693 274q63 0 105 -42t42 -104t-42 -105t-104 -43t-106 43q-43 43 -43 105t43 104t105 42zM248 274q51 0 85 -19q70 -39 70 -128q0 -61 -41 -104t-103 -43t-106 43t-44 104
t44 104t95 43z" />
    <glyph glyph-name="guilsinglleft" unicode="&#x2039;" horiz-adv-x="675" 
d="M594 850l-229 -340l229 -346l-182 -121l-338 467l338 461z" />
    <glyph glyph-name="guilsinglright" unicode="&#x203a;" horiz-adv-x="675" 
d="M602 510l-338 -467l-182 121l229 346l-229 340l182 121z" />
    <glyph glyph-name="fraction" unicode="&#x2044;" horiz-adv-x="1527" 
d="M281 -348h-271l1237 1986h271z" />
    <glyph glyph-name="Euro" unicode="&#x20ac;" horiz-adv-x="1222" 
d="M88 446v193h166q-2 39 -2 78t2 78h-166v192h199q101 354 456 453q205 57 424 -6l-39 -250q-151 50 -301 8q-72 -20 -133 -72t-98 -133h354l-24 -192h-379q-4 -39 -4 -78t4 -78h358l-22 -193h-287q104 -225 381 -221q76 2 151 25l39 -250q-337 -94 -615 78
q-89 55 -159 150t-106 218h-199z" />
    <glyph glyph-name="trademark" unicode="&#x2122;" horiz-adv-x="716" 
d="M76 1434h215v-52h-82v-235h-49v235h-84v52zM629 1147h-54v170l-86 -90l-88 88v-168h-53v295l141 -144l140 144v-295z" />
    <glyph glyph-name="minus" unicode="&#x2212;" horiz-adv-x="1277" 
d="M1151 518h-1024v234h1024v-234z" />
    <glyph glyph-name="approxequal" unicode="&#x2248;" horiz-adv-x="1441" 
d="M416 403q-42 0 -78 -18q-36 -17 -55 -37q-18 -20 -39 -47l-121 92q111 188 241 221q90 22 176 9q86 -14 193 -48q107 -33 159 -47t106 -22t77 -6t53 20t49 40q17 22 48 67l118 -90q-45 -83 -86 -137t-90 -83t-86 -41t-110 -4t-163 34t-134 37t-88 25t-86 25
q-42 10 -84 10zM1225 1077l118 -92q-45 -82 -86 -136t-90 -82t-86 -41t-114 -4t-154 32q-78 22 -94 26t-135 41q-118 37 -146 34t-58 -6q-68 -7 -136 -97l-121 90q105 187 241 221q92 23 180 9t193 -47q263 -82 338 -75q23 2 53 20t48 40t49 67z" />
    <glyph glyph-name="notequal" unicode="&#x2260;" horiz-adv-x="1499" 
d="M1364 567v-233h-633l-125 -291l-192 80l90 211h-369v233h471l76 176h-547v234h649l150 344l192 -80l-114 -264h352v-234h-455l-75 -176h530z" />
    <glyph glyph-name="lessequal" unicode="&#x2264;" horiz-adv-x="1390" 
d="M195 236h1024v-236h-1024v236zM680 727l539 -192v-238l-1088 426l1088 403v-208z" />
    <glyph glyph-name="greaterequal" unicode="&#x2265;" horiz-adv-x="1413" 
d="M172 236h1024v-236h-1024v236zM1260 723l-1088 -426v238l539 192l-537 191v208z" />
    <glyph glyph-name="lozenge" unicode="&#x25ca;" horiz-adv-x="1345" 
d="M414 621l260 -261l260 261l-260 260zM1231 621l-557 -560l-559 560l559 557z" />
    <glyph glyph-name="O_O" horiz-adv-x="2320" 
d="M1235 718q0 187 -76 304q-74 -117 -74 -304t74 -306q76 119 76 306zM1503 242q203 0 311 124t107 351q0 303 -189 419q-93 56 -229 56q-55 0 -104 -10q139 -197 139 -468t-139 -462q49 -10 104 -10zM397 717q0 -227 109 -351t311 -124q53 0 103 10q-138 190 -138 462
t140 468q-49 10 -105 10q-203 0 -311 -124t-109 -351zM1494 1464q180 0 320 -60q261 -112 363 -404q47 -134 47 -296t-57 -304q-108 -271 -386 -381q-130 -50 -298 -50t-324 78q-156 -78 -325 -78q-324 0 -528 196q-97 93 -154 235q-58 142 -58 304q-1 316 185 535
q88 105 227 165t320 60t333 -75q154 75 335 75z" />
    <glyph glyph-name="c_t" horiz-adv-x="1761" 
d="M360 514q0 -160 66 -244t180 -84q78 0 153 30t122 67l92 -189q-57 -57 -166 -94t-205 -37q-174 0 -294 68q-234 133 -234 483q0 219 94 357t281 178q-68 102 -68 231q0 234 141 364t367 136q359 8 502 -244q72 -127 71 -309v-203h224v-227h-224v-380q0 -153 26 -170
q9 -5 22 -15q14 -10 28 -8q14 1 41 2t107 22v-254q-144 -27 -240 -26q-190 2 -240 198q-25 96 -24 260v870q-6 150 -80 231t-213 76t-215 -85t-76 -213t101 -207q46 -33 143 -82t131 -82l-92 -189q-127 94 -275 97q-114 0 -180 -84t-66 -244z" />
    <glyph glyph-name="f_i" horiz-adv-x="1157" 
d="M481 1024h506v-1024h-280v797h-226v-797h-278v797h-148v227h148v18q-6 333 138 413q116 65 353 47q121 -9 293 -36v-262q-260 45 -390 41q-58 -2 -81 -36q-23 -33 -29 -69t-6 -116z" />
    <glyph glyph-name="f_l" horiz-adv-x="1118" 
d="M985 0h-278v1249q-130 30 -171 7q-34 -16 -41 -44q-14 -59 -13 -103t-1 -85h115v-227h-115v-797h-278v797h-148v227h148v18q-4 189 22 273q25 85 63 121q90 87 249 94q159 6 444 -55h4v-1475z" />
    <glyph glyph-name="s_t" horiz-adv-x="1638" 
d="M567 311q0 93 -145 133t-196 63q-52 23 -93 55q-80 61 -81 183q-1 121 75 197t201 96q-70 100 -70 234q0 233 141 363t369 137q264 4 418 -138t153 -415v-195h224v-227h-224v-381q1 -88 11 -126t17 -44q7 -4 21 -14t28 -8q15 1 41 2t106 22v-254q-143 -27 -239 -26
q-190 2 -241 198q-25 96 -24 260v371h-148v227h148v264q-4 150 -79 230t-214 76t-214 -86t-75 -200t65 -189t189 -134q37 -14 68 -33l-80 -188q-135 82 -262 82t-127 -80q0 -46 46 -68t111 -41q187 -49 275 -125t88 -202t-62 -206q-118 -152 -346 -153q-134 1 -242 47
t-163 107l119 180q46 -51 114 -82t135 -31t115 30t47 89z" />
    <glyph glyph-name="zero.tosf" horiz-adv-x="1265" 
d="M635 791q-250 -1 -250 -279t250 -279q254 0 254 273q1 133 -63 209t-191 76zM635 1055q137 0 245 -45q200 -83 272 -296q34 -97 34 -208q0 -172 -72 -294q-142 -241 -479 -243q-180 0 -306 75q-241 143 -241 462q0 258 150 404t397 145z" />
    <glyph glyph-name="one.tosf" horiz-adv-x="782" 
d="M631 0h-299v719l-199 -57l-76 235l574 164v-1061z" />
    <glyph glyph-name="two.tosf" horiz-adv-x="1220" 
d="M1090 715q0 -105 -50 -179q-68 -109 -307 -167q-33 -7 -71 -17t-46 -10q-127 -31 -176 -92h647v-250h-1003q0 319 278 453q102 47 163 63t125 36t96 38t42 41t11 55q0 123 -215 117q-86 -2 -178 -39t-144 -90l-125 194q82 80 221 133q138 53 318 53t297 -84
q117 -85 117 -255z" />
    <glyph glyph-name="three.tosf" horiz-adv-x="1179" 
d="M231 -39q160 -119 375 -119q110 0 178 46t58 163q-20 193 -281 193h-174v239h176q221 0 236 164q12 173 -244 153q-125 -10 -262 -73l-109 242q226 92 446 92t342 -111t122 -280q0 -104 -58 -190t-139 -111q102 -31 173 -130t71 -227q-1 -214 -139 -330t-375 -116
q-152 0 -310 52t-211 112z" />
    <glyph glyph-name="four.tosf" horiz-adv-x="1284" 
d="M1053 -66v-344h-293v344h-715q141 184 216 418t75 430h266q0 -147 -33 -308t-90 -294h281v864h293v-864h155v-246h-155z" />
    <glyph glyph-name="five.tosf" horiz-adv-x="1208" 
d="M434 764v-240q141 29 301 0t270 -138q109 -109 109 -306q0 -130 -50 -232q-89 -182 -318 -257q-99 -32 -203 -31q-281 0 -477 133l100 254q139 -99 308 -113t253 52t84 202q0 233 -332 234q-150 0 -332 -54v756h918v-260h-631z" />
    <glyph glyph-name="six.tosf" horiz-adv-x="1284" 
d="M676 229q86 8 146 74q60 67 60 187t-56 186t-162 66t-178 -51q-72 -50 -103 -134q14 -172 91 -255t202 -73zM718 950q210 0 337 -136t127 -343q0 -147 -74 -263t-192 -177t-278 -61t-287 81q-251 163 -253 625q0 370 171 580t438 210q137 0 241 -49t201 -160l-166 -192
q-111 150 -272 149q-197 0 -283 -210q-29 -70 -41 -173q121 119 331 119z" />
    <glyph glyph-name="seven.tosf" horiz-adv-x="1210" 
d="M113 1022h1022q-18 -303 -179 -541q-42 -59 -106 -135t-108 -128q-116 -137 -164 -318q-35 -129 -35 -312h-299q0 471 338 848q166 186 209 326h-678v260z" />
    <glyph glyph-name="eight.tosf" horiz-adv-x="1230" 
d="M844 20q0 98 -62 150t-187 53q-124 0 -185 -57t-62 -146q0 -192 248 -200q248 8 248 200zM383 639q0 -78 55 -121t160 -43t158 47t53 117q0 160 -213 164q-213 -4 -213 -164zM1137 6q-1 -223 -149 -335t-392 -111q-398 0 -509 262q-34 80 -34 196t77 215q77 98 194 129
q-64 16 -114 60q-108 96 -108 242q0 104 44 182q77 137 276 187q84 22 196 22t222 -41q108 -41 178 -132q70 -92 70 -208t-62 -202q-62 -85 -158 -110q117 -31 193 -129t76 -227z" />
    <glyph glyph-name="nine.tosf" horiz-adv-x="1284" 
d="M338 544q0 -120 56 -185t162 -65t179 50q72 49 103 133q-16 231 -150 301q-62 32 -145 26q-85 -7 -145 -73q-60 -67 -60 -187zM503 84q-210 0 -337 136t-127 343q0 147 74 263q73 116 191 178t253 61q279 0 422 -181t143 -538q0 -358 -170 -568t-438 -210q-182 0 -310 89
q-67 46 -130 120l164 192q111 -150 272 -149q197 0 283 211q29 70 41 172q-121 -119 -331 -119z" />
    <glyph glyph-name="zero.osf" horiz-adv-x="1265" 
d="M635 791q-250 -1 -250 -279t250 -279q254 0 254 273q1 133 -63 209t-191 76zM635 1055q137 0 245 -45q200 -83 272 -296q34 -97 34 -208q0 -172 -72 -294q-142 -241 -479 -243q-180 0 -306 75q-241 143 -241 462q0 258 150 404t397 145z" />
    <glyph glyph-name="one.osf" horiz-adv-x="782" 
d="M631 0h-299v719l-199 -57l-76 235l574 164v-1061z" />
    <glyph glyph-name="two.osf" horiz-adv-x="1220" 
d="M1090 715q0 -105 -50 -179q-68 -109 -307 -167q-33 -7 -71 -17t-46 -10q-127 -31 -176 -92h647v-250h-1003q0 319 278 453q102 47 163 63t125 36t96 38t42 41t11 55q0 123 -215 117q-86 -2 -178 -39t-144 -90l-125 194q82 80 221 133q138 53 318 53t297 -84
q117 -85 117 -255z" />
    <glyph glyph-name="three.osf" horiz-adv-x="1179" 
d="M231 -39q160 -119 375 -119q110 0 178 46t58 163q-20 193 -281 193h-174v239h176q221 0 236 164q12 173 -244 153q-125 -10 -262 -73l-109 242q226 92 446 92t342 -111t122 -280q0 -104 -58 -190t-139 -111q102 -31 173 -130t71 -227q-1 -214 -139 -330t-375 -116
q-152 0 -310 52t-211 112z" />
    <glyph glyph-name="four.osf" horiz-adv-x="1284" 
d="M1053 -410h-293v344h-715q141 184 216 418t75 430h266q0 -147 -33 -308t-90 -294h281v864h293v-864h155v-246h-155v-344z" />
    <glyph glyph-name="five.osf" horiz-adv-x="1208" 
d="M434 764v-240q141 29 301 0t270 -138q109 -109 109 -306q0 -130 -50 -232q-89 -182 -318 -257q-99 -32 -203 -31q-281 0 -477 133l100 254q139 -99 308 -113t253 52t84 202q0 233 -332 234q-150 0 -332 -54v756h918v-260h-631z" />
    <glyph glyph-name="six.osf" horiz-adv-x="1284" 
d="M676 229q86 8 146 74q60 67 60 187t-56 186t-162 66t-178 -51q-72 -50 -103 -134q14 -172 91 -255t202 -73zM718 950q210 0 337 -136t127 -343q0 -147 -74 -263t-192 -177t-278 -61t-287 81q-251 163 -253 625q0 370 171 580t438 210q137 0 241 -49t201 -160l-166 -192
q-111 150 -272 149q-197 0 -283 -210q-29 -70 -41 -173q121 119 331 119z" />
    <glyph glyph-name="seven.osf" horiz-adv-x="1210" 
d="M113 1022h1022q-18 -303 -179 -541q-42 -59 -106 -135t-108 -128q-116 -137 -164 -318q-35 -129 -35 -312h-299q0 471 338 848q166 186 209 326h-678v260z" />
    <glyph glyph-name="eight.osf" horiz-adv-x="1230" 
d="M844 20q0 98 -62 150t-187 53q-124 0 -185 -57t-62 -146q0 -192 248 -200q248 8 248 200zM383 639q0 -78 55 -121t160 -43t158 47t53 117q0 160 -213 164q-213 -4 -213 -164zM1137 6q-1 -223 -149 -335t-392 -111q-398 0 -509 262q-34 80 -34 196t77 215q77 98 194 129
q-64 16 -114 60q-108 96 -108 242q0 104 44 182q77 137 276 187q84 22 196 22t222 -41q108 -41 178 -132q70 -92 70 -208t-62 -202q-62 -85 -158 -110q117 -31 193 -129t76 -227z" />
    <glyph glyph-name="nine.osf" horiz-adv-x="1284" 
d="M338 544q0 -120 56 -185t162 -65t179 50q72 49 103 133q-16 231 -150 301q-62 32 -145 26q-85 -7 -145 -73q-60 -67 -60 -187zM503 84q-210 0 -337 136t-127 343q0 147 74 263q73 116 191 178t253 61q279 0 422 -181t143 -538q0 -358 -170 -568t-438 -210q-182 0 -310 89
q-67 46 -130 120l164 192q111 -150 272 -149q197 0 283 211q29 70 41 172q-121 -119 -331 -119z" />
    <glyph glyph-name="zero.lf" horiz-adv-x="1370" 
d="M975 718q1 230 -65 347t-227 117t-224 -117t-63 -372t89 -361q68 -80 197 -80q162 0 228 118t65 348zM1274 717q0 -348 -156 -548t-436 -200q-127 0 -229 43t-168 115q-188 205 -191 590q0 347 154 547t424 200q269 0 427 -175q87 -97 131 -246q44 -148 44 -326z" />
    <glyph glyph-name="one.lf" horiz-adv-x="763" 
d="M604 0h-301v1122l-197 -57l-75 235l573 164v-1464z" />
    <glyph glyph-name="two.lf" horiz-adv-x="1204" 
d="M612 1464q213 0 351 -115q137 -116 149 -298q12 -152 -58 -273t-167 -194q-68 -46 -174 -100t-177 -101t-110 -111h659v-272h-1003q0 260 123 428q77 103 154 158q77 56 185 116q109 60 157 95q106 77 115 192t-90 176q-52 33 -131 33t-175 -36t-187 -111l-120 239
q139 96 244 135t255 39z" />
    <glyph glyph-name="three.lf" horiz-adv-x="1179" 
d="M178 365q160 -119 375 -119q109 0 177 46t58 163q-20 193 -280 192h-174v240h176q221 0 235 164q12 172 -243 152q-125 -10 -262 -73l-109 242q227 92 446 92t342 -110q122 -111 121 -281q0 -104 -57 -190t-139 -111q102 -31 173 -130t70 -226q0 -215 -138 -331
t-376 -116q-100 0 -212 26q-227 53 -308 138z" />
    <glyph glyph-name="four.lf" horiz-adv-x="1284" 
d="M1053 344v-344h-293v344h-715q141 184 216 418t75 430h266q0 -147 -33 -308t-90 -294h281v864h293v-864h155v-246h-155z" />
    <glyph glyph-name="five.lf" horiz-adv-x="1208" 
d="M434 1174v-240q135 28 298 0t273 -138q109 -109 109 -307q0 -129 -50 -231q-90 -184 -318 -257q-99 -32 -203 -32q-281 0 -477 133l100 254q139 -98 308 -112t253 52t84 202q0 233 -332 233q-150 0 -332 -53v756h918v-260h-631z" />
    <glyph glyph-name="six.lf" horiz-adv-x="1284" 
d="M676 229q86 8 146 74q60 67 60 187t-56 186t-162 66t-178 -51q-72 -50 -103 -134q14 -172 91 -255t202 -73zM718 950q210 0 337 -136t127 -343q0 -147 -74 -263t-192 -177t-278 -61t-287 81q-251 163 -253 625q0 370 171 580t438 210q137 0 241 -49t201 -160l-166 -192
q-111 150 -272 149q-197 0 -283 -210q-29 -70 -41 -173q121 119 331 119z" />
    <glyph glyph-name="seven.lf" horiz-adv-x="1210" 
d="M113 1434h1022q-18 -303 -179 -541q-42 -59 -106 -135t-108 -128q-116 -137 -164 -319q-35 -129 -35 -311h-299q0 471 338 848q166 186 209 326h-678v260z" />
    <glyph glyph-name="eight.lf" horiz-adv-x="1230" 
d="M864 430q0 98 -62 150t-186 53t-186 -57q-61 -58 -61 -146q-1 -193 247 -201q248 8 248 201zM403 1049q0 -164 232 -164q88 0 141 47t53 117q0 159 -213 163q-213 -4 -213 -163zM1157 416q0 -223 -148 -335t-393 -112q-397 0 -508 262q-34 80 -34 197t77 215t193 129
q-96 25 -159 110q-62 85 -62 190q0 286 319 371q84 21 196 21t222 -41q108 -41 178 -132t70 -207t-62 -202q-62 -85 -157 -110q117 -31 193 -129t75 -227z" />
    <glyph glyph-name="nine.lf" horiz-adv-x="1284" 
d="M334 946q0 -122 56 -186t162 -64t179 49q72 49 103 134q-12 173 -90 255t-201 72q-88 -8 -149 -73q-60 -66 -60 -187zM506 221q197 0 282 211q29 70 41 172q-121 -119 -331 -119q-210 1 -336 137q-127 136 -127 343q0 147 74 263q73 116 191 177t253 61q279 0 422 -181
t143 -537t-170 -568q-170 -211 -438 -211q-136 0 -240 49t-200 160l163 193q111 -150 273 -150z" />
    <glyph glyph-name="zero.tf" horiz-adv-x="1370" 
d="M975 718q1 230 -65 347t-227 117t-224 -117t-63 -372t89 -361q68 -80 197 -80q162 0 228 118t65 348zM1274 717q0 -348 -156 -548t-436 -200q-127 0 -229 43t-168 115q-188 205 -191 590q0 347 154 547t424 200q269 0 427 -175q87 -97 131 -246q44 -148 44 -326z" />
    <glyph glyph-name="one.tf" horiz-adv-x="763" 
d="M604 0h-301v1122l-197 -57l-75 235l573 164v-1464z" />
    <glyph glyph-name="two.tf" horiz-adv-x="1204" 
d="M612 1464q213 0 351 -115q137 -116 149 -298q12 -152 -58 -273t-167 -194q-68 -46 -174 -100t-177 -101t-110 -111h659v-272h-1003q0 260 123 428q77 103 154 158q77 56 185 116q109 60 157 95q106 77 115 192t-90 176q-52 33 -131 33t-175 -36t-187 -111l-120 239
q139 96 244 135t255 39z" />
    <glyph glyph-name="three.tf" horiz-adv-x="1179" 
d="M178 365q160 -119 375 -119q109 0 177 46t58 163q-20 193 -280 192h-174v240h176q221 0 235 164q12 172 -243 152q-125 -10 -262 -73l-109 242q227 92 446 92t342 -110q122 -111 121 -281q0 -104 -57 -190t-139 -111q102 -31 173 -130t70 -226q0 -215 -138 -331
t-376 -116q-100 0 -212 26q-227 53 -308 138z" />
    <glyph glyph-name="four.tf" horiz-adv-x="1284" 
d="M1053 344v-344h-293v344h-715q141 184 216 418t75 430h266q0 -147 -33 -308t-90 -294h281v864h293v-864h155v-246h-155z" />
    <glyph glyph-name="five.tf" horiz-adv-x="1208" 
d="M434 1174v-240q135 28 298 0t273 -138q109 -109 109 -307q0 -129 -50 -231q-90 -184 -318 -257q-99 -32 -203 -32q-281 0 -477 133l100 254q139 -98 308 -112t253 52t84 202q0 233 -332 233q-150 0 -332 -53v756h918v-260h-631z" />
    <glyph glyph-name="six.tf" horiz-adv-x="1284" 
d="M676 229q86 8 146 74q60 67 60 187t-56 186t-162 66t-178 -51q-72 -50 -103 -134q14 -172 91 -255t202 -73zM718 950q210 0 337 -136t127 -343q0 -147 -74 -263t-192 -177t-278 -61t-287 81q-251 163 -253 625q0 370 171 580t438 210q137 0 241 -49t201 -160l-166 -192
q-111 150 -272 149q-197 0 -283 -210q-29 -70 -41 -173q121 119 331 119z" />
    <glyph glyph-name="seven.tf" horiz-adv-x="1210" 
d="M113 1434h1022q-18 -303 -179 -541q-42 -59 -106 -135t-108 -128q-116 -137 -164 -319q-35 -129 -35 -311h-299q0 471 338 848q166 186 209 326h-678v260z" />
    <glyph glyph-name="eight.tf" horiz-adv-x="1230" 
d="M864 430q0 98 -62 150t-186 53t-186 -57q-61 -58 -61 -146q-1 -193 247 -201q248 8 248 201zM403 1049q0 -164 232 -164q88 0 141 47t53 117q0 159 -213 163q-213 -4 -213 -163zM1157 416q0 -223 -148 -335t-393 -112q-397 0 -508 262q-34 80 -34 197t77 215t193 129
q-96 25 -159 110q-62 85 -62 190q0 286 319 371q84 21 196 21t222 -41q108 -41 178 -132t70 -207t-62 -202q-62 -85 -157 -110q117 -31 193 -129t75 -227z" />
    <glyph glyph-name="nine.tf" horiz-adv-x="1284" 
d="M334 946q0 -122 56 -186t162 -64t179 49q72 49 103 134q-12 173 -90 255t-201 72q-88 -8 -149 -73q-60 -66 -60 -187zM506 221q197 0 282 211q29 70 41 172q-121 -119 -331 -119q-210 1 -336 137q-127 136 -127 343q0 147 74 263q73 116 191 177t253 61q279 0 422 -181
t143 -537t-170 -568q-170 -211 -438 -211q-136 0 -240 49t-200 160l163 193q111 -150 273 -150z" />
    </font>
</defs>
</svg>
