<?xml version="1.0" standalone="no"?>
<!DOCTYPE svg PUBLIC "-//W3C//DTD SVG 1.1//EN" "http://www.w3.org/Graphics/SVG/1.1/DTD/svg11.dtd" >
<svg xmlns="http://www.w3.org/2000/svg">
<metadata>
Created by FontPrep 20130207 at Wed Mar  5 16:52:17 2014
 By Drew Rios
Copyright (c) 2013 by Avondale Type Co. All rights reserved.
</metadata>
<defs>
<font id="e66f84803eb699012366a69da3d2a854" >
  <font-face 
    font-family="ATCOverlook-Heavy"
    font-weight="800"
    font-stretch="normal"
    units-per-em="2048"
    panose-1="0 0 9 0 0 0 0 0 0 0"
    ascent="1638"
    descent="-410"
    x-height="1024"
    cap-height="1434"
    bbox="-143 -709 2171.01 1884"
    underline-thickness="102"
    underline-position="-102"
    unicode-range="U+0020-25CA"
  />
<missing-glyph horiz-adv-x="1228" 
 />
    <glyph glyph-name="f_f" unicode="ff" horiz-adv-x="1425" 
d="M1307 1024v-266h-201v-758h-328v758h-282v-758h-328v758h-123v266h123v18q-2 312 115 406t413 33v-310q-111 27 -143 26q-31 -1 -39 -12t-16 -31t-5 -54q3 -33 1 -76h284v18q-2 312 115 406t414 33v-310q-164 40 -183 14q-26 -35 -22 -77q4 -41 2 -84h203z" />
    <glyph glyph-name="f_f_i" unicode="ffi" horiz-adv-x="1736" 
d="M1288 1204q-75 0 -107 -7q-33 -7 -51 -35t-22 -56t-2 -82h524v-1024h-327v758h-197v-758h-328v758h-282v-758h-328v758h-123v266h123v18q-2 312 115 406t413 33v-310q-111 27 -143 26q-31 -1 -39 -12t-16 -31t-5 -54q3 -33 1 -76h284v18q-6 335 155 421q126 67 384 40
q133 -14 313 -51v-309q-267 61 -342 61z" />
    <glyph glyph-name=".notdef" horiz-adv-x="1228" 
 />
    <glyph glyph-name=".null" horiz-adv-x="0" 
 />
    <glyph glyph-name="nonmarkingreturn" horiz-adv-x="681" 
 />
    <glyph glyph-name="space" unicode=" " horiz-adv-x="567" 
 />
    <glyph glyph-name="exclam" unicode="!" horiz-adv-x="546" 
d="M274 307q70 0 116 -47t46 -117q0 -71 -46 -117t-116 -46t-116 47t-47 117q1 70 47 116q46 47 116 47zM428 498h-307v977h307v-977z" />
    <glyph glyph-name="quotedbl" unicode="&#x22;" horiz-adv-x="780" 
d="M705 1239h-211l-35 399h280zM315 1239h-211l-34 399h280z" />
    <glyph glyph-name="numbersign" unicode="#" horiz-adv-x="1318" 
d="M571 842l-34 -242h206l35 242h-207zM1192 602v-268h-191l-47 -334h-297l48 334h-205l-47 -334h-297l47 334h-142v268h179l34 238h-147v268h186l45 326h299l-49 -326h209l45 326h297l-45 -326h143v-268h-184l-33 -238h152z" />
    <glyph glyph-name="dollar" unicode="$" horiz-adv-x="1171" 
d="M422 1072q0 -52 46 -87t144 -61q242 -68 369 -180t127 -308t-112 -306q-112 -112 -289 -146v-189h-267v174q-130 8 -238 46t-151 87l156 269q82 -53 180 -77t177 -16t132 46q54 36 54 98t-54 106t-158 80q-307 104 -391 200q-84 97 -84 254q-1 157 103 255t274 131v190
h267v-176q181 -14 335 -80l-110 -272q-159 68 -336 70q-76 0 -125 -28t-49 -80z" />
    <glyph glyph-name="percent" unicode="%" horiz-adv-x="1753" 
d="M1481 350q0 162 -123 162t-123 -162t123 -162t123 162zM1034 351q0 167 84 267t244 99q160 1 240 -99t80 -267t-85 -267t-241 -100t-239 100t-83 267zM518 1108q0 162 -123 162t-123 -162t123 -162t123 162zM483 0h-290l1052 1434h289zM72 1109q0 167 84 267t243 99
q160 1 240 -99t80 -267t-84 -267t-241 -100q-158 0 -240 100t-82 267z" />
    <glyph glyph-name="ampersand" unicode="&#x26;" horiz-adv-x="1429" 
d="M596 301q104 0 182 41l-248 246q-111 -57 -110 -150q0 -137 176 -137zM664 1194q-42 0 -68 -16q-48 -29 -49 -79q0 -49 13 -73t71 -84q69 29 97 62q28 34 30 78t-25 78t-69 34zM563 -41q-231 0 -375 123q-143 123 -143 317q0 127 67 240t201 184q-115 139 -115 279
t108 251q54 56 148 89t211 33q228 0 329 -117q100 -117 96 -271q-6 -238 -240 -362l123 -121q16 53 22 113h353q-29 -190 -123 -361l172 -170l-230 -235l-147 149q-178 -141 -457 -141z" />
    <glyph glyph-name="quotesingle" unicode="'" horiz-adv-x="391" 
d="M315 1137h-211l-34 399h280z" />
    <glyph glyph-name="parenleft" unicode="(" horiz-adv-x="847" 
d="M410 567q0 -211 92 -367t284 -280l-127 -260q-567 320 -567 908t567 907l127 -263q-192 -126 -284 -280t-92 -365z" />
    <glyph glyph-name="parenright" unicode=")" horiz-adv-x="847" 
d="M438 568q0 210 -92 364t-285 280l127 263q568 -319 568 -907t-568 -908l-127 260q193 125 285 281q92 157 92 367z" />
    <glyph glyph-name="asterisk" unicode="*" horiz-adv-x="729" 
d="M418 1217l182 126l72 -122l-209 -97l209 -92l-72 -129l-182 131l18 -221h-143l18 221l-182 -131l-72 129l209 92l-209 97l72 122l182 -126l-18 221h143z" />
    <glyph glyph-name="plus" unicode="+" horiz-adv-x="1257" 
d="M1141 502h-379v-379h-266v379h-379v266h379v379h266v-379h379v-266z" />
    <glyph glyph-name="comma" unicode="," horiz-adv-x="454" 
d="M41 146q0 66 47 112q47 45 117 45t116 -45t46 -128t-123 -286h-99l43 138q-63 4 -105 51t-42 113z" />
    <glyph glyph-name="hyphen" unicode="-" horiz-adv-x="675" 
d="M594 371h-512v266h512v-266z" />
    <glyph glyph-name="period" unicode="." horiz-adv-x="495" 
d="M248 313q72 0 119 -46q47 -45 47 -115t-48 -121t-118 -51t-118 51t-48 121t47 115q47 46 119 46z" />
    <glyph glyph-name="slash" unicode="/" horiz-adv-x="1038" 
d="M219 -348h-297l869 1982h296z" />
    <glyph glyph-name="zero" unicode="0" horiz-adv-x="1347" 
d="M673 1120q-133 0 -185 -102t-52 -301t51 -301t185 -102t187 102q52 102 52 301t-52 301t-186 102zM672 1464q156 0 274 -62q211 -110 285 -407q33 -129 33 -278q0 -348 -156 -548t-436 -200q-128 0 -230 43q-186 78 -277 284q-81 179 -81 421q0 347 154 547t434 200z" />
    <glyph glyph-name="one" unicode="1" horiz-adv-x="794" 
d="M655 0h-358v1053l-188 -54l-93 283l639 182v-1464z" />
    <glyph glyph-name="two" unicode="2" horiz-adv-x="1189" 
d="M606 1464q213 0 351 -110q139 -110 159 -280q20 -171 -58 -305t-186 -212q-66 -47 -198 -115t-174 -114h587v-328h-1019q0 239 89 393q44 76 87 131q71 91 206 175q36 24 91 55q158 82 196 143q27 53 27 107t-46 93q-46 40 -120 40t-176 -39t-199 -123l-149 289
q162 116 272 158t260 42z" />
    <glyph glyph-name="three" unicode="3" horiz-adv-x="1142" 
d="M561 1464q219 0 341 -110t122 -281q0 -102 -56 -189t-134 -112q98 -31 168 -130t69 -226q0 -215 -138 -331t-376 -116q-153 1 -311 53t-209 111l141 273q174 -102 338 -103q106 0 163 41q56 41 39 128t-88 119t-200 32h-131v280h133q223 0 244 131q10 66 -42 98
q-95 58 -392 -42l-127 282q227 92 446 92z" />
    <glyph glyph-name="four" unicode="4" horiz-adv-x="1265" 
d="M1208 328h-129v-328h-348v328h-702q137 180 201 416t65 448h313q0 -299 -84 -578h207v840h348v-840h129v-286z" />
    <glyph glyph-name="five" unicode="5" horiz-adv-x="1183" 
d="M479 1126v-184q192 21 348 -40q279 -109 279 -413q0 -169 -90 -291q-168 -226 -472 -228q-305 -1 -503 132l121 308q115 -76 270 -100t236 30q80 53 80 164q0 193 -308 192q-141 0 -309 -49v787h918v-308h-570z" />
    <glyph glyph-name="six" unicode="6" horiz-adv-x="1263" 
d="M823 485q0 228 -180 228q-82 0 -141 -39t-86 -105q12 -154 82 -231t174 -59q66 12 108 68t43 138zM707 1167q-174 0 -252 -194q-18 -47 -29 -111q109 88 276 88q222 0 348 -135t126 -349t-157 -355t-366 -142q-281 -1 -425 181t-144 538t172 566q172 212 440 212
t449 -209l-195 -227q-96 137 -243 137z" />
    <glyph glyph-name="seven" unicode="7" horiz-adv-x="1200" 
d="M94 1434h1047q0 -289 -170 -541q-45 -66 -134 -167q-89 -102 -149 -196q-130 -204 -131 -530h-346q0 264 95 492t251 395q125 137 172 239h-635v308z" />
    <glyph glyph-name="eight" unicode="8" horiz-adv-x="1196" 
d="M799 438q0 164 -199 164q-100 0 -150 -47t-51 -117q0 -154 201 -162q199 8 199 162zM428 1030q0 -61 44 -96t129 -35t127 38t42 93q0 129 -170 133q-172 -4 -172 -133zM1141 416q0 -223 -150 -335t-389 -112t-369 88q-176 121 -176 359q0 129 76 227t193 129
q-96 25 -158 110t-62 190t45 183q77 136 275 188q84 22 174 21q209 0 350 -100t142 -291q0 -106 -62 -191t-158 -110q117 -31 193 -129t76 -227z" />
    <glyph glyph-name="nine" unicode="9" horiz-adv-x="1255" 
d="M381 951q0 -151 80 -201q41 -27 111 -27t130 39q59 39 86 104q-16 206 -132 272q-54 30 -122 19q-68 -12 -110 -68t-43 -138zM502 485q-223 -1 -348 135t-125 350t156 355q157 141 366 141q281 0 425 -181t144 -537t-172 -567q-172 -212 -440 -212t-449 209l195 228
q96 -137 244 -138q174 0 252 195q18 47 28 110q-109 -88 -276 -88z" />
    <glyph glyph-name="colon" unicode=":" horiz-adv-x="526" 
d="M264 307q70 0 116 -47t46 -117q0 -71 -46 -117t-116 -46t-117 47t-47 117t47 116q47 47 117 47zM264 1044q70 0 116 -46t46 -116t-46 -117q-46 -48 -116 -48t-117 48t-47 118q0 69 47 115t117 46z" />
    <glyph glyph-name="semicolon" unicode=";" horiz-adv-x="475" 
d="M51 146q0 66 47 112q47 45 117 45t116 -45t46 -128t-123 -286h-98l43 138q-63 4 -106 51q-42 47 -42 113zM215 1044q70 0 116 -46t46 -116t-46 -117q-46 -48 -116 -48t-117 48t-47 118q0 69 47 115t117 46z" />
    <glyph glyph-name="less" unicode="&#x3c;" horiz-adv-x="1380" 
d="M694 643l523 -219v-279l-1088 492l1088 469v-250z" />
    <glyph glyph-name="equal" unicode="=" horiz-adv-x="1269" 
d="M1147 317h-1024v267h1024v-267zM1147 727h-1024v266h1024v-266z" />
    <glyph glyph-name="greater" unicode="&#x3e;" horiz-adv-x="1380" 
d="M1251 637l-1087 -492v279l522 219l-520 213v250z" />
    <glyph glyph-name="question" unicode="?" horiz-adv-x="950" 
d="M410 307q70 0 116 -47t45 -117q0 -71 -46 -117q-45 -46 -115 -46t-117 47t-47 117t47 116q47 47 117 47zM905 1059q0 -255 -208 -375q-56 -33 -119 -47v-141h-328v335q137 1 234 49t98 138q0 158 -179 158q-143 0 -272 -74l-111 274q244 84 437 90q211 0 329 -116
t119 -291z" />
    <glyph glyph-name="at" unicode="@" horiz-adv-x="1974" 
d="M884 354q142 0 240 117l33 188q-39 146 -191 146q-77 0 -131 -66q-55 -65 -71 -159t14 -160t106 -66zM989 1370q-219 0 -400 -106t-283 -288t-101 -368q0 -358 223 -582q104 -104 255 -166t307 -62t268 32q112 33 233 100l57 -88q-252 -154 -542 -153q-193 1 -364 71
q-338 139 -480 476q-70 164 -70 346q0 242 119 448t326 327q207 122 452 122q184 0 351 -67q329 -132 472 -438q70 -148 70 -306q0 -272 -118 -426t-357 -154q-98 0 -172 33t-111 84q-150 -105 -302 -105t-244 70q-178 135 -129 410q35 201 176 341t356 140q137 0 233 -80
l9 41h262q-88 -520 -96 -596q-12 -156 47 -190q29 -16 86 -17q112 0 180 120t67 325q0 133 -60 261q-125 267 -411 385q-147 60 -309 60z" />
    <glyph glyph-name="A" unicode="A" horiz-adv-x="1482" 
d="M883 471l-142 322l-141 -322h283zM999 205h-516l-90 -205h-379l727 1475l727 -1475h-378z" />
    <glyph glyph-name="B" unicode="B" horiz-adv-x="1359" 
d="M475 297h146q199 0 258 27q71 30 71 102t-23 95t-37 35t-46 18q-31 6 -49 12q-25 8 -121 8h-199v-297zM475 881h57q193 0 250 16q90 31 91 115t-91 105q-77 18 -207 18h-100v-254zM127 1434h618q223 0 351 -96t127 -269q0 -256 -230 -319q311 -53 312 -344
q-1 -202 -133 -304t-371 -102h-674v1434z" />
    <glyph glyph-name="C" unicode="C" horiz-adv-x="1409" 
d="M773 -31q-175 -1 -312 61t-218 168q-163 214 -163 519q0 350 190 549t506 198q176 0 332 -74t256 -214l-262 -211q-47 73 -137 121t-179 49q-180 0 -269 -111q-89 -110 -89 -306t90 -308t268 -111q84 0 176 50t140 120l262 -207q-102 -141 -259 -217t-332 -76z" />
    <glyph glyph-name="D" unicode="D" horiz-adv-x="1435" 
d="M475 328h141q202 0 303 98q38 39 63 114q26 75 26 176t-26 176t-63 115q-94 99 -303 99h-141v-778zM127 1434h489q356 0 548 -201t192 -533t-206 -516t-534 -184h-489v1434z" />
    <glyph glyph-name="E" unicode="E" horiz-adv-x="1294" 
d="M475 1106v-225h684v-308h-684v-245h742v-328h-1090v1434h1090v-328h-742z" />
    <glyph glyph-name="F" unicode="F" horiz-adv-x="1265" 
d="M475 1106v-225h678v-308h-678v-573h-348v1434h1083v-328h-735z" />
    <glyph glyph-name="G" unicode="G" horiz-adv-x="1478" 
d="M836 809h548v-547q-213 -293 -605 -293t-585 317q-114 187 -114 431q0 172 56 315q56 142 152 236q200 196 486 196q203 0 358 -76t252 -212l-235 -191q-68 78 -161 126t-195 48q-173 0 -269 -123q-96 -122 -96 -318t93 -319t249 -123t266 78v189h-200v266z" />
    <glyph glyph-name="H" unicode="H" horiz-adv-x="1515" 
d="M1393 1434v-1434h-349v573h-573v-573h-348v1434h348v-555h573v555h349z" />
    <glyph glyph-name="I" unicode="I" horiz-adv-x="618" 
d="M483 0h-348v1434h348v-1434z" />
    <glyph glyph-name="J" unicode="J" horiz-adv-x="1009" 
d="M385 287q86 0 125 45t39 200v902h348v-1026q8 -439 -457 -439q-313 0 -452 166l174 250q100 -98 223 -98z" />
    <glyph glyph-name="K" unicode="K" horiz-adv-x="1409" 
d="M475 0h-348v1434h348v-615l473 615h379l-557 -695l651 -739h-420l-432 489l-94 -118v-371z" />
    <glyph glyph-name="L" unicode="L" horiz-adv-x="1255" 
d="M1210 307v-307h-1083v1434h348v-1127h735z" />
    <glyph glyph-name="M" unicode="M" horiz-adv-x="1699" 
d="M1577 0h-348v725l-379 -363l-379 363v-725h-348v1495l727 -707l727 707v-1495z" />
    <glyph glyph-name="N" unicode="N" horiz-adv-x="1454" 
d="M471 0h-348v1495l860 -795v734h348v-1495l-860 790v-729z" />
    <glyph glyph-name="O" unicode="O" horiz-adv-x="1605" 
d="M803 1137q-179 0 -273 -110q-94 -111 -94 -311t94 -310t272 -109q178 0 273 110q94 111 94 311t-94 310t-272 109zM803 1464q337 0 531 -217t194 -547t-209 -530q-209 -201 -518 -201t-516 201q-207 200 -207 530t193 547q194 217 532 217z" />
    <glyph glyph-name="P" unicode="P" horiz-adv-x="1259" 
d="M471 707h223q82 0 129 42q47 41 47 163t-71 179q-72 56 -228 56h-100v-440zM123 1434h491q303 0 454 -144t151 -378q-1 -234 -141 -363t-373 -129h-234v-420h-348v1434z" />
    <glyph glyph-name="Q" unicode="Q" horiz-adv-x="1609" 
d="M438 717q0 -201 94 -311t272 -109q178 0 273 110q94 111 94 311t-94 310t-272 109q-179 1 -273 -109t-94 -311zM805 -31q-311 0 -518 201q-207 200 -207 530t193 547q194 217 532 217q337 0 531 -217t194 -530q0 -190 -68 -340t-186 -248l131 -229l-242 -140l-135 240
q-109 -31 -225 -31z" />
    <glyph glyph-name="R" unicode="R" horiz-adv-x="1286" 
d="M471 686h152q57 0 98 5t75 28q34 24 45 48q29 63 29 137q0 135 -66 189t-212 54h-121v-461zM471 399v-399h-348v1434h512q276 0 430 -138t154 -385q0 -303 -232 -436l273 -475h-381l-230 399h-178z" />
    <glyph glyph-name="S" unicode="S" horiz-adv-x="1163" 
d="M412 1080q0 -60 46 -95t144 -61q242 -68 369 -180t127 -308q0 -144 -68 -248t-172 -151t-230 -65q-236 -33 -454 51q-94 35 -133 79l156 269q82 -53 180 -77t177 -16t132 46q53 36 53 98t-54 106t-170 84q-117 39 -185 69q-192 84 -244 202q-33 72 -33 170
q-1 160 101 261q184 183 571 144q168 -17 307 -76l-110 -272q-111 45 -228 62q-118 16 -200 -8t-82 -84z" />
    <glyph glyph-name="T" unicode="T" horiz-adv-x="1224" 
d="M1178 1126h-392v-1126h-348v1126h-389v308h1129v-308z" />
    <glyph glyph-name="U" unicode="U" horiz-adv-x="1427" 
d="M1319 1434v-813q0 -311 -157 -481q-158 -170 -450 -171q-292 0 -447 170t-154 479v816h348v-760q0 -209 54 -300t202 -91q147 0 201 91t55 300v760h348z" />
    <glyph glyph-name="V" unicode="V" horiz-adv-x="1441" 
d="M1427 1434l-706 -1514l-707 1514h379l328 -770l328 770h378z" />
    <glyph glyph-name="W" unicode="W" horiz-adv-x="2119" 
d="M1452 -82l-391 881l-393 -881l-656 1516h359l315 -748l375 789l373 -789l315 748h358z" />
    <glyph glyph-name="X" unicode="X" horiz-adv-x="1560" 
d="M1139 0l-359 487l-358 -487h-399l548 735l-518 699h400l327 -447l328 447h399l-520 -697l551 -737h-399z" />
    <glyph glyph-name="Y" unicode="Y" horiz-adv-x="1404" 
d="M877 0h-349v606l-532 828h379l327 -523l328 523h379l-532 -828v-606z" />
    <glyph glyph-name="Z" unicode="Z" horiz-adv-x="1531" 
d="M1432 317v-317h-1348l793 1137h-691v297h1266l-778 -1117h758z" />
    <glyph glyph-name="bracketleft" unicode="[" horiz-adv-x="835" 
d="M754 1188h-314v-1249h314v-287h-631v1823h631v-287z" />
    <glyph glyph-name="backslash" unicode="\" horiz-adv-x="1103" 
d="M1145 -348h-318l-868 1982h317z" />
    <glyph glyph-name="bracketright" unicode="]" horiz-adv-x="835" 
d="M713 -348h-631v287h313v1249h-313v287h631v-1823z" />
    <glyph glyph-name="asciicircum" unicode="^" horiz-adv-x="942" 
d="M588 1010l-121 157l-137 -157h-238l379 469l379 -469h-262z" />
    <glyph glyph-name="underscore" unicode="_" horiz-adv-x="1302" 
d="M1307 -348h-1311v246h1311v-246z" />
    <glyph glyph-name="grave" unicode="`" horiz-adv-x="526" 
d="M526 1341h-239l-287 297h281z" />
    <glyph glyph-name="a" unicode="a" horiz-adv-x="1142" 
d="M510 477q-49 0 -90 -34q-41 -35 -41 -101t37 -96t94 -29q137 0 221 72v137q-113 51 -221 51zM637 1051q412 0 412 -353v-698h-289q-20 49 -27 96q-47 -57 -125 -94t-174 -37q-174 1 -278 107t-104 252t96 248q97 103 286 104q143 0 297 -55v22q0 102 -44 133t-130 31
q-169 0 -321 -84l-109 215q90 45 224 79t286 34z" />
    <glyph glyph-name="b" unicode="b" horiz-adv-x="1271" 
d="M682 260q84 0 131 68t47 178t-47 178t-140 68t-161 -49q-54 -35 -80 -85v-225q74 -133 250 -133zM432 1475v-584q141 156 343 156t318 -150q115 -151 115 -393t-114 -392t-334 -149q-186 0 -328 150q-4 -53 -26 -113h-302v1475h328z" />
    <glyph glyph-name="c" unicode="c" horiz-adv-x="997" 
d="M630 803q-228 0 -230 -289q0 -289 230 -289q116 0 228 84l107 -215q-57 -57 -166 -94t-205 -37q-260 -1 -396 145t-137 406q1 260 137 406t396 145q96 0 205 -37t166 -94l-107 -215q-112 84 -228 84z" />
    <glyph glyph-name="d" unicode="d" horiz-adv-x="1271" 
d="M594 752q-80 0 -131 -65t-51 -181t51 -182q51 -64 145 -64t168 59q39 31 64 74v225q-75 134 -246 134zM1167 1475v-1475h-301q-23 59 -26 115q-141 -152 -344 -152t-318 150q-115 151 -115 393t116 392q115 150 317 149q202 0 344 -156v584h327z" />
    <glyph glyph-name="e" unicode="e" horiz-adv-x="1122" 
d="M576 784q-98 0 -139 -54q-42 -54 -48 -155h373q-6 101 -47 155t-139 54zM1059 371h-658q37 -156 172 -156q117 0 242 70l113 -211q-70 -49 -166 -80t-187 -31q-256 0 -385 159q-129 160 -129 396q-1 236 139 382t363 147q268 0 382 -173t114 -503z" />
    <glyph glyph-name="f" unicode="f" horiz-adv-x="712" 
d="M696 1024v-266h-200v-758h-328v758h-123v266h123v18q-2 312 114 406t414 33v-310q-111 27 -143 26q-31 -1 -39 -12t-16 -31t-5 -54q3 -33 1 -76h202z" />
    <glyph glyph-name="g" unicode="g" horiz-adv-x="1271" 
d="M412 518q0 -116 51 -182q51 -64 144 -64t169 60q39 31 64 74v225q-74 133 -246 133q-80 0 -131 -65t-51 -181zM1167 1024v-950q0 -262 -152 -401q-153 -138 -411 -138q-126 0 -276 39t-207 92l104 244q55 -43 149 -70q94 -26 206 -26q110 0 185 52t75 154v113
q-141 -156 -343 -156t-318 150q-116 151 -116 393t115 392t334 149q186 0 328 -150q4 53 26 113h301z" />
    <glyph glyph-name="h" unicode="h" 
d="M432 1475v-584q66 70 165 115t202 45q170 1 260 -103t90 -270v-678h-328v578q0 112 -58 154q-59 42 -147 18t-184 -105v-645h-328v1475h328z" />
    <glyph glyph-name="i" unicode="i" horiz-adv-x="587" 
d="M457 0h-328v1024h328v-1024zM295 1559q78 -1 132 -55t54 -132t-54 -133t-132 -55t-133 55t-56 133q0 78 56 132t133 55z" />
    <glyph glyph-name="j" unicode="j" horiz-adv-x="583" 
d="M451 1024v-1024q1 -326 -141 -423t-453 -34v310q57 -15 89 -23t64 -9t48 -1q15 0 31 19q15 19 21 31q14 31 13 130v1024h328zM289 1559q78 -1 132 -55t54 -132t-54 -133t-132 -55t-133 55t-56 133q0 78 56 132t133 55z" />
    <glyph glyph-name="k" unicode="k" horiz-adv-x="1118" 
d="M432 0h-328v1475h328v-861l318 410h348l-398 -481l428 -543h-378l-236 317l-82 -100v-217z" />
    <glyph glyph-name="l" unicode="l" horiz-adv-x="555" 
d="M440 0h-325v1475h325v-1475z" />
    <glyph glyph-name="m" unicode="m" horiz-adv-x="1716" 
d="M104 1024h297q14 -27 23 -100q139 127 297 127q193 0 260 -144q145 143 334 144q305 0 305 -373v-678h-328v662q0 98 -78 98q-98 0 -188 -74v-686h-328v662q0 98 -77 98q-94 0 -189 -68v-692h-328v1024z" />
    <glyph glyph-name="n" unicode="n" 
d="M104 1024h297q18 -37 27 -137q66 72 167 118t204 46q170 1 260 -103t90 -270v-678h-328v578q0 112 -58 154q-59 42 -147 18t-184 -105v-645h-328v1024z" />
    <glyph glyph-name="o" unicode="o" horiz-adv-x="1165" 
d="M584 770q-96 0 -146 -73t-49 -191q0 -118 49 -194q50 -74 146 -74t144 74t48 194t-48 192t-144 72zM590 1047q236 -1 375 -149t139 -392t-139 -394t-382 -149q-243 0 -382 150q-139 151 -139 399t146 392t382 143z" />
    <glyph glyph-name="p" unicode="p" horiz-adv-x="1271" 
d="M678 272q80 0 131 65t51 181t-51 182q-51 64 -141 64q-59 0 -111 -23q-88 -39 -125 -110v-225q75 -134 246 -134zM104 1024h302q23 -59 26 -115q141 152 344 152t318 -150q114 -151 114 -393t-116 -392t-316 -149q-202 0 -344 156v-543h-328v1434z" />
    <glyph glyph-name="q" unicode="q" horiz-adv-x="1271" 
d="M412 518q0 -116 51 -182q51 -64 144 -64t169 60q39 31 64 74v225q-74 133 -246 133q-80 0 -131 -65t-51 -181zM1167 1024v-1434h-327v543q-141 -156 -343 -156t-318 150q-116 151 -116 393t115 392t334 149q186 0 328 -152q4 55 26 115h301z" />
    <glyph glyph-name="r" unicode="r" horiz-adv-x="854" 
d="M104 1024h297q14 -33 23 -113q215 209 397 86l-88 -266q-67 49 -147 38t-154 -85v-684h-328v1024z" />
    <glyph glyph-name="s" unicode="s" horiz-adv-x="909" 
d="M516 317q0 51 -45 78t-95 38t-59 16q-137 37 -209 105t-73 200q0 132 109 214q110 81 272 81q94 0 202 -27t181 -70l-90 -221q-131 80 -254 80q-86 0 -86 -53t112 -84q189 -51 281 -131t92 -235t-127 -246t-277 -91q-150 1 -262 47t-165 107l133 209q104 -100 232 -100
t128 83z" />
    <glyph glyph-name="t" unicode="t" horiz-adv-x="757" 
d="M494 758v-332q0 -142 45 -151t80 -2t75 18v-297q-190 -42 -307 -18t-169 129t-52 321v332h-123v266h123v451h328v-451h200v-266h-200z" />
    <glyph glyph-name="u" unicode="u" 
d="M1141 1024v-1024h-297q-18 37 -27 137q-66 -72 -167 -118t-210 -46q-108 -1 -188 49q-156 97 -156 324v678h328v-578q0 -112 58 -154t146 -18t185 105v645h328z" />
    <glyph glyph-name="v" unicode="v" horiz-adv-x="1150" 
d="M1130 1024l-555 -1106l-555 1106h359l196 -481l197 481h358z" />
    <glyph glyph-name="w" unicode="w" horiz-adv-x="1705" 
d="M1159 -82l-305 559l-305 -559l-522 1106h348l205 -473l274 514l274 -514l205 473h348z" />
    <glyph glyph-name="x" unicode="x" horiz-adv-x="1120" 
d="M733 514l371 -512h-344l-201 274l-199 -274h-344l371 512l-371 512h344l199 -276l201 276h344z" />
    <glyph glyph-name="y" unicode="y" horiz-adv-x="1200" 
d="M1178 1024l-473 -1120q-76 -190 -185 -280q-108 -90 -228 -87q-120 4 -259 53l84 246q127 -57 186 -26t119 190l-408 1024h359l225 -606l248 606h332z" />
    <glyph glyph-name="z" unicode="z" horiz-adv-x="1028" 
d="M946 264v-264h-926l482 760h-398v264h904l-480 -760h418z" />
    <glyph glyph-name="braceleft" unicode="{" horiz-adv-x="913" 
d="M618 256v-49q0 -72 4 -102q4 -29 24 -67q22 -38 70 -60t136 -44l-70 -274q-347 66 -414 232q-32 81 -32 148v169q0 123 -53 174t-189 51h-33v287h33q135 0 189 51q53 51 53 174q0 193 10 244q31 160 205 237q92 41 231 68l70 -274q-88 -23 -136 -45t-70 -59t-24 -67
t-4 -98q0 -68 -1 -98q-4 -112 -42 -179t-133 -97q126 -40 155 -147q21 -78 21 -175z" />
    <glyph glyph-name="bar" unicode="|" horiz-adv-x="716" 
d="M502 -348h-287v1986h287v-1986z" />
    <glyph glyph-name="braceright" unicode="}" horiz-adv-x="913" 
d="M578 946q0 -123 53 -174t188 -51h33v-287h-33q-135 0 -188 -51t-53 -174v-53q6 -190 -36 -274t-124 -128q-115 -61 -287 -94l-70 274q89 22 137 44t70 60t24 68q3 30 3 152q0 123 24 186q39 96 152 134q-168 53 -175 276q-1 30 -1 98t-3 98t-25 68t-70 58q-48 22 -136 45
l70 274q312 -59 394 -193q41 -70 46 -125q10 -125 8 -170q-1 -45 -1 -61z" />
    <glyph glyph-name="asciitilde" unicode="~" horiz-adv-x="1406" 
d="M1198 854l117 -109q-64 -116 -158 -207q-51 -50 -164 -69q-66 -11 -199 25t-204 61t-95 31q-161 44 -228 -17q-30 -27 -56 -59l-119 108q124 214 290 240q83 12 156 1t177 -44t150 -48q45 -15 103 -25t78 -9t53 17q32 16 50 38t49 66z" />
    <glyph glyph-name="exclamdown" unicode="&#xa1;" horiz-adv-x="509" 
d="M408 -410h-308v938h308v-938zM92 883q0 70 46 117t118 47q72 1 117 -45t45 -118t-47 -118q-47 -47 -117 -47t-116 47t-46 117z" />
    <glyph glyph-name="cent" unicode="&#xa2;" horiz-adv-x="1007" 
d="M634 803q-228 0 -230 -289q0 -289 230 -289q116 0 228 84l107 -215q-45 -45 -122 -78t-161 -45v-176h-266v189q-174 45 -264 182t-90 348t90 348t264 182v191h266v-178q135 -20 227 -80q33 -20 56 -43l-107 -215q-112 84 -228 84z" />
    <glyph glyph-name="sterling" unicode="&#xa3;" horiz-adv-x="1120" 
d="M1065 307v-307h-975v307q68 1 122 61t54 152v64h-176v307h176v184q0 127 56 217t143 130q175 82 390 48q95 -14 169 -47l-72 -278q-93 35 -162 33t-107 -20q-37 -18 -63 -64q-26 -47 -26 -121v-82h143v-307h-143v-105q0 -96 -74 -172h545z" />
    <glyph glyph-name="yen" unicode="&#xa5;" horiz-adv-x="1347" 
d="M1055 668v-205h-207v-103h207v-204h-207v-156h-348v156h-215v204h215v103h-215v205h215l-492 766h359l307 -484l307 484h358l-491 -766h207z" />
    <glyph glyph-name="brokenbar" unicode="&#xa6;" horiz-adv-x="716" 
d="M502 -348h-287v676h287v-676zM502 963h-287v675h287v-675z" />
    <glyph glyph-name="section" unicode="&#xa7;" horiz-adv-x="1220" 
d="M424 541q0 -84 123 -133q111 -36 181 -8t71 112q0 53 -40 86t-112 57q-134 31 -191 -28q-32 -33 -32 -86zM88 535q0 213 215 290q-172 135 -172 283t90 240q157 161 521 116q155 -18 296 -75l-106 -259q-104 57 -251 81q-148 24 -198 -42q-18 -25 -18 -57t19 -59
q19 -28 71 -49q51 -21 101 -36t124 -40t126 -55q119 -70 173 -151t56 -204q0 -195 -197 -282q154 -115 154 -287q0 -284 -317 -357q-164 -36 -397 14q-101 22 -194 58l107 248q114 -67 283 -80q77 -6 131 22q53 28 53 91q0 79 -156 128q-228 72 -282 104q-124 74 -178 155
t-54 203z" />
    <glyph glyph-name="dieresis" unicode="&#xa8;" horiz-adv-x="841" 
d="M512 1518q0 68 49 114t118 47q69 0 116 -46q47 -45 47 -115t-47 -117t-116 -47t-118 48t-49 116zM0 1518q0 70 48 116t119 45q71 0 117 -46q46 -45 46 -115t-46 -117t-117 -47t-119 47t-48 117z" />
    <glyph glyph-name="copyright" unicode="&#xa9;" horiz-adv-x="1687" 
d="M850 1106q74 0 152 -27t118 -67l-65 -183q-111 63 -191 64q-135 0 -135 -176t135 -176q80 0 191 63l65 -182q-41 -41 -119 -68t-151 -26q-180 0 -272 102t-92 286t92 288q92 102 272 102zM1468 716q0 262 -179 446t-444 184t-445 -184t-181 -445q0 -261 179 -445
q178 -184 444 -184t446 183t180 445zM847 1458q310 0 524 -216t214 -522t-217 -525t-527 -219t-525 215q-214 217 -214 523t217 525q218 219 528 219z" />
    <glyph glyph-name="guillemotleft" unicode="&#xab;" horiz-adv-x="1181" 
d="M1120 834l-221 -324l221 -330l-207 -137l-338 467l338 461zM606 834l-221 -324l221 -330l-207 -137l-338 467l338 461z" />
    <glyph glyph-name="registered" unicode="&#xae;" horiz-adv-x="753" 
d="M346 1139h14q55 0 68 6q12 6 12 35t-16 37t-64 8h-14v-86zM373 1311q170 0 170 -129q0 -76 -64 -109l84 -147h-108l-72 127h-37v-127h-102v385h129zM377 811q127 0 214 90t87 216t-87 215t-214 89t-214 -89t-87 -215t87 -216t214 -90zM378 1475q148 -1 252 -105
q103 -104 103 -252t-104 -254t-253 -106t-252 105q-104 105 -104 253t105 253q105 106 253 106z" />
    <glyph glyph-name="macron" unicode="&#xaf;" horiz-adv-x="743" 
d="M743 1438h-743v200h743v-200z" />
    <glyph glyph-name="degree" unicode="&#xb0;" horiz-adv-x="700" 
d="M352 1524q-45 0 -76 -31q-30 -31 -30 -78t30 -78t76 -31q45 0 76 32q31 30 31 77t-31 78t-76 31zM353 1677q101 0 178 -78t77 -184t-77 -184t-181 -78t-181 78t-77 183t80 184t181 79z" />
    <glyph glyph-name="plusminus" unicode="&#xb1;" horiz-adv-x="1257" 
d="M117 266h1024v-266h-1024v266zM1141 973v-266h-379v-297h-266v297h-379v266h379v297h266v-297h379z" />
    <glyph glyph-name="acute" unicode="&#xb4;" horiz-adv-x="546" 
d="M240 1341h-240l246 297h301z" />
    <glyph glyph-name="paragraph" unicode="&#xb6;" horiz-adv-x="1187" 
d="M1106 1434v-1434h-348v481h-117q-262 0 -411 119q-148 119 -148 335t154 357t405 142h465z" />
    <glyph glyph-name="periodcentered" unicode="&#xb7;" horiz-adv-x="489" 
d="M246 819q70 0 116 -46t46 -116q0 -71 -46 -117t-116 -46t-117 47t-47 117t47 115q47 46 117 46z" />
    <glyph glyph-name="cedilla" unicode="&#xb8;" horiz-adv-x="471" 
d="M471 -256q0 -72 -63 -125t-181 -53q-51 0 -124 18t-103 43l59 148q87 -68 185 -78t98 55q0 51 -53 51q-39 0 -64 -26l-131 51l64 172h155l-47 -113q27 21 80 21t89 -46t36 -118z" />
    <glyph glyph-name="guillemotright" unicode="&#xbb;" horiz-adv-x="1181" 
d="M1120 510l-338 -467l-207 137l222 330l-222 324l207 137zM606 510l-338 -467l-207 137l222 330l-222 324l207 137z" />
    <glyph glyph-name="questiondown" unicode="&#xbf;" horiz-adv-x="950" 
d="M45 66q0 174 97 284t231 139v142h327v-336q-137 0 -234 -48t-97 -138q0 -158 178 -158q143 0 272 74l111 -275q-244 -84 -436 -90q-211 0 -330 116t-119 290zM541 819q-70 0 -116 47t-46 117t46 117t116 47q71 0 117 -47t46 -117t-46 -117q-47 -47 -117 -47z" />
    <glyph glyph-name="Agrave" unicode="&#xc0;" horiz-adv-x="1482" 
d="M883 471l-142 322l-141 -322h283zM999 205h-516l-90 -205h-379l727 1475l727 -1475h-378zM670 1546l-287 297h281l245 -297h-239z" />
    <glyph glyph-name="Aacute" unicode="&#xc1;" horiz-adv-x="1482" 
d="M741 793l-141 -322h283zM483 205l-90 -205h-379l727 1475l727 -1475h-378l-91 205h-516zM829 1546h-239l246 297h301z" />
    <glyph glyph-name="Acircumflex" unicode="&#xc2;" horiz-adv-x="1482" 
d="M741 793l-141 -322h283zM483 205l-90 -205h-379l727 1475l727 -1475h-378l-91 205h-516zM1116 1546h-219l-147 180l-146 -180h-219l236 297h260z" />
    <glyph glyph-name="Atilde" unicode="&#xc3;" horiz-adv-x="1482" 
d="M741 793l-141 -322h283zM483 205l-90 -205h-379l727 1475l727 -1475h-378l-91 205h-516zM367 1585q95 228 238 230q67 0 163 -35t144 -39q50 -4 74 16t61 92l77 -51q-82 -194 -169 -234t-224 17q-113 43 -175 42t-112 -87z" />
    <glyph glyph-name="Adieresis" unicode="&#xc4;" horiz-adv-x="1482" 
d="M741 793l-141 -322h283zM483 205l-90 -205h-379l727 1475l727 -1475h-378l-91 205h-516zM1157 1722q0 -70 -47 -116t-116 -47q-70 0 -118 48q-48 47 -48 115t48 115q49 47 118 47t116 -46t47 -116zM645 1722q0 -70 -46 -116t-117 -47q-70 0 -118 47q-48 46 -48 116
t47 116q48 46 119 46t117 -46t46 -116z" />
    <glyph glyph-name="Aring" unicode="&#xc5;" horiz-adv-x="1482" 
d="M883 471l-142 322l-141 -322h283zM674 1661q0 -31 20 -51t51 -20t51 20t19 51q0 31 -19 51q-18 20 -50 20t-52 -20t-20 -51zM543 1650q0 129 102 187q47 27 115 27t126 -60t58 -143q0 -84 -57 -142t-137 -61l718 -1458h-378l-91 205h-516l-90 -205h-379l719 1458
q-78 6 -134 66t-56 126z" />
    <glyph glyph-name="AE" unicode="&#xc6;" horiz-adv-x="2060" 
d="M1042 502v364l-266 -364h266zM1391 1106v-225h534v-308h-534v-245h591v-328h-940v215h-477l-157 -215h-418l1052 1434h940v-328h-591z" />
    <glyph glyph-name="Ccedilla" unicode="&#xc7;" horiz-adv-x="1409" 
d="M428 717q0 -195 90 -307t268 -111q84 0 176 50t140 120l262 -207q-171 -234 -457 -280l-39 -95q27 21 70 21t75 -23q60 -43 60 -128t-63 -138t-181 -53q-51 0 -123 18t-104 43l60 148q86 -68 184 -78t98 55q0 51 -53 51q-39 0 -64 -26l-131 51l54 141q-172 5 -304 69
t-210 170q-156 210 -156 509q0 350 190 549t506 198q176 0 332 -74t256 -214l-262 -211q-47 73 -137 121t-195 48q-104 0 -186 -52q-156 -100 -156 -365z" />
    <glyph glyph-name="Egrave" unicode="&#xc8;" horiz-adv-x="1294" 
d="M475 881h684v-308h-684v-245h742v-328h-1090v1434h1090v-328h-742v-225zM864 1546h-239l-287 297h280z" />
    <glyph glyph-name="Eacute" unicode="&#xc9;" horiz-adv-x="1294" 
d="M475 1106v-225h684v-308h-684v-245h742v-328h-1090v1434h1090v-328h-742zM784 1546h-239l246 297h301z" />
    <glyph glyph-name="Ecircumflex" unicode="&#xca;" horiz-adv-x="1294" 
d="M475 881h684v-308h-684v-245h742v-328h-1090v1434h1090v-328h-742v-225zM1071 1546h-219l-147 180l-146 -180h-219l235 297h261z" />
    <glyph glyph-name="Edieresis" unicode="&#xcb;" horiz-adv-x="1294" 
d="M475 881h684v-308h-684v-245h742v-328h-1090v1434h1090v-328h-742v-225zM949 1884q69 0 116 -46t47 -116t-47 -116t-116 -47q-69 0 -118 48q-49 47 -49 115t49 115t118 47zM437 1884q71 0 117 -46t46 -116t-46 -116t-117 -47q-71 0 -119 47q-48 46 -48 116t48 116t119 46
z" />
    <glyph glyph-name="Igrave" unicode="&#xcc;" horiz-adv-x="618" 
d="M135 0v1434h348v-1434h-348zM479 1546h-239l-287 297h280z" />
    <glyph glyph-name="Iacute" unicode="&#xcd;" horiz-adv-x="618" 
d="M483 0h-348v1434h348v-1434zM399 1546h-239l246 297h301z" />
    <glyph glyph-name="Icircumflex" unicode="&#xce;" horiz-adv-x="618" 
d="M135 0v1434h348v-1434h-348zM686 1546h-219l-148 180l-145 -180h-219l235 297h261z" />
    <glyph glyph-name="Idieresis" unicode="&#xcf;" horiz-adv-x="618" 
d="M135 0v1434h348v-1434h-348zM564 1884q69 0 116 -46t47 -116t-47 -116t-116 -47q-69 0 -118 48q-49 47 -49 115t49 115t118 47zM52 1884q71 0 117 -46t46 -116t-46 -116t-117 -47q-71 0 -119 47q-48 46 -48 116t48 116t119 46z" />
    <glyph glyph-name="Eth" unicode="&#xd0;" horiz-adv-x="1435" 
d="M475 328h141q202 0 303 98q38 39 63 114q26 75 26 176t-26 176t-63 115q-94 99 -303 99h-141v-266h277v-267h-277v-245zM127 1434h489q356 0 548 -201t192 -533t-206 -516t-534 -184h-489v1434z" />
    <glyph glyph-name="Ntilde" unicode="&#xd1;" horiz-adv-x="1454" 
d="M471 0h-348v1495l860 -795v734h348v-1495l-860 790v-729zM352 1585q95 228 239 230q67 0 162 -35q171 -63 219 -23q23 20 60 92l78 -51q-82 -194 -169 -234t-224 17q-113 43 -175 42t-112 -87z" />
    <glyph glyph-name="Ograve" unicode="&#xd2;" horiz-adv-x="1605" 
d="M803 1137q-179 0 -273 -110q-94 -111 -94 -311t94 -310t272 -109q178 0 273 110q94 111 94 311t-94 310t-272 109zM803 1464q337 0 531 -217t194 -547t-209 -530q-209 -201 -518 -201t-516 201q-207 200 -207 530t193 547q194 217 532 217zM971 1546h-240l-287 297h281z
" />
    <glyph glyph-name="Oacute" unicode="&#xd3;" horiz-adv-x="1605" 
d="M803 1137q-179 0 -273 -110q-94 -111 -94 -311t94 -310t272 -109q178 0 273 110q94 111 94 311t-94 310t-272 109zM803 1464q337 0 531 -217t194 -547t-209 -530q-209 -201 -518 -201t-516 201q-207 200 -207 530t193 547q194 217 532 217zM891 1546h-240l246 297h301z
" />
    <glyph glyph-name="Ocircumflex" unicode="&#xd4;" horiz-adv-x="1605" 
d="M803 1137q-179 0 -273 -110q-94 -111 -94 -311t94 -310t272 -109q178 0 273 110q94 111 94 311t-94 310t-272 109zM803 1464q337 0 531 -217t194 -547t-209 -530q-209 -201 -518 -201t-516 201q-207 200 -207 530t193 547q194 217 532 217zM1178 1546h-220l-147 180
l-145 -180h-220l236 297h260z" />
    <glyph glyph-name="Otilde" unicode="&#xd5;" horiz-adv-x="1605" 
d="M803 1137q-179 0 -273 -110q-94 -111 -94 -311t94 -310t272 -109q178 0 273 110q94 111 94 311t-94 310t-272 109zM803 1464q337 0 531 -217t194 -547t-209 -530q-209 -201 -518 -201t-516 201q-207 200 -207 530t193 547q194 217 532 217zM428 1585q95 228 239 230
q67 0 162 -35q171 -63 219 -23q23 20 60 92l78 -51q-82 -194 -169 -234t-224 17q-113 43 -175 42t-112 -87z" />
    <glyph glyph-name="Odieresis" unicode="&#xd6;" horiz-adv-x="1605" 
d="M803 1137q-179 0 -273 -110q-94 -111 -94 -311t94 -310t272 -109q178 0 273 110q94 111 94 311t-94 310t-272 109zM803 1464q337 0 531 -217t194 -547t-209 -530q-209 -201 -518 -201t-516 201q-207 200 -207 530t193 547q194 217 532 217zM1056 1884q70 0 116 -46
t46 -116t-46 -116q-48 -46 -116 -47q-68 0 -118 48q-49 47 -49 115t49 115t118 47zM544 1884q70 0 116 -46t46 -116t-46 -116t-116 -47q-70 0 -119 47q-48 46 -48 116t48 116t119 46z" />
    <glyph glyph-name="multiply" unicode="&#xd7;" horiz-adv-x="1286" 
d="M115 283l868 868l188 -188l-868 -869z" />
    <glyph glyph-name="Oslash" unicode="&#xd8;" horiz-adv-x="1677" 
d="M803 297q178 0 272 110t94 310q0 127 -39 219l-419 -631q43 -8 92 -8zM496 457l438 661q-59 18 -131 19q-179 0 -273 -110t-94 -289t60 -281zM802 -31q-148 0 -282 49l-121 -182h-317l215 324q-219 207 -219 557q0 305 185 521q89 102 229 164t313 62q174 0 317 -63
l156 233h317l-258 -389q190 -209 191 -528q0 -174 -59 -318q-111 -273 -387 -379q-132 -50 -280 -51z" />
    <glyph glyph-name="Ugrave" unicode="&#xd9;" horiz-adv-x="1427" 
d="M1319 1434v-813q0 -311 -157 -481q-158 -170 -450 -171q-292 0 -447 170t-154 479v816h348v-760q0 -209 54 -300t202 -91q147 0 201 91t55 300v760h348zM881 1546h-240l-287 297h281z" />
    <glyph glyph-name="Uacute" unicode="&#xda;" horiz-adv-x="1427" 
d="M1319 1434v-813q0 -311 -157 -481q-158 -170 -450 -171q-292 0 -447 170t-154 479v816h348v-760q0 -209 54 -300t202 -91q147 0 201 91t55 300v760h348zM801 1546h-240l246 297h301z" />
    <glyph glyph-name="Ucircumflex" unicode="&#xdb;" horiz-adv-x="1427" 
d="M1319 1434v-813q0 -311 -157 -481q-158 -170 -450 -171q-292 0 -447 170t-154 479v816h348v-760q0 -209 54 -300t202 -91q147 0 201 91t55 300v760h348zM1087 1546h-219l-147 180l-146 -180h-219l236 297h260z" />
    <glyph glyph-name="Udieresis" unicode="&#xdc;" horiz-adv-x="1427" 
d="M1319 1434v-813q0 -311 -157 -481q-158 -170 -450 -171q-292 0 -447 170t-154 479v816h348v-760q0 -209 54 -300t202 -91q147 0 201 91t55 300v760h348zM966 1884q70 0 116 -46t46 -116t-47 -116t-115 -47q-68 0 -118 48q-49 47 -49 115t49 115t118 47zM454 1884
q70 0 116 -46t46 -116t-46 -116t-116 -47q-70 0 -119 47q-48 46 -48 116t48 116t119 46z" />
    <glyph glyph-name="Yacute" unicode="&#xdd;" horiz-adv-x="1404" 
d="M877 0h-349v606l-532 828h379l327 -523l328 523h379l-532 -828v-606zM791 1546h-240l246 297h301z" />
    <glyph glyph-name="Thorn" unicode="&#xde;" horiz-adv-x="1218" 
d="M440 547h162q104 0 140 40t36 125t-49 131t-199 46h-90v-342zM440 1194h82q308 0 456 -131t148 -361t-138 -346q-138 -115 -376 -114h-172v-242h-348v1434h348v-240z" />
    <glyph glyph-name="germandbls" unicode="&#xdf;" horiz-adv-x="1302" 
d="M92 0v1020q0 159 106 289q54 65 152 105t228 40q215 0 341 -95t125 -245q0 -106 -63 -190t-135 -107q147 -18 263 -128q101 -97 101 -247q-1 -168 -133 -297q-149 -145 -510 -145v307q172 0 232 44q59 44 59 115t-83 120t-208 49v258q93 0 130 72q15 29 16 65
q2 115 -117 115q-84 0 -120 -51t-36 -160v-934h-348z" />
    <glyph glyph-name="agrave" unicode="&#xe0;" horiz-adv-x="1142" 
d="M510 477q-49 0 -90 -34q-41 -35 -41 -101t37 -96t94 -29q137 0 221 72v137q-113 51 -221 51zM637 1051q412 0 412 -353v-698h-289q-20 49 -27 96q-47 -57 -125 -94t-174 -37q-174 1 -278 107t-104 252t96 248q97 103 286 104q143 0 297 -55v22q0 102 -44 133t-130 31
q-169 0 -321 -84l-109 215q90 45 224 79t286 34zM770 1341h-240l-286 297h280z" />
    <glyph glyph-name="aacute" unicode="&#xe1;" horiz-adv-x="1142" 
d="M510 477q-49 0 -90 -34q-41 -35 -41 -101t37 -96t94 -29q137 0 221 72v137q-113 51 -221 51zM637 1051q412 0 412 -353v-698h-289q-20 49 -27 96q-47 -57 -125 -94t-174 -37q-174 1 -278 107t-104 252t96 248q97 103 286 104q143 0 297 -55v22q0 102 -44 133t-130 31
q-169 0 -321 -84l-109 215q90 45 224 79t286 34zM690 1341h-239l245 297h301z" />
    <glyph glyph-name="acircumflex" unicode="&#xe2;" horiz-adv-x="1142" 
d="M510 477q-49 0 -90 -34q-41 -35 -41 -101t37 -96t94 -29q137 0 221 72v137q-113 51 -221 51zM637 1051q412 0 412 -353v-698h-289q-20 49 -27 96q-47 -57 -125 -94t-174 -37q-174 1 -278 107t-104 252t96 248q97 103 286 104q143 0 297 -55v22q0 102 -44 133t-130 31
q-169 0 -321 -84l-109 215q90 45 224 79t286 34zM465 1341h-219l235 297h260l236 -297h-219l-148 181z" />
    <glyph glyph-name="atilde" unicode="&#xe3;" horiz-adv-x="1142" 
d="M510 477q-49 0 -90 -34q-41 -35 -41 -101t37 -96t94 -29q137 0 221 72v137q-113 51 -221 51zM637 1051q412 0 412 -353v-698h-289q-20 49 -27 96q-47 -57 -125 -94t-174 -37q-174 1 -278 107t-104 252t96 248q97 103 286 104q143 0 297 -55v22q0 102 -44 133t-130 31
q-169 0 -321 -84l-109 215q90 45 224 79t286 34zM227 1380q95 228 239 230q67 0 162 -35q171 -63 219 -23q23 21 60 93l78 -52q-82 -195 -169 -235t-224 18q-113 43 -175 42t-112 -87z" />
    <glyph glyph-name="adieresis" unicode="&#xe4;" horiz-adv-x="1142" 
d="M510 477q-49 0 -90 -34q-41 -35 -41 -101t37 -96t94 -29q137 0 221 72v137q-113 51 -221 51zM637 1051q412 0 412 -353v-698h-289q-20 49 -27 96q-47 -57 -125 -94t-174 -37q-174 1 -278 107t-104 252t96 248q97 103 286 104q143 0 297 -55v22q0 102 -44 133t-130 31
q-169 0 -321 -84l-109 215q90 45 224 79t286 34zM688 1518q0 68 49 114t118 47q69 0 116 -46q47 -45 47 -115t-47 -117t-116 -47t-118 48t-49 116zM176 1518q0 70 48 116t119 45q71 0 117 -46q46 -45 46 -115t-46 -117t-117 -47t-119 47t-48 117z" />
    <glyph glyph-name="aring" unicode="&#xe5;" horiz-adv-x="1142" 
d="M510 477q-49 0 -90 -34q-41 -35 -41 -101t37 -96t94 -29q137 0 221 72v137q-113 51 -221 51zM637 1051q412 0 412 -353v-698h-289q-20 49 -27 96q-47 -57 -125 -94t-174 -37q-174 1 -278 107t-104 252t96 248q97 103 286 104q143 0 297 -55v22q0 102 -44 133t-130 31
q-169 0 -321 -84l-109 215q90 45 224 79t286 34zM606 1528q-31 0 -51 -20t-20 -52q0 -31 20 -51q20 -21 51 -21t50 20t20 52q0 32 -20 52t-50 20zM606 1659q82 1 140 -59t58 -144t-58 -143t-140 -59t-142 60t-60 143t60 143t142 59z" />
    <glyph glyph-name="ae" unicode="&#xe6;" horiz-adv-x="1808" 
d="M510 217q174 0 258 88q-20 59 -29 125q-106 47 -209 47q-23 0 -44 -8q-84 -31 -86 -143q0 -50 36 -80t74 -29zM1237 784q-111 0 -162 -100q-22 -46 -28 -109h397q-20 209 -207 209zM1733 371h-674q20 -72 68 -114q47 -42 115 -42t141 24t110 46l129 -211
q-70 -49 -166 -80t-186 -31q-260 0 -408 172q-182 -170 -407 -170q-175 1 -279 107t-104 249t83 249t279 106q150 0 311 -60l7 33q0 103 -50 130q-50 28 -124 28q-170 0 -322 -84l-109 215q87 45 223 78t287 33q203 0 310 -86q131 86 290 86q476 0 476 -678z" />
    <glyph glyph-name="ccedilla" unicode="&#xe7;" horiz-adv-x="997" 
d="M630 803q-228 0 -230 -289q0 -289 230 -289q116 0 228 84l107 -215q-53 -53 -153 -89t-194 -42l-36 -86q28 21 80 21t88 -46t36 -118t-63 -125t-180 -53q-51 0 -124 18t-104 43l60 147q86 -68 184 -78t98 56q0 51 -53 51q-39 0 -63 -26l-131 51l57 155q-199 33 -302 174
t-103 384t136 389t396 145q96 0 205 -37t166 -94l-107 -215q-112 84 -228 84z" />
    <glyph glyph-name="egrave" unicode="&#xe8;" horiz-adv-x="1122" 
d="M576 784q-98 0 -139 -54q-42 -54 -48 -155h373q-6 101 -47 155t-139 54zM1059 371h-658q37 -156 172 -156q117 0 242 70l113 -211q-70 -49 -166 -80t-187 -31q-256 0 -385 159q-129 160 -129 396q-1 236 139 382t363 147q268 0 382 -173t114 -503zM731 1341h-239
l-287 297h280z" />
    <glyph glyph-name="eacute" unicode="&#xe9;" horiz-adv-x="1122" 
d="M576 784q-98 0 -139 -54q-42 -54 -48 -155h373q-6 101 -47 155t-139 54zM1059 371h-658q37 -156 172 -156q117 0 242 70l113 -211q-70 -49 -166 -80t-187 -31q-256 0 -385 159q-129 160 -129 396q-1 236 139 382t363 147q268 0 382 -173t114 -503zM651 1341h-239l245 297
h301z" />
    <glyph glyph-name="ecircumflex" unicode="&#xea;" horiz-adv-x="1122" 
d="M576 784q-98 0 -139 -54q-42 -54 -48 -155h373q-6 101 -47 155t-139 54zM1059 371h-658q37 -156 172 -156q117 0 242 70l113 -211q-70 -49 -166 -80t-187 -31q-256 0 -385 159q-129 160 -129 396q-1 236 139 382t363 147q268 0 382 -173t114 -503zM938 1341h-219
l-148 181l-145 -181h-219l235 297h260z" />
    <glyph glyph-name="edieresis" unicode="&#xeb;" horiz-adv-x="1122" 
d="M576 784q-98 0 -139 -54q-42 -54 -48 -155h373q-6 101 -47 155t-139 54zM1059 371h-658q37 -156 172 -156q117 0 242 70l113 -211q-70 -49 -166 -80t-187 -31q-256 0 -385 159q-129 160 -129 396q-1 236 139 382t363 147q268 0 382 -173t114 -503zM649 1518q0 68 49 114
t118 47q69 0 116 -46q47 -45 47 -115t-47 -117t-116 -47t-118 48t-49 116zM137 1518q0 70 48 116t119 45q71 0 117 -46q46 -45 46 -115t-46 -117t-117 -47t-119 47t-48 117z" />
    <glyph glyph-name="igrave" unicode="&#xec;" horiz-adv-x="573" 
d="M123 0v1024h328v-1024h-328zM455 1341h-240l-287 297h281z" />
    <glyph glyph-name="iacute" unicode="&#xed;" horiz-adv-x="573" 
d="M123 0v1024h328v-1024h-328zM375 1341h-240l246 297h301z" />
    <glyph glyph-name="icircumflex" unicode="&#xee;" horiz-adv-x="573" 
d="M123 0v1024h328v-1024h-328zM662 1341h-220l-147 181l-145 -181h-220l236 297h260z" />
    <glyph glyph-name="idieresis" unicode="&#xef;" horiz-adv-x="573" 
d="M123 0v1024h328v-1024h-328zM373 1518q0 68 49 114t118 47q70 0 116 -46q46 -45 46 -115t-47 -117t-115 -47t-118 48q-49 48 -49 116zM-139 1518q0 70 48 116t119 45q70 0 116 -46q46 -45 46 -115t-46 -117t-116 -47t-119 47q-48 47 -48 117z" />
    <glyph glyph-name="eth" unicode="&#xf0;" horiz-adv-x="1228" 
d="M750 505q0 220 -142 220q-128 0 -158 -101q-14 -46 -14 -138t35 -147q35 -56 122 -56t122 56t35 166zM594 -37q-242 1 -372 149t-130 394q0 156 58 278q125 262 444 263q31 0 59 -3q-27 57 -71 115l-314 -72l-59 203l188 43q-51 35 -100 53l299 101q59 -33 115 -80
l233 53l60 -203l-132 -30q104 -147 162 -333t60 -364q3 -360 -227 -498q-114 -69 -273 -69z" />
    <glyph glyph-name="ntilde" unicode="&#xf1;" 
d="M104 1024h297q18 -37 27 -137q66 72 167 118t204 46q170 1 260 -103t90 -270v-678h-328v578q0 112 -58 154q-59 42 -147 18t-184 -105v-645h-328v1024zM242 1380q95 228 238 230q66 0 162 -35q171 -63 219 -23q24 21 61 93l77 -52q-82 -195 -169 -235t-224 18
q-113 43 -175 42t-112 -87z" />
    <glyph glyph-name="ograve" unicode="&#xf2;" horiz-adv-x="1165" 
d="M584 770q-96 0 -146 -73t-49 -191q0 -118 49 -194q50 -74 146 -74t144 74t48 194t-48 192t-144 72zM590 1047q236 -1 375 -149t139 -392t-139 -394t-382 -149q-243 0 -382 150q-139 151 -139 399t146 392t382 143zM752 1341h-240l-287 297h281z" />
    <glyph glyph-name="oacute" unicode="&#xf3;" horiz-adv-x="1165" 
d="M584 770q-96 0 -146 -73t-49 -191q0 -118 49 -194q50 -74 146 -74t144 74t48 194t-48 192t-144 72zM590 1047q236 -1 375 -149t139 -392t-139 -394t-382 -149q-243 0 -382 150q-139 151 -139 399t146 392t382 143zM672 1341h-240l246 297h301z" />
    <glyph glyph-name="ocircumflex" unicode="&#xf4;" horiz-adv-x="1165" 
d="M584 770q-96 0 -146 -73t-49 -191q0 -118 49 -194q50 -74 146 -74t144 74t48 194t-48 192t-144 72zM590 1047q236 -1 375 -149t139 -392t-139 -394t-382 -149q-243 0 -382 150q-139 151 -139 399t146 392t382 143zM958 1341h-219l-147 181l-146 -181h-219l236 297h260z
" />
    <glyph glyph-name="otilde" unicode="&#xf5;" horiz-adv-x="1165" 
d="M584 770q-96 0 -146 -73t-49 -191q0 -118 49 -194q50 -74 146 -74t144 74t48 194t-48 192t-144 72zM590 1047q236 -1 375 -149t139 -392t-139 -394t-382 -149q-243 0 -382 150q-139 151 -139 399t146 392t382 143zM209 1380q95 228 238 230q67 0 163 -35q172 -63 218 -23
q24 21 61 93l78 -52q-82 -195 -169 -235t-225 18q-113 43 -175 42t-111 -87z" />
    <glyph glyph-name="odieresis" unicode="&#xf6;" horiz-adv-x="1165" 
d="M584 770q-96 0 -146 -73t-49 -191q0 -118 49 -194q50 -74 146 -74t144 74t48 194t-48 192t-144 72zM590 1047q236 -1 375 -149t139 -392t-139 -394t-382 -149q-243 0 -382 150q-139 151 -139 399t146 392t382 143zM670 1518q0 68 49 114t118 47q69 0 115 -46
q46 -45 47 -115q0 -70 -47 -117q-48 -47 -116 -47t-117 48t-49 116zM158 1518q0 70 48 116t119 45q71 0 117 -46q46 -45 45 -115q0 -70 -46 -117q-47 -47 -117 -47t-118 47t-48 117z" />
    <glyph glyph-name="divide" unicode="&#xf7;" horiz-adv-x="1257" 
d="M631 358q69 0 115 -46t46 -116t-46 -116q-46 -47 -116 -47t-116 47q-47 47 -47 117q0 69 47 115t117 46zM1141 502h-1024v266h1024v-266zM631 1237q69 0 115 -46t46 -116t-46 -117t-116 -47t-116 47q-47 47 -47 117t47 116t117 46z" />
    <glyph glyph-name="oslash" unicode="&#xf8;" horiz-adv-x="1288" 
d="M639 238q96 0 144 74t48 178t-26 165l-182 -417h16zM639 770q-96 0 -145 -73q-50 -73 -50 -176t27 -167l182 416h-14zM639 -37q-70 0 -131 12l-68 -151h-202l98 223q-106 70 -163 189q-56 119 -56 270q0 254 146 397t376 144q68 0 131 -13l61 142h203l-92 -211
q139 -93 192 -272q26 -87 25 -187q0 -244 -139 -394t-381 -149z" />
    <glyph glyph-name="ugrave" unicode="&#xf9;" 
d="M1141 1024v-1024h-297q-18 37 -27 137q-66 -72 -167 -118t-210 -46q-108 -1 -188 49q-156 97 -156 324v678h328v-578q0 -112 58 -154t146 -18t185 105v645h328zM549 1341l-287 297h281l245 -297h-239z" />
    <glyph glyph-name="uacute" unicode="&#xfa;" 
d="M1141 0h-297q-18 37 -27 137q-66 -72 -167 -118t-210 -46q-108 -1 -188 49q-156 97 -156 324v678h328v-578q0 -112 58 -154t146 -18t185 105v645h328v-1024zM709 1341h-240l246 297h301z" />
    <glyph glyph-name="ucircumflex" unicode="&#xfb;" 
d="M1141 0h-297q-18 37 -27 137q-66 -72 -167 -118t-210 -46q-108 -1 -188 49q-156 97 -156 324v678h328v-578q0 -112 58 -154t146 -18t185 105v645h328v-1024zM995 1341h-219l-147 181l-146 -181h-219l236 297h260z" />
    <glyph glyph-name="udieresis" unicode="&#xfc;" 
d="M1141 1024v-1024h-297q-18 37 -27 137q-66 -72 -167 -118t-210 -46q-108 -1 -188 49q-156 97 -156 324v678h328v-578q0 -112 58 -154t146 -18t185 105v645h328zM873 1354q-69 0 -117 48t-49 116q0 68 49 114q50 46 118 47q68 0 115 -46q47 -45 47 -115t-47 -117t-116 -47
zM361 1354q-71 0 -119 47t-47 117q0 70 48 116q49 46 119 45q70 0 116 -46q46 -45 46 -115t-46 -117t-117 -47z" />
    <glyph glyph-name="yacute" unicode="&#xfd;" horiz-adv-x="1200" 
d="M1178 1024l-473 -1120q-76 -190 -185 -280q-108 -90 -228 -87q-120 4 -259 53l84 246q127 -57 186 -26t119 190l-408 1024h359l225 -606l248 606h332zM752 1341h-240l246 297h301z" />
    <glyph glyph-name="thorn" unicode="&#xfe;" horiz-adv-x="1228" 
d="M565 264q162 0 162 254t-162 254q-90 0 -149 -65q-29 -31 -47 -74v-230q29 -63 80 -101t116 -38zM369 1495v-520q115 86 256 86q219 0 333 -150q114 -151 115 -393q0 -242 -116 -392t-332 -149q-141 0 -256 89v-476h-349v1905h349z" />
    <glyph glyph-name="ydieresis" unicode="&#xff;" horiz-adv-x="1200" 
d="M1178 1024l-473 -1120q-76 -190 -185 -280q-108 -90 -228 -87q-120 4 -259 53l84 246q127 -57 186 -26t119 190l-408 1024h359l225 -606l248 606h332zM869 1679q69 0 116 -46q47 -45 47 -115t-47 -117t-116 -47t-117 48t-50 116q0 68 49 114t118 47zM357 1679
q71 0 117 -46q46 -45 46 -115t-46 -117t-117 -47t-119 47t-48 117t48 116t119 45z" />
    <glyph glyph-name="Amacron" unicode="&#x100;" horiz-adv-x="1482" 
d="M883 471l-142 322l-141 -322h283zM999 205h-516l-90 -205h-379l727 1475l727 -1475h-378zM1110 1642h-743v201h743v-201z" />
    <glyph glyph-name="amacron" unicode="&#x101;" horiz-adv-x="1142" 
d="M510 477q-49 0 -90 -34q-41 -35 -41 -101t37 -96t94 -29q137 0 221 72v137q-113 51 -221 51zM637 1051q412 0 412 -353v-698h-289q-20 49 -27 96q-47 -57 -125 -94t-174 -37q-174 1 -278 107t-104 252t96 248q97 103 286 104q143 0 297 -55v22q0 102 -44 133t-130 31
q-169 0 -321 -84l-109 215q90 45 224 79t286 34zM971 1438h-744v200h744v-200z" />
    <glyph glyph-name="Abreve" unicode="&#x102;" horiz-adv-x="1482" 
d="M741 793l-141 -322h283zM483 205l-90 -205h-379l727 1475l727 -1475h-378l-91 205h-516zM850 1843h180q0 -117 -72 -197t-216 -79q-144 0 -215 81t-70 195h180q0 -73 26 -97q25 -24 79 -24t81 24t27 97z" />
    <glyph glyph-name="abreve" unicode="&#x103;" horiz-adv-x="1142" 
d="M510 477q-49 0 -90 -34q-41 -35 -41 -101t37 -96t94 -29q137 0 221 72v137q-113 51 -221 51zM637 1051q412 0 412 -353v-698h-289q-20 49 -27 96q-47 -57 -125 -94t-174 -37q-174 1 -278 107t-104 252t96 248q97 103 286 104q143 0 297 -55v22q0 102 -44 133t-130 31
q-169 0 -321 -84l-109 215q90 45 224 79t286 34zM711 1638h180q0 -116 -72 -196t-216 -80t-215 81t-71 195h181q0 -74 26 -98t79 -22q54 0 81 24t27 96z" />
    <glyph glyph-name="Aogonek" unicode="&#x104;" horiz-adv-x="1482" 
d="M883 471l-142 322l-141 -322h283zM1348 -430q-82 0 -140 47q-57 47 -57 131q0 141 141 252h-202l-91 205h-516l-90 -205h-379l727 1475l727 -1475h-2q-68 -35 -108 -95q-40 -59 -39 -113q0 -54 49 -54q24 0 46 14t28 29l102 -107q-84 -104 -196 -104z" />
    <glyph glyph-name="aogonek" unicode="&#x105;" horiz-adv-x="1142" 
d="M510 477q-49 0 -90 -34q-41 -35 -41 -101t37 -96t94 -29q137 0 221 72v137q-113 51 -221 51zM733 -252q0 141 141 252h-114q-20 49 -27 96q-47 -57 -125 -94t-174 -37q-174 1 -278 107t-104 252t96 248q97 103 286 104q143 0 297 -55v22q0 102 -44 133t-130 31
q-170 0 -321 -84l-109 215q225 113 510 113q412 0 412 -353v-698q-68 -35 -108 -95q-40 -59 -40 -113t49 -54q24 0 46 14t28 29l102 -107q-84 -104 -198 -104t-167 81q-28 42 -28 97z" />
    <glyph glyph-name="Cacute" unicode="&#x106;" horiz-adv-x="1409" 
d="M773 -31q-175 -1 -312 61t-218 168q-163 214 -163 519q0 350 190 549t506 198q176 0 332 -74t256 -214l-262 -211q-47 73 -137 121t-179 49q-180 0 -269 -111q-89 -110 -89 -306t90 -308t268 -111q84 0 176 50t140 120l262 -207q-102 -141 -259 -217t-332 -76zM836 1546
h-240l246 297h301z" />
    <glyph glyph-name="cacute" unicode="&#x107;" horiz-adv-x="997" 
d="M630 803q-228 0 -230 -289q0 -289 230 -289q116 0 228 84l107 -215q-57 -57 -166 -94t-205 -37q-260 -1 -396 145t-137 406q1 260 137 406t396 145q96 0 205 -37t166 -94l-107 -215q-112 84 -228 84zM637 1341h-240l246 297h301z" />
    <glyph glyph-name="Cdotaccent" unicode="&#x10a;" horiz-adv-x="1409" 
d="M773 -31q-175 -1 -312 61t-218 168q-163 214 -163 519q0 350 190 549t506 198q176 0 332 -74t256 -214l-262 -211q-47 73 -137 121t-179 49q-180 0 -269 -111q-89 -110 -89 -306t90 -308t268 -111q84 0 176 50t140 120l262 -207q-102 -141 -259 -217t-332 -76zM750 1884
q70 0 116 -46t45 -116q0 -70 -46 -116q-45 -46 -115 -47q-70 0 -117 47q-47 46 -47 116t47 116t117 46z" />
    <glyph glyph-name="cdotaccent" unicode="&#x10b;" horiz-adv-x="997" 
d="M630 803q-228 0 -230 -289q0 -289 230 -289q116 0 228 84l107 -215q-57 -57 -166 -94t-205 -37q-260 -1 -396 145t-137 406q1 260 137 406t396 145q96 0 205 -37t166 -94l-107 -215q-112 84 -228 84zM551 1679q70 0 116 -46q46 -45 46 -115t-46 -117t-116 -47t-117 47
t-47 117t47 116t117 45z" />
    <glyph glyph-name="Ccaron" unicode="&#x10c;" horiz-adv-x="1409" 
d="M773 -31q-175 -1 -312 61t-218 168q-163 214 -163 519q0 350 190 549t506 198q176 0 332 -74t256 -214l-262 -211q-47 73 -137 121t-179 49q-180 0 -269 -111q-89 -110 -89 -306t90 -308t268 -111q84 0 176 50t140 120l262 -207q-102 -141 -259 -217t-332 -76zM883 1546
h-260l-236 297h219l148 -180l145 180h219z" />
    <glyph glyph-name="ccaron" unicode="&#x10d;" horiz-adv-x="997" 
d="M630 803q-228 0 -230 -289q0 -289 230 -289q116 0 228 84l107 -215q-57 -57 -166 -94t-205 -37q-260 -1 -396 145t-137 406q1 260 137 406t396 145q96 0 205 -37t166 -94l-107 -215q-112 84 -228 84zM684 1341h-260l-236 297h220l147 -180l145 180h220z" />
    <glyph glyph-name="Dcaron" unicode="&#x10e;" horiz-adv-x="1435" 
d="M475 328h141q202 0 303 98q38 39 63 114q26 75 26 176t-26 176t-63 115q-94 99 -303 99h-141v-778zM127 1434h489q356 0 548 -201t192 -533t-206 -516t-534 -184h-489v1434zM526 1546l-235 297h219l147 -180l146 180h219l-236 -297h-260z" />
    <glyph glyph-name="dcaron" unicode="&#x10f;" horiz-adv-x="1667" 
d="M381 506q0 -116 51 -182q51 -64 146 -64t167 59q39 31 64 74v225q-75 134 -246 134q-80 0 -131 -65t-51 -181zM1137 0h-301q-23 59 -27 115q-141 -152 -344 -152t-318 150q-115 151 -115 393t116 392t318 149q202 0 343 -156v584h328v-1475zM1300 1336q0 68 48 113
q48 46 116 46q70 0 116 -46t46 -116q0 -94 -143 -299h-99l64 137q-64 5 -106 51t-42 114z" />
    <glyph glyph-name="Dcroat" unicode="&#x110;" horiz-adv-x="1435" 
d="M475 328h141q202 0 303 98q38 39 63 114q26 75 26 176t-26 176t-63 115q-94 99 -303 99h-141v-291h262v-201h-262v-286zM127 1434h489q356 0 548 -201t192 -533t-206 -516t-534 -184h-489v614h-133v201h133v619z" />
    <glyph glyph-name="dcroat" unicode="&#x111;" horiz-adv-x="1271" 
d="M594 752q-80 0 -131 -65t-51 -181t51 -182q51 -64 145 -64t168 59q39 31 64 74v225q-75 134 -246 134zM1366 1128h-199v-1128h-301q-23 59 -26 115q-141 -152 -344 -152t-318 150q-115 151 -115 393t116 392q115 150 317 149q202 0 344 -156v237h-217v201h217v146h327
v-146h199v-201z" />
    <glyph glyph-name="Emacron" unicode="&#x112;" horiz-adv-x="1294" 
d="M475 881h684v-308h-684v-245h742v-328h-1090v1434h1090v-328h-742v-225zM1065 1642h-743v201h743v-201z" />
    <glyph glyph-name="emacron" unicode="&#x113;" horiz-adv-x="1122" 
d="M576 784q-98 0 -139 -54q-42 -54 -48 -155h373q-6 101 -47 155t-139 54zM1059 371h-658q37 -156 172 -156q117 0 242 70l113 -211q-70 -49 -166 -80t-187 -31q-256 0 -385 159q-129 160 -129 396q-1 236 139 382t363 147q268 0 382 -173t114 -503zM932 1438h-744v200h744
v-200z" />
    <glyph glyph-name="Edotaccent" unicode="&#x116;" horiz-adv-x="1294" 
d="M475 881h684v-308h-684v-245h742v-328h-1090v1434h1090v-328h-742v-225zM698 1884q70 0 116 -46t46 -116t-46 -116t-116 -47q-70 0 -116 47q-46 46 -47 116q1 70 47 116t116 46z" />
    <glyph glyph-name="edotaccent" unicode="&#x117;" horiz-adv-x="1122" 
d="M576 784q-98 0 -139 -54q-42 -54 -48 -155h373q-6 101 -47 155t-139 54zM1059 371h-658q37 -156 172 -156q117 0 242 70l113 -211q-70 -49 -166 -80t-187 -31q-256 0 -385 159q-129 160 -129 396q-1 236 139 382t363 147q268 0 382 -173t114 -503zM565 1679q70 0 116 -46
q46 -45 46 -115t-46 -117t-116 -47q-71 0 -117 47t-47 117q0 70 47 116t117 45z" />
    <glyph glyph-name="Eogonek" unicode="&#x118;" horiz-adv-x="1294" 
d="M1098 -430q-82 0 -140 47q-57 47 -57 131q0 141 141 252h-915v1434h1090v-328h-742v-225h684v-308h-684v-245h742v-328q-68 -35 -108 -95q-40 -59 -40 -113t49 -54q24 0 46 14t28 29l102 -107q-84 -104 -196 -104z" />
    <glyph glyph-name="eogonek" unicode="&#x119;" horiz-adv-x="1122" 
d="M576 784q-98 0 -139 -54q-42 -54 -48 -155h373q-6 101 -47 155t-139 54zM829 -188q25 0 47 13t27 30l103 -107q-84 -104 -197 -104q-82 0 -139 47q-58 47 -58 130t41 148q-41 -6 -78 -6q-256 0 -385 159q-129 160 -129 396q-1 236 139 382t363 147q268 1 382 -173
t114 -503h-658q37 -156 172 -156q117 0 242 70l113 -211q-18 -14 -41 -27q-103 -78 -107 -176q0 -59 49 -59z" />
    <glyph glyph-name="Ecaron" unicode="&#x11a;" horiz-adv-x="1294" 
d="M475 881h684v-308h-684v-245h742v-328h-1090v1434h1090v-328h-742v-225zM831 1546h-260l-235 297h219l147 -180l146 180h219z" />
    <glyph glyph-name="ecaron" unicode="&#x11b;" horiz-adv-x="1122" 
d="M576 784q-98 0 -139 -54q-42 -54 -48 -155h373q-6 101 -47 155t-139 54zM1059 371h-658q37 -156 172 -156q117 0 242 70l113 -211q-70 -49 -166 -80t-187 -31q-256 0 -385 159q-129 160 -129 396q-1 236 139 382t363 147q268 0 382 -173t114 -503zM698 1341h-260
l-235 297h219l147 -180l146 180h219z" />
    <glyph glyph-name="Gbreve" unicode="&#x11e;" horiz-adv-x="1478" 
d="M1384 809v-547q-213 -293 -605 -293t-585 317q-114 187 -114 431q0 172 56 315q56 142 152 236q200 196 486 196q203 0 358 -76t252 -212l-235 -191q-68 78 -161 126t-195 48q-173 0 -269 -123q-96 -122 -96 -318t93 -319t249 -123t266 78v189h-200v266h548zM862 1843
h180q0 -117 -72 -197t-215 -79q-144 0 -215 81t-71 195h180q0 -73 26 -97t80 -24q55 0 81 24t26 97z" />
    <glyph glyph-name="gbreve" unicode="&#x11f;" horiz-adv-x="1271" 
d="M412 518q0 -116 51 -182q51 -64 144 -64t169 60q39 31 64 74v225q-74 133 -246 133q-80 0 -131 -65t-51 -181zM1167 1024v-950q0 -262 -152 -401q-153 -138 -411 -138q-126 0 -276 39t-207 92l104 244q55 -43 149 -70q94 -26 206 -26q110 0 185 52t75 154v113
q-141 -156 -343 -156t-318 150q-116 151 -116 393t115 392t334 149q186 0 328 -150q4 53 26 113h301zM772 1638h180q0 -116 -72 -196t-215 -80q-144 0 -215 81t-71 195h180q0 -74 26 -98t80 -22q55 0 81 24t26 96z" />
    <glyph glyph-name="Gdotaccent" unicode="&#x120;" horiz-adv-x="1478" 
d="M1384 809v-547q-213 -293 -605 -293t-585 317q-114 187 -114 431q0 172 56 315q56 142 152 236q200 196 486 196q203 0 358 -76t252 -212l-235 -191q-68 78 -161 126t-195 48q-173 0 -269 -123q-96 -122 -96 -318t93 -319t249 -123t266 78v189h-200v266h548zM756 1884
q70 0 116 -46t46 -116t-46 -116t-116 -47q-70 0 -117 47q-47 46 -47 116t47 116t117 46z" />
    <glyph glyph-name="gdotaccent" unicode="&#x121;" horiz-adv-x="1271" 
d="M412 518q0 -116 51 -182q51 -64 144 -64t169 60q39 31 64 74v225q-74 133 -246 133q-80 0 -131 -65t-51 -181zM1167 1024v-950q0 -262 -152 -401q-153 -138 -411 -138q-126 0 -276 39t-207 92l104 244q55 -43 149 -70q94 -26 206 -26q110 0 185 52t75 154v113
q-141 -156 -343 -156t-318 150q-116 151 -116 393t115 392t334 149q186 0 328 -150q4 53 26 113h301zM666 1679q70 0 116 -46q46 -45 45 -115q0 -70 -46 -117q-45 -47 -115 -47t-117 47t-47 117t47 116t117 45z" />
    <glyph glyph-name="Gcommaaccent" unicode="&#x122;" horiz-adv-x="1478" 
d="M633 -396q0 56 47 102t117 46q69 0 115 -46t46 -129t-122 -286h-99l43 138q-41 4 -74 25q-73 47 -73 150zM836 809h548v-547q-213 -293 -605 -293t-585 317q-114 187 -114 431q0 172 56 315q56 142 152 236q200 196 486 196q203 0 358 -76t252 -212l-235 -191
q-68 78 -161 126t-195 48q-173 0 -269 -123q-96 -122 -96 -318t93 -319t249 -123t266 78v189h-200v266z" />
    <glyph glyph-name="gcommaaccent" unicode="&#x123;" horiz-adv-x="1271" 
d="M412 518q0 -116 51 -182q51 -64 144 -64t169 60q39 31 64 74v225q-74 133 -246 133q-80 0 -131 -65t-51 -181zM1167 1024v-950q0 -262 -152 -401q-153 -138 -411 -138q-126 0 -276 39t-207 92l104 244q55 -43 149 -70q94 -26 206 -26q110 0 185 52t75 154v113
q-141 -156 -343 -156t-318 150q-116 151 -116 393t115 392t334 149q186 0 328 -150q4 53 26 113h301zM862 1457q0 -83 -46 -129t-116 -46t-116 46t-47 114q0 68 42 112t105 52l-43 137h98q123 -203 123 -286z" />
    <glyph glyph-name="Hbar" unicode="&#x126;" horiz-adv-x="1515" 
d="M1044 1026h-573v-147h573v147zM1483 1026h-90v-1026h-349v573h-573v-573h-348v1026h-98v266h98v142h348v-142h573v142h349v-142h90v-266z" />
    <glyph glyph-name="hbar" unicode="&#x127;" 
d="M432 1106v-215q66 70 165 115t202 45q170 1 260 -103t90 -270v-678h-328v578q0 112 -58 154q-59 42 -147 18t-184 -105v-645h-328v1106h-170v201h170v168h328v-168h246v-201h-246z" />
    <glyph glyph-name="Imacron" unicode="&#x12a;" horiz-adv-x="618" 
d="M135 0v1434h348v-1434h-348zM680 1642h-743v201h743v-201z" />
    <glyph glyph-name="imacron" unicode="&#x12b;" horiz-adv-x="573" 
d="M123 0v1024h328v-1024h-328zM655 1438h-743v200h743v-200z" />
    <glyph glyph-name="Iogonek" unicode="&#x12e;" horiz-adv-x="618" 
d="M352 -430q-82 0 -139 47t-57 131q0 141 141 252h-162v1434h348v-1434h-12q-67 -35 -107 -95q-40 -59 -40 -113t49 -54q25 0 46 14t27 29l103 -107q-84 -104 -197 -104z" />
    <glyph glyph-name="iogonek" unicode="&#x12f;" horiz-adv-x="573" 
d="M330 -430q-82 0 -140 47q-57 47 -57 131q0 141 141 252h-151v1024h328v-1024h-2q-68 -35 -108 -95q-40 -59 -40 -113t49 -54q24 0 46 14t28 29l102 -107q-84 -104 -196 -104zM289 1354q-70 0 -117 47t-47 117t47 116t117 45q69 0 115 -46q46 -45 46 -115t-45 -117
q-46 -47 -116 -47z" />
    <glyph glyph-name="Idotaccent" unicode="&#x130;" horiz-adv-x="618" 
d="M135 0v1434h348v-1434h-348zM313 1884q70 0 116 -46t46 -116t-46 -116t-116 -47q-71 0 -117 47q-46 46 -46 116t46 116t117 46z" />
    <glyph glyph-name="dotlessi" unicode="&#x131;" horiz-adv-x="573" 
d="M451 0h-328v1024h328v-1024z" />
    <glyph glyph-name="IJ" unicode="&#x132;" horiz-adv-x="1118" 
d="M1036 1434v-1457q0 -319 -169 -449q-146 -112 -431 -112q-158 0 -233 25l57 319q53 -16 182 -16t188 50q58 50 58 186v1454h348zM94 0v1434h348v-1434h-348z" />
    <glyph glyph-name="ij" unicode="&#x133;" horiz-adv-x="1171" 
d="M1038 1024v-1024q0 -326 -141 -423t-453 -34v310q58 -15 90 -23t64 -9t48 -1q15 0 31 19q15 19 25 43t9 86v1056h327zM129 0v1024h328v-1024h-328zM877 1559q78 -1 132 -55t54 -132t-54 -133t-132 -55t-134 55q-55 55 -55 133t56 132t133 55zM295 1559q78 -1 132 -55
t54 -132t-54 -133t-132 -55t-133 55t-56 133q0 78 56 132t133 55z" />
    <glyph glyph-name="Kcommaaccent" unicode="&#x136;" horiz-adv-x="1409" 
d="M532 -408q0 68 48 114t116 46q70 0 116 -46t46 -129t-123 -286h-98l43 138q-63 6 -106 51q-42 44 -42 112zM475 0h-348v1434h348v-615l473 615h379l-557 -695l651 -739h-420l-432 489l-94 -118v-371z" />
    <glyph glyph-name="kcommaaccent" unicode="&#x137;" horiz-adv-x="1118" 
d="M430 -408q0 68 47 114t117 46t116 -46t46 -129t-123 -286h-98l43 138q-63 6 -106 51q-42 44 -42 112zM432 0h-328v1475h328v-861l318 410h348l-398 -481l428 -543h-378l-236 317l-82 -100v-217z" />
    <glyph glyph-name="Lacute" unicode="&#x139;" horiz-adv-x="1255" 
d="M1210 0h-1083v1434h348v-1127h735v-307zM418 1546h-240l246 297h301z" />
    <glyph glyph-name="lacute" unicode="&#x13a;" horiz-adv-x="555" 
d="M115 0v1475h325v-1475h-325zM367 1546h-240l246 297h301z" />
    <glyph glyph-name="Lcommaaccent" unicode="&#x13b;" horiz-adv-x="1255" 
d="M457 -408q0 68 47 114t117 46q69 0 115 -46t46 -129t-123 -286h-98l43 138q-63 6 -105 51q-42 44 -42 112zM1210 0h-1083v1434h348v-1127h735v-307z" />
    <glyph glyph-name="lcommaaccent" unicode="&#x13c;" horiz-adv-x="555" 
d="M117 -408q0 68 47 114t117 46q69 0 115 -46t46 -129t-123 -286h-98l43 138q-63 6 -105 51q-42 44 -42 112zM440 0h-325v1475h325v-1475z" />
    <glyph glyph-name="Lcaron" unicode="&#x13d;" horiz-adv-x="1255" 
d="M1210 0h-1083v1434h348v-1127h735v-307zM760 1311q0 67 47 113t117 46t116 -46t45 -128q0 -82 -122 -286h-99l43 137q-63 6 -105 51t-42 113z" />
    <glyph glyph-name="lcaron" unicode="&#x13e;" horiz-adv-x="960" 
d="M115 0v1475h325v-1475h-325zM594 1325q0 68 47 114t117 46t116 -46t46 -128t-144 -287h-98l63 137q-63 6 -105 51t-42 113z" />
    <glyph glyph-name="Ldot" unicode="&#x13f;" horiz-adv-x="1255" 
d="M817 819q70 0 116 -46t46 -116q0 -71 -46 -117t-116 -46t-117 47t-47 117t47 115q47 46 117 46zM1210 0h-1083v1434h348v-1127h735v-307z" />
    <glyph glyph-name="ldot" unicode="&#x140;" horiz-adv-x="952" 
d="M780 819q70 0 116 -46t46 -116q0 -71 -46 -117t-116 -46t-116 47t-48 117q0 70 47 115q47 46 117 46zM440 0h-325v1475h325v-1475z" />
    <glyph glyph-name="Lslash" unicode="&#x141;" horiz-adv-x="1347" 
d="M1303 307v-307h-1084v459l-178 -80v307l178 80v668h348v-514l396 176v-308l-396 -176v-305h736z" />
    <glyph glyph-name="lslash" unicode="&#x142;" horiz-adv-x="847" 
d="M575 0h-325v530l-189 -84v306l189 84v639h325v-494l211 94v-307l-211 -94v-674z" />
    <glyph glyph-name="Nacute" unicode="&#x143;" horiz-adv-x="1454" 
d="M471 0h-348v1495l860 -795v734h348v-1495l-860 790v-729zM815 1546h-240l246 297h301z" />
    <glyph glyph-name="nacute" unicode="&#x144;" 
d="M104 1024h297q18 -37 27 -137q66 72 167 118t204 46q170 1 260 -103t90 -270v-678h-328v578q0 112 -58 154q-59 42 -147 18t-184 -105v-645h-328v1024zM705 1341h-240l246 297h301z" />
    <glyph glyph-name="Ncommaaccent" unicode="&#x145;" horiz-adv-x="1454" 
d="M580 -408q0 68 47 114t117 46t115 -46q46 -46 46 -129t-123 -286h-98l43 138q-63 6 -105 51q-42 44 -42 112zM471 0h-348v1495l860 -795v734h348v-1495l-860 790v-729z" />
    <glyph glyph-name="ncommaaccent" unicode="&#x146;" 
d="M455 -396q0 56 47 102q46 46 116 46t116 -46t46 -129t-123 -286h-98l43 138q-41 4 -75 25q-72 47 -72 150zM104 1024h297q18 -37 27 -137q66 72 167 118t204 46q170 1 260 -103t90 -270v-678h-328v578q0 112 -58 154q-59 42 -147 18t-184 -105v-645h-328v1024z" />
    <glyph glyph-name="Ncaron" unicode="&#x147;" horiz-adv-x="1454" 
d="M471 0h-348v1495l860 -795v734h348v-1495l-860 790v-729zM862 1546h-260l-235 297h219l147 -180l146 180h219z" />
    <glyph glyph-name="ncaron" unicode="&#x148;" 
d="M104 1024h297q18 -37 27 -137q66 72 167 118t204 46q170 1 260 -103t90 -270v-678h-328v578q0 112 -58 154q-59 42 -147 18t-184 -105v-645h-328v1024zM752 1341h-260l-236 297h219l148 -180l145 180h219z" />
    <glyph glyph-name="Eng" unicode="&#x14a;" horiz-adv-x="1454" 
d="M983 1434h348v-1495q-5 -285 -157 -371t-457 -25v310q89 -24 125 -27q35 -4 50 -7q14 -3 32 5t25 13t21 38t13 102v281l-512 471v-729h-348v1495l860 -795v734z" />
    <glyph glyph-name="eng" unicode="&#x14b;" horiz-adv-x="1290" 
d="M123 1024h297q18 -37 26 -137q66 72 167 118t204 46q170 1 260 -103t90 -270v-678q1 -223 -65 -338q-66 -116 -198 -138t-329 19v289q115 -29 150 -32t50 -5t31 10q14 12 24 28t10 58v687q0 112 -58 154t-147 18q-88 -24 -184 -105v-645h-328v1024z" />
    <glyph glyph-name="Omacron" unicode="&#x14c;" horiz-adv-x="1605" 
d="M803 1137q-179 0 -273 -110q-94 -111 -94 -311t94 -310t272 -109q178 0 273 110q94 111 94 311t-94 310t-272 109zM803 1464q337 0 531 -217t194 -547t-209 -530q-209 -201 -518 -201t-516 201q-207 200 -207 530t193 547q194 217 532 217zM1171 1642h-743v201h743v-201z
" />
    <glyph glyph-name="omacron" unicode="&#x14d;" horiz-adv-x="1165" 
d="M584 770q-96 0 -146 -73t-49 -191q0 -118 49 -194q50 -74 146 -74t144 74t48 194t-48 192t-144 72zM590 1047q236 -1 375 -149t139 -392t-139 -394t-382 -149q-243 0 -382 150q-139 151 -139 399t146 392t382 143zM952 1438h-743v200h743v-200z" />
    <glyph glyph-name="Ohungarumlaut" unicode="&#x150;" horiz-adv-x="1605" 
d="M803 1137q-179 0 -273 -110q-94 -111 -94 -311t94 -310t272 -109q178 0 273 110q94 111 94 311t-94 310t-272 109zM803 1464q337 0 531 -217t194 -547t-209 -530q-209 -201 -518 -201t-516 201q-207 200 -207 530t193 547q194 217 532 217zM1077 1546h-219l205 297h260z
M688 1546h-219l184 297h260z" />
    <glyph glyph-name="ohungarumlaut" unicode="&#x151;" horiz-adv-x="1165" 
d="M584 770q-96 0 -146 -73t-49 -191q0 -118 49 -194q50 -74 146 -74t144 74t48 194t-48 192t-144 72zM590 1047q236 -1 375 -149t139 -392t-139 -394t-382 -149q-243 0 -382 150q-139 151 -139 399t146 392t382 143zM858 1341h-219l205 297h260zM469 1341h-219l184 297h260
z" />
    <glyph glyph-name="OE" unicode="&#x152;" horiz-adv-x="2062" 
d="M973 1124h-131q-391 0 -391 -408t391 -407h131v815zM1317 881h596v-308h-596v-245h653v-328h-1163q-313 0 -514 186t-201 514t188 531t527 203h1163v-328h-653v-225z" />
    <glyph glyph-name="oe" unicode="&#x153;" horiz-adv-x="1949" 
d="M553 238q96 0 144 74t48 194t-48 192t-144 72t-145 -73q-50 -73 -50 -191t50 -194q50 -74 145 -74zM1314 784q-98 0 -140 -54t-48 -155h373q-6 101 -47 155t-138 54zM1796 371h-657q37 -156 172 -156q117 0 241 70l113 -211q-70 -49 -166 -80t-186 -31q-240 0 -377 152
q-141 -152 -384 -152t-382 150q-139 151 -139 399t146 391t382 143t375 -149q139 150 366 150q268 0 382 -173t114 -503z" />
    <glyph glyph-name="Racute" unicode="&#x154;" horiz-adv-x="1286" 
d="M471 686h152q57 0 98 5t75 28q34 24 45 48q29 63 29 137q0 135 -66 189t-212 54h-121v-461zM471 399v-399h-348v1434h512q276 0 430 -138t154 -385q0 -303 -232 -436l273 -475h-381l-230 399h-178zM743 1546h-239l246 297h301z" />
    <glyph glyph-name="racute" unicode="&#x155;" horiz-adv-x="854" 
d="M104 1024h297q14 -33 23 -113q215 209 397 86l-88 -266q-67 49 -147 38t-154 -85v-684h-328v1024zM516 1341h-240l246 297h301z" />
    <glyph glyph-name="Rcommaaccent" unicode="&#x156;" horiz-adv-x="1286" 
d="M658 -248q70 0 115 -46q46 -46 46 -129t-123 -286h-98l43 138q-63 4 -105 50t-42 113q0 68 47 114t117 46zM471 686h152q57 0 98 5t75 28q34 24 45 48q29 63 29 137q0 135 -66 189t-212 54h-121v-461zM471 399v-399h-348v1434h512q276 0 430 -138t154 -385
q0 -303 -232 -436l273 -475h-381l-230 399h-178z" />
    <glyph glyph-name="rcommaaccent" unicode="&#x157;" horiz-adv-x="854" 
d="M451 -248q69 0 115 -46t46 -129t-123 -286h-98l43 138q-63 4 -105 50t-42 113q0 68 47 114t117 46zM104 1024h297q14 -33 23 -113q215 209 397 86l-88 -266q-67 49 -147 38t-154 -85v-684h-328v1024z" />
    <glyph glyph-name="Rcaron" unicode="&#x158;" horiz-adv-x="1286" 
d="M471 686h152q57 0 98 5t75 28q34 24 45 48q29 63 29 137q0 135 -66 189t-212 54h-121v-461zM471 399v-399h-348v1434h512q276 0 430 -138t154 -385q0 -303 -232 -436l273 -475h-381l-230 399h-178zM791 1546h-261l-235 297h219l148 -180l145 180h219z" />
    <glyph glyph-name="rcaron" unicode="&#x159;" horiz-adv-x="854" 
d="M104 1024h297q14 -33 23 -113q215 209 397 86l-88 -266q-67 49 -147 38t-154 -85v-684h-328v1024zM563 1341h-260l-235 297h219l147 -180l146 180h219z" />
    <glyph glyph-name="Sacute" unicode="&#x15a;" horiz-adv-x="1163" 
d="M412 1080q0 -60 46 -95t144 -61q242 -68 369 -180t127 -308q0 -144 -68 -248t-172 -151t-230 -65q-236 -33 -454 51q-94 35 -133 79l156 269q82 -53 180 -77t177 -16t132 46q53 36 53 98t-54 106t-170 84q-117 39 -185 69q-192 84 -244 202q-33 72 -33 170
q-1 160 101 261q184 183 571 144q168 -17 307 -76l-110 -272q-111 45 -228 62q-118 16 -200 -8t-82 -84zM631 1546h-240l246 297h301z" />
    <glyph glyph-name="sacute" unicode="&#x15b;" horiz-adv-x="909" 
d="M516 317q0 51 -45 78t-95 38t-59 16q-137 37 -209 105t-73 200q0 132 109 214q110 81 272 81q94 0 202 -27t181 -70l-90 -221q-131 80 -254 80q-86 0 -86 -53t112 -84q189 -51 281 -131t92 -235t-127 -246t-277 -91q-150 1 -262 47t-165 107l133 209q104 -100 232 -100
t128 83zM541 1341h-240l246 297h301z" />
    <glyph glyph-name="Scedilla" unicode="&#x15e;" horiz-adv-x="1163" 
d="M412 1072q0 -52 46 -87t144 -61q242 -68 369 -180t127 -308q0 -300 -281 -417q-78 -32 -172 -46l-37 -86q27 21 80 21t89 -46t36 -118t-63 -125t-159 -53t-162 22t-87 39l59 148q87 -68 185 -78t98 55q0 51 -53 51q-39 0 -64 -26l-131 51l51 137q-147 4 -272 43t-174 94
l156 269q82 -53 180 -77t177 -16t132 46q53 36 53 98t-54 106t-170 84q-117 39 -185 69q-192 84 -244 202q-33 72 -33 170q-1 160 101 261q184 183 571 144q168 -17 307 -76l-110 -272q-159 68 -336 70q-76 0 -125 -28t-49 -80z" />
    <glyph glyph-name="scedilla" unicode="&#x15f;" horiz-adv-x="909" 
d="M369 758q0 -53 112 -84q189 -51 281 -131q92 -79 92 -223t-95 -231t-233 -109l-39 -93q27 21 80 21t89 -46t36 -118t-63 -125t-180 -53q-51 0 -124 18t-104 43l60 148q86 -68 184 -78t98 55q0 51 -53 51q-39 0 -64 -26l-131 51l54 147q-115 9 -207 53t-139 97l133 209
q104 -100 232 -100t128 83q0 51 -45 78t-95 38t-59 16q-137 37 -209 105t-73 200q0 132 109 214q110 81 272 81q94 0 202 -27t181 -70l-90 -221q-59 37 -133 59t-121 21q-86 0 -86 -53z" />
    <glyph glyph-name="Scaron" unicode="&#x160;" horiz-adv-x="1163" 
d="M412 1080q0 -60 46 -95t144 -61q242 -68 369 -180t127 -308q0 -144 -68 -248t-172 -151t-230 -65q-236 -33 -454 51q-94 35 -133 79l156 269q82 -53 180 -77t177 -16t132 46q53 36 53 98t-54 106t-170 84q-117 39 -185 69q-192 84 -244 202q-33 72 -33 170
q-1 160 101 261q184 183 571 144q168 -17 307 -76l-110 -272q-111 45 -228 62q-118 16 -200 -8t-82 -84zM678 1546h-260l-236 297h219l148 -180l145 180h219z" />
    <glyph glyph-name="scaron" unicode="&#x161;" horiz-adv-x="909" 
d="M516 317q0 51 -45 78t-95 38t-59 16q-137 37 -209 105t-73 200q0 132 109 214q110 81 272 81q94 0 202 -27t181 -70l-90 -221q-131 80 -254 80q-86 0 -86 -53t112 -84q189 -51 281 -131t92 -235t-127 -246t-277 -91q-150 1 -262 47t-165 107l133 209q104 -100 232 -100
t128 83zM588 1341h-260l-236 297h219l148 -180l145 180h219z" />
    <glyph glyph-name="Tcedilla" unicode="&#x162;" horiz-adv-x="1224" 
d="M944 -256q0 -72 -63 -125t-181 -53q-52 0 -124 18t-103 43l59 148q86 -68 184 -78t99 55q0 51 -53 51q-39 0 -64 -26l-131 51l64 172h-193v1126h-389v308h1129v-308h-392v-1126l-47 -113q27 21 80 21t89 -46t36 -118z" />
    <glyph glyph-name="tcedilla" unicode="&#x163;" horiz-adv-x="757" 
d="M852 -262q0 -72 -64 -125t-180 -53q-51 0 -124 18t-103 43l59 148q86 -68 184 -78t99 55q0 51 -53 51q-39 0 -64 -26l-131 51l55 147q-200 -14 -282 87t-82 370v332h-123v266h123v451h328v-451h200v-266h-200v-332q0 -142 45 -151t80 -2t75 18v-297l-47 -113q27 21 80 21
t89 -46t36 -118z" />
    <glyph glyph-name="Tcaron" unicode="&#x164;" horiz-adv-x="1224" 
d="M786 1126v-1126h-348v1126h-389v308h1129v-308h-392zM748 1546h-261l-235 297h219l147 -180l146 180h219z" />
    <glyph glyph-name="tcaron" unicode="&#x165;" horiz-adv-x="1071" 
d="M494 758v-332q0 -142 45 -151t80 -2t75 18v-297q-190 -42 -307 -18t-169 129t-52 321v332h-123v266h123v451h328v-451h200v-266h-200zM868 1495q70 0 116 -46t46 -116q0 -94 -143 -299h-99l64 137q-64 5 -106 51t-42 114t48 113q46 46 116 46z" />
    <glyph glyph-name="Tbar" unicode="&#x166;" horiz-adv-x="1224" 
d="M786 1126v-342h211v-200h-211v-584h-348v584h-184v200h184v342h-389v308h1129v-308h-392z" />
    <glyph glyph-name="tbar" unicode="&#x167;" horiz-adv-x="757" 
d="M494 1171v-147h200v-266h-200v-332q0 -142 45 -151t80 -2t75 18v-297q-190 -42 -307 -18t-169 129t-52 321v332h-123v266h123v147h-162v201h162v103h328v-103h254v-201h-254z" />
    <glyph glyph-name="Umacron" unicode="&#x16a;" horiz-adv-x="1427" 
d="M1319 1434v-813q0 -311 -157 -481q-158 -170 -450 -171q-292 0 -447 170t-154 479v816h348v-760q0 -209 54 -300t202 -91q147 0 201 91t55 300v760h348zM1081 1642h-743v201h743v-201z" />
    <glyph glyph-name="umacron" unicode="&#x16b;" 
d="M1141 0h-297q-18 37 -27 137q-66 -72 -167 -118t-210 -46q-108 -1 -188 49q-156 97 -156 324v678h328v-578q0 -112 58 -154t146 -18t185 105v645h328v-1024zM989 1438h-743v200h743v-200z" />
    <glyph glyph-name="Uring" unicode="&#x16e;" horiz-adv-x="1427" 
d="M1319 1434v-813q0 -311 -157 -481q-158 -170 -450 -171q-292 0 -447 170t-154 479v816h348v-760q0 -209 54 -300t202 -91q147 0 201 91t55 300v760h348zM717 1733q-31 -1 -51 -21t-20 -51t20 -51t51 -20t50 20t19 51t-19 51t-50 21zM717 1864q82 0 140 -60t58 -143
q0 -84 -58 -143q-58 -60 -140 -60q-83 0 -143 60t-60 144q0 82 60 142t143 60z" />
    <glyph glyph-name="uring" unicode="&#x16f;" 
d="M1141 0h-297q-18 37 -27 137q-66 -72 -167 -118t-210 -46q-108 -1 -188 49q-156 97 -156 324v678h328v-578q0 -112 58 -154t146 -18t185 105v645h328v-1024zM625 1528q-31 0 -51 -20t-21 -52q0 -31 20 -51q19 -21 51 -21t51 20t19 52t-19 52t-50 20zM625 1659
q82 1 140 -59t58 -144t-58 -143t-140 -59q-83 0 -143 60t-60 143t60 143t143 59z" />
    <glyph glyph-name="Uhungarumlaut" unicode="&#x170;" horiz-adv-x="1427" 
d="M1319 1434v-813q0 -311 -157 -481q-158 -170 -450 -171q-292 0 -447 170t-154 479v816h348v-760q0 -209 54 -300t202 -91q147 0 201 91t55 300v760h348zM987 1546h-219l205 297h260zM598 1546h-219l184 297h260z" />
    <glyph glyph-name="uhungarumlaut" unicode="&#x171;" 
d="M1141 0h-297q-18 37 -27 137q-66 -72 -167 -118t-210 -46q-108 -1 -188 49q-156 97 -156 324v678h328v-578q0 -112 58 -154t146 -18t185 105v645h328v-1024zM895 1341h-219l205 297h260zM506 1341h-219l184 297h260z" />
    <glyph glyph-name="Uogonek" unicode="&#x172;" horiz-adv-x="1427" 
d="M1319 1434v-813q0 -328 -174 -498q-86 -84 -211 -123h6q-68 -35 -108 -95q-40 -59 -39 -113q0 -54 49 -54q24 0 46 13t27 30l103 -107q-84 -104 -197 -104q-82 0 -139 47t-57 131q0 125 104 221h-16q-293 0 -448 170t-154 479v816h348v-760q0 -209 54 -300t202 -91
q147 0 201 91t55 300v760h348z" />
    <glyph glyph-name="uogonek" unicode="&#x173;" 
d="M825 -252q0 141 142 252h-123q-18 37 -27 137q-66 -72 -167 -118t-210 -46q-108 -1 -188 49q-156 97 -156 324v678h328v-578q0 -112 58 -154t146 -18t185 105v645h328v-1024q-68 -35 -108 -95q-40 -59 -40 -113t49 -54q25 0 47 13q21 14 27 30l103 -107
q-84 -104 -199 -104t-167 81q-28 42 -28 97z" />
    <glyph glyph-name="Wcircumflex" unicode="&#x174;" horiz-adv-x="2119" 
d="M1061 799l-393 -881l-656 1516h359l315 -748l375 789l373 -789l315 748h358l-655 -1516zM1436 1546h-219l-148 180l-145 -180h-219l235 297h260z" />
    <glyph glyph-name="wcircumflex" unicode="&#x175;" horiz-adv-x="1705" 
d="M854 477l-305 -559l-522 1106h348l205 -473l274 514l274 -514l205 473h348l-522 -1106zM1229 1341h-219l-148 181l-145 -181h-219l235 297h260z" />
    <glyph glyph-name="Ycircumflex" unicode="&#x176;" horiz-adv-x="1404" 
d="M877 0h-349v606l-532 828h379l327 -523l328 523h379l-532 -828v-606zM1077 1546h-219l-147 180l-146 -180h-219l236 297h260z" />
    <glyph glyph-name="ycircumflex" unicode="&#x177;" horiz-adv-x="1200" 
d="M1178 1024l-473 -1120q-76 -190 -185 -280q-108 -90 -228 -87q-120 4 -259 53l84 246q127 -57 186 -26t119 190l-408 1024h359l225 -606l248 606h332zM991 1341h-219l-147 181l-146 -181h-219l236 297h260z" />
    <glyph glyph-name="Ydieresis" unicode="&#x178;" horiz-adv-x="1404" 
d="M877 0h-349v606l-532 828h379l327 -523l328 523h379l-532 -828v-606zM1118 1722q0 -70 -47 -116t-116 -47q-69 0 -117 48q-48 47 -50 115q0 68 49 115t118 47t116 -46t47 -116zM606 1722q0 -70 -46 -116t-117 -47q-71 0 -119 47q-48 46 -48 116t48 116t119 46t117 -46
t46 -116z" />
    <glyph glyph-name="Zacute" unicode="&#x179;" horiz-adv-x="1531" 
d="M1432 317v-317h-1348l793 1137h-691v297h1266l-778 -1117h758zM903 1546h-239l245 297h301z" />
    <glyph glyph-name="zacute" unicode="&#x17a;" horiz-adv-x="1028" 
d="M946 264v-264h-926l482 760h-398v264h904l-480 -760h418zM621 1341h-240l246 297h301z" />
    <glyph glyph-name="Zdotaccent" unicode="&#x17b;" horiz-adv-x="1531" 
d="M1432 317v-317h-1348l793 1137h-691v297h1266l-778 -1117h758zM817 1884q70 0 116 -46t46 -116t-46 -116t-116 -47q-70 0 -117 47q-47 46 -47 116t47 116t117 46z" />
    <glyph glyph-name="zdotaccent" unicode="&#x17c;" horiz-adv-x="1028" 
d="M946 264v-264h-926l482 760h-398v264h904l-480 -760h418zM535 1679q69 0 115 -46q46 -45 46 -115t-46 -117t-116 -47t-116 47q-47 47 -47 117t47 116t117 45z" />
    <glyph glyph-name="Zcaron" unicode="&#x17d;" horiz-adv-x="1531" 
d="M1432 317v-317h-1348l793 1137h-691v297h1266l-778 -1117h758zM950 1546h-260l-235 297h219l147 -180l146 180h219z" />
    <glyph glyph-name="zcaron" unicode="&#x17e;" horiz-adv-x="1028" 
d="M946 264v-264h-926l482 760h-398v264h904l-480 -760h418zM668 1341h-260l-236 297h219l148 -180l145 180h219z" />
    <glyph glyph-name="Scommaaccent" unicode="&#x218;" horiz-adv-x="1163" 
d="M453 -408q0 68 47 114q46 46 116 46t116 -46t46 -129t-123 -286h-98l43 138q-63 6 -105 51q-42 44 -42 112zM412 1080q0 -60 46 -95t144 -61q242 -68 369 -180t127 -308q0 -144 -68 -248t-172 -151t-230 -65q-236 -33 -454 51q-94 35 -133 79l156 269q82 -53 180 -77
t177 -16t132 46q53 36 53 98t-54 106t-170 84q-117 39 -185 69q-192 84 -244 202q-33 72 -33 170q-1 160 101 261q184 183 571 144q168 -17 307 -76l-110 -272q-111 45 -228 62q-118 16 -200 -8t-82 -84z" />
    <glyph glyph-name="scommaaccent" unicode="&#x219;" horiz-adv-x="909" 
d="M332 -408q0 68 47 114t117 46t116 -46t45 -129q0 -83 -122 -286h-99l43 138q-63 6 -105 51q-42 44 -42 112zM516 317q0 51 -45 78t-95 38t-59 16q-137 37 -209 105t-73 200q0 132 109 214q110 81 272 81q94 0 202 -27t181 -70l-90 -221q-131 80 -254 80q-86 0 -86 -53
t112 -84q189 -51 281 -131t92 -235t-127 -246t-277 -91q-150 1 -262 47t-165 107l133 209q104 -100 232 -100t128 83z" />
    <glyph glyph-name="uni021A" unicode="&#x21a;" horiz-adv-x="1224" 
d="M612 -248q70 0 116 -46t46 -129t-123 -286h-98l43 138q-63 6 -106 51q-42 44 -42 112t48 114q46 46 116 46zM1178 1126h-392v-1126h-348v1126h-389v308h1129v-308z" />
    <glyph glyph-name="uni021B" unicode="&#x21b;" horiz-adv-x="757" 
d="M274 -408q0 68 48 114t116 46q70 0 116 -46t46 -129t-123 -286h-98l43 138q-63 6 -106 51q-42 44 -42 112zM494 758v-332q0 -142 45 -151t80 -2t75 18v-297q-190 -42 -307 -18t-169 129t-52 321v332h-123v266h123v451h328v-451h200v-266h-200z" />
    <glyph glyph-name="dotlessj" unicode="&#x237;" horiz-adv-x="573" 
d="M451 1024v-1024q1 -326 -141 -423t-453 -34v310q57 -15 89 -23t64 -9t48 -1q15 0 31 19q15 19 21 31q14 31 13 130v1024h328z" />
    <glyph glyph-name="circumflex" unicode="&#x2c6;" horiz-adv-x="731" 
d="M731 1341h-219l-147 181l-146 -181h-219l236 297h260z" />
    <glyph glyph-name="caron" unicode="&#x2c7;" horiz-adv-x="731" 
d="M496 1341h-260l-236 297h219l148 -180l145 180h219z" />
    <glyph glyph-name="breve" unicode="&#x2d8;" horiz-adv-x="573" 
d="M393 1638h180q1 -116 -71 -196t-216 -80t-215 81t-71 195h180q0 -74 26 -98t80 -22q54 0 81 24q26 24 26 96z" />
    <glyph glyph-name="dotaccent" unicode="&#x2d9;" horiz-adv-x="325" 
d="M164 1679q70 0 116 -46q46 -45 46 -115t-46 -117t-116 -47t-117 47t-47 117t47 116t117 45z" />
    <glyph glyph-name="ring" unicode="&#x2da;" horiz-adv-x="401" 
d="M203 1528q-31 0 -51 -20t-20 -52q0 -31 20 -51q20 -21 51 -21t50 20t19 52t-19 52t-50 20zM203 1659q82 1 140 -59t58 -144t-58 -143t-140 -59q-83 0 -143 60t-60 143t60 143t143 59z" />
    <glyph glyph-name="ogonek" unicode="&#x2db;" horiz-adv-x="393" 
d="M168 -208q0 -54 49 -54q25 0 47 13t27 30l102 -107q-84 -104 -196 -104q-82 0 -140 47q-57 47 -57 131q0 141 141 252h174q-67 -35 -107 -95q-40 -59 -40 -113z" />
    <glyph glyph-name="tilde" unicode="&#x2dc;" horiz-adv-x="757" 
d="M0 1380q95 228 239 230q67 0 162 -35q171 -63 219 -23q23 21 60 93l78 -52q-82 -195 -169 -235t-224 18q-113 43 -175 42t-112 -87z" />
    <glyph glyph-name="hungarumlaut" unicode="&#x2dd;" horiz-adv-x="854" 
d="M608 1341h-219l205 297h260zM219 1341h-219l184 297h260z" />
    <glyph glyph-name="commaaccentcomb" unicode="&#x326;" horiz-adv-x="0" 
d="M0 -408q0 68 47 114t117 46t116 -46t46 -129t-123 -286h-99l43 138q-63 6 -105 51q-42 44 -42 112z" />
    <glyph glyph-name="Wgrave" unicode="&#x1e80;" horiz-adv-x="2119" 
d="M1452 -82l-391 881l-393 -881l-656 1516h359l315 -748l375 789l373 -789l315 748h358zM989 1546l-287 297h281l246 -297h-240z" />
    <glyph glyph-name="wgrave" unicode="&#x1e81;" horiz-adv-x="1705" 
d="M1159 -82l-305 559l-305 -559l-522 1106h348l205 -473l274 514l274 -514l205 473h348zM782 1341l-286 297h280l246 -297h-240z" />
    <glyph glyph-name="Wacute" unicode="&#x1e82;" horiz-adv-x="2119" 
d="M1061 799l-393 -881l-656 1516h359l315 -748l375 789l373 -789l315 748h358l-655 -1516zM1149 1546h-240l246 297h301z" />
    <glyph glyph-name="wacute" unicode="&#x1e83;" horiz-adv-x="1705" 
d="M854 477l-305 -559l-522 1106h348l205 -473l274 514l274 -514l205 473h348l-522 -1106zM942 1341h-240l246 297h301z" />
    <glyph glyph-name="Wdieresis" unicode="&#x1e84;" horiz-adv-x="2119" 
d="M1452 -82l-391 881l-393 -881l-656 1516h359l315 -748l375 789l373 -789l315 748h358zM1477 1722q0 -70 -47 -116t-116 -47q-69 0 -118 48q-49 47 -49 115t49 115t118 47t116 -46t47 -116zM965 1722q0 -70 -46 -116t-117 -47q-71 0 -119 47q-48 46 -48 116t48 116t119 46
t117 -46t46 -116z" />
    <glyph glyph-name="wdieresis" unicode="&#x1e85;" horiz-adv-x="1705" 
d="M1159 -82l-305 559l-305 -559l-522 1106h348l205 -473l274 514l274 -514l205 473h348zM1107 1354q-69 0 -118 48t-49 116t49 114t118 47q69 0 116 -46q47 -45 47 -115t-47 -117t-116 -47zM595 1354q-71 0 -119 47t-48 117t48 116t119 45q71 0 117 -46q46 -45 46 -115
t-46 -117t-117 -47z" />
    <glyph glyph-name="Ygrave" unicode="&#x1ef2;" horiz-adv-x="1404" 
d="M877 0h-349v606l-532 828h379l327 -523l328 523h379l-532 -828v-606zM870 1546h-239l-287 297h281z" />
    <glyph glyph-name="ygrave" unicode="&#x1ef3;" horiz-adv-x="1200" 
d="M1178 1024l-473 -1120q-76 -190 -185 -280q-108 -90 -228 -87q-120 4 -259 53l84 246q127 -57 186 -26t119 190l-408 1024h359l225 -606l248 606h332zM784 1341h-239l-287 297h281z" />
    <glyph glyph-name="endash" unicode="&#x2013;" horiz-adv-x="1085" 
d="M1004 371h-922v266h922v-266z" />
    <glyph glyph-name="emdash" unicode="&#x2014;" horiz-adv-x="1622" 
d="M1540 371h-1458v266h1458v-266z" />
    <glyph glyph-name="quoteleft" unicode="&#x2018;" horiz-adv-x="458" 
d="M408 1214q0 -68 -48 -113q-48 -46 -116 -46q-70 0 -116 46t-46 116q0 94 143 299h99l-64 -138q64 -6 106 -51t42 -113z" />
    <glyph glyph-name="quoteright" unicode="&#x2019;" horiz-adv-x="458" 
d="M51 1356q0 68 47 114t117 46t116 -46t46 -116q0 -94 -144 -299h-98l64 137q-63 6 -106 51q-42 45 -42 113z" />
    <glyph glyph-name="quotedblleft" unicode="&#x201c;" horiz-adv-x="866" 
d="M815 1214q0 -68 -47 -113q-47 -46 -117 -46q-69 0 -115 46q-46 47 -46 105t40 143q41 85 103 167h98l-63 -138q63 -6 105 -51t42 -113zM408 1214q0 -68 -48 -113q-48 -46 -116 -46q-70 0 -116 46q-46 47 -46 105t41 143t102 167h99l-64 -138q64 -6 106 -51t42 -113z" />
    <glyph glyph-name="quotedblright" unicode="&#x201d;" horiz-adv-x="866" 
d="M459 1360q0 68 47 114t117 46q69 0 115 -46t46 -116q0 -94 -143 -299h-98l63 137q-63 6 -105 51t-42 113zM51 1360q0 68 47 114t117 46t116 -46t46 -116q0 -94 -144 -299h-98l64 137q-63 6 -106 51q-42 45 -42 113z" />
    <glyph glyph-name="dagger" unicode="&#x2020;" horiz-adv-x="921" 
d="M565 1155l264 19v-248l-266 20l17 -557h-238l16 557l-266 -20v248l264 -19l-22 279h254z" />
    <glyph glyph-name="daggerdbl" unicode="&#x2021;" horiz-adv-x="921" 
d="M829 926l-266 20l17 -229l-17 -230l266 21v-248l-264 19l23 -279h-254l22 279l-264 -19v248l266 -21l-16 230l16 229l-266 -20v248l264 -19l-22 279h254l-23 -279l264 19v-248z" />
    <glyph glyph-name="bullet" unicode="&#x2022;" horiz-adv-x="972" 
d="M487 977q131 0 225 -93q94 -94 95 -226q0 -132 -94 -227q-93 -95 -225 -95t-227 95t-95 226t95 225t226 95z" />
    <glyph glyph-name="ellipsis" unicode="&#x2026;" horiz-adv-x="1409" 
d="M1155 307q70 0 117 -47t47 -117q0 -71 -47 -117t-117 -46t-117 47t-47 117t47 116q47 47 117 47zM707 307q69 0 115 -47t46 -117q0 -71 -46 -117t-116 -46t-116 47q-47 47 -47 117t47 116q47 47 117 47zM256 307q70 0 116 -47t46 -117q0 -71 -46 -117t-116 -46t-118 47
t-48 117t48 116q48 47 118 47z" />
    <glyph glyph-name="guilsinglleft" unicode="&#x2039;" horiz-adv-x="667" 
d="M606 834l-221 -324l221 -330l-207 -137l-338 467l338 461z" />
    <glyph glyph-name="guilsinglright" unicode="&#x203a;" horiz-adv-x="667" 
d="M606 510l-338 -467l-207 137l222 330l-222 324l207 137z" />
    <glyph glyph-name="fraction" unicode="&#x2044;" horiz-adv-x="1472" 
d="M276 -348h-317l1237 1986h317z" />
    <glyph glyph-name="Euro" unicode="&#x20ac;" horiz-adv-x="1191" 
d="M78 430v225h166l-2 62q0 31 2 61h-166v226h205q37 118 107 210t157 146q269 166 610 74l-49 -306q-197 57 -328 -8q-78 -39 -123 -116h287l-29 -226h-321q-2 -30 -2 -62t2 -61h305l-27 -225h-215q129 -215 451 -125l49 -305q-211 -61 -424 -5t-343 224q-71 92 -107 211
h-205z" />
    <glyph glyph-name="trademark" unicode="&#x2122;" horiz-adv-x="737" 
d="M92 1434h215v-60h-78v-227h-57v227h-80v60zM645 1147h-61v149l-78 -79l-80 79v-149h-61v295l141 -144l139 144v-295z" />
    <glyph glyph-name="minus" unicode="&#x2212;" horiz-adv-x="1257" 
d="M1141 502h-1024v266h1024v-266z" />
    <glyph glyph-name="approxequal" unicode="&#x2248;" horiz-adv-x="1390" 
d="M1190 621l117 -109q-65 -118 -158 -208q-50 -48 -137 -63q-128 -22 -420 77q-185 63 -243 55q-57 -8 -88 -36q-32 -28 -58 -61l-119 109q124 214 290 240q84 12 156 1t176 -44t151 -48q45 -16 103 -26t78 -8t52 17t51 38q18 23 49 66zM1190 1102l117 -109
q-65 -118 -158 -208q-50 -48 -137 -63q-128 -22 -420 77q-185 63 -244 54t-89 -36t-56 -59l-119 108q124 214 290 240q84 12 156 1t176 -44t151 -48q45 -15 103 -25t78 -9q20 2 52 17t51 38q18 23 49 66z" />
    <glyph glyph-name="notequal" unicode="&#x2260;" horiz-adv-x="1474" 
d="M1352 584v-267h-631l-119 -274l-209 88l82 186h-352v267h467l61 143h-528v266h645l145 336l209 -88l-108 -248h338v-266h-453l-61 -143h514z" />
    <glyph glyph-name="lessequal" unicode="&#x2264;" horiz-adv-x="1380" 
d="M193 266h1024v-266h-1024v266zM743 741l474 -168v-260l-1088 426l1088 404v-234z" />
    <glyph glyph-name="greaterequal" unicode="&#x2265;" horiz-adv-x="1380" 
d="M164 266h1024v-266h-1024v266zM1251 739l-1087 -426v260l473 168l-471 168v234z" />
    <glyph glyph-name="lozenge" unicode="&#x25ca;" horiz-adv-x="1361" 
d="M463 621l219 -220l219 220l-219 219zM1239 621l-557 -560l-559 560l559 557z" />
    <glyph glyph-name="O_O" horiz-adv-x="2248" 
d="M1079 717q0 -139 45 -234q45 93 45 233t-45 234q-45 -94 -45 -233zM1446 297q178 0 272 110t94 310q0 270 -165 370q-82 49 -201 50h-29q111 -184 111 -422t-109 -418h27zM436 717q0 -201 94 -311t273 -109h26q-109 180 -109 418t111 422h-28q-179 1 -273 -109t-94 -311z
M1446 1464q338 0 532 -217t193 -547q0 -330 -209 -530q-209 -201 -516 -201q-174 0 -322 68q-150 -68 -321 -68q-311 0 -518 201q-207 200 -207 530t193 547q194 217 532 217q178 0 321 -65q144 65 322 65z" />
    <glyph glyph-name="c_t" horiz-adv-x="1755" 
d="M630 803q-228 0 -230 -289q0 -289 230 -289q116 0 228 84l107 -215q-57 -57 -166 -94t-205 -37q-260 -1 -396 145t-137 406q0 207 87 343t260 185q-66 100 -66 228q0 244 147 381t383 145q281 8 450 -144t169 -440v-188h201v-266h-201v-332q0 -142 44 -151t80 -2t77 18
v-297q-190 -42 -308 -18t-169 129q-52 105 -52 321v860q-6 148 -81 232t-213 76t-213 -86q-75 -79 -74 -203q0 -162 148 -239l63 -32q33 -16 82 -38t90 -62l-107 -215q-112 84 -228 84z" />
    <glyph glyph-name="f_i" horiz-adv-x="1198" 
d="M496 1024h528v-1024h-328v758h-200v-758h-328v758h-123v266h123v18q-4 220 61 325q37 60 97 92q183 98 698 16v-310q-264 42 -340 40q-76 -1 -110 -10q-63 -17 -74 -91q-4 -29 -4 -80z" />
    <glyph glyph-name="f_l" horiz-adv-x="1136" 
d="M1022 0h-326v1212q-108 18 -135 7t-39 -23q-32 -33 -26 -172h98v-266h-98v-758h-328v758h-123v266h123v18q-2 134 18 224q46 205 223 252q197 52 609 -43l4 -2v-1473z" />
    <glyph glyph-name="s_t" horiz-adv-x="1626" 
d="M516 317q0 56 -57 85l-26 13q-29 13 -60 19t-56 15q-137 37 -209 105t-73 184q0 116 68 191q69 75 180 103q-70 106 -70 238q0 244 147 381t383 145q281 8 450 -144t169 -440v-188h201v-266h-201v-332q0 -142 45 -151t80 -2t76 18v-297q-189 -42 -307 -18t-170 129
t-52 321v332h-123v266h123v262q-6 148 -81 232t-213 76t-213 -86q-75 -80 -75 -196t70 -187q68 -71 199 -136q45 -16 78 -37l-90 -221q-131 80 -254 80q-86 0 -86 -53t112 -84q189 -51 281 -131t92 -235t-127 -246t-277 -91q-150 1 -262 47t-165 107l133 209
q104 -100 232 -100t128 83z" />
    <glyph glyph-name="zero.tosf" horiz-adv-x="1228" 
d="M618 741q-198 0 -198 -229t198 -229q203 0 203 223q0 109 -50 172q-51 63 -153 63zM72 518q0 246 150 392t408 145q258 0 398 -158q140 -159 141 -403t-151 -384t-409 -140t-397 151t-140 397z" />
    <glyph glyph-name="one.tosf" horiz-adv-x="823" 
d="M700 0h-358v653l-188 -53l-93 283l639 182v-1065z" />
    <glyph glyph-name="two.tosf" horiz-adv-x="1228" 
d="M1094 711q0 -135 -70 -203q-27 -26 -47 -44q-21 -16 -61 -34q-86 -37 -139 -51l-76 -19q-28 -6 -57 -12t-36 -8t-41 -9t-71 -34h596v-297h-1020q0 100 26 183q27 83 59 131t85 90q52 42 76 56t104 47q80 34 129 48q49 13 76 21q87 24 103 43q15 19 15 49q0 78 -159 77
q-82 -1 -171 -33t-132 -75l-158 223q84 80 230 137q147 57 325 57t296 -85q118 -86 118 -258z" />
    <glyph glyph-name="three.tosf" horiz-adv-x="1142" 
d="M614 1061q219 0 341 -111t122 -280q0 -102 -56 -190t-134 -111q98 -31 168 -130t69 -227q0 -214 -138 -330t-376 -116q-152 0 -310 52t-210 112l141 272q174 -102 338 -102q106 0 163 41q56 41 39 128t-88 119t-200 31h-131v281h133q223 0 244 131q10 65 -42 97
q-95 58 -392 -42l-127 283q227 92 446 92z" />
    <glyph glyph-name="four.tosf" horiz-adv-x="1265" 
d="M1079 -82v-328h-348v328h-702q137 180 201 417q65 237 65 447h313q0 -299 -84 -577h207v839h348v-839h129v-287h-129z" />
    <glyph glyph-name="five.tosf" horiz-adv-x="1183" 
d="M479 717v-185q306 33 492 -123q61 -53 98 -137t37 -192q0 -170 -90 -292q-168 -228 -490 -228q-287 0 -485 133l121 307q115 -76 270 -99t236 29q80 53 80 164q0 193 -308 193q-141 0 -309 -49v786h918v-307h-570z" />
    <glyph glyph-name="six.tosf" horiz-adv-x="1263" 
d="M823 485q0 228 -180 228q-82 0 -141 -39t-86 -105q12 -154 82 -231t174 -59q66 12 108 68t43 138zM707 1167q-174 0 -252 -194q-18 -47 -29 -111q109 88 276 88q222 0 348 -135t126 -349t-157 -355t-366 -142q-281 -1 -425 181t-144 538t172 566q172 212 440 212
t449 -209l-195 -227q-96 137 -243 137z" />
    <glyph glyph-name="seven.tosf" horiz-adv-x="1200" 
d="M94 1022h1047q0 -289 -170 -541q-45 -66 -134 -167t-149 -195q-130 -203 -131 -531h-346q0 264 95 492t251 395q125 137 172 240h-635v307z" />
    <glyph glyph-name="eight.tosf" horiz-adv-x="1196" 
d="M580 193q-100 1 -150 -47t-51 -117q0 -154 201 -162q199 8 198 162q0 164 -198 164zM408 621q0 -61 44 -97t129 -35q85 0 127 38t42 94q0 129 -170 133q-172 -4 -172 -133zM1120 6q0 -223 -150 -335t-390 -111q-402 0 -510 262q-33 80 -33 196t76 215q76 98 192 129
q-96 25 -158 110q-61 84 -61 190t44 184q77 137 276 187q84 22 174 22q209 -1 350 -101t141 -290q0 -106 -61 -192q-62 -85 -158 -110q116 -31 192 -129t76 -227z" />
    <glyph glyph-name="nine.tosf" horiz-adv-x="1255" 
d="M354 532q0 -98 45 -154t131 -56t146 38q59 38 86 105q-16 207 -132 273q-54 30 -122 18t-111 -68q-43 -58 -43 -156zM471 -133q174 0 252 194q18 47 29 111q-109 -88 -277 -88q-223 0 -348 135t-125 349t157 356t365 141q281 0 425 -181q145 -181 145 -537
q0 -355 -172 -567t-440 -212t-449 209l194 227q96 -137 244 -137z" />
    <glyph glyph-name="zero.osf" horiz-adv-x="1228" 
d="M618 741q-198 0 -198 -229t198 -229q203 0 203 223q0 109 -50 172q-51 63 -153 63zM72 518q0 246 150 392t408 145q258 0 398 -158q140 -159 141 -403t-151 -384t-409 -140t-397 151t-140 397z" />
    <glyph glyph-name="one.osf" horiz-adv-x="823" 
d="M700 0h-358v653l-188 -53l-93 283l639 182v-1065z" />
    <glyph glyph-name="two.osf" horiz-adv-x="1228" 
d="M1094 711q0 -135 -70 -203q-27 -26 -47 -44q-21 -16 -61 -34q-86 -37 -139 -51l-76 -19q-28 -6 -57 -12t-36 -8t-41 -9t-71 -34h596v-297h-1020q0 100 26 183q27 83 59 131t85 90q52 42 76 56t104 47q80 34 129 48q49 13 76 21q87 24 103 43q15 19 15 49q0 78 -159 77
q-82 -1 -171 -33t-132 -75l-158 223q84 80 230 137q147 57 325 57t296 -85q118 -86 118 -258z" />
    <glyph glyph-name="three.osf" horiz-adv-x="1142" 
d="M614 1061q219 0 341 -111t122 -280q0 -102 -56 -190t-134 -111q98 -31 168 -130t69 -227q0 -214 -138 -330t-376 -116q-152 0 -310 52t-210 112l141 272q174 -102 338 -102q106 0 163 41q56 41 39 128t-88 119t-200 31h-131v281h133q223 0 244 131q10 65 -42 97
q-95 58 -392 -42l-127 283q227 92 446 92z" />
    <glyph glyph-name="four.osf" horiz-adv-x="1265" 
d="M1079 -410h-348v328h-702q137 180 201 417q65 237 65 447h313q0 -299 -84 -577h207v839h348v-839h129v-287h-129v-328z" />
    <glyph glyph-name="five.osf" horiz-adv-x="1183" 
d="M479 717v-185q306 33 492 -123q61 -53 98 -137t37 -192q0 -170 -90 -292q-168 -228 -490 -228q-287 0 -485 133l121 307q115 -76 270 -99t236 29q80 53 80 164q0 193 -308 193q-141 0 -309 -49v786h918v-307h-570z" />
    <glyph glyph-name="six.osf" horiz-adv-x="1263" 
d="M823 485q0 228 -180 228q-82 0 -141 -39t-86 -105q12 -154 82 -231t174 -59q66 12 108 68t43 138zM707 1167q-174 0 -252 -194q-18 -47 -29 -111q109 88 276 88q222 0 348 -135t126 -349t-157 -355t-366 -142q-281 -1 -425 181t-144 538t172 566q172 212 440 212
t449 -209l-195 -227q-96 137 -243 137z" />
    <glyph glyph-name="seven.osf" horiz-adv-x="1200" 
d="M94 1022h1047q0 -289 -170 -541q-45 -66 -134 -167t-149 -195q-130 -203 -131 -531h-346q0 264 95 492t251 395q125 137 172 240h-635v307z" />
    <glyph glyph-name="eight.osf" horiz-adv-x="1196" 
d="M580 193q-100 1 -150 -47t-51 -117q0 -154 201 -162q199 8 198 162q0 164 -198 164zM408 621q0 -61 44 -97t129 -35q85 0 127 38t42 94q0 129 -170 133q-172 -4 -172 -133zM1120 6q0 -223 -150 -335t-390 -111q-402 0 -510 262q-33 80 -33 196t76 215q76 98 192 129
q-96 25 -158 110q-61 84 -61 190t44 184q77 137 276 187q84 22 174 22q209 -1 350 -101t141 -290q0 -106 -61 -192q-62 -85 -158 -110q116 -31 192 -129t76 -227z" />
    <glyph glyph-name="nine.osf" horiz-adv-x="1255" 
d="M354 532q0 -98 45 -154t131 -56t146 38q59 38 86 105q-16 207 -132 273q-54 30 -122 18t-111 -68q-43 -58 -43 -156zM471 -133q174 0 252 194q18 47 29 111q-109 -88 -277 -88q-223 0 -348 135t-125 349t157 356t365 141q281 0 425 -181q145 -181 145 -537
q0 -355 -172 -567t-440 -212t-449 209l194 227q96 -137 244 -137z" />
    <glyph glyph-name="zero.lf" horiz-adv-x="1347" 
d="M673 1120q-133 0 -185 -102t-52 -301t51 -301t185 -102t187 102q52 102 52 301t-52 301t-186 102zM672 1464q156 0 274 -62q211 -110 285 -407q33 -129 33 -278q0 -348 -156 -548t-436 -200q-128 0 -230 43q-186 78 -277 284q-81 179 -81 421q0 347 154 547t434 200z" />
    <glyph glyph-name="one.lf" horiz-adv-x="794" 
d="M655 0h-358v1053l-188 -54l-93 283l639 182v-1464z" />
    <glyph glyph-name="two.lf" horiz-adv-x="1189" 
d="M606 1464q213 0 351 -110q139 -110 159 -280q20 -171 -58 -305t-186 -212q-66 -47 -198 -115t-174 -114h587v-328h-1019q0 239 89 393q44 76 87 131q71 91 206 175q36 24 91 55q158 82 196 143q27 53 27 107t-46 93q-46 40 -120 40t-176 -39t-199 -123l-149 289
q162 116 272 158t260 42z" />
    <glyph glyph-name="three.lf" horiz-adv-x="1142" 
d="M561 1464q219 0 341 -110t122 -281q0 -102 -56 -189t-134 -112q98 -31 168 -130t69 -226q0 -215 -138 -331t-376 -116q-153 1 -311 53t-209 111l141 273q174 -102 338 -103q106 0 163 41q56 41 39 128t-88 119t-200 32h-131v280h133q223 0 244 131q10 66 -42 98
q-95 58 -392 -42l-127 282q227 92 446 92z" />
    <glyph glyph-name="four.lf" horiz-adv-x="1265" 
d="M1079 328v-328h-348v328h-702q137 180 201 416t65 448h313q0 -299 -84 -578h207v840h348v-840h129v-286h-129z" />
    <glyph glyph-name="five.lf" horiz-adv-x="1183" 
d="M479 1126v-184q192 21 348 -40q279 -109 279 -413q0 -169 -90 -291q-168 -226 -472 -228q-305 -1 -503 132l121 308q115 -76 270 -100t236 30q80 53 80 164q0 193 -308 192q-141 0 -309 -49v787h918v-308h-570z" />
    <glyph glyph-name="six.lf" horiz-adv-x="1263" 
d="M823 485q0 228 -180 228q-82 0 -141 -39t-86 -105q12 -154 82 -231t174 -59q66 12 108 68t43 138zM707 1167q-174 0 -252 -194q-18 -47 -29 -111q109 88 276 88q222 0 348 -135t126 -349t-157 -355t-366 -142q-281 -1 -425 181t-144 538t172 566q172 212 440 212
t449 -209l-195 -227q-96 137 -243 137z" />
    <glyph glyph-name="seven.lf" horiz-adv-x="1200" 
d="M94 1434h1047q0 -289 -170 -541q-45 -66 -134 -167q-89 -102 -149 -196q-130 -204 -131 -530h-346q0 264 95 492t251 395q125 137 172 239h-635v308z" />
    <glyph glyph-name="eight.lf" horiz-adv-x="1196" 
d="M799 438q0 164 -199 164q-100 0 -150 -47t-51 -117q0 -154 201 -162q199 8 199 162zM428 1030q0 -61 44 -96t129 -35t127 38t42 93q0 129 -170 133q-172 -4 -172 -133zM1141 416q0 -223 -150 -335t-389 -112t-369 88q-176 121 -176 359q0 129 76 227t193 129
q-96 25 -158 110t-62 190t45 183q77 136 275 188q84 22 174 21q209 0 350 -100t142 -291q0 -106 -62 -191t-158 -110q117 -31 193 -129t76 -227z" />
    <glyph glyph-name="nine.lf" horiz-adv-x="1255" 
d="M350 951q0 -150 80 -201q41 -27 98 -27q115 0 182 69q32 32 48 74q-12 154 -82 232t-174 59q-66 -12 -109 -68t-43 -138zM471 485q-223 -1 -348 135t-125 350t157 355t365 141q281 0 425 -181q145 -181 145 -537t-172 -567q-172 -212 -440 -212t-449 209l194 228
q96 -137 244 -138q174 0 252 195q18 47 29 110q-109 -88 -277 -88z" />
    <glyph glyph-name="zero.tf" horiz-adv-x="1347" 
d="M673 1120q-133 0 -185 -102t-52 -301t51 -301t185 -102t187 102q52 102 52 301t-52 301t-186 102zM672 1464q156 0 274 -62q211 -110 285 -407q33 -129 33 -278q0 -348 -156 -548t-436 -200q-128 0 -230 43q-186 78 -277 284q-81 179 -81 421q0 347 154 547t434 200z" />
    <glyph glyph-name="one.tf" horiz-adv-x="794" 
d="M655 0h-358v1053l-188 -54l-93 283l639 182v-1464z" />
    <glyph glyph-name="two.tf" horiz-adv-x="1189" 
d="M606 1464q213 0 351 -110q139 -110 159 -280q20 -171 -58 -305t-186 -212q-66 -47 -198 -115t-174 -114h587v-328h-1019q0 239 89 393q44 76 87 131q71 91 206 175q36 24 91 55q158 82 196 143q27 53 27 107t-46 93q-46 40 -120 40t-176 -39t-199 -123l-149 289
q162 116 272 158t260 42z" />
    <glyph glyph-name="three.tf" horiz-adv-x="1142" 
d="M561 1464q219 0 341 -110t122 -281q0 -102 -56 -189t-134 -112q98 -31 168 -130t69 -226q0 -215 -138 -331t-376 -116q-153 1 -311 53t-209 111l141 273q174 -102 338 -103q106 0 163 41q56 41 39 128t-88 119t-200 32h-131v280h133q223 0 244 131q10 66 -42 98
q-95 58 -392 -42l-127 282q227 92 446 92z" />
    <glyph glyph-name="four.tf" horiz-adv-x="1265" 
d="M1079 328v-328h-348v328h-702q137 180 201 416t65 448h313q0 -299 -84 -578h207v840h348v-840h129v-286h-129z" />
    <glyph glyph-name="five.tf" horiz-adv-x="1183" 
d="M479 1126v-184q192 21 348 -40q279 -109 279 -413q0 -169 -90 -291q-168 -226 -472 -228q-305 -1 -503 132l121 308q115 -76 270 -100t236 30q80 53 80 164q0 193 -308 192q-141 0 -309 -49v787h918v-308h-570z" />
    <glyph glyph-name="six.tf" horiz-adv-x="1263" 
d="M823 485q0 228 -180 228q-82 0 -141 -39t-86 -105q12 -154 82 -231t174 -59q66 12 108 68t43 138zM707 1167q-174 0 -252 -194q-18 -47 -29 -111q109 88 276 88q222 0 348 -135t126 -349t-157 -355t-366 -142q-281 -1 -425 181t-144 538t172 566q172 212 440 212
t449 -209l-195 -227q-96 137 -243 137z" />
    <glyph glyph-name="seven.tf" horiz-adv-x="1200" 
d="M94 1434h1047q0 -289 -170 -541q-45 -66 -134 -167q-89 -102 -149 -196q-130 -204 -131 -530h-346q0 264 95 492t251 395q125 137 172 239h-635v308z" />
    <glyph glyph-name="eight.tf" horiz-adv-x="1196" 
d="M799 438q0 164 -199 164q-100 0 -150 -47t-51 -117q0 -154 201 -162q199 8 199 162zM428 1030q0 -61 44 -96t129 -35t127 38t42 93q0 129 -170 133q-172 -4 -172 -133zM1141 416q0 -223 -150 -335t-389 -112t-369 88q-176 121 -176 359q0 129 76 227t193 129
q-96 25 -158 110t-62 190t45 183q77 136 275 188q84 22 174 21q209 0 350 -100t142 -291q0 -106 -62 -191t-158 -110q117 -31 193 -129t76 -227z" />
    <glyph glyph-name="nine.tf" horiz-adv-x="1255" 
d="M350 951q0 -150 80 -201q41 -27 98 -27q115 0 182 69q32 32 48 74q-12 154 -82 232t-174 59q-66 -12 -109 -68t-43 -138zM471 485q-223 -1 -348 135t-125 350t157 355t365 141q281 0 425 -181q145 -181 145 -537t-172 -567q-172 -212 -440 -212t-449 209l194 228
q96 -137 244 -138q174 0 252 195q18 47 29 110q-109 -88 -277 -88z" />
    </font>
</defs>
</svg>
