<?xml version="1.0" standalone="no"?>
<!DOCTYPE svg PUBLIC "-//W3C//DTD SVG 1.1//EN" "http://www.w3.org/Graphics/SVG/1.1/DTD/svg11.dtd" >
<svg xmlns="http://www.w3.org/2000/svg">
<metadata>
Created by FontPrep 20130207 at Wed Mar  5 16:52:15 2014
 By Drew Rios
Copyright (c) 2013 by Avondale Type Co. All rights reserved.
</metadata>
<defs>
<font id="e2044c92053e74e48044ab9ac4d59d5e" >
  <font-face 
    font-family="ATCOverlook-ExtraLight"
    font-weight="250"
    font-stretch="normal"
    units-per-em="2048"
    panose-1="0 0 3 0 0 0 0 0 0 0"
    ascent="1638"
    descent="-410"
    x-height="1024"
    cap-height="1434"
    bbox="-143 -616 2433 1864"
    underline-thickness="102"
    underline-position="-102"
    unicode-range="U+0020-25CA"
  />
<missing-glyph horiz-adv-x="1193" 
 />
    <glyph glyph-name="f_f" unicode="ff" horiz-adv-x="1210" 
d="M827 1024h381v-78h-381v-946h-86v946h-393v-946h-86v946h-184v78h184v18q0 218 26 290t55 102q84 87 349 30v-82q-157 31 -208 24q-52 -6 -72 -26q-47 -46 -59 -170q-5 -61 -5 -159v-27h393v18q1 223 27 300t59 109t86 46q93 24 295 -16v-82q-167 33 -228 26
q-62 -7 -85 -29q-52 -49 -62 -178q-5 -65 -6 -167v-27z" />
    <glyph glyph-name="f_f_i" unicode="ffi" horiz-adv-x="1480" 
d="M827 1051v-27h465v-1024h-86v946h-379v-946h-86v946h-393v-946h-86v946h-184v78h184v18q0 218 26 290t55 102q84 87 349 30v-82q-157 31 -208 24q-52 -6 -72 -26q-47 -46 -59 -170q-5 -61 -5 -159v-27h393v18q0 219 29 299t66 110q80 65 250 55q85 -5 206 -25v-82
q-211 31 -261 28q-50 -4 -89 -14t-62 -43q-24 -34 -30 -60q-23 -102 -23 -259z" />
    <glyph glyph-name=".notdef" horiz-adv-x="1193" 
 />
    <glyph glyph-name=".null" horiz-adv-x="0" 
 />
    <glyph glyph-name="nonmarkingreturn" horiz-adv-x="681" 
 />
    <glyph glyph-name="space" unicode=" " horiz-adv-x="593" 
 />
    <glyph glyph-name="exclam" unicode="!" horiz-adv-x="468" 
d="M172 35q0 71 58 71q33 0 51 -18t18 -44t-18 -45q-17 -19 -39 -19t-46 14q-24 15 -24 41zM274 352h-77v1123h77v-1123z" />
    <glyph glyph-name="quotedbl" unicode="&#x22;" horiz-adv-x="643" 
d="M520 1239h-71l-7 399h84zM207 1239h-74l-6 399h86z" />
    <glyph glyph-name="numbersign" unicode="#" horiz-adv-x="1353" 
d="M512 979l-72 -516h414l74 516h-416zM1188 463v-74h-262l-56 -389h-84l56 389h-414l-53 -389h-84l55 389h-248v74h258l74 514h-266v76h278l52 381h86l-58 -381h414l55 381h84l-55 -381h233v-76h-243l-72 -514h250z" />
    <glyph glyph-name="dollar" unicode="$" horiz-adv-x="1236" 
d="M1092 383q0 -296 -274 -387q-75 -25 -165 -29v-172h-84v172q-141 6 -266 51t-176 105l43 76q104 -96 306 -136q202 -41 359 30q75 34 123 108t48 170t-48 171q-27 45 -112 94q-85 48 -208 80q-359 95 -419 175q-21 29 -45 67t-24 132q0 184 115 275q116 91 304 99v174h84
v-176q195 -10 383 -90l-32 -84q-157 88 -363 94q-107 4 -197 -18t-149 -92t-59 -178t73 -160q81 -56 229 -97q148 -42 221 -69q182 -66 247 -140q86 -98 86 -245z" />
    <glyph glyph-name="percent" unicode="%" horiz-adv-x="1634" 
d="M1202 645q-114 0 -182 -79q-68 -78 -68 -196q0 -217 117 -283q55 -32 131 -32q118 0 184 77q66 76 66 194q0 217 -117 286q-55 33 -131 33zM1206 717q108 0 180 -48q140 -93 140 -319q0 -166 -84 -266t-242 -100q-104 0 -178 48q-145 94 -144 321t146 318q74 46 182 46z
M434 1403q-156 0 -219 -137q-31 -68 -31 -158q0 -145 66 -220t182 -75t182 77t66 219t-66 218t-180 76zM328 0h-99l1053 1434h96zM109 1109q-1 167 83 267t244 99q160 1 240 -99t80 -267t-83 -267t-240 -100t-241 100t-83 267z" />
    <glyph glyph-name="ampersand" unicode="&#x26;" horiz-adv-x="1423" 
d="M184 362q0 -111 96 -215q46 -49 124 -79t176 -31q225 0 409 209l-481 481q-166 -57 -245 -136t-79 -229zM650 1399q-116 0 -200 -68t-83 -173q0 -105 41 -178t129 -167q287 85 360 207q33 55 33 125q4 117 -80 185t-200 69zM578 -41q-201 0 -339 118t-139 281
q0 220 160 332q76 53 191 96q-130 149 -157 261q-11 45 -11 96q0 137 102 234t266 97t265 -96q101 -98 98 -243t-117 -229q-113 -83 -309 -146l454 -451q86 105 146 251t74 269h79q-15 -143 -81 -300t-162 -275l239 -242l-57 -61l-238 239q-217 -231 -464 -231z" />
    <glyph glyph-name="quotesingle" unicode="'" horiz-adv-x="329" 
d="M207 1137h-74l-6 399h86z" />
    <glyph glyph-name="parenleft" unicode="(" horiz-adv-x="821" 
d="M223 567q0 -291 123 -495t365 -346l-37 -66q-535 300 -535 908t535 907l37 -68q-242 -139 -365 -344t-123 -496z" />
    <glyph glyph-name="parenright" unicode=")" horiz-adv-x="823" 
d="M682 568q0 -608 -532 -908l-39 66q255 147 371 354q116 208 116 488t-116 487t-369 352l37 68q532 -299 532 -907z" />
    <glyph glyph-name="asterisk" unicode="*" horiz-adv-x="886" 
d="M475 1176l221 143l39 -66l-237 -125l237 -120l-39 -70l-221 143l8 -264h-75l14 264l-229 -143l-39 68l243 122l-241 125l39 66l227 -143l-14 266h75z" />
    <glyph glyph-name="plus" unicode="+" horiz-adv-x="1310" 
d="M1167 594h-471v-471h-82v471h-471v82h471v471h82v-471h471v-82z" />
    <glyph glyph-name="comma" unicode="," horiz-adv-x="387" 
d="M173 131q28 0 48 -19t21 -44t-12 -50q-13 -26 -21 -46q-7 -20 -23 -52q-16 -33 -28 -59h-29l33 135q-23 2 -40 21t-18 46q0 27 20 47t49 21z" />
    <glyph glyph-name="hyphen" unicode="-" horiz-adv-x="788" 
d="M649 446h-512v80h512v-80z" />
    <glyph glyph-name="period" unicode="." horiz-adv-x="415" 
d="M208 113q28 1 45 -17t17 -44t-18 -45t-44 -19t-44 19t-18 45t16 44q18 18 46 17z" />
    <glyph glyph-name="slash" unicode="/" horiz-adv-x="905" 
d="M45 -348h-84l868 1982h84z" />
    <glyph glyph-name="zero" unicode="0" horiz-adv-x="1445" 
d="M721 1382q-238 0 -369 -173t-131 -492t131 -493t369 -173q238 0 371 174t133 492q0 430 -234 589q-112 76 -270 76zM1313 729q0 -360 -156 -560t-436 -200q-127 0 -229 43t-168 115q-188 205 -191 590q-1 347 153 547t423 200t427 -175q177 -200 177 -560z" />
    <glyph glyph-name="one" unicode="1" horiz-adv-x="759" 
d="M532 0h-86v1358l-358 -103l-25 76l469 133v-1464z" />
    <glyph glyph-name="two" unicode="2" horiz-adv-x="1163" 
d="M1018 80v-80h-928q0 175 70 274q27 39 48 67q79 101 365 241q50 24 106 54q144 76 228 212q73 112 45 270t-161 229q-136 70 -379 13q-113 -27 -213 -82l-35 70q223 117 444 116q132 0 232 -55t152 -151t52 -200q0 -103 -36 -192q-69 -173 -256 -278q-33 -18 -146 -72
q-206 -98 -308 -193q-101 -95 -124 -243h844z" />
    <glyph glyph-name="three" unicode="3" horiz-adv-x="1214" 
d="M586 1464q220 0 341 -110q122 -110 122 -281q-1 -106 -61 -191t-150 -110q110 -31 184 -129t74 -227q0 -215 -138 -331t-376 -116q-160 0 -304 51t-217 113l41 68q76 -57 197 -105t243 -47q122 -1 196 17q270 65 270 350q0 147 -94 232t-246 85h-234v80h236q145 0 218 77
t73 183q0 198 -160 270q-87 41 -210 41t-235 -24t-184 -64l-33 76q227 92 447 92z" />
    <glyph glyph-name="four" unicode="4" horiz-adv-x="1169" 
d="M1083 369h-200v-369h-86v369h-717q209 235 287 522q41 150 41 301h84q0 -219 -74 -414t-180 -329h559v1005h86v-1005h200v-80z" />
    <glyph glyph-name="five" unicode="5" horiz-adv-x="1255" 
d="M299 1354v-465q192 54 381 48t323 -112q134 -107 134 -343t-178 -387q-94 -79 -245 -111q-67 -14 -136 -15q-266 0 -465 133l37 80q176 -135 406 -135t362 119q131 119 131 319q0 156 -79 243t-165 110q-85 24 -152 24q-229 0 -436 -69v641h883v-80h-801z" />
    <glyph glyph-name="six" unicode="6" horiz-adv-x="1282" 
d="M642 51q196 0 311 118q116 118 116 303t-104 294t-273 108q-292 0 -418 -240q-33 -62 -45 -132q23 -227 120 -339t293 -112zM221 707v-43q61 141 191 214t284 72q213 0 337 -136t124 -343q0 -145 -72 -262q-73 -117 -187 -178t-251 -61q-276 -1 -393 183
q-117 185 -117 546q0 362 150 565t409 202q137 0 243 -49t202 -160l-54 -63q-67 92 -169 143t-224 52q-274 0 -393 -254q-80 -182 -80 -428z" />
    <glyph glyph-name="seven" unicode="7" horiz-adv-x="1132" 
d="M123 1434h928q-18 -307 -213 -564q-68 -90 -204 -244q-90 -104 -145 -231q-76 -168 -75 -395h-90q0 312 154 543q69 103 137 182q69 80 72 83t6 7t7 8q227 262 254 531h-831v80z" />
    <glyph glyph-name="eight" unicode="8" horiz-adv-x="1310" 
d="M1108 410q0 323 -453 323q-239 0 -347 -87q-108 -86 -108 -240t114 -252q112 -98 341 -105q229 7 341 105t112 256zM250 1073q0 -143 94 -201t312 -59q218 0 311 67q92 67 92 193q0 163 -117 237t-287 74q-236 4 -346 -130q-59 -72 -59 -181zM1196 416q0 -223 -150 -335
t-391 -112q-402 0 -510 262q-33 80 -32 185q0 139 88 238t219 118q-121 14 -190 98q-68 84 -68 196q1 293 319 377q85 21 197 21t221 -41t179 -132t69 -214t-69 -207t-191 -98q133 -18 221 -118t88 -238z" />
    <glyph glyph-name="nine" unicode="9" horiz-adv-x="1282" 
d="M640 1384q-196 0 -312 -118q-115 -118 -115 -302q0 -185 103 -294t274 -109q239 0 369 168q75 96 94 205q-23 226 -120 338t-293 112zM586 47q276 0 395 254q80 182 80 428v43q-61 -141 -191 -214t-284 -73q-213 1 -337 137t-124 343q0 145 72 262q73 117 187 178t247 61
q276 0 395 -181t119 -545t-150 -568q-150 -203 -409 -203q-137 0 -244 49t-203 160l56 64q88 -125 237 -171q74 -24 154 -24z" />
    <glyph glyph-name="colon" unicode=":" horiz-adv-x="440" 
d="M219 121q27 -1 45 -17t18 -43t-18 -46t-44 -19t-45 19t-19 46t18 43t45 17zM220 1028q28 0 48 -20t20 -48t-20 -48q-20 -19 -48 -19t-48 19t-20 47q0 29 20 49t48 20z" />
    <glyph glyph-name="semicolon" unicode=";" horiz-adv-x="401" 
d="M113 63q0 27 20 47t52 21q32 -1 48 -25q17 -24 17 -36t-3 -24q-3 -11 -8 -22t-18 -40t-29 -64t-26 -59h-31l35 135q-25 2 -41 21t-16 46zM181 1028q28 0 48 -20q21 -20 21 -41q1 -51 -43 -69q-12 -5 -33 -5t-41 19t-20 47q0 29 20 49t48 20z" />
    <glyph glyph-name="less" unicode="&#x3c;" horiz-adv-x="1390" 
d="M330 637l880 -397v-95l-1087 492l1087 469v-90z" />
    <glyph glyph-name="equal" unicode="=" horiz-adv-x="1378" 
d="M1202 410h-1024v82h1024v-82zM1202 819h-1024v82h1024v-82z" />
    <glyph glyph-name="greater" unicode="&#x3e;" horiz-adv-x="1390" 
d="M1268 637l-1088 -492v95l887 397l-885 381v88z" />
    <glyph glyph-name="question" unicode="?" horiz-adv-x="1042" 
d="M377 70q-1 34 33 52q16 8 40 9q24 0 44 -18t20 -47q0 -30 -20 -50t-48 -20t-49 20q-20 20 -20 54zM940 1079q0 -266 -286 -344q-77 -20 -162 -20v-365h-86v430q212 0 330 73t118 225q0 295 -365 311q-204 -7 -405 -91l-29 76q231 86 437 92q216 0 332 -106t116 -281z" />
    <glyph glyph-name="at" unicode="@" horiz-adv-x="2029" 
d="M1075 985q-186 0 -301 -119q-114 -119 -142 -294q-28 -174 41 -286t242 -112q119 0 207 46t140 108q2 32 8 67l76 436q-37 70 -108 112t-163 42zM1839 668q0 145 -64 281q-133 279 -436 401q-154 61 -323 61q-229 0 -419 -109q-189 -110 -298 -300t-109 -421t109 -419
t303 -297t446 -109t488 144l39 -58q-252 -154 -543 -153q-192 1 -362 71t-291 191t-191 285t-69 346q0 242 119 448t325 327q207 122 453 122q184 0 351 -67q329 -132 472 -438q70 -148 70 -314q0 -354 -185 -499q-92 -73 -223 -73q-209 0 -237 156q-60 -64 -158 -104
t-220 -40t-214 69q-179 134 -129 400q35 209 176 351t341 141q200 0 302 -131l16 92h86q-98 -549 -104 -602q-23 -184 33 -230q39 -31 129 -30q156 0 236 139t81 369z" />
    <glyph glyph-name="A" unicode="A" horiz-adv-x="1495" 
d="M1096 502l-348 780l-347 -780h695zM1130 422h-765l-187 -422h-100l670 1475l669 -1475h-98z" />
    <glyph glyph-name="B" unicode="B" horiz-adv-x="1253" 
d="M295 82h289q231 0 343 77t111 247q0 94 -41 155q-91 135 -422 135h-280v-614zM295 776h276q156 0 271 66q116 66 114 223q0 287 -424 287h-237v-576zM209 1434h356q223 0 351 -97t126 -268q0 -256 -229 -319q311 -53 311 -344q0 -202 -132 -304t-371 -102h-412v1434z" />
    <glyph glyph-name="C" unicode="C" horiz-adv-x="1509" 
d="M856 -31q-301 0 -473 153q-238 211 -238 578q1 367 191 566t506 198q176 0 332 -74t256 -214l-64 -52q-84 115 -223 187q-139 71 -317 71t-314 -80q-137 -80 -208 -229q-71 -150 -71 -356q0 -301 162 -483t447 -183q209 0 387 131q80 59 133 135l68 -55
q-104 -141 -260 -217t-314 -76z" />
    <glyph glyph-name="D" unicode="D" horiz-adv-x="1464" 
d="M295 82h285q297 0 474 163t177 460t-169 472t-482 175h-285v-1270zM209 1434h371q180 0 322 -56q270 -106 370 -381q47 -129 47 -293t-56 -304q-105 -259 -393 -355q-133 -45 -290 -45h-371v1434z" />
    <glyph glyph-name="E" unicode="E" horiz-adv-x="1161" 
d="M295 1354v-576h684v-80h-684v-618h741v-80h-827v1434h827v-80h-741z" />
    <glyph glyph-name="F" unicode="F" horiz-adv-x="1122" 
d="M295 1354v-576h678v-82h-678v-696h-86v1434h821v-80h-735z" />
    <glyph glyph-name="G" unicode="G" horiz-adv-x="1601" 
d="M881 758h549v-496q-146 -199 -352 -260q-108 -33 -256 -33q-148 -1 -282 61q-249 114 -350 406q-45 133 -45 293t56 303q105 272 372 381q125 51 267 51q383 0 590 -288l-68 -52q-76 117 -212 189t-310 71q-266 0 -436 -180t-171 -487q1 -152 49 -279q93 -242 323 -342
q110 -47 235 -47q328 0 503 240v389h-462v80z" />
    <glyph glyph-name="H" unicode="H" horiz-adv-x="1480" 
d="M1274 1434v-1434h-86v676h-893v-676h-86v1434h86v-676h893v676h86z" />
    <glyph glyph-name="I" unicode="I" horiz-adv-x="530" 
d="M309 0h-86v1434h86v-1434z" />
    <glyph glyph-name="J" unicode="J" horiz-adv-x="1067" 
d="M879 1434v-1026q0 -438 -457 -439q-242 0 -381 166l53 72q49 -70 134 -114t194 -44q174 0 272 83t99 278v1024h86z" />
    <glyph glyph-name="K" unicode="K" horiz-adv-x="1298" 
d="M295 0h-86v1434h86v-859l725 859h106l-571 -662l666 -772h-113l-606 709l-207 -242v-467z" />
    <glyph glyph-name="L" unicode="L" horiz-adv-x="1107" 
d="M1030 80v-80h-821v1434h86v-1354h735z" />
    <glyph glyph-name="M" unicode="M" horiz-adv-x="1726" 
d="M1520 0h-86v1249l-570 -688l-569 688v-1249h-86v1475l655 -791l656 791v-1475z" />
    <glyph glyph-name="N" unicode="N" horiz-adv-x="1515" 
d="M295 0h-86v1475l1012 -1278v1237h86v-1475l-1012 1276v-1235z" />
    <glyph glyph-name="O" unicode="O" horiz-adv-x="1720" 
d="M860 1384q-188 0 -330 -81q-141 -82 -219 -234q-78 -153 -78 -353t81 -352q82 -152 224 -234q142 -81 322 -81q274 0 451 182q176 181 176 485t-172 486t-455 182zM859 1464q171 0 309 -60q262 -114 361 -404q46 -134 46 -296t-56 -304q-106 -271 -382 -381
q-129 -50 -305 -50t-336 86t-255 258t-96 404q0 307 180 522q87 105 225 165t309 60z" />
    <glyph glyph-name="P" unicode="P" horiz-adv-x="1136" 
d="M293 612h223q233 0 336 89q102 89 102 268t-120 282t-441 103h-100v-742zM207 1434h229q604 0 604 -467q0 -434 -514 -435h-233v-532h-86v1434z" />
    <glyph glyph-name="Q" unicode="Q" horiz-adv-x="1710" 
d="M860 49q274 0 451 182q176 182 176 486q0 201 -78 353t-220 233q-141 81 -329 81t-330 -81q-141 -82 -219 -234q-78 -153 -78 -353t81 -352q82 -152 224 -234q142 -81 322 -81zM846 -31q-190 0 -350 86t-255 258t-96 404q0 307 180 522q87 105 225 165t309 60t309 -60
q262 -114 361 -404q46 -134 46 -283q0 -219 -86 -383t-236 -258l115 -197l-74 -43l-112 201q-147 -68 -336 -68z" />
    <glyph glyph-name="R" unicode="R" 
d="M295 571h121q264 -2 402 84t138 301q0 216 -139 308t-401 88h-121v-781zM209 1434h250q281 0 433 -119t150 -359q0 -340 -307 -432l305 -524h-102l-289 504q-74 -12 -162 -12h-192v-492h-86v1434z" />
    <glyph glyph-name="S" unicode="S" horiz-adv-x="1214" 
d="M139 1090q1 126 57 210t149 121q188 75 448 23q120 -25 233 -72l-33 -84q-157 88 -362 94q-107 4 -197 -18t-149 -92t-59 -177t73 -161q81 -56 229 -97q148 -42 221 -69q183 -67 246 -140q88 -100 87 -232q-2 -252 -164 -350q-217 -129 -541 -52q-88 20 -158 55t-102 74
l43 76q104 -96 306 -136q202 -41 358 30q75 34 123 108t48 170t-46 172q-46 75 -204 134q-96 34 -218 67q-123 33 -209 75q-86 41 -108 71q-55 73 -63 115t-8 85z" />
    <glyph glyph-name="T" unicode="T" horiz-adv-x="1243" 
d="M1165 1354h-499v-1354h-86v1354h-502v80h1087v-80z" />
    <glyph glyph-name="U" unicode="U" horiz-adv-x="1540" 
d="M1354 1434v-813q0 -313 -148 -483t-438 -169q-291 0 -436 168t-146 481v816h86v-799q0 -285 123 -435t374 -151q251 0 375 151t124 435v799h86z" />
    <glyph glyph-name="V" unicode="V" horiz-adv-x="1460" 
d="M1382 1434l-651 -1495l-653 1495h98l555 -1280l553 1280h98z" />
    <glyph glyph-name="W" unicode="W" horiz-adv-x="2125" 
d="M1503 -61l-438 1269l-442 -1269l-533 1495h96l439 -1246l440 1266l438 -1266l436 1246h97z" />
    <glyph glyph-name="X" unicode="X" horiz-adv-x="1392" 
d="M1202 0l-506 682l-503 -682h-107l555 745l-508 689h109l456 -623l455 623h109l-512 -686l559 -748h-107z" />
    <glyph glyph-name="Y" unicode="Y" horiz-adv-x="1259" 
d="M672 0h-86v606l-535 828h101l477 -736l479 736h100l-536 -828v-606z" />
    <glyph glyph-name="Z" unicode="Z" horiz-adv-x="1474" 
d="M1325 84v-84h-1194l1036 1350h-944v84h1112l-1034 -1350h1024z" />
    <glyph glyph-name="bracketleft" unicode="[" horiz-adv-x="794" 
d="M688 1399h-405v-1671h405v-76h-489v1823h489v-76z" />
    <glyph glyph-name="backslash" unicode="\" horiz-adv-x="911" 
d="M950 -348h-92l-868 1982h92z" />
    <glyph glyph-name="bracketright" unicode="]" horiz-adv-x="778" 
d="M580 -348h-474v76h390v1671h-390v76h474v-1823z" />
    <glyph glyph-name="asciicircum" unicode="^" horiz-adv-x="1038" 
d="M784 1010l-264 346l-270 -346h-92l360 469l363 -469h-97z" />
    <glyph glyph-name="underscore" unicode="_" horiz-adv-x="1302" 
d="M1307 -291h-1311v74h1311v-74z" />
    <glyph glyph-name="grave" unicode="`" horiz-adv-x="325" 
d="M242 1341h-88l-238 297h96z" />
    <glyph glyph-name="a" unicode="a" horiz-adv-x="1060" 
d="M490 602q-160 0 -232 -73t-72 -201t78 -208q78 -79 205 -79q87 0 183 44t159 122v336q-161 59 -321 59zM614 1051q162 0 222 -90q59 -90 59 -246v-715h-80q-4 57 -4 117q-55 -61 -153 -107t-195 -45q-172 1 -267 105q-96 104 -96 248t84 251t269 107q184 0 358 -55v102
q0 131 -44 190t-155 60q-184 0 -379 -88l-30 71q100 43 214 69q113 26 197 26z" />
    <glyph glyph-name="b" unicode="b" horiz-adv-x="1165" 
d="M594 39q168 0 266 123t98 343t-97 344t-267 124q-100 1 -188 -53t-136 -136v-559q48 -76 138 -131t186 -55zM270 1475v-584q141 156 343 156t318 -150q116 -151 116 -393t-116 -392q-115 -150 -317 -149q-202 0 -344 150q0 -53 -4 -113h-82v1475h86z" />
    <glyph glyph-name="c" unicode="c" horiz-adv-x="1093" 
d="M637 -37q-174 0 -293 68q-229 131 -229 483q0 262 131 406t391 145q141 0 267 -61q65 -31 104 -70l-35 -72q-55 49 -147 87t-193 38q-203 0 -318 -118q-115 -117 -115 -355t116 -356q114 -118 317 -117q101 0 193 38t147 87l35 -72q-57 -57 -166 -94t-205 -37z" />
    <glyph glyph-name="d" unicode="d" horiz-adv-x="1165" 
d="M571 973q-170 0 -266 -124t-96 -344t97 -343t265 -123q95 0 187 55t137 131v559q-67 115 -192 163q-65 26 -132 26zM981 1475v-1475h-80q-4 59 -6 113q-141 -150 -343 -150t-318 150q-116 151 -116 393t116 392t318 149q202 0 343 -156v584h86z" />
    <glyph glyph-name="e" unicode="e" 
d="M199 520h782q-8 451 -385 451q-184 0 -290 -124t-107 -327zM981 74q-159 -111 -373 -111q-110 0 -212 46q-183 82 -252 296q-30 94 -29 201q0 248 135 394t346 147q475 -1 475 -601h-870q14 -180 124 -294t285 -113q175 0 334 108z" />
    <glyph glyph-name="f" unicode="f" horiz-adv-x="731" 
d="M348 1051v-27h381v-78h-381v-946h-86v946h-184v78h184v18q0 294 58 373t152 90q94 10 257 -24v-82q-166 31 -208 28q-80 -7 -111 -38q-30 -30 -38 -67q-24 -104 -24 -271z" />
    <glyph glyph-name="g" unicode="g" horiz-adv-x="1165" 
d="M571 985q-168 0 -265 -124t-97 -344t96 -343t266 -123q99 -1 187 53t137 136v559q-45 76 -136 131t-188 55zM981 1024v-950q0 -232 -31 -323q-30 -91 -72 -131q-88 -85 -270 -85t-322 64q-71 31 -110 67l39 72q162 -127 387 -127q92 -1 150 21t89 73q32 51 43 119t11 176
v133q-139 -156 -328 -156q-145 0 -249 72q-199 139 -199 467q-1 246 115 396t318 149q202 0 343 -150q2 53 6 113h80z" />
    <glyph glyph-name="h" unicode="h" horiz-adv-x="1153" 
d="M270 1475v-584q64 70 164 115t203 45q170 1 260 -103t90 -270v-678h-86v668q0 137 -68 216q-131 150 -373 53q-110 -44 -190 -130v-807h-86v1475h86z" />
    <glyph glyph-name="i" unicode="i" horiz-adv-x="501" 
d="M293 0h-86v1024h86v-1024zM251 1440q26 0 44 -18t18 -45q0 -26 -18 -44t-44 -18t-44 18q-19 18 -19 44q0 27 18 45t45 18z" />
    <glyph glyph-name="j" unicode="j" horiz-adv-x="661" 
d="M451 1024v-1024q0 -245 -28 -325q-27 -80 -57 -110t-103 -46t-279 24v82q168 -37 218 -33q105 8 132 80q27 71 31 166q4 96 4 162v1024h82zM411 1440q26 0 44 -18t18 -45q0 -26 -18 -44t-44 -18t-44 18t-19 44q0 27 18 45t45 18z" />
    <glyph glyph-name="k" unicode="k" horiz-adv-x="1030" 
d="M270 0h-86v1475h86v-1090l518 639h107l-375 -459l447 -565h-113l-387 500l-197 -242v-258z" />
    <glyph glyph-name="l" unicode="l" horiz-adv-x="475" 
d="M281 0h-84v1475h84v-1475z" />
    <glyph glyph-name="m" unicode="m" horiz-adv-x="1695" 
d="M184 1024h80q4 -76 6 -133q152 160 330 160q207 0 270 -158q141 158 349 158q305 0 305 -373v-678h-86v670q0 286 -211 297q-59 12 -157 -19t-167 -108v-840h-86v670q0 143 -45 217t-172 80q-45 14 -150 -25t-180 -139v-803h-86v1024z" />
    <glyph glyph-name="n" unicode="n" horiz-adv-x="1153" 
d="M184 1024h80q4 -37 6 -133q64 70 164 115t203 45q170 1 260 -103t90 -270v-678h-86v668q0 137 -68 216q-131 150 -373 53q-110 -44 -190 -130v-807h-86v1024z" />
    <glyph glyph-name="o" unicode="o" horiz-adv-x="1226" 
d="M614 971q-196 0 -306 -126t-110 -339t110 -341t306 -128t305 128q108 128 107 341q0 213 -107 339q-108 126 -305 126zM113 511q0 251 137 393q136 142 370 143t364 -147t130 -394t-130 -394t-371 -148t-371 148t-129 399z" />
    <glyph glyph-name="p" unicode="p" horiz-adv-x="1167" 
d="M596 49q170 0 266 123t96 343t-97 343t-265 125q-96 0 -186 -55t-140 -131v-561q50 -82 138 -134t188 -53zM186 1024h82q2 -61 4 -115q141 152 328 152q217 -2 333 -153q116 -152 116 -394t-116 -392q-115 -150 -317 -149q-202 0 -346 156v-543h-84v1438z" />
    <glyph glyph-name="q" unicode="q" horiz-adv-x="1165" 
d="M571 985q-168 0 -265 -124t-97 -344t96 -343t266 -123q99 0 187 53t137 136v559q-45 76 -136 131t-188 55zM981 1024v-1436h-86v543q-139 -156 -343 -156t-319 150q-115 151 -115 393t116 392t318 151q202 0 343 -152q2 57 6 115h80z" />
    <glyph glyph-name="r" unicode="r" horiz-adv-x="706" 
d="M270 0h-86v1024h80l4 -104q211 199 391 77l-26 -79q-80 61 -178 36t-185 -131v-823z" />
    <glyph glyph-name="s" unicode="s" horiz-adv-x="958" 
d="M665 101q87 54 87 188q0 182 -299 239q-215 36 -272 95q-56 59 -56 151q0 125 92 200t231 75q212 0 375 -97l-32 -71q-63 39 -157 67t-152 27q-185 0 -248 -95q-28 -42 -28 -86t11 -75q10 -32 37 -49q26 -16 40 -24t46 -15q31 -8 46 -11q15 -2 53 -10t55 -12
q342 -66 342 -298q0 -118 -50 -192q-93 -138 -305 -137q-135 -1 -235 45t-158 109l47 70q57 -74 151 -111t193 -37t186 54z" />
    <glyph glyph-name="t" unicode="t" horiz-adv-x="835" 
d="M356 944v-518q0 -207 33 -287t117 -87t231 24v-82q-200 -40 -292 -18q-54 13 -86 43q-69 64 -81 220q-7 75 -8 187v518h-184v80h184v451h86v-451h381v-80h-381z" />
    <glyph glyph-name="u" unicode="u" horiz-adv-x="1150" 
d="M965 1024v-1024h-80q-4 35 -6 135q-90 -99 -229 -140q-71 -22 -140 -24q-168 3 -258 105t-86 268v680h86v-670q0 -112 44 -186q78 -132 270 -117q83 6 166 51t145 117v805h88z" />
    <glyph glyph-name="v" unicode="v" horiz-adv-x="1120" 
d="M1040 1024l-460 -1085l-502 1085h100l400 -883l368 883h94z" />
    <glyph glyph-name="w" unicode="w" horiz-adv-x="1738" 
d="M1221 -61l-353 890l-352 -890l-424 1085h98l328 -866l350 886l349 -886l329 866h99z" />
    <glyph glyph-name="x" unicode="x" horiz-adv-x="1013" 
d="M831 0l-325 449l-326 -449h-104l377 524l-365 500h107l311 -430l313 430h105l-363 -504l377 -520h-107z" />
    <glyph glyph-name="y" unicode="y" horiz-adv-x="1116" 
d="M1036 1024l-473 -1120q-78 -191 -146 -279q-40 -49 -85 -63q-92 -28 -246 28l31 86q91 -42 131 -38q42 4 64 9t46 31q61 68 114 209q15 39 44 113l-389 1024h98l340 -913l375 913h96z" />
    <glyph glyph-name="z" unicode="z" horiz-adv-x="983" 
d="M862 78v-78h-768l649 946h-600v78h748l-645 -946h616z" />
    <glyph glyph-name="braceleft" unicode="{" horiz-adv-x="960" 
d="M461 125q0 -188 74 -265t303 -128l-15 -72q-347 66 -414 232q-32 81 -32 148v169q0 226 -127 301q-49 29 -115 29h-33v77h33q152 0 210 146q32 81 32 229t10 199q31 160 205 237q92 41 231 68l15 -72q-229 -49 -303 -127t-74 -283t-46 -306q-46 -102 -149 -129
q184 -54 194 -372q1 -32 1 -81z" />
    <glyph glyph-name="bar" unicode="|" horiz-adv-x="567" 
d="M324 -348h-80v1986h80v-1986z" />
    <glyph glyph-name="braceright" unicode="}" horiz-adv-x="962" 
d="M586 999v-53q0 -226 127 -301q49 -29 114 -29h33v-77h-33q-130 0 -186 -98q-55 -98 -55 -232v-55q0 -37 2 -90t-11 -101q-31 -125 -113 -183t-166 -81q-85 -24 -159 -39l-16 72q211 56 273 101q61 45 78 95q30 88 30 172q0 134 7 212t39 140q31 62 66 87t80 39
q-171 47 -189 334q-3 48 -3 155t-28 159t-53 78q-26 26 -83 53t-215 66l14 72q283 -54 374 -166q45 -55 55 -103q12 -50 16 -84t3 -70t-1 -73z" />
    <glyph glyph-name="asciitilde" unicode="~" horiz-adv-x="1421" 
d="M1196 854l64 -35q-36 -63 -78 -112q-42 -48 -70 -61t-48 -23q-21 -10 -74 -8q-52 3 -111 20q-60 18 -116 38t-162 57q-107 37 -146 36q-39 -2 -73 -6q-72 -9 -161 -135l-59 34q67 102 112 131q44 30 75 45t102 13q70 -3 134 -25q107 -37 119 -42t15 -5q238 -88 302 -78
t126 88q6 9 49 68z" />
    <glyph glyph-name="exclamdown" unicode="&#xa1;" horiz-adv-x="468" 
d="M272 -410h-77v1084h77v-1084zM228 1028q72 0 71 -72q0 -20 -18 -37q-17 -17 -45 -17t-46 18t-18 44t18 45t38 19z" />
    <glyph glyph-name="cent" unicode="&#xa2;" horiz-adv-x="1107" 
d="M670 -205h-86v170q-225 21 -339 163t-114 386t114 386t339 163v172h86v-170q94 -4 196 -40t158 -91l-35 -72q-55 49 -146 87t-194 38q-205 0 -319 -118q-114 -117 -113 -355q0 -238 114 -356t318 -117q101 0 193 38t147 87l35 -72q-56 -55 -158 -91t-196 -40v-168z" />
    <glyph glyph-name="sterling" unicode="&#xa3;" horiz-adv-x="1212" 
d="M1112 80v-80h-975v80q236 0 236 215v401h-236v80h236v299q0 129 50 218t127 129q157 81 357 48q90 -14 164 -47l-31 -82q-29 24 -98 39q-122 25 -223 13t-182 -87q-80 -75 -78 -231v-299h325v-80h-325v-393q0 -156 -90 -223h743z" />
    <glyph glyph-name="yen" unicode="&#xa5;" horiz-adv-x="1255" 
d="M1010 668v-74h-338v-213h338v-74h-338v-307h-86v307h-346v74h346v213h-346v74h346l-535 766h99l479 -686l479 686h96l-532 -766h338z" />
    <glyph glyph-name="brokenbar" unicode="&#xa6;" horiz-adv-x="567" 
d="M324 -348h-80v676h80v-676zM324 963h-80v675h80v-675z" />
    <glyph glyph-name="section" unicode="&#xa7;" horiz-adv-x="1243" 
d="M510 741q-76 0 -140 -15t-105 -56q-40 -41 -40 -101q0 -135 320 -231q137 -41 313 7q70 19 115 65t45 99q0 98 -122 148q-195 84 -386 84zM308 1283q-60 -65 -60 -166t80 -167t146 -87t96 -29t58 -16t76 -18q237 -56 318 -122q82 -66 82 -166t-86 -166t-223 -84
q287 -117 286 -348q0 -133 -87 -221q-162 -164 -506 -131q-155 14 -293 67l30 80q140 -69 374 -69q233 0 337 111q59 65 59 166t-82 171q-82 71 -161 102q-78 32 -168 58q-225 59 -335 134t-110 187q0 193 250 234q-227 100 -227 317q0 135 87 223q158 160 508 131
q155 -14 292 -69l-29 -80q-131 73 -368 72t-344 -114z" />
    <glyph glyph-name="dieresis" unicode="&#xa8;" horiz-adv-x="468" 
d="M406 1516q27 0 45 -20t18 -36q0 -53 -44 -68q-9 -3 -21 -3q-40 0 -57 37q-5 11 -5 31q0 19 18 39t46 20zM63 1516q27 0 45 -20t19 -45q0 -26 -18 -44q-17 -18 -45 -18t-46 18t-18 44q0 25 18 45t45 20z" />
    <glyph glyph-name="copyright" unicode="&#xa9;" horiz-adv-x="1699" 
d="M492 718q0 186 92 286q92 102 272 102q74 0 152 -26t118 -68l-34 -62q-94 86 -238 86q-287 0 -287 -319q0 -208 130 -283q65 -37 157 -37q152 0 240 84l32 -59q-40 -41 -118 -68t-152 -26q-180 0 -272 102t-92 288zM851 1389q-187 -1 -342 -91t-242 -244t-87 -338
q0 -183 87 -337t241 -244t341 -90t342 90t242 245t87 338t-87 337t-241 244t-341 90zM853 1458q310 0 524 -216t214 -522t-217 -525t-527 -219t-524 215q-214 217 -214 523t217 525t527 219z" />
    <glyph glyph-name="guillemotleft" unicode="&#xab;" horiz-adv-x="1026" 
d="M903 932l-266 -422l266 -428l-72 -39l-303 467l303 461zM471 932l-266 -422l266 -426l-72 -41l-303 467l303 461z" />
    <glyph glyph-name="registered" unicode="&#xae;" horiz-adv-x="839" 
d="M358 1096h35q74 0 106 17q31 17 31 67t-34 69q-35 18 -103 19h-35v-172zM313 1311h93q169 0 169 -129q0 -80 -71 -113l82 -143h-51l-72 131q-25 -4 -49 -4h-56v-127h-45v385zM419 799q132 0 223 94t91 225t-90 223q-90 93 -222 93t-223 -94q-92 -94 -92 -224
q0 -131 90 -224t223 -93zM422 1475q148 -1 251 -105t103 -252t-104 -254t-253 -106t-252 105t-103 253t104 253q106 106 254 106z" />
    <glyph glyph-name="macron" unicode="&#xaf;" horiz-adv-x="743" 
d="M743 1421h-743v74h743v-74z" />
    <glyph glyph-name="degree" unicode="&#xb0;" horiz-adv-x="813" 
d="M409 1606q-81 0 -135 -56t-55 -135q0 -80 54 -135t121 -55q128 0 179 93q25 44 25 110t-54 122t-135 56zM407 1153q-103 0 -182 78q-78 78 -78 183t81 184q82 79 182 79t176 -76t77 -184t-76 -186t-180 -78z" />
    <glyph glyph-name="plusminus" unicode="&#xb1;" horiz-adv-x="1325" 
d="M150 82h1024v-82h-1024v82zM1174 823v-82h-472v-407h-81v407h-471v82h471v406h81v-406h472z" />
    <glyph glyph-name="acute" unicode="&#xb4;" horiz-adv-x="346" 
d="M172 1341h-88l246 297h100z" />
    <glyph glyph-name="paragraph" unicode="&#xb6;" horiz-adv-x="1138" 
d="M936 1434v-1434h-86v481h-188q-355 0 -491 207q-69 104 -69 254q0 209 154 350t406 142h274z" />
    <glyph glyph-name="periodcentered" unicode="&#xb7;" horiz-adv-x="415" 
d="M209 721q27 -1 45 -19t18 -45t-18 -45t-45 -18t-45 18t-19 45q1 27 19 45t45 19z" />
    <glyph glyph-name="cedilla" unicode="&#xb8;" horiz-adv-x="419" 
d="M352 -250q0 94 -78 94q-42 0 -86 -37l-61 21l68 172h67l-47 -113q27 21 80 21t89 -46t36 -104q0 -114 -96 -167q-49 -26 -117 -25q-131 0 -207 61l25 66q76 -59 162 -59q165 0 165 116z" />
    <glyph glyph-name="guillemotright" unicode="&#xbb;" horiz-adv-x="1026" 
d="M930 510l-303 -467l-72 39l266 428l-266 422l72 39zM498 510l-303 -467l-72 39l266 428l-266 422l72 39z" />
    <glyph glyph-name="questiondown" unicode="&#xbf;" horiz-adv-x="1042" 
d="M551 776h86v-430q-209 0 -329 -73t-120 -225q0 -294 365 -310q206 6 405 90l29 -76q-231 -86 -436 -92q-213 0 -330 106t-119 281q0 96 39 169q68 128 247 175q77 20 163 21v364zM598 995q-29 1 -48 19t-20 47q0 29 20 49t49 20q28 0 48 -20q21 -20 21 -49t-20 -47
t-50 -19z" />
    <glyph glyph-name="Agrave" unicode="&#xc0;" horiz-adv-x="1495" 
d="M1096 502l-348 780l-347 -780h695zM1130 422h-765l-187 -422h-100l670 1475l669 -1475h-98zM713 1546l-240 297h98l230 -297h-88z" />
    <glyph glyph-name="Aacute" unicode="&#xc1;" horiz-adv-x="1495" 
d="M748 1282l-347 -780h695zM365 422l-187 -422h-100l670 1475l669 -1475h-98l-189 422h-765zM750 1546h-86l245 297h101z" />
    <glyph glyph-name="Acircumflex" unicode="&#xc2;" horiz-adv-x="1495" 
d="M748 1282l-347 -780h695zM365 422l-187 -422h-100l670 1475l669 -1475h-98l-189 422h-765zM1067 1546h-88l-231 232l-234 -232h-88l279 297h83z" />
    <glyph glyph-name="Atilde" unicode="&#xc3;" horiz-adv-x="1495" 
d="M748 1282l-347 -780h695zM365 422l-187 -422h-100l670 1475l669 -1475h-98l-189 422h-765zM1081 1776l49 -33q-68 -140 -134 -163q-28 -9 -46 -12q-49 -8 -176 40q-25 8 -37 12q-135 57 -198 49t-115 -102l-51 32q56 104 107 126q32 13 66 21t89 -10q54 -18 84 -29
t58 -21q27 -10 51 -20t56 -16t44 -10t34 4t41 25q19 18 36 44t42 63z" />
    <glyph glyph-name="Adieresis" unicode="&#xc4;" horiz-adv-x="1495" 
d="M748 1282l-347 -780h695zM365 422l-187 -422h-100l670 1475l669 -1475h-98l-189 422h-765zM923 1720q26 0 44 -19t18 -45t-18 -44t-44 -18t-44 18q-19 18 -19 44t18 45t45 19zM582 1720q27 0 45 -19t18 -45t-18 -44t-45 -18t-45 18q-19 18 -19 44t18 45t46 19z" />
    <glyph glyph-name="Aring" unicode="&#xc5;" horiz-adv-x="1495" 
d="M1096 502l-348 780l-347 -780h695zM616 1661q0 -55 40 -95t86 -40t78 18q63 37 64 117q1 79 -65 117q-31 18 -77 18t-86 -40t-40 -95zM549 1664q0 81 60 140q61 60 143 60t140 -60t58 -143q0 -84 -57 -142t-137 -61l661 -1458h-98l-189 422h-765l-187 -422h-100l661 1458
q-78 4 -134 64t-56 142z" />
    <glyph glyph-name="AE" unicode="&#xc6;" horiz-adv-x="1841" 
d="M940 502v796l-520 -796h520zM1026 1354v-578h678v-80h-678v-616h735v-80h-821v422h-573l-275 -422h-96l944 1434h821v-80h-735z" />
    <glyph glyph-name="Ccedilla" unicode="&#xc7;" horiz-adv-x="1509" 
d="M233 717q0 -301 162 -483t447 -183q156 0 297 75t223 191l68 -55q-98 -135 -244 -210t-312 -83l-38 -92q24 21 78 21t90 -46t36 -118t-56 -125t-172 -53t-191 61l24 66q76 -59 162 -59q166 -1 166 116q1 38 -19 66t-61 28t-84 -37l-64 21l62 151q-170 6 -300 71t-207 170
q-155 211 -155 507q1 350 191 549t506 198q176 0 332 -74t256 -214l-64 -52q-113 156 -313 225q-102 34 -211 33q-193 0 -330 -80t-208 -229q-71 -150 -71 -356z" />
    <glyph glyph-name="Egrave" unicode="&#xc8;" horiz-adv-x="1161" 
d="M295 778h684v-80h-684v-618h741v-80h-827v1434h827v-80h-741v-576zM702 1546h-86l-239 297h98z" />
    <glyph glyph-name="Eacute" unicode="&#xc9;" horiz-adv-x="1161" 
d="M295 1354v-576h684v-80h-684v-618h741v-80h-827v1434h827v-80h-741zM623 1546h-86l245 297h101z" />
    <glyph glyph-name="Ecircumflex" unicode="&#xca;" horiz-adv-x="1161" 
d="M295 778h684v-80h-684v-618h741v-80h-827v1434h827v-80h-741v-576zM940 1546h-90l-229 232l-234 -232h-90l281 297h84z" />
    <glyph glyph-name="Edieresis" unicode="&#xcb;" horiz-adv-x="1161" 
d="M295 778h684v-80h-684v-618h741v-80h-827v1434h827v-80h-741v-576zM795 1720q27 0 45 -19t18 -45t-18 -44t-45 -18t-45 18t-18 44t18 45t45 19zM389 1662q-1 20 19 39t50 19t44 -23t14 -45t-24 -46t-64 -7q-39 17 -39 63z" />
    <glyph glyph-name="Igrave" unicode="&#xcc;" horiz-adv-x="530" 
d="M223 0v1434h86v-1434h-86zM350 1546h-86l-239 297h96z" />
    <glyph glyph-name="Iacute" unicode="&#xcd;" horiz-adv-x="530" 
d="M309 0h-86v1434h86v-1434zM285 1546h-88l245 297h101z" />
    <glyph glyph-name="Icircumflex" unicode="&#xce;" horiz-adv-x="530" 
d="M223 0v1434h86v-1434h-86zM588 1546h-90l-230 232l-233 -232h-90l280 297h82z" />
    <glyph glyph-name="Idieresis" unicode="&#xcf;" horiz-adv-x="530" 
d="M223 0v1434h86v-1434h-86zM397 1701q18 19 49 19t46 -23q14 -23 14 -45t-18 -40t-38 -18q-48 -1 -66 37q-5 11 -5 31t18 39zM100 1720q27 0 45 -19q19 -19 19 -45t-18 -44t-46 -18q-27 0 -45 18t-18 44t18 45t45 19z" />
    <glyph glyph-name="Eth" unicode="&#xd0;" horiz-adv-x="1464" 
d="M295 82h285q297 0 474 163t177 460t-169 472t-482 175h-285v-596h428v-80h-428v-594zM209 1434h371q180 0 322 -56q270 -106 370 -381q47 -129 47 -293t-56 -304q-105 -259 -393 -355q-133 -45 -290 -45h-371v1434z" />
    <glyph glyph-name="Ntilde" unicode="&#xd1;" horiz-adv-x="1515" 
d="M295 0h-86v1475l1012 -1276v1235h86v-1475l-1012 1276v-1235zM1100 1776l49 -33q-68 -140 -134 -163q-28 -9 -46 -12t-62 6t-91 25q-46 17 -60 21q-133 57 -198 49t-116 -102l-51 32q56 105 108 126q32 13 66 21t89 -10q54 -18 84 -29t58 -21t51 -20t55 -16t44 -10t34 4
t39 22q17 15 37 44q19 29 44 66z" />
    <glyph glyph-name="Ograve" unicode="&#xd2;" horiz-adv-x="1720" 
d="M859 1384q-187 0 -329 -81q-141 -82 -219 -234q-78 -153 -78 -353t81 -352q82 -152 224 -234q142 -81 322 -81q274 0 451 182q176 182 176 486q0 201 -78 353t-220 233q-143 81 -330 81zM859 1464q171 0 309 -60q262 -114 361 -404q46 -134 46 -296t-56 -304
q-106 -271 -382 -381q-129 -50 -305 -50t-336 86t-255 258t-96 404q0 307 180 522q87 105 225 165t309 60zM911 1546h-86l-239 297h98z" />
    <glyph glyph-name="Oacute" unicode="&#xd3;" horiz-adv-x="1720" 
d="M860 1384q-188 0 -330 -81q-141 -82 -219 -234q-78 -153 -78 -353t81 -352q82 -152 224 -234q142 -81 322 -81q274 0 451 182q176 181 176 485t-172 486t-455 182zM859 1464q171 0 309 -60q262 -114 361 -404q46 -134 46 -296t-56 -304q-106 -271 -382 -381
q-129 -50 -305 -50t-336 86t-255 258t-96 404q0 307 180 522q87 105 225 165t309 60zM862 1546h-86l246 297h100z" />
    <glyph glyph-name="Ocircumflex" unicode="&#xd4;" horiz-adv-x="1720" 
d="M859 1384q-187 0 -329 -81q-141 -82 -219 -234q-78 -153 -78 -353t81 -352q82 -152 224 -234q142 -81 322 -81q274 0 451 182q176 182 176 486q0 201 -78 353t-220 233q-143 81 -330 81zM859 1464q171 0 309 -60q262 -114 361 -404q46 -134 46 -296t-56 -304
q-106 -271 -382 -381q-129 -50 -305 -50t-336 86t-255 258t-96 404q0 307 180 522q87 105 225 165t309 60zM1180 1546h-90l-230 232l-233 -232h-90l280 297h84z" />
    <glyph glyph-name="Otilde" unicode="&#xd5;" horiz-adv-x="1720" 
d="M859 1384q-187 0 -329 -81q-141 -82 -219 -234q-78 -153 -78 -353t81 -352q82 -152 224 -234q142 -81 322 -81q274 0 451 182q176 182 176 486q0 201 -78 353t-220 233q-143 81 -330 81zM859 1464q171 0 309 -60q262 -114 361 -404q46 -134 46 -296t-56 -304
q-106 -271 -382 -381q-129 -50 -305 -50t-336 86t-255 258t-96 404q0 307 180 522q87 105 225 165t309 60zM1194 1776l49 -33q-68 -138 -135 -163q-78 -26 -203 20q-43 16 -55 20q-134 57 -198 49t-115 -102l-52 32q49 101 111 127q61 26 118 15t102 -28q46 -17 74 -27
t51 -20t55 -16t44 -10t34 4t39 22q17 15 37 44q19 29 44 66z" />
    <glyph glyph-name="Odieresis" unicode="&#xd6;" horiz-adv-x="1720" 
d="M860 1384q-188 0 -330 -81q-141 -82 -219 -234q-78 -153 -78 -353t81 -352q82 -152 224 -234q142 -81 322 -81q274 0 451 182q176 181 176 485t-172 486t-455 182zM859 1464q171 0 309 -60q262 -114 361 -404q46 -134 46 -296t-56 -304q-106 -271 -382 -381
q-129 -50 -305 -50t-336 86t-255 258t-96 404q0 307 180 522q87 105 225 165t309 60zM990 1701q19 19 49 19t45 -23q14 -23 14 -45t-18 -40t-46 -18q-27 0 -45 18t-18 44t19 45zM693 1720q26 0 44 -19q19 -19 19 -45t-18 -44t-45 -18q-26 0 -45 18t-19 44t19 45t45 19z" />
    <glyph glyph-name="multiply" unicode="&#xd7;" horiz-adv-x="1302" 
d="M188 217l869 870l59 -59l-870 -870z" />
    <glyph glyph-name="Oslash" unicode="&#xd8;" horiz-adv-x="1679" 
d="M860 49q274 0 451 182q176 182 176 486q0 233 -107 401q-51 80 -123 137l-774 -1087q160 -119 377 -119zM862 1384q-190 0 -332 -81q-141 -82 -219 -234t-78 -352q1 -316 191 -502l770 1083q-142 86 -332 86zM1575 722q0 -178 -56 -322q-106 -271 -382 -381
q-129 -50 -277 -50q-246 0 -426 127l-186 -260h-92l219 309q-229 205 -230 572q0 307 180 522q187 225 557 225q194 0 361 -98l191 268h92l-221 -311q131 -102 201 -262t69 -339z" />
    <glyph glyph-name="Ugrave" unicode="&#xd9;" horiz-adv-x="1540" 
d="M1354 1434v-813q0 -313 -148 -483t-438 -169q-291 0 -436 168t-146 481v816h86v-799q0 -285 123 -435t374 -151q251 0 375 151t124 435v799h86zM856 1546h-86l-240 297h97z" />
    <glyph glyph-name="Uacute" unicode="&#xda;" horiz-adv-x="1540" 
d="M1354 1434v-813q0 -313 -148 -483t-438 -169q-291 0 -436 168t-146 481v816h86v-799q0 -285 123 -435t374 -151q251 0 375 151t124 435v799h86zM776 1546h-88l246 297h100z" />
    <glyph glyph-name="Ucircumflex" unicode="&#xdb;" horiz-adv-x="1540" 
d="M1354 1434v-813q0 -313 -148 -483t-438 -169q-291 0 -436 168t-146 481v816h86v-799q0 -285 123 -435t374 -151q251 0 375 151t124 435v799h86zM1094 1546h-90l-232 232l-231 -232h-90l280 297h82z" />
    <glyph glyph-name="Udieresis" unicode="&#xdc;" horiz-adv-x="1540" 
d="M1354 1434v-813q0 -313 -148 -483t-438 -169q-291 0 -436 168t-146 481v816h86v-799q0 -285 123 -435t374 -151q251 0 375 151t124 435v799h86zM990 1704q22 -16 22 -45t-18 -47t-46 -18q-27 0 -45 18t-18 44t18 45t41 19q24 0 46 -16zM606 1720q27 0 45 -19
q19 -19 19 -45t-18 -44t-46 -18q-27 0 -45 18t-18 44t18 45t45 19z" />
    <glyph glyph-name="Yacute" unicode="&#xdd;" horiz-adv-x="1259" 
d="M672 0h-86v606l-535 828h101l477 -736l479 736h100l-536 -828v-606zM631 1546h-86l246 297h100z" />
    <glyph glyph-name="Thorn" unicode="&#xde;" horiz-adv-x="1081" 
d="M219 322h223q219 0 329 93t110 290q0 409 -562 409h-100v-792zM219 1194h143q308 0 456 -131t148 -361t-138 -346q-138 -115 -375 -114h-234v-242h-86v1434h86v-240z" />
    <glyph glyph-name="germandbls" unicode="&#xdf;" horiz-adv-x="1226" 
d="M274 0h-86v1020q0 96 22 172q78 262 355 262q125 0 210 -44q165 -85 165 -296q0 -127 -61 -205t-138 -102q152 -17 258 -115q107 -98 107 -246q0 -214 -172 -344q-138 -102 -381 -102v80q129 0 224 34q243 87 243 339q0 75 -44 137q-76 107 -266 147q-79 16 -157 15v75
q41 0 115 26t114 69q74 80 75 201q1 120 -79 187t-211 66q-286 0 -293 -358v-1018z" />
    <glyph glyph-name="agrave" unicode="&#xe0;" horiz-adv-x="1060" 
d="M490 602q-160 0 -232 -73t-72 -201t78 -208q78 -79 205 -79q87 0 183 44t159 122v336q-161 59 -321 59zM614 1051q162 0 222 -90q59 -90 59 -246v-715h-80q-4 57 -4 117q-55 -61 -153 -107t-204 -45q-108 0 -192 52q-162 100 -162 307q0 139 84 245q84 107 269 107
q184 0 358 -55v102q0 131 -44 190t-155 60q-184 0 -379 -88l-30 71q100 43 214 69q113 26 197 26zM625 1341h-86l-240 297h96z" />
    <glyph glyph-name="aacute" unicode="&#xe1;" horiz-adv-x="1060" 
d="M490 602q-160 0 -232 -73t-72 -201t78 -208q78 -79 205 -79q87 0 183 44t159 122v336q-161 59 -321 59zM614 1051q162 0 222 -90q59 -90 59 -246v-715h-80q-4 57 -4 117q-55 -61 -153 -107t-195 -45q-172 1 -267 105q-96 104 -96 248t84 251t269 107q184 0 358 -55v102
q0 131 -44 190t-155 60q-184 0 -379 -88l-30 71q100 43 214 69q113 26 197 26zM543 1341h-86l245 297h101z" />
    <glyph glyph-name="acircumflex" unicode="&#xe2;" horiz-adv-x="1060" 
d="M490 602q-160 0 -232 -73t-72 -201t78 -208q78 -79 205 -79q87 0 183 44t159 122v336q-161 59 -321 59zM614 1051q162 0 222 -90q59 -90 59 -246v-715h-80q-4 57 -4 117q-55 -61 -153 -107t-195 -45q-172 1 -267 105q-96 104 -96 248t84 251t269 107q184 0 358 -55v102
q0 131 -44 190t-155 60q-184 0 -379 -88l-30 71q100 43 214 69q113 26 197 26zM309 1341h-90l279 297h84l280 -297h-90l-231 232z" />
    <glyph glyph-name="atilde" unicode="&#xe3;" horiz-adv-x="1060" 
d="M490 602q-160 0 -232 -73t-72 -201t78 -208q78 -79 205 -79q87 0 183 44t159 122v336q-161 59 -321 59zM614 1051q162 0 222 -90q59 -90 59 -246v-715h-80q-4 57 -4 117q-55 -61 -153 -107t-195 -45q-172 1 -267 105q-96 104 -96 248t84 251t269 107q184 0 358 -55v102
q0 131 -44 190t-155 60q-184 0 -379 -88l-30 71q100 43 214 69q113 26 197 26zM874 1571l50 -33q-68 -139 -127 -160t-109 -11t-97 27t-61 21q-134 57 -198 49t-115 -102l-51 33q56 104 107 126q96 39 231 -15q38 -15 66 -25q28 -9 52 -19t56 -17t43 -10q12 -3 34 4t40 24
t36 44t43 64z" />
    <glyph glyph-name="adieresis" unicode="&#xe4;" horiz-adv-x="1060" 
d="M490 602q-160 0 -232 -73t-72 -201t78 -208q78 -79 205 -79q87 0 183 44t159 122v336q-161 59 -321 59zM614 1051q162 0 222 -90q59 -90 59 -246v-715h-80q-4 57 -4 117q-55 -61 -153 -107t-195 -45q-172 1 -267 105q-96 104 -96 248t84 251t269 107q184 0 358 -55v102
q0 131 -44 190t-155 60q-184 0 -379 -88l-30 71q100 43 214 69q113 26 197 26zM717 1516q27 0 45 -20t18 -45q0 -26 -18 -44t-45 -18t-45 18t-18 44q0 25 18 45t45 20zM370 1516q22 0 44 -14q24 -14 24 -46q0 -31 -18 -49t-45 -18t-45 18t-18 44q0 25 18 45t40 20z" />
    <glyph glyph-name="aring" unicode="&#xe5;" horiz-adv-x="1060" 
d="M490 602q-160 0 -232 -73t-72 -201t78 -208q78 -79 205 -79q87 0 183 44t159 122v336q-161 59 -321 59zM614 1051q162 0 222 -90q59 -90 59 -246v-715h-80q-4 57 -4 117q-55 -61 -153 -107t-195 -45q-172 1 -267 105q-96 104 -96 248t84 251t269 107q184 0 358 -55v102
q0 131 -44 190t-155 60q-184 0 -379 -88l-30 71q100 43 214 69q113 26 197 26zM546 1591q-54 0 -94 -40t-40 -95t39 -95t85 -40q88 0 124 68q18 31 18 77t-39 85q-39 40 -93 40zM560 1659q68 1 125 -59q58 -60 58 -130q-1 -70 -27 -116q-26 -47 -72 -74t-112 -27
q-66 1 -128 61t-62 128t29 117q62 100 189 100z" />
    <glyph glyph-name="ae" unicode="&#xe6;" horiz-adv-x="1902" 
d="M474 41q254 0 398 223q-45 111 -45 242v37q-177 59 -329 59t-223 -73t-71 -201t78 -208q76 -79 192 -79zM1316 971q-185 0 -295 -125t-108 -326h789q-4 207 -102 329t-284 122zM1323 39q174 0 336 108l35 -73q-70 -49 -166 -80t-187 -31q-299 0 -434 227
q-98 -123 -201 -174q-104 -51 -224 -51t-204 52q-162 101 -161 307q0 141 84 246q84 106 268 106t358 -55q-6 209 -48 281t-150 71q-184 0 -379 -88l-31 71q100 43 216 69t200 26q229 0 268 -234q63 111 169 170t237 60q475 -1 475 -601h-869q14 -182 124 -294t284 -113z
" />
    <glyph glyph-name="ccedilla" unicode="&#xe7;" horiz-adv-x="1093" 
d="M713 -260q0 94 -79 94q-42 0 -85 -37l-64 21l62 149q-435 54 -433 559q0 250 132 394q131 144 391 145q141 0 267 -61q65 -31 104 -70l-35 -72q-55 49 -147 87t-193 38q-203 0 -318 -118q-115 -117 -115 -355t116 -356q114 -118 317 -117q101 0 193 38t147 87l35 -72
q-57 -57 -166 -94t-205 -37h-27l-35 -86q25 21 79 21t90 -46t36 -118t-56 -125t-172 -53t-192 61l25 66q76 -59 162 -59q166 0 166 116z" />
    <glyph glyph-name="egrave" unicode="&#xe8;" 
d="M199 520h782q-8 451 -385 451q-184 0 -290 -124t-107 -327zM981 74q-159 -111 -373 -111q-110 0 -212 46q-183 82 -252 296q-30 94 -29 201q0 248 135 394t346 147q475 -1 475 -601h-870q14 -180 124 -294t285 -113q175 0 334 108zM678 1341h-86l-240 297h99z" />
    <glyph glyph-name="eacute" unicode="&#xe9;" 
d="M199 520h782q-8 451 -385 451q-184 0 -290 -124t-107 -327zM981 74q-159 -111 -373 -111q-110 0 -212 46q-183 82 -252 296q-30 94 -29 201q0 248 135 394t346 147q475 -1 475 -601h-870q14 -180 124 -294t285 -113q175 0 334 108zM598 1341h-86l246 297h100z" />
    <glyph glyph-name="ecircumflex" unicode="&#xea;" 
d="M199 520h782q-8 451 -385 451q-184 0 -290 -124t-107 -327zM981 74q-159 -111 -373 -111q-110 0 -212 46q-183 82 -252 296q-30 94 -29 201q0 248 135 394t346 147q475 -1 475 -601h-870q14 -180 124 -294t285 -113q175 0 334 108zM915 1341h-90l-229 232l-234 -232h-90
l281 297h84z" />
    <glyph glyph-name="edieresis" unicode="&#xeb;" 
d="M199 520h782q-8 451 -385 451q-184 0 -290 -124t-107 -327zM981 74q-159 -111 -373 -111q-110 0 -212 46q-183 82 -252 296q-30 94 -29 201q0 248 135 394t346 147q475 -1 475 -601h-870q14 -180 124 -294t285 -113q175 0 334 108zM771 1516q26 0 44 -20q19 -20 19 -45
q0 -26 -18 -44t-46 -18q-27 0 -45 18t-18 44q0 25 19 45t45 20zM429 1516q26 0 44 -20q19 -20 19 -45q0 -26 -18 -44t-38 -18q-31 0 -51 17t-20 44q0 26 19 46t45 20z" />
    <glyph glyph-name="igrave" unicode="&#xec;" horiz-adv-x="460" 
d="M188 0v1024h86v-1024h-86zM313 1341h-86l-239 297h96z" />
    <glyph glyph-name="iacute" unicode="&#xed;" horiz-adv-x="460" 
d="M188 0v1024h86v-1024h-86zM233 1341h-86l246 297h101z" />
    <glyph glyph-name="icircumflex" unicode="&#xee;" horiz-adv-x="460" 
d="M188 0v1024h86v-1024h-86zM551 1341h-90l-230 232l-233 -232h-90l280 297h82z" />
    <glyph glyph-name="idieresis" unicode="&#xef;" horiz-adv-x="460" 
d="M188 0v1024h86v-1024h-86zM342 1451q0 25 18 45t49 20q30 0 45 -24t15 -45q0 -22 -18 -40t-45 -18t-46 18q-18 18 -18 44zM63 1516q27 0 45 -20t19 -45q0 -26 -18 -44q-17 -18 -45 -18t-46 18t-18 44q0 25 18 45t45 20z" />
    <glyph glyph-name="eth" unicode="&#xf0;" horiz-adv-x="1222" 
d="M180 508q0 -213 108 -342t302 -129q192 0 305 128t113 355q0 109 -37 198t-97 143q-121 110 -294 110q-174 0 -287 -125t-113 -338zM594 -37q-242 1 -372 149t-130 394q0 156 58 278q125 262 444 263q193 0 334 -123q-53 160 -174 301l-320 -86l-18 73l280 76
q-88 86 -178 137l57 62q115 -66 213 -174l193 51l18 -74l-157 -43q116 -152 184 -342q68 -191 69 -373q2 -363 -228 -500q-114 -69 -273 -69z" />
    <glyph glyph-name="ntilde" unicode="&#xf1;" horiz-adv-x="1153" 
d="M184 1024h80q4 -37 6 -133q64 70 164 115t203 45q170 1 260 -103t90 -270v-678h-86v668q0 137 -68 216q-131 150 -373 53q-110 -44 -190 -130v-807h-86v1024zM903 1571l49 -33q-68 -138 -135 -163q-76 -25 -201 20q-45 16 -57 20q-135 57 -199 49t-116 -102l-49 33
q50 102 110 127q60 26 121 13q61 -12 102 -28t70 -26q28 -9 52 -19t56 -17t43 -10t33 4t42 24q19 17 37 44q17 27 42 64z" />
    <glyph glyph-name="ograve" unicode="&#xf2;" horiz-adv-x="1226" 
d="M614 971q-196 0 -306 -126t-110 -339t110 -341t306 -128t305 128q108 128 107 341q0 213 -107 339q-108 126 -305 126zM113 511q0 251 137 393q136 142 370 143t364 -147t130 -394t-130 -394t-371 -148t-371 148t-129 399zM698 1341h-88l-239 297h98z" />
    <glyph glyph-name="oacute" unicode="&#xf3;" horiz-adv-x="1226" 
d="M614 971q-196 0 -306 -126t-110 -339t110 -341t306 -128t305 128q108 128 107 341q0 213 -107 339q-108 126 -305 126zM113 511q0 251 137 393q136 142 370 143t364 -147t130 -394t-130 -394t-371 -148t-371 148t-129 399zM616 1341h-86l246 297h101z" />
    <glyph glyph-name="ocircumflex" unicode="&#xf4;" horiz-adv-x="1226" 
d="M614 971q-196 0 -306 -126t-110 -339t110 -341t306 -128t305 128q108 128 107 341q0 213 -107 339q-108 126 -305 126zM113 511q0 251 137 393q136 142 370 143t364 -147t130 -394t-130 -394t-371 -148t-371 148t-129 399zM934 1341h-88l-232 232l-233 -232h-88l278 297
h84z" />
    <glyph glyph-name="otilde" unicode="&#xf5;" horiz-adv-x="1226" 
d="M614 971q-196 0 -306 -126t-110 -339t110 -341t306 -128t305 128q108 128 107 341q0 213 -107 339q-108 126 -305 126zM113 511q0 251 137 393q136 142 370 143t364 -147t130 -394t-130 -394t-371 -148t-371 148t-129 399zM948 1571l49 -33q-68 -140 -134 -163
q-28 -9 -46 -12q-49 -8 -176 40q-25 8 -37 12q-135 57 -198 49t-115 -102l-51 33q56 104 107 126q33 13 57 18q60 12 198 -44l21 -6q49 -17 73 -27t55 -17q32 -7 44 -10q11 -3 33 4t41 24t37 44q17 27 42 64z" />
    <glyph glyph-name="odieresis" unicode="&#xf6;" horiz-adv-x="1226" 
d="M614 971q-196 0 -306 -126t-110 -339t110 -341t306 -128t305 128q108 128 107 341q0 213 -107 339q-108 126 -305 126zM113 511q0 251 137 393q136 142 370 143t364 -147t130 -394t-130 -394t-371 -148t-371 148t-129 399zM790 1516q26 0 44 -20t18 -45q0 -26 -18 -44
t-44 -18t-45 18q-18 18 -18 44q1 25 19 45t44 20zM456 1389q-70 0 -71 68q0 19 18 39t44 20q27 0 45 -20t18 -45q0 -26 -17 -44t-37 -18z" />
    <glyph glyph-name="divide" unicode="&#xf7;" horiz-adv-x="1310" 
d="M590 200q0 33 24 49q24 15 48 15t44 -19t19 -52t-25 -49q-24 -15 -48 -15t-43 19t-19 52zM1167 594h-1024v80h1024v-80zM725 1075q0 -29 -19 -48q-18 -19 -48 -19t-49 19t-19 43t15 48q15 25 48 25q33 1 53 -19t19 -49z" />
    <glyph glyph-name="oslash" unicode="&#xf8;" horiz-adv-x="1220" 
d="M610 37q198 0 306 128t108 341q0 258 -154 383l-434 -819q78 -33 174 -33zM610 971q-198 0 -306 -126t-107 -339q0 -281 176 -402l436 824q-86 43 -199 43zM109 506q0 256 138 398t363 143q133 0 236 -48l94 177h82l-113 -213q201 -141 201 -457q0 -246 -130 -394
t-370 -149q-117 0 -211 37l-94 -176h-82l111 209q-225 138 -225 473z" />
    <glyph glyph-name="ugrave" unicode="&#xf9;" horiz-adv-x="1150" 
d="M965 1024v-1024h-80q-4 35 -6 135q-90 -99 -229 -140q-71 -22 -140 -24q-168 3 -258 105t-86 268v680h86v-670q0 -112 44 -186q78 -132 270 -117q83 6 166 51t145 117v805h88zM543 1341l-240 297h98l228 -297h-86z" />
    <glyph glyph-name="uacute" unicode="&#xfa;" horiz-adv-x="1150" 
d="M965 0h-80q-4 35 -6 135q-90 -99 -229 -140q-71 -22 -140 -24q-168 3 -258 105t-86 268v680h86v-670q0 -112 44 -186q78 -132 270 -117q83 6 166 51t145 117v805h88v-1024zM578 1341h-86l245 297h101z" />
    <glyph glyph-name="ucircumflex" unicode="&#xfb;" horiz-adv-x="1150" 
d="M965 0h-80q-4 35 -6 135q-90 -99 -229 -140q-71 -22 -140 -24q-168 3 -258 105t-86 268v680h86v-670q0 -112 44 -186q78 -132 270 -117q83 6 166 51t145 117v805h88v-1024zM895 1341h-90l-230 232l-233 -232h-90l280 297h84z" />
    <glyph glyph-name="udieresis" unicode="&#xfc;" horiz-adv-x="1150" 
d="M965 1024v-1024h-80q-4 35 -6 135q-90 -99 -229 -140q-71 -22 -140 -24q-168 3 -258 105t-86 268v680h86v-670q0 -112 44 -186q78 -132 270 -117q83 6 166 51t145 117v805h88zM751 1389q-26 0 -45 18q-20 18 -20 44t20 45q20 20 45 20q26 0 44 -20t18 -45q0 -26 -18 -44
t-44 -18zM416 1389q-20 0 -32 5q-38 17 -38 50t18 52t48 20q29 1 44 -23t15 -46t-17 -40q-18 -18 -38 -18z" />
    <glyph glyph-name="yacute" unicode="&#xfd;" horiz-adv-x="1116" 
d="M1036 1024l-473 -1120q-78 -191 -146 -279q-40 -49 -85 -63q-92 -28 -246 28l31 86q91 -42 131 -38q42 4 64 9t46 31q61 68 114 209q15 39 44 113l-389 1024h98l340 -913l375 913h96zM590 1341h-88l246 297h100z" />
    <glyph glyph-name="thorn" unicode="&#xfe;" horiz-adv-x="1165" 
d="M958 518q0 152 -47 260q-91 208 -317 207q-104 0 -190 -51t-134 -143v-539q46 -87 132 -143t192 -58q166 0 265 120t99 347zM270 1495v-584q141 150 343 150t318 -150q116 -151 116 -393t-116 -392q-115 -150 -317 -149q-202 0 -344 156v-543h-86v1905h86z" />
    <glyph glyph-name="ydieresis" unicode="&#xff;" horiz-adv-x="1116" 
d="M1036 1024l-473 -1120q-78 -191 -146 -279q-40 -49 -85 -63q-92 -28 -246 28l31 86q121 -56 179 -33q24 9 45 20t51 60q30 48 50 95t35 82q14 35 39 100l-389 1024h98l340 -913l375 913h96zM762 1516q27 0 45 -20t18 -45q0 -26 -18 -44t-45 -18t-45 18q-19 18 -19 44
q0 25 18 45t46 20zM356 1457q0 19 18 39t42 20q22 0 44 -15t23 -45q0 -31 -18 -49q-17 -18 -37 -18q-72 0 -72 68z" />
    <glyph glyph-name="Amacron" unicode="&#x100;" horiz-adv-x="1495" 
d="M1096 502l-348 780l-347 -780h695zM1130 422h-765l-187 -422h-100l670 1475l669 -1475h-98zM1116 1626h-743v74h743v-74z" />
    <glyph glyph-name="amacron" unicode="&#x101;" horiz-adv-x="1060" 
d="M490 602q-160 0 -232 -73t-72 -201t78 -208q78 -79 205 -79q87 0 183 44t159 122v336q-161 59 -321 59zM614 1051q162 0 222 -90q59 -90 59 -246v-715h-80q-4 57 -4 117q-55 -61 -153 -107t-195 -45q-172 1 -267 105q-96 104 -96 248t84 251t269 107q184 0 358 -55v102
q0 131 -44 190t-155 60q-184 0 -379 -88l-30 71q100 43 214 69q113 26 197 26zM909 1421h-743v74h743v-74z" />
    <glyph glyph-name="Abreve" unicode="&#x102;" horiz-adv-x="1495" 
d="M748 1282l-347 -780h695zM365 422l-187 -422h-100l670 1475l669 -1475h-98l-189 422h-765zM922 1843h69q0 -111 -62 -179t-180 -69q-118 0 -180 70q-61 70 -61 178h70q0 -84 43 -133t128 -49t129 49t44 133z" />
    <glyph glyph-name="abreve" unicode="&#x103;" horiz-adv-x="1060" 
d="M490 602q-160 0 -232 -73t-72 -201t78 -208q78 -79 205 -79q87 0 183 44t159 122v336q-161 59 -321 59zM614 1051q162 0 222 -90q59 -90 59 -246v-715h-80q-4 57 -4 117q-55 -61 -153 -107t-204 -45q-108 0 -192 52q-162 100 -162 307q0 139 84 245q84 107 269 107
q184 0 358 -55v102q0 131 -44 190t-155 60q-184 0 -379 -88l-30 71q100 43 214 69q113 26 197 26zM715 1638h71q0 -112 -62 -180t-181 -68t-181 70q-61 70 -61 178h72q0 -84 42 -133t127 -49t129 49t44 133z" />
    <glyph glyph-name="Aogonek" unicode="&#x104;" horiz-adv-x="1495" 
d="M1096 502l-348 780l-347 -780h695zM1204 -257q0 92 60 172q20 28 69 85h-14l-189 422h-765l-187 -422h-100l670 1475l669 -1475h-4q-141 -145 -141 -252q0 -38 18 -64q32 -47 89 -48t93 30t50 72l47 -45q-53 -123 -174 -123t-166 80q-25 41 -25 93z" />
    <glyph glyph-name="aogonek" unicode="&#x105;" horiz-adv-x="1060" 
d="M490 602q-160 0 -232 -73t-72 -201t78 -208q78 -79 205 -79q87 0 183 44t159 122v336q-161 59 -321 59zM870 -430q-82 0 -133 47t-51 131q0 47 20 93q19 46 40 74q22 28 69 85q-4 57 -4 117q-55 -61 -153 -107t-195 -45q-172 1 -267 105q-96 104 -96 248t84 251t269 107
q184 0 358 -55v102q0 131 -44 190t-155 60q-184 0 -379 -88l-30 71q100 43 214 69q113 26 197 26q162 0 222 -90q59 -90 59 -246v-715q-141 -145 -141 -252q0 -55 34 -84t82 -29t84 31t50 72l47 -45q-53 -123 -181 -123z" />
    <glyph glyph-name="Cacute" unicode="&#x106;" horiz-adv-x="1509" 
d="M856 -31q-301 0 -473 153q-238 211 -238 578q1 367 191 566t506 198q176 0 332 -74t256 -214l-64 -52q-84 115 -223 187q-139 71 -317 71t-314 -80q-137 -80 -208 -229q-71 -150 -71 -356q0 -301 162 -483t447 -183q156 1 297 75t223 191l68 -55q-104 -141 -260 -217
t-314 -76zM844 1546h-86l246 297h100z" />
    <glyph glyph-name="cacute" unicode="&#x107;" horiz-adv-x="1093" 
d="M637 -37q-174 0 -293 68q-229 131 -229 483q0 262 131 406t391 145q141 0 267 -61q65 -31 104 -70l-35 -72q-55 49 -147 87t-193 38q-203 0 -318 -118q-115 -117 -115 -355t116 -356q114 -118 317 -117q101 0 193 38t147 87l35 -72q-57 -57 -166 -94t-205 -37zM586 1341
h-86l245 297h101z" />
    <glyph glyph-name="Cdotaccent" unicode="&#x10a;" horiz-adv-x="1509" 
d="M856 -31q-301 0 -473 153q-238 211 -238 578q1 367 191 566t506 198q176 0 332 -74t256 -214l-64 -52q-84 115 -223 187q-139 71 -317 71t-314 -80q-137 -80 -208 -229q-71 -150 -71 -356q0 -301 162 -483t447 -183q156 1 297 75t223 191l68 -55q-104 -141 -260 -217
t-314 -76zM844 1720q27 0 45 -19t18 -45t-18 -44t-45 -18t-45 18q-19 18 -19 44t18 45t46 19z" />
    <glyph glyph-name="cdotaccent" unicode="&#x10b;" horiz-adv-x="1093" 
d="M637 -37q-174 0 -293 68q-229 131 -229 483q0 262 131 406t391 145q141 0 267 -61q65 -31 104 -70l-35 -72q-55 49 -147 87t-193 38q-203 0 -318 -118q-115 -117 -115 -355t116 -356q114 -118 317 -117q101 0 193 38t147 87l35 -72q-57 -57 -166 -94t-205 -37zM585 1516
q26 0 44 -20t18 -45q0 -26 -17 -44t-44 -18t-45 18q-19 18 -19 44q0 25 18 45t45 20z" />
    <glyph glyph-name="Ccaron" unicode="&#x10c;" horiz-adv-x="1509" 
d="M856 -31q-301 0 -473 153q-238 211 -238 578q1 367 191 566t506 198q176 0 332 -74t256 -214l-64 -52q-84 115 -223 187q-139 71 -317 71t-314 -80q-137 -80 -208 -229q-71 -150 -71 -356q0 -301 162 -483t447 -183q156 1 297 75t223 191l68 -55q-104 -141 -260 -217
t-314 -76zM889 1546h-84l-281 297h90l234 -231l229 231h90z" />
    <glyph glyph-name="ccaron" unicode="&#x10d;" horiz-adv-x="1093" 
d="M637 -37q-174 0 -293 68q-229 131 -229 483q0 262 131 406t391 145q141 0 267 -61q65 -31 104 -70l-35 -72q-55 49 -147 87t-193 38q-203 0 -318 -118q-115 -117 -115 -355t116 -356q114 -118 317 -117q101 0 193 38t147 87l35 -72q-57 -57 -166 -94t-205 -37zM629 1341
h-82l-281 297h90l234 -231l229 231h90z" />
    <glyph glyph-name="Dcaron" unicode="&#x10e;" horiz-adv-x="1464" 
d="M295 82h285q297 0 474 163t177 460t-169 472t-482 175h-285v-1270zM209 1434h371q180 0 322 -56q270 -106 370 -381q47 -129 47 -293t-56 -304q-105 -259 -393 -355q-133 -45 -290 -45h-371v1434zM645 1546l-280 297h90l231 -231l232 231h90l-281 -297h-82z" />
    <glyph glyph-name="dcaron" unicode="&#x10f;" horiz-adv-x="1392" 
d="M580 973q-168 0 -266 -124t-97 -344q0 -220 98 -343t265 -123q98 0 188 55t137 131v559q-51 82 -137 136t-188 53zM1182 1307q-30 0 -44 24t-14 51t26 43q26 15 48 15q23 0 43 -20q21 -20 21 -50q0 -31 -86 -209h-33zM991 0h-82q-4 59 -4 113q-141 -150 -327 -150
q-219 0 -334 150q-115 151 -115 393t115 392t334 149q186 0 327 -156v584h86v-1475z" />
    <glyph glyph-name="Dcroat" unicode="&#x110;" horiz-adv-x="1464" 
d="M295 82h285q297 0 474 163t177 460t-169 472t-482 175h-285v-582h373v-72h-373v-616zM209 1434h371q180 0 322 -56q270 -106 370 -381q47 -129 47 -293t-56 -304q-105 -259 -393 -355q-133 -45 -290 -45h-371v698h-285v72h285v664z" />
    <glyph glyph-name="dcroat" unicode="&#x111;" horiz-adv-x="1165" 
d="M571 973q-170 0 -266 -124t-96 -344t97 -343t265 -123q95 0 187 55t137 131v559q-49 82 -136 136t-188 53zM1233 1184h-252v-1184h-80q-4 59 -6 113q-141 -150 -343 -150t-318 150q-116 151 -116 393t116 392t318 149q202 0 343 -156v293h-406v73h406v218h86v-218h252
v-73z" />
    <glyph glyph-name="Emacron" unicode="&#x112;" horiz-adv-x="1161" 
d="M295 778h684v-80h-684v-618h741v-80h-827v1434h827v-80h-741v-576zM989 1626h-743v74h743v-74z" />
    <glyph glyph-name="emacron" unicode="&#x113;" 
d="M199 520h782q-8 451 -385 451q-184 0 -290 -124t-107 -327zM981 74q-159 -111 -373 -111q-110 0 -212 46q-183 82 -252 296q-30 94 -29 201q0 164 63 288t172 188t246 65q475 -1 475 -601h-870q14 -180 124 -294t285 -113q175 0 334 108zM965 1421h-744v74h744v-74z" />
    <glyph glyph-name="Edotaccent" unicode="&#x116;" horiz-adv-x="1161" 
d="M295 778h684v-80h-684v-618h741v-80h-827v1434h827v-80h-741v-576zM614 1720q18 0 28 -4q42 -19 42 -52q0 -34 -17 -52t-44 -18t-45 18t-18 44t18 45t36 19z" />
    <glyph glyph-name="edotaccent" unicode="&#x117;" 
d="M199 520h782q-8 451 -385 451q-184 0 -290 -124t-107 -327zM981 74q-159 -111 -373 -111q-110 0 -212 46q-183 82 -252 296q-30 94 -29 201q0 248 135 394t346 147q475 -1 475 -601h-870q14 -180 124 -294t285 -113q175 0 334 108zM598 1516q27 0 45 -20q19 -20 19 -45
q0 -26 -18 -44t-46 -18q-27 0 -45 18t-18 44q0 25 18 45t45 20z" />
    <glyph glyph-name="Eogonek" unicode="&#x118;" horiz-adv-x="1161" 
d="M1010 -430q-82 0 -133 47t-52 130t61 168q19 28 68 85h-745v1434h827v-80h-741v-576h684v-80h-684v-618h741v-80q-141 -145 -141 -252q0 -55 35 -84t82 -29t83 31t48 72l47 -45q-51 -123 -180 -123z" />
    <glyph glyph-name="eogonek" unicode="&#x119;" 
d="M199 520h782q-8 451 -385 451q-184 0 -290 -124t-107 -327zM954 -356q-80 0 -132 47t-52 133t72 180q-112 -41 -228 -41t-218 46q-183 82 -252 296q-30 94 -29 201q0 248 135 394t346 147q475 0 475 -601h-870q14 -180 124 -294t285 -113q175 0 334 108l37 -73
q-141 -145 -141 -252q0 -55 34 -84t82 -29q47 0 83 31t48 72l48 -45q-51 -123 -181 -123z" />
    <glyph glyph-name="Ecaron" unicode="&#x11a;" horiz-adv-x="1161" 
d="M295 778h684v-80h-684v-618h741v-80h-827v1434h827v-80h-741v-576zM668 1546h-84l-281 297h90l234 -231l229 231h90z" />
    <glyph glyph-name="ecaron" unicode="&#x11b;" 
d="M199 520h782q-8 451 -385 451q-184 0 -290 -124t-107 -327zM981 74q-159 -111 -373 -111q-110 0 -212 46q-183 82 -252 296q-30 94 -29 201q0 248 135 394t346 147q475 -1 475 -601h-870q14 -180 124 -294t285 -113q175 0 334 108zM643 1341h-84l-280 297h90l233 -231
l229 231h91z" />
    <glyph glyph-name="Gbreve" unicode="&#x11e;" horiz-adv-x="1601" 
d="M1430 758v-496q-146 -199 -352 -260q-108 -33 -256 -33q-148 -1 -282 61q-249 114 -350 406q-45 133 -45 293t56 303q105 272 372 381q125 51 267 51q383 0 590 -288l-68 -52q-76 117 -212 189t-310 71q-266 0 -436 -180t-171 -487q1 -152 49 -279q93 -242 323 -342
q110 -47 235 -47q328 0 503 240v389h-462v80h549zM1012 1843h71q0 -111 -62 -179t-181 -69q-119 0 -181 70q-61 70 -61 178h72q0 -84 43 -133t127 -49t128 49t44 133z" />
    <glyph glyph-name="gbreve" unicode="&#x11f;" horiz-adv-x="1165" 
d="M571 985q-168 0 -265 -124t-97 -344t96 -343t266 -123q99 -1 187 53t137 136v559q-45 76 -136 131t-188 55zM981 1024v-950q0 -232 -31 -323q-30 -91 -72 -131q-88 -85 -270 -85t-322 64q-71 31 -110 67l39 72q162 -127 387 -127q92 -1 150 21t89 73q32 51 43 119t11 176
v133q-139 -156 -328 -156q-145 0 -249 72q-199 139 -199 467q-1 246 115 396t318 149q202 0 343 -150q2 53 6 113h80zM750 1638h71q0 -112 -62 -180t-181 -67q-159 0 -217 122q-26 55 -25 125h72q0 -84 43 -133t127 -49t128 49t44 133z" />
    <glyph glyph-name="Gdotaccent" unicode="&#x120;" horiz-adv-x="1601" 
d="M1430 262q-217 -293 -571 -293t-534 223t-180 525q0 172 56 315q105 272 372 381q125 51 267 51q383 0 590 -288l-68 -52q-76 117 -212 189t-310 71q-266 0 -436 -180t-171 -487q1 -152 49 -279q93 -242 323 -342q110 -47 235 -47q328 0 503 240v389h-462v80h549v-496z
M842 1720q27 0 45 -19t18 -45t-18 -44t-45 -18t-45 18q-19 18 -19 44t18 45t46 19z" />
    <glyph glyph-name="gdotaccent" unicode="&#x121;" horiz-adv-x="1165" 
d="M571 985q-168 0 -265 -124t-97 -344t96 -343t266 -123q99 -1 187 53t137 136v559q-45 76 -136 131t-188 55zM981 1024v-950q0 -232 -31 -323q-30 -91 -72 -131q-88 -85 -270 -85t-322 64q-71 31 -110 67l39 72q162 -127 387 -127q92 -1 150 21t89 73q32 51 43 119t11 176
v133q-139 -156 -328 -156q-145 0 -249 72q-199 139 -199 467q-1 246 115 396t318 149q202 0 343 -150q2 53 6 113h80zM580 1516q27 0 45 -20t18 -45q0 -26 -18 -44t-45 -18t-45 18q-19 18 -19 44q0 25 18 45t46 20z" />
    <glyph glyph-name="Gcommaaccent" unicode="&#x122;" horiz-adv-x="1601" 
d="M723 -416q0 74 75 74q22 0 41 -19t19 -49q0 -63 -86 -206h-33l41 139q-25 2 -41 22q-16 19 -16 39zM881 758h549v-496q-146 -199 -352 -260q-108 -33 -256 -33q-148 -1 -282 61q-249 114 -350 406q-45 133 -45 293t56 303q105 272 372 381q125 51 267 51q383 0 590 -288
l-68 -52q-76 117 -212 189t-310 71q-266 0 -436 -180t-171 -487q1 -152 49 -279q93 -242 323 -342q110 -47 235 -47q328 0 503 240v389h-462v80z" />
    <glyph glyph-name="gcommaaccent" unicode="&#x123;" horiz-adv-x="1165" 
d="M571 985q-168 0 -265 -124t-97 -344t96 -343t266 -123q99 -1 187 53t137 136v559q-64 108 -193 159q-66 27 -131 27zM981 1024v-950q0 -232 -31 -323q-30 -91 -72 -131q-88 -85 -270 -85t-322 64q-71 31 -110 67l39 72q162 -127 387 -127q92 -1 150 21t89 73
q32 51 43 119t11 176v133q-139 -156 -328 -156q-145 0 -249 72q-199 139 -199 467q-1 246 115 396t318 149q202 0 343 -150q2 53 6 113h80zM647 1378q0 -27 -20 -47t-48 -20t-49 20q-20 20 -20 47t17 46t40 24l-39 137h33q86 -143 86 -207z" />
    <glyph glyph-name="Hbar" unicode="&#x126;" horiz-adv-x="1480" 
d="M1188 1026h-893v-268h893v268zM1479 1026h-205v-1026h-86v676h-893v-676h-86v1026h-189v80h189v328h86v-328h893v328h86v-328h205v-80z" />
    <glyph glyph-name="hbar" unicode="&#x127;" horiz-adv-x="1153" 
d="M270 1192v-301q64 70 164 115t203 45q170 1 260 -103t90 -270v-678h-86v668q0 137 -68 216q-131 150 -373 53q-110 -44 -190 -130v-807h-86v1192h-270v72h270v211h86v-211h387v-72h-387z" />
    <glyph glyph-name="Imacron" unicode="&#x12a;" horiz-adv-x="530" 
d="M223 0v1434h86v-1434h-86zM637 1626h-743v74h743v-74z" />
    <glyph glyph-name="imacron" unicode="&#x12b;" horiz-adv-x="460" 
d="M188 0v1024h86v-1024h-86zM600 1421h-743v74h743v-74z" />
    <glyph glyph-name="Iogonek" unicode="&#x12e;" horiz-adv-x="530" 
d="M283 -430q-82 0 -133 47q-52 47 -52 113q-1 105 60 185q20 28 69 85h-4v1434h86l-2 -1434q-141 -145 -141 -252q0 -55 36 -84t83 -29t82 31t49 72l47 -45q-53 -123 -180 -123z" />
    <glyph glyph-name="iogonek" unicode="&#x12f;" horiz-adv-x="460" 
d="M248 -430q-82 0 -133 47t-52 130t61 168q19 28 69 85h-5v1024h86v-1024q-141 -145 -141 -252q0 -55 35 -84t74 -29q70 0 113 55q18 21 26 48l47 -45q-51 -123 -180 -123zM170 1444q0 67 63 72q33 0 47 -24q15 -24 15 -45q1 -22 -17 -40t-45 -18t-45 18q-18 17 -18 37z
" />
    <glyph glyph-name="Idotaccent" unicode="&#x130;" horiz-adv-x="530" 
d="M223 0v1434h86v-1434h-86zM225 1701q18 19 48 19t45 -23q14 -23 14 -45t-18 -40t-44 -18q-27 0 -45 18t-18 44t18 45z" />
    <glyph glyph-name="dotlessi" unicode="&#x131;" horiz-adv-x="460" 
d="M274 0h-86v1024h86v-1024z" />
    <glyph glyph-name="IJ" unicode="&#x132;" horiz-adv-x="882" 
d="M256 0v1434h86v-1434h-86zM748 1434v-1438q0 -438 -457 -438q-84 0 -156 20l19 80q70 -18 137 -18q174 0 272 82t99 276v1436h86z" />
    <glyph glyph-name="ij" unicode="&#x133;" horiz-adv-x="1028" 
d="M735 0v1024h82v-1024q0 -350 -85 -435q-61 -61 -210 -48q-68 6 -172 26v82q202 -45 280 -23q93 27 103 266q2 50 2 132zM207 0v1024h86v-1024h-86zM715 1372q-1 68 65 68q20 0 40 -18t20 -45q0 -26 -20 -44t-44 -18q-25 0 -43 18q-18 17 -18 39zM251 1440q26 0 44 -18
t18 -45q0 -26 -18 -44t-44 -18t-44 18q-19 18 -19 44q0 27 18 45t45 18z" />
    <glyph glyph-name="Kcommaaccent" unicode="&#x136;" horiz-adv-x="1298" 
d="M453 -408q0 26 20 46t48 20t48 -19t21 -49q0 -63 -86 -206h-33l39 139q-23 2 -40 22t-17 47zM295 0h-86v1434h86v-859l725 859h106l-571 -662l666 -772h-113l-606 709l-207 -242v-467z" />
    <glyph glyph-name="kcommaaccent" unicode="&#x137;" horiz-adv-x="1030" 
d="M462 -342q28 0 47 -19t19 -49q0 -63 -86 -206h-32l41 139q-25 2 -41 22t-16 47q0 26 20 46t48 20zM270 0h-86v1475h86v-1090l518 639h107l-375 -459l447 -565h-113l-387 500l-197 -242v-258z" />
    <glyph glyph-name="Lacute" unicode="&#x139;" horiz-adv-x="1107" 
d="M1030 0h-821v1434h86v-1354h735v-80zM219 1546h-86l246 297h100z" />
    <glyph glyph-name="lacute" unicode="&#x13a;" horiz-adv-x="475" 
d="M281 0h-84v1475h84v-1475zM242 1546h-86l245 297h101z" />
    <glyph glyph-name="Lcommaaccent" unicode="&#x13b;" horiz-adv-x="1107" 
d="M571 -410q0 -63 -86 -206h-32l41 139q-25 2 -41 22q-17 19 -17 41t15 47t53 25q39 0 58 -34q9 -15 9 -34zM1030 0h-821v1434h86v-1354h735v-80z" />
    <glyph glyph-name="lcommaaccent" unicode="&#x13c;" horiz-adv-x="475" 
d="M170 -408q0 26 20 46t42 20q54 0 70 -41q5 -12 5 -27q0 -63 -86 -206h-33l39 139q-23 2 -40 22t-17 47zM281 0h-84v1475h84v-1475z" />
    <glyph glyph-name="Lcaron" unicode="&#x13d;" horiz-adv-x="1107" 
d="M585 1417q28 0 48 -19t20 -48q0 -63 -88 -207h-30l38 139q-23 2 -39 22t-18 48q0 27 20 46t49 19zM1030 0h-821v1434h86v-1354h735v-80z" />
    <glyph glyph-name="lcaron" unicode="&#x13e;" horiz-adv-x="583" 
d="M532 1397q0 -23 -83 -201h-33l39 143q-25 1 -41 21t-17 47q0 27 27 54t68 9q40 -18 40 -73zM197 0v1475h84v-1475h-84z" />
    <glyph glyph-name="Ldot" unicode="&#x13f;" horiz-adv-x="1107" 
d="M602 721q27 -1 45 -19q19 -18 19 -45t-18 -45t-46 -18q-27 0 -45 18t-18 45t18 45t45 19zM1030 0h-821v1434h86v-1354h735v-80z" />
    <glyph glyph-name="ldot" unicode="&#x140;" horiz-adv-x="632" 
d="M416 652q0 70 68 69q22 -1 40 -19t18 -45t-18 -45t-45 -18t-45 18t-18 40zM281 0h-84v1475h84v-1475z" />
    <glyph glyph-name="Lslash" unicode="&#x141;" horiz-adv-x="1216" 
d="M1139 80v-80h-822v614l-155 -69v84l155 67v738h86v-699l377 166v-82l-377 -166v-573h736z" />
    <glyph glyph-name="lslash" unicode="&#x142;" horiz-adv-x="628" 
d="M360 0h-84v711l-235 -105v80l235 107v682h84v-646l228 101v-82l-228 -100v-748z" />
    <glyph glyph-name="Nacute" unicode="&#x143;" horiz-adv-x="1515" 
d="M295 0h-86v1475l1012 -1278v1237h86v-1475l-1012 1276v-1235zM768 1546h-86l246 297h100z" />
    <glyph glyph-name="nacute" unicode="&#x144;" horiz-adv-x="1153" 
d="M184 1024h80q4 -37 6 -133q64 70 164 115t203 45q170 1 260 -103t90 -270v-678h-86v668q0 137 -68 216q-131 150 -373 53q-110 -44 -190 -130v-807h-86v1024zM571 1341h-86l246 297h100z" />
    <glyph glyph-name="Ncommaaccent" unicode="&#x145;" horiz-adv-x="1515" 
d="M596 -362q20 20 54 20t53 -34q9 -15 10 -34q0 -63 -86 -206h-33l39 139q-23 2 -40 22t-17 47q0 26 20 46zM295 0h-86v1475l1012 -1278v1237h86v-1475l-1012 1276v-1235z" />
    <glyph glyph-name="ncommaaccent" unicode="&#x146;" horiz-adv-x="1153" 
d="M522 -460q-22 15 -22 51q0 37 35 58q17 9 39 9t42 -19t21 -49q0 -63 -86 -206h-33l39 139q-13 2 -35 17zM184 1024h80q4 -37 6 -133q64 70 164 115t203 45q170 1 260 -103t90 -270v-678h-86v668q0 137 -68 216q-131 150 -373 53q-110 -44 -190 -130v-807h-86v1024z" />
    <glyph glyph-name="Ncaron" unicode="&#x147;" horiz-adv-x="1515" 
d="M295 0h-86v1475l1012 -1278v1237h86v-1475l-1012 1276v-1235zM813 1546h-84l-278 297h90l231 -231l232 231h90z" />
    <glyph glyph-name="ncaron" unicode="&#x148;" horiz-adv-x="1153" 
d="M184 1024h80q4 -37 6 -133q64 70 164 115t203 45q170 1 260 -103t90 -270v-678h-86v668q0 137 -68 216q-131 150 -373 53q-110 -44 -190 -130v-807h-86v1024zM614 1341h-82l-280 297h90l233 -231l230 231h90z" />
    <glyph glyph-name="Eng" unicode="&#x14a;" horiz-adv-x="1515" 
d="M1221 0v68l-926 1167v-1235h-86v1475l1012 -1278v1237h86v-1475q-1 -216 -27 -290t-58 -103q-89 -81 -384 -23v82q207 -46 276 -23q26 8 48 30t38 70q21 63 21 298z" />
    <glyph glyph-name="eng" unicode="&#x14b;" horiz-adv-x="1153" 
d="M184 1024h80q4 -37 6 -133q64 70 164 115t203 45q170 1 260 -103t90 -270v-678q0 -244 -14 -325q-13 -81 -33 -105t-62 -42q-42 -17 -98 -11t-143 26v84q124 -36 157 -32t52 12t33 40q14 31 15 58t5 59t2 76q-2 43 -1 89t1 71v668q0 137 -68 216q-131 150 -373 53
q-110 -44 -190 -130v-807h-86v1024z" />
    <glyph glyph-name="Omacron" unicode="&#x14c;" horiz-adv-x="1720" 
d="M860 1384q-188 0 -330 -81q-141 -82 -219 -234q-78 -153 -78 -353t81 -352q82 -152 224 -234q142 -81 322 -81q274 0 451 182q176 181 176 485t-172 486t-455 182zM859 1464q171 0 309 -60q262 -114 361 -404q46 -134 46 -296t-56 -304q-106 -271 -382 -381
q-129 -50 -305 -50t-336 86t-255 258t-96 404q0 307 180 522q87 105 225 165t309 60zM1229 1626h-744v74h744v-74z" />
    <glyph glyph-name="omacron" unicode="&#x14d;" horiz-adv-x="1226" 
d="M614 971q-196 0 -306 -126t-110 -339t110 -341t306 -128t305 128q108 128 107 341q0 213 -107 339q-108 126 -305 126zM113 511q0 251 137 393q136 142 370 143t364 -147t130 -394t-130 -394t-371 -148t-371 148t-129 399zM983 1421h-743v74h743v-74z" />
    <glyph glyph-name="Ohungarumlaut" unicode="&#x150;" horiz-adv-x="1720" 
d="M859 1384q-187 0 -329 -81q-141 -82 -219 -234q-78 -153 -78 -353t81 -352q82 -152 224 -234q142 -81 322 -81q274 0 451 182q176 182 176 486q0 201 -78 353t-220 233q-143 81 -330 81zM859 1464q171 0 309 -60q262 -114 361 -404q46 -134 46 -296t-56 -304
q-106 -271 -382 -381q-129 -50 -305 -50t-336 86t-255 258t-96 404q0 307 180 522q87 105 225 165t309 60zM1008 1546h-84l245 297h95zM686 1546h-84l246 297h94z" />
    <glyph glyph-name="ohungarumlaut" unicode="&#x151;" horiz-adv-x="1226" 
d="M614 971q-196 0 -306 -126t-110 -339t110 -341t306 -128t305 128q108 128 107 341q0 213 -107 339q-108 126 -305 126zM113 511q0 251 137 393q136 142 370 143t364 -147t130 -394t-130 -394t-371 -148t-371 148t-129 399zM762 1341h-84l246 297h94zM440 1341h-84
l246 297h96z" />
    <glyph glyph-name="OE" unicode="&#x152;" horiz-adv-x="1986" 
d="M1047 1354h-209q-295 0 -461 -178t-166 -459q0 -207 84 -353q165 -286 543 -284h209v1274zM1130 776h678v-80h-678v-616h736v-80h-1028q-313 0 -514 186t-201 514t187 531t528 203h1028v-80h-736v-578z" />
    <glyph glyph-name="oe" unicode="&#x153;" horiz-adv-x="2095" 
d="M1116 520h782q-8 451 -385 451q-185 0 -291 -124t-106 -327zM614 37q197 0 305 128t107 341q0 213 -107 339q-108 126 -305 126q-196 0 -306 -126t-110 -339t110 -341q109 -128 306 -128zM1989 446h-869q12 -180 122 -294t286 -113q176 0 336 108l34 -73
q-70 -49 -166 -80t-186 -31q-180 0 -299 83t-172 220q-53 -143 -170 -223t-291 -80q-242 1 -372 149t-129 399q0 251 137 393t364 143q174 0 291 -79t170 -220q35 94 101 162q134 138 337 137q476 -1 476 -601z" />
    <glyph glyph-name="Racute" unicode="&#x154;" 
d="M295 571h121q264 -2 402 84t138 301q0 216 -139 308t-401 88h-121v-781zM209 1434h250q281 0 433 -119t150 -359q0 -340 -307 -432l305 -524h-102l-289 504q-74 -12 -162 -12h-192v-492h-86v1434zM559 1546h-86l246 297h100z" />
    <glyph glyph-name="racute" unicode="&#x155;" horiz-adv-x="706" 
d="M270 0h-86v1024h80l4 -104q211 199 391 77l-26 -79q-80 61 -178 36t-185 -131v-823zM389 1341h-86l246 297h100z" />
    <glyph glyph-name="Rcommaaccent" unicode="&#x156;" 
d="M618 -410q0 -63 -88 -206h-32l41 139q-25 2 -41 22q-16 19 -16 41t14 47q15 25 53 25t59 -34q10 -15 10 -34zM295 571h121q264 -2 402 84t138 301q0 216 -139 308t-401 88h-121v-781zM209 1434h250q281 0 433 -119t150 -359q0 -340 -307 -432l305 -524h-102l-289 504
q-74 -12 -162 -12h-192v-492h-86v1434z" />
    <glyph glyph-name="rcommaaccent" unicode="&#x157;" horiz-adv-x="706" 
d="M246 -408q0 26 20 46t48 20t48 -19t21 -49q0 -63 -88 -206h-31l39 139q-23 2 -40 22t-17 47zM270 0h-86v1024h80l4 -104q211 199 391 77l-26 -79q-80 61 -178 36t-185 -131v-823z" />
    <glyph glyph-name="Rcaron" unicode="&#x158;" 
d="M295 571h121q260 0 392 78q150 88 149 305q-1 218 -140 310t-401 88h-121v-781zM209 1434h250q281 0 433 -119t150 -359q0 -340 -307 -432l305 -524h-102l-289 504q-74 -12 -162 -12h-192v-492h-86v1434zM604 1546h-84l-278 297h88l233 -231l232 231h88z" />
    <glyph glyph-name="rcaron" unicode="&#x159;" horiz-adv-x="706" 
d="M270 0h-86v1024h80l4 -104q211 199 391 77l-26 -79q-80 61 -178 36t-185 -131v-823zM434 1341h-84l-280 297h90l233 -231l230 231h90z" />
    <glyph glyph-name="Sacute" unicode="&#x15a;" horiz-adv-x="1214" 
d="M139 1090q1 126 57 210t149 121q188 75 448 23q120 -25 233 -72l-33 -84q-157 88 -362 94q-107 4 -197 -18t-149 -92t-59 -177t73 -161q81 -56 229 -97q148 -42 221 -69q183 -67 246 -140q88 -100 87 -232q-2 -252 -164 -350q-217 -129 -541 -52q-88 20 -158 55t-102 74
l43 76q104 -96 306 -136q202 -41 358 30q75 34 123 108t48 170t-46 172q-46 75 -204 134q-96 34 -218 67q-123 33 -209 75q-86 41 -108 71q-55 73 -63 115t-8 85zM616 1546h-86l246 297h101z" />
    <glyph glyph-name="sacute" unicode="&#x15b;" horiz-adv-x="958" 
d="M665 101q87 54 87 188q0 182 -299 239q-215 36 -272 95q-56 59 -56 151q0 125 92 200t231 75q212 0 375 -97l-32 -71q-63 39 -157 67t-152 27q-185 0 -248 -95q-28 -42 -28 -86t11 -75q10 -32 37 -49q26 -16 40 -24t46 -15q31 -8 46 -11q15 -2 53 -10t55 -12
q342 -66 342 -298q0 -118 -50 -192q-93 -138 -305 -137q-135 -1 -235 45t-158 109l47 70q57 -74 151 -111t193 -37t186 54zM469 1341h-86l246 297h100z" />
    <glyph glyph-name="Scedilla" unicode="&#x15e;" horiz-adv-x="1214" 
d="M696 -250q0 94 -78 94q-42 0 -86 -37l-61 21l55 141q-130 11 -246 55t-163 99l43 76q104 -96 306 -136q202 -41 358 30q75 34 123 108t48 170t-46 172q-46 75 -204 134q-96 34 -218 67q-123 33 -209 75q-86 41 -108 71q-55 73 -63 115t-8 85q1 126 57 210t149 121
q188 75 448 23q120 -25 233 -72l-33 -84q-157 88 -362 94q-107 4 -197 -18t-149 -92t-59 -177t73 -161q81 -56 229 -97q148 -42 221 -69q183 -67 246 -140q88 -100 87 -230q-2 -248 -154 -346q-133 -85 -336 -87l-33 -78q27 21 80 21t89 -46t36 -118t-56 -125t-172 -53
t-192 61l25 66q76 -59 162 -59q165 0 165 116z" />
    <glyph glyph-name="scedilla" unicode="&#x15f;" horiz-adv-x="958" 
d="M482 975q-185 0 -248 -95q-28 -42 -28 -86t11 -75q10 -32 37 -49q26 -16 40 -24t46 -15q31 -8 46 -11q15 -2 53 -10t55 -12q170 -32 256 -106t86 -214t-92 -221q-92 -80 -236 -86l-37 -84q27 21 81 21t90 -46q34 -46 34 -118t-55 -125t-172 -53t-193 61l27 66
q74 -59 160 -59q167 -1 167 116q0 39 -19 67q-19 27 -60 27t-85 -37l-63 21l57 145q-121 7 -211 51t-141 101l47 70q57 -74 151 -111t168 -37q124 0 211 54t87 188q0 182 -299 239q-215 36 -272 95q-56 59 -56 151q0 125 92 200t231 75t268 -47q60 -21 107 -50l-32 -71
q-63 39 -157 67q-96 28 -152 27z" />
    <glyph glyph-name="Scaron" unicode="&#x160;" horiz-adv-x="1214" 
d="M139 1090q1 126 57 210t149 121q188 75 448 23q120 -25 233 -72l-33 -84q-157 88 -362 94q-107 4 -197 -18t-149 -92t-59 -177t73 -161q81 -56 229 -97q148 -42 221 -69q183 -67 246 -140q88 -100 86 -245q1 -104 -35 -184t-94 -127q-120 -97 -296 -105q-250 -12 -453 91
q-57 30 -86 65l43 76q104 -96 306 -136q202 -41 358 30q75 34 123 108t48 170t-46 172q-46 75 -204 134q-96 34 -218 67q-123 33 -209 75q-86 41 -108 71q-55 73 -63 115t-8 85zM662 1546h-84l-281 297h90l234 -231l229 231h90z" />
    <glyph glyph-name="scaron" unicode="&#x161;" horiz-adv-x="958" 
d="M665 101q87 54 87 188q0 182 -299 239q-215 36 -272 95q-56 59 -56 151q0 125 92 200t244 75q94 0 192 -27t170 -70l-32 -71q-92 59 -245 87q-44 7 -105 7q-61 -1 -120 -27q-116 -52 -114 -170q0 -96 89 -132q44 -16 70 -22q26 -4 41 -8t43 -9q208 -37 297 -113t89 -194
t-50 -192q-93 -138 -305 -137q-135 -1 -235 45t-158 109l47 70q57 -74 151 -111t193 -37t186 54zM514 1341h-84l-278 297h90l231 -231l232 231h90z" />
    <glyph glyph-name="Tcedilla" unicode="&#x162;" horiz-adv-x="1243" 
d="M597 -434q-116 0 -191 61l24 66q76 -59 162 -59q166 -1 166 116q0 39 -20 67q-20 27 -60 27q-41 0 -84 -37l-64 21l70 172h-20v1354h-502v80h1087v-80h-499l2 -1354l-47 -113q25 21 79 21t90 -46t36 -118t-57 -125q-56 -53 -172 -53z" />
    <glyph glyph-name="tcedilla" unicode="&#x163;" horiz-adv-x="835" 
d="M827 -256q0 94 -78 94q-42 0 -85 -37l-64 21l64 158q-80 -8 -140 -12q-106 -8 -180 68t-74 390v518h-184v80h184v451h86v-451h381v-80h-381v-518q0 -207 33 -287t117 -87t231 24v-82l-47 -113q25 21 79 21t90 -46t36 -118t-56 -125t-172 -53t-192 61l25 66
q76 -59 162 -59q165 0 165 116z" />
    <glyph glyph-name="Tcaron" unicode="&#x164;" horiz-adv-x="1243" 
d="M666 1354v-1354h-86v1354h-502v80h1087v-80h-499zM672 1546h-84l-279 297h88l234 -231l231 231h88z" />
    <glyph glyph-name="tcaron" unicode="&#x165;" horiz-adv-x="835" 
d="M356 944v-518q0 -207 33 -287t117 -87t231 24v-82q-200 -40 -292 -18q-54 13 -86 43q-69 64 -81 220q-7 75 -8 187v518h-184v80h184v451h86v-451h381v-80h-381zM588 1409q0 27 21 47t49 20t48 -20t19 -51q0 -31 -86 -207h-31l37 143q-23 1 -40 21t-17 47z" />
    <glyph glyph-name="Tbar" unicode="&#x166;" horiz-adv-x="1243" 
d="M666 1354v-330h333v-74h-333v-950h-86v950h-324v74h324v330h-502v80h1087v-80h-499z" />
    <glyph glyph-name="tbar" unicode="&#x167;" horiz-adv-x="835" 
d="M356 1202v-178h381v-80h-381v-518q0 -207 33 -287t117 -87t231 24v-82q-200 -40 -292 -18q-54 13 -86 43q-69 64 -81 220q-7 75 -8 187v518h-184v80h184v178h-241v74h241v199h86v-199h416v-74h-416z" />
    <glyph glyph-name="Umacron" unicode="&#x16a;" horiz-adv-x="1540" 
d="M1354 1434v-813q0 -313 -148 -483t-438 -169q-291 0 -436 168t-146 481v816h86v-799q0 -285 123 -435t374 -151q251 0 375 151t124 435v799h86zM1141 1626h-744v74h744v-74z" />
    <glyph glyph-name="umacron" unicode="&#x16b;" horiz-adv-x="1150" 
d="M965 0h-80q-4 35 -6 135q-90 -99 -229 -140q-71 -22 -140 -24q-168 3 -258 105t-86 268v680h86v-670q0 -112 44 -186q78 -132 270 -117q83 6 166 51t145 117v805h88v-1024zM944 1421h-743v74h743v-74z" />
    <glyph glyph-name="Uring" unicode="&#x16e;" horiz-adv-x="1540" 
d="M1354 1434v-813q0 -313 -148 -483t-438 -169q-291 0 -436 168t-146 481v816h86v-799q0 -285 123 -435t374 -151q251 0 375 151t124 435v799h86zM778 1796q-55 0 -95 -40t-40 -95t39 -95t85 -40t77 18q65 38 65 105t-38 107t-93 40zM790 1864q68 0 126 -60t58 -128
q1 -130 -97 -191q-45 -27 -113 -27t-129 60t-61 130q0 68 28 115q29 47 75 74q45 27 113 27z" />
    <glyph glyph-name="uring" unicode="&#x16f;" horiz-adv-x="1150" 
d="M965 0h-80q-4 35 -6 135q-90 -99 -229 -140q-71 -22 -140 -24q-168 3 -258 105t-86 268v680h86v-670q0 -112 44 -186q78 -132 270 -117q83 6 166 51t145 117v805h88v-1024zM580 1591q-56 0 -96 -40t-40 -95t40 -95t86 -40q88 0 125 68q17 31 17 77t-38 85q-39 40 -94 40z
M594 1659q68 1 126 -59t58 -130t-26 -116q-26 -47 -73 -74q-45 -27 -113 -27q-68 1 -128 61t-61 128q0 68 27 117q59 100 190 100z" />
    <glyph glyph-name="Uhungarumlaut" unicode="&#x170;" horiz-adv-x="1540" 
d="M1354 1434v-813q0 -313 -148 -483t-438 -169q-291 0 -436 168t-146 481v816h86v-799q0 -285 123 -435t374 -151q251 0 375 151t124 435v799h86zM922 1546h-86l245 297h97zM600 1546h-84l246 297h94z" />
    <glyph glyph-name="uhungarumlaut" unicode="&#x171;" horiz-adv-x="1150" 
d="M965 0h-80q-4 35 -6 135q-90 -99 -229 -140q-71 -22 -140 -24q-168 3 -258 105t-86 268v680h86v-670q0 -112 44 -186q78 -132 270 -117q83 6 166 51t145 117v805h88v-1024zM723 1341h-84l246 297h94zM401 1341h-84l246 297h94z" />
    <glyph glyph-name="Uogonek" unicode="&#x172;" horiz-adv-x="1540" 
d="M1354 1434v-813q0 -285 -122 -451t-364 -195q-119 -127 -118 -227q0 -55 36 -84t82 -29q47 0 82 31t49 72l48 -45q-51 -123 -181 -123q-82 0 -133 47t-51 119t26 122q26 48 78 111h-18q-291 0 -436 168t-146 481v816h86v-799q0 -285 123 -435t374 -151q251 0 375 151
t124 435v799h86z" />
    <glyph glyph-name="uogonek" unicode="&#x173;" horiz-adv-x="1150" 
d="M940 -430q-82 0 -133 47t-51 133t59 165q20 28 70 85q-4 35 -6 135q-90 -99 -229 -140q-71 -22 -140 -24q-168 3 -258 105t-86 268v680h86v-670q0 -112 44 -186q78 -132 270 -117q83 6 166 51t145 117v805h88v-1024q-141 -145 -142 -252q0 -55 35 -84t83 -29t83 31t49 72
l47 -45q-53 -123 -180 -123z" />
    <glyph glyph-name="Wcircumflex" unicode="&#x174;" horiz-adv-x="2125" 
d="M1065 1208l-442 -1269l-533 1495h96l439 -1246l440 1266l438 -1266l436 1246h97l-533 -1495zM1386 1546h-90l-231 232l-231 -232h-91l281 297h82z" />
    <glyph glyph-name="wcircumflex" unicode="&#x175;" horiz-adv-x="1738" 
d="M868 829l-352 -890l-424 1085h98l328 -866l350 886l349 -886l329 866h99l-424 -1085zM1188 1341h-90l-230 232l-233 -232h-90l280 297h84z" />
    <glyph glyph-name="Ycircumflex" unicode="&#x176;" horiz-adv-x="1259" 
d="M672 0h-86v606l-535 828h101l477 -736l479 736h100l-536 -828v-606zM950 1546h-90l-231 232l-232 -232h-90l279 297h84z" />
    <glyph glyph-name="ycircumflex" unicode="&#x177;" horiz-adv-x="1116" 
d="M1036 1024l-473 -1120q-78 -191 -146 -279q-40 -49 -85 -63q-92 -28 -246 28l31 86q91 -42 131 -38q42 4 64 9t46 31q61 68 114 209q15 39 44 113l-389 1024h98l340 -913l375 913h96zM907 1341h-90l-229 232l-234 -232h-90l281 297h82z" />
    <glyph glyph-name="Ydieresis" unicode="&#x178;" horiz-adv-x="1259" 
d="M672 0h-86v606l-535 828h101l477 -736l479 736h100l-536 -828v-606zM805 1720q27 0 45 -19t18 -45t-18 -44t-45 -18t-45 18t-18 44t18 45t45 19zM456 1593q-20 1 -38 19t-18 44t18 45t40 19t44 -14q24 -14 24 -52q0 -40 -38 -56q-12 -6 -32 -5z" />
    <glyph glyph-name="Zacute" unicode="&#x179;" horiz-adv-x="1474" 
d="M1325 84v-84h-1194l1036 1350h-944v84h1112l-1034 -1350h1024zM776 1546h-86l246 297h100z" />
    <glyph glyph-name="zacute" unicode="&#x17a;" horiz-adv-x="983" 
d="M862 78v-78h-768l649 946h-600v78h748l-645 -946h616zM498 1341h-86l245 297h101z" />
    <glyph glyph-name="Zdotaccent" unicode="&#x17b;" horiz-adv-x="1474" 
d="M1325 84v-84h-1194l1036 1350h-944v84h1112l-1034 -1350h1024zM776 1720q27 0 45 -19q19 -19 19 -45t-18 -44t-46 -18q-27 0 -45 18t-18 44t18 45t45 19z" />
    <glyph glyph-name="zdotaccent" unicode="&#x17c;" horiz-adv-x="983" 
d="M862 78v-78h-768l649 946h-600v78h748l-645 -946h616zM498 1516q27 0 45 -20t18 -45q0 -26 -18 -44q-19 -18 -39 -18t-32 5q-38 17 -38 50q0 32 18 52t46 20z" />
    <glyph glyph-name="Zcaron" unicode="&#x17d;" horiz-adv-x="1474" 
d="M1325 84v-84h-1194l1036 1350h-944v84h1112l-1034 -1350h1024zM821 1546h-84l-278 297h88l233 -231l232 231h88z" />
    <glyph glyph-name="zcaron" unicode="&#x17e;" horiz-adv-x="983" 
d="M862 78v-78h-768l649 946h-600v78h748l-645 -946h616zM543 1341h-84l-281 297h90l234 -231l229 231h90z" />
    <glyph glyph-name="Scommaaccent" unicode="&#x218;" horiz-adv-x="1214" 
d="M510 -408q0 26 20 46t48 20t49 -19q20 -19 20 -49q0 -63 -88 -206h-33l41 139q-25 2 -41 22t-16 47zM139 1090q1 126 57 210t149 121q188 75 448 23q120 -25 233 -72l-33 -84q-157 88 -362 94q-107 4 -197 -18t-149 -92t-59 -177t73 -161q81 -56 229 -97q148 -42 221 -69
q183 -67 246 -140q88 -100 87 -232q-2 -252 -164 -350q-217 -129 -541 -52q-88 20 -158 55t-102 74l43 76q104 -96 306 -136q202 -41 358 30q75 34 123 108t48 170t-46 172q-46 75 -204 134q-96 34 -218 67q-123 33 -209 75q-86 41 -108 71q-55 73 -63 115t-8 85z" />
    <glyph glyph-name="scommaaccent" unicode="&#x219;" horiz-adv-x="958" 
d="M477 -477q-57 8 -57 78q0 27 26 42t40 15q50 0 66 -41q5 -12 5 -27q0 -63 -88 -206h-31zM665 101q87 54 87 188q0 182 -299 239q-215 36 -272 95q-56 59 -56 151q0 125 92 200t231 75q212 0 375 -97l-32 -71q-63 39 -157 67t-152 27q-185 0 -248 -95q-28 -42 -28 -86
t11 -75q10 -32 37 -49q26 -16 40 -24t46 -15q31 -8 46 -11q15 -2 53 -10t55 -12q342 -66 342 -298q0 -118 -50 -192q-93 -138 -305 -137q-135 -1 -235 45t-158 109l47 70q57 -74 151 -111t193 -37t186 54z" />
    <glyph glyph-name="uni021A" unicode="&#x21a;" horiz-adv-x="1243" 
d="M548 -362q20 20 55 20q34 0 53 -34q9 -15 10 -34q0 -63 -88 -206h-31l39 139q-23 2 -40 22q-18 20 -18 47q0 26 20 46zM1165 1354h-499v-1354h-86v1354h-502v80h1087v-80z" />
    <glyph glyph-name="uni021B" unicode="&#x21b;" horiz-adv-x="835" 
d="M430 -342q76 0 76 -76q0 -55 -86 -198h-33l39 139q-23 2 -40 22t-17 47q0 26 20 46q19 20 41 20zM356 944v-518q0 -207 33 -287t117 -87t231 24v-82q-200 -40 -292 -18q-54 13 -86 43q-69 64 -81 220q-7 75 -8 187v518h-184v80h184v451h86v-451h381v-80h-381z" />
    <glyph glyph-name="dotlessj" unicode="&#x237;" horiz-adv-x="638" 
d="M360 0v1024h82v-1024q0 -246 -26 -326q-26 -79 -58 -109t-104 -46q-73 -16 -279 24v82q203 -45 281 -24q78 22 94 165q10 87 10 234z" />
    <glyph glyph-name="circumflex" unicode="&#x2c6;" horiz-adv-x="643" 
d="M643 1341h-90l-231 232l-232 -232h-90l281 297h81z" />
    <glyph glyph-name="caron" unicode="&#x2c7;" horiz-adv-x="643" 
d="M362 1341h-81l-281 297h90l232 -231l231 231h90z" />
    <glyph glyph-name="breve" unicode="&#x2d8;" horiz-adv-x="485" 
d="M414 1638h71q0 -147 -108 -214q-55 -34 -137 -33q-117 0 -179 69q-61 70 -61 178h72q0 -84 43 -133t113 -49q129 0 167 86q19 41 19 96z" />
    <glyph glyph-name="dotaccent" unicode="&#x2d9;" horiz-adv-x="126" 
d="M63 1516q27 0 45 -20t19 -45q0 -26 -18 -44q-17 -18 -45 -18t-46 18t-18 44q0 25 18 45t45 20z" />
    <glyph glyph-name="ring" unicode="&#x2da;" horiz-adv-x="401" 
d="M203 1591q-55 0 -95 -40t-40 -95t40 -95t86 -40q88 0 124 68q18 31 18 77t-39 85q-39 40 -94 40zM203 1659q82 1 140 -59t58 -144t-58 -143t-140 -59q-83 0 -143 60t-60 143t60 143t143 59z" />
    <glyph glyph-name="ogonek" unicode="&#x2db;" horiz-adv-x="364" 
d="M68 -252q0 -55 36 -84t82 -29q47 0 82 31t49 72l48 -45q-53 -123 -181 -123q-82 0 -133 47t-51 133t59 165q21 28 70 85h80q-141 -145 -141 -252z" />
    <glyph glyph-name="tilde" unicode="&#x2dc;" horiz-adv-x="757" 
d="M709 1571l49 -33q-68 -140 -134 -163q-28 -9 -46 -12q-49 -8 -177 40q-25 8 -36 12q-135 57 -199 49t-115 -102l-51 33q56 105 108 126q32 13 56 18t78 -6q53 -11 89 -25q35 -15 39 -16t31 -10q28 -9 53 -20q26 -10 58 -17t43 -10q12 -3 34 4t40 24t37 44q18 27 43 64z
" />
    <glyph glyph-name="hungarumlaut" unicode="&#x2dd;" horiz-adv-x="661" 
d="M406 1341h-84l245 297h95zM84 1341h-84l246 297h96z" />
    <glyph glyph-name="commaaccentcomb" unicode="&#x326;" horiz-adv-x="0" 
d="M0 -408q0 26 20 46t48 20t49 -19q20 -19 20 -49q0 -63 -88 -206h-31l39 139q-23 2 -40 22t-17 47z" />
    <glyph glyph-name="Wgrave" unicode="&#x1e80;" horiz-adv-x="2125" 
d="M1503 -61l-438 1269l-442 -1269l-533 1495h96l439 -1246l440 1266l438 -1266l436 1246h97zM1024 1546l-240 297h97l229 -297h-86z" />
    <glyph glyph-name="wgrave" unicode="&#x1e81;" horiz-adv-x="1738" 
d="M1221 -61l-353 890l-352 -890l-424 1085h98l330 -866l348 886l349 -886l329 866h99zM844 1341l-240 297h96l230 -297h-86z" />
    <glyph glyph-name="Wacute" unicode="&#x1e82;" horiz-adv-x="2125" 
d="M1065 1208l-442 -1269l-533 1495h96l439 -1246l440 1266l438 -1266l436 1246h97l-533 -1495zM1067 1546h-86l246 297h100z" />
    <glyph glyph-name="wacute" unicode="&#x1e83;" horiz-adv-x="1738" 
d="M868 829l-352 -890l-424 1085h98l328 -866l350 886l349 -886l329 866h99l-424 -1085zM870 1341h-86l246 297h100z" />
    <glyph glyph-name="Wdieresis" unicode="&#x1e84;" horiz-adv-x="2125" 
d="M1503 -61l-438 1269l-442 -1269l-533 1495h96l439 -1246l440 1266l438 -1266l436 1246h97zM1241 1593q-27 1 -45 19t-18 40t8 36q18 32 50 32t50 -19t18 -45t-18 -44t-45 -19zM899 1593q-27 1 -45 19t-18 44t18 45t45 19t45 -19t18 -45t-18 -44t-45 -19z" />
    <glyph glyph-name="wdieresis" unicode="&#x1e85;" horiz-adv-x="1738" 
d="M1221 -61l-353 890l-352 -890l-424 1085h98l330 -866l348 886l349 -886l329 866h99zM1043 1389q-26 0 -45 18t-19 44t19 45q19 20 45 20t44 -20q19 -20 19 -45q0 -26 -18 -44t-45 -18zM702 1389q-27 0 -45 18t-18 44t18 45q18 20 44 20t44 -20q19 -20 19 -45
q0 -26 -18 -44t-44 -18z" />
    <glyph glyph-name="Ygrave" unicode="&#x1ef2;" horiz-adv-x="1259" 
d="M672 0h-86v606l-535 828h101l477 -736l479 736h100l-536 -828v-606zM713 1546h-86l-240 297h96z" />
    <glyph glyph-name="ygrave" unicode="&#x1ef3;" horiz-adv-x="1116" 
d="M1036 1024l-473 -1120q-78 -191 -146 -279q-40 -49 -85 -63q-92 -28 -246 28l31 86q91 -42 131 -38q42 4 64 9t46 31q61 68 114 209q15 39 44 113l-389 1024h98l340 -913l375 913h96zM670 1341h-86l-240 297h96z" />
    <glyph glyph-name="endash" unicode="&#x2013;" horiz-adv-x="1198" 
d="M1059 446h-922v80h922v-80z" />
    <glyph glyph-name="emdash" unicode="&#x2014;" horiz-adv-x="1734" 
d="M1595 446h-1458v80h1458v-80z" />
    <glyph glyph-name="quoteleft" unicode="&#x2018;" horiz-adv-x="385" 
d="M256 1281q20 -15 20 -51t-25 -52q-25 -15 -48 -15q-23 1 -43 21t-20 52t85 204h33l-39 -142q17 -2 37 -17z" />
    <glyph glyph-name="quoteright" unicode="&#x2019;" horiz-adv-x="385" 
d="M109 1374q0 27 27 52t69 9q41 -17 41 -57q0 -39 -86 -217h-31l37 146q-23 2 -40 21t-17 46z" />
    <glyph glyph-name="quotedblleft" unicode="&#x201c;" horiz-adv-x="622" 
d="M514 1231q0 -27 -20 -47t-48 -20t-49 20q-20 20 -20 40t9 45q9 24 35 82t38 89h33l-35 -142q23 -2 40 -21t17 -46zM256 1281q20 -15 20 -51t-25 -52q-25 -15 -48 -15q-23 1 -43 21t-20 40t8 45q9 24 35 82t38 89h33l-35 -142q17 -2 37 -17z" />
    <glyph glyph-name="quotedblright" unicode="&#x201d;" horiz-adv-x="626" 
d="M450 1269q-38 -81 -49 -106h-32l39 144q-25 2 -41 21q-17 19 -17 46t21 47q37 38 91 7q24 -14 25 -46t-37 -113zM126 1328q-17 19 -17 51t25 48q25 15 48 15t43 -20q21 -20 21 -38q0 -16 -2 -23t-4 -16t-8 -21t-11 -24q-4 -12 -16 -38q-11 -26 -25 -53q-14 -28 -22 -46
h-31l39 144q-23 2 -40 21z" />
    <glyph glyph-name="dagger" unicode="&#x2020;" horiz-adv-x="919" 
d="M494 1075l301 12v-86l-303 15l12 -627h-86l10 627l-301 -15v86l299 -12l-16 359h102z" />
    <glyph glyph-name="daggerdbl" unicode="&#x2021;" horiz-adv-x="907" 
d="M479 1026l10 -309l-10 -299l301 14v-86l-299 12l17 -358h-88l16 358l-299 -12v86l301 -14l-10 299l10 309l-301 -14v86l299 -13l-16 349h88l-17 -349l299 13v-86z" />
    <glyph glyph-name="bullet" unicode="&#x2022;" horiz-adv-x="770" 
d="M223 657q-1 95 81 141q38 22 94 21q56 0 104 -47q47 -47 47 -115q0 -67 -47 -115t-115 -48t-116 48t-48 115z" />
    <glyph glyph-name="ellipsis" unicode="&#x2026;" horiz-adv-x="1232" 
d="M1025 123q28 1 45 -17t17 -45t-18 -46t-44 -19t-45 19t-19 46t18 45t46 17zM617 123q27 1 45 -17t18 -49t-22 -46t-45 -15q-22 0 -41 19t-19 46t18 45t46 17zM208 123q28 1 45 -17t17 -45t-18 -46t-44 -19t-45 19t-19 46t18 45t46 17z" />
    <glyph glyph-name="guilsinglleft" unicode="&#x2039;" horiz-adv-x="593" 
d="M471 930l-266 -420l266 -428l-72 -39l-303 467l303 461z" />
    <glyph glyph-name="guilsinglright" unicode="&#x203a;" horiz-adv-x="593" 
d="M498 510l-303 -467l-72 41l266 426l-264 422l70 39z" />
    <glyph glyph-name="fraction" unicode="&#x2044;" horiz-adv-x="1294" 
d="M74 -348h-92l1237 1986h92z" />
    <glyph glyph-name="Euro" unicode="&#x20ac;" horiz-adv-x="1277" 
d="M92 539v73h168q-4 50 -4 104t4 103h-168v74h178q25 145 90 257q122 207 350 279t461 5l-12 -80q-205 63 -401 2q-327 -106 -400 -463h588l-10 -74h-590q-4 -49 -4 -102t4 -105h557l-10 -73h-535q25 -121 84 -217q105 -170 318 -242q169 -57 399 0l12 -80q-235 -66 -460 5
q-224 71 -349 277q-68 112 -92 257h-178z" />
    <glyph glyph-name="trademark" unicode="&#x2122;" horiz-adv-x="690" 
d="M45 1434h215v-23h-96v-264h-21v264h-98v23zM598 1147h-23v242l-116 -119l-119 116v-239h-23v295l142 -144l139 144v-295z" />
    <glyph glyph-name="minus" unicode="&#x2212;" horiz-adv-x="1310" 
d="M1167 596h-1024v80h1024v-80z" />
    <glyph glyph-name="approxequal" unicode="&#x2248;" horiz-adv-x="1452" 
d="M1257 662l62 -35q-37 -66 -78 -113t-69 -60t-48 -23t-85 -7t-120 23t-87 31q-32 12 -37 14t-15 5t-60 22t-124 36q-153 37 -213 -11t-100 -112l-62 35q67 101 111 130q46 30 72 43t65 14q104 3 199 -31q96 -35 101 -37t51 -18q180 -65 272 -61q22 1 52 23t46 43
q16 20 36 47t21 29q2 3 4 7t6 6zM768 985h4l2 -2h4q170 -64 231 -71q60 -7 83 -6q22 1 52 24t65 66t39 53q5 10 9 12l62 -35q-37 -66 -78 -113t-69 -60t-48 -23t-79 -7q-72 3 -161 36t-102 36q-12 4 -57 21t-124 37t-103 19q-85 -4 -110 -25q-65 -54 -105 -116l-62 35
q119 186 268 189q80 2 273 -66l2 -2h2z" />
    <glyph glyph-name="notequal" unicode="&#x2260;" horiz-adv-x="1583" 
d="M1407 543v-80h-639l-178 -408l-72 31l164 377h-504v80h539l98 225h-637v80h672l188 436l72 -31l-174 -405h471v-80h-508l-96 -225h604z" />
    <glyph glyph-name="lessequal" unicode="&#x2264;" horiz-adv-x="1392" 
d="M186 82h1024v-82h-1024v82zM1210 362v-90l-1087 426l1085 404v-86l-852 -318z" />
    <glyph glyph-name="greaterequal" unicode="&#x2265;" horiz-adv-x="1400" 
d="M180 82h1024v-82h-1024v82zM1268 698l-1088 -426v90l873 336l-871 318v86z" />
    <glyph glyph-name="lozenge" unicode="&#x25ca;" horiz-adv-x="1355" 
d="M221 621l457 -457l455 457l-455 454zM1235 621l-557 -560l-559 560l559 557z" />
    <glyph glyph-name="O_O" horiz-adv-x="2578" 
d="M1487 722q0 324 -197 505q-198 -181 -198 -505t198 -511q197 187 197 511zM1718 49q276 0 453 182q176 181 176 485t-172 486t-457 182q-211 0 -362 -104q144 -140 194 -351q25 -101 25 -212q0 -354 -217 -559q153 -109 360 -109zM233 716q0 -200 81 -352
q82 -152 224 -234q142 -81 336 -81t347 107q-217 207 -217 561q0 166 56 312t165 251q-153 104 -353 104q-399 0 -561 -315q-78 -153 -78 -353zM1718 1464q172 0 310 -60q259 -112 359 -404q46 -134 46 -296t-56 -304q-106 -272 -380 -381q-129 -50 -279 -50
q-248 0 -430 131q-182 -131 -406 -131t-386 86q-160 86 -255 258t-96 404q0 307 180 522q87 105 225 165t310 60q252 0 430 -129q178 129 428 129z" />
    <glyph glyph-name="c_t" horiz-adv-x="1812" 
d="M637 -37q-174 0 -293 68q-229 131 -229 483q0 216 83 341q156 233 457 206q-109 96 -109 259q0 162 110 272q108 110 292 110t281 -102q98 -102 102 -291v-285h381v-80h-381v-518q0 -207 33 -287t118 -87t230 24v-82q-197 -40 -290 -18q-54 13 -87 43q-90 82 -90 407v895
q0 151 -81 229t-225 78t-227 -85t-83 -221t98 -211q68 -52 160 -98q92 -45 121 -63l-35 -78q-55 32 -86 48t-108 41t-146 26q-203 8 -318 -114q-115 -121 -115 -359t116 -356q114 -118 317 -117q101 0 193 38t147 87l35 -72q-57 -57 -166 -94t-205 -37z" />
    <glyph glyph-name="f_i" horiz-adv-x="1005" 
d="M348 1051v-27h467v-1024h-86v946h-381v-946h-86v946h-184v78h184v18q0 115 6 187q14 163 89 222q76 60 247 44q86 -8 213 -33v-82q-242 48 -338 35q-29 -4 -57 -22t-38 -43q-36 -82 -36 -299z" />
    <glyph glyph-name="f_l" horiz-adv-x="1007" 
d="M262 1024v18q0 268 38 346q15 32 44 62t68 41q39 10 114 16t287 -32v-1475h-84v1405q-223 30 -279 13t-71 -67q-26 -83 -28 -152q-3 -68 -3 -148v-27h277v-78h-277v-946h-86v946h-184v78h184z" />
    <glyph glyph-name="s_t" horiz-adv-x="1710" 
d="M665 101q87 54 87 188q0 182 -299 239q-215 36 -272 95q-56 59 -56 147q0 168 138 234q118 55 274 38q-93 96 -93 250t108 264t292 111q184 0 282 -103t105 -294v-246h379v-80h-381v-518q0 -207 33 -287q34 -80 118 -87t230 24v-82q-197 -40 -290 -18q-54 13 -87 43
q-94 85 -88 407v518h-187v80h187v260q-2 150 -83 228t-226 79q-195 0 -273 -148q-37 -71 -37 -167q0 -176 228 -289q39 -16 69 -35l-32 -71q-63 39 -157 67t-152 27q-185 0 -248 -95q-28 -42 -28 -86t11 -75q10 -32 37 -49q26 -16 40 -24t46 -15q31 -8 46 -11q15 -2 53 -10
t55 -12q342 -66 342 -298q0 -118 -50 -192q-93 -138 -305 -137q-135 -1 -235 45t-158 109l47 70q57 -74 151 -111t193 -37t186 54z" />
    <glyph glyph-name="zero.tosf" horiz-adv-x="1363" 
d="M683 975q-216 0 -339 -126t-123 -342t123 -337t336 -121q289 0 403 203q59 104 60 254q0 209 -122 339t-338 130zM680 1055q137 0 246 -45q198 -82 271 -296q34 -97 34 -208q0 -172 -72 -294q-142 -241 -479 -243q-180 0 -306 75q-241 143 -241 462q1 258 151 404
t396 145z" />
    <glyph glyph-name="one.tosf" horiz-adv-x="759" 
d="M532 0h-86v954l-358 -102l-25 70l469 133v-1055z" />
    <glyph glyph-name="two.tosf" horiz-adv-x="1189" 
d="M622 1055q286 0 394 -146q55 -76 55 -170q-1 -94 -21 -135t-58 -79t-80 -58q-42 -21 -64 -31t-66 -23l-64 -19q-22 -6 -67 -18q-186 -45 -284 -97q-99 -52 -133 -95t-48 -106h883v-78h-979q0 146 86 236q125 125 371 187q247 63 325 112t101 105q14 36 14 79
q0 119 -88 189t-278 71q-277 -2 -439 -168l-39 70q82 78 209 126q126 48 270 48z" />
    <glyph glyph-name="three.tosf" horiz-adv-x="1214" 
d="M595 1061q218 0 341 -111t123 -280q-1 -106 -61 -192t-150 -109q110 -31 184 -129t74 -228q0 -214 -139 -330t-375 -116q-160 0 -304 51t-216 113l39 67q77 -57 197 -104t243 -47t195 17q272 64 272 349q0 146 -94 232t-248 86h-232v80h236q145 0 218 76t73 184
q0 199 -161 270q-89 41 -211 41q-252 0 -419 -88l-30 76q227 92 445 92z" />
    <glyph glyph-name="four.tosf" horiz-adv-x="1169" 
d="M883 -41v-369h-86v369h-717q208 234 287 522q41 150 41 301h84q0 -220 -74 -414t-180 -329h559v1005h86v-1005h200v-80h-200z" />
    <glyph glyph-name="five.tosf" horiz-adv-x="1255" 
d="M1049 76q0 154 -80 245q-77 83 -161 107q-84 23 -155 25q-229 0 -436 -70v641h883v-80h-801v-465q192 54 381 48q190 -6 323 -112q134 -106 134 -344t-178 -385q-95 -81 -245 -112q-67 -14 -136 -14q-266 0 -465 133l37 80q179 -137 407 -136q229 1 361 119
q131 119 131 320z" />
    <glyph glyph-name="six.tosf" horiz-adv-x="1282" 
d="M642 51q196 0 311 118q116 118 116 303t-104 294t-273 108q-292 0 -418 -240q-33 -62 -45 -132q23 -227 120 -339t293 -112zM221 707v-43q61 141 191 214t284 72q213 0 337 -136t124 -343q0 -145 -72 -262q-73 -117 -187 -178t-251 -61q-276 -1 -393 183
q-117 185 -117 546q0 362 150 565t409 202q137 0 243 -49t202 -160l-54 -63q-67 92 -169 143t-224 52q-274 0 -393 -254q-80 -182 -80 -428z" />
    <glyph glyph-name="seven.tosf" horiz-adv-x="1132" 
d="M123 1022h928q-18 -307 -213 -563q-52 -69 -147 -179t-135 -172q-143 -222 -142 -520h-90q0 312 154 543q69 103 137 182q69 80 72 83t6 7t7 9q227 262 254 530h-831v80z" />
    <glyph glyph-name="eight.tosf" horiz-adv-x="1310" 
d="M635 324q-239 0 -347 -87t-108 -241t113 -252t342 -104q229 6 341 104t111 264q0 202 -196 277q-102 39 -256 39zM229 664q1 -144 95 -202t312 -58t310 66q92 67 92 194q0 164 -116 236q-116 73 -287 75q-236 4 -346 -130q-60 -72 -60 -181zM92 24q0 122 88 220
q88 100 219 118q-121 14 -189 98t-69 196q0 297 320 377q85 22 197 22t221 -41t179 -132t68 -214q0 -124 -68 -208t-192 -98q133 -18 221 -117t89 -239q0 -223 -150 -335t-391 -111q-402 0 -510 262q-33 80 -33 202z" />
    <glyph glyph-name="nine.tosf" horiz-adv-x="1282" 
d="M612 983q-196 0 -311 -118t-115 -303t104 -294t273 -108q105 0 191 34t139 89q105 109 133 249q-23 227 -120 339q-98 112 -294 112zM559 -354q276 0 395 254q80 182 80 428v43q-61 -141 -191 -214t-284 -73q-213 0 -337 136t-124 349t150 355t356 141q280 0 398 -187
t116 -554q0 -230 -66 -402t-194 -263t-282 -91t-260 49t-203 160l55 63q66 -92 168 -143t223 -51z" />
    <glyph glyph-name="zero.osf" horiz-adv-x="1363" 
d="M683 975q-216 0 -339 -126t-123 -342t123 -337t336 -121q289 0 403 203q59 104 60 254q0 209 -122 339t-338 130zM680 1055q137 0 246 -45q198 -82 271 -296q34 -97 34 -208q0 -172 -72 -294q-142 -241 -479 -243q-180 0 -306 75q-241 143 -241 462q1 258 151 404
t396 145z" />
    <glyph glyph-name="one.osf" horiz-adv-x="759" 
d="M532 0h-86v954l-358 -102l-25 70l469 133v-1055z" />
    <glyph glyph-name="two.osf" horiz-adv-x="1189" 
d="M622 1055q286 0 394 -146q55 -76 55 -170q-1 -94 -21 -135t-58 -79t-80 -58q-42 -21 -64 -31t-66 -23l-64 -19q-22 -6 -67 -18q-186 -45 -284 -97q-99 -52 -133 -95t-48 -106h883v-78h-979q0 146 86 236q125 125 371 187q247 63 325 112t101 105q14 36 14 79
q0 119 -88 189t-278 71q-277 -2 -439 -168l-39 70q82 78 209 126q126 48 270 48z" />
    <glyph glyph-name="three.osf" horiz-adv-x="1214" 
d="M595 1061q218 0 341 -111t123 -280q-1 -106 -61 -192t-150 -109q110 -31 184 -129t74 -228q0 -214 -139 -330t-375 -116q-160 0 -304 51t-216 113l39 67q77 -57 197 -104t243 -47t195 17q272 64 272 349q0 146 -94 232t-248 86h-232v80h236q145 0 218 76t73 184
q0 199 -161 270q-89 41 -211 41q-252 0 -419 -88l-30 76q227 92 445 92z" />
    <glyph glyph-name="four.osf" horiz-adv-x="1169" 
d="M883 -410h-86v369h-717q208 234 287 522q41 150 41 301h84q0 -220 -74 -414t-180 -329h559v1005h86v-1005h200v-80h-200v-369z" />
    <glyph glyph-name="five.osf" horiz-adv-x="1255" 
d="M1049 76q0 154 -80 245q-77 83 -161 107q-84 23 -155 25q-229 0 -436 -70v641h883v-80h-801v-465q192 54 381 48q190 -6 323 -112q134 -106 134 -344t-178 -385q-95 -81 -245 -112q-67 -14 -136 -14q-266 0 -465 133l37 80q179 -137 407 -136q229 1 361 119
q131 119 131 320z" />
    <glyph glyph-name="six.osf" horiz-adv-x="1282" 
d="M642 51q196 0 311 118q116 118 116 303t-104 294t-273 108q-292 0 -418 -240q-33 -62 -45 -132q23 -227 120 -339t293 -112zM221 707v-43q61 141 191 214t284 72q213 0 337 -136t124 -343q0 -145 -72 -262q-73 -117 -187 -178t-251 -61q-276 -1 -393 183
q-117 185 -117 546q0 362 150 565t409 202q137 0 243 -49t202 -160l-54 -63q-67 92 -169 143t-224 52q-274 0 -393 -254q-80 -182 -80 -428z" />
    <glyph glyph-name="seven.osf" horiz-adv-x="1132" 
d="M123 1022h928q-18 -307 -213 -563q-52 -69 -147 -179t-135 -172q-143 -222 -142 -520h-90q0 312 154 543q69 103 137 182q69 80 72 83t6 7t7 9q227 262 254 530h-831v80z" />
    <glyph glyph-name="eight.osf" horiz-adv-x="1310" 
d="M635 324q-239 0 -347 -87t-108 -241t113 -252t342 -104q229 6 341 104t111 264q0 202 -196 277q-102 39 -256 39zM229 664q1 -144 95 -202t312 -58t310 66q92 67 92 194q0 164 -116 236q-116 73 -287 75q-236 4 -346 -130q-60 -72 -60 -181zM92 24q0 122 88 220
q88 100 219 118q-121 14 -189 98t-69 196q0 297 320 377q85 22 197 22t221 -41t179 -132t68 -214q0 -124 -68 -208t-192 -98q133 -18 221 -117t89 -239q0 -223 -150 -335t-391 -111q-402 0 -510 262q-33 80 -33 202z" />
    <glyph glyph-name="nine.osf" horiz-adv-x="1282" 
d="M612 983q-196 0 -311 -118t-115 -303t104 -294t273 -108q105 0 191 34t139 89q105 109 133 249q-23 227 -120 339q-98 112 -294 112zM559 -354q276 0 395 254q80 182 80 428v43q-61 -141 -191 -214t-284 -73q-213 0 -337 136t-124 349t150 355t356 141q280 0 398 -187
t116 -554q0 -230 -66 -402t-194 -263t-282 -91t-260 49t-203 160l55 63q66 -92 168 -143t223 -51z" />
    <glyph glyph-name="zero.lf" horiz-adv-x="1445" 
d="M721 1382q-238 0 -369 -173t-131 -492t131 -493t369 -173q238 0 371 174t133 492q0 430 -234 589q-112 76 -270 76zM1313 729q0 -360 -156 -560t-436 -200q-127 0 -229 43t-168 115q-188 205 -191 590q-1 347 153 547t423 200t427 -175q177 -200 177 -560z" />
    <glyph glyph-name="one.lf" horiz-adv-x="759" 
d="M532 0h-86v1358l-358 -103l-25 76l469 133v-1464z" />
    <glyph glyph-name="two.lf" horiz-adv-x="1163" 
d="M1018 80v-80h-928q0 175 70 274q27 39 48 67q79 101 365 241q50 24 106 54q144 76 228 212q73 112 45 270t-161 229q-136 70 -379 13q-113 -27 -213 -82l-35 70q223 117 444 116q132 0 232 -55t152 -151t52 -200q0 -103 -36 -192q-69 -173 -256 -278q-33 -18 -146 -72
q-206 -98 -308 -193q-101 -95 -124 -243h844z" />
    <glyph glyph-name="three.lf" horiz-adv-x="1214" 
d="M586 1464q220 0 341 -110q122 -110 122 -281q-1 -106 -61 -191t-150 -110q110 -31 184 -129t74 -227q0 -215 -138 -331t-376 -116q-160 0 -304 51t-217 113l41 68q76 -57 197 -105t243 -47q122 -1 196 17q270 65 270 350q0 147 -94 232t-246 85h-234v80h236q145 0 218 77
t73 183q0 198 -160 270q-87 41 -210 41t-235 -24t-184 -64l-33 76q227 92 447 92z" />
    <glyph glyph-name="four.lf" horiz-adv-x="1169" 
d="M883 369v-369h-86v369h-717q209 235 287 522q41 150 41 301h84q0 -219 -74 -414t-180 -329h559v1005h86v-1005h200v-80h-200z" />
    <glyph glyph-name="five.lf" horiz-adv-x="1255" 
d="M299 1354v-465q192 54 381 48t323 -112q134 -107 134 -343t-178 -387q-94 -79 -245 -111q-67 -14 -136 -15q-266 0 -465 133l37 80q176 -135 406 -135t362 119q131 119 131 319q0 156 -79 243t-165 110q-85 24 -152 24q-229 0 -436 -69v641h883v-80h-801z" />
    <glyph glyph-name="six.lf" horiz-adv-x="1282" 
d="M642 51q196 0 311 118q116 118 116 303t-104 294t-273 108q-292 0 -418 -240q-33 -62 -45 -132q23 -227 120 -339t293 -112zM221 707v-43q61 141 191 214t284 72q213 0 337 -136t124 -343q0 -145 -72 -262q-73 -117 -187 -178t-251 -61q-276 -1 -393 183
q-117 185 -117 546q0 362 150 565t409 202q137 0 243 -49t202 -160l-54 -63q-67 92 -169 143t-224 52q-274 0 -393 -254q-80 -182 -80 -428z" />
    <glyph glyph-name="seven.lf" horiz-adv-x="1132" 
d="M123 1434h928q-18 -307 -213 -564q-68 -90 -204 -244q-90 -104 -145 -231q-76 -168 -75 -395h-90q0 312 154 543q69 103 137 182q69 80 72 83t6 7t7 8q227 262 254 531h-831v80z" />
    <glyph glyph-name="eight.lf" horiz-adv-x="1310" 
d="M1108 410q0 323 -453 323q-239 0 -347 -87q-108 -86 -108 -240t114 -252q112 -98 341 -105q229 7 341 105t112 256zM250 1073q0 -143 94 -201t312 -59q218 0 311 67q92 67 92 193q0 163 -117 237t-287 74q-236 4 -346 -130q-59 -72 -59 -181zM1196 416q0 -223 -150 -335
t-391 -112q-402 0 -510 262q-33 80 -32 185q0 139 88 238t219 118q-121 14 -190 98q-68 84 -68 196q1 293 319 377q85 21 197 21t221 -41t179 -132t69 -214t-69 -207t-191 -98q133 -18 221 -118t88 -238z" />
    <glyph glyph-name="nine.lf" horiz-adv-x="1282" 
d="M608 1384q-196 0 -311 -118t-115 -302q0 -185 104 -294t273 -109q240 0 370 168q73 94 93 205q-23 226 -120 338q-98 112 -294 112zM555 47q276 0 395 254q80 182 80 428v43q-61 -141 -191 -214t-284 -73q-213 1 -337 137t-124 343q0 145 72 262t186 178t252 61
q276 0 393 -185t117 -546q0 -360 -150 -563t-409 -203q-137 0 -243 49t-203 160l55 64q88 -125 237 -171q74 -24 154 -24z" />
    <glyph glyph-name="zero.tf" horiz-adv-x="1445" 
d="M721 1382q-238 0 -369 -173t-131 -492t131 -493t369 -173q238 0 371 174t133 492q0 430 -234 589q-112 76 -270 76zM1313 729q0 -360 -156 -560t-436 -200q-127 0 -229 43t-168 115q-188 205 -191 590q-1 347 153 547t423 200t427 -175q177 -200 177 -560z" />
    <glyph glyph-name="one.tf" horiz-adv-x="759" 
d="M532 0h-86v1358l-358 -103l-25 76l469 133v-1464z" />
    <glyph glyph-name="two.tf" horiz-adv-x="1163" 
d="M1018 80v-80h-928q0 175 70 274q27 39 48 67q79 101 365 241q50 24 106 54q144 76 228 212q73 112 45 270t-161 229q-136 70 -379 13q-113 -27 -213 -82l-35 70q223 117 444 116q132 0 232 -55t152 -151t52 -200q0 -103 -36 -192q-69 -173 -256 -278q-33 -18 -146 -72
q-206 -98 -308 -193q-101 -95 -124 -243h844z" />
    <glyph glyph-name="three.tf" horiz-adv-x="1214" 
d="M586 1464q220 0 341 -110q122 -110 122 -281q-1 -106 -61 -191t-150 -110q110 -31 184 -129t74 -227q0 -215 -138 -331t-376 -116q-160 0 -304 51t-217 113l41 68q76 -57 197 -105t243 -47q122 -1 196 17q270 65 270 350q0 147 -94 232t-246 85h-234v80h236q145 0 218 77
t73 183q0 198 -160 270q-87 41 -210 41t-235 -24t-184 -64l-33 76q227 92 447 92z" />
    <glyph glyph-name="four.tf" horiz-adv-x="1169" 
d="M883 369v-369h-86v369h-717q209 235 287 522q41 150 41 301h84q0 -219 -74 -414t-180 -329h559v1005h86v-1005h200v-80h-200z" />
    <glyph glyph-name="five.tf" horiz-adv-x="1255" 
d="M299 1354v-465q192 54 381 48t323 -112q134 -107 134 -343t-178 -387q-94 -79 -245 -111q-67 -14 -136 -15q-266 0 -465 133l37 80q176 -135 406 -135t362 119q131 119 131 319q0 156 -79 243t-165 110q-85 24 -152 24q-229 0 -436 -69v641h883v-80h-801z" />
    <glyph glyph-name="six.tf" horiz-adv-x="1282" 
d="M642 51q196 0 311 118q116 118 116 303t-104 294t-273 108q-292 0 -418 -240q-33 -62 -45 -132q23 -227 120 -339t293 -112zM221 707v-43q61 141 191 214t284 72q213 0 337 -136t124 -343q0 -145 -72 -262q-73 -117 -187 -178t-251 -61q-276 -1 -393 183
q-117 185 -117 546q0 362 150 565t409 202q137 0 243 -49t202 -160l-54 -63q-67 92 -169 143t-224 52q-274 0 -393 -254q-80 -182 -80 -428z" />
    <glyph glyph-name="seven.tf" horiz-adv-x="1132" 
d="M123 1434h928q-18 -307 -213 -564q-68 -90 -204 -244q-90 -104 -145 -231q-76 -168 -75 -395h-90q0 312 154 543q69 103 137 182q69 80 72 83t6 7t7 8q227 262 254 531h-831v80z" />
    <glyph glyph-name="eight.tf" horiz-adv-x="1310" 
d="M1108 410q0 323 -453 323q-239 0 -347 -87q-108 -86 -108 -240t114 -252q112 -98 341 -105q229 7 341 105t112 256zM250 1073q0 -143 94 -201t312 -59q218 0 311 67q92 67 92 193q0 163 -117 237t-287 74q-236 4 -346 -130q-59 -72 -59 -181zM1196 416q0 -223 -150 -335
t-391 -112q-402 0 -510 262q-33 80 -32 185q0 139 88 238t219 118q-121 14 -190 98q-68 84 -68 196q1 293 319 377q85 21 197 21t221 -41t179 -132t69 -214t-69 -207t-191 -98q133 -18 221 -118t88 -238z" />
    <glyph glyph-name="nine.tf" horiz-adv-x="1282" 
d="M608 1384q-196 0 -311 -118t-115 -302q0 -185 104 -294t273 -109q240 0 370 168q73 94 93 205q-23 226 -120 338q-98 112 -294 112zM555 47q276 0 395 254q80 182 80 428v43q-61 -141 -191 -214t-284 -73q-213 1 -337 137t-124 343q0 145 72 262t186 178t252 61
q276 0 393 -185t117 -546q0 -360 -150 -563t-409 -203q-137 0 -243 49t-203 160l55 64q88 -125 237 -171q74 -24 154 -24z" />
    </font>
</defs>
</svg>
