<?xml version="1.0" standalone="no"?>
<!DOCTYPE svg PUBLIC "-//W3C//DTD SVG 1.1//EN" "http://www.w3.org/Graphics/SVG/1.1/DTD/svg11.dtd" >
<svg xmlns="http://www.w3.org/2000/svg">
<metadata>
Created by FontPrep 20130207 at Wed Mar  5 16:52:17 2014
 By Drew Rios
Copyright (c) 2013 by Avondale Type Co. All rights reserved.
</metadata>
<defs>
<font id="9ad64c0539231258ad57ffddefd31c11" >
  <font-face 
    font-family="ATCOverlook-HeavyItalic"
    font-weight="800"
    font-style="italic"
    font-stretch="normal"
    units-per-em="2048"
    panose-1="0 0 9 0 0 0 0 0 0 0"
    ascent="1638"
    descent="-410"
    x-height="1024"
    cap-height="1434"
    bbox="-362 -709 2269 1884"
    underline-thickness="102"
    underline-position="-102"
    slope="-10"
    unicode-range="U+0020-25CA"
  />
<missing-glyph horiz-adv-x="1228" 
 />
    <glyph glyph-name="f_f" unicode="ff" horiz-adv-x="1323" 
d="M584 1024h284l4 18q35 214 104 320t192 134t309 -15l-54 -310q-143 39 -178 15q-31 -18 -47 -129q0 -4 -4 -33h203l-47 -266h-201l-133 -758h-328l133 758h-282l-133 -758h-328l133 758h-123l47 266h123l4 18q35 214 104 320q70 106 192 134t308 -15l-53 -310
q-41 9 -71 17t-83 8t-65 -105q-2 -17 -6 -40t-4 -27z" />
    <glyph glyph-name="f_f_i" unicode="ffi" horiz-adv-x="1734" 
d="M1501 1204q-75 0 -109 -7t-57 -35t-31 -56t-18 -82h524l-180 -1024h-327l133 758h-197l-133 -758h-328l133 758h-282l-133 -758h-328l133 758h-123l47 266h123l4 18q35 214 105 320q71 106 193 134t306 -15l-53 -310q-143 39 -176 17t-53 -164h284l5 18q23 136 57 222
q77 193 263 231q210 42 603 -43l-55 -309q-255 61 -330 61z" />
    <glyph glyph-name=".notdef" horiz-adv-x="1228" 
 />
    <glyph glyph-name=".null" horiz-adv-x="0" 
 />
    <glyph glyph-name="nonmarkingreturn" horiz-adv-x="681" 
 />
    <glyph glyph-name="space" unicode=" " horiz-adv-x="567" 
 />
    <glyph glyph-name="exclam" unicode="!" horiz-adv-x="546" 
d="M238 307q70 0 108 -47t25 -117q-13 -71 -67 -117t-124 -46t-108 47t-27 117t67 116q56 47 126 47zM426 498h-307l172 977h307z" />
    <glyph glyph-name="quotedbl" unicode="&#x22;" horiz-adv-x="780" 
d="M834 1239h-211l34 399h281zM444 1239h-211l35 399h281z" />
    <glyph glyph-name="numbersign" unicode="#" horiz-adv-x="1318" 
d="M629 842l-76 -242h207l76 242h-207zM1130 840l-73 -238h151l-47 -268h-192l-105 -334h-297l105 334h-205l-105 -334h-296l104 334h-139l47 268h178l76 238h-148l47 268h187l102 326h299l-104 -326h207l102 326h297l-102 -326h143l-47 -268h-185z" />
    <glyph glyph-name="dollar" unicode="$" horiz-adv-x="1171" 
d="M92 371q123 -93 275 -94t228 61q40 34 50 90t-37 100q-48 44 -122 72q-274 98 -331 159q-57 62 -69 92q-39 97 -16 202q23 127 104 218q151 168 434 189l31 178h266l-33 -188q130 -21 234 -68l-160 -272q-102 45 -215 62q-113 16 -201 -8t-98 -84t30 -95t142 -65
q209 -61 322 -168q113 -108 78 -316q-28 -168 -132 -273t-254 -155l-38 -213h-267l31 170q-156 -2 -285 38t-170 99z" />
    <glyph glyph-name="percent" unicode="%" horiz-adv-x="1753" 
d="M1358 512q-123 0 -151 -162q-27 -162 95 -162t150 162q29 162 -94 162zM1399 717q160 1 221 -99q60 -100 32 -267t-129 -267t-258 -100t-223 100t-36 267t132 267q101 100 261 99zM528 1270q-122 0 -150 -162t94 -162t151 162q28 162 -95 162zM393 0h-291l1305 1434h289z
M569 1475q161 1 223 -99t32 -267t-131 -267t-258 -100t-223 100t-35 267q30 167 131 267t261 99z" />
    <glyph glyph-name="ampersand" unicode="&#x26;" horiz-adv-x="1429" 
d="M564 301q100 0 184 41l-203 246q-121 -57 -137 -150q-12 -63 22 -100t134 -37zM778 1194q-50 0 -87 -33q-36 -33 -42 -72t3 -63t57 -84q71 29 105 62q34 34 44 78t-10 78t-70 34zM465 -41q-231 0 -353 123t-87 317q23 127 108 240q86 113 236 184q-47 72 -65 133
q-17 61 -4 134q27 151 160 268t380 117q248 0 334 -168q38 -74 18 -220q-47 -236 -303 -362l100 -121q25 54 43 113h352q-66 -193 -186 -361l141 -170l-270 -235l-123 149q-201 -141 -481 -141z" />
    <glyph glyph-name="quotesingle" unicode="'" horiz-adv-x="391" 
d="M426 1137h-211l35 399h280z" />
    <glyph glyph-name="parenleft" unicode="(" horiz-adv-x="847" 
d="M829 1475l80 -263q-215 -126 -334 -280t-155 -365t28 -367t234 -280l-172 -260q-510 318 -408 908t727 907z" />
    <glyph glyph-name="parenright" unicode=")" horiz-adv-x="847" 
d="M184 1212l174 263q510 -319 408 -907t-727 -908l-82 260q215 125 335 281q120 157 157 367t-29 364t-236 280z" />
    <glyph glyph-name="asterisk" unicode="*" horiz-adv-x="729" 
d="M543 1217l205 126l49 -122l-226 -97l193 -92l-94 -129l-160 131l-21 -221h-143l57 221l-204 -131l-49 129l225 92l-193 97l94 122l160 -126l21 221h143z" />
    <glyph glyph-name="plus" unicode="+" horiz-adv-x="1257" 
d="M1139 502h-379l-68 -379h-266l68 379h-379l47 266h379l67 379h266l-67 -379h379z" />
    <glyph glyph-name="comma" unicode="," horiz-adv-x="454" 
d="M168 303q70 0 108 -45t22 -128q-15 -83 -171 -286h-98l65 138q-61 4 -95 51t-23 113q10 66 66 112q56 45 126 45z" />
    <glyph glyph-name="hyphen" unicode="-" horiz-adv-x="675" 
d="M569 371h-512l47 266h512z" />
    <glyph glyph-name="period" unicode="." horiz-adv-x="495" 
d="M213 313q72 0 111 -46q38 -45 26 -115t-70 -121t-127 -51t-108 51t-27 121t68 115q56 46 127 46z" />
    <glyph glyph-name="slash" unicode="/" horiz-adv-x="1038" 
d="M68 -348h-297l1218 1982h297z" />
    <glyph glyph-name="zero" unicode="0" horiz-adv-x="1347" 
d="M638 313q134 1 205 103t98 263t25 251q-6 190 -188 190q-134 0 -202 -101t-103 -302q-41 -182 -5 -293t170 -111zM840 1464q156 0 264 -63t154 -167q44 -104 58 -240t-16 -277q-61 -348 -252 -548t-473 -200q-157 0 -265 66t-151 171q-99 237 -38 511q61 347 249 547
t470 200z" />
    <glyph glyph-name="one" unicode="1" horiz-adv-x="794" 
d="M823 1464l-258 -1464h-358l186 1053l-198 -54l-43 283z" />
    <glyph glyph-name="two" unicode="2" horiz-adv-x="1189" 
d="M774 1464q213 0 333 -110t110 -292q-10 -183 -168 -362q-80 -87 -161 -138q-81 -50 -225 -118t-198 -116h590l-58 -328h-1020q25 137 82 256t117 193q60 75 146 143q88 68 138 96t136 71q86 41 132 71t82 73t42 98t-32 95t-112 41q-74 0 -182 -39t-221 -123l-98 289
q182 116 300 158t267 42z" />
    <glyph glyph-name="three" unicode="3" horiz-adv-x="1142" 
d="M451 623h-132l50 280h133q221 0 266 131q24 66 -24 98q-86 58 -400 -42l-78 282q242 92 462 92t323 -110q102 -111 71 -281q-18 -102 -90 -189t-153 -112q92 -31 145 -130t31 -226q-39 -215 -198 -331t-396 -116q-152 1 -300 53t-192 111l191 273q156 -102 319 -103
q234 0 232 176q-2 80 -67 112t-193 32z" />
    <glyph glyph-name="four" unicode="4" horiz-adv-x="1265" 
d="M1098 614h129l-51 -286h-129l-58 -328h-348l57 328h-702q170 180 276 416t144 448h313q-53 -299 -188 -578h209l147 840h348z" />
    <glyph glyph-name="five" unicode="5" horiz-adv-x="1183" 
d="M430 -31q-287 0 -461 133l174 308q100 -76 252 -100t242 30t108 160t-55 151q-74 45 -217 45t-319 -49l139 787h917l-53 -308h-569l-33 -184q197 21 342 -40q258 -109 205 -413q-45 -250 -244 -385t-428 -135z" />
    <glyph glyph-name="six" unicode="6" horiz-adv-x="1263" 
d="M438 397q47 -145 191 -119q70 12 123 70q53 56 70 154t-18 154q-36 56 -122 56t-153 -39q-67 -40 -103 -104q-10 -102 12 -172zM821 1167q-174 0 -284 -194q-27 -47 -50 -111q125 88 293 88q224 0 324 -135t62 -349t-219 -355t-390 -142q-281 -1 -393 181t-50 538
t272 566q210 212 478 212t412 -209l-234 -227q-74 137 -221 137z" />
    <glyph glyph-name="seven" unicode="7" horiz-adv-x="1200" 
d="M256 1434h1047q-51 -285 -265 -541q-55 -66 -164 -167q-108 -102 -184 -196q-168 -210 -223 -530h-346q47 264 182 492t303 380t230 254h-633z" />
    <glyph glyph-name="eight" unicode="8" horiz-adv-x="1196" 
d="M616 602q-100 0 -158 -47t-72 -121q-27 -148 173 -158q200 10 227 162q14 80 -28 122t-142 42zM669 899q85 0 134 38t58 90t-11 83t-54 41t-81 12q-175 -4 -195 -133q-10 -61 27 -96t122 -35zM504 -31q-134 -1 -221 27q-86 28 -129 61t-77 82q-61 88 -36 277
q23 129 116 228t216 128q-92 25 -140 110q-47 85 -29 190t78 183q58 78 139 122q164 89 360 88t319 -101t90 -291q-25 -148 -149 -240q-58 -44 -123 -61q153 -41 199 -195q22 -75 7 -161q-39 -223 -208 -335t-412 -112z" />
    <glyph glyph-name="nine" unicode="9" horiz-adv-x="1255" 
d="M547 822q23 -99 155 -99q70 0 137 40t103 103q14 154 -42 232t-163 59q-68 -13 -121 -69t-66 -138t-3 -128zM588 485q-224 -1 -324 135t-62 350t219 355t390 141q281 0 393 -181t50 -537t-272 -567q-210 -212 -478 -212t-412 209l234 228q74 -137 221 -138q174 0 284 195
q27 47 50 110q-125 -88 -293 -88z" />
    <glyph glyph-name="colon" unicode=":" horiz-adv-x="526" 
d="M227 307q70 0 108 -47q37 -47 25 -117q-12 -71 -66 -117t-124 -46t-109 47t-27 117t68 116q55 47 125 47zM358 1044q70 0 108 -46t26 -116t-66 -117q-54 -48 -125 -48t-109 48t-26 118q12 69 67 115t125 46z" />
    <glyph glyph-name="semicolon" unicode=";" horiz-adv-x="475" 
d="M178 303q70 0 108 -45t22 -128t-171 -286h-98l65 138q-61 4 -95 51q-35 47 -23 113t67 112q55 45 125 45zM309 1044q70 0 108 -46q37 -46 25 -116t-66 -117q-54 -48 -124 -48t-109 48t-26 118q12 69 67 115t125 46z" />
    <glyph glyph-name="less" unicode="&#x3c;" horiz-adv-x="1380" 
d="M1278 856l-561 -213l483 -219l-49 -279l-999 492l1167 469z" />
    <glyph glyph-name="equal" unicode="=" horiz-adv-x="1269" 
d="M1112 317h-1024l47 267h1024zM1186 727h-1024l45 266h1024z" />
    <glyph glyph-name="greater" unicode="&#x3e;" horiz-adv-x="1380" 
d="M1274 637l-1176 -492l49 279l562 219l-484 213l45 250z" />
    <glyph glyph-name="question" unicode="?" horiz-adv-x="950" 
d="M373 307q69 0 107 -47t26 -117q-12 -71 -66 -117t-125 -46t-109 47t-26 117t68 116q56 47 125 47zM520 1176q-145 0 -284 -74l-64 274q258 84 453 90q211 0 309 -116t67 -289q-31 -174 -147 -285t-254 -139l-25 -141h-327l59 335q137 1 243 49t122 138q27 158 -152 158z
" />
    <glyph glyph-name="at" unicode="@" horiz-adv-x="1974" 
d="M1017 805q-77 0 -141 -65t-99 -156q-34 -91 -22 -141q29 -134 204 -71q88 30 159 101l66 186q-8 66 -49 106t-118 40zM1159 1479q184 0 339 -67q155 -66 253 -178t142 -260q45 -148 15 -316q-63 -357 -292 -496q-121 -74 -283 -74q-98 0 -166 33t-96 84
q-168 -104 -330 -105q-109 0 -183 40q-137 75 -132 260q2 85 35 180q70 201 235 341q166 140 381 140q137 0 221 -80l15 41h262q-180 -518 -201 -598q-41 -154 12 -188q27 -16 84 -17q111 0 200 120t126 325q49 276 -140 491t-519 215t-596 -230q-265 -230 -323 -559
t128 -556t533 -228q254 0 510 133l41 -88q-278 -154 -552 -154t-463 122t-271 326t-40 446q43 242 198 448t383 327q228 122 474 122z" />
    <glyph glyph-name="A" unicode="A" horiz-adv-x="1482" 
d="M874 471l-83 322l-197 -322h280zM946 205h-516l-127 -205h-379l987 1475l467 -1475h-379z" />
    <glyph glyph-name="B" unicode="B" horiz-adv-x="1359" 
d="M582 297q219 0 271 28q71 35 85 119q18 107 -90 133q-76 17 -198 17h-161l-53 -297h146zM598 881q193 0 252 16q96 31 113 114t-73 106q-72 18 -204 18h-100l-45 -254h57zM907 1434q223 0 334 -96t80 -269q-47 -256 -287 -319q303 -53 252 -344q-37 -201 -186 -304
q-150 -102 -389 -102h-674l252 1434h618z" />
    <glyph glyph-name="C" unicode="C" horiz-adv-x="1409" 
d="M694 -31q-304 0 -447 156q-144 156 -146 367q-1 109 16 225q61 350 286 549t541 198q176 0 318 -74t219 -214l-299 -211q-35 73 -116 121t-169 49q-180 0 -290 -111q-109 -110 -143 -306t37 -308t249 -111q84 0 184 50t160 120l225 -207q-127 -141 -297 -217t-328 -76z
" />
    <glyph glyph-name="D" unicode="D" horiz-adv-x="1435" 
d="M584 328q76 0 135 12t130 48q149 75 193 327q27 113 -7 232q-17 66 -92 113q-75 46 -222 46h-141l-138 -778h142zM778 1434q238 0 392 -96t205 -258q52 -161 16 -365q-61 -347 -299 -531t-566 -184h-489l252 1434h489z" />
    <glyph glyph-name="E" unicode="E" horiz-adv-x="1294" 
d="M580 1106l-39 -225h684l-56 -308h-684l-43 -245h742l-58 -328h-1089l252 1434h1089l-57 -328h-741z" />
    <glyph glyph-name="F" unicode="F" horiz-adv-x="1265" 
d="M580 1106l-39 -225h678l-56 -308h-678l-100 -573h-348l252 1434h1083l-57 -328h-735z" />
    <glyph glyph-name="G" unicode="G" horiz-adv-x="1478" 
d="M916 1464q424 0 585 -288l-268 -191q-53 78 -138 126t-188 48q-174 0 -292 -123q-117 -122 -151 -318t38 -319t228 -123t278 78l34 189h-200l47 266h549l-99 -547q-262 -293 -653 -293t-532 317q-78 173 -38 416q40 244 167 417t299 259t334 86z" />
    <glyph glyph-name="H" unicode="H" horiz-adv-x="1515" 
d="M1554 1434l-251 -1434h-349l101 573h-574l-100 -573h-348l252 1434h348l-98 -555h573l98 555h348z" />
    <glyph glyph-name="I" unicode="I" horiz-adv-x="618" 
d="M393 0h-348l252 1434h348z" />
    <glyph glyph-name="J" unicode="J" horiz-adv-x="1009" 
d="M346 287q86 0 132 45t75 200l158 902h348l-176 -1026q-74 -438 -539 -439q-315 0 -422 166l217 250q84 -98 207 -98z" />
    <glyph glyph-name="K" unicode="K" horiz-adv-x="1409" 
d="M809 739l522 -739h-420l-346 489l-114 -116l-66 -373h-348l252 1434h348l-109 -615l582 615h379z" />
    <glyph glyph-name="L" unicode="L" horiz-adv-x="1255" 
d="M1174 307l-54 -307h-1083l252 1434h348l-199 -1127h736z" />
    <glyph glyph-name="M" unicode="M" horiz-adv-x="1699" 
d="M1751 1495l-264 -1495h-348l127 725l-443 -363l-315 361l-127 -723h-348l264 1495l602 -707z" />
    <glyph glyph-name="N" unicode="N" horiz-adv-x="1454" 
d="M1231 -61l-721 792l-129 -731h-348l264 1495l719 -795l129 734h348z" />
    <glyph glyph-name="O" unicode="O" horiz-adv-x="1605" 
d="M913 1137q-177 0 -291 -110q-114 -111 -149 -311t39 -310t252 -109q178 0 293 110q115 111 149 311t-40 310q-75 110 -253 109zM971 1464q227 0 377 -105t200 -273t17 -369q-61 -346 -307 -547t-554 -201t-480 201q-170 200 -112 530t289 547q232 217 570 217z" />
    <glyph glyph-name="P" unicode="P" horiz-adv-x="1259" 
d="M729 707q82 0 136 42q54 41 76 163q23 122 -39 178t-218 57h-102l-76 -440h223zM776 1434q303 0 429 -144t84 -378t-205 -363t-396 -129h-233l-74 -420h-348l252 1434h491z" />
    <glyph glyph-name="Q" unicode="Q" horiz-adv-x="1609" 
d="M676 297q178 0 293 110q115 111 149 311t-40 310q-75 110 -253 109q-177 1 -291 -109t-149 -311q-51 -271 98 -371q74 -49 193 -49zM866 1464q296 0 450 -150q155 -150 171 -367q8 -110 -10 -230q-59 -328 -291 -533l112 -284l-266 -140l-102 269q-150 -59 -306 -59
q-312 -1 -483 195q-82 93 -113 235q-32 142 -3 304t100 296q155 288 435 402q152 62 306 62z" />
    <glyph glyph-name="R" unicode="R" horiz-adv-x="1286" 
d="M629 686q174 0 231 53q58 53 76 152q33 181 -65 225q-71 31 -166 31h-123l-80 -461h127zM797 1434q276 0 405 -138t86 -385q-53 -303 -309 -434l190 -477h-381l-157 399h-180l-70 -399h-348l252 1434h512z" />
    <glyph glyph-name="S" unicode="S" horiz-adv-x="1163" 
d="M141 976q0 36 9 77q29 160 147 261q216 183 595 144q165 -17 294 -76l-160 -272q-102 45 -215 62q-113 16 -201 -8t-98 -84t30 -95t132 -61q229 -68 338 -180t71 -308q-25 -145 -110 -249q-86 -103 -199 -150t-242 -65q-241 -33 -444 51q-88 35 -119 79l203 269
q72 -53 166 -77t174 -16t140 46q60 36 72 98t-36 106t-122 72q-272 97 -329 157t-70 92q-13 31 -19 61t-7 66z" />
    <glyph glyph-name="T" unicode="T" horiz-adv-x="1224" 
d="M1286 1126h-391l-199 -1126h-348l199 1126h-389l53 308h1128z" />
    <glyph glyph-name="U" unicode="U" horiz-adv-x="1427" 
d="M616 -31q-294 0 -416 170q-124 170 -71 479l143 816h349l-134 -760q-41 -199 -1 -295t188 -96t218 91t107 300l134 760h348l-144 -813q-53 -309 -240 -481t-481 -171z" />
    <glyph glyph-name="V" unicode="V" horiz-adv-x="1441" 
d="M1589 1434l-973 -1514l-440 1514h379l193 -770l462 770h379z" />
    <glyph glyph-name="W" unicode="W" horiz-adv-x="2119" 
d="M1348 -82l-238 881l-547 -881l-389 1516h358l185 -748l514 789l233 -789l447 748h358z" />
    <glyph glyph-name="X" unicode="X" horiz-adv-x="1560" 
d="M1026 737l422 -737h-399l-273 487l-444 -487h-400l680 735l-397 699h399l250 -447l406 447h399z" />
    <glyph glyph-name="Y" unicode="Y" horiz-adv-x="1404" 
d="M1571 1434l-678 -828l-107 -606h-348l107 606l-387 828h379l235 -523l420 523h379z" />
    <glyph glyph-name="Z" unicode="Z" horiz-adv-x="1531" 
d="M641 317h756l-56 -317h-1347l993 1137h-690l51 297h1266z" />
    <glyph glyph-name="bracketleft" unicode="[" horiz-adv-x="835" 
d="M872 1188h-313l-219 -1249h313l-51 -287h-631l322 1823h631z" />
    <glyph glyph-name="backslash" unicode="\" horiz-adv-x="1103" 
d="M993 -348h-317l-518 1982h317z" />
    <glyph glyph-name="bracketright" unicode="]" horiz-adv-x="835" 
d="M561 -348h-631l52 287h313l219 1249h-313l51 287h631z" />
    <glyph glyph-name="asciicircum" unicode="^" horiz-adv-x="942" 
d="M676 1010l-92 157l-166 -157h-238l461 469l297 -469h-262z" />
    <glyph glyph-name="underscore" unicode="_" horiz-adv-x="1302" 
d="M1155 -348h-1311l43 246h1311z" />
    <glyph glyph-name="grave" unicode="`" horiz-adv-x="526" 
d="M672 1341h-240l-233 297h280z" />
    <glyph glyph-name="a" unicode="a" horiz-adv-x="1142" 
d="M504 477q-49 0 -96 -34q-46 -34 -56 -90q-23 -136 107 -136q135 0 231 72l25 137q-104 51 -211 51zM731 1051q221 -1 300 -97t50 -256l-123 -698h-288q-12 49 -11 96q-57 -57 -141 -94t-180 -37q-174 1 -260 107t-60 252t141 248q115 104 281 104t310 -55l4 22
q18 102 -21 133t-125 31q-168 0 -336 -84l-69 215q244 113 528 113z" />
    <glyph glyph-name="b" unicode="b" horiz-adv-x="1271" 
d="M636 260q85 0 144 68q58 68 78 178t-14 178t-131 68q-96 0 -185 -60q-44 -31 -77 -74l-39 -223q51 -135 224 -135zM854 1047q217 0 306 -150q89 -151 47 -393t-183 -392t-360 -149q-186 0 -304 152q-12 -53 -45 -115h-301l260 1475h328l-102 -584q168 156 354 156z" />
    <glyph glyph-name="c" unicode="c" horiz-adv-x="997" 
d="M498 -37q-260 -1 -371 145t-66 406t207 406t424 145q96 0 198 -37t148 -94l-143 -215q-97 84 -213 84q-227 0 -283 -289q-51 -289 179 -289q114 0 245 84l68 -215q-69 -57 -183 -94t-210 -37z" />
    <glyph glyph-name="d" unicode="d" horiz-adv-x="1271" 
d="M549 260q166 0 268 131l41 227q-55 134 -221 134q-80 0 -143 -65q-64 -65 -84 -181t20 -182q40 -64 119 -64zM416 -37q-217 0 -306 150t-49 393q60 329 284 469q116 72 261 72q186 0 301 -156l103 584h327l-260 -1475h-301q-12 59 -6 115q-168 -152 -354 -152z" />
    <glyph glyph-name="e" unicode="e" horiz-adv-x="1122" 
d="M621 784q-94 0 -146 -54q-51 -55 -74 -155h371q21 157 -64 194q-34 15 -87 15zM479 -37q-174 0 -279 81q-193 149 -141 462q43 248 208 394t390 147q267 1 351 -173t26 -503h-659q10 -156 145 -156q121 0 254 70l76 -211q-76 -49 -178 -80t-193 -31z" />
    <glyph glyph-name="f" unicode="f" horiz-adv-x="712" 
d="M660 1196q-18 0 -34 -18t-23 -48q-17 -69 -17 -106h200l-47 -266h-200l-133 -758h-328l133 758h-123l47 266h123l4 18q51 312 184 406t420 33l-53 -310q-97 25 -153 25z" />
    <glyph glyph-name="g" unicode="g" horiz-adv-x="1271" 
d="M640 764q-81 0 -143 -65q-63 -65 -83 -181t18 -182q38 -64 119 -64q171 0 270 134l39 223q-51 135 -220 135zM432 -465q-125 0 -268 39t-193 92l148 244q49 -43 138 -70q89 -26 199 -26t195 52q84 52 103 154l20 113q-168 -156 -370 -156t-292 150q-89 151 -47 393
t183 392t360 149q186 0 303 -152q12 53 45 115h301l-167 -950q-48 -262 -224 -400t-434 -139z" />
    <glyph glyph-name="h" unicode="h" 
d="M893 1051q170 1 243 -103t42 -270l-119 -678h-328l103 578q18 112 -32 154t-142 16t-203 -103l-115 -645h-328l260 1475h328l-102 -584q76 70 184 115t209 45z" />
    <glyph glyph-name="i" unicode="i" horiz-adv-x="587" 
d="M367 0h-328l180 1024h328zM479 1559q78 -1 123 -55t31 -132q-13 -78 -77 -133t-142 -55t-124 55t-32 133t78 132t143 55z" />
    <glyph glyph-name="j" unicode="j" horiz-adv-x="583" 
d="M-134 -180q42 0 57 19q38 48 52 121q29 150 29 163l160 901h328l-181 -1024q-57 -326 -216 -423t-457 -34l53 310q133 -33 175 -33zM432 1559q78 -1 123 -55t31 -132t-78 -133t-141 -55q-78 0 -124 55t-32 133q15 78 79 132t142 55z" />
    <glyph glyph-name="k" unicode="k" horiz-adv-x="1118" 
d="M707 543l331 -543h-379l-180 315l-98 -98l-39 -217h-328l260 1475h328l-151 -861l389 410h348z" />
    <glyph glyph-name="l" unicode="l" horiz-adv-x="555" 
d="M350 0h-325l260 1475h325z" />
    <glyph glyph-name="m" unicode="m" horiz-adv-x="1716" 
d="M815 1051q193 0 236 -144q170 143 358 144q307 0 240 -373l-119 -678h-328l117 662q18 98 -62 98q-98 0 -200 -74l-121 -686h-328l117 662q2 18 3 40t-15 39q-16 18 -49 19q-94 0 -201 -68l-121 -692h-328l181 1024h297q10 -27 6 -98q160 125 317 125z" />
    <glyph glyph-name="n" unicode="n" 
d="M893 1051q170 1 243 -103t42 -270l-119 -678h-328l103 578q18 112 -32 154t-144 16t-203 -103l-113 -645h-328l181 1024h297q12 -37 4 -137q76 72 186 118t211 46z" />
    <glyph glyph-name="o" unicode="o" horiz-adv-x="1165" 
d="M629 770q-97 0 -159 -73t-82 -193t14 -193q36 -73 132 -73t158 74q61 74 82 194q20 120 -14 192t-131 72zM486 -37q-242 0 -356 150q-114 149 -69 399t217 392t406 143q236 -1 348 -149t70 -392q-43 -244 -208 -394t-408 -149z" />
    <glyph glyph-name="p" unicode="p" horiz-adv-x="1271" 
d="M723 764q-166 0 -268 -131l-41 -227q55 -134 221 -134q80 0 143 65q64 65 84 181t-20 182q-40 64 -119 64zM856 1061q217 0 306 -150q89 -151 47 -393t-184 -392t-359 -149q-186 0 -299 156l-97 -543h-327l252 1434h301q12 -59 6 -115q168 152 354 152z" />
    <glyph glyph-name="q" unicode="q" horiz-adv-x="1271" 
d="M640 764q-81 0 -143 -65q-63 -65 -83 -181t18 -182q38 -64 119 -64q171 0 270 134l39 223q-51 135 -220 135zM404 -23q-202 0 -292 150q-89 151 -47 393t183 392t360 149q186 0 303 -152q12 55 45 115h301l-251 -1434h-328l96 543q-168 -156 -370 -156z" />
    <glyph glyph-name="r" unicode="r" horiz-adv-x="854" 
d="M195 1024h297q8 -31 4 -111q252 207 411 84l-135 -266q-57 49 -140 38t-169 -87l-121 -682h-328z" />
    <glyph glyph-name="s" unicode="s" horiz-adv-x="909" 
d="M510 1049q94 0 198 -27t169 -70l-129 -221q-120 80 -224 80t-112 -51q-10 -57 98 -86q180 -51 258 -132t50 -235t-171 -245t-293 -91q-150 1 -254 47q-102 46 -145 107l170 209q86 -100 214 -100t142 83q-2 15 1 27t-8 24t-14 18q-4 7 -20 16t-29 16t-51 16q-39 9 -53 15
q-131 37 -192 103t-39 187q25 147 148 229q124 81 286 81z" />
    <glyph glyph-name="t" unicode="t" horiz-adv-x="757" 
d="M537 758l-37 -211q-35 -199 -29 -232q8 -51 82 -43q35 2 102 19l-53 -297q-311 -61 -402 25q-73 69 -69 220q2 79 21 187l57 332h-123l47 266h123l80 451h328l-80 -451h200l-47 -266h-200z" />
    <glyph glyph-name="u" unicode="u" 
d="M352 -27q-170 -1 -242 103t-42 270l118 678h328l-102 -578q-18 -112 32 -154t142 -16q94 26 205 103l112 645h328l-180 -1024h-297q-12 37 -4 137q-76 -72 -186 -118t-212 -46z" />
    <glyph glyph-name="v" unicode="v" horiz-adv-x="1150" 
d="M1221 1024l-750 -1106l-360 1106h358l111 -481l282 481h359z" />
    <glyph glyph-name="w" unicode="w" horiz-adv-x="1705" 
d="M1055 -82l-207 559l-404 -559l-327 1106h348l123 -473l364 514l183 -514l288 473h349z" />
    <glyph glyph-name="x" unicode="x" horiz-adv-x="1120" 
d="M735 514l279 -512h-344l-154 274l-246 -274h-344l461 512l-281 512h345l151 -276l248 276h344z" />
    <glyph glyph-name="y" unicode="y" horiz-adv-x="1200" 
d="M1268 1024l-670 -1120q-169 -287 -356 -344q-168 -53 -371 30l127 246q114 -57 180 -26t154 190l-228 1024h359l119 -606l354 606h332z" />
    <glyph glyph-name="z" unicode="z" horiz-adv-x="1028" 
d="M485 264h418l-47 -264h-926l615 760h-398l48 264h903z" />
    <glyph glyph-name="braceleft" unicode="{" horiz-adv-x="913" 
d="M551 81q0 -50 44 -84t155 -63l-117 -274q-272 53 -338 160q-25 38 -36 70t-10 83t7 86t14 83t13 67q23 123 -23 174t-180 51h-33l51 287h33q135 0 198 51q62 51 83 174q35 193 53 244q59 160 244 235q102 43 247 70l21 -274q-92 -23 -143 -45t-80 -59t-37 -67
q-7 -30 -21 -107t-24 -115t-36 -98q-49 -113 -181 -152q120 -41 130 -146q7 -75 -5 -147q-13 -72 -21 -113t-8 -91z" />
    <glyph glyph-name="bar" unicode="|" horiz-adv-x="716" 
d="M350 -348h-287l351 1986h286z" />
    <glyph glyph-name="braceright" unicode="}" horiz-adv-x="913" 
d="M856 721h33l-51 -287h-33q-135 0 -197 -51t-84 -174q-33 -190 -51 -240q-57 -160 -242 -239q-100 -43 -249 -70l-23 274q92 22 144 44t80 60t37 68t31 151q22 122 56 185q57 98 176 136q-121 41 -129 152q-6 88 13 191q20 103 19 153t-45 84t-155 63l119 274
q239 -47 327 -144q68 -75 54 -200t-22 -159q-41 -158 8 -214q49 -57 184 -57z" />
    <glyph glyph-name="asciitilde" unicode="~" horiz-adv-x="1406" 
d="M1257 854l99 -109q-85 -119 -194 -207q-62 -50 -176 -69q-69 -12 -195 25q-126 36 -194 61t-90 31t-63 15t-61 6t-60 -14t-112 -83l-100 108q161 214 331 240q86 12 157 1t169 -44t142 -48t100 -25t75 -9t55 17t57 38t60 66z" />
    <glyph glyph-name="exclamdown" unicode="&#xa1;" horiz-adv-x="509" 
d="M246 -410h-307l163 938h308zM350 1047q72 1 110 -45t24 -118t-68 -118q-55 -47 -125 -47t-108 47t-25 117q12 70 66 117t126 47z" />
    <glyph glyph-name="cent" unicode="&#xa2;" horiz-adv-x="1007" 
d="M596 803q-227 0 -283 -289q-51 -289 179 -289q114 0 245 84l68 -215q-76 -66 -211 -102l-35 -197h-266l31 172q-213 25 -301 168t-48 379q41 236 179 379t362 168l31 174h266l-35 -199q121 -36 174 -102l-143 -215q-97 84 -213 84z" />
    <glyph glyph-name="sterling" unicode="&#xa3;" horiz-adv-x="1120" 
d="M1184 1423l-121 -278q-85 35 -154 33t-111 -20t-76 -64q-34 -47 -46 -121l-14 -82h143l-55 -307h-144l-18 -105q-16 -96 -103 -172h543l-53 -307h-975l53 307q67 1 133 61t82 152l11 64h-177l56 307h174l33 184q23 127 95 217q73 90 166 130q189 81 397 48
q93 -14 161 -47z" />
    <glyph glyph-name="yen" unicode="&#xa5;" horiz-adv-x="1347" 
d="M874 668h207l-34 -205h-207l-19 -103h207l-37 -204h-207l-26 -156h-348l26 156h-215l37 204h215l19 103h-216l35 205h215l-356 766h358l224 -484l391 484h358z" />
    <glyph glyph-name="brokenbar" unicode="&#xa6;" horiz-adv-x="716" 
d="M350 -348h-287l119 676h287zM582 963h-287l119 675h286z" />
    <glyph glyph-name="section" unicode="&#xa7;" horiz-adv-x="1220" 
d="M672 655q-88 25 -159 -5t-85 -111q-14 -82 100 -131q104 -37 181 -9q76 29 90 113q7 37 -11 66t-46 45t-70 32zM1192 1389l-152 -259q-104 69 -267 84q-75 8 -133 -18t-70 -86q-12 -61 69 -103q34 -18 100 -39q66 -22 109 -38t115 -54q71 -38 107 -81t58 -116t9 -161
q-37 -195 -248 -282q133 -115 104 -287q-23 -123 -97 -207q-130 -149 -382 -161q-253 -12 -479 83l149 248q68 -41 169 -66q101 -24 195 -4t109 103q11 62 -68 101q-49 23 -91 38h-2q-76 25 -119 40t-114 54t-107 82t-58 115q-24 73 -6 171q36 202 266 279
q-147 135 -121 283t132 240q185 160 540 116q152 -18 283 -75z" />
    <glyph glyph-name="dieresis" unicode="&#xa8;" horiz-adv-x="841" 
d="M886 1679q70 0 108 -46q38 -45 26 -115t-68 -117t-126 -47q-68 0 -108 47t-28 116t70 115t126 47zM374 1679q70 0 108 -46q38 -45 26 -115t-68 -117t-125 -47t-109 47t-28 117t68 116t128 45z" />
    <glyph glyph-name="copyright" unicode="&#xa9;" horiz-adv-x="1687" 
d="M954 1106q74 0 148 -27t106 -67l-98 -183q-27 18 -83 41t-95 23q-135 0 -167 -176t103 -176q38 1 104 23t99 40l33 -182q-47 -41 -130 -68t-157 -26q-180 0 -254 102t-42 286t143 288q111 102 290 102zM992 1346q-265 0 -478 -184t-259 -445t101 -445q146 -184 412 -184
t478 183t258 445t-100 446t-412 184zM1013 1458q310 0 486 -216t123 -522t-309 -525t-566 -219t-487 215q-176 217 -123 523t309 525q257 219 567 219z" />
    <glyph glyph-name="guillemotleft" unicode="&#xab;" horiz-adv-x="1181" 
d="M1178 834l-279 -324l162 -330l-230 -137l-256 467l418 461zM664 834l-279 -324l162 -330l-230 -137l-256 467l418 461z" />
    <glyph glyph-name="registered" unicode="&#xae;" horiz-adv-x="753" 
d="M471 1139q55 0 69 6q13 6 18 35t-10 37t-63 8h-14l-14 -86h14zM514 1311q169 1 146 -135q-12 -70 -82 -103l59 -147h-109l-49 127h-37l-22 -127h-103l68 385h129zM536 1421q-126 0 -228 -89t-126 -216q-23 -127 49 -216t199 -89t229 90t125 216t-49 215q-73 89 -199 89z
M548 1475q148 -1 234 -105q84 -104 58 -252t-150 -254t-272 -106t-233 105t-58 253t149 253q124 106 272 106z" />
    <glyph glyph-name="macron" unicode="&#xaf;" horiz-adv-x="743" 
d="M907 1438h-743l35 200h743z" />
    <glyph glyph-name="degree" unicode="&#xb0;" horiz-adv-x="700" 
d="M530 1524q-44 0 -80 -31t-45 -78t17 -78t70 -31t80 32q36 30 46 77q8 47 -17 78q-26 31 -71 31zM558 1677q100 0 164 -79t46 -183t-110 -183t-195 -79q-104 0 -168 78q-63 78 -44 183t113 184t194 79z" />
    <glyph glyph-name="plusminus" unicode="&#xb1;" horiz-adv-x="1257" 
d="M74 266h1024l-47 -266h-1024zM1223 973l-47 -266h-379l-54 -297h-266l53 297h-378l47 266h376l54 297h266l-53 -297h381z" />
    <glyph glyph-name="acute" unicode="&#xb4;" horiz-adv-x="546" 
d="M385 1341h-240l299 297h301z" />
    <glyph glyph-name="paragraph" unicode="&#xb6;" horiz-adv-x="1187" 
d="M635 481q-262 0 -389 119t-89 335t216 357t430 142h465l-252 -1434h-348l84 481h-117z" />
    <glyph glyph-name="periodcentered" unicode="&#xb7;" horiz-adv-x="489" 
d="M299 819q70 0 108 -46q39 -46 27 -116q-12 -71 -67 -117t-125 -46t-108 47t-26 117t66 115q55 46 125 46z" />
    <glyph glyph-name="cedilla" unicode="&#xb8;" horiz-adv-x="471" 
d="M61 -434q-51 0 -121 18t-96 43l86 148q72 -68 169 -78t110 55q8 51 -45 51q-41 0 -68 -26l-123 51l95 172h155l-67 -113q28 21 82 21t82 -46t16 -118t-85 -125t-190 -53z" />
    <glyph glyph-name="guillemotright" unicode="&#xbb;" horiz-adv-x="1181" 
d="M1120 510l-420 -467l-184 137l281 330l-164 324l229 137zM606 510l-420 -467l-184 137l281 330l-164 324l229 137z" />
    <glyph glyph-name="questiondown" unicode="&#xbf;" horiz-adv-x="950" 
d="M539 -49q145 0 284 74l64 -275q-258 -84 -453 -90q-211 0 -309 116q-97 116 -67 290t146 284t255 139l24 142h328l-59 -336q-136 0 -242 -48t-123 -138q-27 -158 152 -158zM686 819q-70 0 -108 47t-25 117t67 117t124 47t108 -47q39 -47 27 -117q-11 -70 -67 -117
t-126 -47z" />
    <glyph glyph-name="Agrave" unicode="&#xc0;" horiz-adv-x="1482" 
d="M791 793l-197 -322h280zM430 205l-127 -205h-379l987 1475l467 -1475h-379l-53 205h-516zM1092 1546h-240l-234 297h281z" />
    <glyph glyph-name="Aacute" unicode="&#xc1;" horiz-adv-x="1482" 
d="M874 471l-83 322l-197 -322h280zM946 205h-516l-127 -205h-379l987 1475l467 -1475h-379zM1012 1546h-240l299 297h301z" />
    <glyph glyph-name="Acircumflex" unicode="&#xc2;" horiz-adv-x="1482" 
d="M874 471l-83 322l-197 -322h280zM946 205h-516l-127 -205h-379l987 1475l467 -1475h-379zM786 1546h-219l289 297h260l182 -297h-219l-114 180z" />
    <glyph glyph-name="Atilde" unicode="&#xc3;" horiz-adv-x="1482" 
d="M791 793l-197 -322h280zM430 205l-127 -205h-379l987 1475l467 -1475h-379l-53 205h-516zM557 1585q136 228 279 230q66 0 156 -35t138 -39q49 -4 77 16t77 92l68 -51q-115 -194 -210 -234t-222 17q-160 53 -187 42q-52 -22 -68 -41q-17 -19 -38 -46z" />
    <glyph glyph-name="Adieresis" unicode="&#xc4;" horiz-adv-x="1482" 
d="M791 793l-197 -322h280zM430 205l-127 -205h-379l987 1475l467 -1475h-379l-53 205h-516zM1238 1884q69 0 108 -46q38 -46 26 -116t-68 -116t-125 -47q-69 0 -109 47q-40 48 -28 116t70 115t126 47zM726 1884q71 0 109 -46q37 -46 25 -116t-67 -116t-125 -47
q-70 0 -110 47q-40 46 -28 116t68 116t128 46z" />
    <glyph glyph-name="Aring" unicode="&#xc5;" horiz-adv-x="1482" 
d="M874 471l-83 322l-197 -322h280zM1008 1712q-16 20 -47 20t-55 -20t-28 -51q-5 -31 11 -51t47 -20q30 0 54 20t28 51q6 31 -10 51zM1378 0h-379l-53 205h-516l-127 -205h-379l977 1458q-78 6 -123 66t-32 140q13 81 85 140q72 60 154 60t129 -60t33 -143
q-14 -84 -82 -142t-147 -61z" />
    <glyph glyph-name="AE" unicode="&#xc6;" horiz-adv-x="2060" 
d="M1040 502l64 364l-330 -364h266zM1495 1106l-39 -225h535l-56 -308h-534l-43 -245h592l-58 -328h-940l37 215h-477l-195 -215h-417l1304 1434h940l-57 -328h-592z" />
    <glyph glyph-name="Ccedilla" unicode="&#xc7;" horiz-adv-x="1409" 
d="M750 299q84 0 184 50t160 120l225 -207q-236 -265 -602 -293l-49 -82q28 21 82 21t82 -46t16 -118t-85 -125t-190 -53q-51 0 -121 18t-96 43l86 148q72 -68 169 -78t110 55q8 51 -45 51q-41 0 -68 -26l-123 51l82 147q-236 32 -351 185q-116 153 -116 349q0 99 17 208
q61 350 286 549t541 198q176 0 318 -74t219 -214l-299 -211q-35 73 -116 121t-169 49q-180 0 -290 -111q-109 -110 -143 -306t37 -308t249 -111z" />
    <glyph glyph-name="Egrave" unicode="&#xc8;" horiz-adv-x="1294" 
d="M541 881h684l-56 -308h-684l-43 -245h742l-58 -328h-1089l252 1434h1089l-57 -328h-741zM985 1546h-240l-233 297h281z" />
    <glyph glyph-name="Eacute" unicode="&#xc9;" horiz-adv-x="1294" 
d="M580 1106l-39 -225h684l-56 -308h-684l-43 -245h742l-58 -328h-1089l252 1434h1089l-57 -328h-741zM967 1546h-240l299 297h301z" />
    <glyph glyph-name="Ecircumflex" unicode="&#xca;" horiz-adv-x="1294" 
d="M541 881h684l-56 -308h-684l-43 -245h742l-58 -328h-1089l252 1434h1089l-57 -328h-741zM1253 1546h-219l-114 180l-179 -180h-219l289 297h260z" />
    <glyph glyph-name="Edieresis" unicode="&#xcb;" horiz-adv-x="1294" 
d="M541 881h684l-56 -308h-684l-43 -245h742l-58 -328h-1089l252 1434h1089l-57 -328h-741zM1193 1884q69 0 107 -46t27 -116q-13 -70 -69 -116t-124 -47q-68 0 -109 47q-40 48 -28 116q11 68 69 115t127 47zM681 1884q71 0 109 -46t26 -116t-68 -116q-55 -46 -125 -47
q-70 0 -110 47q-40 46 -28 116q13 70 69 116t127 46z" />
    <glyph glyph-name="Igrave" unicode="&#xcc;" horiz-adv-x="618" 
d="M45 0l252 1434h348l-252 -1434h-348zM604 1546h-239l-234 297h281z" />
    <glyph glyph-name="Iacute" unicode="&#xcd;" horiz-adv-x="618" 
d="M393 0h-348l252 1434h348zM610 1546h-239l299 297h301z" />
    <glyph glyph-name="Icircumflex" unicode="&#xce;" horiz-adv-x="618" 
d="M393 0h-348l252 1434h348zM868 1546h-219l-114 180l-179 -180h-219l289 297h260z" />
    <glyph glyph-name="Idieresis" unicode="&#xcf;" horiz-adv-x="618" 
d="M45 0l252 1434h348l-252 -1434h-348zM808 1884q70 0 108 -46t26 -116t-68 -116t-126 -47q-68 0 -108 47q-40 48 -28 116t70 115t126 47zM296 1884q70 0 108 -46t26 -116t-68 -116t-124 -47q-70 0 -110 47q-40 46 -28 116t68 116t128 46z" />
    <glyph glyph-name="Eth" unicode="&#xd0;" horiz-adv-x="1435" 
d="M584 328q205 0 318 98q44 39 83 114t57 175q8 66 12 130t-42 149q-23 44 -97 78t-194 34h-141l-48 -266h187l-47 -267h-187l-43 -245h142zM778 1434q238 0 392 -96t205 -258q52 -161 16 -365q-61 -347 -299 -531t-566 -184h-489l252 1434h489z" />
    <glyph glyph-name="Ntilde" unicode="&#xd1;" horiz-adv-x="1454" 
d="M510 731l-129 -731h-348l264 1495l719 -795l129 734h348l-262 -1495zM543 1585q136 228 278 230q66 0 156 -35t139 -39t77 16t77 92l67 -51q-115 -194 -210 -234t-222 17q-159 53 -186 42q-52 -22 -69 -41t-38 -46z" />
    <glyph glyph-name="Ograve" unicode="&#xd2;" horiz-adv-x="1605" 
d="M913 1137q-177 0 -291 -110q-114 -111 -149 -311t39 -310t252 -109q178 0 293 110q115 111 149 311t-40 310q-75 110 -253 109zM971 1464q227 0 377 -105t200 -273t17 -369q-61 -346 -307 -547t-554 -201t-480 201q-170 200 -112 530t289 547q232 217 570 217zM1153 1546
h-240l-233 297h281z" />
    <glyph glyph-name="Oacute" unicode="&#xd3;" horiz-adv-x="1605" 
d="M913 1137q-177 0 -291 -110q-114 -111 -149 -311t39 -310t252 -109q178 0 293 110q115 111 149 311t-40 310q-75 110 -253 109zM971 1464q227 0 377 -105t200 -273t17 -369q-61 -346 -307 -547t-554 -201t-480 201q-170 200 -112 530t289 547q232 217 570 217zM1073 1546
h-239l299 297h301z" />
    <glyph glyph-name="Ocircumflex" unicode="&#xd4;" horiz-adv-x="1605" 
d="M913 1137q-177 0 -291 -110q-114 -111 -149 -311t39 -310t252 -109q178 0 293 110q115 111 149 311t-40 310q-75 110 -253 109zM971 1464q227 0 377 -105t200 -273t17 -369q-61 -346 -307 -547t-554 -201t-480 201q-170 200 -112 530t289 547q232 217 570 217zM1360 1546
h-219l-115 180l-178 -180h-219l289 297h260z" />
    <glyph glyph-name="Otilde" unicode="&#xd5;" horiz-adv-x="1605" 
d="M913 1137q-177 0 -291 -110q-114 -111 -149 -311t39 -310t252 -109q178 0 293 110q115 111 149 311t-40 310q-75 110 -253 109zM971 1464q227 0 377 -105t200 -273t17 -369q-61 -346 -307 -547t-554 -201t-480 201q-170 200 -112 530t289 547q232 217 570 217zM618 1585
q136 228 279 230q65 0 155 -35t140 -39t77 16q28 20 77 92l67 -51q-115 -194 -210 -234t-222 17q-18 6 -57 18l-52 16q-60 15 -75 9q-54 -23 -71 -42t-38 -46z" />
    <glyph glyph-name="Odieresis" unicode="&#xd6;" horiz-adv-x="1605" 
d="M913 1137q-177 0 -291 -110q-114 -111 -149 -311t39 -310t252 -109q178 0 293 110q115 111 149 311t-40 310q-75 110 -253 109zM971 1464q227 0 377 -105t200 -273t17 -369q-61 -346 -307 -547t-554 -201t-480 201q-170 200 -112 530t289 547q232 217 570 217zM1240 1559
q-68 0 -108 47q-40 48 -28 116t69 115t126 47t108 -46t27 -116t-68 -116t-126 -47zM787 1884q71 0 109 -46t26 -116t-68 -116t-125 -47q-69 0 -109 47q-40 46 -28 116t68 116t127 46z" />
    <glyph glyph-name="multiply" unicode="&#xd7;" horiz-adv-x="1286" 
d="M850 623l280 -340l-221 -189l-280 340l-400 -340l-155 189l401 340l-280 340l221 188l280 -340l400 340l155 -188z" />
    <glyph glyph-name="Oslash" unicode="&#xd8;" horiz-adv-x="1677" 
d="M799 297q178 0 293 110t149 310q27 150 -8 250l-551 -656q51 -14 117 -14zM510 485l539 641q-45 10 -101 11q-178 0 -292 -110t-148 -310q-25 -136 2 -232zM741 -31q-166 0 -297 62l-163 -195h-318l289 344q-162 206 -104 528t288 539q231 217 570 217q160 0 282 -53
l189 223h317l-309 -368q83 -102 113 -246t1 -303q-61 -346 -306 -547t-552 -201z" />
    <glyph glyph-name="Ugrave" unicode="&#xd9;" horiz-adv-x="1427" 
d="M616 -31q-294 0 -416 170q-124 170 -71 479l143 816h349l-134 -760q-41 -199 -1 -295t188 -96t218 91t107 300l134 760h348l-144 -813q-53 -309 -240 -481t-481 -171zM1063 1546h-240l-233 297h280z" />
    <glyph glyph-name="Uacute" unicode="&#xda;" horiz-adv-x="1427" 
d="M616 -31q-294 0 -416 170q-124 170 -71 479l143 816h349l-134 -760q-41 -199 -1 -295t188 -96t218 91t107 300l134 760h348l-144 -813q-53 -309 -240 -481t-481 -171zM983 1546h-240l299 297h301z" />
    <glyph glyph-name="Ucircumflex" unicode="&#xdb;" horiz-adv-x="1427" 
d="M616 -31q-294 0 -416 170q-124 170 -71 479l143 816h349l-134 -760q-41 -199 -1 -295t188 -96t218 91t107 300l134 760h348l-144 -813q-53 -309 -240 -481t-481 -171zM1270 1546h-219l-115 180l-178 -180h-219l288 297h260z" />
    <glyph glyph-name="Udieresis" unicode="&#xdc;" horiz-adv-x="1427" 
d="M616 -31q-294 0 -416 170q-124 170 -71 479l143 816h349l-134 -760q-41 -199 -1 -295t188 -96t218 91t107 300l134 760h348l-144 -813q-53 -309 -240 -481t-481 -171zM1209 1884q69 0 108 -46t27 -116t-69 -116q-56 -46 -125 -47q-69 0 -109 47q-39 48 -27 116t69 115
t126 47zM697 1884q71 0 109 -46t26 -116t-68 -116q-55 -46 -125 -47q-70 0 -110 47q-39 46 -27 116t68 116t127 46z" />
    <glyph glyph-name="Yacute" unicode="&#xdd;" horiz-adv-x="1404" 
d="M1571 1434l-678 -828l-107 -606h-348l107 606l-387 828h379l235 -523l420 523h379zM973 1546h-240l299 297h301z" />
    <glyph glyph-name="Thorn" unicode="&#xde;" horiz-adv-x="1218" 
d="M608 547q104 0 148 39q43 39 58 125t-27 132t-191 46h-90l-60 -342h162zM643 1194q307 0 432 -131t84 -361t-199 -346q-158 -115 -395 -114h-172l-43 -242h-348l252 1434h348l-43 -240h84z" />
    <glyph glyph-name="germandbls" unicode="&#xdf;" horiz-adv-x="1302" 
d="M726 1454q232 0 342 -95t83 -245q-20 -110 -98 -192t-154 -105q93 -9 201 -88q55 -41 85 -116q31 -75 15 -164t-61 -163q-175 -286 -662 -286l53 307q295 0 320 162q12 70 -62 118t-198 48l45 258q53 -1 87 21q71 45 83 116q10 47 -9 75t-42 34t-47 6q-82 0 -127 -50
t-66 -161l-164 -934h-348l180 1020q29 170 171 302q141 132 373 132z" />
    <glyph glyph-name="agrave" unicode="&#xe0;" horiz-adv-x="1142" 
d="M504 477q-49 0 -96 -34q-46 -34 -56 -90q-23 -136 107 -136q135 0 231 72l25 137q-104 51 -211 51zM731 1051q221 -1 300 -97t50 -256l-123 -698h-288q-12 49 -11 96q-57 -57 -141 -94t-180 -37q-174 1 -260 107t-60 252t141 248q115 104 281 104t310 -55l4 22
q18 102 -21 133t-125 31q-168 0 -336 -84l-69 215q244 113 528 113zM676 1341l-234 297h281l192 -297h-239z" />
    <glyph glyph-name="aacute" unicode="&#xe1;" horiz-adv-x="1142" 
d="M504 477q-49 0 -96 -34q-46 -34 -56 -90q-23 -136 107 -136q135 0 231 72l25 137q-104 51 -211 51zM731 1051q221 -1 300 -97t50 -256l-123 -698h-288q-12 49 -11 96q-57 -57 -141 -94t-180 -37q-174 1 -260 107t-60 252t141 248q115 104 281 104t310 -55l4 22
q18 102 -21 133t-125 31q-168 0 -336 -84l-69 215q244 113 528 113zM836 1341h-240l299 297h301z" />
    <glyph glyph-name="acircumflex" unicode="&#xe2;" horiz-adv-x="1142" 
d="M504 477q-49 0 -96 -34q-46 -34 -56 -90q-23 -136 107 -136q135 0 231 72l25 137q-104 51 -211 51zM731 1051q221 -1 300 -97t50 -256l-123 -698h-288q-12 49 -11 96q-57 -57 -141 -94t-180 -37q-174 1 -260 107t-60 252t141 248q115 104 281 104t310 -55l4 22
q18 102 -21 133t-125 31q-168 0 -336 -84l-69 215q244 113 528 113zM610 1341h-219l289 297h260l182 -297h-219l-115 181z" />
    <glyph glyph-name="atilde" unicode="&#xe3;" horiz-adv-x="1142" 
d="M504 477q-49 0 -96 -34q-46 -34 -56 -90q-23 -136 107 -136q135 0 231 72l25 137q-104 51 -211 51zM731 1051q221 -1 300 -97t50 -256l-123 -698h-288q-12 49 -11 96q-57 -57 -141 -94t-180 -37q-174 1 -260 107t-60 252t141 248q115 104 281 104t310 -55l4 22
q18 102 -21 133t-125 31q-168 0 -336 -84l-69 215q244 113 528 113zM381 1380q136 228 278 230q66 0 156 -35q161 -62 216 -23q28 21 77 93l68 -52q-115 -195 -210 -235t-223 18l-57 19q-106 33 -123 25q-57 -24 -75 -43q-17 -19 -37 -46z" />
    <glyph glyph-name="adieresis" unicode="&#xe4;" horiz-adv-x="1142" 
d="M504 477q-49 0 -96 -34q-46 -34 -56 -90q-23 -136 107 -136q135 0 231 72l25 137q-104 51 -211 51zM731 1051q221 -1 300 -97t50 -256l-123 -698h-288q-12 49 -11 96q-57 -57 -141 -94t-180 -37q-174 1 -260 107t-60 252t141 248q115 104 281 104t310 -55l4 22
q18 102 -21 133t-125 31q-168 0 -336 -84l-69 215q244 113 528 113zM1062 1679q70 0 108 -46q38 -45 26 -115t-68 -117t-126 -47q-68 0 -108 47t-28 116t70 115t126 47zM550 1679q70 0 108 -46q38 -45 26 -115t-68 -117t-124 -47q-70 0 -110 47t-28 117t68 116t128 45z" />
    <glyph glyph-name="aring" unicode="&#xe5;" horiz-adv-x="1142" 
d="M504 477q-49 0 -96 -34q-46 -34 -56 -90q-23 -136 107 -136q135 0 231 72l25 137q-104 51 -211 51zM731 1051q221 -1 300 -97t50 -256l-123 -698h-288q-12 49 -11 96q-57 -57 -141 -94t-180 -37q-174 1 -260 107t-60 252t141 248q115 104 281 104t310 -55l4 22
q18 102 -21 133t-125 31q-168 0 -336 -84l-69 215q244 113 528 113zM784 1528q-30 0 -54 -20t-29 -52q-5 -31 11 -51q16 -21 48 -21q30 0 54 20t28 52q6 32 -10 52t-48 20zM809 1659q82 1 129 -59t33 -144t-83 -143t-151 -59t-132 60t-36 143t86 143t154 59z" />
    <glyph glyph-name="ae" unicode="&#xe6;" horiz-adv-x="1808" 
d="M416 227q26 -10 83 -10q57 1 125 27t107 61q-10 59 -6 127q-100 45 -201 45q-49 0 -96 -34t-56 -90t5 -86q13 -30 39 -40zM1284 784q-84 0 -141 -56t-86 -153h397q16 209 -170 209zM752 1049q203 0 295 -86q145 86 293 86q282 0 354 -197q73 -197 14 -481h-676
q12 -96 84 -137q71 -41 218 5q77 24 118 46l92 -211q-76 -49 -178 -80t-192 -31q-260 0 -377 172q-213 -170 -439 -170q-174 1 -260 107t-61 247t127 249t299 108q150 0 299 -60l14 35q14 96 -24 126q-39 30 -123 30q-168 0 -336 -84l-70 215q97 45 237 78t292 33z" />
    <glyph glyph-name="ccedilla" unicode="&#xe7;" horiz-adv-x="997" 
d="M682 803q-227 0 -283 -289q-51 -289 179 -289q114 0 245 84l68 -215q-63 -53 -169 -89t-202 -42l-51 -86q29 21 83 21t82 -46t16 -118t-86 -125q-73 -53 -189 -53q-51 0 -121 18t-96 43l86 147q72 -68 169 -78t109 56q8 51 -45 51q-41 0 -67 -26l-123 51l86 155
q-393 71 -309 558q42 243 204 389t424 145q96 0 198 -37t148 -94l-143 -215q-97 84 -213 84z" />
    <glyph glyph-name="egrave" unicode="&#xe8;" horiz-adv-x="1122" 
d="M621 784q-94 0 -146 -54q-51 -55 -74 -155h371q21 157 -64 194q-34 15 -87 15zM479 -37q-174 0 -279 81q-193 149 -141 462q43 248 208 394t390 147q267 1 351 -173t26 -503h-659q10 -156 145 -156q121 0 254 70l76 -211q-76 -49 -178 -80t-193 -31zM877 1341h-240
l-234 297h281z" />
    <glyph glyph-name="eacute" unicode="&#xe9;" horiz-adv-x="1122" 
d="M621 784q-94 0 -146 -54q-51 -55 -74 -155h371q21 157 -64 194q-34 15 -87 15zM479 -37q-174 0 -279 81q-193 149 -141 462q43 248 208 394t390 147q267 1 351 -173t26 -503h-659q10 -156 145 -156q121 0 254 70l76 -211q-76 -49 -178 -80t-193 -31zM797 1341h-240
l299 297h301z" />
    <glyph glyph-name="ecircumflex" unicode="&#xea;" horiz-adv-x="1122" 
d="M621 784q-94 0 -146 -54q-51 -55 -74 -155h371q21 157 -64 194q-34 15 -87 15zM479 -37q-174 0 -279 81q-193 149 -141 462q43 248 208 394t390 147q267 1 351 -173t26 -503h-659q10 -156 145 -156q121 0 254 70l76 -211q-76 -49 -178 -80t-193 -31zM571 1341h-219
l289 297h260l182 -297h-219l-114 181z" />
    <glyph glyph-name="edieresis" unicode="&#xeb;" horiz-adv-x="1122" 
d="M621 784q-94 0 -146 -54q-51 -55 -74 -155h371q21 157 -64 194q-34 15 -87 15zM479 -37q-174 0 -279 81q-193 149 -141 462q43 248 208 394t390 147q267 1 351 -173t26 -503h-659q10 -156 145 -156q121 0 254 70l76 -211q-76 -49 -178 -80t-193 -31zM1023 1679
q69 0 107 -46q38 -45 27 -115q-12 -70 -68 -117t-125 -47t-109 47t-28 116q11 69 69 115t127 47zM511 1679q71 0 109 -46q38 -45 26 -115t-68 -117q-55 -47 -125 -47t-110 47t-28 117q13 70 69 116t127 45z" />
    <glyph glyph-name="igrave" unicode="&#xec;" horiz-adv-x="573" 
d="M360 0h-327l180 1024h328zM600 1341h-240l-233 297h281z" />
    <glyph glyph-name="iacute" unicode="&#xed;" horiz-adv-x="573" 
d="M360 0h-327l180 1024h328zM520 1341h-239l299 297h301z" />
    <glyph glyph-name="icircumflex" unicode="&#xee;" horiz-adv-x="573" 
d="M360 0h-327l180 1024h328zM807 1341h-219l-115 181l-178 -181h-219l289 297h260z" />
    <glyph glyph-name="idieresis" unicode="&#xef;" horiz-adv-x="573" 
d="M360 0h-327l180 1024h328zM687 1354q-69 0 -109 47t-27 116q12 69 69 115t126 47q69 0 108 -46q39 -45 27 -115q-13 -70 -69 -117t-125 -47zM235 1679q71 0 109 -46q38 -45 25 -115q-11 -70 -67 -117t-126 -47t-110 47t-27 117t69 116t127 45z" />
    <glyph glyph-name="eth" unicode="&#xf0;" horiz-adv-x="1228" 
d="M630 725q-86 0 -131 -55q-43 -55 -63 -165t4 -166t112 -56q86 0 132 56t65 166t-7 165t-112 55zM688 1047q31 0 60 -3q-16 57 -52 115l-325 -72l-25 203l197 43q-47 35 -92 53l317 101q53 -33 100 -80l244 53l23 -203l-136 -30q78 -147 104 -333t-5 -372
q-47 -262 -204 -410q-158 -148 -398 -148t-344 148t-62 394q29 156 109 278q79 122 203 193q124 70 286 70z" />
    <glyph glyph-name="ntilde" unicode="&#xf1;" 
d="M893 1051q170 1 243 -103t42 -270l-119 -678h-328l103 578q18 112 -32 154t-144 16t-203 -103l-113 -645h-328l181 1024h297q12 -37 4 -137q76 72 186 118t211 46zM395 1380q136 228 279 230q66 0 156 -35q161 -63 216 -23q27 21 76 93l68 -52q-115 -195 -210 -235
t-222 18q-160 53 -187 42q-50 -21 -68 -40q-17 -20 -38 -47z" />
    <glyph glyph-name="ograve" unicode="&#xf2;" horiz-adv-x="1165" 
d="M629 770q-97 0 -159 -73t-82 -193t14 -193q36 -73 132 -73t158 74q61 74 82 194q20 120 -14 192t-131 72zM486 -37q-242 0 -356 150q-114 149 -69 399t217 392t406 143q236 -1 348 -149t70 -392q-43 -244 -208 -394t-408 -149zM897 1341h-240l-233 297h281z" />
    <glyph glyph-name="oacute" unicode="&#xf3;" horiz-adv-x="1165" 
d="M629 770q-97 0 -159 -73t-82 -193t14 -193q36 -73 132 -73t158 74q61 74 82 194q20 120 -14 192t-131 72zM486 -37q-242 0 -356 150q-114 149 -69 399t217 392t406 143q236 -1 348 -149t70 -392q-43 -244 -208 -394t-408 -149zM817 1341h-239l299 297h301z" />
    <glyph glyph-name="ocircumflex" unicode="&#xf4;" horiz-adv-x="1165" 
d="M629 770q-97 0 -159 -73t-82 -193t14 -193q36 -73 132 -73t158 74q61 74 82 194q20 120 -14 192t-131 72zM486 -37q-242 0 -356 150q-114 149 -69 399t217 392t406 143q236 -1 348 -149t70 -392q-43 -244 -208 -394t-408 -149zM1104 1341h-219l-115 181l-178 -181h-219
l289 297h260z" />
    <glyph glyph-name="otilde" unicode="&#xf5;" horiz-adv-x="1165" 
d="M629 770q-97 0 -159 -73t-82 -193t14 -193q36 -73 132 -73t158 74q61 74 82 194q20 120 -14 192t-131 72zM486 -37q-242 0 -356 150q-114 149 -69 399t217 392t406 143q236 -1 348 -149t70 -392q-43 -244 -208 -394t-408 -149zM362 1380q136 228 279 230q65 0 155 -35
q161 -63 217 -23q28 21 77 93l67 -52q-115 -195 -210 -235t-222 18l-57 19q-106 33 -123 25q-57 -24 -75 -43q-17 -19 -38 -46z" />
    <glyph glyph-name="odieresis" unicode="&#xf6;" horiz-adv-x="1165" 
d="M629 770q-97 0 -159 -73t-82 -193t14 -193q36 -73 132 -73t158 74q61 74 82 194q20 120 -14 192t-131 72zM486 -37q-242 0 -356 150q-114 149 -69 399t217 392t406 143q236 -1 348 -149t70 -392q-43 -244 -208 -394t-408 -149zM984 1354q-68 0 -108 47t-28 116t69 115
t126 47q69 0 108 -46q39 -45 27 -115t-68 -117t-126 -47zM531 1679q71 0 109 -46q38 -45 26 -115t-68 -117t-125 -47t-109 47t-28 117t68 116t127 45z" />
    <glyph glyph-name="divide" unicode="&#xf7;" horiz-adv-x="1257" 
d="M604 358q70 0 108 -46t26 -116t-67 -116q-54 -47 -124 -47t-109 47t-26 117q12 69 67 115t125 46zM1139 502h-1024l47 266h1024zM758 1237q70 0 108 -46t26 -116q-10 -70 -66 -117t-126 -47t-108 47t-27 117t67 116t126 46z" />
    <glyph glyph-name="oslash" unicode="&#xf8;" horiz-adv-x="1288" 
d="M592 238q96 0 158 74q61 74 79 178t2 167l-258 -419h19zM686 770q-96 0 -158 -73t-80 -176t-4 -165l254 414h-12zM545 -37q-70 0 -131 14l-95 -153h-202l137 223q-92 70 -128 189t-9 270q47 256 218 398t400 143q68 0 127 -13l86 142h203l-129 -211q94 -68 129 -187
t8 -272q-43 -244 -208 -394t-406 -149z" />
    <glyph glyph-name="ugrave" unicode="&#xf9;" 
d="M352 -27q-170 -1 -242 103t-42 270l118 678h328l-102 -578q-18 -112 32 -154t142 -16q94 26 205 103l112 645h328l-180 -1024h-297q-12 37 -4 137q-76 -72 -186 -118t-212 -46zM934 1341h-240l-233 297h280z" />
    <glyph glyph-name="uacute" unicode="&#xfa;" 
d="M352 -27q-170 -1 -242 103t-42 270l118 678h328l-102 -578q-18 -112 32 -154t142 -16q94 26 205 103l112 645h328l-180 -1024h-297q-12 37 -4 137q-76 -72 -186 -118t-212 -46zM854 1341h-240l299 297h301z" />
    <glyph glyph-name="ucircumflex" unicode="&#xfb;" 
d="M352 -27q-170 -1 -242 103t-42 270l118 678h328l-102 -578q-18 -112 32 -154t142 -16q94 26 205 103l112 645h328l-180 -1024h-297q-12 37 -4 137q-76 -72 -186 -118t-212 -46zM629 1341h-219l288 297h260l183 -297h-219l-115 181z" />
    <glyph glyph-name="udieresis" unicode="&#xfc;" 
d="M352 -27q-170 -1 -242 103t-42 270l118 678h328l-102 -578q-18 -112 32 -154t142 -16q94 26 205 103l112 645h328l-180 -1024h-297q-12 37 -4 137q-76 -72 -186 -118t-212 -46zM1080 1679q69 0 108 -46q38 -45 26 -115t-68 -117t-125 -47t-109 47t-28 116t70 115
q57 46 126 47zM568 1679q71 0 109 -46q37 -45 25 -115t-67 -117t-125 -47t-110 47t-27 117q12 70 68 116t127 45z" />
    <glyph glyph-name="yacute" unicode="&#xfd;" horiz-adv-x="1200" 
d="M1268 1024l-670 -1120q-169 -287 -356 -344q-168 -53 -371 30l127 246q114 -57 180 -26t154 190l-228 1024h359l119 -606l354 606h332zM807 1341h-240l299 297h301z" />
    <glyph glyph-name="thorn" unicode="&#xfe;" horiz-adv-x="1228" 
d="M522 264q160 0 207 254q43 254 -119 254q-91 0 -160 -65q-34 -31 -59 -74l-41 -232q18 -63 62 -100t110 -37zM721 1061q217 0 306 -150q89 -151 47 -393t-184 -392t-360 -149q-141 0 -239 89l-84 -476h-348l336 1905h348l-92 -518q129 84 270 84z" />
    <glyph glyph-name="ydieresis" unicode="&#xff;" horiz-adv-x="1200" 
d="M1268 1024l-670 -1120q-169 -287 -356 -344q-168 -53 -371 30l127 246q114 -57 180 -26t154 190l-228 1024h359l119 -606l354 606h332zM1017 1354q-69 0 -109 47t-28 116t70 115q57 46 126 47q69 0 108 -46q38 -45 26 -115t-68 -117t-125 -47zM506 1354q-70 0 -110 47
t-27 117q12 70 68 116t127 45q71 0 109 -46q37 -45 25 -115t-67 -117t-125 -47z" />
    <glyph glyph-name="Amacron" unicode="&#x100;" horiz-adv-x="1482" 
d="M791 793l-197 -322h280zM430 205l-127 -205h-379l987 1475l467 -1475h-379l-53 205h-516zM1311 1642h-744l35 201h744z" />
    <glyph glyph-name="amacron" unicode="&#x101;" horiz-adv-x="1142" 
d="M504 477q-49 0 -96 -34q-46 -34 -56 -90q-23 -136 107 -136q135 0 231 72l25 137q-104 51 -211 51zM731 1051q221 -1 300 -97t50 -256l-123 -698h-288q-12 49 -11 96q-57 -57 -141 -94t-180 -37q-174 1 -260 107t-60 252t141 248q115 104 281 104t310 -55l4 22
q18 102 -21 133t-125 31q-168 0 -336 -84l-69 215q244 113 528 113zM1135 1438h-744l35 200h743z" />
    <glyph glyph-name="Abreve" unicode="&#x102;" horiz-adv-x="1482" 
d="M874 471l-83 322l-197 -322h280zM946 205h-516l-127 -205h-379l987 1475l467 -1475h-379zM929 1567q-144 0 -201 81q-56 81 -36 195h180q-12 -73 10 -97t76 -24t84 24q31 24 43 97h181q-20 -117 -106 -197t-231 -79z" />
    <glyph glyph-name="abreve" unicode="&#x103;" horiz-adv-x="1142" 
d="M504 477q-49 0 -96 -34q-46 -34 -56 -90q-23 -136 107 -136q135 0 231 72l25 137q-104 51 -211 51zM731 1051q221 -1 300 -97t50 -256l-123 -698h-288q-12 49 -11 96q-57 -57 -141 -94t-180 -37q-174 1 -260 107t-60 252t141 248q115 104 281 104t310 -55l4 22
q18 102 -21 133t-125 31q-168 0 -336 -84l-69 215q244 113 528 113zM753 1362q-144 0 -201 81q-56 81 -36 195h180q-12 -72 10 -96t76 -24t84 23q31 23 43 97h181q-20 -116 -106 -196t-231 -80z" />
    <glyph glyph-name="Aogonek" unicode="&#x104;" horiz-adv-x="1482" 
d="M874 471l-83 322l-197 -322h280zM1182 -430q-82 0 -131 47t-35 131q27 141 186 252h-203l-53 205h-516l-127 -205h-379l987 1475l467 -1475h-2q-74 -35 -125 -95q-51 -61 -57 -99q-11 -68 37 -68q55 0 82 43l84 -107q-104 -104 -215 -104z" />
    <glyph glyph-name="aogonek" unicode="&#x105;" horiz-adv-x="1142" 
d="M504 477q-49 0 -96 -34q-46 -34 -56 -90q-23 -136 107 -136q135 0 231 72l25 137q-104 51 -211 51zM764 -430q-82 0 -131 47t-35 131q27 141 186 252h-114q-12 49 -11 96q-57 -57 -141 -94t-180 -37q-174 1 -260 107t-60 252t141 248q115 104 281 104t310 -55l4 22
q18 102 -21 133t-125 31q-168 0 -336 -84l-69 215q244 113 528 113q413 -1 350 -353l-123 -698q-74 -35 -124 -95q-50 -61 -58 -99q-12 -68 34 -68q38 0 59 16q20 16 26 27l84 -107q-104 -104 -215 -104z" />
    <glyph glyph-name="Cacute" unicode="&#x106;" horiz-adv-x="1409" 
d="M694 -31q-304 0 -447 156q-144 156 -146 367q-1 109 16 225q61 350 286 549t541 198q176 0 318 -74t219 -214l-299 -211q-35 73 -116 121t-169 49q-180 0 -290 -111q-109 -110 -143 -306t37 -308t249 -111q84 0 184 50t160 120l225 -207q-127 -141 -297 -217t-328 -76z
M1018 1546h-240l299 297h301z" />
    <glyph glyph-name="cacute" unicode="&#x107;" horiz-adv-x="997" 
d="M498 -37q-260 -1 -371 145t-66 406t207 406t424 145q96 0 198 -37t148 -94l-143 -215q-97 84 -213 84q-227 0 -283 -289q-51 -289 179 -289q114 0 245 84l68 -215q-69 -57 -183 -94t-210 -37zM782 1341h-239l299 297h301z" />
    <glyph glyph-name="Cdotaccent" unicode="&#x10a;" horiz-adv-x="1409" 
d="M694 -31q-304 0 -447 156q-144 156 -146 367q-1 109 16 225q61 350 286 549t541 198q176 0 318 -74t219 -214l-299 -211q-35 73 -116 121t-169 49q-180 0 -290 -111q-109 -110 -143 -306t37 -308t249 -111q84 0 184 50t160 120l225 -207q-127 -141 -297 -217t-328 -76z
M993 1884q70 0 108 -46q37 -46 25 -116t-67 -116t-125 -47q-70 0 -108 47q-38 46 -26 116t68 116q55 46 125 46z" />
    <glyph glyph-name="cdotaccent" unicode="&#x10b;" horiz-adv-x="997" 
d="M498 -37q-260 -1 -371 145t-66 406t207 406t424 145q96 0 198 -37t148 -94l-143 -215q-97 84 -213 84q-227 0 -283 -289q-51 -289 179 -289q114 0 245 84l68 -215q-69 -57 -183 -94t-210 -37zM758 1679q70 0 108 -46q38 -45 25 -115q-11 -70 -67 -117t-126 -47t-108 47
t-25 117q11 70 67 116t126 45z" />
    <glyph glyph-name="Ccaron" unicode="&#x10c;" horiz-adv-x="1409" 
d="M694 -31q-304 0 -447 156q-144 156 -146 367q-1 109 16 225q61 350 286 549t541 198q176 0 318 -74t219 -214l-299 -211q-35 73 -116 121t-169 49q-180 0 -290 -111q-109 -110 -143 -306t37 -308t249 -111q84 0 184 50t160 120l225 -207q-127 -141 -297 -217t-328 -76z
M1065 1546h-260l-182 297h219l114 -180l179 180h219z" />
    <glyph glyph-name="ccaron" unicode="&#x10d;" horiz-adv-x="997" 
d="M498 -37q-260 -1 -371 145t-66 406t207 406t424 145q96 0 198 -37t148 -94l-143 -215q-97 84 -213 84q-227 0 -283 -289q-51 -289 179 -289q114 0 245 84l68 -215q-69 -57 -183 -94t-210 -37zM829 1341h-260l-182 297h219l115 -180l178 180h219z" />
    <glyph glyph-name="Dcaron" unicode="&#x10e;" horiz-adv-x="1435" 
d="M584 328q76 0 135 12t130 48q149 75 193 327q27 113 -7 232q-17 66 -92 113q-75 46 -222 46h-141l-138 -778h142zM778 1434q238 0 392 -96t205 -258q52 -161 16 -365q-61 -347 -299 -531t-566 -184h-489l252 1434h489zM969 1546h-260l-183 297h219l115 -180l178 180h219z
" />
    <glyph glyph-name="dcaron" unicode="&#x10f;" horiz-adv-x="1667" 
d="M532 752q-64 0 -113 -29q-102 -62 -130 -217q-21 -118 19 -182t120 -64q166 0 268 131l41 227q-27 66 -84 100t-121 34zM295 -37q-217 0 -306 150t-48 390t182 392q142 152 362 152q186 0 301 -156l103 584h328l-261 -1475h-301q-12 59 -6 115q-168 -152 -354 -152z
M1546 1495q70 0 108 -46t25 -116q-16 -92 -194 -299h-99l89 137q-63 5 -97 51t-24 114q12 68 67 113q55 46 125 46z" />
    <glyph glyph-name="Dcroat" unicode="&#x110;" horiz-adv-x="1435" 
d="M584 328q205 0 318 98q44 39 83 114t57 175q8 66 12 130t-42 149q-23 44 -97 78t-194 34h-141l-52 -291h213l-34 -201h-213l-52 -286h142zM778 1434q238 0 392 -96t205 -258q52 -161 16 -365q-61 -347 -299 -531t-566 -184h-489l108 614h-182l35 201h182l109 619h489z
" />
    <glyph glyph-name="dcroat" unicode="&#x111;" horiz-adv-x="1271" 
d="M549 260q166 0 268 131l41 227q-55 134 -221 134q-80 0 -143 -65q-64 -65 -84 -181t20 -182q40 -64 119 -64zM416 -37q-217 0 -306 150t-49 393q60 329 284 469q116 72 261 72q186 0 301 -156l41 237h-307l35 201h307l27 146h327l-26 -146h108l-35 -201h-108l-199 -1128
h-301q-12 59 -6 115q-168 -152 -354 -152z" />
    <glyph glyph-name="Emacron" unicode="&#x112;" horiz-adv-x="1294" 
d="M541 881h684l-56 -308h-684l-43 -245h742l-58 -328h-1089l252 1434h1089l-57 -328h-741zM1266 1642h-744l35 201h743z" />
    <glyph glyph-name="emacron" unicode="&#x113;" horiz-adv-x="1122" 
d="M621 784q-94 0 -146 -54q-51 -55 -74 -155h371q21 157 -64 194q-34 15 -87 15zM479 -37q-174 0 -279 81q-193 149 -141 462q43 248 208 394t390 147q267 1 351 -173t26 -503h-659q10 -156 145 -156q121 0 254 70l76 -211q-76 -49 -178 -80t-193 -31zM1096 1438h-744
l35 200h743z" />
    <glyph glyph-name="Edotaccent" unicode="&#x116;" horiz-adv-x="1294" 
d="M541 881h684l-56 -308h-684l-43 -245h742l-58 -328h-1089l252 1434h1089l-57 -328h-741zM942 1884q70 0 108 -46t26 -116t-68 -116q-55 -46 -125 -47q-70 0 -108 47q-37 46 -25 116t67 116t125 46z" />
    <glyph glyph-name="edotaccent" unicode="&#x117;" horiz-adv-x="1122" 
d="M621 784q-94 0 -146 -54q-51 -55 -74 -155h371q21 157 -64 194q-34 15 -87 15zM479 -37q-174 0 -279 81q-193 149 -141 462q43 248 208 394t390 147q267 1 351 -173t26 -503h-659q10 -156 145 -156q121 0 254 70l76 -211q-76 -49 -178 -80t-193 -31zM772 1679
q70 0 108 -46q38 -45 26 -115t-68 -117q-55 -47 -125 -47t-108 47t-25 117q12 70 67 116t125 45z" />
    <glyph glyph-name="Eogonek" unicode="&#x118;" horiz-adv-x="1294" 
d="M930 -430q-82 0 -131 47t-35 131q27 141 186 252h-913l252 1434h1089l-57 -328h-741l-39 -225h684l-56 -308h-684l-43 -245h742l-58 -328h-2q-74 -35 -125 -95q-51 -61 -57 -99q-11 -69 37 -68q55 0 82 43l84 -107q-104 -104 -215 -104z" />
    <glyph glyph-name="eogonek" unicode="&#x119;" horiz-adv-x="1122" 
d="M624 784q-97 0 -149 -54q-51 -55 -74 -155h371q12 102 -19 156q-32 53 -129 53zM655 -356q-82 0 -131 47t-35 130t68 148q-41 -6 -78 -6q-174 0 -279 81q-193 149 -141 462q43 248 208 394t390 147q267 1 351 -173t26 -503h-659q10 -156 145 -156q121 0 254 70l76 -211
q-23 -14 -47 -27q-55 -37 -93 -88t-43 -84q-10 -63 38 -63q54 0 81 43l84 -107q-104 -104 -215 -104z" />
    <glyph glyph-name="Ecaron" unicode="&#x11a;" horiz-adv-x="1294" 
d="M580 1106l-39 -225h684l-56 -308h-684l-43 -245h742l-58 -328h-1089l252 1434h1089l-57 -328h-741zM754 1546l-183 297h220l114 -180l178 180h220l-289 -297h-260z" />
    <glyph glyph-name="ecaron" unicode="&#x11b;" horiz-adv-x="1122" 
d="M621 784q-94 0 -146 -54q-51 -55 -74 -155h371q21 157 -64 194q-34 15 -87 15zM479 -37q-174 0 -279 81q-193 149 -141 462q43 248 208 394t390 147q267 1 351 -173t26 -503h-659q10 -156 145 -156q121 0 254 70l76 -211q-76 -49 -178 -80t-193 -31zM584 1341l-183 297
h220l114 -180l178 180h220l-289 -297h-260z" />
    <glyph glyph-name="Gbreve" unicode="&#x11e;" horiz-adv-x="1478" 
d="M916 1464q424 0 585 -288l-268 -191q-53 78 -138 126t-188 48q-174 0 -292 -123q-117 -122 -151 -318t38 -319t228 -123t278 78l34 189h-200l47 266h549l-99 -547q-262 -293 -653 -293t-532 317q-78 173 -38 416q40 244 167 417t299 259t334 86zM941 1567q-144 0 -201 81
q-56 81 -35 195h180q-13 -73 9 -97t76 -24t85 24t43 97h180q-20 -117 -106 -197t-231 -79z" />
    <glyph glyph-name="gbreve" unicode="&#x11f;" horiz-adv-x="1271" 
d="M640 764q-81 0 -143 -65q-63 -65 -83 -181t18 -182q38 -64 119 -64q171 0 270 134l39 223q-51 135 -220 135zM432 -465q-125 0 -268 39t-193 92l148 244q49 -43 138 -70q89 -26 199 -26t195 52q84 52 103 154l20 113q-168 -156 -370 -156t-292 150q-89 151 -47 393
t183 392t360 149q186 0 303 -152q12 53 45 115h301l-167 -950q-48 -262 -224 -400t-434 -139zM814 1362q-144 0 -201 81q-56 81 -35 195h180q-12 -72 10 -96t75 -24q54 0 85 23t43 97h180q-21 -116 -107 -196t-230 -80z" />
    <glyph glyph-name="Gdotaccent" unicode="&#x120;" horiz-adv-x="1478" 
d="M916 1464q424 0 585 -288l-268 -191q-53 78 -138 126t-188 48q-174 0 -292 -123q-117 -122 -151 -318t38 -319t228 -123t278 78l34 189h-200l47 266h549l-99 -547q-262 -293 -653 -293t-532 317q-78 173 -38 416q40 244 167 417t299 259t334 86zM940 1559q-70 0 -108 47
q-38 46 -25 116q12 70 67 116t125 46t108 -46t26 -116q-11 -70 -67 -116t-126 -47z" />
    <glyph glyph-name="gdotaccent" unicode="&#x121;" horiz-adv-x="1271" 
d="M418 -23q-216 0 -306 150q-89 151 -47 393t183 392t358 149q217 0 340 -203l-72 -283q-12 90 -76 140q-65 49 -152 49t-149 -65q-63 -65 -83 -181t18 -182q38 -64 127 -64q88 0 170 50t127 139l-29 -273q-193 -211 -409 -211zM872 1679q70 0 108 -46q38 -45 26 -115
t-68 -117t-125 -47t-107 47t-26 117t67 116t125 45z" />
    <glyph glyph-name="Gcommaaccent" unicode="&#x122;" horiz-adv-x="1478" 
d="M432 -709l68 138q-63 6 -98 51q-34 45 -24 100q20 104 108 151q42 21 100 21t95 -46q38 -46 23 -128t-174 -287h-98zM916 1464q424 0 585 -288l-268 -191q-53 78 -138 126t-188 48q-174 0 -292 -123q-117 -122 -151 -318t38 -319t228 -123t278 78l34 189h-200l47 266h549
l-99 -547q-262 -293 -653 -293t-532 317q-78 173 -38 416q40 244 167 417t299 259t334 86z" />
    <glyph glyph-name="gcommaaccent" unicode="&#x123;" horiz-adv-x="1271" 
d="M640 764q-81 0 -143 -65q-63 -65 -83 -181t18 -182q38 -64 119 -64q171 0 270 134l39 223q-51 135 -220 135zM432 -465q-125 0 -268 39t-193 92l148 244q49 -43 138 -70q89 -26 199 -26t195 52q84 52 103 154l20 113q-168 -156 -370 -156t-292 150q-89 151 -47 393
t183 392t360 149q186 0 303 -152q12 53 45 115h301l-167 -950q-48 -262 -224 -400t-434 -139zM659 1282q-71 0 -125 46t-66 114t20 112q34 44 98 52l-68 137h98q158 -205 174 -287t-23 -128q-38 -46 -108 -46z" />
    <glyph glyph-name="Hbar" unicode="&#x126;" horiz-adv-x="1515" 
d="M1135 1026h-574l-26 -147h573zM1581 1026h-98l-180 -1026h-349l101 573h-574l-100 -573h-348l180 1026h-90l47 266h90l25 142h348l-25 -142h574l24 142h348l-24 -142h98z" />
    <glyph glyph-name="hbar" unicode="&#x127;" 
d="M893 1051q170 1 243 -103t42 -270l-119 -678h-328l103 578q18 112 -32 154t-142 16t-203 -103l-115 -645h-328l195 1106h-199l35 201h201l28 168h328l-29 -168h215l-34 -201h-217l-37 -215q76 70 184 115t209 45z" />
    <glyph glyph-name="Imacron" unicode="&#x12a;" horiz-adv-x="618" 
d="M45 0l252 1434h348l-252 -1434h-348zM881 1642h-744l35 201h743z" />
    <glyph glyph-name="imacron" unicode="&#x12b;" horiz-adv-x="573" 
d="M33 0l180 1024h328l-181 -1024h-327zM819 1438h-743l35 200h743z" />
    <glyph glyph-name="Iogonek" unicode="&#x12e;" horiz-adv-x="618" 
d="M248 -262q55 0 82 43l84 -107q-104 -104 -215 -104q-82 0 -131 47t-35 131q27 141 186 252h-174l252 1434h348l-252 -1434q-74 -35 -125 -95q-51 -61 -57 -99q-11 -68 37 -68z" />
    <glyph glyph-name="iogonek" unicode="&#x12f;" horiz-adv-x="573" 
d="M166 -430q-82 0 -131 47t-35 131q27 141 186 252h-153l180 1024h328l-181 -1024q-74 -35 -124 -95q-50 -61 -58 -99q-12 -68 37 -68q55 0 82 43l84 -107q-104 -104 -215 -104zM496 1679q70 0 108 -46q38 -45 25 -115q-11 -70 -67 -117t-126 -47t-108 47t-25 117
q11 70 67 116t126 45z" />
    <glyph glyph-name="Idotaccent" unicode="&#x130;" horiz-adv-x="618" 
d="M45 0l252 1434h348l-252 -1434h-348zM557 1884q70 0 108 -46q37 -46 25 -116t-67 -116t-125 -47q-70 0 -108 47q-38 46 -26 116t68 116q55 46 125 46z" />
    <glyph glyph-name="dotlessi" unicode="&#x131;" horiz-adv-x="573" 
d="M360 0h-327l180 1024h328z" />
    <glyph glyph-name="IJ" unicode="&#x132;" horiz-adv-x="1118" 
d="M257 -584q-171 0 -243 25l113 319q49 -16 179 -16t197 50t91 186l256 1454h348l-256 -1457q-20 -123 -60 -214t-116 -175t-207 -128t-302 -44zM262 0h-348l252 1434h348z" />
    <glyph glyph-name="ij" unicode="&#x133;" horiz-adv-x="1171" 
d="M454 -180q42 0 57 19q38 48 52 121q29 150 29 163l160 901h327l-180 -1024q-57 -326 -216 -423t-458 -34l54 310q133 -33 175 -33zM39 0l180 1024h328l-180 -1024h-328zM1020 1559q78 -1 123 -55t31 -132t-78 -133t-142 -55t-124 55t-31 133t79 132t142 55zM479 1559
q78 -1 123 -55t31 -132q-13 -78 -77 -133t-142 -55t-124 55t-32 133t78 132t143 55z" />
    <glyph glyph-name="Kcommaaccent" unicode="&#x136;" horiz-adv-x="1409" 
d="M473 -248q70 0 108 -46q39 -46 23 -128t-174 -287h-98l67 138q-63 6 -97 51q-34 44 -22 112t68 114q55 46 125 46zM809 739l522 -739h-420l-346 489l-114 -116l-66 -373h-348l252 1434h348l-109 -615l582 615h379z" />
    <glyph glyph-name="kcommaaccent" unicode="&#x137;" horiz-adv-x="1118" 
d="M371 -248q69 0 107 -46t23 -128t-173 -287h-99l68 138q-63 6 -97 51q-34 44 -22 112t68 114t125 46zM707 543l331 -543h-379l-180 315l-98 -98l-39 -217h-328l260 1475h328l-151 -861l389 410h348z" />
    <glyph glyph-name="Lacute" unicode="&#x139;" horiz-adv-x="1255" 
d="M1174 307l-54 -307h-1083l252 1434h348l-199 -1127h736zM602 1546h-240l300 297h301z" />
    <glyph glyph-name="lacute" unicode="&#x13a;" horiz-adv-x="555" 
d="M350 0h-325l260 1475h325zM549 1546h-240l299 297h301z" />
    <glyph glyph-name="Lcommaaccent" unicode="&#x13b;" horiz-adv-x="1255" 
d="M397 -248q70 0 108 -46q39 -46 23 -128t-174 -287h-98l68 138q-63 6 -98 51q-34 44 -22 112t68 114q55 46 125 46zM1174 307l-54 -307h-1083l252 1434h348l-199 -1127h736z" />
    <glyph glyph-name="lcommaaccent" unicode="&#x13c;" horiz-adv-x="555" 
d="M148 -248q70 0 107 -46q38 -46 23 -128t-174 -287h-98l68 138q-63 6 -98 51q-34 44 -22 112t68 114t126 46zM350 0h-325l260 1475h325z" />
    <glyph glyph-name="Lcaron" unicode="&#x13d;" horiz-adv-x="1255" 
d="M1174 307l-54 -307h-1083l252 1434h348l-199 -1127h736zM1004 1470q70 0 108 -46t22 -128q-15 -82 -173 -286h-99l68 137q-63 6 -97 51t-22 113q11 67 67 113t126 46z" />
    <glyph glyph-name="lcaron" unicode="&#x13e;" horiz-adv-x="960" 
d="M838 1485q70 0 108 -46t23 -127q-14 -81 -193 -288h-98l88 137q-63 6 -97 51t-23 113q10 68 66 114t126 46z" />
    <glyph glyph-name="Ldot" unicode="&#x13f;" horiz-adv-x="1255" 
d="M780 819q70 0 108 -46t26 -116q-12 -71 -66 -117q-55 -46 -125 -46t-108 47q-39 47 -27 117t67 115q55 46 125 46zM1120 0h-1083l252 1434h348l-199 -1127h736z" />
    <glyph glyph-name="ldot" unicode="&#x140;" horiz-adv-x="952" 
d="M743 819q70 0 108 -46t27 -116q-10 -71 -66 -117t-126 -46t-108 47t-26 117q11 70 66 115q55 46 125 46zM-66 0l261 1475h325l-260 -1475h-326z" />
    <glyph glyph-name="Lslash" unicode="&#x141;" horiz-adv-x="1347" 
d="M1176 307l-54 -307h-1083l74 418l-95 -39l54 307l94 39l125 709h348l-98 -553l524 215l-53 -308l-525 -217l-47 -264h736z" />
    <glyph glyph-name="lslash" unicode="&#x142;" horiz-adv-x="847" 
d="M831 768l-213 -88l-120 -680h-326l94 537l-217 -91l55 306l215 90l113 633h326l-86 -488l213 88z" />
    <glyph glyph-name="Nacute" unicode="&#x143;" horiz-adv-x="1454" 
d="M1231 -61l-721 792l-129 -731h-348l264 1495l719 -795l129 734h348zM997 1546h-239l299 297h301z" />
    <glyph glyph-name="nacute" unicode="&#x144;" 
d="M893 1051q170 1 243 -103t42 -270l-119 -678h-328l103 578q18 112 -32 154t-144 16t-203 -103l-113 -645h-328l181 1024h297q12 -37 4 -137q76 72 186 118t211 46zM850 1341h-240l299 297h301z" />
    <glyph glyph-name="Ncommaaccent" unicode="&#x145;" horiz-adv-x="1454" 
d="M520 -248q70 0 108 -46t22 -128t-173 -287h-98l67 138q-63 6 -97 51q-33 44 -21 112t67 114t125 46zM1493 1434l-262 -1495l-721 792l-129 -731h-348l264 1495l719 -795l129 734h348z" />
    <glyph glyph-name="ncommaaccent" unicode="&#x146;" 
d="M485 -248q70 0 108 -46q39 -46 23 -128t-174 -287h-98l68 138q-63 6 -98 51q-34 45 -24 95q24 125 129 165q32 12 66 12zM893 1051q170 1 243 -103t42 -270l-119 -678h-328l103 578q18 112 -32 154t-144 16t-203 -103l-113 -645h-328l181 1024h297q12 -37 4 -137
q76 72 186 118t211 46z" />
    <glyph glyph-name="Ncaron" unicode="&#x147;" horiz-adv-x="1454" 
d="M1231 -61l-721 792l-129 -731h-348l264 1495l719 -795l129 734h348zM784 1546l-182 297h219l115 -180l178 180h219l-289 -297h-260z" />
    <glyph glyph-name="ncaron" unicode="&#x148;" 
d="M893 1051q170 1 243 -103t42 -270l-119 -678h-328l103 578q18 112 -32 154t-144 16t-203 -103l-113 -645h-328l181 1024h297q12 -37 4 -137q76 72 186 118t211 46zM637 1341l-182 297h219l114 -180l179 180h219l-289 -297h-260z" />
    <glyph glyph-name="Eng" unicode="&#x14a;" horiz-adv-x="1454" 
d="M774 -180q42 0 59 19q36 46 58 154t22 130l25 137l-428 471l-129 -731h-348l264 1495l719 -795l129 734h348l-262 -1495q-51 -283 -218 -371t-466 -25l53 310q132 -33 174 -33z" />
    <glyph glyph-name="eng" unicode="&#x14b;" horiz-adv-x="1290" 
d="M911 1051q170 1 243 -103t42 -270l-119 -678q-75 -431 -346 -475q-135 -23 -325 18l49 289q113 -30 145 -32q33 -3 55 -6t46 27q23 30 30 71q7 42 13 72t6 36l102 578q18 112 -32 154t-143 16t-204 -103l-113 -645h-327l180 1024h297q12 -37 4 -137q76 72 186 118t211 46
z" />
    <glyph glyph-name="Omacron" unicode="&#x14c;" horiz-adv-x="1605" 
d="M913 1137q-177 0 -291 -110q-114 -111 -149 -311t39 -310t252 -109q178 0 293 110q115 111 149 311t-40 310q-75 110 -253 109zM971 1464q227 0 377 -105t200 -273t17 -369q-61 -346 -307 -547t-554 -201t-480 201q-170 200 -112 530t289 547q232 217 570 217zM1372 1642
h-743l35 201h743z" />
    <glyph glyph-name="omacron" unicode="&#x14d;" horiz-adv-x="1165" 
d="M629 770q-97 0 -159 -73t-82 -193t14 -193q36 -73 132 -73t158 74q61 74 82 194q20 120 -14 192t-131 72zM486 -37q-242 0 -356 150q-114 149 -69 399t217 392t406 143q236 -1 348 -149t70 -392q-43 -244 -208 -394t-408 -149zM1116 1438h-743l35 200h743z" />
    <glyph glyph-name="Ohungarumlaut" unicode="&#x150;" horiz-adv-x="1605" 
d="M913 1137q-177 0 -291 -110q-114 -111 -149 -311t39 -310t252 -109q178 0 293 110q115 111 149 311t-40 310q-75 110 -253 109zM971 1464q227 0 377 -105t200 -273t17 -369q-61 -346 -307 -547t-554 -201t-480 201q-170 200 -112 530t289 547q232 217 570 217zM1260 1546
h-220l258 297h261zM870 1546h-219l238 297h260z" />
    <glyph glyph-name="ohungarumlaut" unicode="&#x151;" horiz-adv-x="1165" 
d="M629 770q-97 0 -159 -73t-82 -193t14 -193q36 -73 132 -73t158 74q61 74 82 194q20 120 -14 192t-131 72zM486 -37q-242 0 -356 150q-114 149 -69 399t217 392t406 143q236 -1 348 -149t70 -392q-43 -244 -208 -394t-408 -149zM1004 1341h-220l258 297h261zM614 1341
h-219l238 297h260z" />
    <glyph glyph-name="OE" unicode="&#x152;" horiz-adv-x="2062" 
d="M950 1124q-391 0 -463 -408t320 -407h131l143 815h-131zM717 0q-313 0 -481 186t-110 514t280 531t563 203h1163l-57 -328h-654l-39 -225h596l-55 -308h-596l-43 -245h653l-57 -328h-1163z" />
    <glyph glyph-name="oe" unicode="&#x153;" horiz-adv-x="1949" 
d="M467 238q127 0 195 130q31 58 45 132v6q20 120 -15 192t-131 72q-97 0 -159 -73t-82 -193t15 -192q36 -74 132 -74zM1271 784q-97 0 -149 -54q-50 -55 -73 -155h370q12 102 -19 156q-32 53 -129 53zM1126 -37q-217 0 -329 125q-161 -125 -391 -125t-344 150
q-114 149 -68 399t216 392q171 142 394 142t340 -122q156 123 361 123q268 1 351 -173t25 -503h-659q10 -156 145 -156q121 0 254 70l76 -211q-76 -49 -178 -80t-193 -31z" />
    <glyph glyph-name="Racute" unicode="&#x154;" horiz-adv-x="1286" 
d="M629 686q174 0 231 53q58 53 76 152q33 181 -65 225q-71 31 -166 31h-123l-80 -461h127zM797 1434q276 0 405 -138t86 -385q-53 -303 -309 -434l190 -477h-381l-157 399h-180l-70 -399h-348l252 1434h512zM926 1546h-240l299 297h301z" />
    <glyph glyph-name="racute" unicode="&#x155;" horiz-adv-x="854" 
d="M195 1024h297q8 -31 4 -111q252 207 411 84l-135 -266q-57 49 -140 38t-169 -87l-121 -682h-328zM662 1341h-240l299 297h301z" />
    <glyph glyph-name="Rcommaaccent" unicode="&#x156;" horiz-adv-x="1286" 
d="M542 -294q38 -46 22 -128t-173 -287h-98l67 138q-63 6 -104 60t-1 145q13 33 43 60q29 26 58 42t88 16q60 0 98 -46zM629 686q174 0 231 53q58 53 76 152q33 181 -65 225q-71 31 -166 31h-123l-80 -461h127zM797 1434q276 0 405 -138t86 -385q-53 -303 -309 -434
l190 -477h-381l-157 399h-180l-70 -399h-348l252 1434h512z" />
    <glyph glyph-name="rcommaaccent" unicode="&#x157;" horiz-adv-x="854" 
d="M227 -248q70 0 108 -46q39 -46 23 -128t-174 -287h-98l68 138q-63 6 -98 51q-34 44 -22 112t68 114q55 46 125 46z" />
    <glyph glyph-name="Rcaron" unicode="&#x158;" horiz-adv-x="1286" 
d="M629 686q174 0 231 53q58 53 76 152q33 181 -65 225q-71 31 -166 31h-123l-80 -461h127zM797 1434q276 0 405 -138t86 -385q-53 -303 -309 -434l190 -477h-381l-157 399h-180l-70 -399h-348l252 1434h512zM713 1546l-183 297h220l114 -180l178 180h220l-289 -297h-260z
" />
    <glyph glyph-name="rcaron" unicode="&#x159;" horiz-adv-x="854" 
d="M195 1024h297q8 -31 4 -111q252 207 411 84l-135 -266q-57 49 -140 38t-169 -87l-121 -682h-328zM449 1341l-183 297h219l115 -180l178 180h219l-288 -297h-260z" />
    <glyph glyph-name="Sacute" unicode="&#x15a;" horiz-adv-x="1163" 
d="M141 976q0 36 9 77q29 160 147 261q216 183 595 144q165 -17 294 -76l-160 -272q-102 45 -215 62q-113 16 -201 -8t-98 -84t30 -95t132 -61q229 -68 338 -180t71 -308q-25 -145 -110 -249q-86 -103 -199 -150t-242 -65q-241 -33 -444 51q-88 35 -119 79l203 269
q72 -53 166 -77t174 -16t140 46q60 36 72 98t-36 106t-122 72q-272 97 -329 157t-70 92q-13 31 -19 61t-7 66zM813 1546h-240l299 297h302z" />
    <glyph glyph-name="sacute" unicode="&#x15b;" horiz-adv-x="909" 
d="M510 1049q94 0 198 -27t169 -70l-129 -221q-120 80 -224 80t-112 -51q-10 -57 98 -86q180 -51 258 -132t50 -235t-171 -245t-293 -91q-150 1 -254 47q-102 46 -145 107l170 209q86 -100 214 -100t142 83q-2 15 1 27t-8 24t-14 18q-4 7 -20 16t-29 16t-51 16q-39 9 -53 15
q-131 37 -192 103t-39 187q25 147 148 229q124 81 286 81zM686 1341h-240l299 297h302z" />
    <glyph glyph-name="Scedilla" unicode="&#x15e;" horiz-adv-x="1163" 
d="M403 -434q-51 0 -121 18t-96 43l86 148q72 -68 169 -78t110 55q8 51 -45 51q-41 0 -68 -26l-123 51l76 137q-145 4 -264 43t-158 94l203 269q72 -53 166 -77t174 -16t140 46q60 36 72 98t-36 106t-122 72q-272 97 -329 157t-70 92q-13 31 -19 61t-7 66q0 36 9 77
q29 160 147 261q216 183 595 144q165 -17 294 -76l-160 -272q-147 68 -323 70q-75 0 -129 -28t-63 -80t31 -87t142 -65q345 -100 397 -302q20 -80 2 -186q-51 -298 -354 -413q-84 -32 -180 -46l-51 -86q28 21 82 21t82 -46t16 -118t-85 -125t-190 -53z" />
    <glyph glyph-name="scedilla" unicode="&#x15f;" horiz-adv-x="909" 
d="M283 -434q-51 0 -121 18t-96 43l86 148q72 -68 169 -78t109 55q8 51 -45 51q-41 0 -68 -26l-122 51l79 145q-112 11 -196 55t-123 97l170 209q86 -100 214 -100t142 83q-2 15 1 27t-8 24t-14 18q-4 7 -20 16t-29 16t-51 16q-39 9 -53 15q-131 37 -192 103t-39 187
q25 147 148 229q124 81 286 81q94 0 199 -27t168 -70l-129 -221q-53 37 -123 59t-117 21q-88 0 -96 -51q-8 -41 39 -64q23 -10 31 -14t28 -8q180 -51 258 -132q78 -80 52 -222t-136 -229t-252 -111l-55 -93q29 21 83 21t82 -46t16 -118t-86 -125q-73 -53 -189 -53z" />
    <glyph glyph-name="Scaron" unicode="&#x160;" horiz-adv-x="1163" 
d="M141 976q0 36 9 77q29 160 147 261q216 183 595 144q165 -17 294 -76l-160 -272q-102 45 -215 62q-113 16 -201 -8t-98 -84t30 -95t132 -61q229 -68 338 -180t71 -308q-25 -145 -110 -249q-86 -103 -199 -150t-242 -65q-241 -33 -444 51q-88 35 -119 79l203 269
q72 -53 166 -77t174 -16t140 46q60 36 72 98t-36 106t-122 72q-272 97 -329 157t-70 92q-13 31 -19 61t-7 66zM860 1546h-260l-182 297h219l115 -180l178 180h219z" />
    <glyph glyph-name="scaron" unicode="&#x161;" horiz-adv-x="909" 
d="M510 1049q94 0 198 -27t169 -70l-129 -221q-120 80 -224 80t-112 -51q-10 -57 98 -86q180 -51 258 -132t50 -235t-171 -245t-293 -91q-150 1 -254 47q-102 46 -145 107l170 209q86 -100 214 -100t142 83q-2 15 1 27t-8 24t-14 18q-4 7 -20 16t-29 16t-51 16q-39 9 -53 15
q-131 37 -192 103t-39 187q25 147 148 229q124 81 286 81zM733 1341h-260l-182 297h219l115 -180l178 180h219z" />
    <glyph glyph-name="Tcedilla" unicode="&#x162;" horiz-adv-x="1224" 
d="M535 -434q-51 0 -121 18t-97 43l86 148q72 -68 169 -78t110 55q8 51 -45 51q-41 0 -68 -26l-123 51l95 172h-193l199 1126h-389l53 308h1128l-53 -308h-391l-199 -1126l-67 -113q29 21 83 21t82 -46t16 -118t-86 -125q-73 -53 -189 -53z" />
    <glyph glyph-name="tcedilla" unicode="&#x163;" horiz-adv-x="757" 
d="M440 -440q-51 0 -121 18t-96 43l86 148q72 -68 169 -78t110 55q8 51 -45 51q-41 0 -68 -26l-123 51l80 147q-200 -14 -264 87t-16 370l57 332h-123l47 266h123l80 451h328l-80 -451h200l-47 -266h-200l-37 -211q-35 -199 -29 -232q8 -51 82 -43q35 2 102 19l-53 -297
l-67 -113q29 21 83 21t81 -46q28 -46 16 -118t-85 -125t-190 -53z" />
    <glyph glyph-name="Tcaron" unicode="&#x164;" horiz-adv-x="1224" 
d="M1286 1126h-391l-199 -1126h-348l199 1126h-389l53 308h1128zM670 1546l-183 297h220l114 -180l178 180h220l-289 -297h-260z" />
    <glyph glyph-name="tcaron" unicode="&#x165;" horiz-adv-x="1071" 
d="M494 1024h200l-47 -266h-201l-36 -211q-35 -199 -29 -232q8 -51 82 -43q35 2 102 19l-53 -297q-311 -61 -402 25q-73 69 -69 220q2 79 20 187l58 332h-123l47 266h123l80 451h327zM950 1495q70 0 108 -46t25 -116q-16 -92 -194 -299h-98l88 137q-63 5 -97 51t-24 114
q12 68 67 113q55 46 125 46z" />
    <glyph glyph-name="Tbar" unicode="&#x166;" horiz-adv-x="1224" 
d="M895 1126l-61 -342h204l-34 -200h-205l-103 -584h-348l103 584h-191l35 200h190l62 342h-389l53 308h1128l-53 -308h-391z" />
    <glyph glyph-name="tbar" unicode="&#x167;" horiz-adv-x="757" 
d="M610 1171l-26 -147h200l-47 -266h-200l-37 -211q-35 -199 -29 -232q8 -51 82 -43q35 2 102 19l-53 -297q-311 -61 -402 25q-73 69 -69 220q2 79 21 187l57 332h-123l47 266h123l27 147h-181l35 201h180l19 103h328l-19 -103h236l-35 -201h-236z" />
    <glyph glyph-name="Umacron" unicode="&#x16a;" horiz-adv-x="1427" 
d="M616 -31q-294 0 -416 170q-124 170 -71 479l143 816h349l-134 -760q-41 -199 -1 -295t188 -96t218 91t107 300l134 760h348l-144 -813q-53 -309 -240 -481t-481 -171zM1282 1642h-743l34 201h744z" />
    <glyph glyph-name="umacron" unicode="&#x16b;" 
d="M352 -27q-170 -1 -242 103t-42 270l118 678h328l-102 -578q-18 -112 32 -154t142 -16q94 26 205 103l112 645h328l-180 -1024h-297q-12 37 -4 137q-76 -72 -186 -118t-212 -46zM1153 1438h-743l34 200h744z" />
    <glyph glyph-name="Uring" unicode="&#x16e;" horiz-adv-x="1427" 
d="M616 -31q-294 0 -416 170q-124 170 -71 479l143 816h349l-134 -760q-41 -199 -1 -295t188 -96t218 91t107 300l134 760h348l-144 -813q-53 -309 -240 -481t-481 -171zM932 1733q-30 -1 -54 -21t-29 -51t11 -51t47 -20t55 20t27 51q6 31 -10 51t-47 21zM956 1864
q82 0 129 -60t33 -143q-14 -84 -83 -143q-69 -60 -151 -60t-131 60q-50 60 -36 144q13 82 85 142t154 60z" />
    <glyph glyph-name="uring" unicode="&#x16f;" 
d="M352 -27q-170 -1 -242 103t-42 270l118 678h328l-102 -578q-18 -112 32 -154t142 -16q94 26 205 103l112 645h328l-180 -1024h-297q-12 37 -4 137q-76 -72 -186 -118t-212 -46zM803 1528q-31 0 -55 -20t-28 -52q-5 -31 11 -51q16 -21 47 -21t55 20t27 52q6 32 -10 52
t-47 20zM827 1659q82 1 129 -59t33 -144t-83 -143q-68 -59 -150 -59t-132 60t-36 143t86 143t153 59z" />
    <glyph glyph-name="Uhungarumlaut" unicode="&#x170;" horiz-adv-x="1427" 
d="M616 -31q-294 0 -416 170q-124 170 -71 479l143 816h349l-134 -760q-41 -199 -1 -295t188 -96t218 91t107 300l134 760h348l-144 -813q-53 -309 -240 -481t-481 -171zM1169 1546h-219l258 297h260zM780 1546h-219l238 297h260z" />
    <glyph glyph-name="uhungarumlaut" unicode="&#x171;" 
d="M352 -27q-170 -1 -242 103t-42 270l118 678h328l-102 -578q-18 -112 32 -154t142 -16q94 26 205 103l112 645h328l-180 -1024h-297q-12 37 -4 137q-76 -72 -186 -118t-212 -46zM1040 1341h-219l258 297h260zM651 1341h-219l238 297h260z" />
    <glyph glyph-name="Uogonek" unicode="&#x172;" horiz-adv-x="1427" 
d="M565 -430q-82 0 -131 47t-35 131q23 127 148 223q-257 21 -363 189t-55 458l143 816h349l-134 -760q-41 -199 -1 -295t188 -96t218 91t107 300l134 760h348l-144 -813q-49 -283 -210 -451t-412 -195q-55 -39 -94 -89t-45 -84q-10 -64 38 -64q55 0 82 43l84 -107
q-104 -104 -215 -104z" />
    <glyph glyph-name="uogonek" unicode="&#x173;" 
d="M856 -430q-82 0 -131 47t-35 131q27 141 187 252h-123q-12 37 -4 137q-76 -72 -186 -118t-212 -46q-170 -1 -242 103t-42 270l118 678h328l-102 -578q-18 -112 32 -154t142 -16q94 26 205 103l112 645h328l-180 -1024q-74 -35 -125 -95t-60 -114t41 -53q23 0 47 13t33 30
l84 -107q-104 -104 -215 -104z" />
    <glyph glyph-name="Wcircumflex" unicode="&#x174;" horiz-adv-x="2119" 
d="M1348 -82l-238 881l-547 -881l-389 1516h358l185 -748l514 789l233 -789l447 748h358zM1106 1546h-219l289 297h260l182 -297h-219l-115 180z" />
    <glyph glyph-name="wcircumflex" unicode="&#x175;" horiz-adv-x="1705" 
d="M1055 -82l-207 559l-404 -559l-327 1106h348l123 -473l364 514l183 -514l288 473h349zM862 1341h-219l289 297h260l182 -297h-219l-115 181z" />
    <glyph glyph-name="Ycircumflex" unicode="&#x176;" horiz-adv-x="1404" 
d="M1571 1434l-678 -828l-107 -606h-348l107 606l-387 828h379l235 -523l420 523h379zM748 1546h-220l289 297h260l183 -297h-220l-114 180z" />
    <glyph glyph-name="ycircumflex" unicode="&#x177;" horiz-adv-x="1200" 
d="M1268 1024l-670 -1120q-169 -287 -356 -344q-168 -53 -371 30l127 246q114 -57 180 -26t154 190l-228 1024h359l119 -606l354 606h332zM1137 1341h-219l-115 181l-178 -181h-219l288 297h260z" />
    <glyph glyph-name="Ydieresis" unicode="&#x178;" horiz-adv-x="1404" 
d="M893 606l-107 -606h-348l107 606l-387 828h379l235 -523l420 523h379zM1199 1884q69 0 108 -46t27 -116t-69 -116q-56 -46 -125 -47q-69 0 -109 47q-39 48 -27 116t69 115t126 47zM687 1884q71 0 109 -46t26 -116t-68 -116q-55 -46 -125 -47q-70 0 -110 47
q-39 46 -27 116t68 116t127 46z" />
    <glyph glyph-name="Zacute" unicode="&#x179;" horiz-adv-x="1531" 
d="M641 317h756l-56 -317h-1347l993 1137h-690l51 297h1266zM1085 1546h-239l299 297h301z" />
    <glyph glyph-name="zacute" unicode="&#x17a;" horiz-adv-x="1028" 
d="M1098 1024l-613 -760h418l-47 -264h-926l615 760h-398l48 264h903zM766 1341h-240l299 297h301z" />
    <glyph glyph-name="Zdotaccent" unicode="&#x17b;" horiz-adv-x="1531" 
d="M641 317h756l-56 -317h-1347l993 1137h-690l51 297h1266zM1001 1559q-69 0 -107 47q-38 46 -26 116t68 116t125 46t107 -46t26 -116t-68 -116t-125 -47z" />
    <glyph glyph-name="zdotaccent" unicode="&#x17c;" horiz-adv-x="1028" 
d="M741 1679q70 0 108 -46q37 -45 25 -115t-67 -117t-125 -47t-108 47t-25 117q12 70 67 116t125 45z" />
    <glyph glyph-name="Zcaron" unicode="&#x17d;" horiz-adv-x="1531" 
d="M641 317h756l-56 -317h-1347l993 1137h-690l51 297h1266zM872 1546l-182 297h219l115 -180l178 180h219l-288 -297h-261z" />
    <glyph glyph-name="zcaron" unicode="&#x17e;" horiz-adv-x="1028" 
d="M1098 1024l-613 -760h418l-47 -264h-926l615 760h-398l48 264h903zM553 1341l-182 297h219l115 -180l178 180h219l-289 -297h-260z" />
    <glyph glyph-name="Scommaaccent" unicode="&#x218;" horiz-adv-x="1163" 
d="M483 -248q70 0 108 -46q39 -46 23 -128t-174 -287h-98l68 138q-63 6 -98 51q-34 44 -22 112t68 114q55 46 125 46zM141 976q0 36 9 77q29 160 147 261q216 183 595 144q165 -17 294 -76l-160 -272q-102 45 -215 62q-113 16 -201 -8t-98 -84t30 -95t132 -61
q229 -68 338 -180t71 -308q-25 -145 -110 -249q-86 -103 -199 -150t-242 -65q-241 -33 -444 51q-88 35 -119 79l203 269q72 -53 166 -77t174 -16t140 46q60 36 72 98t-36 106t-122 72q-272 97 -329 157t-70 92q-13 31 -19 61t-7 66z" />
    <glyph glyph-name="scommaaccent" unicode="&#x219;" horiz-adv-x="909" 
d="M362 -248q70 0 108 -46t23 -128t-174 -287h-98l68 138q-63 6 -98 51q-33 44 -21 112t68 114q54 46 124 46zM510 1049q94 0 198 -27t169 -70l-129 -221q-120 80 -224 80t-112 -51q-10 -57 98 -86q180 -51 258 -132t50 -235t-171 -245t-293 -91q-150 1 -254 47
q-102 46 -145 107l170 209q86 -100 214 -100t142 83q-2 15 1 27t-8 24t-14 18q-4 7 -20 16t-29 16t-51 16q-39 9 -53 15q-131 37 -192 103t-39 187q25 147 148 229q124 81 286 81z" />
    <glyph glyph-name="uni021A" unicode="&#x21a;" horiz-adv-x="1224" 
d="M479 -248q70 0 108 -46q39 -46 23 -128t-174 -287h-98l68 138q-63 6 -98 51q-34 44 -22 112t68 114q55 46 125 46zM895 1126l-199 -1126h-348l199 1126h-389l53 308h1128l-53 -308h-391z" />
    <glyph glyph-name="uni021B" unicode="&#x21b;" horiz-adv-x="757" 
d="M305 -248q70 0 108 -46q39 -46 23 -128t-174 -287h-98l67 138q-63 6 -97 51q-34 44 -22 112t68 114q55 46 125 46zM537 758l-37 -211q-35 -199 -29 -232q8 -51 82 -43q35 2 102 19l-53 -297q-311 -61 -402 25q-73 69 -69 220q2 79 21 187l57 332h-123l47 266h123l80 451
h328l-80 -451h200l-47 -266h-200z" />
    <glyph glyph-name="dotlessj" unicode="&#x237;" horiz-adv-x="573" 
d="M-86 -180q42 0 58 19q37 47 59 155q22 107 22 129l160 901h328l-181 -1024q-57 -326 -216 -423t-457 -34l53 310q132 -33 174 -33z" />
    <glyph glyph-name="circumflex" unicode="&#x2c6;" horiz-adv-x="731" 
d="M877 1341h-220l-114 181l-178 -181h-220l289 297h260z" />
    <glyph glyph-name="caron" unicode="&#x2c7;" horiz-adv-x="731" 
d="M641 1341h-260l-182 297h219l114 -180l179 180h219z" />
    <glyph glyph-name="breve" unicode="&#x2d8;" horiz-adv-x="573" 
d="M436 1362q-144 0 -202 81q-56 81 -35 195h180q-13 -72 9 -96t76 -24t85 23t43 97h180q-20 -116 -106 -196t-230 -80z" />
    <glyph glyph-name="dotaccent" unicode="&#x2d9;" horiz-adv-x="325" 
d="M371 1679q69 0 107 -46q38 -45 26 -115t-68 -117t-125 -47t-107 47t-26 117t68 116t125 45z" />
    <glyph glyph-name="ring" unicode="&#x2da;" horiz-adv-x="401" 
d="M381 1528q-31 0 -55 -20t-28 -52q-5 -31 11 -51q16 -21 47 -21t55 20t27 52q6 32 -10 52t-47 20zM406 1659q82 1 129 -59t33 -144t-84 -143q-68 -59 -150 -59t-132 60t-36 143t86 143t154 59z" />
    <glyph glyph-name="ogonek" unicode="&#x2db;" horiz-adv-x="393" 
d="M80 -262q55 0 82 43l84 -107q-104 -104 -215 -104q-82 0 -131 47t-35 131q26 141 186 252h174q-74 -35 -125 -95q-51 -61 -57 -99q-11 -68 37 -68z" />
    <glyph glyph-name="tilde" unicode="&#x2dc;" horiz-adv-x="757" 
d="M154 1380q136 228 278 230q66 0 156 -35q161 -63 216 -23q28 21 77 93l67 -52q-115 -195 -210 -235t-222 18l-57 19q-106 33 -123 25q-57 -24 -75 -43q-17 -19 -38 -46z" />
    <glyph glyph-name="hungarumlaut" unicode="&#x2dd;" horiz-adv-x="854" 
d="M754 1341h-219l258 297h260zM365 1341h-220l238 297h260z" />
    <glyph glyph-name="commaaccentcomb" unicode="&#x326;" horiz-adv-x="0" 
d="M31 -248q69 0 107 -46t23 -128t-173 -287h-99l68 138q-63 6 -97 51q-34 44 -22 112t68 114t125 46z" />
    <glyph glyph-name="Wgrave" unicode="&#x1e80;" horiz-adv-x="2119" 
d="M1348 -82l-238 881l-547 -881l-389 1516h358l185 -748l514 789l233 -789l447 748h358zM1171 1546l-233 297h281l192 -297h-240z" />
    <glyph glyph-name="wgrave" unicode="&#x1e81;" horiz-adv-x="1705" 
d="M848 477l-404 -559l-327 1106h348l123 -473l364 514l183 -514l288 473h349l-717 -1106zM1167 1341h-239l-234 297h281z" />
    <glyph glyph-name="Wacute" unicode="&#x1e82;" horiz-adv-x="2119" 
d="M1348 -82l-238 881l-547 -881l-389 1516h358l185 -748l514 789l233 -789l447 748h358zM1331 1546h-239l299 297h301z" />
    <glyph glyph-name="wacute" unicode="&#x1e83;" horiz-adv-x="1705" 
d="M1055 -82l-207 559l-404 -559l-327 1106h348l123 -473l364 514l183 -514l288 473h349zM1087 1341h-239l299 297h301z" />
    <glyph glyph-name="Wdieresis" unicode="&#x1e84;" horiz-adv-x="2119" 
d="M1348 -82l-238 881l-547 -881l-389 1516h358l185 -748l514 789l233 -789l447 748h358zM1498 1559q-68 0 -108 47q-40 48 -28 116t70 115t126 47t107 -46t27 -116t-68 -116t-126 -47zM987 1559q-69 0 -109 47q-40 46 -28 116t68 116t128 46q70 0 108 -46t26 -116t-68 -116
t-125 -47z" />
    <glyph glyph-name="wdieresis" unicode="&#x1e85;" horiz-adv-x="1705" 
d="M1055 -82l-207 559l-404 -559l-327 1106h348l123 -473l364 514l183 -514l288 473h349zM1254 1354q-68 0 -108 47t-28 116t70 115t126 47q70 0 108 -46q38 -45 26 -115t-68 -117t-126 -47zM743 1354q-69 0 -109 47t-28 117t68 116t128 45q70 0 108 -46q38 -45 26 -115
t-68 -117t-125 -47z" />
    <glyph glyph-name="Ygrave" unicode="&#x1ef2;" horiz-adv-x="1404" 
d="M893 606l-107 -606h-348l107 606l-387 828h379l235 -523l420 523h379zM1053 1546h-240l-233 297h280z" />
    <glyph glyph-name="ygrave" unicode="&#x1ef3;" horiz-adv-x="1200" 
d="M1268 1024l-670 -1120q-169 -287 -356 -344q-168 -53 -371 30l127 246q114 -57 180 -26t154 190l-228 1024h359l119 -606l354 606h332zM690 1341l-233 297h280l193 -297h-240z" />
    <glyph glyph-name="endash" unicode="&#x2013;" horiz-adv-x="1085" 
d="M979 371h-922l47 266h922z" />
    <glyph glyph-name="emdash" unicode="&#x2014;" horiz-adv-x="1622" 
d="M1516 371h-1459l47 266h1459z" />
    <glyph glyph-name="quoteleft" unicode="&#x2018;" horiz-adv-x="458" 
d="M340 1055q-70 0 -108 46t-25 116q16 92 194 299h99l-86 -138q61 -6 95 -51q35 -45 23 -113t-67 -113q-55 -46 -125 -46z" />
    <glyph glyph-name="quoteright" unicode="&#x2019;" horiz-adv-x="458" 
d="M231 1055l88 137q-63 6 -97 51t-22 113t66 114q55 46 125 46t108 -46t25 -116q-16 -92 -194 -299h-99z" />
    <glyph glyph-name="quotedblleft" unicode="&#x201c;" horiz-adv-x="866" 
d="M748 1055q-70 0 -108 46q-38 47 -28 105t66 143q55 85 131 167h98l-86 -138q61 -6 95 -51t23 -113t-67 -113q-54 -46 -124 -46zM340 1055q-70 0 -108 46q-38 47 -28 105t66 143q55 85 131 167h99l-86 -138q61 -6 95 -51q35 -45 23 -113t-67 -113q-55 -46 -125 -46z" />
    <glyph glyph-name="quotedblright" unicode="&#x201d;" horiz-adv-x="866" 
d="M801 1520q69 0 107 -46t23 -128t-194 -287h-98l88 137q-61 6 -96 51t-23 113t68 114t125 46zM393 1520q70 0 108 -46q39 -46 23 -128t-194 -287h-99l88 137q-61 6 -96 51t-23 113t68 114q55 46 125 46z" />
    <glyph glyph-name="dagger" unicode="&#x2020;" horiz-adv-x="921" 
d="M678 1155l268 19l-43 -248l-264 20l-82 -557h-238l115 557l-268 -20l43 248l260 -19l27 279h254z" />
    <glyph glyph-name="daggerdbl" unicode="&#x2021;" horiz-adv-x="921" 
d="M616 717l-57 -230l270 21l-45 -248l-260 19l-26 -279h-254l71 279l-268 -19l45 248l262 -21l25 230l55 229l-268 -20l43 248l260 -19l27 279h254l-72 -279l268 19l-43 -248l-264 20z" />
    <glyph glyph-name="bullet" unicode="&#x2022;" horiz-adv-x="972" 
d="M570 977q132 0 209 -94q77 -93 55 -225t-135 -227t-243 -95t-208 95t-55 226t134 225t243 95z" />
    <glyph glyph-name="ellipsis" unicode="&#x2026;" horiz-adv-x="1409" 
d="M1118 307q70 0 109 -47t27 -117q-12 -71 -68 -117q-55 -46 -125 -46t-109 47q-38 47 -26 117t67 116q55 47 125 47zM670 307q70 0 108 -47t25 -117q-13 -71 -67 -117t-124 -46t-108 47t-27 117t67 116q56 47 126 47zM219 307q70 0 108 -47q37 -47 25 -117
q-12 -71 -66 -117t-124 -46t-110 47t-28 117t69 116q56 47 126 47z" />
    <glyph glyph-name="guilsinglleft" unicode="&#x2039;" horiz-adv-x="667" 
d="M664 834l-279 -324l162 -330l-230 -137l-256 467l418 461z" />
    <glyph glyph-name="guilsinglright" unicode="&#x203a;" horiz-adv-x="667" 
d="M606 510l-420 -467l-184 137l281 330l-164 324l229 137z" />
    <glyph glyph-name="fraction" unicode="&#x2044;" horiz-adv-x="1472" 
d="M125 -348h-318l1588 1986h317z" />
    <glyph glyph-name="Euro" unicode="&#x20ac;" horiz-adv-x="1191" 
d="M643 430q91 -215 428 -125l-4 -305q-222 -61 -425 -5q-203 55 -303 224q-54 92 -71 211h-205l39 225h166l11 62q6 31 12 61h-166l39 226h205q59 118 145 210t183 146q201 113 418 105q106 -2 204 -31l-102 -306q-187 57 -329 -8q-85 -39 -145 -116h287l-67 -226h-322
q-18 -85 -20 -123h303l-66 -225h-215z" />
    <glyph glyph-name="trademark" unicode="&#x2122;" horiz-adv-x="737" 
d="M254 1434h215l-10 -60h-78l-39 -227h-57l39 227h-80zM809 1442l-51 -295h-62l27 149l-92 -79l-66 79l-26 -149h-62l51 295l117 -144z" />
    <glyph glyph-name="minus" unicode="&#x2212;" horiz-adv-x="1257" 
d="M1139 502h-1024l47 266h1024z" />
    <glyph glyph-name="approxequal" unicode="&#x2248;" horiz-adv-x="1390" 
d="M1118 621l99 -109q-87 -121 -194 -208q-60 -49 -149 -64q-129 -22 -407 78q-176 63 -235 54t-93 -36q-35 -27 -67 -60l-101 109q161 214 332 240q86 12 157 1t169 -44t142 -48q44 -16 99 -26q56 -10 76 -8t55 17t57 38q21 23 60 66zM1202 1102l98 -109
q-88 -123 -193 -208q-60 -49 -149 -64t-209 18q-119 32 -198 60q-77 29 -99 35q-152 46 -230 -17q-34 -27 -66 -59l-101 108q161 214 332 240q86 12 157 1t169 -44t142 -48t99 -25q56 -10 76 -9q20 2 55 17t57 38q21 23 60 66z" />
    <glyph glyph-name="notequal" unicode="&#x2260;" horiz-adv-x="1474" 
d="M938 727l-88 -143h514l-47 -267h-629l-168 -274l-194 88l114 186h-352l47 267h467l88 143h-528l45 266h645l205 336l194 -88l-151 -248h336l-45 -266h-453z" />
    <glyph glyph-name="lessequal" unicode="&#x2264;" horiz-adv-x="1380" 
d="M150 266h1024l-48 -266h-1024zM1286 909l-502 -168l443 -168l-45 -260l-1012 426l1155 404z" />
    <glyph glyph-name="greaterequal" unicode="&#x2265;" horiz-adv-x="1380" 
d="M121 266h1024l-47 -266h-1024zM1292 739l-1163 -426l45 260l502 168l-443 168l43 234z" />
    <glyph glyph-name="lozenge" unicode="&#x25ca;" horiz-adv-x="1361" 
d="M481 621l181 -220l258 220l-181 219zM1257 621l-655 -560l-461 560l658 557z" />
    <glyph glyph-name="O_O" horiz-adv-x="2248" 
d="M1116 717q-25 -139 4 -234q61 93 86 233t-4 234q-61 -94 -86 -233zM1556 1137h-28q78 -184 36 -422t-184 -418h27q179 -1 293 109t149 311t-40 311t-253 109zM764 297h27q-76 180 -34 418t185 422h-29q-177 1 -291 -109t-149 -311t39 -311t252 -109zM1638 1464
q202 0 353 -105t201 -273t16 -369q-61 -346 -306 -547t-552 -201q-174 0 -312 68q-160 -68 -331 -68q-311 0 -483 201q-170 200 -112 530t289 547t570 217q178 0 309 -65q156 65 358 65z" />
    <glyph glyph-name="c_t" horiz-adv-x="1755" 
d="M588 -37q-262 -1 -372 145t-64 406q37 207 148 343q112 136 290 185q-47 100 -25 228q43 244 215 381t408 145q283 8 425 -144t91 -440l-33 -188h201l-47 -266h-201l-37 -211q-8 -53 -21 -122t-9 -99q4 -31 10 -35t16 -12q9 -7 23 -7h38t99 19l-53 -297q-310 -61 -409 30
t-42 402l152 860q18 148 -41 232t-195 75q-192 -8 -286 -143q-44 -63 -57 -141q-24 -146 65 -214q41 -32 86 -54q130 -64 165 -107l-143 -215q-99 84 -214 84t-186 -75t-96 -214t19 -214t145 -75q133 0 260 84l68 -215q-69 -57 -183 -94t-210 -37z" />
    <glyph glyph-name="f_i" horiz-adv-x="1130" 
d="M1194 1475l-55 -310q-255 42 -332 40q-77 -1 -113 -10q-64 -16 -90 -91q-10 -29 -18 -80h528l-180 -1024h-328l133 758h-200l-133 -758h-328l133 758h-123l47 266h123l4 18q20 134 56 220t101 147q119 112 416 102q146 -3 359 -36z" />
    <glyph glyph-name="f_l" horiz-adv-x="1226" 
d="M1282 1473l-260 -1473h-326l213 1212q-105 18 -134 7q-28 -10 -46 -26q-30 -26 -53 -169h98l-47 -266h-98l-133 -758h-328l133 758h-123l47 266h123l4 18q23 134 58 224q36 90 102 158t165 94q205 52 601 -43z" />
    <glyph glyph-name="s_t" horiz-adv-x="1626" 
d="M477 364q0 10 -11 18q-11 9 -16 14q-4 4 -20 12l-30 15t-46 13q-33 7 -47 13q-131 37 -191 105t-40 184t101 191t200 103q-53 106 -29 238q43 244 214 381t409 145q281 8 423 -144t93 -440l-35 -188h201l-47 -266h-201l-37 -211q-7 -50 -15 -88q-16 -85 -16 -124
q1 -38 9 -43t18 -13q10 -7 24 -7h36q21 0 100 19l-51 -297q-310 -61 -404 25q-72 66 -70 220q2 79 21 187l57 332h-123l47 266h123l47 262q18 148 -41 232t-198 76q-138 -8 -228 -86q-90 -80 -110 -196t36 -187t177 -136q41 -16 70 -37l-129 -221q-53 37 -122 59t-118 21
q-86 0 -94 -51q-6 -25 17 -48t75 -36l4 -2q180 -51 258 -131q78 -81 56 -209t-103 -210q-151 -153 -379 -153q-136 1 -240 47t-147 107l170 209q87 -97 209 -101q133 0 149 84q6 13 0 25t-6 22z" />
    <glyph glyph-name="zero.tosf" horiz-adv-x="1228" 
d="M659 741q-201 0 -241 -235q-39 -223 162 -223t239 223q41 235 -160 235zM727 1055q258 0 370 -158q113 -159 69 -403t-220 -384t-433 -140t-371 151t-70 397t221 392q176 146 434 145z" />
    <glyph glyph-name="one.tosf" horiz-adv-x="823" 
d="M799 1065l-189 -1065h-358l117 653l-199 -53l-43 283z" />
    <glyph glyph-name="two.tosf" horiz-adv-x="1228" 
d="M624 745q-80 -1 -174 -33t-145 -75l-119 223q98 80 255 137t335 57t281 -85q102 -86 74 -242t-109 -220q-105 -88 -260 -126q-73 -18 -131 -29l-95 -20t-77 -35h594l-52 -297h-1019q16 100 58 183t82 131q79 95 257 178q145 54 216 73t83 23l30 10q57 18 65 67
q7 48 -31 64t-118 16z" />
    <glyph glyph-name="three.tosf" horiz-adv-x="1142" 
d="M371 -100q235 0 231 176q-2 80 -66 112t-194 31h-131l49 281h133q221 0 266 131q23 65 -24 97q-86 57 -399 -42l-78 283q244 92 462 92t322 -111q102 -111 72 -280q-18 -102 -90 -190t-154 -111q92 -31 145 -130t31 -227q-40 -214 -198 -330t-396 -116q-152 0 -300 52
t-191 112l190 272q156 -102 320 -102z" />
    <glyph glyph-name="four.tosf" horiz-adv-x="1265" 
d="M1065 205l-51 -287h-129l-58 -328h-348l58 328h-703q170 180 277 417q106 237 143 447h313q-53 -299 -188 -577h209l147 839h348l-147 -839h129z" />
    <glyph glyph-name="five.tosf" horiz-adv-x="1183" 
d="M268 -440q-287 0 -461 133l175 307q100 -76 252 -99t241 29q91 52 109 160q18 106 -56 152t-217 45q-143 0 -319 -49l139 786h918l-54 -307h-569l-33 -185q314 33 470 -123q52 -53 74 -137t3 -192q-45 -250 -244 -385t-428 -135z" />
    <glyph glyph-name="six.tosf" horiz-adv-x="1263" 
d="M541 279q68 13 121 69t70 154t-18 154q-36 56 -122 56t-153 -39q-67 -40 -103 -104q-14 -153 42 -231t163 -59zM731 1167q-174 0 -285 -194q-27 -47 -49 -111q125 88 293 88q224 0 324 -135t62 -349t-219 -355t-390 -142q-281 -1 -393 181t-50 538t272 566
q210 212 478 212t412 -209l-234 -227q-74 137 -221 137z" />
    <glyph glyph-name="seven.tosf" horiz-adv-x="1200" 
d="M92 1022h1047q-51 -285 -265 -541q-56 -66 -164 -167t-184 -195q-168 -208 -223 -531h-346q47 264 182 492t303 380t230 255h-633z" />
    <glyph glyph-name="eight.tosf" horiz-adv-x="1196" 
d="M604 29q20 106 -63 144q-41 19 -124 19t-141 -46q-58 -48 -72 -122q-12 -74 30 -113q42 -40 143 -44q200 10 227 162zM338 621q-24 -129 162 -131q72 0 121 37q49 38 60 102q11 63 -32 93t-117 32q-174 -4 -194 -133zM322 -440q-234 0 -345 84t-123 203q-7 69 5 159
q23 129 115 228q93 99 216 128q-92 25 -139 110q-47 84 -29 190t77 184q102 138 309 187q88 22 178 22q209 -1 332 -101t90 -290q-25 -147 -149 -241q-58 -44 -124 -61q113 -31 171 -129q58 -97 34 -237t-116 -243q-171 -193 -502 -193z" />
    <glyph glyph-name="nine.tosf" horiz-adv-x="1255" 
d="M498 322q86 0 152 40t104 103q10 102 -13 172q-47 143 -192 119q-67 -12 -121 -69t-71 -155t19 -154t122 -56zM358 -133q174 0 285 194q27 47 49 111q-125 -88 -293 -88q-223 0 -323 135t-62 349t218 356q181 142 391 141q281 0 393 -181t50 -537q-62 -355 -272 -567
t-478 -212t-412 209l233 227q74 -137 221 -137z" />
    <glyph glyph-name="zero.osf" horiz-adv-x="1228" 
d="M569 741q-201 0 -241 -235q-39 -223 159 -223q203 0 242 223q41 235 -160 235zM637 1055q258 0 370 -158q113 -159 69 -403t-220 -384t-433 -140t-371 151t-70 397t221 392q176 146 434 145z" />
    <glyph glyph-name="one.osf" horiz-adv-x="823" 
d="M520 0h-358l117 653l-199 -53l-43 283l672 182z" />
    <glyph glyph-name="two.osf" horiz-adv-x="1228" 
d="M534 745q-80 -1 -174 -33t-145 -75l-119 223q98 80 255 137t335 57t280 -85q102 -86 75 -242q-28 -156 -109 -220q-105 -88 -260 -126q-73 -18 -131 -29l-95 -20t-77 -35h594l-52 -297h-1020q16 100 59 183q42 83 82 131q79 95 257 178q145 54 216 73t83 23l30 10
q57 19 65 67q7 48 -31 64t-118 16z" />
    <glyph glyph-name="three.osf" horiz-adv-x="1142" 
d="M281 -100q235 0 231 176q-2 80 -67 112t-193 31h-131l49 281h133q221 0 266 131q23 65 -24 97q-86 58 -400 -42l-77 283q244 92 462 92t322 -111q102 -111 72 -280q-18 -102 -90 -190t-154 -111q92 -31 145 -130t31 -227q-39 -214 -198 -330t-396 -116q-152 0 -300 52
t-191 112l190 272q156 -102 320 -102z" />
    <glyph glyph-name="four.osf" horiz-adv-x="1265" 
d="M924 -82h-129l-58 -328h-348l57 328h-702q117 123 208 286q162 291 212 578h313q-53 -299 -188 -577h209l147 839h348l-147 -839h129z" />
    <glyph glyph-name="five.osf" horiz-adv-x="1183" 
d="M178 -440q-287 0 -461 133l174 307q100 -76 252 -99t242 29q91 52 109 160q18 106 -56 152t-217 45q-143 0 -319 -49l139 786h917l-53 -307h-569l-33 -185q314 33 470 -123q52 -53 74 -137t3 -192q-45 -250 -244 -385t-428 -135z" />
    <glyph glyph-name="six.osf" horiz-adv-x="1263" 
d="M451 279q68 13 121 69t70 154t-18 154q-36 56 -122 56t-153 -39q-67 -40 -103 -104q-14 -153 42 -231t163 -59zM641 1167q-174 0 -285 -194q-27 -47 -49 -111q125 88 293 88q224 0 324 -135t62 -349t-219 -355t-390 -142q-281 -1 -393 181t-50 538t272 566
q210 212 478 212t412 -209l-234 -227q-74 137 -221 137z" />
    <glyph glyph-name="seven.osf" horiz-adv-x="1200" 
d="M2 1022h1047q-51 -285 -265 -541q-56 -66 -164 -167t-184 -195q-168 -208 -223 -531h-346q47 264 182 492t303 380t230 255h-633z" />
    <glyph glyph-name="eight.osf" horiz-adv-x="1196" 
d="M514 29q19 120 -85 152q-36 11 -85 12q-100 1 -158 -47t-72 -122q-12 -74 30 -113q42 -40 143 -44q200 10 227 162zM396 489q85 0 134 38q48 38 60 102q12 63 -31 93t-117 32q-174 -4 -194 -133q-10 -61 26 -97q37 -35 122 -35zM496 1055q209 -1 332 -101t90 -290
q-18 -106 -96 -192t-177 -110q113 -31 171 -129q58 -97 34 -237t-116 -243q-171 -193 -503 -193q-233 0 -344 85q-112 85 -124 202q-7 69 11 179t110 208q93 99 216 128q-92 25 -139 110q-47 84 -29 190t76 184q104 138 309 187q88 22 179 22z" />
    <glyph glyph-name="nine.osf" horiz-adv-x="1255" 
d="M408 322q86 0 152 40t104 103q10 102 -13 172q-47 143 -192 119q-67 -12 -121 -69t-71 -155t19 -154t122 -56zM268 -133q174 0 285 194q27 47 49 111q-125 -88 -293 -88q-223 0 -323 135t-62 349t218 356q181 142 390 141q281 0 393 -181q113 -181 51 -537
q-62 -355 -272 -567t-478 -212q-267 0 -412 209l233 227q74 -137 221 -137z" />
    <glyph glyph-name="zero.lf" horiz-adv-x="1347" 
d="M548 313q134 1 205 103t98 263t25 251q-6 190 -188 190q-133 0 -202 -101t-103 -302q-41 -182 -5 -293t170 -111zM750 1464q156 0 264 -63t154 -167q44 -104 58 -240t-16 -277q-60 -348 -252 -548t-473 -200q-157 0 -265 66t-151 171q-99 237 -38 511q61 347 249 547
t470 200z" />
    <glyph glyph-name="one.lf" horiz-adv-x="794" 
d="M475 0h-358l186 1053l-199 -54l-43 283l672 182z" />
    <glyph glyph-name="two.lf" horiz-adv-x="1189" 
d="M684 1464q213 0 333 -110t109 -289q-11 -228 -232 -428q-52 -47 -114 -86t-208 -107q-144 -68 -197 -116h590l-58 -328h-1020q25 137 82 256t117 193q60 75 146 143q88 68 138 96t136 71q86 41 132 71t82 73t42 98t-32 95t-112 41q-74 0 -182 -39t-221 -123l-98 289
q182 116 300 158t267 42z" />
    <glyph glyph-name="three.lf" horiz-adv-x="1142" 
d="M360 623h-131l50 280h133q221 0 266 131q24 66 -24 98q-86 58 -400 -42l-78 282q242 92 462 92t323 -110q102 -111 71 -281q-18 -102 -90 -189t-154 -112q92 -31 146 -130t31 -226q-39 -215 -198 -331t-396 -116q-152 1 -300 53t-192 111l191 273q156 -102 319 -103
q234 0 232 176q-2 80 -67 112t-194 32z" />
    <glyph glyph-name="four.lf" horiz-adv-x="1265" 
d="M1137 614l-52 -286h-129l-57 -328h-348l57 328h-702q170 180 276 416t144 448h313q-53 -299 -188 -578h208l148 840h348l-147 -840h129z" />
    <glyph glyph-name="five.lf" horiz-adv-x="1183" 
d="M340 -31q-287 0 -461 133l174 308q99 -76 251 -100t243 30q90 54 108 160t-55 151q-74 45 -217 45t-320 -49l140 787h917l-53 -308h-569l-33 -184q298 26 455 -108q132 -119 89 -357q-42 -238 -241 -373t-428 -135z" />
    <glyph glyph-name="six.lf" horiz-adv-x="1263" 
d="M541 279q68 13 121 69t70 154t-18 154q-36 56 -122 56t-153 -39q-67 -40 -103 -104q-14 -153 42 -231t163 -59zM731 1167q-174 0 -285 -194q-27 -47 -49 -111q125 88 293 88q224 0 324 -135t62 -349t-219 -355t-390 -142q-281 -1 -393 181t-50 538t272 566
q210 212 478 212t412 -209l-234 -227q-74 137 -221 137z" />
    <glyph glyph-name="seven.lf" horiz-adv-x="1200" 
d="M166 1434h1046q-51 -285 -264 -541q-55 -66 -164 -167q-108 -102 -184 -196q-168 -210 -223 -530h-346q47 264 182 492t302 380t230 254h-632z" />
    <glyph glyph-name="eight.lf" horiz-adv-x="1196" 
d="M526 602q-100 0 -158 -47t-72 -121q-27 -148 173 -158q200 10 227 162q14 80 -28 122t-142 42zM578 899q84 0 135 38q49 38 58 90t-11 83t-54 41t-81 12q-175 -4 -195 -133q-10 -61 27 -96t121 -35zM419 -31q-238 0 -350 84q-111 84 -123 204q-7 69 5 159q23 129 116 228
t216 128q-92 25 -140 110q-47 85 -29 190t77 183q57 78 139 122q165 89 361 88t319 -101t90 -291q-25 -148 -149 -240q-58 -44 -124 -61q74 -20 126 -70q112 -109 81 -286q-39 -223 -208 -335t-407 -112z" />
    <glyph glyph-name="nine.lf" horiz-adv-x="1255" 
d="M565 723q86 0 153 40t103 103q14 154 -42 232t-163 59q-68 -13 -121 -69t-70 -154t18 -155q36 -56 122 -56zM467 485q-223 -1 -323 135t-63 350q38 214 219 355t390 141q280 0 392 -181t51 -537t-271 -567q-210 -212 -478 -212t-413 209l234 228q74 -137 221 -138
q174 0 285 195q27 47 49 110q-125 -88 -293 -88z" />
    <glyph glyph-name="zero.tf" horiz-adv-x="1347" 
d="M548 313q134 1 205 103t98 263t25 251q-6 190 -188 190q-133 0 -202 -101t-103 -302q-41 -182 -5 -293t170 -111zM750 1464q156 0 264 -63t154 -167q44 -104 58 -240t-16 -277q-60 -348 -252 -548t-473 -200q-157 0 -265 66t-151 171q-99 237 -38 511q61 347 249 547
t470 200z" />
    <glyph glyph-name="one.tf" horiz-adv-x="794" 
d="M475 0h-358l186 1053l-199 -54l-43 283l672 182z" />
    <glyph glyph-name="two.tf" horiz-adv-x="1189" 
d="M684 1464q213 0 333 -110t109 -289q-11 -228 -232 -428q-52 -47 -114 -86t-208 -107q-144 -68 -197 -116h590l-58 -328h-1020q25 137 82 256t117 193q60 75 146 143q88 68 138 96t136 71q86 41 132 71t82 73t42 98t-32 95t-112 41q-74 0 -182 -39t-221 -123l-98 289
q182 116 300 158t267 42z" />
    <glyph glyph-name="three.tf" horiz-adv-x="1142" 
d="M360 623h-131l50 280h133q221 0 266 131q24 66 -24 98q-86 58 -400 -42l-78 282q242 92 462 92t323 -110q102 -111 71 -281q-18 -102 -90 -189t-154 -112q92 -31 146 -130t31 -226q-39 -215 -198 -331t-396 -116q-152 1 -300 53t-192 111l191 273q156 -102 319 -103
q234 0 232 176q-2 80 -67 112t-194 32z" />
    <glyph glyph-name="four.tf" horiz-adv-x="1265" 
d="M1137 614l-52 -286h-129l-57 -328h-348l57 328h-702q170 180 276 416t144 448h313q-53 -299 -188 -578h208l148 840h348l-147 -840h129z" />
    <glyph glyph-name="five.tf" horiz-adv-x="1183" 
d="M340 -31q-287 0 -461 133l174 308q99 -76 251 -100t243 30q90 54 108 160t-55 151q-74 45 -217 45t-320 -49l140 787h917l-53 -308h-569l-33 -184q298 26 455 -108q132 -119 89 -357q-42 -238 -241 -373t-428 -135z" />
    <glyph glyph-name="six.tf" horiz-adv-x="1263" 
d="M541 279q68 13 121 69t70 154t-18 154q-36 56 -122 56t-153 -39q-67 -40 -103 -104q-14 -153 42 -231t163 -59zM731 1167q-174 0 -285 -194q-27 -47 -49 -111q125 88 293 88q224 0 324 -135t62 -349t-219 -355t-390 -142q-281 -1 -393 181t-50 538t272 566
q210 212 478 212t412 -209l-234 -227q-74 137 -221 137z" />
    <glyph glyph-name="seven.tf" horiz-adv-x="1200" 
d="M166 1434h1046q-51 -285 -264 -541q-55 -66 -164 -167q-108 -102 -184 -196q-168 -210 -223 -530h-346q47 264 182 492t302 380t230 254h-632z" />
    <glyph glyph-name="eight.tf" horiz-adv-x="1196" 
d="M526 602q-100 0 -158 -47t-72 -121q-27 -148 173 -158q200 10 227 162q14 80 -28 122t-142 42zM578 899q84 0 135 38q49 38 58 90t-11 83t-54 41t-81 12q-175 -4 -195 -133q-10 -61 27 -96t121 -35zM419 -31q-238 0 -350 84q-111 84 -123 204q-7 69 5 159q23 129 116 228
t216 128q-92 25 -140 110q-47 85 -29 190t77 183q57 78 139 122q165 89 361 88t319 -101t90 -291q-25 -148 -149 -240q-58 -44 -124 -61q74 -20 126 -70q112 -109 81 -286q-39 -223 -208 -335t-407 -112z" />
    <glyph glyph-name="nine.tf" horiz-adv-x="1255" 
d="M565 723q86 0 153 40t103 103q14 154 -42 232t-163 59q-68 -13 -121 -69t-70 -154t18 -155q36 -56 122 -56zM467 485q-223 -1 -323 135t-63 350q38 214 219 355t390 141q280 0 392 -181t51 -537t-271 -567q-210 -212 -478 -212t-413 209l234 228q74 -137 221 -138
q174 0 285 195q27 47 49 110q-125 -88 -293 -88z" />
    </font>
</defs>
</svg>
