<?xml version="1.0" standalone="no"?>
<!DOCTYPE svg PUBLIC "-//W3C//DTD SVG 1.1//EN" "http://www.w3.org/Graphics/SVG/1.1/DTD/svg11.dtd" >
<svg xmlns="http://www.w3.org/2000/svg">
<metadata>
Created by FontPrep 20130207 at Wed Mar  5 16:52:21 2014
 By Drew Rios
Copyright (c) 2013 by Avondale Type Co. All rights reserved.
</metadata>
<defs>
<font id="336f749963e321d6ca853540a859926e" >
  <font-face 
    font-family="ATCOverlook-Regular"
    font-weight="400"
    font-stretch="normal"
    units-per-em="2048"
    panose-1="0 0 5 0 0 0 0 0 0 0"
    ascent="1638"
    descent="-410"
    x-height="1024"
    cap-height="1434"
    bbox="-117 -655 2341 1864"
    underline-thickness="102"
    underline-position="-102"
    unicode-range="U+0020-25CA"
  />
<missing-glyph horiz-adv-x="1064" 
 />
    <glyph glyph-name="f_f" unicode="ff" horiz-adv-x="1265" 
d="M958 1024h291v-143h-291v-881h-176v881h-348v-881h-176v881h-184v143h184v18q-6 306 82 394q63 63 200 59q67 -2 160 -18v-162q-181 44 -219 6t-43 -114q-4 -76 -4 -156v-27h348v18q-6 318 85 409q65 65 211 55q71 -5 171 -25v-162q-75 17 -115 25q-94 18 -131 -18
t-42 -143q-2 -48 -3 -132v-27z" />
    <glyph glyph-name="f_f_i" unicode="ffi" horiz-adv-x="1593" 
d="M958 1051v-27h467v-1024h-176v881h-291v-881h-176v881h-348v-881h-176v881h-184v143h184v18q-6 306 82 394q63 63 200 59q67 -2 160 -18v-162q-181 44 -219 6t-43 -114q-4 -76 -4 -156v-27h348v18q-2 115 5 187t33 132t68 90t117 45q125 25 420 -15v-162q-241 37 -344 26
q-29 -3 -57 -21t-43 -46q-23 -39 -23 -227z" />
    <glyph glyph-name=".notdef" horiz-adv-x="1064" 
 />
    <glyph glyph-name=".null" horiz-adv-x="0" 
 />
    <glyph glyph-name="nonmarkingreturn" horiz-adv-x="681" 
 />
    <glyph glyph-name="space" unicode=" " horiz-adv-x="610" 
 />
    <glyph glyph-name="exclam" unicode="!" horiz-adv-x="546" 
d="M381 88q0 -45 -31 -77q-31 -31 -76 -31q-44 0 -76 32t-32 68q0 37 14 61q30 54 102 54q37 0 68 -31t31 -76zM346 416h-143v1059h143v-1059z" />
    <glyph glyph-name="quotedbl" unicode="&#x22;" horiz-adv-x="735" 
d="M608 1239h-116l-27 399h170zM268 1239h-116l-27 399h170z" />
    <glyph glyph-name="numbersign" unicode="#" horiz-adv-x="1327" 
d="M520 952l-63 -463h350l63 463h-350zM1176 492v-130h-238l-51 -362h-152l51 362h-348l-51 -362h-151l49 362h-199v130h219l64 458h-217v129h235l51 355h154l-53 -355h352l49 355h152l-50 -355h199v-129h-219l-64 -458h218z" />
    <glyph glyph-name="dollar" unicode="$" 
d="M1073 408q0 -241 -169 -355q-91 -61 -234 -80v-178h-174v178q-127 15 -235 57t-152 93l81 143q110 -94 279 -128t294 26q60 29 97 90q37 62 37 130q0 111 -76 181q-64 60 -205 108q-206 70 -290 113q-151 77 -183 194q-12 44 -12 97q0 175 99 269t266 112v180h174v-178
q178 -16 348 -88l-64 -153q-145 85 -332 96t-268 -87q-47 -56 -47 -138t62 -134q61 -49 116 -67q55 -19 91 -31t99 -34q170 -58 284 -148q114 -91 114 -268z" />
    <glyph glyph-name="percent" unicode="%" horiz-adv-x="1708" 
d="M1280 602q-192 0 -193 -252q-2 -252 195 -252t197 252q1 124 -51 188t-148 64zM1286 717q108 0 180 -48q140 -93 140 -319q0 -166 -84 -266t-241 -100t-240 100t-83 266q0 230 146 321q74 46 182 46zM426 1362q-96 0 -145 -67t-50 -187q0 -254 197 -254t197 254t-199 254
zM408 0h-183l1053 1434h180zM104 1109q0 167 84 267t243 99q159 1 240 -99t81 -267t-84 -267t-241 -100t-240 100t-83 267z" />
    <glyph glyph-name="ampersand" unicode="&#x26;" horiz-adv-x="1445" 
d="M252 379q0 -141 140 -228q75 -46 177 -47q191 1 361 191l-395 389q-283 -96 -283 -305zM678 1337q-96 0 -157 -65q-60 -66 -60 -168t129 -250q139 45 214 111t79 168q2 55 -25 102t-75 75t-105 27zM86 358q0 313 346 443q-139 169 -139 317t103 252t272 104t272 -97
q102 -98 96 -244q-8 -258 -348 -381l340 -336q55 84 97 196t55 217h147q-13 -129 -69 -273t-125 -245l247 -243l-110 -117l-240 242q-219 -233 -467 -234q-201 0 -339 118t-138 281z" />
    <glyph glyph-name="quotesingle" unicode="'" horiz-adv-x="401" 
d="M268 1137h-116l-27 399h170z" />
    <glyph glyph-name="parenleft" unicode="(" horiz-adv-x="872" 
d="M303 568q0 -266 114 -460q114 -192 351 -339l-74 -109q-559 314 -559 908t559 907l74 -109q-238 -150 -352 -341t-113 -457z" />
    <glyph glyph-name="parenright" unicode=")" horiz-adv-x="872" 
d="M737 568q0 -594 -559 -908l-74 109q240 147 353 341t113 458t-113 456t-353 342l74 109q559 -313 559 -907z" />
    <glyph glyph-name="asterisk" unicode="*" horiz-adv-x="860" 
d="M477 1206l193 131l63 -108l-215 -103l215 -100l-63 -115l-193 136l17 -234h-127l18 234l-195 -136l-63 115l217 100l-217 103l63 108l195 -131l-18 234h127z" />
    <glyph glyph-name="plus" unicode="+" horiz-adv-x="1310" 
d="M1167 555h-432v-432h-160v432h-432v160h432v432h160v-432h432v-160z" />
    <glyph glyph-name="comma" unicode="," horiz-adv-x="436" 
d="M78 102q0 36 33 67q33 32 77 32t77 -32q32 -32 32 -73q-1 -41 -21 -77q-20 -37 -37 -70t-25 -46t-32 -55h-51l41 138q-25 2 -46 17q-48 33 -48 99z" />
    <glyph glyph-name="hyphen" unicode="-" horiz-adv-x="749" 
d="M631 420h-512v160h512v-160z" />
    <glyph glyph-name="period" unicode="." horiz-adv-x="497" 
d="M242 193q36 1 60 -13q52 -30 52 -82q0 -51 -32 -84q-32 -32 -73 -32q-42 0 -74 32t-32 76q0 43 31 73t68 30z" />
    <glyph glyph-name="slash" unicode="/" horiz-adv-x="968" 
d="M119 -348h-168l868 1982h168z" />
    <glyph glyph-name="zero" unicode="0" horiz-adv-x="1415" 
d="M1112 718q0 290 -97 438t-309 149q-212 -1 -308 -149t-97 -439q0 -291 96 -439q97 -148 309 -148t309 149t97 439zM1296 717q0 -348 -156 -548t-435 -200q-127 0 -229 43q-186 78 -278 284q-81 179 -81 421q0 348 154 548q155 199 425 199q432 0 559 -434
q41 -135 41 -313z" />
    <glyph glyph-name="one" unicode="1" horiz-adv-x="724" 
d="M522 0h-176v1262l-248 -70l-45 139l469 133v-1464z" />
    <glyph glyph-name="two" unicode="2" horiz-adv-x="1210" 
d="M1067 160v-160h-967q0 225 109 356q74 89 160 146t209 121q123 69 184 115q137 102 149 256q14 186 -123 274q-76 49 -186 49q-194 0 -366 -119l-62 137q100 63 202 97t242 32q209 0 340 -124t132 -312q0 -263 -220 -410q-59 -39 -165 -95q-107 -56 -179 -96t-144 -112
t-101 -155h786z" />
    <glyph glyph-name="three" unicode="3" horiz-adv-x="1232" 
d="M601 1464q218 0 341 -110t123 -281q0 -106 -60 -191t-151 -110q110 -31 184 -130t74 -226q0 -217 -139 -332t-375 -115q-156 1 -310 53t-210 111l84 139q59 -59 177 -102t213 -43q174 0 266 55q110 66 110 237t-136 243q-65 33 -151 32h-242v156h242q121 0 180 68t60 157
q0 238 -297 238q-197 0 -365 -92l-63 151q227 92 445 92z" />
    <glyph glyph-name="four" unicode="4" horiz-adv-x="1277" 
d="M1180 369h-201v-369h-176v369h-729q152 190 239 410q88 220 88 413h164q0 -172 -57 -350t-150 -314h445v926h176v-926h201v-159z" />
    <glyph glyph-name="five" unicode="5" horiz-adv-x="1251" 
d="M348 1274v-367q218 62 418 22q104 -22 184 -71t129 -144t49 -204q0 -110 -22 -184q-41 -136 -146 -223q-155 -131 -391 -134q-266 0 -465 133l64 148q174 -133 376 -133q400 0 400 368q0 171 -107 243q-107 73 -278 74q-172 1 -377 -61v693h910v-160h-744z" />
    <glyph glyph-name="six" unicode="6" horiz-adv-x="1308" 
d="M658 129q152 0 247 87q96 87 96 252t-81 251q-82 86 -230 86q-104 0 -185 -38q-150 -70 -198 -239q15 -209 107 -304t244 -95zM711 1313q-123 1 -208 -57t-138 -183q-53 -135 -62 -332q49 97 163 153t241 56q221 0 350 -136t129 -350t-152 -354t-360 -141
q-547 0 -547 715q0 366 163 574t429 208q135 0 235 -48t197 -161l-102 -118q-137 174 -338 174z" />
    <glyph glyph-name="seven" unicode="7" 
d="M139 1434h967q-43 -326 -197 -545q-64 -91 -211 -259q-204 -237 -204 -630h-191q0 370 229 666q40 54 132 160t151 210t80 238h-756v160z" />
    <glyph glyph-name="eight" unicode="8" horiz-adv-x="1294" 
d="M289 418q0 -279 358 -289q356 10 357 289q0 135 -90 207t-267 71q-264 0 -338 -172q-20 -49 -20 -106zM338 1077q0 -227 307 -227q160 0 235 63t74 164q0 139 -120 199q-73 32 -187 39q-123 -4 -216 -56q-93 -53 -93 -182zM1188 416q0 -223 -148 -335t-393 -112
q-402 0 -510 262q-33 80 -33 198t79 216t198 127q-137 28 -199 166q-28 63 -28 151t44 166q77 136 275 188q85 21 197 21t221 -41t179 -132t69 -209q0 -118 -63 -202t-165 -108q121 -29 199 -127t78 -229z" />
    <glyph glyph-name="nine" unicode="9" horiz-adv-x="1308" 
d="M307 969q0 -166 82 -252t229 -86q104 0 186 38q151 71 197 238q-16 209 -108 305t-242 95q-150 0 -247 -86t-97 -252zM596 123q123 0 208 57t140 182q53 135 60 332q-49 -96 -163 -152t-239 -57q-221 1 -350 137t-129 350t151 354q152 140 361 140q547 0 547 -714
q0 -365 -163 -574t-429 -209q-134 0 -234 48t-198 161l102 119q137 -174 336 -174z" />
    <glyph glyph-name="colon" unicode=":" horiz-adv-x="518" 
d="M367 92q0 -45 -31 -77q-31 -31 -76 -31t-77 32q-31 32 -31 68q0 37 14 61q30 54 101 54q38 0 69 -31t31 -76zM260 1040q45 0 77 -32t32 -76q0 -76 -80 -105q-14 -4 -44 -4t-63 32t-32 77q0 45 32 77q33 31 78 31z" />
    <glyph glyph-name="semicolon" unicode=";" horiz-adv-x="456" 
d="M88 93q0 44 32 76t77 32t77 -32t31 -76q1 -44 -37 -110q-38 -67 -46 -81t-29 -54h-52l41 136q-38 4 -66 34t-28 75zM197 1040q45 0 77 -32t31 -65q0 -83 -65 -112q-20 -8 -54 -8t-66 32t-32 77q0 44 32 76t77 32z" />
    <glyph glyph-name="less" unicode="&#x3c;" horiz-adv-x="1400" 
d="M496 641l723 -309v-187l-1088 492l1088 469v-164z" />
    <glyph glyph-name="equal" unicode="=" horiz-adv-x="1343" 
d="M1184 371h-1024v159h1024v-159zM1184 780h-1024v160h1024v-160z" />
    <glyph glyph-name="greater" unicode="&#x3e;" horiz-adv-x="1400" 
d="M1270 637l-1088 -492v187l725 309l-723 301v164z" />
    <glyph glyph-name="question" unicode="?" horiz-adv-x="1024" 
d="M362 170q33 31 78 31t77 -32t32 -77t-32 -77q-32 -31 -77 -31t-78 32q-32 32 -32 77q0 46 32 77zM470 1464q230 0 346 -105t120 -280q0 -204 -181 -308q-101 -58 -223 -58v-299h-176v407q186 0 293 65q106 65 107 193q0 232 -281 238q-208 -2 -364 -94l-60 145
q189 96 419 96z" />
    <glyph glyph-name="at" unicode="@" horiz-adv-x="2002" 
d="M1006 930q-94 0 -168 -52q-135 -95 -170 -300q-12 -92 -2 -169t65 -127t150 -51q180 1 317 140l72 393q-35 78 -103 122q-67 44 -161 44zM1530 205q120 0 192 125t72 336q0 135 -61 265q-127 270 -417 389q-148 60 -312 60q-221 0 -405 -107q-183 -108 -287 -290
t-103 -401q0 -164 60 -310q122 -297 425 -423q152 -62 326 -62q256 0 489 137l54 -82q-252 -154 -543 -153q-193 -1 -364 71q-170 72 -290 192t-190 285t-70 345q0 242 119 448t326 328q207 121 453 121q184 0 351 -67q167 -68 285 -178t187 -258q70 -148 69 -308
q0 -270 -114 -425t-335 -155q-220 0 -253 148q-162 -135 -350 -136q-143 0 -236 70q-178 135 -129 408q35 203 176 343t357 140q178 0 286 -131l17 92h172q-90 -524 -96 -596q-16 -162 41 -201q31 -20 98 -20z" />
    <glyph glyph-name="A" unicode="A" horiz-adv-x="1495" 
d="M1014 502l-266 585l-269 -585h535zM1087 342h-679l-156 -342h-186l682 1475l682 -1475h-187z" />
    <glyph glyph-name="B" unicode="B" horiz-adv-x="1308" 
d="M371 162h288q180 0 271 57q90 57 90 187q0 250 -410 249h-239v-493zM371 819h215q158 1 255 57t97 173q0 223 -330 223h-237v-453zM190 1434h451q223 0 350 -96t127 -269q0 -256 -229 -319q311 -53 311 -344q0 -202 -132 -304t-372 -102h-506v1434z" />
    <glyph glyph-name="C" unicode="C" horiz-adv-x="1492" 
d="M840 -31q-302 0 -473 153q-238 211 -238 578t190 566t506 198q174 0 331 -74t257 -214l-135 -109q-70 102 -196 169t-257 67q-250 0 -379 -156t-129 -428t130 -430t378 -158q193 0 367 144q51 45 86 94l135 -107q-104 -141 -260 -217q-155 -76 -313 -76z" />
    <glyph glyph-name="D" unicode="D" horiz-adv-x="1523" 
d="M371 162h284q362 0 488 247q63 124 63 306q0 270 -138 413t-413 144h-284v-1110zM190 1434h465q181 0 323 -56q268 -104 370 -381q47 -129 47 -293q-1 -164 -57 -304q-106 -259 -392 -355q-133 -45 -291 -45h-465v1434z" />
    <glyph glyph-name="E" unicode="E" horiz-adv-x="1222" 
d="M367 1274v-457h684v-160h-684v-497h741v-160h-918v1434h918v-160h-741z" />
    <glyph glyph-name="F" unicode="F" horiz-adv-x="1193" 
d="M367 1274v-457h677v-160h-677v-657h-177v1434h912v-160h-735z" />
    <glyph glyph-name="G" unicode="G" horiz-adv-x="1562" 
d="M1413 262q-217 -293 -575 -293q-180 -1 -315 61q-134 62 -219 166q-175 215 -175 521q0 172 55 315q56 142 152 236q202 196 487 196q381 0 590 -288l-131 -101q-70 105 -188 167t-271 63q-227 0 -368 -161t-141 -426t142 -427t367 -162q272 0 414 182v326h-373v160h549
v-535z" />
    <glyph glyph-name="H" unicode="H" horiz-adv-x="1523" 
d="M1333 1434v-1434h-176v637h-790v-637h-177v1434h177v-637h790v637h176z" />
    <glyph glyph-name="I" unicode="I" horiz-adv-x="585" 
d="M381 0h-176v1434h176v-1434z" />
    <glyph glyph-name="J" unicode="J" horiz-adv-x="1048" 
d="M881 1434v-1026q0 -438 -457 -439q-244 0 -381 166l96 139q39 -68 113 -106t168 -39q145 0 215 65t70 216v1024h176z" />
    <glyph glyph-name="K" unicode="K" horiz-adv-x="1333" 
d="M367 0h-177v1434h177v-754l620 754h211l-569 -662l663 -772h-227l-545 647l-153 -178v-469z" />
    <glyph glyph-name="L" unicode="L" horiz-adv-x="1181" 
d="M1102 160v-160h-912v1434h177v-1274h735z" />
    <glyph glyph-name="M" unicode="M" horiz-adv-x="1769" 
d="M1579 0h-176v1077l-518 -542l-518 542v-1077h-177v1475l695 -711l694 711v-1475z" />
    <glyph glyph-name="N" unicode="N" horiz-adv-x="1531" 
d="M367 0h-177v1475l975 -1076v1035h176v-1475l-974 1069v-1028z" />
    <glyph glyph-name="O" unicode="O" horiz-adv-x="1685" 
d="M843 1305q-251 0 -390 -156t-139 -431t140 -432q142 -157 389 -157t389 157t142 432t-140 431t-391 156zM843 1464q171 0 309 -60q257 -112 359 -404q47 -134 47 -296t-56 -304q-110 -274 -382 -381q-129 -50 -304 -50t-336 86t-256 258t-95 404q0 306 179 522
q88 105 226 165t309 60z" />
    <glyph glyph-name="P" unicode="P" horiz-adv-x="1191" 
d="M367 653h223q252 0 317 137q31 62 31 149t-20 140q-50 132 -216 171q-96 24 -235 24h-100v-621zM190 1434h320q308 0 456 -128t148 -358q0 -156 -66 -259q-126 -195 -448 -195h-233v-494h-177v1434z" />
    <glyph glyph-name="Q" unicode="Q" horiz-adv-x="1683" 
d="M843 1305q-251 0 -391 -156t-139 -431q-1 -275 141 -432t389 -157t389 157t142 432t-140 431t-391 156zM844 -31q-203 0 -364 86t-256 258t-95 404q0 306 179 522q88 105 226 165t309 60t309 -60q257 -112 359 -404q47 -134 47 -314t-79 -340q-80 -160 -219 -256
l120 -211l-153 -84l-123 217q-123 -43 -260 -43z" />
    <glyph glyph-name="R" unicode="R" horiz-adv-x="1239" 
d="M367 612h120q164 0 259 30t144 101q48 72 48 199q0 178 -112 255t-339 77h-120v-662zM559 453h-192v-453h-177v1434h340q279 0 432 -127t152 -369q0 -319 -262 -432l293 -506h-205l-264 461q-55 -8 -117 -8z" />
    <glyph glyph-name="S" unicode="S" horiz-adv-x="1179" 
d="M1063 408q0 -123 -45 -214q-45 -92 -119 -138q-218 -137 -541 -60q-88 20 -158 55t-102 72l82 143q110 -94 278 -128t295 26q60 29 97 90q37 62 37 126q0 110 -60 167q-90 87 -286 147q-181 67 -249 106q-68 40 -101 76q-70 79 -70 204q0 126 57 213q58 87 150 125
q190 78 447 26q120 -25 233 -72l-64 -153q-145 85 -332 96t-268 -87q-47 -56 -47 -138t61 -134q60 -48 116 -66q56 -20 92 -32t98 -34q172 -59 276 -141q123 -98 123 -275z" />
    <glyph glyph-name="T" unicode="T" horiz-adv-x="1249" 
d="M1169 1274h-456v-1274h-176v1274h-455v160h1087v-160z" />
    <glyph glyph-name="U" unicode="U" horiz-adv-x="1505" 
d="M1337 1434v-813q0 -313 -147 -483t-438 -169q-291 0 -437 168q-145 168 -145 481v816h176v-799q0 -387 219 -474q78 -32 187 -32q215 0 312 126t97 380v799h176z" />
    <glyph glyph-name="V" unicode="V" horiz-adv-x="1486" 
d="M1421 1434l-678 -1495l-677 1495h186l491 -1112l492 1112h186z" />
    <glyph glyph-name="W" unicode="W" horiz-adv-x="2148" 
d="M1501 -61l-426 1079l-428 -1079l-571 1495h194l385 -1045l420 1065l418 -1065l385 1045h195z" />
    <glyph glyph-name="X" unicode="X" horiz-adv-x="1470" 
d="M1192 0l-457 618l-454 -618h-205l551 737l-516 697h204l420 -574l422 574h205l-518 -695l551 -739h-203z" />
    <glyph glyph-name="Y" unicode="Y" horiz-adv-x="1353" 
d="M766 0h-176v606l-549 828h195l442 -666l440 666h197l-549 -828v-606z" />
    <glyph glyph-name="Z" unicode="Z" horiz-adv-x="1503" 
d="M1341 170v-170h-1232l940 1264h-809v170h1151l-938 -1264h888z" />
    <glyph glyph-name="bracketleft" unicode="[" horiz-adv-x="888" 
d="M784 1339h-428v-1552h428v-135h-596v1823h596v-136z" />
    <glyph glyph-name="backslash" unicode="\" horiz-adv-x="970" 
d="M1018 -348h-170l-868 1982h170z" />
    <glyph glyph-name="bracketright" unicode="]" horiz-adv-x="884" 
d="M696 -348h-592v135h424v1552h-424v136h592v-1823z" />
    <glyph glyph-name="asciicircum" unicode="^" horiz-adv-x="995" 
d="M696 1010l-196 260l-221 -260h-156l375 469l374 -469h-176z" />
    <glyph glyph-name="underscore" unicode="_" horiz-adv-x="1302" 
d="M1307 -303h-1311v127h1311v-127z" />
    <glyph glyph-name="grave" unicode="`" horiz-adv-x="432" 
d="M412 1341h-142l-290 297h190z" />
    <glyph glyph-name="a" unicode="a" horiz-adv-x="1081" 
d="M477 555q-213 0 -213 -215q0 -244 213 -244q74 0 150 45t131 117v238q-147 59 -281 59zM602 1051q164 -1 247 -97t83 -252v-702h-152q-18 57 -22 115q-51 -63 -133 -107t-176 -43q-171 1 -267 105t-96 249t84 251t279 106q150 0 309 -55v38q0 125 -43 187t-137 63
q-164 1 -330 -112l-72 131q82 51 204 87t222 36z" />
    <glyph glyph-name="b" unicode="b" horiz-adv-x="1220" 
d="M924 506q0 190 -69 301t-206 111q-102 0 -184 -54t-127 -147v-422q45 -90 127 -145t184 -56q135 0 205 111t70 301zM338 1475v-584q139 156 328 156q323 0 419 -326q29 -98 29 -215q0 -244 -116 -394t-317 -149q-201 0 -345 150q-2 -53 -21 -113h-153v1475h176z" />
    <glyph glyph-name="c" unicode="c" horiz-adv-x="1064" 
d="M621 -37q-174 0 -293 68q-228 130 -230 483q0 262 131 406t392 145q138 0 266 -61q66 -31 104 -70l-61 -129q-54 47 -144 82t-182 35q-156 0 -243 -104t-87 -304q0 -201 87 -304t243 -104q92 0 182 35t144 82l61 -129q-59 -57 -167 -94t-203 -37z" />
    <glyph glyph-name="d" unicode="d" horiz-adv-x="1220" 
d="M559 918q-80 0 -142 -54q-122 -105 -122 -358q0 -190 70 -301t206 -111t236 96q45 46 76 105v422q-106 201 -324 201zM1059 1475v-1475h-156q-16 59 -20 115q-141 -152 -344 -152t-318 150q-115 151 -115 393t116 392t318 149q202 0 343 -156v584h176z" />
    <glyph glyph-name="e" unicode="e" horiz-adv-x="1148" 
d="M588 915q-152 0 -232 -101t-86 -267h619q-6 174 -77 271t-224 97zM1055 420h-783q16 -142 98 -230t223 -88q142 0 310 101l62 -129q-92 -68 -230 -97q-66 -14 -123 -14q-133 0 -234 46q-182 83 -250 296q-30 94 -30 201q0 248 135 394t349 146t326 -115
q147 -153 147 -511z" />
    <glyph glyph-name="f" unicode="f" horiz-adv-x="741" 
d="M434 1051v-27h291v-143h-291v-881h-176v881h-184v143h184v18q-6 318 85 409q65 65 211 55q71 -5 171 -25v-162q-143 35 -186 29q-44 -6 -60 -22q-36 -35 -41 -113q-4 -78 -4 -162z" />
    <glyph glyph-name="g" unicode="g" horiz-adv-x="1220" 
d="M571 930q-137 0 -207 -111t-69 -301q0 -190 70 -300t206 -109q102 0 184 53q81 53 128 145v424q-45 91 -127 145t-185 54zM1059 1024v-950q0 -272 -113 -406t-360 -133q-119 0 -241 38t-181 93l61 129q160 -123 377 -123q137 0 209 82t72 246v133q-141 -156 -343 -156
t-318 150q-116 151 -116 393t115 392t334 149q186 0 328 -150q4 53 20 113h156z" />
    <glyph glyph-name="h" unicode="h" 
d="M338 1475v-584q64 70 164 115t203 45q170 1 260 -103t90 -270v-678h-176v631q1 133 -55 204t-139 73t-176 -43q-93 -44 -171 -126v-739h-176v1475h176z" />
    <glyph glyph-name="i" unicode="i" horiz-adv-x="555" 
d="M365 0h-177v1024h177v-1024zM286 1466q38 0 68 -30t31 -65q0 -86 -67 -112t-116 24q-32 32 -32 69t14 61q30 53 102 53z" />
    <glyph glyph-name="j" unicode="j" horiz-adv-x="645" 
d="M451 1024v-1024q-1 -229 -27 -314t-58 -116t-103 -49t-279 22v162q80 -19 124 -29t82 -1t52 19t26 71q12 60 11 146v1113h172zM379 1466q33 0 65 -30t31 -65q0 -85 -66 -112t-117 24q-32 33 -32 65q0 118 119 118z" />
    <glyph glyph-name="k" unicode="k" horiz-adv-x="1073" 
d="M338 0h-176v1475h176v-988l428 537h197l-375 -459l446 -565h-215l-332 442l-149 -184v-258z" />
    <glyph glyph-name="l" unicode="l" horiz-adv-x="518" 
d="M346 0h-174v1475h174v-1475z" />
    <glyph glyph-name="m" unicode="m" horiz-adv-x="1740" 
d="M162 1024h151q14 -45 21 -135q154 162 346 162t256 -160q150 160 350 160q305 0 305 -373v-678h-176v631q1 132 -23 178q-24 45 -57 65q-41 47 -163 19t-201 -111v-782h-176v631q0 109 -15 162q-14 53 -65 81q-21 25 -69 28q-100 6 -214 -69q-57 -38 -94 -90v-743h-176
v1024z" />
    <glyph glyph-name="n" unicode="n" 
d="M162 1024h151q14 -37 21 -137q62 72 164 118t207 46q170 1 260 -103t90 -270v-678h-176v631q1 133 -55 204t-139 73t-176 -43q-93 -44 -171 -126v-739h-176v1024z" />
    <glyph glyph-name="o" unicode="o" horiz-adv-x="1196" 
d="M598 915q-156 -1 -238 -113t-81 -296q0 -252 141 -359q74 -55 178 -55q156 0 238 115t82 299t-82 296t-238 113zM96 511q0 251 138 393t372 143t363 -147t129 -394t-129 -394t-370 -148t-372 148t-131 399z" />
    <glyph glyph-name="p" unicode="p" horiz-adv-x="1220" 
d="M924 518q0 188 -69 299t-206 111q-102 2 -184 -54t-127 -145v-422q102 -201 322 -201q82 0 144 52q120 102 120 360zM162 1024h153q18 -59 21 -115q143 152 345 152q201 0 317 -151q116 -152 116 -394t-116 -390t-332 -149q-186 0 -328 156v-543h-176v1434z" />
    <glyph glyph-name="q" unicode="q" horiz-adv-x="1220" 
d="M295 518q0 -190 70 -301t206 -111q101 0 183 54t129 147v422q-45 90 -127 145t-185 56q-137 0 -207 -111t-69 -301zM1059 1024v-1434h-176v543q-141 -156 -328 -156q-219 0 -334 150q-115 151 -115 393t116 392t318 149q202 0 343 -152q4 55 20 115h156z" />
    <glyph glyph-name="r" unicode="r" horiz-adv-x="784" 
d="M162 1024h151q10 -37 17 -111q215 207 397 84l-51 -149q-74 55 -166 35t-172 -119v-764h-176v1024z" />
    <glyph glyph-name="s" unicode="s" horiz-adv-x="948" 
d="M674 291q0 84 -68 131t-219 85t-224 90t-73 175t97 200t253 77q92 0 192 -27t171 -70l-53 -121q-147 88 -295 89q-77 0 -139 -34t-62 -109t102 -113q34 -12 176 -49t225 -106t83 -190t-56 -199q-105 -148 -323 -149q-135 -1 -235 45t-158 109l84 117q53 -66 134 -100
t170 -34q90 0 154 50q64 49 64 133z" />
    <glyph glyph-name="t" unicode="t" horiz-adv-x="819" 
d="M436 881v-455q0 -184 22 -242q7 -20 25 -36q52 -45 244 8v-162q-165 -30 -246 -25t-121 40q-39 36 -55 71q-45 98 -45 346v455h-184v143h184v451h176v-451h291v-143h-291z" />
    <glyph glyph-name="u" unicode="u" 
d="M1040 1024v-1024h-151q-14 37 -21 137q-66 -72 -167 -118t-203 -46q-170 -1 -260 103t-88 270v678h176v-631q0 -133 55 -204t137 -73t175 43q93 44 171 126v739h176z" />
    <glyph glyph-name="v" unicode="v" horiz-adv-x="1079" 
d="M1020 1024l-467 -1085l-494 1085h189l309 -721l297 721h166z" />
    <glyph glyph-name="w" unicode="w" horiz-adv-x="1689" 
d="M1147 -61l-301 716l-301 -716l-475 1085h182l297 -700l297 720l295 -720l299 700h182z" />
    <glyph glyph-name="x" unicode="x" horiz-adv-x="1069" 
d="M811 2l-279 379l-274 -379h-192l370 514l-368 510h194l273 -379l274 379h192l-368 -510l373 -514h-195z" />
    <glyph glyph-name="y" unicode="y" horiz-adv-x="1144" 
d="M1077 1024l-473 -1120q-51 -127 -97 -202q-45 -75 -107 -115t-136 -38t-176 41l53 154q70 -35 118 -38t88 33t71 94t69 167l-403 1024h188l303 -819l336 819h166z" />
    <glyph glyph-name="z" unicode="z" horiz-adv-x="1048" 
d="M895 141v-141h-795l572 883h-496v141h772l-567 -883h514z" />
    <glyph glyph-name="braceleft" unicode="{" horiz-adv-x="956" 
d="M543 1054v-107q-1 -102 -13 -145q-12 -42 -30 -90t-88 -99q-33 -24 -76 -35q127 -41 167 -140q40 -98 40 -216v-97q0 -149 31 -201t77 -74q93 -44 199 -69l-27 -121q-347 66 -414 232q-32 81 -32 148v169q0 297 -242 297h-33v143h33q242 0 242 297q0 193 10 244
q31 160 205 237q92 41 231 68l27 -121q-74 -16 -145 -42t-118 -82q-44 -52 -44 -196z" />
    <glyph glyph-name="bar" unicode="|" horiz-adv-x="618" 
d="M381 -348h-143v1986h143v-1986z" />
    <glyph glyph-name="braceright" unicode="}" horiz-adv-x="958" 
d="M582 1072v-126q0 -86 20 -149t76 -105t145 -43h33v-143h-33q-129 0 -185 -82t-56 -215v-53q0 -39 1 -85t-14 -118t-50 -113q-86 -102 -250 -148q-60 -17 -134 -32l-29 121q109 27 170 53q112 49 132 160q8 45 8 91v60q0 89 3 137q10 163 84 229q46 42 120 67
q-74 21 -133 82q-26 29 -46 94q-28 92 -28 193v83q0 86 -8 132q-19 109 -130 159q-60 26 -169 55l26 119q281 -53 372 -166q75 -92 75 -257z" />
    <glyph glyph-name="asciitilde" unicode="~" horiz-adv-x="1454" 
d="M1214 836l107 -58q-87 -158 -156 -196q-29 -16 -51 -28t-58 -12q-107 -3 -269 50q-53 16 -75 22t-125 34t-135 27q-89 -4 -113 -22q-65 -51 -99 -96l-107 55q64 113 123 153q36 24 64 39t69 17t84 4t145 -30q101 -31 155 -47q199 -61 290 -54q25 2 55 26t46 46
q15 22 50 70z" />
    <glyph glyph-name="exclamdown" unicode="&#xa1;" horiz-adv-x="546" 
d="M344 -410h-143v1020h143v-1020zM166 934q0 44 30 76t77 32q46 0 77 -30t31 -66q0 -85 -68 -111q-68 -27 -116 23q-31 31 -31 76z" />
    <glyph glyph-name="cent" unicode="&#xa2;" horiz-adv-x="1091" 
d="M690 -205h-176v176q-201 33 -301 173t-100 370t100 370t301 173v178h176v-174q90 -8 178 -43t138 -84l-62 -129q-53 47 -142 82t-184 35q-156 0 -242 -104t-85 -304q0 -201 86 -304q86 -104 230 -104t254 61q48 25 83 56l62 -129q-50 -49 -138 -84t-178 -43v-172z" />
    <glyph glyph-name="sterling" unicode="&#xa3;" horiz-adv-x="1210" 
d="M1108 160v-160h-975v160q74 0 131 54t60 159v284h-191v160h191v258q0 129 55 218t139 129t186 52q199 22 363 -51l-61 -153q-25 23 -82 39t-130 16t-139 -19q-67 -18 -111 -78t-44 -153v-258h280v-160h-280v-251q0 -158 -78 -246h686z" />
    <glyph glyph-name="yen" unicode="&#xa5;" horiz-adv-x="1265" 
d="M1014 668v-127h-293v-160h293v-127h-293v-254h-176v254h-301v127h301v160h-301v127h301l-502 766h195l395 -607l395 607h195l-502 -766h293z" />
    <glyph glyph-name="brokenbar" unicode="&#xa6;" horiz-adv-x="618" 
d="M381 -348h-143v676h143v-676zM381 963h-143v675h143v-675z" />
    <glyph glyph-name="section" unicode="&#xa7;" horiz-adv-x="1218" 
d="M303 552q0 -79 67 -127t177 -87q153 -39 261 8t107 168q0 72 -64 118q-65 46 -171 81q-222 52 -320 -33q-56 -49 -57 -128zM326 1112q0 -114 156 -180q52 -23 82 -32q313 -94 420 -168q107 -75 108 -214q0 -215 -234 -289q104 -51 158 -118q53 -68 53 -170
q0 -147 -87 -239q-156 -164 -507 -120q-152 18 -293 74l62 147q82 -45 190 -69q260 -56 387 43q72 55 72 160q0 72 -74 133t-278 120q-203 60 -309 138q-105 78 -105 215q0 104 52 174t171 108q-102 49 -151 116t-49 167q0 146 87 238q156 164 506 120q152 -18 293 -73
l-61 -148q-141 83 -320 87q-203 8 -282 -82q-47 -54 -47 -138z" />
    <glyph glyph-name="dieresis" unicode="&#xa8;" horiz-adv-x="608" 
d="M393 1519q0 46 33 75q33 30 77 30t75 -31q30 -31 30 -75t-30 -77q-30 -32 -76 -32q-45 0 -77 32t-32 78zM0 1519q0 46 33 75q33 30 77 30t74 -31t31 -69q0 -38 -14 -62q-30 -53 -83 -53q-54 0 -86 32t-32 78z" />
    <glyph glyph-name="copyright" unicode="&#xa9;" horiz-adv-x="1699" 
d="M621 716q0 -284 231 -284q62 0 126 24t103 58l45 -92q-40 -43 -118 -69t-152 -25q-180 0 -272 101t-92 287t92 288t272 102q74 0 152 -27t118 -67l-45 -94q-41 36 -103 60t-126 23q-231 -1 -231 -285zM1485 716q-1 266 -183 454q-182 186 -451 186t-453 -186t-183 -453
q0 -267 182 -453q181 -186 451 -186t454 186q183 186 183 452zM853 1458q310 0 524 -216t214 -522t-217 -525t-527 -219t-524 215q-214 217 -214 523t217 525t527 219z" />
    <glyph glyph-name="guillemotleft" unicode="&#xab;" horiz-adv-x="1097" 
d="M983 889l-248 -379l248 -385l-129 -82l-330 467l330 461zM551 889l-248 -379l248 -385l-129 -82l-330 467l330 461z" />
    <glyph glyph-name="registered" unicode="&#xae;" horiz-adv-x="796" 
d="M336 1106h35q73 0 99 14t26 60t-30 61q-30 16 -95 16h-35v-151zM383 1311q170 0 170 -129q0 -80 -70 -113l80 -143h-63l-72 129q-16 -2 -37 -2h-55v-127h-57v385h104zM398 809q128 0 216 90t88 218t-88 217t-216 89t-216 -90t-88 -217t88 -217t216 -90zM400 1475
q150 -1 251 -105q103 -104 103 -252t-104 -254t-253 -106q-150 0 -253 105t-103 253t104 253q105 106 255 106z" />
    <glyph glyph-name="macron" unicode="&#xaf;" horiz-adv-x="743" 
d="M743 1481h-743v123h743v-123z" />
    <glyph glyph-name="degree" unicode="&#xb0;" horiz-adv-x="804" 
d="M406 1583q-72 0 -120 -48t-48 -120t48 -120t108 -48q109 0 156 82q22 39 22 99t-48 107q-46 48 -118 48zM406 1677q100 0 178 -78t78 -184t-78 -184t-163 -78q-164 0 -241 132q-35 60 -35 130q0 104 80 183q81 79 181 79z" />
    <glyph glyph-name="plusminus" unicode="&#xb1;" horiz-adv-x="1314" 
d="M145 160h1024v-160h-1024v160zM1169 874v-159h-432v-355h-159v355h-433v159h433v355h159v-355h432z" />
    <glyph glyph-name="acute" unicode="&#xb4;" horiz-adv-x="436" 
d="M162 1341h-142l246 297h191z" />
    <glyph glyph-name="paragraph" unicode="&#xb6;" horiz-adv-x="1206" 
d="M1010 1434v-1434h-176v481h-189q-353 0 -489 207q-70 104 -70 254q0 209 155 350t404 142h365z" />
    <glyph glyph-name="periodcentered" unicode="&#xb7;" horiz-adv-x="503" 
d="M260 764q37 0 68 -31q30 -31 30 -76t-30 -77t-76 -31q-45 0 -77 32q-32 33 -32 69t15 61q30 53 102 53z" />
    <glyph glyph-name="cedilla" unicode="&#xb8;" horiz-adv-x="419" 
d="M420 -242q0 -114 -96 -167q-49 -26 -117 -25q-131 0 -207 61l35 90q76 -59 168 -59q131 0 131 94q0 76 -76 76q-49 0 -80 -35l-67 35l63 172h88l-47 -113q27 21 80 21t89 -46t36 -104z" />
    <glyph glyph-name="guillemotright" unicode="&#xbb;" horiz-adv-x="1097" 
d="M1004 510l-330 -467l-127 82l248 385l-248 379l127 82zM571 510l-329 -467l-127 82l247 385l-247 379l127 82z" />
    <glyph glyph-name="questiondown" unicode="&#xbf;" horiz-adv-x="1024" 
d="M492 713h176v-408q-253 0 -350 -112q-50 -59 -50 -160t72 -161t209 -62q208 2 364 96l60 -148q-189 -94 -419 -95t-346 105t-120 279q0 117 64 203q119 162 340 166v297zM592 926q-37 0 -63 14q-54 29 -54 84t32 87t77 32t78 -32q32 -32 32 -78t-32 -77q-33 -30 -70 -30z
" />
    <glyph glyph-name="Agrave" unicode="&#xc0;" horiz-adv-x="1495" 
d="M1014 502l-266 585l-269 -585h535zM1087 342h-679l-156 -342h-186l682 1475l682 -1475h-187zM664 1546l-291 297h188l242 -297h-139z" />
    <glyph glyph-name="Aacute" unicode="&#xc1;" horiz-adv-x="1495" 
d="M748 1087l-269 -585h535zM408 342l-156 -342h-186l682 1475l682 -1475h-187l-156 342h-679zM690 1546h-139l246 297h190z" />
    <glyph glyph-name="Acircumflex" unicode="&#xc2;" horiz-adv-x="1495" 
d="M748 1087l-269 -585h535zM408 342l-156 -342h-186l682 1475l682 -1475h-187l-156 342h-679zM1094 1546h-142l-204 201l-207 -201h-142l254 297h187z" />
    <glyph glyph-name="Atilde" unicode="&#xc3;" horiz-adv-x="1495" 
d="M748 1087l-269 -585h535zM408 342l-156 -342h-186l682 1475l682 -1475h-187l-156 342h-679zM1059 1831l71 -45q-37 -81 -83 -144q-22 -28 -89 -47q-35 -8 -79 8q-43 15 -94 33t-93 31q-40 13 -64 19q-75 21 -115 0q-39 -21 -69 -80l-71 45q33 78 88 130q26 25 100 36
q46 5 174 -44t170 -54q41 -5 57 -3t36 22t61 93z" />
    <glyph glyph-name="Adieresis" unicode="&#xc4;" horiz-adv-x="1495" 
d="M748 1087l-269 -585h535zM408 342l-156 -342h-186l682 1475l682 -1475h-187l-156 342h-679zM950 1829q37 0 68 -31t31 -76q0 -44 -31 -76t-76 -32t-77 32q-31 32 -31 86t54 83q26 14 62 14zM557 1829q37 0 68 -31t31 -76q0 -44 -32 -76q-30 -32 -75 -32t-77 32t-32 68
t15 62q30 53 102 53z" />
    <glyph glyph-name="Aring" unicode="&#xc5;" horiz-adv-x="1495" 
d="M1014 502l-266 585l-269 -585h535zM635 1661q0 -47 35 -82t82 -35t81 35t33 82q0 47 -33 82q-34 35 -81 35t-82 -35t-35 -82zM549 1650q0 128 102 187q47 27 115 27t126 -60t58 -143q0 -84 -57 -142t-137 -61l674 -1458h-187l-156 342h-679l-156 -342h-186l673 1458
q-78 6 -134 66t-56 126z" />
    <glyph glyph-name="AE" unicode="&#xc6;" horiz-adv-x="2041" 
d="M1040 502v680l-483 -680h483zM1217 1274v-457h677v-160h-677v-497h735v-160h-912v342h-598l-243 -342h-185l1026 1434h912v-160h-735z" />
    <glyph glyph-name="Ccedilla" unicode="&#xc7;" horiz-adv-x="1492" 
d="M825 1303q-250 0 -379 -156t-129 -428t130 -430t378 -158q125 0 254 69t199 169l135 -107q-101 -135 -247 -210t-310 -83l-39 -92q27 21 80 21t89 -46t36 -118t-56 -125t-172 -53t-192 61l35 90q76 -59 168 -59q131 0 131 94q0 76 -76 76q-49 0 -80 -35l-69 35l59 153
q-164 8 -290 74t-202 170q-150 206 -149 502q0 350 190 549t506 198q174 0 331 -74t257 -214l-135 -109q-70 102 -196 169t-257 67z" />
    <glyph glyph-name="Egrave" unicode="&#xc8;" horiz-adv-x="1222" 
d="M367 817h684v-160h-684v-497h741v-160h-918v1434h918v-160h-741v-457zM862 1546h-139l-291 297h189z" />
    <glyph glyph-name="Eacute" unicode="&#xc9;" horiz-adv-x="1222" 
d="M367 1274v-457h684v-160h-684v-497h741v-160h-918v1434h918v-160h-741zM606 1546h-141l246 297h190z" />
    <glyph glyph-name="Ecircumflex" unicode="&#xca;" horiz-adv-x="1222" 
d="M367 817h684v-160h-684v-497h741v-160h-918v1434h918v-160h-741v-457zM1008 1546h-142l-204 201l-207 -201h-142l254 297h187z" />
    <glyph glyph-name="Edieresis" unicode="&#xcb;" horiz-adv-x="1222" 
d="M367 817h684v-160h-684v-497h741v-160h-918v1434h918v-160h-741v-457zM864 1829q37 0 69 -31t32 -76q0 -44 -32 -76t-76 -32t-77 32q-32 32 -32 85t54 84q24 14 62 14zM471 1829q37 0 69 -31t32 -76q0 -44 -32 -76t-76 -32t-77 32t-33 68t16 62q32 53 101 53z" />
    <glyph glyph-name="Igrave" unicode="&#xcc;" horiz-adv-x="585" 
d="M205 0v1434h176v-1434h-176zM496 1546h-142l-291 297h191z" />
    <glyph glyph-name="Iacute" unicode="&#xcd;" horiz-adv-x="585" 
d="M381 0h-176v1434h176v-1434zM303 1546h-141l246 297h190z" />
    <glyph glyph-name="Icircumflex" unicode="&#xce;" horiz-adv-x="585" 
d="M205 0v1434h176v-1434h-176zM641 1546h-141l-205 201l-207 -201h-141l254 297h186z" />
    <glyph glyph-name="Idieresis" unicode="&#xcf;" horiz-adv-x="585" 
d="M205 0v1434h176v-1434h-176zM489 1614q-45 0 -77 32t-31 86t53 83q24 14 62 14t69 -31t31 -76q0 -44 -31 -76t-76 -32zM103 1829q38 0 69 -31t31 -69q0 -70 -53 -101q-25 -14 -62 -14t-69 32q-31 32 -31 86t52 83q24 14 63 14z" />
    <glyph glyph-name="Eth" unicode="&#xd0;" horiz-adv-x="1523" 
d="M371 162h284q362 0 488 247q63 124 63 306q0 270 -138 413t-413 144h-284v-484h340v-159h-340v-467zM190 1434h465q181 0 323 -56q268 -104 370 -381q47 -129 47 -293q-1 -164 -57 -304q-106 -259 -392 -355q-133 -45 -291 -45h-465v1434z" />
    <glyph glyph-name="Ntilde" unicode="&#xd1;" horiz-adv-x="1531" 
d="M367 0h-177v1475l975 -1076v1035h176v-1475l-974 1069v-1028zM944 1595q-14 1 -41 9t-59 18t-65 22q-187 71 -233 48t-81 -86l-72 45q84 197 243 159q57 -14 172 -57q115 -44 174 -37q14 2 34 20t30 36t33 59l72 -45q-35 -80 -59 -112q-53 -73 -111 -78q-23 -1 -37 -1z
" />
    <glyph glyph-name="Ograve" unicode="&#xd2;" horiz-adv-x="1685" 
d="M843 1305q-251 0 -390 -156t-139 -431t140 -432q142 -157 389 -157t389 157t142 432t-140 431t-391 156zM843 1464q171 0 309 -60q257 -112 359 -404q47 -134 47 -296t-56 -304q-110 -274 -382 -381q-129 -50 -304 -50t-336 86t-256 258t-95 404q0 306 179 522
q88 105 226 165t309 60zM899 1546h-141l-291 297h190z" />
    <glyph glyph-name="Oacute" unicode="&#xd3;" horiz-adv-x="1685" 
d="M843 1305q-251 0 -390 -156t-139 -431t140 -432q142 -157 389 -157t389 157t142 432t-140 431t-391 156zM843 1464q171 0 309 -60q257 -112 359 -404q47 -134 47 -296t-56 -304q-110 -274 -382 -381q-129 -50 -304 -50t-336 86t-256 258t-95 404q0 306 179 522
q88 105 226 165t309 60zM786 1546h-141l246 297h190z" />
    <glyph glyph-name="Ocircumflex" unicode="&#xd4;" horiz-adv-x="1685" 
d="M843 1305q-251 0 -390 -156t-139 -431t140 -432q142 -157 389 -157t389 157t142 432t-140 431t-391 156zM843 1464q171 0 309 -60q257 -112 359 -404q47 -134 47 -296t-56 -304q-110 -274 -382 -381q-129 -50 -304 -50t-336 86t-256 258t-95 404q0 306 179 522
q88 105 226 165t309 60zM1190 1546h-141l-205 201l-207 -201h-141l254 297h186z" />
    <glyph glyph-name="Otilde" unicode="&#xd5;" horiz-adv-x="1685" 
d="M843 1305q-251 0 -390 -156t-139 -431t140 -432q142 -157 389 -157t389 157t142 432t-140 431t-391 156zM843 1464q171 0 309 -60q257 -112 359 -404q47 -134 47 -296t-56 -304q-110 -274 -382 -381q-129 -50 -304 -50t-336 86t-256 258t-95 404q0 306 179 522
q88 105 226 165t309 60zM1020 1595q-14 1 -41 9t-59 18t-65 22t-119 38q-86 25 -111 13q-47 -24 -86 -89l-70 45q30 78 87 130q30 26 91 33q61 8 178 -40q176 -66 232 -58q15 2 35 20t30 36t33 59l72 -45q-55 -124 -99 -156t-69 -33q-25 -2 -39 -2z" />
    <glyph glyph-name="Odieresis" unicode="&#xd6;" horiz-adv-x="1685" 
d="M843 1305q-251 0 -390 -156t-139 -431t140 -432q142 -157 389 -157t389 157t142 432t-140 431t-391 156zM843 1464q171 0 309 -60q257 -112 359 -404q47 -134 47 -296t-56 -304q-110 -274 -382 -381q-129 -50 -304 -50t-336 86t-256 258t-95 404q0 306 179 522
q88 105 226 165t309 60zM1037 1614q-43 0 -75 32t-32 86t52 83q24 14 62 14q37 0 69 -31t32 -76q0 -44 -32 -76t-76 -32zM651 1829q37 0 69 -31t32 -76q0 -44 -32 -76t-76 -32t-76 32t-32 86t54 83q24 14 61 14z" />
    <glyph glyph-name="multiply" unicode="&#xd7;" horiz-adv-x="1320" 
d="M170 246l868 868l113 -115l-868 -868z" />
    <glyph glyph-name="Oslash" unicode="&#xd8;" horiz-adv-x="1693" 
d="M844 129q246 0 388 157t142 434t-145 433l-676 -950q123 -74 291 -74zM844 1305q-252 0 -391 -156t-139 -428t132 -428l674 946q-117 66 -276 66zM844 -31q-217 0 -385 101l-166 -234h-170l225 318q-219 205 -219 563q0 306 179 522q188 225 556 225q192 0 350 -92
l187 262h170l-244 -344q113 -102 172 -253t59 -323t-56 -314q-110 -274 -382 -381q-129 -50 -276 -50z" />
    <glyph glyph-name="Ugrave" unicode="&#xd9;" horiz-adv-x="1505" 
d="M1337 1434v-813q0 -313 -147 -483t-438 -169q-291 0 -437 168q-145 168 -145 481v816h176v-799q0 -387 219 -474q78 -32 187 -32q215 0 312 126t97 380v799h176zM969 1546h-140l-290 297h188z" />
    <glyph glyph-name="Uacute" unicode="&#xda;" horiz-adv-x="1505" 
d="M1337 1434v-813q0 -313 -147 -483t-438 -169q-291 0 -437 168q-145 168 -145 481v816h176v-799q0 -387 219 -474q78 -32 187 -32q215 0 312 126t97 380v799h176zM713 1546h-142l246 297h191z" />
    <glyph glyph-name="Ucircumflex" unicode="&#xdb;" horiz-adv-x="1505" 
d="M1337 1434v-813q0 -313 -147 -483t-438 -169q-291 0 -437 168q-145 168 -145 481v816h176v-799q0 -387 219 -474q78 -32 187 -32q215 0 312 126t97 380v799h176zM1116 1546h-141l-205 201l-207 -201h-141l254 297h186z" />
    <glyph glyph-name="Udieresis" unicode="&#xdc;" horiz-adv-x="1505" 
d="M1337 1434v-813q0 -313 -147 -483t-438 -169q-291 0 -437 168q-145 168 -145 481v816h176v-799q0 -387 219 -474q78 -32 187 -32q215 0 312 126t97 380v799h176zM971 1829q37 0 69 -31t31 -76q0 -44 -32 -76q-31 -32 -75 -32t-76 32t-32 68t14 62q14 25 39 39t62 14z
M581 1829q33 0 65 -31t32 -76q0 -44 -32 -76t-76 -32t-76 32t-31 64q0 32 8 53q26 66 110 66z" />
    <glyph glyph-name="Yacute" unicode="&#xdd;" horiz-adv-x="1353" 
d="M766 0h-176v606l-549 828h195l442 -666l440 666h197l-549 -828v-606zM621 1546h-142l246 297h190z" />
    <glyph glyph-name="Thorn" unicode="&#xde;" horiz-adv-x="1177" 
d="M348 401h223q190 0 270 76q79 76 79 230q0 242 -236 303q-96 25 -235 24h-101v-633zM348 1194h144q307 0 455 -131q149 -131 149 -361t-138 -346q-138 -115 -376 -114h-234v-242h-176v1434h176v-240z" />
    <glyph glyph-name="germandbls" unicode="&#xdf;" horiz-adv-x="1300" 
d="M186 0v1020q0 213 131 338q105 96 298 96t303 -94t110 -246q0 -76 -34 -142q-63 -123 -165 -157q143 -17 264 -127q41 -39 71 -102t30 -132q0 -223 -185 -352q-152 -102 -421 -102v160q300 0 388 142q40 65 40 144q0 121 -120 191t-308 70v153q8 0 44 9q219 55 223 250
q3 143 -162 184q-36 8 -92 8q-55 0 -111 -29q-123 -64 -128 -264v-1018h-176z" />
    <glyph glyph-name="agrave" unicode="&#xe0;" horiz-adv-x="1081" 
d="M477 555q-213 0 -213 -215q0 -244 213 -244q74 0 150 45t131 117v238q-147 59 -281 59zM602 1051q164 -1 247 -97t83 -252v-702h-152q-18 57 -22 115q-51 -63 -133 -107t-176 -43q-171 1 -267 105t-96 249t84 251t279 106q150 0 309 -55v38q0 125 -43 187t-137 63
q-164 1 -330 -112l-72 131q82 51 204 87t222 36zM721 1341h-141l-291 297h190z" />
    <glyph glyph-name="aacute" unicode="&#xe1;" horiz-adv-x="1081" 
d="M477 555q-213 0 -213 -215q0 -244 213 -244q74 0 150 45t131 117v238q-147 59 -281 59zM602 1051q164 -1 247 -97t83 -252v-702h-152q-18 57 -22 115q-51 -63 -133 -107t-176 -43q-171 1 -267 105t-96 249t84 251t279 106q150 0 309 -55v38q0 125 -43 187t-137 63
q-164 1 -330 -112l-72 131q82 51 204 87t222 36zM463 1341h-139l245 297h191z" />
    <glyph glyph-name="acircumflex" unicode="&#xe2;" horiz-adv-x="1081" 
d="M477 555q-213 0 -213 -215q0 -244 213 -244q74 0 150 45t131 117v238q-147 59 -281 59zM602 1051q164 -1 247 -97t83 -252v-702h-152q-18 57 -22 115q-51 -63 -133 -107t-176 -43q-171 1 -267 105t-96 249t84 251t279 106q150 0 309 -55v38q0 125 -43 187t-137 63
q-164 1 -330 -112l-72 131q82 51 204 87t222 36zM313 1341h-141l254 297h186l254 -297h-141l-205 201z" />
    <glyph glyph-name="atilde" unicode="&#xe3;" horiz-adv-x="1081" 
d="M477 555q-213 0 -213 -215q0 -244 213 -244q74 0 150 45t131 117v238q-147 59 -281 59zM602 1051q164 -1 247 -97t83 -252v-702h-152q-18 57 -22 115q-51 -63 -133 -107t-176 -43q-171 1 -267 105t-96 249t84 251t279 106q150 0 309 -55v38q0 125 -43 187t-137 63
q-164 1 -330 -112l-72 131q82 51 204 87t222 36zM591 1419q-76 28 -115 40q-38 11 -55 17t-47 12q-30 7 -59 2q-53 -8 -98 -89l-72 45q65 154 164 163q75 8 202 -41q167 -65 224 -57q30 4 65 57q11 17 34 58l69 -45q-46 -118 -100 -158q-38 -30 -65 -31q-26 -1 -48 -1
q-23 0 -99 28z" />
    <glyph glyph-name="adieresis" unicode="&#xe4;" horiz-adv-x="1081" 
d="M477 555q-213 0 -213 -215q0 -244 213 -244q74 0 150 45t131 117v238q-147 59 -281 59zM602 1051q164 -1 247 -97t83 -252v-702h-152q-18 57 -22 115q-51 -63 -133 -107t-176 -43q-171 1 -267 105t-96 249t84 251t279 106q150 0 309 -55v38q0 125 -43 187t-137 63
q-164 1 -330 -112l-72 131q82 51 204 87t222 36zM726 1624q34 0 65 -31t31 -75t-32 -77q-30 -32 -75 -32t-77 32q-32 33 -32 65t9 53q29 65 111 65zM428 1518q0 -44 -31 -77q-31 -32 -75 -32t-77 32q-32 32 -32 83t54 86q26 14 63 14q38 0 68 -31t30 -75z" />
    <glyph glyph-name="aring" unicode="&#xe5;" horiz-adv-x="1081" 
d="M477 555q-213 0 -213 -215q0 -244 213 -244q74 0 150 45t131 117v238q-147 59 -281 59zM602 1051q164 -1 247 -97t83 -252v-702h-152q-18 57 -22 115q-51 -63 -133 -107t-176 -43q-171 1 -267 105t-96 249t84 251t279 106q150 0 309 -55v38q0 125 -43 187t-137 63
q-164 1 -330 -112l-72 131q82 51 204 87t222 36zM524 1573q-47 0 -82 -35q-34 -35 -34 -82t34 -82t82 -35q47 0 81 35t34 82t-34 82t-81 35zM538 1659q68 1 126 -59t59 -130q0 -131 -99 -190q-46 -27 -114 -27q-68 1 -128 61t-60 128t27 117q59 100 189 100z" />
    <glyph glyph-name="ae" unicode="&#xe6;" horiz-adv-x="1822" 
d="M489 555q-211 0 -213 -215q0 -244 213 -244q84 0 168 56t142 147q-29 92 -31 197q-150 59 -279 59zM942 547h619q-12 369 -312 368q-96 0 -165 -49q-134 -95 -142 -319zM1724 420h-780q14 -142 96 -230t226 -88t307 101l61 -129q-68 -49 -165 -80t-187 -31
q-293 0 -428 217q-162 -215 -393 -215q-174 1 -268 105q-95 104 -95 248t83 251t280 107q150 0 307 -55q-8 162 -50 225t-128 63q-164 0 -330 -112l-72 131q80 51 203 87t221 36q205 0 287 -156q135 152 350 152q402 0 462 -423q13 -91 13 -204z" />
    <glyph glyph-name="ccedilla" unicode="&#xe7;" horiz-adv-x="1064" 
d="M621 -37h-21l-35 -86q25 21 79 21t90 -46t36 -118t-56 -125t-172 -53t-192 61l35 90q76 -59 168 -59q131 0 131 94q0 76 -76 76q-49 0 -82 -35l-67 35l57 151q-277 36 -373 277q-45 115 -45 268q0 262 131 406t392 145q138 0 266 -61q66 -31 104 -70l-61 -129
q-54 47 -144 82t-182 35q-156 0 -243 -104t-87 -304q0 -201 87 -304t243 -104q92 0 182 35t144 82l61 -129q-59 -57 -167 -94t-203 -37z" />
    <glyph glyph-name="egrave" unicode="&#xe8;" horiz-adv-x="1148" 
d="M588 915q-152 0 -232 -101t-86 -267h619q-6 174 -77 271t-224 97zM1055 420h-783q16 -142 98 -230t223 -88q142 0 310 101l62 -129q-92 -68 -230 -97q-66 -14 -123 -14q-133 0 -234 46q-182 83 -250 296q-30 94 -30 201q0 248 135 394t349 146t326 -115
q147 -153 147 -511zM778 1341h-139l-291 297h189z" />
    <glyph glyph-name="eacute" unicode="&#xe9;" horiz-adv-x="1148" 
d="M588 915q-152 0 -232 -101t-86 -267h619q-6 174 -77 271t-224 97zM1055 420h-783q16 -142 98 -230t223 -88q142 0 310 101l62 -129q-92 -68 -230 -97q-66 -14 -123 -14q-133 0 -234 46q-182 83 -250 296q-30 94 -30 201q0 248 135 394t349 146t326 -115
q147 -153 147 -511zM522 1341h-141l246 297h190z" />
    <glyph glyph-name="ecircumflex" unicode="&#xea;" horiz-adv-x="1148" 
d="M588 915q-152 0 -232 -101t-86 -267h619q-6 174 -77 271t-224 97zM1055 420h-783q16 -142 98 -230t223 -88q142 0 310 101l62 -129q-92 -68 -230 -97q-66 -14 -123 -14q-133 0 -234 46q-182 83 -250 296q-30 94 -30 201q0 248 135 394t349 146t326 -115
q147 -153 147 -511zM926 1341h-142l-204 201l-207 -201h-142l254 297h187z" />
    <glyph glyph-name="edieresis" unicode="&#xeb;" horiz-adv-x="1148" 
d="M588 915q-152 0 -232 -101t-86 -267h619q-6 174 -77 271t-224 97zM1055 420h-783q16 -142 98 -230t223 -88q142 0 310 101l62 -129q-92 -68 -230 -97q-66 -14 -123 -14q-133 0 -234 46q-182 83 -250 296q-30 94 -30 201q0 248 135 394t349 146t326 -115
q147 -153 147 -511zM784 1624q33 0 65 -31t32 -75t-32 -77q-32 -32 -76 -32t-76 32t-31 77q0 72 64 98q20 8 54 8zM391 1624q33 0 65 -31t32 -75t-32 -77q-32 -32 -76 -32t-76 32q-32 33 -32 65t9 53q26 65 110 65z" />
    <glyph glyph-name="igrave" unicode="&#xec;" horiz-adv-x="516" 
d="M170 0v1024h176v-1024h-176zM459 1341h-142l-290 297h190z" />
    <glyph glyph-name="iacute" unicode="&#xed;" horiz-adv-x="516" 
d="M170 0v1024h176v-1024h-176zM201 1341h-142l246 297h191z" />
    <glyph glyph-name="icircumflex" unicode="&#xee;" horiz-adv-x="516" 
d="M170 0v1024h176v-1024h-176zM604 1341h-141l-205 201l-207 -201h-141l254 297h186z" />
    <glyph glyph-name="idieresis" unicode="&#xef;" horiz-adv-x="516" 
d="M170 0v1024h176v-1024h-176zM464 1624q34 0 64 -31t31 -75q0 -44 -31 -77q-32 -32 -76 -32t-76 32q-32 33 -32 65q0 118 120 118zM70 1624q34 0 65 -31t31 -75t-31 -77q-31 -32 -76 -32t-77 32q-32 33 -31 65q0 118 119 118z" />
    <glyph glyph-name="eth" unicode="&#xf0;" horiz-adv-x="1198" 
d="M592 90q154 0 238 116t83 300q0 184 -87 296t-232 111q-232 0 -300 -244q-22 -75 -22 -163q0 -184 83 -300t237 -116zM593 -37q-241 1 -371 149t-130 394q0 156 58 278q125 262 444 263q121 0 209 -46q-33 86 -98 170l-271 -71l-33 129l199 53q-86 78 -172 115l147 90
q104 -59 199 -158l193 51l32 -129l-133 -34q106 -150 166 -331t64 -364q0 -260 -131 -410t-372 -149z" />
    <glyph glyph-name="ntilde" unicode="&#xf1;" 
d="M162 1024h151q14 -37 21 -137q62 72 164 118t207 46q170 1 260 -103t90 -270v-678h-176v631q1 133 -55 204t-139 73t-176 -43q-93 -44 -171 -126v-739h-176v1024zM671 1420q-79 29 -115 40q-36 10 -52 16q-104 36 -143 1q-39 -34 -62 -76l-70 45q30 78 95 136
q71 63 230 0q159 -62 204 -68q45 -5 59 -3q15 3 35 21t30 36t33 58l72 -45q-55 -126 -98 -157t-69 -32t-48 -1t-101 29z" />
    <glyph glyph-name="ograve" unicode="&#xf2;" horiz-adv-x="1196" 
d="M598 915q-156 -1 -238 -113t-81 -296q0 -252 141 -359q74 -55 178 -55q156 0 238 115t82 299t-82 296t-238 113zM96 511q0 251 138 393t372 143t363 -147t129 -394t-129 -394t-370 -148t-372 148t-131 399zM799 1341h-140l-290 297h188z" />
    <glyph glyph-name="oacute" unicode="&#xf3;" horiz-adv-x="1196" 
d="M598 915q-156 -1 -238 -113t-81 -296q0 -252 141 -359q74 -55 178 -55q156 0 238 115t82 299t-82 296t-238 113zM96 511q0 251 138 393t372 143t363 -147t129 -394t-129 -394t-370 -148t-372 148t-131 399zM543 1341h-142l246 297h191z" />
    <glyph glyph-name="ocircumflex" unicode="&#xf4;" horiz-adv-x="1196" 
d="M598 915q-156 -1 -238 -113t-81 -296q0 -252 141 -359q74 -55 178 -55q156 0 238 115t82 299t-82 296t-238 113zM96 511q0 251 138 393t372 143t363 -147t129 -394t-129 -394t-370 -148t-372 148t-131 399zM944 1341h-141l-205 201l-207 -201h-141l254 297h186z" />
    <glyph glyph-name="otilde" unicode="&#xf5;" horiz-adv-x="1196" 
d="M598 915q-156 -1 -238 -113t-81 -296q0 -252 141 -359q74 -55 178 -55q156 0 238 115t82 299t-82 296t-238 113zM96 511q0 251 138 393t372 143t363 -147t129 -394t-129 -394t-370 -148t-372 148t-131 399zM669 1419q-76 28 -115 40q-38 11 -55 17t-47 12q-30 7 -59 2
q-53 -8 -98 -89l-72 45q33 78 88 130q75 71 271 -7q176 -66 231 -58q30 4 65 57q10 17 33 58l70 -45q-25 -65 -53 -105q-57 -82 -115 -84q-23 -1 -45 -1q-23 0 -99 28z" />
    <glyph glyph-name="odieresis" unicode="&#xf6;" horiz-adv-x="1196" 
d="M598 915q-156 -1 -238 -113t-81 -296q0 -252 141 -359q74 -55 178 -55q156 0 238 115t82 299t-82 296t-238 113zM96 511q0 251 138 393t372 143t363 -147t129 -394t-129 -394t-370 -148t-372 148t-131 399zM806 1624q32 0 64 -31t31 -75q0 -44 -32 -77q-31 -32 -75 -32
t-77 32q-33 33 -33 65t9 53q30 65 113 65zM412 1624q32 0 64 -31t32 -75t-32 -77q-32 -32 -76 -32t-76 32q-32 33 -33 65q0 32 9 53q30 65 112 65z" />
    <glyph glyph-name="divide" unicode="&#xf7;" horiz-adv-x="1310" 
d="M766 204q0 -36 -14 -62q-30 -56 -85 -56t-87 33t-33 67q0 34 9 53q31 66 112 66q34 0 66 -32q32 -33 32 -69zM1167 555h-1024v160h1024v-160zM657 1184q45 0 77 -32t32 -69t-14 -63q-30 -55 -85 -55q-55 1 -87 33t-33 77q1 45 33 77t77 32z" />
    <glyph glyph-name="oslash" unicode="&#xf8;" horiz-adv-x="1193" 
d="M598 92q154 0 237 115t83 298t-80 292l-361 -682q53 -23 121 -23zM373 188l368 695q-63 33 -143 32q-156 -1 -239 -113t-83 -306t97 -308zM1098 506q0 -246 -130 -394t-370 -149q-102 0 -186 29l-90 -168h-142l119 223q-203 141 -203 459q0 256 137 398t365 143
q117 0 211 -37l88 166h141l-120 -230q180 -143 180 -440z" />
    <glyph glyph-name="ugrave" unicode="&#xf9;" 
d="M1040 1024v-1024h-151q-14 37 -21 137q-66 -72 -167 -118t-203 -46q-170 -1 -260 103t-88 270v678h176v-631q0 -133 55 -204t137 -73t175 43q93 44 171 126v739h176zM522 1341l-291 297h191l242 -297h-142z" />
    <glyph glyph-name="uacute" unicode="&#xfa;" 
d="M1040 0h-151q-14 37 -21 137q-66 -72 -167 -118t-203 -46q-170 -1 -260 103t-88 270v678h176v-631q0 -133 55 -204t137 -73t175 43q93 44 171 126v739h176v-1024zM541 1341h-142l246 297h191z" />
    <glyph glyph-name="ucircumflex" unicode="&#xfb;" 
d="M1040 0h-151q-14 37 -21 137q-66 -72 -167 -118t-203 -46q-170 -1 -260 103t-88 270v678h176v-631q0 -133 55 -204t137 -73t175 43q93 44 171 126v739h176v-1024zM944 1341h-141l-205 201l-207 -201h-141l254 297h186z" />
    <glyph glyph-name="udieresis" unicode="&#xfc;" 
d="M1040 1024v-1024h-151q-14 37 -21 137q-66 -72 -167 -118t-203 -46q-170 -1 -260 103t-88 270v678h176v-631q0 -133 55 -204t137 -73t175 43q93 44 171 126v739h176zM792 1409q-44 0 -76 32q-32 33 -32 65q0 82 66 110q20 8 53 8t65 -31t31 -75q1 -44 -31 -77
q-32 -32 -76 -32zM391 1409q-37 0 -69 32q-32 33 -31 65q0 81 65 110q20 8 53 8t65 -31t32 -69t-14 -62q-14 -25 -39 -39t-62 -14z" />
    <glyph glyph-name="yacute" unicode="&#xfd;" horiz-adv-x="1144" 
d="M1077 1024l-473 -1120q-51 -127 -97 -202q-45 -75 -107 -115t-136 -38t-176 41l53 154q70 -35 118 -38t88 33t71 94t69 167l-403 1024h188l303 -819l336 819h166zM535 1341h-142l246 297h190z" />
    <glyph glyph-name="thorn" unicode="&#xfe;" horiz-adv-x="1220" 
d="M924 518q0 192 -70 302t-205 110q-104 0 -185 -54t-126 -149v-416q45 -94 126 -149t185 -56q135 0 205 110t70 302zM338 1495v-584q141 150 343 150q201 0 317 -150q116 -151 116 -393t-116 -392t-318 -149q-202 0 -342 156v-543h-176v1905h176z" />
    <glyph glyph-name="ydieresis" unicode="&#xff;" horiz-adv-x="1144" 
d="M1077 1024l-473 -1120q-51 -127 -97 -202q-45 -75 -107 -115t-136 -38t-176 41l53 154q70 -35 118 -38t88 33t71 94t69 167l-403 1024h188l303 -819l336 819h166zM796 1624q32 0 65 -31q32 -31 32 -75t-32 -77q-32 -32 -76 -32q-45 0 -77 32q-32 33 -32 65t9 53
q29 65 111 65zM404 1624q32 0 64 -31t32 -75t-32 -77q-32 -32 -76 -32t-77 32q-33 33 -33 65q1 84 68 110q22 8 54 8z" />
    <glyph glyph-name="Amacron" unicode="&#x100;" horiz-adv-x="1495" 
d="M1014 502l-266 585l-269 -585h535zM1087 342h-679l-156 -342h-186l682 1475l682 -1475h-187zM1116 1686h-743v122h743v-122z" />
    <glyph glyph-name="amacron" unicode="&#x101;" horiz-adv-x="1081" 
d="M477 555q-213 0 -213 -215q0 -244 213 -244q74 0 150 45t131 117v238q-147 59 -281 59zM602 1051q164 -1 247 -97t83 -252v-702h-152q-18 57 -22 115q-51 -63 -133 -107t-176 -43q-171 1 -267 105t-96 249t84 251t279 106q150 0 309 -55v38q0 125 -43 187t-137 63
q-164 1 -330 -112l-72 131q82 51 204 87t222 36zM889 1481h-744v123h744v-123z" />
    <glyph glyph-name="Abreve" unicode="&#x102;" horiz-adv-x="1495" 
d="M748 1087l-269 -585h535zM408 344l-156 -344h-186l682 1475l682 -1475h-187l-156 344h-679zM895 1843h106q0 -148 -114 -214q-59 -34 -139 -34t-138 34q-114 68 -112 214h106q0 -82 33 -121t112 -39t113 39t33 121z" />
    <glyph glyph-name="abreve" unicode="&#x103;" horiz-adv-x="1081" 
d="M477 555q-213 0 -213 -215q0 -242 213 -242q74 0 150 44t131 118v236q-147 59 -281 59zM602 1051q164 -1 247 -97t83 -252v-702h-152q-18 57 -22 115q-51 -63 -133 -107t-176 -43q-171 -1 -267 105t-96 252t80 243q89 111 283 111q150 0 309 -55v38q0 127 -43 189
t-137 61q-164 1 -330 -110l-72 129q82 51 204 87t222 36zM668 1638h108q0 -108 -68 -178t-187 -70t-185 72q-66 70 -66 176h107q0 -82 33 -120q34 -38 112 -39q78 1 112 39t34 120z" />
    <glyph glyph-name="Aogonek" unicode="&#x104;" horiz-adv-x="1495" 
d="M1014 502l-266 585l-269 -585h535zM1317 -430q-82 0 -133 47t-51 133t59 165q20 28 70 85h-19l-156 342h-679l-156 -342h-186l682 1475l682 -1475h-17q-72 -43 -129 -117t-57 -125q1 -52 27 -74t64 -22t68 26t41 64l70 -59q-51 -123 -180 -123z" />
    <glyph glyph-name="aogonek" unicode="&#x105;" horiz-adv-x="1081" 
d="M477 555q-213 0 -213 -215q0 -244 213 -244q74 0 150 45t131 117v238q-147 59 -281 59zM836 -430q-82 0 -134 47q-51 47 -51 131q0 47 21 93q20 46 41 74q20 28 67 85q-18 57 -22 115q-51 -63 -133 -107t-176 -43q-171 1 -267 105t-96 249t84 251t279 106q150 0 309 -55
v38q0 125 -43 187t-137 63q-164 0 -330 -112l-72 131q82 51 204 87t222 36q164 -1 247 -97t83 -252v-702q-72 -43 -129 -117t-57 -125q0 -52 26 -74q27 -22 66 -22q40 0 68 26t42 64l68 -59q-51 -123 -180 -123z" />
    <glyph glyph-name="Cacute" unicode="&#x106;" horiz-adv-x="1492" 
d="M840 -31q-302 0 -473 153q-238 211 -238 578t190 566t506 198q174 0 331 -74t257 -214l-135 -109q-70 102 -196 169t-257 67q-250 0 -379 -156t-129 -428t130 -430t378 -158q193 0 367 144q51 45 86 94l135 -107q-104 -141 -260 -217q-155 -76 -313 -76zM768 1546h-141
l245 297h191z" />
    <glyph glyph-name="cacute" unicode="&#x107;" horiz-adv-x="1064" 
d="M621 -37q-174 0 -293 68q-228 130 -230 483q0 262 131 406t392 145q138 0 266 -61q66 -31 104 -70l-61 -129q-54 47 -144 82t-182 35q-156 0 -243 -104t-87 -304q0 -201 87 -304t243 -104q92 0 182 35t144 82l61 -129q-59 -57 -167 -94t-203 -37zM516 1341h-141l246 297
h190z" />
    <glyph glyph-name="Cdotaccent" unicode="&#x10a;" horiz-adv-x="1492" 
d="M840 -31q-302 0 -473 153q-238 211 -238 578t190 566t506 198q174 0 331 -74t257 -214l-135 -109q-70 102 -196 169t-257 67q-250 0 -379 -156t-129 -428t130 -430t378 -158q193 0 367 144q51 45 86 94l135 -107q-104 -141 -260 -217q-155 -76 -313 -76zM826 1614
q-44 0 -76 32t-31 86t53 83q24 14 61 14t69 -31t32 -76q0 -44 -32 -76t-76 -32z" />
    <glyph glyph-name="cdotaccent" unicode="&#x10b;" horiz-adv-x="1064" 
d="M621 -37q-174 0 -293 68q-228 130 -230 483q0 262 131 406t392 145q138 0 266 -61q66 -31 104 -70l-61 -129q-54 47 -144 82t-182 35q-156 0 -243 -104t-87 -304q0 -201 87 -304t243 -104q92 0 182 35t144 82l61 -129q-59 -57 -167 -94t-203 -37zM585 1624q33 0 65 -31
t32 -75t-32 -77q-32 -32 -76 -32t-76 32q-32 33 -31 65q0 118 118 118z" />
    <glyph glyph-name="Ccaron" unicode="&#x10c;" horiz-adv-x="1492" 
d="M840 -31q-302 0 -473 153q-238 211 -238 578t190 566t506 198q174 0 331 -74t257 -214l-135 -109q-70 102 -196 169t-257 67q-250 0 -379 -156t-129 -428t130 -430t378 -158q193 0 367 144q51 45 86 94l135 -107q-104 -141 -260 -217q-155 -76 -313 -76zM924 1546h-187
l-254 297h142l206 -201l205 201h142z" />
    <glyph glyph-name="ccaron" unicode="&#x10d;" horiz-adv-x="1064" 
d="M621 -37q-174 0 -293 68q-228 130 -230 483q0 262 131 406t392 145q138 0 266 -61q66 -31 104 -70l-61 -129q-54 47 -144 82t-182 35q-156 0 -243 -104t-87 -304q0 -201 87 -304t243 -104q92 0 182 35t144 82l61 -129q-59 -57 -167 -94t-203 -37zM672 1341h-187l-254 297
h142l207 -200l204 200h142z" />
    <glyph glyph-name="Dcaron" unicode="&#x10e;" horiz-adv-x="1523" 
d="M371 162h284q362 0 488 247q63 124 63 306q0 270 -138 413t-413 144h-284v-1110zM190 1434h465q181 0 323 -56q268 -104 370 -381q47 -129 47 -293q-1 -164 -57 -304q-106 -259 -392 -355q-133 -45 -291 -45h-465v1434zM618 1546l-253 297h141l207 -201l205 201h141
l-254 -297h-187z" />
    <glyph glyph-name="dcaron" unicode="&#x10f;" horiz-adv-x="1585" 
d="M617 94q97 0 180 54q82 55 127 145v422q-63 125 -183 175q-61 26 -141 26t-142 -53q-122 -102 -122 -358q0 -255 122 -359q62 -52 159 -52zM1235 1359q0 44 32 76q32 31 78 31q47 0 77 -32t30 -77q0 -46 -113 -245h-51l41 137q-39 4 -67 35t-27 75zM1100 0h-156
q-16 59 -20 115q-141 -152 -344 -152t-318 150q-115 151 -115 393t116 392q115 150 317 149q202 0 344 -156v584h176v-1475z" />
    <glyph glyph-name="Dcroat" unicode="&#x110;" horiz-adv-x="1523" 
d="M371 162h284q362 0 488 247q63 124 63 306q0 270 -138 413t-413 144h-284v-469h323v-123h-323v-518zM190 1434h465q181 0 323 -56q268 -104 370 -381q47 -129 47 -293q-1 -164 -57 -304q-106 -259 -392 -355q-133 -45 -291 -45h-465v680h-239v123h239v631z" />
    <glyph glyph-name="dcroat" unicode="&#x111;" horiz-adv-x="1220" 
d="M559 918q-80 0 -142 -54q-122 -105 -122 -358q0 -190 70 -301t206 -111t236 96q45 46 76 105v422q-106 201 -324 201zM1294 1157h-235v-1157h-156q-16 59 -20 115q-141 -152 -344 -152t-318 150q-115 151 -115 393t116 392t318 149q202 0 343 -156v266h-332v123h332v195
h176v-195h235v-123z" />
    <glyph glyph-name="Emacron" unicode="&#x112;" horiz-adv-x="1222" 
d="M367 817h684v-160h-684v-497h741v-160h-918v1434h918v-160h-741v-457zM1030 1686h-743v122h743v-122z" />
    <glyph glyph-name="emacron" unicode="&#x113;" horiz-adv-x="1148" 
d="M588 915q-152 0 -232 -101t-86 -267h619q-6 174 -77 271t-224 97zM1055 420h-783q16 -142 98 -230t223 -88q142 0 310 101l62 -129q-92 -68 -230 -97q-66 -14 -123 -14q-133 0 -234 46q-182 83 -250 296q-30 94 -30 201q0 248 135 394t349 146t326 -115
q147 -153 147 -511zM948 1481h-743v123h743v-123z" />
    <glyph glyph-name="Edotaccent" unicode="&#x116;" horiz-adv-x="1222" 
d="M367 817h684v-160h-684v-497h741v-160h-918v1434h918v-160h-741v-457zM672 1829q36 0 68 -31t32 -76q0 -44 -32 -76t-76 -32t-76 32q-33 32 -33 68t15 62q15 25 40 39t62 14z" />
    <glyph glyph-name="edotaccent" unicode="&#x117;" horiz-adv-x="1148" 
d="M588 915q-152 0 -232 -101t-86 -267h619q-6 174 -77 271t-224 97zM1055 420h-783q16 -142 98 -230t223 -88q142 0 310 101l62 -129q-92 -68 -230 -97q-66 -14 -123 -14q-133 0 -234 46q-182 83 -250 296q-30 94 -30 201q0 248 135 394t349 146t326 -115
q147 -153 147 -511zM592 1624q32 0 64 -31t32 -75t-32 -77q-32 -32 -76 -32t-75 32q-32 33 -32 65q0 118 119 118z" />
    <glyph glyph-name="Eogonek" unicode="&#x118;" horiz-adv-x="1222" 
d="M1012 -430q-82 0 -133 47t-51 113q-1 105 59 185q20 28 69 85h-766v1434h918v-160h-741v-457h684v-160h-684v-497h741v-160q-72 -43 -129 -117t-57 -125q0 -52 26 -74t65 -22q37 0 67 26t42 64l70 -59q-53 -123 -180 -123z" />
    <glyph glyph-name="eogonek" unicode="&#x119;" horiz-adv-x="1148" 
d="M588 915q-152 0 -232 -101t-86 -267h619q-6 174 -77 271t-224 97zM868 -356q-82 0 -133 47t-51 128t51 158q-66 -14 -123 -14q-133 0 -234 46q-182 83 -250 296q-30 94 -30 201q0 248 135 394t349 146t322 -111q108 -112 137 -311q13 -91 14 -204h-783q16 -142 98 -230
t223 -88q142 0 310 101l62 -129l-25 -15q-66 -47 -114 -115t-48 -115q0 -48 26 -71t64 -22q81 0 111 90l70 -59q-53 -123 -181 -123z" />
    <glyph glyph-name="Ecaron" unicode="&#x11a;" horiz-adv-x="1222" 
d="M367 817h684v-160h-684v-497h741v-160h-918v1434h918v-160h-741v-457zM760 1546h-187l-254 297h142l207 -201l204 201h142z" />
    <glyph glyph-name="ecaron" unicode="&#x11b;" horiz-adv-x="1148" 
d="M588 915q-152 0 -232 -101t-86 -267h619q-6 174 -77 271t-224 97zM1055 420h-783q16 -142 98 -230t223 -88q142 0 310 101l62 -129q-92 -68 -230 -97q-66 -14 -123 -14q-133 0 -234 46q-182 83 -250 296q-30 94 -30 201q0 248 135 394t349 146t326 -115
q147 -153 147 -511zM678 1341h-186l-254 297h141l207 -200l205 200h141z" />
    <glyph glyph-name="Gbreve" unicode="&#x11e;" horiz-adv-x="1562" 
d="M823 129q272 0 414 184v326h-373v158h549v-535q-146 -199 -351 -260q-108 -33 -256 -33q-148 1 -283 63q-134 62 -219 166q-175 215 -175 519q0 172 55 315q56 142 152 236q202 196 487 196q381 0 590 -288l-131 -99q-154 224 -459 228q-227 0 -368 -160t-141 -426
t142 -428t367 -162zM971 1843h106q1 -109 -67 -179t-187 -69q-119 0 -185 71t-67 177h109q0 -82 32 -121t112 -39t113 39q34 39 34 121z" />
    <glyph glyph-name="gbreve" unicode="&#x11f;" horiz-adv-x="1220" 
d="M571 930q-137 0 -207 -111t-69 -300q0 -189 70 -300t206 -110q102 0 184 54q81 54 128 146v422q-45 91 -127 145t-185 54zM1059 76q0 -274 -113 -406t-360 -133q-119 0 -241 37t-181 94l61 129q160 -125 377 -125q137 0 209 83t72 247v133q-141 -156 -328 -155
q-217 0 -333 148t-116 391t115 393t334 149q186 0 328 -150q4 55 20 113l156 2v-950zM745 1638h107q0 -146 -116 -214q-58 -34 -138 -33q-120 1 -186 71t-66 176h109q1 -82 33 -120t111 -39q79 1 113 39t33 120z" />
    <glyph glyph-name="Gdotaccent" unicode="&#x120;" horiz-adv-x="1562" 
d="M1413 262q-217 -293 -575 -293q-180 -1 -315 61q-134 62 -219 166q-175 215 -175 521q0 172 55 315q56 142 152 236q202 196 487 196q381 0 590 -288l-131 -101q-70 105 -188 167t-271 63q-227 0 -368 -161t-141 -426t142 -427t367 -162q272 0 414 182v326h-373v160h549
v-535zM824 1614q-44 0 -76 32t-31 86t53 83q24 14 61 14t69 -31t32 -76q0 -44 -32 -76t-76 -32z" />
    <glyph glyph-name="gdotaccent" unicode="&#x121;" horiz-adv-x="1220" 
d="M571 930q-137 0 -207 -111t-69 -301q0 -190 70 -300t206 -109q102 0 184 53q81 53 128 145v424q-45 91 -127 145t-185 54zM1059 1024v-950q0 -272 -113 -406t-360 -133q-119 0 -241 38t-181 93l61 129q160 -123 377 -123q137 0 209 82t72 246v133q-141 -156 -343 -156
t-318 150q-116 151 -116 393t115 392t334 149q186 0 328 -150q4 53 20 113h156zM611 1624q34 0 65 -31t31 -75t-31 -77q-31 -32 -76 -32t-77 32t-31 77q0 72 64 98q20 8 55 8z" />
    <glyph glyph-name="Gcommaaccent" unicode="&#x122;" horiz-adv-x="1562" 
d="M784 -301q44 0 77 -32q32 -32 32 -83t-115 -239h-51l43 137q-41 4 -69 35q-27 31 -27 75t33 75q33 32 77 32zM1413 262q-217 -293 -575 -293q-180 -1 -315 61q-134 62 -219 166q-175 215 -175 521q0 172 55 315q56 142 152 236q202 196 487 196q381 0 590 -288l-131 -101
q-70 105 -188 167t-271 63q-227 0 -368 -161t-141 -426t142 -427t367 -162q272 0 414 182v326h-373v160h549v-535z" />
    <glyph glyph-name="gcommaaccent" unicode="&#x123;" horiz-adv-x="1220" 
d="M571 930q-137 0 -207 -111t-69 -301q0 -190 70 -300t206 -109q102 0 184 53q81 53 128 145v424q-45 91 -127 145t-185 54zM1059 1024v-950q0 -272 -113 -406t-360 -133q-119 0 -241 38t-181 93l61 129q160 -123 377 -123q137 0 209 82t72 246v133q-141 -156 -343 -156
t-318 150q-116 151 -116 393t115 392t334 149q186 0 328 -150q4 53 20 113h156zM601 1274q-39 0 -63 14q-53 31 -54 83t27 83t67 35l-41 139h51q114 -190 114 -240t-32 -82t-69 -32z" />
    <glyph glyph-name="Hbar" unicode="&#x126;" horiz-adv-x="1523" 
d="M1157 1024h-790v-227h790v227zM1493 1024h-160v-1024h-176v637h-790v-637h-177v1024h-155v160h155v250h177v-250h790v250h176v-250h160v-160z" />
    <glyph glyph-name="hbar" unicode="&#x127;" 
d="M338 1174v-283q64 70 164 115t203 45q170 1 260 -103t90 -270v-678h-176v631q1 133 -55 204t-139 73t-176 -43q-93 -44 -171 -126v-739h-176v1174h-248v122h248v179h176v-179h319v-122h-319z" />
    <glyph glyph-name="Imacron" unicode="&#x12a;" horiz-adv-x="585" 
d="M205 0v1434h176v-1434h-176zM664 1686h-744v122h744v-122z" />
    <glyph glyph-name="imacron" unicode="&#x12b;" horiz-adv-x="516" 
d="M170 0v1024h176v-1024h-176zM627 1481h-744v123h744v-123z" />
    <glyph glyph-name="Iogonek" unicode="&#x12e;" horiz-adv-x="585" 
d="M283 -430q-82 0 -133 47q-52 47 -52 113q-1 105 60 185q20 28 69 85h-22v1434h176l-2 -1434q-72 -43 -129 -117t-57 -125q1 -52 27 -74t64 -22t68 26t41 64l70 -59q-53 -123 -180 -123z" />
    <glyph glyph-name="iogonek" unicode="&#x12f;" horiz-adv-x="516" 
d="M250 -430q-82 0 -133 47t-51 133t59 165q20 28 70 85h-25v1024h176v-1024q-105 -68 -159 -162q-27 -49 -27 -90q0 -42 26 -64t65 -22q37 0 67 26t42 64l70 -59q-53 -123 -180 -123zM260 1409q-45 0 -77 32q-49 49 -23 116t100 67q45 0 76 -31t31 -75t-31 -77
q-31 -32 -76 -32z" />
    <glyph glyph-name="Idotaccent" unicode="&#x130;" horiz-adv-x="585" 
d="M205 0v1434h176v-1434h-176zM304 1829q38 0 69 -31t31 -76q0 -44 -32 -76q-30 -32 -75 -32t-77 32t-32 68t15 62q30 53 101 53z" />
    <glyph glyph-name="dotlessi" unicode="&#x131;" horiz-adv-x="516" 
d="M346 0h-176v1024h176v-1024z" />
    <glyph glyph-name="IJ" unicode="&#x132;" horiz-adv-x="991" 
d="M225 0v1434h176v-1434h-176zM809 1434v-1452q0 -438 -457 -439q-94 0 -168 25l47 151q55 -16 117 -16q145 0 215 65t70 216v1450h176z" />
    <glyph glyph-name="ij" unicode="&#x133;" horiz-adv-x="1165" 
d="M973 1024v-1024q0 -348 -85 -430q-67 -65 -210 -53q-70 6 -172 26v162q186 -47 235 -23t56 154q2 43 4 164v1024h172zM188 0v1024h177v-1024h-177zM782 1359q0 44 30 76q30 31 76 31t78 -30t31 -74q-1 -43 -30 -76q-30 -33 -75 -34q-46 -1 -78 31t-32 76zM286 1466
q38 0 68 -30t31 -65q0 -86 -67 -112t-116 24q-32 32 -32 69t14 61q30 53 102 53z" />
    <glyph glyph-name="Kcommaaccent" unicode="&#x136;" horiz-adv-x="1333" 
d="M666 -416q0 -51 -115 -239h-51l43 137q-39 4 -67 35t-28 75t34 75q33 32 77 32q43 0 75 -32t32 -83zM367 0h-177v1434h177v-754l620 754h211l-569 -662l663 -772h-227l-545 647l-153 -178v-469z" />
    <glyph glyph-name="kcommaaccent" unicode="&#x137;" horiz-adv-x="1073" 
d="M484 -301q44 0 76 -32t32 -83t-115 -239h-51l43 137q-39 4 -67 35t-28 75t33 75q33 32 77 32zM338 0h-176v1475h176v-988l428 537h197l-375 -459l446 -565h-215l-332 442l-149 -184v-258z" />
    <glyph glyph-name="Lacute" unicode="&#x139;" horiz-adv-x="1181" 
d="M1102 0h-912v1434h177v-1274h735v-160zM281 1546h-140l246 297h191z" />
    <glyph glyph-name="lacute" unicode="&#x13a;" horiz-adv-x="518" 
d="M172 0v1475h174v-1475h-174zM203 1546h-142l246 297h191z" />
    <glyph glyph-name="Lcommaaccent" unicode="&#x13b;" horiz-adv-x="1181" 
d="M627 -416q0 -51 -113 -239h-51l41 137q-39 4 -73 42t-14 106q21 69 116 69q32 0 63 -32t31 -83zM1102 0h-912v1434h177v-1274h735v-160z" />
    <glyph glyph-name="lcommaaccent" unicode="&#x13c;" horiz-adv-x="518" 
d="M369 -416q0 -51 -113 -239h-51l41 137q-39 4 -73 42t-14 106q21 69 116 69q32 0 63 -32t31 -83zM346 0h-174v1475h174v-1475z" />
    <glyph glyph-name="Lcaron" unicode="&#x13d;" horiz-adv-x="1181" 
d="M1102 0h-912v1434h177v-1274h735v-160zM594 1351q0 43 32 75t78 32t76 -32q31 -32 31 -82t-113 -240h-51l41 137q-38 4 -66 35t-28 75z" />
    <glyph glyph-name="lcaron" unicode="&#x13e;" horiz-adv-x="737" 
d="M572 1475q44 0 75 -32t31 -78t-113 -245h-51l41 137q-39 4 -67 35t-28 75t34 76t78 32zM172 0v1475h174v-1475h-174z" />
    <glyph glyph-name="Ldot" unicode="&#x13f;" horiz-adv-x="1181" 
d="M788 764q37 0 68 -31t31 -76t-31 -77t-76 -31q-45 0 -77 32q-31 32 -31 86t54 83q26 14 62 14zM1102 0h-912v1434h177v-1274h735v-160z" />
    <glyph glyph-name="ldot" unicode="&#x140;" horiz-adv-x="788" 
d="M629 549q-45 0 -77 32q-32 33 -32 69t15 61q30 53 101 53q38 0 69 -31t31 -76t-32 -77q-30 -32 -75 -31zM346 0h-174v1475h174v-1475z" />
    <glyph glyph-name="Lslash" unicode="&#x141;" horiz-adv-x="1277" 
d="M1198 160v-160h-911v561l-217 -96v160l217 96v713h176v-635l457 202v-159l-457 -203v-479h735z" />
    <glyph glyph-name="lslash" unicode="&#x142;" horiz-adv-x="763" 
d="M465 0h-174v657l-250 -110v158l250 112v658h174v-582l258 117v-160l-258 -115v-735z" />
    <glyph glyph-name="Nacute" unicode="&#x143;" horiz-adv-x="1531" 
d="M367 0h-177v1475l975 -1076v1035h176v-1475l-974 1069v-1028zM711 1546h-142l246 297h191z" />
    <glyph glyph-name="nacute" unicode="&#x144;" 
d="M162 1024h151q14 -37 21 -137q62 72 164 118t207 46q170 1 260 -103t90 -270v-678h-176v631q1 133 -55 204t-139 73t-176 -43q-93 -44 -171 -126v-739h-176v1024zM547 1341h-141l245 297h191z" />
    <glyph glyph-name="Ncommaaccent" unicode="&#x145;" horiz-adv-x="1531" 
d="M557 -420q0 77 68 110q20 9 54 9q35 0 65 -32t30 -83t-112 -239h-52l41 137q-39 4 -67 35t-27 63zM367 0h-177v1475l975 -1076v1035h176v-1475l-974 1069v-1028z" />
    <glyph glyph-name="ncommaaccent" unicode="&#x146;" 
d="M713 -416q0 -51 -115 -239h-51l43 137q-39 4 -67 35q-27 31 -27 75t33 75q33 32 77 32q43 0 75 -32t32 -83zM162 1024h151q14 -37 21 -137q62 72 164 118t207 46q170 1 260 -103t90 -270v-678h-176v631q1 133 -55 204t-139 73t-176 -43q-93 -44 -171 -126v-739h-176v1024
z" />
    <glyph glyph-name="Ncaron" unicode="&#x147;" horiz-adv-x="1531" 
d="M367 0h-177v1475l975 -1076v1035h176v-1475l-974 1069v-1028zM866 1546h-186l-254 297h141l207 -201l205 201h141z" />
    <glyph glyph-name="ncaron" unicode="&#x148;" 
d="M162 1024h151q14 -37 21 -137q62 72 164 118t207 46q170 1 260 -103t90 -270v-678h-176v631q1 133 -55 204t-139 73t-176 -43q-93 -44 -171 -126v-739h-176v1024zM702 1341h-186l-254 297h141l207 -200l205 200h141z" />
    <glyph glyph-name="Eng" unicode="&#x14a;" horiz-adv-x="1531" 
d="M1341 1434v-1475q0 -213 -27 -288q-28 -76 -60 -105t-86 -41q-96 -21 -296 18v162q80 -19 123 -29t81 -2t52 20q37 30 37 306v152l-798 876v-1028h-177v1475l975 -1076v1035h176z" />
    <glyph glyph-name="eng" unicode="&#x14b;" 
d="M162 1024h151q14 -37 21 -137q62 72 164 118t207 46q170 1 260 -103t90 -270v-678q-1 -236 -25 -317q-24 -82 -53 -113q-84 -90 -363 -27v162q88 -25 123 -28t51 -6t32 7t26 14q8 4 20 47q12 42 13 104v788q1 133 -55 204t-139 73t-176 -43q-93 -44 -171 -126v-739h-176
v1024z" />
    <glyph glyph-name="Omacron" unicode="&#x14c;" horiz-adv-x="1685" 
d="M843 1305q-251 0 -390 -156t-139 -431t140 -432q142 -157 389 -157t389 157t142 432t-140 431t-391 156zM843 1464q171 0 309 -60q257 -112 359 -404q47 -134 47 -296t-56 -304q-110 -274 -382 -381q-129 -50 -304 -50t-336 86t-256 258t-95 404q0 306 179 522
q88 105 226 165t309 60zM1212 1686h-743v122h743v-122z" />
    <glyph glyph-name="omacron" unicode="&#x14d;" horiz-adv-x="1196" 
d="M598 915q-156 -1 -238 -113t-81 -296q0 -252 141 -359q74 -55 178 -55q156 0 238 115t82 299t-82 296t-238 113zM96 511q0 251 138 393t372 143t363 -147t129 -394t-129 -394t-370 -148t-372 148t-131 399zM967 1481h-744v123h744v-123z" />
    <glyph glyph-name="Ohungarumlaut" unicode="&#x150;" horiz-adv-x="1685" 
d="M843 1305q-251 0 -390 -156t-139 -431t140 -432q142 -157 389 -157t389 157t142 432t-140 431t-391 156zM843 1464q171 0 309 -60q257 -112 359 -404q47 -134 47 -296t-56 -304q-110 -274 -382 -381q-129 -50 -304 -50t-336 86t-256 258t-95 404q0 306 179 522
q88 105 226 165t309 60zM979 1546h-141l245 297h191zM606 1546h-141l246 297h190z" />
    <glyph glyph-name="ohungarumlaut" unicode="&#x151;" horiz-adv-x="1196" 
d="M598 915q-156 -1 -238 -113t-81 -296q0 -252 141 -359q74 -55 178 -55q156 0 238 115t82 299t-82 296t-238 113zM96 511q0 251 138 393t372 143t363 -147t129 -394t-129 -394t-370 -148t-372 148t-131 399zM733 1341h-139l246 297h188zM360 1341h-139l246 297h188z" />
    <glyph glyph-name="OE" unicode="&#x152;" horiz-adv-x="2082" 
d="M1061 1274h-223q-256 0 -394 -144t-137 -416q0 -270 140 -412t391 -142h223v1114zM1233 817h678v-160h-678v-497h735v-160h-1130q-313 0 -514 186t-201 514t187 531t528 203h1130v-160h-735v-457z" />
    <glyph glyph-name="oe" unicode="&#x153;" horiz-adv-x="1978" 
d="M1416 915q-154 0 -232 -101t-84 -267h618q-6 174 -77 271t-225 97zM598 92q156 0 238 115t82 299t-82 297t-238 113t-238 -114q-82 -112 -81 -296q0 -252 141 -359q74 -55 178 -55zM1882 420h-780q14 -142 96 -230t223 -88t310 101l61 -129q-68 -49 -165 -80t-187 -31
q-287 0 -424 211q-129 -211 -418 -211q-240 1 -371 149t-131 399t138 393t364 143q287 0 416 -209q66 100 168 154t219 54t200 -30q155 -58 223 -220q58 -138 58 -376z" />
    <glyph glyph-name="Racute" unicode="&#x154;" horiz-adv-x="1239" 
d="M367 612h120q164 0 259 30t144 101q48 72 48 199q0 178 -112 255t-339 77h-120v-662zM559 453h-192v-453h-177v1434h340q279 0 432 -127t152 -369q0 -319 -262 -432l293 -506h-205l-264 461q-55 -8 -117 -8zM575 1546h-141l246 297h190z" />
    <glyph glyph-name="racute" unicode="&#x155;" horiz-adv-x="784" 
d="M162 1024h151q10 -37 17 -111q215 207 397 84l-51 -149q-74 55 -166 35t-172 -119v-764h-176v1024zM352 1341h-141l246 297h190z" />
    <glyph glyph-name="Rcommaaccent" unicode="&#x156;" horiz-adv-x="1239" 
d="M629 -416q0 -51 -115 -239h-51l43 137q-39 4 -67 35q-27 31 -27 75t33 75q33 32 77 32q43 0 75 -32t32 -83zM367 612h120q164 0 259 30t144 101q48 72 48 199q0 178 -112 255t-339 77h-120v-662zM559 453h-192v-453h-177v1434h340q279 0 432 -127t152 -369
q0 -319 -262 -432l293 -506h-205l-264 461q-55 -8 -117 -8z" />
    <glyph glyph-name="rcommaaccent" unicode="&#x157;" horiz-adv-x="784" 
d="M311 -301q45 0 77 -32t32 -83t-115 -239h-51l43 137q-39 4 -67 35t-28 75t32 75q32 32 77 32zM162 1024h151q10 -37 17 -111q215 207 397 84l-51 -149q-74 55 -166 35t-172 -119v-764h-176v1024z" />
    <glyph glyph-name="Rcaron" unicode="&#x158;" horiz-adv-x="1239" 
d="M367 612h120q164 0 259 30t144 101q48 72 48 199q0 178 -112 255t-339 77h-120v-662zM559 453h-192v-453h-177v1434h340q279 0 432 -127t152 -369q0 -319 -262 -432l293 -506h-205l-264 461q-55 -8 -117 -8zM729 1546h-186l-254 297h141l207 -201l205 201h141z" />
    <glyph glyph-name="rcaron" unicode="&#x159;" horiz-adv-x="784" 
d="M162 1024h151q10 -37 17 -111q215 207 397 84l-51 -149q-74 55 -166 35t-172 -119v-764h-176v1024zM508 1341h-186l-254 297h141l207 -200l205 200h141z" />
    <glyph glyph-name="Sacute" unicode="&#x15a;" horiz-adv-x="1179" 
d="M1063 408q0 -123 -45 -214q-45 -92 -119 -138q-218 -137 -541 -60q-88 20 -158 55t-102 72l82 143q110 -94 278 -128t295 26q60 29 97 90q37 62 37 126q0 110 -60 167q-90 87 -286 147q-181 67 -249 106q-68 40 -101 76q-70 79 -70 204q0 126 57 213q58 87 150 125
q190 78 447 26q120 -25 233 -72l-64 -153q-145 85 -332 96t-268 -87q-47 -56 -47 -138t61 -134q60 -48 116 -66q56 -20 92 -32t98 -34q172 -59 276 -141q123 -98 123 -275zM526 1546h-141l246 297h190z" />
    <glyph glyph-name="sacute" unicode="&#x15b;" horiz-adv-x="948" 
d="M674 291q0 84 -68 131t-219 85t-224 90t-73 175t97 200t253 77q92 0 192 -27t171 -70l-53 -121q-147 88 -295 89q-77 0 -139 -34t-62 -109t102 -113q34 -12 176 -49t225 -106t83 -190t-56 -199q-105 -148 -323 -149q-135 -1 -235 45t-158 109l84 117q53 -66 134 -100
t170 -34q90 0 154 50q64 49 64 133zM414 1341h-142l246 297h191z" />
    <glyph glyph-name="Scedilla" unicode="&#x15e;" horiz-adv-x="1179" 
d="M1063 408q0 -255 -186 -366q-101 -60 -254 -71l-35 -84q27 21 81 21t89 -46t35 -118q1 -72 -55 -125t-172 -53t-193 61l37 90q74 -59 168 -59q129 0 129 94q0 76 -74 76q-51 0 -82 -35l-68 35l54 141q-139 6 -263 51t-176 103l82 143q110 -94 278 -128t295 26
q60 29 97 90q37 62 37 126q0 110 -60 167q-90 87 -286 147q-181 67 -249 106q-68 40 -101 76q-70 79 -70 204q0 126 57 213q58 87 150 125q190 78 447 26q120 -25 233 -72l-64 -153q-145 85 -332 96t-268 -87q-47 -56 -47 -138t61 -134q60 -48 116 -66q56 -20 92 -32t98 -34
q172 -59 276 -141q123 -98 123 -275z" />
    <glyph glyph-name="scedilla" unicode="&#x15f;" horiz-adv-x="948" 
d="M254 777q0 -75 102 -113q34 -12 176 -49t225 -106t83 -198q0 -186 -142 -275q-81 -53 -196 -63l-35 -86q27 21 80 21t89 -46t36 -118t-56 -125t-172 -53t-192 61l35 90q76 -59 168 -59q131 0 131 94q0 76 -76 76q-49 0 -80 -35l-70 35l56 145q-119 7 -208 51t-140 101
l84 117q53 -66 134 -100t170 -34q90 0 154 50q64 49 64 133t-68 131t-219 85t-224 90t-73 175t97 200t253 77q92 0 192 -27t171 -70l-53 -121q-147 88 -295 89q-77 0 -139 -34t-62 -109z" />
    <glyph glyph-name="Scaron" unicode="&#x160;" horiz-adv-x="1179" 
d="M1063 408q0 -123 -45 -214q-45 -92 -119 -138q-218 -137 -541 -60q-88 20 -158 55t-102 72l82 143q110 -94 278 -128t295 26q60 29 97 90q37 62 37 126q0 110 -60 167q-90 87 -286 147q-181 67 -249 106q-68 40 -101 76q-70 79 -70 204q0 126 57 213q58 87 150 125
q190 78 447 26q120 -25 233 -72l-64 -153q-145 85 -332 96t-268 -87q-47 -56 -47 -138t61 -134q60 -48 116 -66q56 -20 92 -32t98 -34q172 -59 276 -141q123 -98 123 -275zM682 1546h-186l-254 297h141l207 -201l205 201h141z" />
    <glyph glyph-name="scaron" unicode="&#x161;" horiz-adv-x="948" 
d="M674 291q0 84 -68 131t-219 85t-224 90t-73 175t97 200t253 77q92 0 192 -27t171 -70l-53 -121q-147 88 -295 89q-77 0 -139 -34t-62 -109t102 -113q34 -12 176 -49t225 -106t83 -190t-56 -199q-105 -148 -323 -149q-135 -1 -235 45t-158 109l84 117q53 -66 134 -100
t170 -34q90 0 154 50q64 49 64 133zM569 1341h-186l-254 297h141l207 -200l205 200h141z" />
    <glyph glyph-name="Tcedilla" unicode="&#x162;" horiz-adv-x="1249" 
d="M713 1274v-1274h2l-47 -113q27 21 81 21t89 -46q34 -46 34 -118t-55 -125t-172 -53t-192 61l36 90q74 -59 168 -59q129 0 129 94q0 76 -73 76q-51 0 -82 -35l-68 35l66 172h-92v1274h-455v160h1087v-160h-456z" />
    <glyph glyph-name="tcedilla" unicode="&#x163;" horiz-adv-x="819" 
d="M885 -262q-1 -72 -57 -125t-172 -53t-191 61l35 90q76 -59 168 -59q131 0 131 94q0 76 -76 76q-49 0 -82 -35l-68 35l60 155q-76 -8 -133 -10q-101 -4 -171 74q-69 77 -69 385v455h-184v143h184v451h176v-451h291v-143h-291v-455q0 -184 22 -242q7 -20 25 -36
q52 -45 244 8v-162l-47 -113q25 21 79 21t90 -46t36 -118z" />
    <glyph glyph-name="Tcaron" unicode="&#x164;" horiz-adv-x="1249" 
d="M713 1274v-1274h-176v1274h-455v160h1087v-160h-456zM723 1546h-186l-254 297h141l207 -201l205 201h141z" />
    <glyph glyph-name="tcaron" unicode="&#x165;" horiz-adv-x="819" 
d="M436 881v-455q0 -186 22 -245t112 -54q57 3 157 27v-160q-224 -47 -307 -17q-83 31 -115 101q-45 98 -45 348v455h-184v143h184v451h176v-451h291v-143h-291zM606 1367q0 44 33 76t78 32t77 -32t32 -78t-115 -245h-52l41 137q-38 4 -66 35t-28 75z" />
    <glyph glyph-name="Tbar" unicode="&#x166;" horiz-adv-x="1249" 
d="M713 1274v-250h291v-123h-291v-901h-176v901h-277v123h277v250h-455v160h1087v-160h-456z" />
    <glyph glyph-name="tbar" unicode="&#x167;" horiz-adv-x="819" 
d="M436 1180v-156h291v-143h-291v-455q0 -184 22 -242q7 -20 25 -36q52 -45 244 8v-162q-165 -30 -246 -25t-121 40q-39 36 -55 71q-45 98 -45 346v455h-184v143h184v156h-225v123h225v172h176v-172h342v-123h-342z" />
    <glyph glyph-name="Umacron" unicode="&#x16a;" horiz-adv-x="1505" 
d="M1337 1434v-813q0 -313 -147 -483t-438 -169q-291 0 -437 168q-145 168 -145 481v816h176v-799q0 -387 219 -474q78 -32 187 -32q215 0 312 126t97 380v799h176zM1139 1686h-744v122h744v-122z" />
    <glyph glyph-name="umacron" unicode="&#x16b;" 
d="M1040 0h-151q-14 37 -21 137q-66 -72 -167 -118t-203 -46q-170 -1 -260 103t-88 270v678h176v-631q0 -133 55 -204t137 -73t175 43q93 44 171 126v739h176v-1024zM967 1481h-744v123h744v-123z" />
    <glyph glyph-name="Uring" unicode="&#x16e;" horiz-adv-x="1505" 
d="M1337 1434v-813q0 -313 -147 -483t-438 -169q-291 0 -437 168q-145 168 -145 481v816h176v-799q0 -387 219 -474q78 -32 187 -32q215 0 312 126t97 380v799h176zM774 1778q-47 0 -82 -35t-35 -82t35 -82t82 -35t80 35t33 82t-33 82t-80 35zM788 1864q68 0 126 -60
t58 -128q0 -70 -27 -117q-60 -101 -171 -101q-82 0 -142 60t-60 130q0 68 27 115q28 47 74 74q47 27 115 27z" />
    <glyph glyph-name="uring" unicode="&#x16f;" 
d="M1040 0h-151q-14 37 -21 137q-66 -72 -167 -118t-203 -46q-170 -1 -260 103t-88 270v678h176v-631q0 -133 55 -204t137 -73t175 43q93 44 171 126v739h176v-1024zM602 1573q-47 0 -82 -35t-35 -82t35 -82t82 -35t80 35t33 82t-33 82t-80 35zM616 1659q68 1 126 -59
t58 -130t-27 -116q-60 -101 -171 -101q-82 1 -142 61t-60 128t27 117q60 100 189 100z" />
    <glyph glyph-name="Uhungarumlaut" unicode="&#x170;" horiz-adv-x="1505" 
d="M1337 1434v-813q0 -313 -147 -483t-438 -169q-291 0 -437 168q-145 168 -145 481v816h176v-799q0 -387 219 -474q78 -32 187 -32q215 0 312 126t97 380v799h176zM905 1546h-141l246 297h190zM532 1546h-141l246 297h190z" />
    <glyph glyph-name="uhungarumlaut" unicode="&#x171;" 
d="M1040 0h-151q-14 37 -21 137q-66 -72 -167 -118t-203 -46q-170 -1 -260 103t-88 270v678h176v-631q0 -133 55 -204t137 -73t175 43q93 44 171 126v739h176v-1024zM733 1341h-141l246 297h190zM360 1341h-141l246 297h190z" />
    <glyph glyph-name="Uogonek" unicode="&#x172;" horiz-adv-x="1505" 
d="M1337 1434v-813q0 -285 -122 -451t-363 -195q-62 -47 -106 -110t-44 -111t26 -70t65 -22t69 26t41 64l70 -59q-53 -123 -180 -123q-82 0 -134 47q-51 47 -51 119t25 122q25 48 78 111q-269 13 -405 181t-136 468v816h176v-799q0 -387 219 -474q78 -32 187 -32
q215 0 312 126t97 380v799h176z" />
    <glyph glyph-name="uogonek" unicode="&#x173;" 
d="M944 -430q-82 0 -133 47t-51 131t60 167q19 28 69 85q-14 37 -21 137q-66 -72 -167 -118t-203 -46q-170 -1 -260 103t-88 270v678h176v-631q0 -133 55 -204t137 -73t175 43q93 44 171 126v739h176v-1024q-72 -43 -129 -117t-57 -125q0 -52 27 -74t65 -22t68 26
q29 26 43 64l67 -59q-51 -123 -180 -123z" />
    <glyph glyph-name="Wcircumflex" unicode="&#x174;" horiz-adv-x="2148" 
d="M1075 1018l-428 -1079l-571 1495h194l385 -1045l420 1065l418 -1065l385 1045h195l-572 -1495zM1421 1546h-141l-205 201l-207 -201h-141l254 297h186z" />
    <glyph glyph-name="wcircumflex" unicode="&#x175;" horiz-adv-x="1689" 
d="M846 655l-301 -716l-475 1085h182l297 -700l297 720l295 -720l299 700h182l-475 -1085zM1192 1341h-141l-205 201l-207 -201h-141l254 297h186z" />
    <glyph glyph-name="Ycircumflex" unicode="&#x176;" horiz-adv-x="1353" 
d="M766 0h-176v606l-549 828h195l442 -666l440 666h197l-549 -828v-606zM1024 1546h-141l-205 201l-207 -201h-141l254 297h186z" />
    <glyph glyph-name="ycircumflex" unicode="&#x177;" horiz-adv-x="1144" 
d="M1077 1024l-473 -1120q-51 -127 -97 -202q-45 -75 -107 -115t-136 -38t-176 41l53 154q70 -35 118 -38t88 33t71 94t69 167l-403 1024h188l303 -819l336 819h166zM936 1341h-141l-205 201l-207 -201h-141l254 297h186z" />
    <glyph glyph-name="Ydieresis" unicode="&#x178;" horiz-adv-x="1353" 
d="M766 0h-176v606l-549 828h195l442 -666l440 666h197l-549 -828v-606zM871 1614q-43 0 -75 32t-32 86t52 83q24 14 62 14q37 0 69 -31t32 -76q0 -44 -32 -76t-76 -32zM485 1829q37 0 69 -31t32 -76q0 -44 -32 -76t-76 -32t-76 32t-32 86t54 83q24 14 61 14z" />
    <glyph glyph-name="Zacute" unicode="&#x179;" horiz-adv-x="1503" 
d="M1341 170v-170h-1232l940 1264h-809v170h1151l-938 -1264h888zM748 1546h-142l246 297h190z" />
    <glyph glyph-name="zacute" unicode="&#x17a;" horiz-adv-x="1048" 
d="M895 141v-141h-795l572 883h-496v141h772l-567 -883h514zM481 1341h-139l246 297h190z" />
    <glyph glyph-name="Zdotaccent" unicode="&#x17b;" horiz-adv-x="1503" 
d="M1341 170v-170h-1232l940 1264h-809v170h1151l-938 -1264h888zM813 1829q37 0 69 -31t32 -76q0 -44 -32 -76t-76 -32t-77 32t-33 68t16 62q32 53 101 53z" />
    <glyph glyph-name="zdotaccent" unicode="&#x17c;" horiz-adv-x="1048" 
d="M895 141v-141h-795l572 883h-496v141h772l-567 -883h514zM552 1624q34 0 64 -31t31 -75q0 -44 -31 -77q-32 -32 -76 -32t-76 32q-32 33 -32 65t9 53q29 65 111 65z" />
    <glyph glyph-name="Zcaron" unicode="&#x17d;" horiz-adv-x="1503" 
d="M1341 170v-170h-1232l940 1264h-809v170h1151l-938 -1264h888zM901 1546h-186l-254 297h141l207 -201l205 201h141z" />
    <glyph glyph-name="zcaron" unicode="&#x17e;" horiz-adv-x="1048" 
d="M895 141v-141h-795l572 883h-496v141h772l-567 -883h514zM637 1341h-186l-254 297h141l207 -200l205 200h141z" />
    <glyph glyph-name="Scommaaccent" unicode="&#x218;" horiz-adv-x="1179" 
d="M565 -301q45 0 77 -32t32 -83t-115 -239h-51l43 137q-41 4 -69 35t-28 75t33 75q33 32 78 32zM1063 408q0 -123 -45 -214q-45 -92 -119 -138q-218 -137 -541 -60q-88 20 -158 55t-102 72l82 143q110 -94 278 -128t295 26q60 29 97 90q37 62 37 126q0 110 -60 167
q-90 87 -286 147q-181 67 -249 106q-68 40 -101 76q-70 79 -70 204q0 126 57 213q58 87 150 125q190 78 447 26q120 -25 233 -72l-64 -153q-145 85 -332 96t-268 -87q-47 -56 -47 -138t61 -134q60 -48 116 -66q56 -20 92 -32t98 -34q172 -59 276 -141q123 -98 123 -275z" />
    <glyph glyph-name="scommaaccent" unicode="&#x219;" horiz-adv-x="948" 
d="M397 -422q0 89 76 116q16 5 48 5t64 -32q31 -32 31 -83t-114 -239h-51l43 137q-41 4 -69 35t-28 61zM674 291q0 84 -68 131t-219 85t-224 90t-73 175t97 200t253 77q92 0 192 -27t171 -70l-53 -121q-147 88 -295 89q-77 0 -139 -34t-62 -109t102 -113q34 -12 176 -49
t225 -106t83 -190t-56 -199q-105 -148 -323 -149q-135 -1 -235 45t-158 109l84 117q53 -66 134 -100t170 -34q90 0 154 50q64 49 64 133z" />
    <glyph glyph-name="uni021A" unicode="&#x21a;" horiz-adv-x="1249" 
d="M508 -420q0 76 67 110q20 9 54 9t66 -32t32 -83t-115 -239h-51l41 137q-38 4 -66 35t-28 63zM1169 1434v-160h-456v-1274h-176v1274h-455v160h1087z" />
    <glyph glyph-name="uni021B" unicode="&#x21b;" horiz-adv-x="819" 
d="M350 -420q0 77 68 110q20 9 54 9t65 -32t31 -83t-113 -239h-52l41 137q-38 4 -66 35t-28 63zM436 881v-455q0 -184 22 -242q7 -20 25 -36q52 -45 244 8v-162q-165 -30 -246 -25t-121 40q-39 36 -55 71q-45 98 -45 346v455h-184v143h184v451h176v-451h291v-143h-291z" />
    <glyph glyph-name="dotlessj" unicode="&#x237;" horiz-adv-x="620" 
d="M414 1024v-1024q0 -242 -26 -321q-26 -78 -58 -109q-31 -31 -102 -49t-281 22v162q82 -19 125 -29t81 -1t52 19q13 10 25 71q12 60 12 146v1113h172z" />
    <glyph glyph-name="circumflex" unicode="&#x2c6;" horiz-adv-x="694" 
d="M694 1341h-141l-205 201l-207 -201h-141l254 297h186z" />
    <glyph glyph-name="caron" unicode="&#x2c7;" horiz-adv-x="694" 
d="M440 1341h-186l-254 297h141l207 -200l205 200h141z" />
    <glyph glyph-name="breve" unicode="&#x2d8;" horiz-adv-x="505" 
d="M397 1638h109q0 -108 -68 -178t-186 -70t-186 72q-66 70 -66 176h106q0 -82 33 -120t112 -39q79 1 113 39t33 120z" />
    <glyph glyph-name="dotaccent" unicode="&#x2d9;" horiz-adv-x="215" 
d="M0 1519q0 46 33 75q33 30 77 30t74 -31t31 -69q0 -38 -14 -62q-30 -53 -83 -53q-54 0 -86 32t-32 78z" />
    <glyph glyph-name="ring" unicode="&#x2da;" horiz-adv-x="401" 
d="M203 1573q-47 0 -82 -35t-35 -82t35 -82t82 -35t81 35t33 82q0 47 -33 82q-34 35 -81 35zM203 1659q82 1 140 -59t58 -144t-58 -143t-140 -59q-83 0 -143 60t-60 143t60 143t143 59z" />
    <glyph glyph-name="ogonek" unicode="&#x2db;" horiz-adv-x="364" 
d="M184 -338q81 0 111 90l70 -59q-53 -123 -181 -123q-82 0 -133 47t-51 133t59 165q21 28 70 85h152q-72 -43 -129 -117q-58 -74 -58 -125q0 -52 27 -74t63 -22z" />
    <glyph glyph-name="tilde" unicode="&#x2dc;" horiz-adv-x="757" 
d="M686 1626l72 -45q-69 -153 -128 -176q-26 -10 -53 -16t-124 28q-98 34 -129 44q-30 9 -48 15q-109 34 -147 -2q-37 -36 -57 -73l-72 45q33 78 88 130q70 67 210 15q20 -6 48 -17t58 -21q80 -27 118 -38q37 -12 67 -2q29 9 44 28q31 42 53 85z" />
    <glyph glyph-name="hungarumlaut" unicode="&#x2dd;" horiz-adv-x="806" 
d="M512 1341h-139l245 297h189zM139 1341h-139l246 297h188z" />
    <glyph glyph-name="commaaccentcomb" unicode="&#x326;" horiz-adv-x="0" 
d="M0 -420q0 77 68 110q20 9 54 9t64 -32t31 -83q0 -51 -113 -239h-51l41 137q-38 4 -66 35t-28 63z" />
    <glyph glyph-name="Wgrave" unicode="&#x1e80;" horiz-adv-x="2148" 
d="M1501 -61l-426 1079l-428 -1079l-571 1495h194l385 -1045l420 1065l418 -1065l385 1045h195zM954 1546l-290 297h188l242 -297h-140z" />
    <glyph glyph-name="wgrave" unicode="&#x1e81;" horiz-adv-x="1689" 
d="M1147 -61l-301 716l-301 -716l-475 1085h182l297 -700l297 720l295 -720l299 700h182zM803 1341l-291 297h190l242 -297h-141z" />
    <glyph glyph-name="Wacute" unicode="&#x1e82;" horiz-adv-x="2148" 
d="M1075 1018l-428 -1079l-571 1495h194l385 -1045l420 1065l418 -1065l385 1045h195l-572 -1495zM1020 1546h-141l245 297h191z" />
    <glyph glyph-name="wacute" unicode="&#x1e83;" horiz-adv-x="1689" 
d="M846 655l-301 -716l-475 1085h182l297 -700l297 720l295 -720l299 700h182l-475 -1085zM788 1341h-141l246 297h190z" />
    <glyph glyph-name="Wdieresis" unicode="&#x1e84;" horiz-adv-x="2148" 
d="M1501 -61l-426 1079l-428 -1079l-571 1495h194l385 -1045l420 1065l418 -1065l385 1045h195zM1271 1614q-44 0 -77 32t-33 64q0 82 68 111q20 8 53 8t65 -31q31 -31 31 -76q0 -44 -32 -76t-75 -32zM878 1614q-44 0 -77 32t-33 68t15 62q32 53 85 53q54 0 86 -31t31 -76
q1 -44 -31 -76t-76 -32z" />
    <glyph glyph-name="wdieresis" unicode="&#x1e85;" horiz-adv-x="1689" 
d="M1147 -61l-301 716l-301 -716l-475 1085h182l297 -700l297 720l295 -720l299 700h182zM1039 1409q-43 0 -75 32q-32 33 -32 65q0 81 65 110q20 8 53 8t65 -31t32 -75t-32 -77q-32 -32 -76 -32zM646 1409q-44 0 -76 32q-49 49 -23 116t100 67q43 0 75 -31t32 -75t-32 -77
q-32 -32 -76 -32z" />
    <glyph glyph-name="Ygrave" unicode="&#x1ef2;" horiz-adv-x="1353" 
d="M766 0h-176v606l-549 828h195l442 -666l440 666h197l-549 -828v-606zM877 1546h-140l-291 297h189z" />
    <glyph glyph-name="ygrave" unicode="&#x1ef3;" horiz-adv-x="1144" 
d="M1077 1024l-473 -1120q-51 -127 -97 -202q-45 -75 -107 -115t-136 -38t-176 41l53 154q70 -35 118 -38t88 33t71 94t69 167l-403 1024h188l303 -819l336 819h166zM791 1341h-140l-291 297h189z" />
    <glyph glyph-name="endash" unicode="&#x2013;" horiz-adv-x="1159" 
d="M1040 420h-921v160h921v-160z" />
    <glyph glyph-name="emdash" unicode="&#x2014;" horiz-adv-x="1695" 
d="M1577 420h-1458v160h1458v-160z" />
    <glyph glyph-name="quoteleft" unicode="&#x2018;" horiz-adv-x="440" 
d="M234 1112q-38 0 -68 32q-31 32 -31 79t113 243h51l-41 -137q39 -4 67 -35q27 -30 27 -66t-14 -62t-40 -40t-64 -14z" />
    <glyph glyph-name="quoteright" unicode="&#x2019;" horiz-adv-x="440" 
d="M88 1366q0 36 33 69q33 31 78 31t77 -32t31 -77q0 -46 -114 -245h-52l41 137q-25 2 -46 18q-48 32 -48 99z" />
    <glyph glyph-name="quotedblleft" unicode="&#x201c;" horiz-adv-x="729" 
d="M641 1209q0 -33 -32 -65t-78 -32q-47 0 -77 32t-30 74t33 103q33 62 80 145h51l-41 -137q18 -2 37 -11q57 -29 57 -109zM234 1112q-38 0 -68 32q-31 32 -31 76t107 234l6 12h51l-41 -137q39 -4 67 -35q27 -30 27 -66t-14 -62t-40 -40t-64 -14z" />
    <glyph glyph-name="quotedblright" unicode="&#x201d;" horiz-adv-x="731" 
d="M379 1355q0 37 14 61q31 52 85 52t86 -32t32 -75q0 -44 -115 -247h-51l43 139q-41 4 -67 35t-27 67zM88 1363q0 44 33 75q33 30 78 30t77 -30t31 -76q0 -45 -114 -246h-52l41 137q-38 4 -66 35t-28 75z" />
    <glyph glyph-name="dagger" unicode="&#x2020;" horiz-adv-x="952" 
d="M532 1104l304 18v-147l-306 18l15 -604h-137l14 604l-305 -18v147l303 -18l-21 330h154z" />
    <glyph glyph-name="daggerdbl" unicode="&#x2021;" horiz-adv-x="948" 
d="M834 977l-308 20l17 -280l-17 -277l308 19v-148l-306 19l23 -330h-152l21 330l-303 -19v148l305 -19l-14 277l14 280l-305 -20v147l303 -16l-21 326h152l-23 -326l306 16v-147z" />
    <glyph glyph-name="bullet" unicode="&#x2022;" horiz-adv-x="874" 
d="M438 879q90 0 156 -66t65 -156q1 -59 -29 -110t-81 -82t-126 -31t-141 67t-67 157q1 90 67 155q66 66 156 66z" />
    <glyph glyph-name="ellipsis" unicode="&#x2026;" horiz-adv-x="1312" 
d="M1174 92q0 -45 -32 -77q-32 -31 -76 -31t-76 32t-32 68q0 37 15 61q30 54 101 54q38 0 69 -31t31 -76zM766 100q0 -36 -14 -62q-29 -54 -84 -54q-54 0 -86 32t-31 68q0 37 14 61q30 54 101 54q38 0 69 -31t31 -68zM156 145q30 54 101 54q38 0 69 -31q30 -31 30 -76
t-32 -77q-32 -31 -68 -31q-38 0 -62 14q-51 29 -53 94q0 29 15 53z" />
    <glyph glyph-name="guilsinglleft" unicode="&#x2039;" horiz-adv-x="665" 
d="M551 889l-248 -379l248 -385l-129 -82l-330 467l330 461z" />
    <glyph glyph-name="guilsinglright" unicode="&#x203a;" horiz-adv-x="665" 
d="M571 510l-329 -467l-127 82l247 385l-247 379l127 82z" />
    <glyph glyph-name="fraction" unicode="&#x2044;" horiz-adv-x="1538" 
d="M236 -348h-170l1237 1986h170z" />
    <glyph glyph-name="Euro" unicode="&#x20ac;" horiz-adv-x="1275" 
d="M100 487v127h168q-4 48 -4 102t4 103h-168v127h189q31 134 99 236q125 187 343 251q218 65 449 1l-21 -144q-168 53 -334 8t-271 -184q-56 -74 -85 -168h487l-16 -127h-498q-6 -49 -6 -102t6 -103h471l-16 -127h-428q73 -234 284 -325q188 -84 406 -19l21 -143
q-224 -65 -444 0t-347 252q-70 102 -100 235h-189z" />
    <glyph glyph-name="trademark" unicode="&#x2122;" horiz-adv-x="688" 
d="M49 1434h215v-35h-90v-252h-33v252h-92v35zM602 1147h-37v211l-102 -107l-105 105v-209h-36v295l141 -144l139 144v-295z" />
    <glyph glyph-name="minus" unicode="&#x2212;" horiz-adv-x="1310" 
d="M1167 555h-1024v160h1024v-160z" />
    <glyph glyph-name="approxequal" unicode="&#x2248;" horiz-adv-x="1507" 
d="M1276 643l106 -57q-88 -159 -156 -197q-30 -15 -52 -27q-73 -39 -246 14q-27 7 -92 27t-122 36q-56 15 -88 23t-80 17q-48 8 -73 3t-68 -20t-104 -97l-108 55q70 115 113 145q44 31 75 47q103 53 454 -57q194 -61 289 -53q25 2 55 26t46 44q16 22 51 71zM1276 1042
l106 -57q-86 -156 -156 -197q-30 -16 -52 -27q-82 -42 -325 38q-53 16 -75 22t-136 39t-152 25t-81 -23t-104 -98l-108 55q69 114 113 145q44 32 73 47t70 17t78 3t104 -17q106 -30 255 -75q148 -45 238 -38q25 2 55 26t46 45t51 70z" />
    <glyph glyph-name="notequal" unicode="&#x2260;" horiz-adv-x="1548" 
d="M1389 543v-160h-635l-148 -338l-143 59l121 279h-424v160h493l97 225h-590v160h659l164 375l143 -60l-137 -315h400v-160h-469l-97 -225h566z" />
    <glyph glyph-name="lessequal" unicode="&#x2264;" horiz-adv-x="1402" 
d="M195 160h1024v-160h-1024v160zM1219 444v-172l-1088 426l1088 404v-152l-697 -250z" />
    <glyph glyph-name="greaterequal" unicode="&#x2265;" horiz-adv-x="1449" 
d="M182 160h1024v-160h-1024v160zM1270 698l-1088 -426v172l701 256l-699 250v152z" />
    <glyph glyph-name="lozenge" unicode="&#x25ca;" horiz-adv-x="1329" 
d="M309 621l357 -357l354 357l-354 354zM1223 621l-557 -560l-560 560l560 557z" />
    <glyph glyph-name="O_O" horiz-adv-x="2467" 
d="M1374 719q0 274 -139 430q-139 -156 -139 -430t139 -432q139 158 139 432zM1626 129q246 0 388 157t142 432t-140 431t-390 156q-147 0 -258 -56q190 -209 190 -535t-190 -530q113 -55 258 -55zM313 718q-1 -275 141 -432t390 -157q143 0 256 55q-188 203 -188 530
t190 535q-113 55 -258 56q-252 0 -392 -156t-139 -431zM1626 1464q170 0 308 -60q258 -112 360 -404q47 -134 47 -296t-57 -304q-108 -273 -381 -381q-129 -50 -277 -50q-221 0 -393 105q-170 -104 -381 -104t-372 85q-161 86 -256 258t-95 404q0 306 179 522
q188 225 562 225q198 0 365 -104q166 104 391 104z" />
    <glyph glyph-name="c_t" horiz-adv-x="1779" 
d="M621 -37q-174 0 -293 68q-228 130 -230 483q0 250 119 389t334 156q-84 103 -84 241t58 238q118 203 397 203q229 0 350 -121t123 -354v-242h291v-143h-291v-455q0 -166 15 -215q16 -49 32 -63t63 -21q47 -6 181 29v-162q-197 -40 -290 -18q-54 13 -87 43q-65 59 -82 220
q-8 75 -8 187v889q-2 153 -78 229t-218 76q-141 0 -219 -85t-78 -220t99 -211q52 -40 145 -92q94 -52 121 -74l-61 -131q-76 63 -171 89q-94 25 -155 26q-156 2 -243 -102t-87 -306q0 -201 87 -304t243 -104q92 0 182 35t144 82l61 -129q-59 -57 -167 -94t-203 -37z" />
    <glyph glyph-name="f_i" horiz-adv-x="1071" 
d="M434 1136v-112h467v-1024h-176v881h-291v-881h-176v881h-184v143h184v18q-2 115 5 187q16 164 103 223t287 39q101 -10 248 -37v-160q-74 14 -123 24q-204 40 -274 6q-70 -32 -70 -188z" />
    <glyph glyph-name="f_l" horiz-adv-x="1071" 
d="M538 1360q-104 0 -104 -202v-134h172v-143h-172v-881h-176v881h-184v143h184v18q-6 283 35 353q16 29 48 63t77 41q45 8 129 14t352 -38v-1475h-174v1339q-49 7 -78 13q-40 8 -109 8z" />
    <glyph glyph-name="s_t" horiz-adv-x="1669" 
d="M674 291q0 84 -68 131t-219 85t-224 90t-73 176t97 197t243 77q-72 94 -72 229q0 202 126 320t342 118t337 -120t121 -355v-215h291v-143h-291v-455q0 -168 16 -216t31 -62q48 -43 244 8v-162q-197 -40 -290 -18q-54 13 -87 43q-90 82 -90 407v455h-184v143h186v264
q-2 152 -78 229t-218 77t-220 -86q-78 -85 -78 -228q0 -98 60 -169t172 -130q29 -12 55 -29l-53 -121q-147 88 -295 89q-77 0 -139 -34t-62 -109t102 -113q34 -12 176 -49t225 -106t83 -190t-56 -199q-105 -148 -323 -149q-135 -1 -235 45t-158 109l84 117q53 -66 134 -100
t170 -34q90 0 154 50q64 49 64 133z" />
    <glyph glyph-name="zero.tosf" horiz-adv-x="1333" 
d="M664 129q366 0 366 377q0 182 -93 286t-272 103q-179 0 -271 -102q-92 -101 -93 -287q0 -186 93 -282t270 -95zM664 1055q138 0 246 -45t174 -122q133 -156 130 -382q0 -172 -70 -294q-139 -241 -480 -243q-178 0 -306 75q-241 142 -241 462q1 258 151 404t396 145z" />
    <glyph glyph-name="one.tosf" horiz-adv-x="724" 
d="M522 0h-176v854l-248 -70l-45 138l469 133v-1055z" />
    <glyph glyph-name="two.tosf" 
d="M668 1055q180 0 297 -83t117 -243t-106 -240q-84 -64 -197 -97t-184 -53q-71 -19 -137 -47q-129 -53 -161 -140h782v-152h-979q0 270 236 381q98 47 206 77t185 57q77 26 112 59q68 63 68 143q0 211 -315 198q-109 -3 -207 -47t-168 -116l-63 129q179 174 514 174z" />
    <glyph glyph-name="three.tosf" horiz-adv-x="1232" 
d="M643 1061q219 0 341 -111t122 -280q0 -106 -59 -192t-152 -109q113 -31 185 -130t73 -227q0 -218 -138 -332t-376 -114q-155 0 -309 52t-211 112l86 139q59 -59 177 -102t213 -43q174 0 266 55q108 64 108 233q0 131 -77 205t-208 74h-244v155h244q121 0 179 68t59 158
q0 238 -295 237q-199 0 -365 -92l-65 152q227 92 446 92z" />
    <glyph glyph-name="four.tosf" horiz-adv-x="1277" 
d="M979 -41v-369h-176v369h-729q152 191 240 411t87 412h164q0 -172 -57 -350t-150 -313h445v925h176v-925h201v-160h-201z" />
    <glyph glyph-name="five.tosf" horiz-adv-x="1251" 
d="M348 864v-366q220 63 418 21q104 -23 184 -71t129 -144t49 -204t-22 -183t-62 -131q-81 -117 -209 -171q-128 -55 -266 -55q-266 0 -465 133l64 147q174 -133 376 -133q400 0 400 369q0 169 -108 243t-278 74q-171 0 -376 -61v692h910v-160h-744z" />
    <glyph glyph-name="six.tosf" horiz-adv-x="1308" 
d="M658 129q152 0 247 87q96 87 96 252t-81 251q-82 86 -230 86q-104 0 -185 -38q-150 -70 -198 -239q15 -209 107 -304t244 -95zM711 1313q-123 1 -208 -57t-138 -183q-53 -135 -62 -332q49 97 163 153t241 56q221 0 350 -136t129 -350t-152 -354t-360 -141
q-547 0 -547 715q0 366 163 574t429 208q135 0 235 -48t197 -161l-102 -118q-137 174 -338 174z" />
    <glyph glyph-name="seven.tosf" 
d="M139 1022h967q-43 -326 -197 -547q-57 -82 -211 -257q-204 -237 -204 -630h-191q0 272 103 464q53 99 102 167t129 161t125 159q108 158 133 323h-756v160z" />
    <glyph glyph-name="eight.tosf" horiz-adv-x="1294" 
d="M983 8q0 133 -90 206t-266 73q-268 0 -338 -172q-20 -49 -21 -107q1 -281 359 -289q356 8 356 289zM634 903q-238 0 -299 -143q-17 -41 -18 -94q0 -225 308 -226q161 0 235 64t74 176q0 113 -90 168t-210 55zM84 -3q0 95 37 171q76 156 239 194q-100 23 -163 108
q-63 84 -63 190t43 185q77 138 276 188q85 22 197 22t220 -41t179 -132q69 -91 69 -231t-107 -230q-52 -45 -120 -59q121 -28 199 -126t77 -230q0 -223 -148 -335t-392 -111q-404 0 -510 261q-33 81 -33 176z" />
    <glyph glyph-name="nine.tosf" horiz-adv-x="1308" 
d="M624 905q-150 0 -247 -87q-96 -87 -96 -252q-1 -165 81 -251t233 -86t248 77t132 200q-17 209 -109 304t-242 95zM575 84q-221 0 -350 136t-129 350t152 354t360 141q547 0 547 -715q0 -366 -163 -574t-429 -208q-139 0 -237 50t-195 159l102 119q137 -174 336 -175
q123 -1 208 57t141 183q53 135 59 332q-49 -97 -163 -153t-239 -56z" />
    <glyph glyph-name="zero.osf" horiz-adv-x="1333" 
d="M664 129q366 0 366 377q0 182 -93 286t-272 103q-179 0 -271 -102q-92 -101 -93 -287q0 -186 93 -282t270 -95zM664 1055q138 0 246 -45t174 -122q133 -156 130 -382q0 -172 -70 -294q-139 -241 -480 -243q-178 0 -306 75q-241 142 -241 462q1 258 151 404t396 145z" />
    <glyph glyph-name="one.osf" horiz-adv-x="724" 
d="M522 0h-176v854l-248 -70l-45 138l469 133v-1055z" />
    <glyph glyph-name="two.osf" 
d="M668 1055q180 0 297 -83t117 -243t-106 -240q-84 -64 -197 -97t-184 -53q-71 -19 -137 -47q-129 -53 -161 -140h782v-152h-979q0 270 236 381q98 47 206 77t185 57q77 26 112 59q68 63 68 143q0 211 -315 198q-109 -3 -207 -47t-168 -116l-63 129q179 174 514 174z" />
    <glyph glyph-name="three.osf" horiz-adv-x="1232" 
d="M643 1061q219 0 341 -111t122 -280q0 -106 -59 -192t-152 -109q113 -31 185 -130t73 -227q0 -218 -138 -332t-376 -114q-155 0 -309 52t-211 112l86 139q59 -59 177 -102t213 -43q174 0 266 55q108 64 108 233q0 131 -77 205t-208 74h-244v155h244q121 0 179 68t59 158
q0 238 -295 237q-199 0 -365 -92l-65 152q227 92 446 92z" />
    <glyph glyph-name="four.osf" horiz-adv-x="1277" 
d="M979 -410h-176v369h-729q152 191 240 411t87 412h164q0 -172 -57 -350t-150 -313h445v925h176v-925h201v-160h-201v-369z" />
    <glyph glyph-name="five.osf" horiz-adv-x="1251" 
d="M348 864v-366q220 63 418 21q104 -23 184 -71t129 -144t49 -204t-22 -183t-62 -131q-81 -117 -209 -171q-128 -55 -266 -55q-266 0 -465 133l64 147q174 -133 376 -133q400 0 400 369q0 169 -108 243t-278 74q-171 0 -376 -61v692h910v-160h-744z" />
    <glyph glyph-name="six.osf" horiz-adv-x="1308" 
d="M658 129q152 0 247 87q96 87 96 252t-81 251q-82 86 -230 86q-104 0 -185 -38q-150 -70 -198 -239q15 -209 107 -304t244 -95zM711 1313q-123 1 -208 -57t-138 -183q-53 -135 -62 -332q49 97 163 153t241 56q221 0 350 -136t129 -350t-152 -354t-360 -141
q-547 0 -547 715q0 366 163 574t429 208q135 0 235 -48t197 -161l-102 -118q-137 174 -338 174z" />
    <glyph glyph-name="seven.osf" 
d="M139 1022h967q-43 -326 -197 -547q-57 -82 -211 -257q-204 -237 -204 -630h-191q0 272 103 464q53 99 102 167t129 161t125 159q108 158 133 323h-756v160z" />
    <glyph glyph-name="eight.osf" horiz-adv-x="1294" 
d="M983 8q0 133 -90 206t-266 73q-268 0 -338 -172q-20 -49 -21 -107q1 -281 359 -289q356 8 356 289zM634 903q-238 0 -299 -143q-17 -41 -18 -94q0 -225 308 -226q161 0 235 64t74 176q0 113 -90 168t-210 55zM84 -3q0 95 37 171q76 156 239 194q-100 23 -163 108
q-63 84 -63 190t43 185q77 138 276 188q85 22 197 22t220 -41t179 -132q69 -91 69 -231t-107 -230q-52 -45 -120 -59q121 -28 199 -126t77 -230q0 -223 -148 -335t-392 -111q-404 0 -510 261q-33 81 -33 176z" />
    <glyph glyph-name="nine.osf" horiz-adv-x="1308" 
d="M624 905q-150 0 -247 -87q-96 -87 -96 -252q-1 -165 81 -251t233 -86t248 77t132 200q-17 209 -109 304t-242 95zM575 84q-221 0 -350 136t-129 350t152 354t360 141q547 0 547 -715q0 -366 -163 -574t-429 -208q-139 0 -237 50t-195 159l102 119q137 -174 336 -175
q123 -1 208 57t141 183q53 135 59 332q-49 -97 -163 -153t-239 -56z" />
    <glyph glyph-name="zero.lf" horiz-adv-x="1415" 
d="M1112 718q0 290 -97 438t-309 149q-212 -1 -308 -149t-97 -439q0 -291 96 -439q97 -148 309 -148t309 149t97 439zM1296 717q0 -348 -156 -548t-435 -200q-127 0 -229 43q-186 78 -278 284q-81 179 -81 421q0 348 154 548q155 199 425 199q432 0 559 -434
q41 -135 41 -313z" />
    <glyph glyph-name="one.lf" horiz-adv-x="724" 
d="M522 0h-176v1262l-248 -70l-45 139l469 133v-1464z" />
    <glyph glyph-name="two.lf" horiz-adv-x="1210" 
d="M1067 160v-160h-967q0 225 109 356q74 89 160 146t209 121q123 69 184 115q137 102 149 256q14 186 -123 274q-76 49 -186 49q-194 0 -366 -119l-62 137q100 63 202 97t242 32q209 0 340 -124t132 -312q0 -263 -220 -410q-59 -39 -165 -95q-107 -56 -179 -96t-144 -112
t-101 -155h786z" />
    <glyph glyph-name="three.lf" horiz-adv-x="1232" 
d="M601 1464q218 0 341 -110t123 -281q0 -106 -60 -191t-151 -110q110 -31 184 -130t74 -226q0 -217 -139 -332t-375 -115q-156 1 -310 53t-210 111l84 139q59 -59 177 -102t213 -43q174 0 266 55q110 66 110 237t-136 243q-65 33 -151 32h-242v156h242q121 0 180 68t60 157
q0 238 -297 238q-197 0 -365 -92l-63 151q227 92 445 92z" />
    <glyph glyph-name="four.lf" horiz-adv-x="1277" 
d="M979 369v-369h-176v369h-729q152 190 239 410q88 220 88 413h164q0 -172 -57 -350t-150 -314h445v926h176v-926h201v-159h-201z" />
    <glyph glyph-name="five.lf" horiz-adv-x="1251" 
d="M348 1274v-367q218 62 418 22q104 -22 184 -71t129 -144t49 -204q0 -110 -22 -184q-41 -136 -146 -223q-155 -131 -391 -134q-266 0 -465 133l64 148q174 -133 376 -133q400 0 400 368q0 171 -107 243q-107 73 -278 74q-172 1 -377 -61v693h910v-160h-744z" />
    <glyph glyph-name="six.lf" horiz-adv-x="1308" 
d="M658 129q152 0 247 87q96 87 96 252t-81 251q-82 86 -230 86q-104 0 -185 -38q-150 -70 -198 -239q15 -209 107 -304t244 -95zM711 1313q-123 1 -208 -57t-138 -183q-53 -135 -62 -332q49 97 163 153t241 56q221 0 350 -136t129 -350t-152 -354t-360 -141
q-547 0 -547 715q0 366 163 574t429 208q135 0 235 -48t197 -161l-102 -118q-137 174 -338 174z" />
    <glyph glyph-name="seven.lf" 
d="M139 1434h967q-43 -326 -197 -547q-57 -82 -211 -257q-204 -237 -204 -630h-191q0 272 103 464q53 99 102 167t129 161q80 92 125 158q108 157 133 324h-756v160z" />
    <glyph glyph-name="eight.lf" horiz-adv-x="1294" 
d="M289 418q0 -281 358 -289q356 8 357 289q0 133 -90 206t-267 72q-264 0 -338 -172q-20 -49 -20 -106zM804 1287q-63 26 -171 26q-107 0 -201 -55t-94 -183q0 -225 307 -225q160 0 235 63q74 63 74 149t-19 118q-19 31 -44 56q-24 25 -87 51zM1188 416q0 -223 -148 -335
t-393 -112q-404 0 -510 261q-33 81 -33 199t79 216t198 127q-100 23 -164 108q-63 85 -63 190q0 289 319 373q85 21 197 21t221 -41t179 -132t69 -209q0 -118 -63 -202t-165 -108q121 -29 199 -127t78 -229z" />
    <glyph glyph-name="nine.lf" horiz-adv-x="1308" 
d="M276 969q0 -166 82 -252t233 -86t248 77t132 199q-17 209 -109 305t-242 95q-150 0 -247 -86t-97 -252zM565 123q123 0 208 57t140 182q53 135 60 332q-49 -96 -163 -152t-239 -57q-221 1 -350 137t-129 350t152 354t360 140q547 0 547 -714q0 -365 -163 -574t-429 -209
q-135 0 -235 48t-197 161l102 119q137 -174 336 -174z" />
    <glyph glyph-name="zero.tf" horiz-adv-x="1415" 
d="M1112 718q0 290 -97 438t-309 149q-212 -1 -308 -149t-97 -439q0 -291 96 -439q97 -148 309 -148t309 149t97 439zM1296 717q0 -348 -156 -548t-435 -200q-127 0 -229 43q-186 78 -278 284q-81 179 -81 421q0 348 154 548q155 199 425 199q432 0 559 -434
q41 -135 41 -313z" />
    <glyph glyph-name="one.tf" horiz-adv-x="724" 
d="M522 0h-176v1262l-248 -70l-45 139l469 133v-1464z" />
    <glyph glyph-name="two.tf" horiz-adv-x="1210" 
d="M1067 160v-160h-967q0 225 109 356q74 89 160 146t209 121q123 69 184 115q137 102 149 256q14 186 -123 274q-76 49 -186 49q-194 0 -366 -119l-62 137q100 63 202 97t242 32q209 0 340 -124t132 -312q0 -263 -220 -410q-59 -39 -165 -95q-107 -56 -179 -96t-144 -112
t-101 -155h786z" />
    <glyph glyph-name="three.tf" horiz-adv-x="1232" 
d="M601 1464q218 0 341 -110t123 -281q0 -106 -60 -191t-151 -110q110 -31 184 -130t74 -226q0 -217 -139 -332t-375 -115q-156 1 -310 53t-210 111l84 139q59 -59 177 -102t213 -43q174 0 266 55q110 66 110 237t-136 243q-65 33 -151 32h-242v156h242q121 0 180 68t60 157
q0 238 -297 238q-197 0 -365 -92l-63 151q227 92 445 92z" />
    <glyph glyph-name="four.tf" horiz-adv-x="1277" 
d="M979 369v-369h-176v369h-729q152 190 239 410q88 220 88 413h164q0 -172 -57 -350t-150 -314h445v926h176v-926h201v-159h-201z" />
    <glyph glyph-name="five.tf" horiz-adv-x="1251" 
d="M348 1274v-367q218 62 418 22q104 -22 184 -71t129 -144t49 -204q0 -110 -22 -184q-41 -136 -146 -223q-155 -131 -391 -134q-266 0 -465 133l64 148q174 -133 376 -133q400 0 400 368q0 171 -107 243q-107 73 -278 74q-172 1 -377 -61v693h910v-160h-744z" />
    <glyph glyph-name="six.tf" horiz-adv-x="1308" 
d="M658 129q152 0 247 87q96 87 96 252t-81 251q-82 86 -230 86q-104 0 -185 -38q-150 -70 -198 -239q15 -209 107 -304t244 -95zM711 1313q-123 1 -208 -57t-138 -183q-53 -135 -62 -332q49 97 163 153t241 56q221 0 350 -136t129 -350t-152 -354t-360 -141
q-547 0 -547 715q0 366 163 574t429 208q135 0 235 -48t197 -161l-102 -118q-137 174 -338 174z" />
    <glyph glyph-name="seven.tf" 
d="M139 1434h967q-43 -326 -197 -547q-57 -82 -211 -257q-204 -237 -204 -630h-191q0 272 103 464q53 99 102 167t129 161q80 92 125 158q108 157 133 324h-756v160z" />
    <glyph glyph-name="eight.tf" horiz-adv-x="1294" 
d="M289 418q0 -281 358 -289q356 8 357 289q0 133 -90 206t-267 72q-264 0 -338 -172q-20 -49 -20 -106zM804 1287q-63 26 -171 26q-107 0 -201 -55t-94 -183q0 -225 307 -225q160 0 235 63q74 63 74 149t-19 118q-19 31 -44 56q-24 25 -87 51zM1188 416q0 -223 -148 -335
t-393 -112q-404 0 -510 261q-33 81 -33 199t79 216t198 127q-100 23 -164 108q-63 85 -63 190q0 289 319 373q85 21 197 21t221 -41t179 -132t69 -209q0 -118 -63 -202t-165 -108q121 -29 199 -127t78 -229z" />
    <glyph glyph-name="nine.tf" horiz-adv-x="1308" 
d="M276 969q0 -166 82 -252t233 -86t248 77t132 199q-17 209 -109 305t-242 95q-150 0 -247 -86t-97 -252zM565 123q123 0 208 57t140 182q53 135 60 332q-49 -96 -163 -152t-239 -57q-221 1 -350 137t-129 350t152 354t360 140q547 0 547 -714q0 -365 -163 -574t-429 -209
q-135 0 -235 48t-197 161l102 119q137 -174 336 -174z" />
    </font>
</defs>
</svg>
