<?xml version="1.0" encoding="UTF-8" standalone="no"?>
<svg width="160px" height="130px" viewBox="0 0 160 130" version="1.1" xmlns="http://www.w3.org/2000/svg" xmlns:xlink="http://www.w3.org/1999/xlink" xmlns:sketch="http://www.bohemiancoding.com/sketch/ns">
    <!-- Generator: Sketch 3.3.1 (12002) - http://www.bohemiancoding.com/sketch -->
    <title>filled-stacked@Svg</title>
    <desc>Created with Sketch.</desc>
    <defs></defs>
    <g id="Page-1" stroke="none" stroke-width="1" fill="none" fill-rule="evenodd" sketch:type="MSPage">
        <g id="filled-stacked" sketch:type="MSArtboardGroup">
            <g id="Imported-Layers" sketch:type="MSLayerGroup" transform="translate(4.500000, 82.500000)" fill="#FFFFFF">
                <path d="M34.089,3.105 C34.994,1.867 34.491,0.864 32.95,0.864 L3.152,0.864 L3.152,6.845 L23.77,6.845 L1.076,37.887 C0.168,39.128 0.671,40.136 2.223,40.136 L34.263,40.136 L34.263,34.044 L11.473,34.044 L34.089,3.105" id="Fill-4" sketch:type="MSShapeGroup"></path>
                <path d="M48.612,0.864 L55.037,0.864 L55.037,40.135 L48.612,40.135 L48.612,0.864 Z" id="Fill-5" sketch:type="MSShapeGroup"></path>
                <path d="M102.335,0.864 L95.91,0.864 L95.91,26.105 L71.933,1.621 C70.856,0.522 69.984,0.876 69.984,2.414 L69.984,40.137 L76.409,40.137 L76.409,15.081 L100.386,39.394 C101.462,40.485 102.335,40.125 102.335,38.587 L102.335,0.864" id="Fill-6" sketch:type="MSShapeGroup"></path>
                <path d="M145.755,29.129 C143.467,32.427 138.496,35.042 134.506,35.042 C126.029,35.042 122.073,29.241 122.073,20.5 C122.073,11.703 125.973,5.958 134.506,5.958 C138.71,5.958 143.467,8.46 145.755,11.871 L150.625,7.933 C146.849,2.659 140.706,0.023 134.45,0.023 C123.064,0.023 115.287,7.541 115.287,20.5 C115.287,31.048 120.923,40.977 134.45,40.977 C140.593,40.977 146.736,38.285 150.625,32.955 L145.755,29.129" id="Fill-7" sketch:type="MSShapeGroup"></path>
            </g>
            <g id="Stroke-1-+-Stroke-2-+-Stroke-3" sketch:type="MSLayerGroup" transform="translate(53.500000, 6.500000)" stroke="#FFFFFF" stroke-linejoin="round">
                <path d="M12.431,20.788 L30.803,10.182 L22.965,39.034 L41.336,28.428" id="Stroke-1" stroke-width="4" stroke-linecap="square" sketch:type="MSShapeGroup"></path>
                <path d="M51.068,31.141 L33.391,0.523 L2.772,18.2 L20.451,48.818 L51.068,31.141 L51.068,31.141 Z" id="Stroke-2" stroke-width="2" stroke-linecap="square" sketch:type="MSShapeGroup"></path>
                <path d="M51.068,31.141 L33.391,0.523 L2.772,18.2 L0.183,27.859 L17.861,58.477 L48.48,40.8 L51.068,31.141 L51.068,31.141 Z" id="Stroke-3" stroke-width="2" stroke-linecap="round" sketch:type="MSShapeGroup"></path>
            </g>
        </g>
    </g>
</svg>