<?xml version="1.0" encoding="UTF-8" standalone="no"?>
<svg width="155px" height="45px" viewBox="0 0 155 45" version="1.1" xmlns="http://www.w3.org/2000/svg" xmlns:xlink="http://www.w3.org/1999/xlink" xmlns:sketch="http://www.bohemiancoding.com/sketch/ns">
    <!-- Generator: Sketch 3.3.1 (12002) - http://www.bohemiancoding.com/sketch -->
    <title>words@Svg</title>
    <desc>Created with Sketch.</desc>
    <defs></defs>
    <g id="Page-1" stroke="none" stroke-width="1" fill="none" fill-rule="evenodd" sketch:type="MSPage">
        <g id="words" sketch:type="MSArtboardGroup" fill="#871487">
            <path d="M36.089,5.105 C36.994,3.867 36.491,2.864 34.95,2.864 L5.152,2.864 L5.152,8.845 L25.77,8.845 L3.076,39.887 C2.168,41.128 2.671,42.136 4.223,42.136 L36.263,42.136 L36.263,36.044 L13.473,36.044 L36.089,5.105" id="Fill-4" sketch:type="MSShapeGroup"></path>
            <path d="M50.612,2.864 L57.037,2.864 L57.037,42.135 L50.612,42.135 L50.612,2.864 Z" id="Fill-5" sketch:type="MSShapeGroup"></path>
            <path d="M104.335,2.864 L97.91,2.864 L97.91,28.105 L73.933,3.621 C72.856,2.522 71.984,2.876 71.984,4.414 L71.984,42.137 L78.409,42.137 L78.409,17.081 L102.386,41.394 C103.462,42.485 104.335,42.125 104.335,40.587 L104.335,2.864" id="Fill-6" sketch:type="MSShapeGroup"></path>
            <path d="M147.755,31.129 C145.467,34.427 140.496,37.042 136.506,37.042 C128.029,37.042 124.073,31.241 124.073,22.5 C124.073,13.703 127.973,7.958 136.506,7.958 C140.71,7.958 145.467,10.46 147.755,13.871 L152.625,9.933 C148.849,4.659 142.706,2.023 136.45,2.023 C125.064,2.023 117.287,9.541 117.287,22.5 C117.287,33.048 122.923,42.977 136.45,42.977 C142.593,42.977 148.736,40.285 152.625,34.955 L147.755,31.129" id="Fill-7" sketch:type="MSShapeGroup"></path>
        </g>
    </g>
</svg>